<svg width="126" height="181" viewBox="0 0 126 181" fill="none" xmlns="http://www.w3.org/2000/svg">
<path d="M101.02 53.3711C100.81 53.3711 100.6 53.3811 100.4 53.3911C96.2596 35.9011 80.4696 23.3311 62.3396 23.3311C44.2196 23.3311 28.4296 35.8911 24.2996 53.3911C24.0996 53.3811 23.8896 53.3711 23.6796 53.3711C18.6796 53.3711 14.5996 57.4411 14.5996 62.4511C14.5996 67.4511 18.6696 71.5111 23.6796 71.5111C23.8896 71.5111 24.0996 71.5011 24.2996 71.4911C28.4296 88.9911 44.2196 101.551 62.3496 101.551C80.4696 101.551 96.2596 88.9911 100.41 71.4911C100.62 71.5011 100.82 71.5111 101.03 71.5111C106.03 71.5111 110.09 67.4411 110.09 62.4511C110.09 57.4411 106.02 53.3711 101.02 53.3711ZM101.02 68.6811C100.53 68.6811 100.08 68.6311 99.6196 68.5211C99.2396 68.4311 98.8496 68.5011 98.5296 68.7111C98.2096 68.9211 97.9796 69.2511 97.8996 69.6211C94.5196 86.4811 79.5596 98.7211 62.3296 98.7211C45.0996 98.7211 30.1496 86.4811 26.7796 69.6211C26.6996 69.2411 26.4796 68.9111 26.1596 68.7011C25.9296 68.5511 25.6596 68.4811 25.3896 68.4811C25.2796 68.4811 25.1696 68.4911 25.0596 68.5211C24.6096 68.6311 24.1496 68.6811 23.6596 68.6811C20.2196 68.6811 17.4196 65.8911 17.4196 62.4511C17.4196 59.0111 20.2196 56.2111 23.6596 56.2111C24.1496 56.2111 24.5996 56.2611 25.0196 56.3811C25.3996 56.4811 25.7996 56.4211 26.1296 56.2111C26.4596 56.0011 26.6896 55.6711 26.7696 55.2911C29.6996 40.6411 41.3596 29.4911 55.6596 26.8011C53.7096 29.3911 51.7296 33.4811 54.6096 37.2511C56.4796 39.6911 59.5196 40.7311 62.4496 40.7311C63.7896 40.7311 65.0996 40.5111 66.2796 40.1211C69.5296 39.0211 71.4596 36.6911 71.4596 33.8911C71.4596 30.0311 68.8796 28.3111 66.6796 28.0211C63.8796 27.6411 61.1996 29.3111 60.4796 31.9011C60.2696 32.6511 60.7096 33.4411 61.4696 33.6411C62.2196 33.8411 62.9996 33.4111 63.2096 32.6511C63.5996 31.2411 65.0896 30.6511 66.2996 30.8211C66.9996 30.9111 68.6296 31.4011 68.6296 33.8811C68.6296 36.0811 66.3496 37.0911 65.3696 37.4211C62.6596 38.3411 58.7496 37.9811 56.8696 35.5211C53.9096 31.6511 59.8396 26.3811 59.9296 26.3011C59.9396 26.2911 59.9496 26.2711 59.9596 26.2611C60.7396 26.2111 61.5296 26.1711 62.3196 26.1711C79.5496 26.1711 94.5096 38.4111 97.8896 55.2711C97.9696 55.6511 98.1896 55.9811 98.5196 56.1911C98.8496 56.4011 99.2396 56.4611 99.6096 56.3711C100.06 56.2611 100.52 56.2111 101 56.2111C104.43 56.2111 107.23 59.0111 107.23 62.4511C107.25 65.8811 104.46 68.6811 101.02 68.6811Z" fill="black"/>
<path d="M56.3501 61.541C55.5701 61.541 54.9301 62.171 54.9301 62.961C54.9301 65.351 51.9001 67.371 48.3001 67.371C44.7001 67.371 41.6701 65.351 41.6701 62.961C41.6701 62.181 41.0401 61.541 40.2501 61.541C39.4601 61.541 38.8301 62.171 38.8301 62.961C38.8301 66.951 43.0801 70.201 48.2901 70.201C53.5001 70.201 57.7501 66.951 57.7501 62.961C57.7701 62.181 57.1301 61.541 56.3501 61.541Z" fill="black"/>
<path d="M84.4292 61.541C83.6492 61.541 83.0092 62.171 83.0092 62.961C83.0092 65.351 79.9692 67.371 76.3792 67.371C72.7892 67.371 69.7492 65.351 69.7492 62.961C69.7492 62.181 69.1192 61.541 68.3292 61.541C67.5392 61.541 66.9092 62.171 66.9092 62.961C66.9092 66.951 71.1492 70.201 76.3692 70.201C81.5892 70.201 85.8292 66.951 85.8292 62.961C85.8492 62.181 85.2092 61.541 84.4292 61.541Z" fill="black"/>
<path d="M62.3399 69.9209C60.0199 69.9209 58.1299 71.8109 58.1299 74.1309C58.1299 76.4509 60.0199 78.3409 62.3399 78.3409C64.6599 78.3409 66.5499 76.4509 66.5499 74.1309C66.5499 71.8109 64.6699 69.9209 62.3399 69.9209ZM62.3399 75.5109C61.5799 75.5109 60.9599 74.8909 60.9599 74.1309C60.9599 73.3709 61.5799 72.7509 62.3399 72.7509C63.0999 72.7509 63.7199 73.3709 63.7199 74.1309C63.7199 74.8909 63.0999 75.5109 62.3399 75.5109Z" fill="black"/>
<rect x="2.09961" y="1.83105" width="121" height="121" rx="6.5" stroke="black" stroke-width="3"/>
<path d="M1.14648 153.331L3.56055 141.909H9.64648L9.31055 143.487H5.07617L4.41992 146.589H8.38086L8.05273 148.159H4.0918L3.32617 151.745H7.56055L7.22461 153.331H1.14648ZM9.44336 153.331L11.2793 144.683H12.709L12.5215 146.315H12.5996C12.8027 146.008 13.0371 145.719 13.3027 145.448C13.5736 145.172 13.8783 144.948 14.2168 144.776C14.5605 144.604 14.946 144.519 15.373 144.519C15.9772 144.519 16.4382 144.685 16.7559 145.019C17.0788 145.352 17.2793 145.808 17.3574 146.386H17.4199C17.6335 146.052 17.8809 145.745 18.1621 145.464C18.4486 145.183 18.7689 144.956 19.123 144.784C19.4824 144.607 19.873 144.519 20.2949 144.519C20.9928 144.519 21.5215 144.722 21.8809 145.128C22.2402 145.534 22.4199 146.102 22.4199 146.831C22.4199 147.05 22.4043 147.274 22.373 147.503C22.347 147.732 22.3053 147.969 22.248 148.214L21.1699 153.331H19.3418L20.459 148.081C20.5007 147.878 20.5319 147.696 20.5527 147.534C20.5788 147.368 20.5918 147.211 20.5918 147.065C20.5918 146.727 20.5111 146.469 20.3496 146.292C20.1934 146.11 19.9538 146.019 19.6309 146.019C19.36 146.019 19.0918 146.099 18.8262 146.261C18.5658 146.422 18.3184 146.657 18.084 146.964C17.8496 147.271 17.6413 147.644 17.459 148.081C17.2767 148.513 17.1283 149.003 17.0137 149.55L16.2168 153.331H14.3965L15.498 148.097C15.5449 147.888 15.5788 147.701 15.5996 147.534C15.6204 147.368 15.6309 147.222 15.6309 147.097C15.6309 146.748 15.5553 146.482 15.4043 146.3C15.2585 146.112 15.0241 146.019 14.7012 146.019C14.4303 146.019 14.1621 146.099 13.8965 146.261C13.6309 146.422 13.3809 146.659 13.1465 146.972C12.9121 147.284 12.7012 147.664 12.5137 148.112C12.3262 148.555 12.1725 149.063 12.0527 149.636L11.2715 153.331H9.44336ZM27.7949 153.487C27.4147 153.487 27.0814 153.425 26.7949 153.3C26.5085 153.175 26.2689 153.006 26.0762 152.792C25.8835 152.578 25.7272 152.341 25.6074 152.081H25.5371L25.0527 153.331H23.6621L26.2402 141.175H28.0605L27.5059 143.769C27.4486 144.05 27.3809 144.347 27.3027 144.659C27.2246 144.972 27.1465 145.258 27.0684 145.519C26.9954 145.779 26.9355 145.972 26.8887 146.097H26.9512C27.1699 145.821 27.4017 145.563 27.6465 145.323C27.8913 145.084 28.1647 144.891 28.4668 144.745C28.7741 144.599 29.1204 144.526 29.5059 144.526C29.9538 144.526 30.36 144.636 30.7246 144.854C31.0892 145.068 31.3783 145.399 31.5918 145.847C31.8105 146.295 31.9199 146.87 31.9199 147.573C31.9199 148.167 31.8574 148.75 31.7324 149.323C31.6126 149.896 31.4355 150.433 31.2012 150.933C30.9668 151.433 30.6829 151.875 30.3496 152.261C30.0163 152.641 29.6335 152.94 29.2012 153.159C28.7741 153.378 28.3053 153.487 27.7949 153.487ZM27.5527 151.995C27.8496 151.995 28.1257 151.914 28.3809 151.753C28.6361 151.586 28.8678 151.36 29.0762 151.073C29.2845 150.787 29.4616 150.456 29.6074 150.081C29.7533 149.706 29.8652 149.31 29.9434 148.894C30.0215 148.472 30.0605 148.047 30.0605 147.62C30.0605 147.089 29.9564 146.69 29.748 146.425C29.5449 146.154 29.2376 146.019 28.8262 146.019C28.5762 146.019 28.334 146.084 28.0996 146.214C27.8704 146.339 27.6569 146.513 27.459 146.737C27.2611 146.956 27.0814 147.211 26.9199 147.503C26.7637 147.789 26.6283 148.097 26.5137 148.425C26.3991 148.753 26.3105 149.086 26.248 149.425C26.1908 149.763 26.1621 150.089 26.1621 150.401C26.1621 150.881 26.2793 151.266 26.5137 151.558C26.7533 151.849 27.0996 151.995 27.5527 151.995ZM35.8105 153.487C35.3678 153.487 34.9642 153.381 34.5996 153.167C34.2402 152.948 33.9538 152.615 33.7402 152.167C33.5267 151.714 33.4199 151.138 33.4199 150.44C33.4199 149.836 33.4824 149.248 33.6074 148.675C33.7376 148.102 33.9199 147.565 34.1543 147.065C34.3939 146.565 34.6829 146.125 35.0215 145.745C35.36 145.36 35.7428 145.06 36.1699 144.847C36.597 144.628 37.0579 144.519 37.5527 144.519C37.9277 144.519 38.2559 144.584 38.5371 144.714C38.8184 144.839 39.0553 145.008 39.248 145.222C39.4408 145.435 39.597 145.672 39.7168 145.933H39.7871L40.2559 144.683H41.6621L39.8262 153.331H38.4277L38.5996 151.933H38.5371C38.3132 152.219 38.0632 152.479 37.7871 152.714C37.5163 152.948 37.2168 153.136 36.8887 153.276C36.5605 153.417 36.2012 153.487 35.8105 153.487ZM36.4824 151.995C36.847 151.995 37.196 151.86 37.5293 151.589C37.8626 151.313 38.1569 150.948 38.4121 150.495C38.6725 150.042 38.8652 149.545 38.9902 149.003C39.0527 148.743 39.0944 148.495 39.1152 148.261C39.1413 148.026 39.1543 147.792 39.1543 147.558C39.1543 147.104 39.0345 146.735 38.7949 146.448C38.5553 146.162 38.2272 146.019 37.8105 146.019C37.5241 146.019 37.2507 146.099 36.9902 146.261C36.735 146.422 36.5033 146.646 36.2949 146.933C36.0866 147.214 35.9043 147.539 35.748 147.909C35.597 148.279 35.4798 148.677 35.3965 149.104C35.3184 149.526 35.2793 149.956 35.2793 150.394C35.2793 150.92 35.3835 151.318 35.5918 151.589C35.8053 151.86 36.1022 151.995 36.4824 151.995ZM42.334 153.331L44.1699 144.683H45.5996L45.4121 146.315H45.498C45.722 145.982 45.9642 145.68 46.2246 145.409C46.4902 145.138 46.7845 144.922 47.1074 144.761C47.4303 144.599 47.7897 144.519 48.1855 144.519C48.3262 144.519 48.472 144.529 48.623 144.55C48.7793 144.565 48.9147 144.589 49.0293 144.62L48.6309 146.339C48.5163 146.308 48.3913 146.282 48.2559 146.261C48.1204 146.24 47.9772 146.229 47.8262 146.229C47.4824 146.229 47.1595 146.31 46.8574 146.472C46.5553 146.633 46.2819 146.857 46.0371 147.144C45.7923 147.43 45.5814 147.766 45.4043 148.151C45.2272 148.532 45.0892 148.946 44.9902 149.394L44.1621 153.331H42.334ZM51.623 153.487C51.1803 153.487 50.7767 153.381 50.4121 153.167C50.0527 152.948 49.7663 152.615 49.5527 152.167C49.3392 151.714 49.2324 151.138 49.2324 150.44C49.2324 149.836 49.2949 149.248 49.4199 148.675C49.5501 148.102 49.7324 147.565 49.9668 147.065C50.2064 146.565 50.4954 146.125 50.834 145.745C51.1725 145.36 51.5553 145.06 51.9824 144.847C52.4095 144.628 52.8704 144.519 53.3652 144.519C53.7402 144.519 54.0684 144.584 54.3496 144.714C54.6309 144.839 54.8678 145.008 55.0605 145.222C55.2533 145.435 55.4095 145.672 55.5293 145.933H55.5996L56.0684 144.683H57.4746L55.6387 153.331H54.2402L54.4121 151.933H54.3496C54.1257 152.219 53.8757 152.479 53.5996 152.714C53.3288 152.948 53.0293 153.136 52.7012 153.276C52.373 153.417 52.0137 153.487 51.623 153.487ZM52.2949 151.995C52.6595 151.995 53.0085 151.86 53.3418 151.589C53.6751 151.313 53.9694 150.948 54.2246 150.495C54.485 150.042 54.6777 149.545 54.8027 149.003C54.8652 148.743 54.9069 148.495 54.9277 148.261C54.9538 148.026 54.9668 147.792 54.9668 147.558C54.9668 147.104 54.847 146.735 54.6074 146.448C54.3678 146.162 54.0397 146.019 53.623 146.019C53.3366 146.019 53.0632 146.099 52.8027 146.261C52.5475 146.422 52.3158 146.646 52.1074 146.933C51.8991 147.214 51.7168 147.539 51.5605 147.909C51.4095 148.279 51.2923 148.677 51.209 149.104C51.1309 149.526 51.0918 149.956 51.0918 150.394C51.0918 150.92 51.196 151.318 51.4043 151.589C51.6178 151.86 51.9147 151.995 52.2949 151.995ZM57.4668 153.331L57.6934 152.183L62.6699 146.081H59.2324L59.5293 144.683H65.0605L64.7871 145.979L59.8965 151.925H63.7012L63.4121 153.331H57.4668ZM68.1074 153.487C67.6647 153.487 67.2611 153.381 66.8965 153.167C66.5371 152.948 66.2507 152.615 66.0371 152.167C65.8236 151.714 65.7168 151.138 65.7168 150.44C65.7168 149.836 65.7793 149.248 65.9043 148.675C66.0345 148.102 66.2168 147.565 66.4512 147.065C66.6908 146.565 66.9798 146.125 67.3184 145.745C67.6569 145.36 68.0397 145.06 68.4668 144.847C68.8939 144.628 69.3548 144.519 69.8496 144.519C70.2246 144.519 70.5527 144.584 70.834 144.714C71.1152 144.839 71.3522 145.008 71.5449 145.222C71.7376 145.435 71.8939 145.672 72.0137 145.933H72.084L72.5527 144.683H73.959L72.123 153.331H70.7246L70.8965 151.933H70.834C70.61 152.219 70.36 152.479 70.084 152.714C69.8132 152.948 69.5137 153.136 69.1855 153.276C68.8574 153.417 68.498 153.487 68.1074 153.487ZM68.7793 151.995C69.1439 151.995 69.4928 151.86 69.8262 151.589C70.1595 151.313 70.4538 150.948 70.709 150.495C70.9694 150.042 71.1621 149.545 71.2871 149.003C71.3496 148.743 71.3913 148.495 71.4121 148.261C71.4382 148.026 71.4512 147.792 71.4512 147.558C71.4512 147.104 71.3314 146.735 71.0918 146.448C70.8522 146.162 70.5241 146.019 70.1074 146.019C69.821 146.019 69.5475 146.099 69.2871 146.261C69.0319 146.422 68.8001 146.646 68.5918 146.933C68.3835 147.214 68.2012 147.539 68.0449 147.909C67.8939 148.279 67.7767 148.677 67.6934 149.104C67.6152 149.526 67.5762 149.956 67.5762 150.394C67.5762 150.92 67.6803 151.318 67.8887 151.589C68.1022 151.86 68.3991 151.995 68.7793 151.995ZM77.3965 153.487C76.9486 153.487 76.5423 153.381 76.1777 153.167C75.8184 152.953 75.5319 152.623 75.3184 152.175C75.1048 151.722 74.998 151.141 74.998 150.433C74.998 149.839 75.0579 149.258 75.1777 148.69C75.3027 148.118 75.4824 147.581 75.7168 147.081C75.9512 146.576 76.2376 146.133 76.5762 145.753C76.9147 145.368 77.2975 145.068 77.7246 144.854C78.1569 144.636 78.6257 144.526 79.1309 144.526C79.5059 144.526 79.8262 144.591 80.0918 144.722C80.3574 144.852 80.5814 145.024 80.7637 145.237C80.946 145.451 81.0996 145.683 81.2246 145.933H81.2949C81.3105 145.797 81.3288 145.625 81.3496 145.417C81.3757 145.203 81.4069 144.974 81.4434 144.729C81.4798 144.479 81.5241 144.237 81.5762 144.003L82.1777 141.175H83.998L81.4199 153.331H79.9902L80.1621 151.933H80.1074C79.8783 152.224 79.6283 152.487 79.3574 152.722C79.0918 152.956 78.7975 153.144 78.4746 153.284C78.1517 153.42 77.7923 153.487 77.3965 153.487ZM78.1074 151.995C78.3522 151.995 78.5866 151.933 78.8105 151.808C79.0397 151.683 79.2507 151.511 79.4434 151.292C79.6413 151.068 79.821 150.813 79.9824 150.526C80.1439 150.235 80.2819 149.925 80.3965 149.597C80.5111 149.269 80.5996 148.935 80.6621 148.597C80.7246 148.258 80.7559 147.93 80.7559 147.612C80.7559 147.128 80.6387 146.743 80.4043 146.456C80.1751 146.164 79.8314 146.019 79.373 146.019C79.0762 146.019 78.8001 146.102 78.5449 146.269C78.2897 146.435 78.0579 146.662 77.8496 146.948C77.6413 147.235 77.4616 147.565 77.3105 147.94C77.1647 148.31 77.0527 148.706 76.9746 149.128C76.8965 149.55 76.8574 149.972 76.8574 150.394C76.8574 150.92 76.9616 151.318 77.1699 151.589C77.3835 151.86 77.696 151.995 78.1074 151.995ZM86.7637 153.487C86.321 153.487 85.9173 153.381 85.5527 153.167C85.1934 152.948 84.9069 152.615 84.6934 152.167C84.4798 151.714 84.373 151.138 84.373 150.44C84.373 149.836 84.4355 149.248 84.5605 148.675C84.6908 148.102 84.873 147.565 85.1074 147.065C85.347 146.565 85.6361 146.125 85.9746 145.745C86.3132 145.36 86.696 145.06 87.123 144.847C87.5501 144.628 88.0111 144.519 88.5059 144.519C88.8809 144.519 89.209 144.584 89.4902 144.714C89.7715 144.839 90.0085 145.008 90.2012 145.222C90.3939 145.435 90.5501 145.672 90.6699 145.933H90.7402L91.209 144.683H92.6152L90.7793 153.331H89.3809L89.5527 151.933H89.4902C89.2663 152.219 89.0163 152.479 88.7402 152.714C88.4694 152.948 88.1699 153.136 87.8418 153.276C87.5137 153.417 87.1543 153.487 86.7637 153.487ZM87.4355 151.995C87.8001 151.995 88.1491 151.86 88.4824 151.589C88.8158 151.313 89.11 150.948 89.3652 150.495C89.6257 150.042 89.8184 149.545 89.9434 149.003C90.0059 148.743 90.0475 148.495 90.0684 148.261C90.0944 148.026 90.1074 147.792 90.1074 147.558C90.1074 147.104 89.9876 146.735 89.748 146.448C89.5085 146.162 89.1803 146.019 88.7637 146.019C88.4772 146.019 88.2038 146.099 87.9434 146.261C87.6882 146.422 87.4564 146.646 87.248 146.933C87.0397 147.214 86.8574 147.539 86.7012 147.909C86.5501 148.279 86.4329 148.677 86.3496 149.104C86.2715 149.526 86.2324 149.956 86.2324 150.394C86.2324 150.92 86.3366 151.318 86.5449 151.589C86.7585 151.86 87.0553 151.995 87.4355 151.995ZM95.5605 153.487C95.0189 153.487 94.5449 153.44 94.1387 153.347C93.7376 153.258 93.3757 153.128 93.0527 152.956V151.386C93.3861 151.584 93.7611 151.75 94.1777 151.886C94.5996 152.016 95.0319 152.081 95.4746 152.081C95.8184 152.081 96.1178 152.034 96.373 151.94C96.6283 151.847 96.8262 151.714 96.9668 151.542C97.1126 151.365 97.1855 151.151 97.1855 150.901C97.1855 150.719 97.1439 150.558 97.0605 150.417C96.9772 150.276 96.834 150.133 96.6309 149.987C96.4277 149.841 96.1465 149.667 95.7871 149.464C95.4069 149.25 95.084 149.034 94.8184 148.815C94.5579 148.591 94.3574 148.344 94.2168 148.073C94.0814 147.802 94.0137 147.485 94.0137 147.12C94.0137 146.573 94.1387 146.107 94.3887 145.722C94.6439 145.331 95.0033 145.034 95.4668 144.831C95.9355 144.623 96.4876 144.519 97.123 144.519C97.6335 144.519 98.1152 144.578 98.5684 144.698C99.0215 144.813 99.4408 144.974 99.8262 145.183L99.2246 146.542C98.9382 146.381 98.6204 146.243 98.2715 146.128C97.9225 146.008 97.5475 145.948 97.1465 145.948C96.7767 145.948 96.4668 146.034 96.2168 146.206C95.972 146.378 95.8496 146.623 95.8496 146.94C95.8496 147.107 95.8887 147.258 95.9668 147.394C96.0501 147.524 96.1882 147.657 96.3809 147.792C96.5736 147.927 96.8366 148.084 97.1699 148.261C97.5293 148.459 97.8496 148.667 98.1309 148.886C98.4121 149.104 98.6335 149.357 98.7949 149.644C98.9564 149.925 99.0371 150.266 99.0371 150.667C99.0371 151.276 98.8939 151.792 98.6074 152.214C98.3262 152.631 97.9251 152.948 97.4043 153.167C96.8835 153.381 96.2689 153.487 95.5605 153.487ZM108.303 153.472C107.646 153.472 107.074 153.336 106.584 153.065C106.094 152.795 105.714 152.412 105.443 151.917C105.178 151.417 105.045 150.826 105.045 150.144C105.045 149.565 105.105 149.003 105.225 148.456C105.35 147.909 105.532 147.399 105.771 146.925C106.011 146.451 106.311 146.037 106.67 145.683C107.029 145.323 107.446 145.045 107.92 144.847C108.394 144.644 108.925 144.542 109.514 144.542C110.186 144.542 110.764 144.677 111.248 144.948C111.732 145.219 112.105 145.607 112.365 146.112C112.626 146.618 112.756 147.222 112.756 147.925C112.756 148.487 112.696 149.037 112.576 149.573C112.462 150.11 112.287 150.615 112.053 151.089C111.818 151.558 111.521 151.972 111.162 152.331C110.808 152.685 110.391 152.964 109.912 153.167C109.438 153.37 108.902 153.472 108.303 153.472ZM108.436 151.972C108.727 151.972 108.998 151.907 109.248 151.776C109.503 151.641 109.732 151.451 109.936 151.206C110.139 150.956 110.311 150.662 110.451 150.323C110.597 149.979 110.709 149.599 110.787 149.183C110.865 148.766 110.904 148.321 110.904 147.847C110.904 147.529 110.857 147.235 110.764 146.964C110.67 146.688 110.514 146.466 110.295 146.3C110.081 146.128 109.795 146.042 109.436 146.042C109.113 146.042 108.816 146.12 108.545 146.276C108.279 146.427 108.042 146.638 107.834 146.909C107.631 147.18 107.459 147.493 107.318 147.847C107.178 148.196 107.071 148.571 106.998 148.972C106.925 149.368 106.889 149.769 106.889 150.175C106.889 150.753 107.019 151.198 107.279 151.511C107.545 151.818 107.93 151.972 108.436 151.972ZM0.974609 175.331L2.81055 166.683H4.24023L4.05273 168.315H4.13867C4.36263 167.982 4.60482 167.68 4.86523 167.409C5.13086 167.138 5.42513 166.922 5.74805 166.761C6.07096 166.599 6.43034 166.519 6.82617 166.519C6.9668 166.519 7.11263 166.529 7.26367 166.55C7.41992 166.565 7.55534 166.589 7.66992 166.62L7.27148 168.339C7.1569 168.308 7.0319 168.282 6.89648 168.261C6.76107 168.24 6.61784 168.229 6.4668 168.229C6.12305 168.229 5.80013 168.31 5.49805 168.472C5.19596 168.633 4.92253 168.857 4.67773 169.144C4.43294 169.43 4.22201 169.766 4.04492 170.151C3.86784 170.532 3.72982 170.946 3.63086 171.394L2.80273 175.331H0.974609ZM11.1543 175.487C10.4928 175.487 9.91471 175.362 9.41992 175.112C8.93034 174.857 8.55013 174.485 8.2793 173.995C8.01367 173.5 7.88086 172.896 7.88086 172.183C7.88086 171.474 7.98242 170.784 8.18555 170.112C8.38867 169.435 8.68815 168.826 9.08398 168.284C9.47982 167.743 9.96159 167.313 10.5293 166.995C11.097 166.677 11.7428 166.519 12.4668 166.519C13.3522 166.519 14.0163 166.719 14.459 167.12C14.9069 167.516 15.1309 168.042 15.1309 168.698C15.1309 169.146 15.0293 169.555 14.8262 169.925C14.623 170.295 14.3132 170.615 13.8965 170.886C13.485 171.151 12.9616 171.357 12.3262 171.503C11.696 171.649 10.9538 171.722 10.0996 171.722H9.74805C9.74284 171.8 9.73763 171.881 9.73242 171.964C9.72721 172.042 9.72461 172.12 9.72461 172.198C9.72461 172.776 9.87565 173.232 10.1777 173.565C10.4798 173.894 10.9199 174.058 11.498 174.058C11.9355 174.058 12.3392 174.003 12.709 173.894C13.0788 173.784 13.4928 173.62 13.9512 173.401V174.847C13.5293 175.05 13.1022 175.209 12.6699 175.323C12.2376 175.433 11.7324 175.487 11.1543 175.487ZM9.97461 170.394H10.2402C10.8757 170.394 11.4277 170.334 11.8965 170.214C12.3652 170.089 12.7272 169.907 12.9824 169.667C13.2376 169.422 13.3652 169.125 13.3652 168.776C13.3652 168.506 13.2793 168.295 13.1074 168.144C12.9408 167.987 12.6908 167.909 12.3574 167.909C12.0293 167.909 11.7064 168.011 11.3887 168.214C11.071 168.412 10.7871 168.698 10.5371 169.073C10.2871 169.443 10.0996 169.883 9.97461 170.394ZM19.5371 175.487C18.9173 175.487 18.3652 175.373 17.8809 175.144C17.3965 174.914 17.0163 174.563 16.7402 174.089C16.4642 173.615 16.3262 173.011 16.3262 172.276C16.3262 171.657 16.3913 171.063 16.5215 170.495C16.6569 169.922 16.8522 169.396 17.1074 168.917C17.3626 168.433 17.6751 168.013 18.0449 167.659C18.4147 167.3 18.8366 167.021 19.3105 166.823C19.7845 166.62 20.3079 166.519 20.8809 166.519C21.3288 166.519 21.748 166.563 22.1387 166.651C22.5293 166.735 22.8887 166.852 23.2168 167.003L22.6699 168.448C22.4199 168.334 22.1517 168.235 21.8652 168.151C21.584 168.063 21.2741 168.019 20.9355 168.019C20.5137 168.019 20.1335 168.133 19.7949 168.362C19.4564 168.586 19.1673 168.896 18.9277 169.292C18.6882 169.683 18.5033 170.125 18.373 170.62C18.248 171.115 18.1855 171.633 18.1855 172.175C18.1855 172.56 18.2507 172.888 18.3809 173.159C18.5111 173.43 18.6986 173.638 18.9434 173.784C19.1934 173.925 19.4928 173.995 19.8418 173.995C20.2272 173.995 20.5892 173.94 20.9277 173.831C21.2663 173.716 21.6048 173.576 21.9434 173.409V174.925C21.6204 175.097 21.2611 175.232 20.8652 175.331C20.4694 175.435 20.0267 175.487 19.5371 175.487ZM23.459 175.331L25.2949 166.683H27.123L25.2871 175.331H23.459ZM26.6152 165.386C26.3444 165.386 26.1178 165.321 25.9355 165.19C25.7533 165.055 25.6621 164.844 25.6621 164.558C25.6621 164.318 25.7064 164.11 25.7949 163.933C25.8887 163.756 26.0215 163.62 26.1934 163.526C26.3704 163.427 26.5814 163.378 26.8262 163.378C27.097 163.378 27.3184 163.443 27.4902 163.573C27.6621 163.698 27.748 163.901 27.748 164.183C27.748 164.547 27.6465 164.839 27.4434 165.058C27.2402 165.276 26.9642 165.386 26.6152 165.386ZM31.5137 175.487C30.8522 175.487 30.2741 175.362 29.7793 175.112C29.2897 174.857 28.9095 174.485 28.6387 173.995C28.373 173.5 28.2402 172.896 28.2402 172.183C28.2402 171.474 28.3418 170.784 28.5449 170.112C28.748 169.435 29.0475 168.826 29.4434 168.284C29.8392 167.743 30.321 167.313 30.8887 166.995C31.4564 166.677 32.1022 166.519 32.8262 166.519C33.7116 166.519 34.3757 166.719 34.8184 167.12C35.2663 167.516 35.4902 168.042 35.4902 168.698C35.4902 169.146 35.3887 169.555 35.1855 169.925C34.9824 170.295 34.6725 170.615 34.2559 170.886C33.8444 171.151 33.321 171.357 32.6855 171.503C32.0553 171.649 31.3132 171.722 30.459 171.722H30.1074C30.1022 171.8 30.097 171.881 30.0918 171.964C30.0866 172.042 30.084 172.12 30.084 172.198C30.084 172.776 30.235 173.232 30.5371 173.565C30.8392 173.894 31.2793 174.058 31.8574 174.058C32.2949 174.058 32.6986 174.003 33.0684 173.894C33.4382 173.784 33.8522 173.62 34.3105 173.401V174.847C33.8887 175.05 33.4616 175.209 33.0293 175.323C32.597 175.433 32.0918 175.487 31.5137 175.487ZM30.334 170.394H30.5996C31.235 170.394 31.7871 170.334 32.2559 170.214C32.7246 170.089 33.0866 169.907 33.3418 169.667C33.597 169.422 33.7246 169.125 33.7246 168.776C33.7246 168.506 33.6387 168.295 33.4668 168.144C33.3001 167.987 33.0501 167.909 32.7168 167.909C32.3887 167.909 32.0658 168.011 31.748 168.214C31.4303 168.412 31.1465 168.698 30.8965 169.073C30.6465 169.443 30.459 169.883 30.334 170.394ZM31.9199 165.636V165.44C32.1022 165.237 32.3001 164.998 32.5137 164.722C32.7324 164.446 32.946 164.164 33.1543 163.878C33.3626 163.586 33.5449 163.318 33.7012 163.073H35.748V163.214C35.6335 163.36 35.472 163.539 35.2637 163.753C35.0605 163.966 34.8314 164.19 34.5762 164.425C34.3262 164.659 34.0762 164.883 33.8262 165.097C33.5762 165.305 33.347 165.485 33.1387 165.636H31.9199ZM36.2871 175.331L38.1309 166.659H39.6074L39.4199 168.292H39.4668C39.6751 167.985 39.9173 167.696 40.1934 167.425C40.4694 167.149 40.7819 166.925 41.1309 166.753C41.485 166.581 41.8809 166.495 42.3184 166.495C42.7975 166.495 43.2038 166.589 43.5371 166.776C43.8704 166.964 44.123 167.232 44.2949 167.581C44.4668 167.93 44.5527 168.347 44.5527 168.831C44.5527 169.045 44.5345 169.274 44.498 169.519C44.4668 169.758 44.4251 169.993 44.373 170.222L43.2871 175.331H41.4199L42.5293 170.073C42.5762 169.87 42.61 169.688 42.6309 169.526C42.6569 169.365 42.6699 169.214 42.6699 169.073C42.6699 168.729 42.584 168.472 42.4121 168.3C42.2454 168.128 41.9954 168.042 41.6621 168.042C41.2975 168.042 40.9382 168.183 40.584 168.464C40.2298 168.745 39.9095 169.154 39.623 169.69C39.3366 170.227 39.11 170.875 38.9434 171.636L38.1621 175.331H36.2871ZM49.8965 175.331L51.7402 166.659H53.2168L53.0293 168.292H53.0762C53.2845 167.985 53.5267 167.696 53.8027 167.425C54.0788 167.149 54.3913 166.925 54.7402 166.753C55.0944 166.581 55.4902 166.495 55.9277 166.495C56.4069 166.495 56.8132 166.589 57.1465 166.776C57.4798 166.964 57.7324 167.232 57.9043 167.581C58.0762 167.93 58.1621 168.347 58.1621 168.831C58.1621 169.045 58.1439 169.274 58.1074 169.519C58.0762 169.758 58.0345 169.993 57.9824 170.222L56.8965 175.331H55.0293L56.1387 170.073C56.1855 169.87 56.2194 169.688 56.2402 169.526C56.2663 169.365 56.2793 169.214 56.2793 169.073C56.2793 168.729 56.1934 168.472 56.0215 168.3C55.8548 168.128 55.6048 168.042 55.2715 168.042C54.9069 168.042 54.5475 168.183 54.1934 168.464C53.8392 168.745 53.5189 169.154 53.2324 169.69C52.946 170.227 52.7194 170.875 52.5527 171.636L51.7715 175.331H49.8965ZM62.1387 175.487C61.696 175.487 61.2923 175.381 60.9277 175.167C60.5684 174.948 60.2819 174.615 60.0684 174.167C59.8548 173.714 59.748 173.138 59.748 172.44C59.748 171.836 59.8105 171.248 59.9355 170.675C60.0658 170.102 60.248 169.565 60.4824 169.065C60.722 168.565 61.0111 168.125 61.3496 167.745C61.6882 167.36 62.071 167.06 62.498 166.847C62.9251 166.628 63.3861 166.519 63.8809 166.519C64.2559 166.519 64.584 166.584 64.8652 166.714C65.1465 166.839 65.3835 167.008 65.5762 167.222C65.7689 167.435 65.9251 167.672 66.0449 167.933H66.1152L66.584 166.683H67.9902L66.1543 175.331H64.7559L64.9277 173.933H64.8652C64.6413 174.219 64.3913 174.479 64.1152 174.714C63.8444 174.948 63.5449 175.136 63.2168 175.276C62.8887 175.417 62.5293 175.487 62.1387 175.487ZM62.8105 173.995C63.1751 173.995 63.5241 173.86 63.8574 173.589C64.1908 173.313 64.485 172.948 64.7402 172.495C65.0007 172.042 65.1934 171.545 65.3184 171.003C65.3809 170.743 65.4225 170.495 65.4434 170.261C65.4694 170.026 65.4824 169.792 65.4824 169.558C65.4824 169.104 65.3626 168.735 65.123 168.448C64.8835 168.162 64.5553 168.019 64.1387 168.019C63.8522 168.019 63.5788 168.099 63.3184 168.261C63.0632 168.422 62.8314 168.646 62.623 168.933C62.4147 169.214 62.2324 169.539 62.0762 169.909C61.9251 170.279 61.8079 170.677 61.7246 171.104C61.6465 171.526 61.6074 171.956 61.6074 172.394C61.6074 172.92 61.7116 173.318 61.9199 173.589C62.1335 173.86 62.4303 173.995 62.8105 173.995ZM72.2402 175.487C71.6204 175.487 71.0684 175.373 70.584 175.144C70.0996 174.914 69.7194 174.563 69.4434 174.089C69.1673 173.615 69.0293 173.011 69.0293 172.276C69.0293 171.657 69.0944 171.063 69.2246 170.495C69.36 169.922 69.5553 169.396 69.8105 168.917C70.0658 168.433 70.3783 168.013 70.748 167.659C71.1178 167.3 71.5397 167.021 72.0137 166.823C72.4876 166.62 73.0111 166.519 73.584 166.519C74.0319 166.519 74.4512 166.563 74.8418 166.651C75.2324 166.735 75.5918 166.852 75.9199 167.003L75.373 168.448C75.123 168.334 74.8548 168.235 74.5684 168.151C74.2871 168.063 73.9772 168.019 73.6387 168.019C73.2168 168.019 72.8366 168.133 72.498 168.362C72.1595 168.586 71.8704 168.896 71.6309 169.292C71.3913 169.683 71.2064 170.125 71.0762 170.62C70.9512 171.115 70.8887 171.633 70.8887 172.175C70.8887 172.56 70.9538 172.888 71.084 173.159C71.2142 173.43 71.4017 173.638 71.6465 173.784C71.8965 173.925 72.196 173.995 72.5449 173.995C72.9303 173.995 73.2923 173.94 73.6309 173.831C73.9694 173.716 74.3079 173.576 74.6465 173.409V174.925C74.3236 175.097 73.9642 175.232 73.5684 175.331C73.1725 175.435 72.7298 175.487 72.2402 175.487ZM76.1621 175.331L77.998 166.683H79.8262L77.9902 175.331H76.1621ZM79.3184 165.386C79.0475 165.386 78.821 165.321 78.6387 165.19C78.4564 165.055 78.3652 164.844 78.3652 164.558C78.3652 164.318 78.4095 164.11 78.498 163.933C78.5918 163.756 78.7246 163.62 78.8965 163.526C79.0736 163.427 79.2845 163.378 79.5293 163.378C79.8001 163.378 80.0215 163.443 80.1934 163.573C80.3652 163.698 80.4512 163.901 80.4512 164.183C80.4512 164.547 80.3496 164.839 80.1465 165.058C79.9434 165.276 79.6673 165.386 79.3184 165.386ZM83.334 175.487C82.8861 175.487 82.4798 175.381 82.1152 175.167C81.7559 174.953 81.4694 174.623 81.2559 174.175C81.0423 173.722 80.9355 173.141 80.9355 172.433C80.9355 171.839 80.9954 171.258 81.1152 170.69C81.2402 170.118 81.4199 169.581 81.6543 169.081C81.8887 168.576 82.1751 168.133 82.5137 167.753C82.8522 167.368 83.235 167.068 83.6621 166.854C84.0944 166.636 84.5632 166.526 85.0684 166.526C85.4434 166.526 85.7637 166.591 86.0293 166.722C86.2949 166.852 86.5189 167.024 86.7012 167.237C86.8835 167.451 87.0371 167.683 87.1621 167.933H87.2324C87.248 167.797 87.2663 167.625 87.2871 167.417C87.3132 167.203 87.3444 166.974 87.3809 166.729C87.4173 166.479 87.4616 166.237 87.5137 166.003L88.1152 163.175H89.9355L87.3574 175.331H85.9277L86.0996 173.933H86.0449C85.8158 174.224 85.5658 174.487 85.2949 174.722C85.0293 174.956 84.735 175.144 84.4121 175.284C84.0892 175.42 83.7298 175.487 83.334 175.487ZM84.0449 173.995C84.2897 173.995 84.5241 173.933 84.748 173.808C84.9772 173.683 85.1882 173.511 85.3809 173.292C85.5788 173.068 85.7585 172.813 85.9199 172.526C86.0814 172.235 86.2194 171.925 86.334 171.597C86.4486 171.269 86.5371 170.935 86.5996 170.597C86.6621 170.258 86.6934 169.93 86.6934 169.612C86.6934 169.128 86.5762 168.743 86.3418 168.456C86.1126 168.164 85.7689 168.019 85.3105 168.019C85.0137 168.019 84.7376 168.102 84.4824 168.269C84.2272 168.435 83.9954 168.662 83.7871 168.948C83.5788 169.235 83.3991 169.565 83.248 169.94C83.1022 170.31 82.9902 170.706 82.9121 171.128C82.834 171.55 82.7949 171.972 82.7949 172.394C82.7949 172.92 82.8991 173.318 83.1074 173.589C83.321 173.86 83.6335 173.995 84.0449 173.995ZM93.5684 175.472C92.9121 175.472 92.3392 175.336 91.8496 175.065C91.36 174.795 90.9798 174.412 90.709 173.917C90.4434 173.417 90.3105 172.826 90.3105 172.144C90.3105 171.565 90.3704 171.003 90.4902 170.456C90.6152 169.909 90.7975 169.399 91.0371 168.925C91.2767 168.451 91.5762 168.037 91.9355 167.683C92.2949 167.323 92.7116 167.045 93.1855 166.847C93.6595 166.644 94.1908 166.542 94.7793 166.542C95.4512 166.542 96.0293 166.677 96.5137 166.948C96.998 167.219 97.3704 167.607 97.6309 168.112C97.8913 168.618 98.0215 169.222 98.0215 169.925C98.0215 170.487 97.9616 171.037 97.8418 171.573C97.7272 172.11 97.5527 172.615 97.3184 173.089C97.084 173.558 96.7871 173.972 96.4277 174.331C96.0736 174.685 95.6569 174.964 95.1777 175.167C94.7038 175.37 94.1673 175.472 93.5684 175.472ZM93.7012 173.972C93.9928 173.972 94.2637 173.907 94.5137 173.776C94.7689 173.641 94.998 173.451 95.2012 173.206C95.4043 172.956 95.5762 172.662 95.7168 172.323C95.8626 171.979 95.9746 171.599 96.0527 171.183C96.1309 170.766 96.1699 170.321 96.1699 169.847C96.1699 169.529 96.123 169.235 96.0293 168.964C95.9355 168.688 95.7793 168.466 95.5605 168.3C95.347 168.128 95.0605 168.042 94.7012 168.042C94.3783 168.042 94.0814 168.12 93.8105 168.276C93.5449 168.427 93.3079 168.638 93.0996 168.909C92.8965 169.18 92.7246 169.493 92.584 169.847C92.4434 170.196 92.3366 170.571 92.2637 170.972C92.1908 171.368 92.1543 171.769 92.1543 172.175C92.1543 172.753 92.2845 173.198 92.5449 173.511C92.8105 173.818 93.196 173.972 93.7012 173.972ZM101.404 175.487C100.863 175.487 100.389 175.44 99.9824 175.347C99.5814 175.258 99.2194 175.128 98.8965 174.956V173.386C99.2298 173.584 99.6048 173.75 100.021 173.886C100.443 174.016 100.876 174.081 101.318 174.081C101.662 174.081 101.962 174.034 102.217 173.94C102.472 173.847 102.67 173.714 102.811 173.542C102.956 173.365 103.029 173.151 103.029 172.901C103.029 172.719 102.988 172.558 102.904 172.417C102.821 172.276 102.678 172.133 102.475 171.987C102.271 171.841 101.99 171.667 101.631 171.464C101.251 171.25 100.928 171.034 100.662 170.815C100.402 170.591 100.201 170.344 100.061 170.073C99.9251 169.802 99.8574 169.485 99.8574 169.12C99.8574 168.573 99.9824 168.107 100.232 167.722C100.488 167.331 100.847 167.034 101.311 166.831C101.779 166.623 102.331 166.519 102.967 166.519C103.477 166.519 103.959 166.578 104.412 166.698C104.865 166.813 105.285 166.974 105.67 167.183L105.068 168.542C104.782 168.381 104.464 168.243 104.115 168.128C103.766 168.008 103.391 167.948 102.99 167.948C102.62 167.948 102.311 168.034 102.061 168.206C101.816 168.378 101.693 168.623 101.693 168.94C101.693 169.107 101.732 169.258 101.811 169.394C101.894 169.524 102.032 169.657 102.225 169.792C102.417 169.927 102.68 170.084 103.014 170.261C103.373 170.459 103.693 170.667 103.975 170.886C104.256 171.104 104.477 171.357 104.639 171.644C104.8 171.925 104.881 172.266 104.881 172.667C104.881 173.276 104.738 173.792 104.451 174.214C104.17 174.631 103.769 174.948 103.248 175.167C102.727 175.381 102.113 175.487 101.404 175.487Z" fill="black"/>
</svg>
