<svg width="125" height="181" viewBox="0 0 125 181" fill="none" xmlns="http://www.w3.org/2000/svg">
<rect x="1.5" y="1.83105" width="121" height="121" rx="6.5" stroke="black" stroke-width="3"/>
<path d="M73.9 27.9437C74.4929 26.2406 74.7103 24.4294 74.5375 22.6344C74.3646 20.8394 73.8055 19.103 72.8986 17.5445C71.9917 15.9859 70.7583 14.642 69.2832 13.605C67.8081 12.568 66.1262 11.8624 64.3528 11.5367C62.5794 11.211 60.7566 11.2728 59.0093 11.718C57.2621 12.1631 55.6318 12.9811 54.2304 14.1157C52.8289 15.2503 51.6895 16.6747 50.8902 18.2911C50.091 19.9076 49.6508 21.6779 49.6 23.4805C49.601 24.9713 49.872 26.4495 50.4 27.8436C43.6252 30.1144 37.7285 34.4445 33.5333 40.2294C29.3382 46.0143 27.0541 52.965 27 60.1111C27.1798 64.2459 27.8043 68.3493 28.8625 72.3504C28.9943 72.6926 29.1956 73.0038 29.4538 73.2642C29.712 73.5246 30.0214 73.7285 30.3625 73.8632C32.3379 74.7046 34.4654 75.1302 36.6125 75.1133C36.9625 75.1133 37.3 75.1133 37.625 75.1133C39.4 84.3773 43.7875 94.8538 50.125 107.731L50.225 107.893L50.775 108.718C50.9015 108.904 51.0709 109.057 51.2689 109.164C51.4669 109.27 51.6876 109.328 51.9125 109.331H58.375C58.9593 109.328 59.5201 109.101 59.9413 108.696C60.3626 108.291 60.6118 107.74 60.6375 107.156L61.625 83.4021L62.6125 107.156C62.6383 107.742 62.8893 108.295 63.3132 108.7C63.7371 109.106 64.3011 109.332 64.8875 109.331H72.7875C72.9802 109.331 73.1709 109.291 73.3474 109.214C73.5239 109.136 73.6823 109.023 73.8125 108.881L74.575 108.043C74.6641 107.941 74.7397 107.827 74.8 107.706C80.125 96.6916 84.8 85.5524 86.7625 75.2009H87.3C88.4886 75.1926 89.6735 75.0669 90.8375 74.8258C94.5875 74.0632 94.975 72.813 95.1 72.4004C96.1745 68.3845 96.8115 64.264 97 60.1111C96.9449 53.0192 94.6943 46.1186 90.5577 40.3583C86.4211 34.598 80.6018 30.261 73.9 27.9437ZM62.1625 13.6665C63.4527 13.6648 64.7307 13.9174 65.9233 14.4097C67.116 14.902 68.2 15.6244 69.1135 16.5358C70.027 17.4471 70.7521 18.5294 71.2473 19.721C71.7426 20.9126 71.9984 22.19 72 23.4805C72.0001 24.9866 71.6491 26.4719 70.975 27.8186C70.8415 27.9723 70.7396 28.1507 70.675 28.3437C69.8127 29.835 68.5731 31.073 67.0808 31.9332C65.5885 32.7935 63.8961 33.2457 62.1736 33.2445C60.4512 33.2432 58.7594 32.7885 57.2684 31.9261C55.7773 31.0637 54.5395 29.8239 53.6794 28.3314C52.8192 26.8389 52.367 25.1462 52.3682 23.4235C52.3695 21.7008 52.824 20.0088 53.6863 18.5175C54.5486 17.0262 55.7881 15.7882 57.2804 14.9279C58.7727 14.0676 60.4651 13.6153 62.1875 13.6165L62.1625 13.6665ZM72.4125 106.368L72.1875 106.618H65.3375L64.275 80.7392H63.825C64.1897 80.7392 64.5394 80.5943 64.7973 80.3364C65.0551 80.0785 65.2 79.7287 65.2 79.364C65.2 78.9993 65.0551 78.6495 64.7973 78.3916C64.5394 78.1337 64.1897 77.9888 63.825 77.9888H60.4125C60.069 77.9847 59.7368 78.1117 59.4837 78.344C59.2305 78.5762 59.0754 78.8963 59.05 79.239L57.9125 106.556H52.7L52.6 106.368C44.625 90.1156 40.4125 78.6014 39.675 69.0749C45.2875 72.4379 53.9125 74.0757 62.5125 74.0757C70.9 74.0757 79.25 72.4504 84.7875 69.1874C83.8875 79.0014 79.7875 91.0158 72.4125 106.368ZM92.5125 71.3628C90.8331 72.0744 89.0237 72.4278 87.2 72.4004C88.675 61.8988 87.075 52.2349 80.15 44.3087C79.914 44.043 79.5844 43.879 79.2302 43.851C78.876 43.823 78.5247 43.9333 78.25 44.1586C77.9762 44.4015 77.8094 44.7428 77.786 45.108C77.7626 45.4733 77.8844 45.8331 78.125 46.1089C82.8916 51.5677 85.36 58.6603 85.0125 65.8994C85.0125 65.8994 84.9375 65.8994 84.9125 65.8994C74.3375 73.7631 48.4875 72.4004 39.6 65.6619C39.6875 58.3858 42 52.2474 46.425 45.9339C46.5395 45.7868 46.6229 45.6179 46.6701 45.4375C46.7173 45.2571 46.7273 45.069 46.6996 44.8846C46.6719 44.7002 46.6069 44.5234 46.5087 44.3649C46.4105 44.2064 46.2811 44.0696 46.1284 43.9626C45.9757 43.8557 45.8028 43.781 45.6203 43.7429C45.4378 43.7049 45.2495 43.7044 45.0668 43.7415C44.884 43.7785 44.7108 43.8523 44.5575 43.9584C44.4042 44.0645 44.274 44.2007 44.175 44.3587C37.7875 53.46 35.75 62.2364 37.2125 72.3879C35.252 72.4716 33.2972 72.1215 31.4875 71.3628C30.5328 67.6812 29.9631 63.9104 29.7875 60.1111C29.8387 53.479 31.9771 47.0316 35.8993 41.6839C39.8214 36.3361 45.328 32.3597 51.6375 30.319C52.7634 32.0784 54.3121 33.5275 56.1421 34.5342C57.9721 35.5408 60.0252 36.0727 62.1137 36.0814C64.2022 36.0901 66.2596 35.5753 68.0979 34.584C69.9363 33.5927 71.497 32.1564 72.6375 30.4065C78.8806 32.4911 84.3163 36.4749 88.1846 41.8008C92.0529 47.1267 94.1604 53.5285 94.2125 60.1111C94.0369 63.9104 93.4672 67.6812 92.5125 71.3628Z" fill="black"/>
<path d="M0.546875 153.331L2.96094 141.909H5.83594C6.70573 141.909 7.40365 142.039 7.92969 142.3C8.46094 142.56 8.84635 142.927 9.08594 143.401C9.33073 143.87 9.45312 144.42 9.45312 145.05C9.45312 145.706 9.33594 146.284 9.10156 146.784C8.8724 147.279 8.54167 147.696 8.10938 148.034C7.67708 148.368 7.15365 148.62 6.53906 148.792C5.92969 148.959 5.24479 149.042 4.48438 149.042H3.29688L2.39062 153.331H0.546875ZM3.63281 147.495H4.67969C5.27344 147.495 5.78646 147.407 6.21875 147.229C6.65104 147.047 6.98438 146.779 7.21875 146.425C7.45833 146.065 7.57812 145.625 7.57812 145.104C7.57812 144.537 7.42188 144.123 7.10938 143.862C6.79688 143.597 6.32552 143.464 5.69531 143.464H4.48438L3.63281 147.495ZM13.4297 153.487C12.7682 153.487 12.1901 153.362 11.6953 153.112C11.2057 152.857 10.8255 152.485 10.5547 151.995C10.2891 151.5 10.1562 150.896 10.1562 150.183C10.1562 149.474 10.2578 148.784 10.4609 148.112C10.6641 147.435 10.9635 146.826 11.3594 146.284C11.7552 145.743 12.237 145.313 12.8047 144.995C13.3724 144.677 14.0182 144.519 14.7422 144.519C15.6276 144.519 16.2917 144.719 16.7344 145.12C17.1823 145.516 17.4062 146.042 17.4062 146.698C17.4062 147.146 17.3047 147.555 17.1016 147.925C16.8984 148.295 16.5885 148.615 16.1719 148.886C15.7604 149.151 15.237 149.357 14.6016 149.503C13.9714 149.649 13.2292 149.722 12.375 149.722H12.0234C12.0182 149.8 12.013 149.881 12.0078 149.964C12.0026 150.042 12 150.12 12 150.198C12 150.776 12.151 151.232 12.4531 151.565C12.7552 151.894 13.1953 152.058 13.7734 152.058C14.2109 152.058 14.6146 152.003 14.9844 151.894C15.3542 151.784 15.7682 151.62 16.2266 151.401V152.847C15.8047 153.05 15.3776 153.209 14.9453 153.323C14.513 153.433 14.0078 153.487 13.4297 153.487ZM12.25 148.394H12.5156C13.151 148.394 13.7031 148.334 14.1719 148.214C14.6406 148.089 15.0026 147.907 15.2578 147.667C15.513 147.422 15.6406 147.125 15.6406 146.776C15.6406 146.506 15.5547 146.295 15.3828 146.144C15.2161 145.987 14.9661 145.909 14.6328 145.909C14.3047 145.909 13.9818 146.011 13.6641 146.214C13.3464 146.412 13.0625 146.698 12.8125 147.073C12.5625 147.443 12.375 147.883 12.25 148.394ZM18.2344 153.331L20.0703 144.683H21.5L21.3125 146.315H21.3984C21.6224 145.982 21.8646 145.68 22.125 145.409C22.3906 145.138 22.6849 144.922 23.0078 144.761C23.3307 144.599 23.6901 144.519 24.0859 144.519C24.2266 144.519 24.3724 144.529 24.5234 144.55C24.6797 144.565 24.8151 144.589 24.9297 144.62L24.5312 146.339C24.4167 146.308 24.2917 146.282 24.1562 146.261C24.0208 146.24 23.8776 146.229 23.7266 146.229C23.3828 146.229 23.0599 146.31 22.7578 146.472C22.4557 146.633 22.1823 146.857 21.9375 147.144C21.6927 147.43 21.4818 147.766 21.3047 148.151C21.1276 148.532 20.9896 148.946 20.8906 149.394L20.0625 153.331H18.2344ZM27.0391 153.487C26.4974 153.487 26.0234 153.44 25.6172 153.347C25.2161 153.258 24.8542 153.128 24.5312 152.956V151.386C24.8646 151.584 25.2396 151.75 25.6562 151.886C26.0781 152.016 26.5104 152.081 26.9531 152.081C27.2969 152.081 27.5964 152.034 27.8516 151.94C28.1068 151.847 28.3047 151.714 28.4453 151.542C28.5911 151.365 28.6641 151.151 28.6641 150.901C28.6641 150.719 28.6224 150.558 28.5391 150.417C28.4557 150.276 28.3125 150.133 28.1094 149.987C27.9062 149.841 27.625 149.667 27.2656 149.464C26.8854 149.25 26.5625 149.034 26.2969 148.815C26.0365 148.591 25.8359 148.344 25.6953 148.073C25.5599 147.802 25.4922 147.485 25.4922 147.12C25.4922 146.573 25.6172 146.107 25.8672 145.722C26.1224 145.331 26.4818 145.034 26.9453 144.831C27.4141 144.623 27.9661 144.519 28.6016 144.519C29.112 144.519 29.5938 144.578 30.0469 144.698C30.5 144.813 30.9193 144.974 31.3047 145.183L30.7031 146.542C30.4167 146.381 30.099 146.243 29.75 146.128C29.401 146.008 29.026 145.948 28.625 145.948C28.2552 145.948 27.9453 146.034 27.6953 146.206C27.4505 146.378 27.3281 146.623 27.3281 146.94C27.3281 147.107 27.3672 147.258 27.4453 147.394C27.5286 147.524 27.6667 147.657 27.8594 147.792C28.0521 147.927 28.3151 148.084 28.6484 148.261C29.0078 148.459 29.3281 148.667 29.6094 148.886C29.8906 149.104 30.112 149.357 30.2734 149.644C30.4349 149.925 30.5156 150.266 30.5156 150.667C30.5156 151.276 30.3724 151.792 30.0859 152.214C29.8047 152.631 29.4036 152.948 28.8828 153.167C28.362 153.381 27.7474 153.487 27.0391 153.487ZM35.625 153.472C34.9688 153.472 34.3958 153.336 33.9062 153.065C33.4167 152.795 33.0365 152.412 32.7656 151.917C32.5 151.417 32.3672 150.826 32.3672 150.144C32.3672 149.565 32.4271 149.003 32.5469 148.456C32.6719 147.909 32.8542 147.399 33.0938 146.925C33.3333 146.451 33.6328 146.037 33.9922 145.683C34.3516 145.323 34.7682 145.045 35.2422 144.847C35.7161 144.644 36.2474 144.542 36.8359 144.542C37.5078 144.542 38.0859 144.677 38.5703 144.948C39.0547 145.219 39.4271 145.607 39.6875 146.112C39.9479 146.618 40.0781 147.222 40.0781 147.925C40.0781 148.487 40.0182 149.037 39.8984 149.573C39.7839 150.11 39.6094 150.615 39.375 151.089C39.1406 151.558 38.8438 151.972 38.4844 152.331C38.1302 152.685 37.7135 152.964 37.2344 153.167C36.7604 153.37 36.224 153.472 35.625 153.472ZM35.7578 151.972C36.0495 151.972 36.3203 151.907 36.5703 151.776C36.8255 151.641 37.0547 151.451 37.2578 151.206C37.4609 150.956 37.6328 150.662 37.7734 150.323C37.9193 149.979 38.0312 149.599 38.1094 149.183C38.1875 148.766 38.2266 148.321 38.2266 147.847C38.2266 147.529 38.1797 147.235 38.0859 146.964C37.9922 146.688 37.8359 146.466 37.6172 146.3C37.4036 146.128 37.1172 146.042 36.7578 146.042C36.4349 146.042 36.138 146.12 35.8672 146.276C35.6016 146.427 35.3646 146.638 35.1562 146.909C34.9531 147.18 34.7812 147.493 34.6406 147.847C34.5 148.196 34.3932 148.571 34.3203 148.972C34.2474 149.368 34.2109 149.769 34.2109 150.175C34.2109 150.753 34.3411 151.198 34.6016 151.511C34.8672 151.818 35.2526 151.972 35.7578 151.972ZM41.1562 153.331L43 144.659H44.4766L44.2891 146.292H44.3359C44.5443 145.985 44.7865 145.696 45.0625 145.425C45.3385 145.149 45.651 144.925 46 144.753C46.3542 144.581 46.75 144.495 47.1875 144.495C47.6667 144.495 48.0729 144.589 48.4062 144.776C48.7396 144.964 48.9922 145.232 49.1641 145.581C49.3359 145.93 49.4219 146.347 49.4219 146.831C49.4219 147.045 49.4036 147.274 49.3672 147.519C49.3359 147.758 49.2943 147.993 49.2422 148.222L48.1562 153.331H46.2891L47.3984 148.073C47.4453 147.87 47.4792 147.688 47.5 147.526C47.526 147.365 47.5391 147.214 47.5391 147.073C47.5391 146.729 47.4531 146.472 47.2812 146.3C47.1146 146.128 46.8646 146.042 46.5312 146.042C46.1667 146.042 45.8073 146.183 45.4531 146.464C45.099 146.745 44.7786 147.154 44.4922 147.69C44.2057 148.227 43.9792 148.875 43.8125 149.636L43.0312 153.331H41.1562ZM53.3984 153.487C52.9557 153.487 52.5521 153.381 52.1875 153.167C51.8281 152.948 51.5417 152.615 51.3281 152.167C51.1146 151.714 51.0078 151.138 51.0078 150.44C51.0078 149.836 51.0703 149.248 51.1953 148.675C51.3255 148.102 51.5078 147.565 51.7422 147.065C51.9818 146.565 52.2708 146.125 52.6094 145.745C52.9479 145.36 53.3307 145.06 53.7578 144.847C54.1849 144.628 54.6458 144.519 55.1406 144.519C55.5156 144.519 55.8438 144.584 56.125 144.714C56.4062 144.839 56.6432 145.008 56.8359 145.222C57.0286 145.435 57.1849 145.672 57.3047 145.933H57.375L57.8438 144.683H59.25L57.4141 153.331H56.0156L56.1875 151.933H56.125C55.901 152.219 55.651 152.479 55.375 152.714C55.1042 152.948 54.8047 153.136 54.4766 153.276C54.1484 153.417 53.7891 153.487 53.3984 153.487ZM54.0703 151.995C54.4349 151.995 54.7839 151.86 55.1172 151.589C55.4505 151.313 55.7448 150.948 56 150.495C56.2604 150.042 56.4531 149.545 56.5781 149.003C56.6406 148.743 56.6823 148.495 56.7031 148.261C56.7292 148.026 56.7422 147.792 56.7422 147.558C56.7422 147.104 56.6224 146.735 56.3828 146.448C56.1432 146.162 55.8151 146.019 55.3984 146.019C55.112 146.019 54.8385 146.099 54.5781 146.261C54.3229 146.422 54.0911 146.646 53.8828 146.933C53.6745 147.214 53.4922 147.539 53.3359 147.909C53.1849 148.279 53.0677 148.677 52.9844 149.104C52.9062 149.526 52.8672 149.956 52.8672 150.394C52.8672 150.92 52.9714 151.318 53.1797 151.589C53.3932 151.86 53.6901 151.995 54.0703 151.995ZM62.1953 153.487C61.6536 153.487 61.1797 153.44 60.7734 153.347C60.3724 153.258 60.0104 153.128 59.6875 152.956V151.386C60.0208 151.584 60.3958 151.75 60.8125 151.886C61.2344 152.016 61.6667 152.081 62.1094 152.081C62.4531 152.081 62.7526 152.034 63.0078 151.94C63.263 151.847 63.4609 151.714 63.6016 151.542C63.7474 151.365 63.8203 151.151 63.8203 150.901C63.8203 150.719 63.7786 150.558 63.6953 150.417C63.612 150.276 63.4688 150.133 63.2656 149.987C63.0625 149.841 62.7812 149.667 62.4219 149.464C62.0417 149.25 61.7188 149.034 61.4531 148.815C61.1927 148.591 60.9922 148.344 60.8516 148.073C60.7161 147.802 60.6484 147.485 60.6484 147.12C60.6484 146.573 60.7734 146.107 61.0234 145.722C61.2786 145.331 61.638 145.034 62.1016 144.831C62.5703 144.623 63.1224 144.519 63.7578 144.519C64.2682 144.519 64.75 144.578 65.2031 144.698C65.6562 144.813 66.0755 144.974 66.4609 145.183L65.8594 146.542C65.5729 146.381 65.2552 146.243 64.9062 146.128C64.5573 146.008 64.1823 145.948 63.7812 145.948C63.4115 145.948 63.1016 146.034 62.8516 146.206C62.6068 146.378 62.4844 146.623 62.4844 146.94C62.4844 147.107 62.5234 147.258 62.6016 147.394C62.6849 147.524 62.8229 147.657 63.0156 147.792C63.2083 147.927 63.4714 148.084 63.8047 148.261C64.1641 148.459 64.4844 148.667 64.7656 148.886C65.0469 149.104 65.2682 149.357 65.4297 149.644C65.5911 149.925 65.6719 150.266 65.6719 150.667C65.6719 151.276 65.5286 151.792 65.2422 152.214C64.9609 152.631 64.5599 152.948 64.0391 153.167C63.5182 153.381 62.9036 153.487 62.1953 153.487ZM74.9375 153.472C74.2812 153.472 73.7083 153.336 73.2188 153.065C72.7292 152.795 72.349 152.412 72.0781 151.917C71.8125 151.417 71.6797 150.826 71.6797 150.144C71.6797 149.565 71.7396 149.003 71.8594 148.456C71.9844 147.909 72.1667 147.399 72.4062 146.925C72.6458 146.451 72.9453 146.037 73.3047 145.683C73.6641 145.323 74.0807 145.045 74.5547 144.847C75.0286 144.644 75.5599 144.542 76.1484 144.542C76.8203 144.542 77.3984 144.677 77.8828 144.948C78.3672 145.219 78.7396 145.607 79 146.112C79.2604 146.618 79.3906 147.222 79.3906 147.925C79.3906 148.487 79.3307 149.037 79.2109 149.573C79.0964 150.11 78.9219 150.615 78.6875 151.089C78.4531 151.558 78.1562 151.972 77.7969 152.331C77.4427 152.685 77.026 152.964 76.5469 153.167C76.0729 153.37 75.5365 153.472 74.9375 153.472ZM75.0703 151.972C75.362 151.972 75.6328 151.907 75.8828 151.776C76.138 151.641 76.3672 151.451 76.5703 151.206C76.7734 150.956 76.9453 150.662 77.0859 150.323C77.2318 149.979 77.3438 149.599 77.4219 149.183C77.5 148.766 77.5391 148.321 77.5391 147.847C77.5391 147.529 77.4922 147.235 77.3984 146.964C77.3047 146.688 77.1484 146.466 76.9297 146.3C76.7161 146.128 76.4297 146.042 76.0703 146.042C75.7474 146.042 75.4505 146.12 75.1797 146.276C74.9141 146.427 74.6771 146.638 74.4688 146.909C74.2656 147.18 74.0938 147.493 73.9531 147.847C73.8125 148.196 73.7057 148.571 73.6328 148.972C73.5599 149.368 73.5234 149.769 73.5234 150.175C73.5234 150.753 73.6536 151.198 73.9141 151.511C74.1797 151.818 74.5651 151.972 75.0703 151.972ZM84.6328 153.487C84.2526 153.487 83.9193 153.425 83.6328 153.3C83.3464 153.175 83.1068 153.006 82.9141 152.792C82.7214 152.578 82.5651 152.341 82.4453 152.081H82.375L81.8906 153.331H80.5L83.0781 141.175H84.8984L84.3438 143.769C84.2865 144.05 84.2188 144.347 84.1406 144.659C84.0625 144.972 83.9844 145.258 83.9062 145.519C83.8333 145.779 83.7734 145.972 83.7266 146.097H83.7891C84.0078 145.821 84.2396 145.563 84.4844 145.323C84.7292 145.084 85.0026 144.891 85.3047 144.745C85.612 144.599 85.9583 144.526 86.3438 144.526C86.7917 144.526 87.1979 144.636 87.5625 144.854C87.9271 145.068 88.2161 145.399 88.4297 145.847C88.6484 146.295 88.7578 146.87 88.7578 147.573C88.7578 148.167 88.6953 148.75 88.5703 149.323C88.4505 149.896 88.2734 150.433 88.0391 150.933C87.8047 151.433 87.5208 151.875 87.1875 152.261C86.8542 152.641 86.4714 152.94 86.0391 153.159C85.612 153.378 85.1432 153.487 84.6328 153.487ZM84.3906 151.995C84.6875 151.995 84.9635 151.914 85.2188 151.753C85.474 151.586 85.7057 151.36 85.9141 151.073C86.1224 150.787 86.2995 150.456 86.4453 150.081C86.5911 149.706 86.7031 149.31 86.7812 148.894C86.8594 148.472 86.8984 148.047 86.8984 147.62C86.8984 147.089 86.7943 146.69 86.5859 146.425C86.3828 146.154 86.0755 146.019 85.6641 146.019C85.4141 146.019 85.1719 146.084 84.9375 146.214C84.7083 146.339 84.4948 146.513 84.2969 146.737C84.099 146.956 83.9193 147.211 83.7578 147.503C83.6016 147.789 83.4661 148.097 83.3516 148.425C83.237 148.753 83.1484 149.086 83.0859 149.425C83.0286 149.763 83 150.089 83 150.401C83 150.881 83.1172 151.266 83.3516 151.558C83.5911 151.849 83.9375 151.995 84.3906 151.995ZM93.5391 153.487C92.8776 153.487 92.2995 153.362 91.8047 153.112C91.3151 152.857 90.9349 152.485 90.6641 151.995C90.3984 151.5 90.2656 150.896 90.2656 150.183C90.2656 149.474 90.3672 148.784 90.5703 148.112C90.7734 147.435 91.0729 146.826 91.4688 146.284C91.8646 145.743 92.3464 145.313 92.9141 144.995C93.4818 144.677 94.1276 144.519 94.8516 144.519C95.737 144.519 96.401 144.719 96.8438 145.12C97.2917 145.516 97.5156 146.042 97.5156 146.698C97.5156 147.146 97.4141 147.555 97.2109 147.925C97.0078 148.295 96.6979 148.615 96.2812 148.886C95.8698 149.151 95.3464 149.357 94.7109 149.503C94.0807 149.649 93.3385 149.722 92.4844 149.722H92.1328C92.1276 149.8 92.1224 149.881 92.1172 149.964C92.112 150.042 92.1094 150.12 92.1094 150.198C92.1094 150.776 92.2604 151.232 92.5625 151.565C92.8646 151.894 93.3047 152.058 93.8828 152.058C94.3203 152.058 94.724 152.003 95.0938 151.894C95.4635 151.784 95.8776 151.62 96.3359 151.401V152.847C95.9141 153.05 95.487 153.209 95.0547 153.323C94.6224 153.433 94.1172 153.487 93.5391 153.487ZM92.3594 148.394H92.625C93.2604 148.394 93.8125 148.334 94.2812 148.214C94.75 148.089 95.112 147.907 95.3672 147.667C95.6224 147.422 95.75 147.125 95.75 146.776C95.75 146.506 95.6641 146.295 95.4922 146.144C95.3255 145.987 95.0755 145.909 94.7422 145.909C94.4141 145.909 94.0911 146.011 93.7734 146.214C93.4557 146.412 93.1719 146.698 92.9219 147.073C92.6719 147.443 92.4844 147.883 92.3594 148.394ZM100.617 153.487C100.076 153.487 99.6016 153.44 99.1953 153.347C98.7943 153.258 98.4323 153.128 98.1094 152.956V151.386C98.4427 151.584 98.8177 151.75 99.2344 151.886C99.6562 152.016 100.089 152.081 100.531 152.081C100.875 152.081 101.174 152.034 101.43 151.94C101.685 151.847 101.883 151.714 102.023 151.542C102.169 151.365 102.242 151.151 102.242 150.901C102.242 150.719 102.201 150.558 102.117 150.417C102.034 150.276 101.891 150.133 101.688 149.987C101.484 149.841 101.203 149.667 100.844 149.464C100.464 149.25 100.141 149.034 99.875 148.815C99.6146 148.591 99.4141 148.344 99.2734 148.073C99.138 147.802 99.0703 147.485 99.0703 147.12C99.0703 146.573 99.1953 146.107 99.4453 145.722C99.7005 145.331 100.06 145.034 100.523 144.831C100.992 144.623 101.544 144.519 102.18 144.519C102.69 144.519 103.172 144.578 103.625 144.698C104.078 144.813 104.497 144.974 104.883 145.183L104.281 146.542C103.995 146.381 103.677 146.243 103.328 146.128C102.979 146.008 102.604 145.948 102.203 145.948C101.833 145.948 101.523 146.034 101.273 146.206C101.029 146.378 100.906 146.623 100.906 146.94C100.906 147.107 100.945 147.258 101.023 147.394C101.107 147.524 101.245 147.657 101.438 147.792C101.63 147.927 101.893 148.084 102.227 148.261C102.586 148.459 102.906 148.667 103.188 148.886C103.469 149.104 103.69 149.357 103.852 149.644C104.013 149.925 104.094 150.266 104.094 150.667C104.094 151.276 103.951 151.792 103.664 152.214C103.383 152.631 102.982 152.948 102.461 153.167C101.94 153.381 101.326 153.487 100.617 153.487ZM108.336 153.487C107.893 153.487 107.49 153.381 107.125 153.167C106.766 152.948 106.479 152.615 106.266 152.167C106.052 151.714 105.945 151.138 105.945 150.44C105.945 149.836 106.008 149.248 106.133 148.675C106.263 148.102 106.445 147.565 106.68 147.065C106.919 146.565 107.208 146.125 107.547 145.745C107.885 145.36 108.268 145.06 108.695 144.847C109.122 144.628 109.583 144.519 110.078 144.519C110.453 144.519 110.781 144.584 111.062 144.714C111.344 144.839 111.581 145.008 111.773 145.222C111.966 145.435 112.122 145.672 112.242 145.933H112.312L112.781 144.683H114.188L112.352 153.331H110.953L111.125 151.933H111.062C110.839 152.219 110.589 152.479 110.312 152.714C110.042 152.948 109.742 153.136 109.414 153.276C109.086 153.417 108.727 153.487 108.336 153.487ZM109.008 151.995C109.372 151.995 109.721 151.86 110.055 151.589C110.388 151.313 110.682 150.948 110.938 150.495C111.198 150.042 111.391 149.545 111.516 149.003C111.578 148.743 111.62 148.495 111.641 148.261C111.667 148.026 111.68 147.792 111.68 147.558C111.68 147.104 111.56 146.735 111.32 146.448C111.081 146.162 110.753 146.019 110.336 146.019C110.049 146.019 109.776 146.099 109.516 146.261C109.26 146.422 109.029 146.646 108.82 146.933C108.612 147.214 108.43 147.539 108.273 147.909C108.122 148.279 108.005 148.677 107.922 149.104C107.844 149.526 107.805 149.956 107.805 150.394C107.805 150.92 107.909 151.318 108.117 151.589C108.331 151.86 108.628 151.995 109.008 151.995ZM117.133 153.487C116.591 153.487 116.117 153.44 115.711 153.347C115.31 153.258 114.948 153.128 114.625 152.956V151.386C114.958 151.584 115.333 151.75 115.75 151.886C116.172 152.016 116.604 152.081 117.047 152.081C117.391 152.081 117.69 152.034 117.945 151.94C118.201 151.847 118.398 151.714 118.539 151.542C118.685 151.365 118.758 151.151 118.758 150.901C118.758 150.719 118.716 150.558 118.633 150.417C118.549 150.276 118.406 150.133 118.203 149.987C118 149.841 117.719 149.667 117.359 149.464C116.979 149.25 116.656 149.034 116.391 148.815C116.13 148.591 115.93 148.344 115.789 148.073C115.654 147.802 115.586 147.485 115.586 147.12C115.586 146.573 115.711 146.107 115.961 145.722C116.216 145.331 116.576 145.034 117.039 144.831C117.508 144.623 118.06 144.519 118.695 144.519C119.206 144.519 119.688 144.578 120.141 144.698C120.594 144.813 121.013 144.974 121.398 145.183L120.797 146.542C120.51 146.381 120.193 146.243 119.844 146.128C119.495 146.008 119.12 145.948 118.719 145.948C118.349 145.948 118.039 146.034 117.789 146.206C117.544 146.378 117.422 146.623 117.422 146.94C117.422 147.107 117.461 147.258 117.539 147.394C117.622 147.524 117.76 147.657 117.953 147.792C118.146 147.927 118.409 148.084 118.742 148.261C119.102 148.459 119.422 148.667 119.703 148.886C119.984 149.104 120.206 149.357 120.367 149.644C120.529 149.925 120.609 150.266 120.609 150.667C120.609 151.276 120.466 151.792 120.18 152.214C119.898 152.631 119.497 152.948 118.977 153.167C118.456 153.381 117.841 153.487 117.133 153.487ZM4 175.472C3.34375 175.472 2.77083 175.336 2.28125 175.065C1.79167 174.795 1.41146 174.412 1.14062 173.917C0.875 173.417 0.742188 172.826 0.742188 172.144C0.742188 171.565 0.802083 171.003 0.921875 170.456C1.04688 169.909 1.22917 169.399 1.46875 168.925C1.70833 168.451 2.00781 168.037 2.36719 167.683C2.72656 167.323 3.14323 167.045 3.61719 166.847C4.09115 166.644 4.6224 166.542 5.21094 166.542C5.88281 166.542 6.46094 166.677 6.94531 166.948C7.42969 167.219 7.80208 167.607 8.0625 168.112C8.32292 168.618 8.45312 169.222 8.45312 169.925C8.45312 170.487 8.39323 171.037 8.27344 171.573C8.15885 172.11 7.98438 172.615 7.75 173.089C7.51562 173.558 7.21875 173.972 6.85938 174.331C6.50521 174.685 6.08854 174.964 5.60938 175.167C5.13542 175.37 4.59896 175.472 4 175.472ZM4.13281 173.972C4.42448 173.972 4.69531 173.907 4.94531 173.776C5.20052 173.641 5.42969 173.451 5.63281 173.206C5.83594 172.956 6.00781 172.662 6.14844 172.323C6.29427 171.979 6.40625 171.599 6.48438 171.183C6.5625 170.766 6.60156 170.321 6.60156 169.847C6.60156 169.529 6.55469 169.235 6.46094 168.964C6.36719 168.688 6.21094 168.466 5.99219 168.3C5.77865 168.128 5.49219 168.042 5.13281 168.042C4.8099 168.042 4.51302 168.12 4.24219 168.276C3.97656 168.427 3.73958 168.638 3.53125 168.909C3.32812 169.18 3.15625 169.493 3.01562 169.847C2.875 170.196 2.76823 170.571 2.69531 170.972C2.6224 171.368 2.58594 171.769 2.58594 172.175C2.58594 172.753 2.71615 173.198 2.97656 173.511C3.24219 173.818 3.6276 173.972 4.13281 173.972ZM17.2969 175.487C16.6771 175.487 16.125 175.373 15.6406 175.144C15.1562 174.914 14.776 174.563 14.5 174.089C14.224 173.615 14.0859 173.011 14.0859 172.276C14.0859 171.657 14.151 171.063 14.2812 170.495C14.4167 169.922 14.612 169.396 14.8672 168.917C15.1224 168.433 15.4349 168.013 15.8047 167.659C16.1745 167.3 16.5964 167.021 17.0703 166.823C17.5443 166.62 18.0677 166.519 18.6406 166.519C19.0885 166.519 19.5078 166.563 19.8984 166.651C20.2891 166.735 20.6484 166.852 20.9766 167.003L20.4297 168.448C20.1797 168.334 19.9115 168.235 19.625 168.151C19.3438 168.063 19.0339 168.019 18.6953 168.019C18.2734 168.019 17.8932 168.133 17.5547 168.362C17.2161 168.586 16.9271 168.896 16.6875 169.292C16.4479 169.683 16.263 170.125 16.1328 170.62C16.0078 171.115 15.9453 171.633 15.9453 172.175C15.9453 172.56 16.0104 172.888 16.1406 173.159C16.2708 173.43 16.4583 173.638 16.7031 173.784C16.9531 173.925 17.2526 173.995 17.6016 173.995C17.987 173.995 18.349 173.94 18.6875 173.831C19.026 173.716 19.3646 173.576 19.7031 173.409V174.925C19.3802 175.097 19.0208 175.232 18.625 175.331C18.2292 175.435 17.7865 175.487 17.2969 175.487ZM24.8438 175.472C24.1875 175.472 23.6146 175.336 23.125 175.065C22.6354 174.795 22.2552 174.412 21.9844 173.917C21.7188 173.417 21.5859 172.826 21.5859 172.144C21.5859 171.565 21.6458 171.003 21.7656 170.456C21.8906 169.909 22.0729 169.399 22.3125 168.925C22.5521 168.451 22.8516 168.037 23.2109 167.683C23.5703 167.323 23.987 167.045 24.4609 166.847C24.9349 166.644 25.4661 166.542 26.0547 166.542C26.7266 166.542 27.3047 166.677 27.7891 166.948C28.2734 167.219 28.6458 167.607 28.9062 168.112C29.1667 168.618 29.2969 169.222 29.2969 169.925C29.2969 170.487 29.237 171.037 29.1172 171.573C29.0026 172.11 28.8281 172.615 28.5938 173.089C28.3594 173.558 28.0625 173.972 27.7031 174.331C27.349 174.685 26.9323 174.964 26.4531 175.167C25.9792 175.37 25.4427 175.472 24.8438 175.472ZM24.9766 173.972C25.2682 173.972 25.5391 173.907 25.7891 173.776C26.0443 173.641 26.2734 173.451 26.4766 173.206C26.6797 172.956 26.8516 172.662 26.9922 172.323C27.138 171.979 27.25 171.599 27.3281 171.183C27.4062 170.766 27.4453 170.321 27.4453 169.847C27.4453 169.529 27.3984 169.235 27.3047 168.964C27.2109 168.688 27.0547 168.466 26.8359 168.3C26.6224 168.128 26.3359 168.042 25.9766 168.042C25.6536 168.042 25.3568 168.12 25.0859 168.276C24.8203 168.427 24.5833 168.638 24.375 168.909C24.1719 169.18 24 169.493 23.8594 169.847C23.7188 170.196 23.612 170.571 23.5391 170.972C23.4661 171.368 23.4297 171.769 23.4297 172.175C23.4297 172.753 23.5599 173.198 23.8203 173.511C24.0859 173.818 24.4714 173.972 24.9766 173.972ZM30.375 175.331L32.2188 166.659H33.6953L33.5078 168.292H33.5547C33.763 167.985 34.0052 167.696 34.2812 167.425C34.5573 167.149 34.8698 166.925 35.2188 166.753C35.5729 166.581 35.9688 166.495 36.4062 166.495C36.8854 166.495 37.2917 166.589 37.625 166.776C37.9583 166.964 38.2109 167.232 38.3828 167.581C38.5547 167.93 38.6406 168.347 38.6406 168.831C38.6406 169.045 38.6224 169.274 38.5859 169.519C38.5547 169.758 38.513 169.993 38.4609 170.222L37.375 175.331H35.5078L36.6172 170.073C36.6641 169.87 36.6979 169.688 36.7188 169.526C36.7448 169.365 36.7578 169.214 36.7578 169.073C36.7578 168.729 36.6719 168.472 36.5 168.3C36.3333 168.128 36.0833 168.042 35.75 168.042C35.3854 168.042 35.026 168.183 34.6719 168.464C34.3177 168.745 33.9974 169.154 33.7109 169.69C33.4245 170.227 33.1979 170.875 33.0312 171.636L32.25 175.331H30.375ZM46.7812 175.487C46.3333 175.487 45.9271 175.381 45.5625 175.167C45.2031 174.953 44.9167 174.623 44.7031 174.175C44.4896 173.722 44.3828 173.141 44.3828 172.433C44.3828 171.839 44.4427 171.258 44.5625 170.69C44.6875 170.118 44.8672 169.581 45.1016 169.081C45.3359 168.576 45.6224 168.133 45.9609 167.753C46.2995 167.368 46.6823 167.068 47.1094 166.854C47.5417 166.636 48.0104 166.526 48.5156 166.526C48.8906 166.526 49.2109 166.591 49.4766 166.722C49.7422 166.852 49.9661 167.024 50.1484 167.237C50.3307 167.451 50.4844 167.683 50.6094 167.933H50.6797C50.6953 167.797 50.7135 167.625 50.7344 167.417C50.7604 167.203 50.7917 166.974 50.8281 166.729C50.8646 166.479 50.9089 166.237 50.9609 166.003L51.5625 163.175H53.3828L50.8047 175.331H49.375L49.5469 173.933H49.4922C49.263 174.224 49.013 174.487 48.7422 174.722C48.4766 174.956 48.1823 175.144 47.8594 175.284C47.5365 175.42 47.1771 175.487 46.7812 175.487ZM47.4922 173.995C47.737 173.995 47.9714 173.933 48.1953 173.808C48.4245 173.683 48.6354 173.511 48.8281 173.292C49.026 173.068 49.2057 172.813 49.3672 172.526C49.5286 172.235 49.6667 171.925 49.7812 171.597C49.8958 171.269 49.9844 170.935 50.0469 170.597C50.1094 170.258 50.1406 169.93 50.1406 169.612C50.1406 169.128 50.0234 168.743 49.7891 168.456C49.5599 168.164 49.2161 168.019 48.7578 168.019C48.4609 168.019 48.1849 168.102 47.9297 168.269C47.6745 168.435 47.4427 168.662 47.2344 168.948C47.026 169.235 46.8464 169.565 46.6953 169.94C46.5495 170.31 46.4375 170.706 46.3594 171.128C46.2812 171.55 46.2422 171.972 46.2422 172.394C46.2422 172.92 46.3464 173.318 46.5547 173.589C46.7682 173.86 47.0807 173.995 47.4922 173.995ZM53.3906 175.331L55.2266 166.683H57.0547L55.2188 175.331H53.3906ZM56.5469 165.386C56.276 165.386 56.0495 165.321 55.8672 165.19C55.6849 165.055 55.5938 164.844 55.5938 164.558C55.5938 164.318 55.638 164.11 55.7266 163.933C55.8203 163.756 55.9531 163.62 56.125 163.526C56.3021 163.427 56.513 163.378 56.7578 163.378C57.0286 163.378 57.25 163.443 57.4219 163.573C57.5938 163.698 57.6797 163.901 57.6797 164.183C57.6797 164.547 57.5781 164.839 57.375 165.058C57.1719 165.276 56.8958 165.386 56.5469 165.386ZM60.5547 175.487C60.112 175.487 59.7083 175.381 59.3438 175.167C58.9844 174.948 58.6979 174.615 58.4844 174.167C58.2708 173.714 58.1641 173.138 58.1641 172.44C58.1641 171.836 58.2266 171.248 58.3516 170.675C58.4818 170.102 58.6641 169.565 58.8984 169.065C59.138 168.565 59.4271 168.125 59.7656 167.745C60.1042 167.36 60.487 167.06 60.9141 166.847C61.3411 166.628 61.8021 166.519 62.2969 166.519C62.6719 166.519 63 166.584 63.2812 166.714C63.5625 166.839 63.7995 167.008 63.9922 167.222C64.1849 167.435 64.3411 167.672 64.4609 167.933H64.5312L65 166.683H66.4062L64.5703 175.331H63.1719L63.3438 173.933H63.2812C63.0573 174.219 62.8073 174.479 62.5312 174.714C62.2604 174.948 61.9609 175.136 61.6328 175.276C61.3047 175.417 60.9453 175.487 60.5547 175.487ZM61.2266 173.995C61.5911 173.995 61.9401 173.86 62.2734 173.589C62.6068 173.313 62.901 172.948 63.1562 172.495C63.4167 172.042 63.6094 171.545 63.7344 171.003C63.7969 170.743 63.8385 170.495 63.8594 170.261C63.8854 170.026 63.8984 169.792 63.8984 169.558C63.8984 169.104 63.7786 168.735 63.5391 168.448C63.2995 168.162 62.9714 168.019 62.5547 168.019C62.2682 168.019 61.9948 168.099 61.7344 168.261C61.4792 168.422 61.2474 168.646 61.0391 168.933C60.8307 169.214 60.6484 169.539 60.4922 169.909C60.3411 170.279 60.224 170.677 60.1406 171.104C60.0625 171.526 60.0234 171.956 60.0234 172.394C60.0234 172.92 60.1276 173.318 60.3359 173.589C60.5495 173.86 60.8464 173.995 61.2266 173.995ZM71.2109 175.487C70.8307 175.487 70.4974 175.425 70.2109 175.3C69.9245 175.175 69.6849 175.006 69.4922 174.792C69.2995 174.578 69.1432 174.341 69.0234 174.081H68.9531L68.4688 175.331H67.0781L69.6562 163.175H71.4766L70.9219 165.769C70.8646 166.05 70.7969 166.347 70.7188 166.659C70.6406 166.972 70.5625 167.258 70.4844 167.519C70.4115 167.779 70.3516 167.972 70.3047 168.097H70.3672C70.5859 167.821 70.8177 167.563 71.0625 167.323C71.3073 167.084 71.5807 166.891 71.8828 166.745C72.1901 166.599 72.5365 166.526 72.9219 166.526C73.3698 166.526 73.776 166.636 74.1406 166.854C74.5052 167.068 74.7943 167.399 75.0078 167.847C75.2266 168.295 75.3359 168.87 75.3359 169.573C75.3359 170.167 75.2734 170.75 75.1484 171.323C75.0286 171.896 74.8516 172.433 74.6172 172.933C74.3828 173.433 74.099 173.875 73.7656 174.261C73.4323 174.641 73.0495 174.94 72.6172 175.159C72.1901 175.378 71.7214 175.487 71.2109 175.487ZM70.9688 173.995C71.2656 173.995 71.5417 173.914 71.7969 173.753C72.0521 173.586 72.2839 173.36 72.4922 173.073C72.7005 172.787 72.8776 172.456 73.0234 172.081C73.1693 171.706 73.2812 171.31 73.3594 170.894C73.4375 170.472 73.4766 170.047 73.4766 169.62C73.4766 169.089 73.3724 168.69 73.1641 168.425C72.9609 168.154 72.6536 168.019 72.2422 168.019C71.9922 168.019 71.75 168.084 71.5156 168.214C71.2865 168.339 71.0729 168.513 70.875 168.737C70.6771 168.956 70.4974 169.211 70.3359 169.503C70.1797 169.789 70.0443 170.097 69.9297 170.425C69.8151 170.753 69.7266 171.086 69.6641 171.425C69.6068 171.763 69.5781 172.089 69.5781 172.401C69.5781 172.881 69.6953 173.266 69.9297 173.558C70.1693 173.849 70.5156 173.995 70.9688 173.995ZM80.1172 175.487C79.4557 175.487 78.8776 175.362 78.3828 175.112C77.8932 174.857 77.513 174.485 77.2422 173.995C76.9766 173.5 76.8438 172.896 76.8438 172.183C76.8438 171.474 76.9453 170.784 77.1484 170.112C77.3516 169.435 77.651 168.826 78.0469 168.284C78.4427 167.743 78.9245 167.313 79.4922 166.995C80.0599 166.677 80.7057 166.519 81.4297 166.519C82.3151 166.519 82.9792 166.719 83.4219 167.12C83.8698 167.516 84.0938 168.042 84.0938 168.698C84.0938 169.146 83.9922 169.555 83.7891 169.925C83.5859 170.295 83.276 170.615 82.8594 170.886C82.4479 171.151 81.9245 171.357 81.2891 171.503C80.6589 171.649 79.9167 171.722 79.0625 171.722H78.7109C78.7057 171.8 78.7005 171.881 78.6953 171.964C78.6901 172.042 78.6875 172.12 78.6875 172.198C78.6875 172.776 78.8385 173.232 79.1406 173.565C79.4427 173.894 79.8828 174.058 80.4609 174.058C80.8984 174.058 81.3021 174.003 81.6719 173.894C82.0417 173.784 82.4557 173.62 82.9141 173.401V174.847C82.4922 175.05 82.0651 175.209 81.6328 175.323C81.2005 175.433 80.6953 175.487 80.1172 175.487ZM78.9375 170.394H79.2031C79.8385 170.394 80.3906 170.334 80.8594 170.214C81.3281 170.089 81.6901 169.907 81.9453 169.667C82.2005 169.422 82.3281 169.125 82.3281 168.776C82.3281 168.506 82.2422 168.295 82.0703 168.144C81.9036 167.987 81.6536 167.909 81.3203 167.909C80.9922 167.909 80.6693 168.011 80.3516 168.214C80.0339 168.412 79.75 168.698 79.5 169.073C79.25 169.443 79.0625 169.883 78.9375 170.394ZM87.5938 175.487C86.9635 175.487 86.4505 175.347 86.0547 175.065C85.6641 174.779 85.4688 174.279 85.4688 173.565C85.4688 173.425 85.4766 173.271 85.4922 173.104C85.513 172.933 85.5417 172.756 85.5781 172.573L86.5312 168.073H85.2812L85.4531 167.198L86.9297 166.597L87.9141 164.769H89.0625L88.6562 166.683H90.8594L90.5625 168.073H88.3672L87.4062 172.581C87.3802 172.69 87.3568 172.808 87.3359 172.933C87.3203 173.052 87.3125 173.162 87.3125 173.261C87.3125 173.495 87.3776 173.677 87.5078 173.808C87.638 173.938 87.8359 174.003 88.1016 174.003C88.3047 174.003 88.5 173.982 88.6875 173.94C88.875 173.899 89.0807 173.839 89.3047 173.761V175.144C89.112 175.232 88.862 175.31 88.5547 175.378C88.2474 175.451 87.9271 175.487 87.5938 175.487ZM94.4922 175.487C93.8307 175.487 93.2526 175.362 92.7578 175.112C92.2682 174.857 91.888 174.485 91.6172 173.995C91.3516 173.5 91.2188 172.896 91.2188 172.183C91.2188 171.474 91.3203 170.784 91.5234 170.112C91.7266 169.435 92.026 168.826 92.4219 168.284C92.8177 167.743 93.2995 167.313 93.8672 166.995C94.4349 166.677 95.0807 166.519 95.8047 166.519C96.6901 166.519 97.3542 166.719 97.7969 167.12C98.2448 167.516 98.4688 168.042 98.4688 168.698C98.4688 169.146 98.3672 169.555 98.1641 169.925C97.9609 170.295 97.651 170.615 97.2344 170.886C96.8229 171.151 96.2995 171.357 95.6641 171.503C95.0339 171.649 94.2917 171.722 93.4375 171.722H93.0859C93.0807 171.8 93.0755 171.881 93.0703 171.964C93.0651 172.042 93.0625 172.12 93.0625 172.198C93.0625 172.776 93.2135 173.232 93.5156 173.565C93.8177 173.894 94.2578 174.058 94.8359 174.058C95.2734 174.058 95.6771 174.003 96.0469 173.894C96.4167 173.784 96.8307 173.62 97.2891 173.401V174.847C96.8672 175.05 96.4401 175.209 96.0078 175.323C95.5755 175.433 95.0703 175.487 94.4922 175.487ZM93.3125 170.394H93.5781C94.2135 170.394 94.7656 170.334 95.2344 170.214C95.7031 170.089 96.0651 169.907 96.3203 169.667C96.5755 169.422 96.7031 169.125 96.7031 168.776C96.7031 168.506 96.6172 168.295 96.4453 168.144C96.2786 167.987 96.0286 167.909 95.6953 167.909C95.3672 167.909 95.0443 168.011 94.7266 168.214C94.4089 168.412 94.125 168.698 93.875 169.073C93.625 169.443 93.4375 169.883 93.3125 170.394ZM101.57 175.487C101.029 175.487 100.555 175.44 100.148 175.347C99.7474 175.258 99.3854 175.128 99.0625 174.956V173.386C99.3958 173.584 99.7708 173.75 100.188 173.886C100.609 174.016 101.042 174.081 101.484 174.081C101.828 174.081 102.128 174.034 102.383 173.94C102.638 173.847 102.836 173.714 102.977 173.542C103.122 173.365 103.195 173.151 103.195 172.901C103.195 172.719 103.154 172.558 103.07 172.417C102.987 172.276 102.844 172.133 102.641 171.987C102.438 171.841 102.156 171.667 101.797 171.464C101.417 171.25 101.094 171.034 100.828 170.815C100.568 170.591 100.367 170.344 100.227 170.073C100.091 169.802 100.023 169.485 100.023 169.12C100.023 168.573 100.148 168.107 100.398 167.722C100.654 167.331 101.013 167.034 101.477 166.831C101.945 166.623 102.497 166.519 103.133 166.519C103.643 166.519 104.125 166.578 104.578 166.698C105.031 166.813 105.451 166.974 105.836 167.183L105.234 168.542C104.948 168.381 104.63 168.243 104.281 168.128C103.932 168.008 103.557 167.948 103.156 167.948C102.786 167.948 102.477 168.034 102.227 168.206C101.982 168.378 101.859 168.623 101.859 168.94C101.859 169.107 101.898 169.258 101.977 169.394C102.06 169.524 102.198 169.657 102.391 169.792C102.583 169.927 102.846 170.084 103.18 170.261C103.539 170.459 103.859 170.667 104.141 170.886C104.422 171.104 104.643 171.357 104.805 171.644C104.966 171.925 105.047 172.266 105.047 172.667C105.047 173.276 104.904 173.792 104.617 174.214C104.336 174.631 103.935 174.948 103.414 175.167C102.893 175.381 102.279 175.487 101.57 175.487Z" fill="black"/>
</svg>
