<svg width="127" height="225" viewBox="0 0 127 225" fill="none" xmlns="http://www.w3.org/2000/svg">
<path d="M63.3723 30.979C59.2022 28.3725 42.5217 18.4063 30.4572 33.4847C27.809 36.6872 25.9546 40.4631 25.0435 44.5082C24.1324 48.5533 24.1901 52.7545 25.2118 56.7734C29.6442 76.2177 52.1733 94.6453 62.6773 99.7801C62.9007 99.8928 63.148 99.9509 63.3985 99.9495C63.6493 99.9524 63.8969 99.8943 64.1198 99.7801C74.6107 94.6844 97.166 76.3219 101.585 56.7734C102.61 52.7547 102.669 48.5528 101.758 44.5072C100.847 40.4615 98.9909 36.6857 96.3399 33.4847C84.2491 18.4063 67.5687 28.3595 63.3723 30.979ZM98.3594 56.0436C98.2151 56.7083 98.0315 57.3469 97.8348 58.0115H80.9183C80.6558 58.0218 80.3997 58.0947 80.1715 58.224C79.9432 58.3533 79.7496 58.5352 79.6069 58.7543L74.9778 65.9221L73.496 61.856C73.422 61.6549 73.3088 61.4703 73.1629 61.3127C73.0171 61.1551 72.8414 61.0275 72.646 60.9374C72.4505 60.8472 72.2391 60.7962 72.0239 60.7872C71.8086 60.7783 71.5936 60.8115 71.3913 60.8851C71.1889 60.9587 71.0032 61.0712 70.8446 61.2161C70.6859 61.3611 70.5576 61.5357 70.4669 61.7299C70.3762 61.9241 70.3248 62.1342 70.3158 62.3482C70.3068 62.5621 70.3403 62.7757 70.4143 62.9768L73.037 70.1316C73.1375 70.4099 73.3129 70.6555 73.5441 70.8417C73.7754 71.0278 74.0535 71.1473 74.3484 71.1872H74.5189C74.794 71.1872 75.0646 71.1179 75.3054 70.9857C75.5462 70.8535 75.7494 70.6628 75.8958 70.4313L81.8231 61.3087H96.7333C90.1765 77.56 71.7257 92.1301 63.3985 96.4959C55.0714 92.1301 36.5813 77.5469 30.0507 61.3087H42.1152L49.5244 77.7685C49.6557 78.0565 49.8678 78.3006 50.1353 78.4717C50.4028 78.6428 50.7143 78.7335 51.0324 78.7329C51.3573 78.7242 51.6721 78.619 51.9362 78.4309C52.2004 78.2427 52.4017 77.9802 52.5143 77.6773L66.1591 51.2694L70.0932 62.0992C70.2468 62.5041 70.5537 62.8331 70.9483 63.0157C71.343 63.1984 71.7939 63.2203 72.2045 63.0767C72.4067 63.004 72.5923 62.8923 72.7508 62.7478C72.9092 62.6034 73.0372 62.4292 73.1275 62.2353C73.2177 62.0414 73.2684 61.8316 73.2765 61.6181C73.2847 61.4046 73.2501 61.1916 73.1749 60.9915L67.6672 45.9783C67.5536 45.6646 67.3452 45.3936 67.0705 45.2023C66.7958 45.011 66.4683 44.9087 66.1329 44.9096C65.7979 44.9106 65.4713 45.0136 65.197 45.2046C64.9227 45.3957 64.7139 45.6657 64.5986 45.9783L50.7964 72.7902L44.6724 58.9498C44.5433 58.6629 44.3335 58.4192 44.0683 58.2481C43.803 58.077 43.4936 57.9858 43.1774 57.9854H28.9229C28.7393 57.3469 28.5558 56.6822 28.4115 56.0436C27.5093 52.5003 27.4595 48.7957 28.2659 45.2297C29.0724 41.6637 30.7126 38.3366 33.0537 35.5177C37.5254 29.9138 42.7184 28.1545 47.4787 28.1545C55.3468 28.1545 61.9823 33.9243 62.4281 34.2371C62.7078 34.4464 63.0484 34.5596 63.3985 34.5596C63.7487 34.5596 64.0893 34.4464 64.369 34.2371C65.0771 33.7288 81.9149 20.713 93.7565 35.5177C96.0926 38.3393 97.7286 41.667 98.5327 45.2324C99.3368 48.7978 99.2864 52.5011 98.3856 56.0436H98.3594Z" fill="black"/>
<rect x="2.90039" y="1.83105" width="121" height="121" rx="6.5" stroke="black" stroke-width="3"/>
<path d="M1.94727 153.331L4.36133 141.909H7.23633C8.10612 141.909 8.80404 142.039 9.33008 142.3C9.86133 142.56 10.2467 142.927 10.4863 143.401C10.7311 143.87 10.8535 144.42 10.8535 145.05C10.8535 145.706 10.7363 146.284 10.502 146.784C10.2728 147.279 9.94206 147.696 9.50977 148.034C9.07747 148.368 8.55404 148.62 7.93945 148.792C7.33008 148.959 6.64518 149.042 5.88477 149.042H4.69727L3.79102 153.331H1.94727ZM5.0332 147.495H6.08008C6.67383 147.495 7.18685 147.407 7.61914 147.229C8.05143 147.047 8.38477 146.779 8.61914 146.425C8.85872 146.065 8.97852 145.625 8.97852 145.104C8.97852 144.537 8.82227 144.123 8.50977 143.862C8.19727 143.597 7.72591 143.464 7.0957 143.464H5.88477L5.0332 147.495ZM14.8301 153.487C14.1686 153.487 13.5905 153.362 13.0957 153.112C12.6061 152.857 12.2259 152.485 11.9551 151.995C11.6895 151.5 11.5566 150.896 11.5566 150.183C11.5566 149.474 11.6582 148.784 11.8613 148.112C12.0645 147.435 12.3639 146.826 12.7598 146.284C13.1556 145.743 13.6374 145.313 14.2051 144.995C14.7728 144.677 15.4186 144.519 16.1426 144.519C17.028 144.519 17.6921 144.719 18.1348 145.12C18.5827 145.516 18.8066 146.042 18.8066 146.698C18.8066 147.146 18.7051 147.555 18.502 147.925C18.2988 148.295 17.9889 148.615 17.5723 148.886C17.1608 149.151 16.6374 149.357 16.002 149.503C15.3717 149.649 14.6296 149.722 13.7754 149.722H13.4238C13.4186 149.8 13.4134 149.881 13.4082 149.964C13.403 150.042 13.4004 150.12 13.4004 150.198C13.4004 150.776 13.5514 151.232 13.8535 151.565C14.1556 151.894 14.5957 152.058 15.1738 152.058C15.6113 152.058 16.015 152.003 16.3848 151.894C16.7546 151.784 17.1686 151.62 17.627 151.401V152.847C17.2051 153.05 16.778 153.209 16.3457 153.323C15.9134 153.433 15.4082 153.487 14.8301 153.487ZM13.6504 148.394H13.916C14.5514 148.394 15.1035 148.334 15.5723 148.214C16.041 148.089 16.403 147.907 16.6582 147.667C16.9134 147.422 17.041 147.125 17.041 146.776C17.041 146.506 16.9551 146.295 16.7832 146.144C16.6165 145.987 16.3665 145.909 16.0332 145.909C15.7051 145.909 15.3822 146.011 15.0645 146.214C14.7467 146.412 14.4629 146.698 14.2129 147.073C13.9629 147.443 13.7754 147.883 13.6504 148.394ZM19.6348 153.331L21.4707 144.683H22.9004L22.7129 146.315H22.7988C23.0228 145.982 23.265 145.68 23.5254 145.409C23.791 145.138 24.0853 144.922 24.4082 144.761C24.7311 144.599 25.0905 144.519 25.4863 144.519C25.627 144.519 25.7728 144.529 25.9238 144.55C26.0801 144.565 26.2155 144.589 26.3301 144.62L25.9316 146.339C25.8171 146.308 25.6921 146.282 25.5566 146.261C25.4212 146.24 25.278 146.229 25.127 146.229C24.7832 146.229 24.4603 146.31 24.1582 146.472C23.8561 146.633 23.5827 146.857 23.3379 147.144C23.0931 147.43 22.8822 147.766 22.7051 148.151C22.528 148.532 22.39 148.946 22.291 149.394L21.4629 153.331H19.6348ZM28.4395 153.487C27.8978 153.487 27.4238 153.44 27.0176 153.347C26.6165 153.258 26.2546 153.128 25.9316 152.956V151.386C26.265 151.584 26.64 151.75 27.0566 151.886C27.4785 152.016 27.9108 152.081 28.3535 152.081C28.6973 152.081 28.9967 152.034 29.252 151.94C29.5072 151.847 29.7051 151.714 29.8457 151.542C29.9915 151.365 30.0645 151.151 30.0645 150.901C30.0645 150.719 30.0228 150.558 29.9395 150.417C29.8561 150.276 29.7129 150.133 29.5098 149.987C29.3066 149.841 29.0254 149.667 28.666 149.464C28.2858 149.25 27.9629 149.034 27.6973 148.815C27.4368 148.591 27.2363 148.344 27.0957 148.073C26.9603 147.802 26.8926 147.485 26.8926 147.12C26.8926 146.573 27.0176 146.107 27.2676 145.722C27.5228 145.331 27.8822 145.034 28.3457 144.831C28.8145 144.623 29.3665 144.519 30.002 144.519C30.5124 144.519 30.9941 144.578 31.4473 144.698C31.9004 144.813 32.3197 144.974 32.7051 145.183L32.1035 146.542C31.8171 146.381 31.4993 146.243 31.1504 146.128C30.8014 146.008 30.4264 145.948 30.0254 145.948C29.6556 145.948 29.3457 146.034 29.0957 146.206C28.8509 146.378 28.7285 146.623 28.7285 146.94C28.7285 147.107 28.7676 147.258 28.8457 147.394C28.929 147.524 29.0671 147.657 29.2598 147.792C29.4525 147.927 29.7155 148.084 30.0488 148.261C30.4082 148.459 30.7285 148.667 31.0098 148.886C31.291 149.104 31.5124 149.357 31.6738 149.644C31.8353 149.925 31.916 150.266 31.916 150.667C31.916 151.276 31.7728 151.792 31.4863 152.214C31.2051 152.631 30.804 152.948 30.2832 153.167C29.7624 153.381 29.1478 153.487 28.4395 153.487ZM37.0254 153.472C36.3691 153.472 35.7962 153.336 35.3066 153.065C34.8171 152.795 34.4368 152.412 34.166 151.917C33.9004 151.417 33.7676 150.826 33.7676 150.144C33.7676 149.565 33.8275 149.003 33.9473 148.456C34.0723 147.909 34.2546 147.399 34.4941 146.925C34.7337 146.451 35.0332 146.037 35.3926 145.683C35.752 145.323 36.1686 145.045 36.6426 144.847C37.1165 144.644 37.6478 144.542 38.2363 144.542C38.9082 144.542 39.4863 144.677 39.9707 144.948C40.4551 145.219 40.8275 145.607 41.0879 146.112C41.3483 146.618 41.4785 147.222 41.4785 147.925C41.4785 148.487 41.4186 149.037 41.2988 149.573C41.1842 150.11 41.0098 150.615 40.7754 151.089C40.541 151.558 40.2441 151.972 39.8848 152.331C39.5306 152.685 39.1139 152.964 38.6348 153.167C38.1608 153.37 37.6243 153.472 37.0254 153.472ZM37.1582 151.972C37.4499 151.972 37.7207 151.907 37.9707 151.776C38.2259 151.641 38.4551 151.451 38.6582 151.206C38.8613 150.956 39.0332 150.662 39.1738 150.323C39.3197 149.979 39.4316 149.599 39.5098 149.183C39.5879 148.766 39.627 148.321 39.627 147.847C39.627 147.529 39.5801 147.235 39.4863 146.964C39.3926 146.688 39.2363 146.466 39.0176 146.3C38.804 146.128 38.5176 146.042 38.1582 146.042C37.8353 146.042 37.5384 146.12 37.2676 146.276C37.002 146.427 36.765 146.638 36.5566 146.909C36.3535 147.18 36.1816 147.493 36.041 147.847C35.9004 148.196 35.7936 148.571 35.7207 148.972C35.6478 149.368 35.6113 149.769 35.6113 150.175C35.6113 150.753 35.7415 151.198 36.002 151.511C36.2676 151.818 36.653 151.972 37.1582 151.972ZM42.5566 153.331L44.4004 144.659H45.877L45.6895 146.292H45.7363C45.9447 145.985 46.1868 145.696 46.4629 145.425C46.7389 145.149 47.0514 144.925 47.4004 144.753C47.7546 144.581 48.1504 144.495 48.5879 144.495C49.0671 144.495 49.4733 144.589 49.8066 144.776C50.14 144.964 50.3926 145.232 50.5645 145.581C50.7363 145.93 50.8223 146.347 50.8223 146.831C50.8223 147.045 50.804 147.274 50.7676 147.519C50.7363 147.758 50.6947 147.993 50.6426 148.222L49.5566 153.331H47.6895L48.7988 148.073C48.8457 147.87 48.8796 147.688 48.9004 147.526C48.9264 147.365 48.9395 147.214 48.9395 147.073C48.9395 146.729 48.8535 146.472 48.6816 146.3C48.515 146.128 48.265 146.042 47.9316 146.042C47.5671 146.042 47.2077 146.183 46.8535 146.464C46.4993 146.745 46.179 147.154 45.8926 147.69C45.6061 148.227 45.3796 148.875 45.2129 149.636L44.4316 153.331H42.5566ZM54.7988 153.487C54.3561 153.487 53.9525 153.381 53.5879 153.167C53.2285 152.948 52.9421 152.615 52.7285 152.167C52.515 151.714 52.4082 151.138 52.4082 150.44C52.4082 149.836 52.4707 149.248 52.5957 148.675C52.7259 148.102 52.9082 147.565 53.1426 147.065C53.3822 146.565 53.6712 146.125 54.0098 145.745C54.3483 145.36 54.7311 145.06 55.1582 144.847C55.5853 144.628 56.0462 144.519 56.541 144.519C56.916 144.519 57.2441 144.584 57.5254 144.714C57.8066 144.839 58.0436 145.008 58.2363 145.222C58.429 145.435 58.5853 145.672 58.7051 145.933H58.7754L59.2441 144.683H60.6504L58.8145 153.331H57.416L57.5879 151.933H57.5254C57.3014 152.219 57.0514 152.479 56.7754 152.714C56.5046 152.948 56.2051 153.136 55.877 153.276C55.5488 153.417 55.1895 153.487 54.7988 153.487ZM55.4707 151.995C55.8353 151.995 56.1842 151.86 56.5176 151.589C56.8509 151.313 57.1452 150.948 57.4004 150.495C57.6608 150.042 57.8535 149.545 57.9785 149.003C58.041 148.743 58.0827 148.495 58.1035 148.261C58.1296 148.026 58.1426 147.792 58.1426 147.558C58.1426 147.104 58.0228 146.735 57.7832 146.448C57.5436 146.162 57.2155 146.019 56.7988 146.019C56.5124 146.019 56.2389 146.099 55.9785 146.261C55.7233 146.422 55.4915 146.646 55.2832 146.933C55.0749 147.214 54.8926 147.539 54.7363 147.909C54.5853 148.279 54.4681 148.677 54.3848 149.104C54.3066 149.526 54.2676 149.956 54.2676 150.394C54.2676 150.92 54.3717 151.318 54.5801 151.589C54.7936 151.86 55.0905 151.995 55.4707 151.995ZM63.5957 153.487C63.054 153.487 62.5801 153.44 62.1738 153.347C61.7728 153.258 61.4108 153.128 61.0879 152.956V151.386C61.4212 151.584 61.7962 151.75 62.2129 151.886C62.6348 152.016 63.0671 152.081 63.5098 152.081C63.8535 152.081 64.153 152.034 64.4082 151.94C64.6634 151.847 64.8613 151.714 65.002 151.542C65.1478 151.365 65.2207 151.151 65.2207 150.901C65.2207 150.719 65.179 150.558 65.0957 150.417C65.0124 150.276 64.8691 150.133 64.666 149.987C64.4629 149.841 64.1816 149.667 63.8223 149.464C63.4421 149.25 63.1191 149.034 62.8535 148.815C62.5931 148.591 62.3926 148.344 62.252 148.073C62.1165 147.802 62.0488 147.485 62.0488 147.12C62.0488 146.573 62.1738 146.107 62.4238 145.722C62.679 145.331 63.0384 145.034 63.502 144.831C63.9707 144.623 64.5228 144.519 65.1582 144.519C65.6686 144.519 66.1504 144.578 66.6035 144.698C67.0566 144.813 67.4759 144.974 67.8613 145.183L67.2598 146.542C66.9733 146.381 66.6556 146.243 66.3066 146.128C65.9577 146.008 65.5827 145.948 65.1816 145.948C64.8118 145.948 64.502 146.034 64.252 146.206C64.0072 146.378 63.8848 146.623 63.8848 146.94C63.8848 147.107 63.9238 147.258 64.002 147.394C64.0853 147.524 64.2233 147.657 64.416 147.792C64.6087 147.927 64.8717 148.084 65.2051 148.261C65.5645 148.459 65.8848 148.667 66.166 148.886C66.4473 149.104 66.6686 149.357 66.8301 149.644C66.9915 149.925 67.0723 150.266 67.0723 150.667C67.0723 151.276 66.929 151.792 66.6426 152.214C66.3613 152.631 65.9603 152.948 65.4395 153.167C64.9186 153.381 64.304 153.487 63.5957 153.487ZM76.291 153.487C75.6712 153.487 75.1191 153.373 74.6348 153.144C74.1504 152.914 73.7702 152.563 73.4941 152.089C73.2181 151.615 73.0801 151.011 73.0801 150.276C73.0801 149.657 73.1452 149.063 73.2754 148.495C73.4108 147.922 73.6061 147.396 73.8613 146.917C74.1165 146.433 74.429 146.013 74.7988 145.659C75.1686 145.3 75.5905 145.021 76.0645 144.823C76.5384 144.62 77.0618 144.519 77.6348 144.519C78.0827 144.519 78.502 144.563 78.8926 144.651C79.2832 144.735 79.6426 144.852 79.9707 145.003L79.4238 146.448C79.1738 146.334 78.9056 146.235 78.6191 146.151C78.3379 146.063 78.028 146.019 77.6895 146.019C77.2676 146.019 76.8874 146.133 76.5488 146.362C76.2103 146.586 75.9212 146.896 75.6816 147.292C75.4421 147.683 75.2572 148.125 75.127 148.62C75.002 149.115 74.9395 149.633 74.9395 150.175C74.9395 150.56 75.0046 150.888 75.1348 151.159C75.265 151.43 75.4525 151.638 75.6973 151.784C75.9473 151.925 76.2467 151.995 76.5957 151.995C76.9811 151.995 77.3431 151.94 77.6816 151.831C78.0202 151.716 78.3587 151.576 78.6973 151.409V152.925C78.3743 153.097 78.015 153.232 77.6191 153.331C77.2233 153.435 76.7806 153.487 76.291 153.487ZM83.8379 153.472C83.1816 153.472 82.6087 153.336 82.1191 153.065C81.6296 152.795 81.2493 152.412 80.9785 151.917C80.7129 151.417 80.5801 150.826 80.5801 150.144C80.5801 149.565 80.64 149.003 80.7598 148.456C80.8848 147.909 81.0671 147.399 81.3066 146.925C81.5462 146.451 81.8457 146.037 82.2051 145.683C82.5645 145.323 82.9811 145.045 83.4551 144.847C83.929 144.644 84.4603 144.542 85.0488 144.542C85.7207 144.542 86.2988 144.677 86.7832 144.948C87.2676 145.219 87.64 145.607 87.9004 146.112C88.1608 146.618 88.291 147.222 88.291 147.925C88.291 148.487 88.2311 149.037 88.1113 149.573C87.9967 150.11 87.8223 150.615 87.5879 151.089C87.3535 151.558 87.0566 151.972 86.6973 152.331C86.3431 152.685 85.9264 152.964 85.4473 153.167C84.9733 153.37 84.4368 153.472 83.8379 153.472ZM83.9707 151.972C84.2624 151.972 84.5332 151.907 84.7832 151.776C85.0384 151.641 85.2676 151.451 85.4707 151.206C85.6738 150.956 85.8457 150.662 85.9863 150.323C86.1322 149.979 86.2441 149.599 86.3223 149.183C86.4004 148.766 86.4395 148.321 86.4395 147.847C86.4395 147.529 86.3926 147.235 86.2988 146.964C86.2051 146.688 86.0488 146.466 85.8301 146.3C85.6165 146.128 85.3301 146.042 84.9707 146.042C84.6478 146.042 84.3509 146.12 84.0801 146.276C83.8145 146.427 83.5775 146.638 83.3691 146.909C83.166 147.18 82.9941 147.493 82.8535 147.847C82.7129 148.196 82.6061 148.571 82.5332 148.972C82.4603 149.368 82.4238 149.769 82.4238 150.175C82.4238 150.753 82.554 151.198 82.8145 151.511C83.0801 151.818 83.4655 151.972 83.9707 151.972ZM89.3691 153.331L91.2129 144.659H92.6895L92.502 146.292H92.5488C92.7572 145.985 92.9993 145.696 93.2754 145.425C93.5514 145.149 93.8639 144.925 94.2129 144.753C94.5671 144.581 94.9629 144.495 95.4004 144.495C95.8796 144.495 96.2858 144.589 96.6191 144.776C96.9525 144.964 97.2051 145.232 97.377 145.581C97.5488 145.93 97.6348 146.347 97.6348 146.831C97.6348 147.045 97.6165 147.274 97.5801 147.519C97.5488 147.758 97.5072 147.993 97.4551 148.222L96.3691 153.331H94.502L95.6113 148.073C95.6582 147.87 95.6921 147.688 95.7129 147.526C95.7389 147.365 95.752 147.214 95.752 147.073C95.752 146.729 95.666 146.472 95.4941 146.3C95.3275 146.128 95.0775 146.042 94.7441 146.042C94.3796 146.042 94.0202 146.183 93.666 146.464C93.3118 146.745 92.9915 147.154 92.7051 147.69C92.4186 148.227 92.1921 148.875 92.0254 149.636L91.2441 153.331H89.3691ZM5.42383 175.487C4.76237 175.487 4.18424 175.362 3.68945 175.112C3.19987 174.857 2.81966 174.485 2.54883 173.995C2.2832 173.5 2.15039 172.896 2.15039 172.183C2.15039 171.474 2.25195 170.784 2.45508 170.112C2.6582 169.435 2.95768 168.826 3.35352 168.284C3.74935 167.743 4.23112 167.313 4.79883 166.995C5.36654 166.677 6.01237 166.519 6.73633 166.519C7.62174 166.519 8.28581 166.719 8.72852 167.12C9.17643 167.516 9.40039 168.042 9.40039 168.698C9.40039 169.146 9.29883 169.555 9.0957 169.925C8.89258 170.295 8.58268 170.615 8.16602 170.886C7.75456 171.151 7.23112 171.357 6.5957 171.503C5.96549 171.649 5.22331 171.722 4.36914 171.722H4.01758C4.01237 171.8 4.00716 171.881 4.00195 171.964C3.99674 172.042 3.99414 172.12 3.99414 172.198C3.99414 172.776 4.14518 173.232 4.44727 173.565C4.74935 173.894 5.18945 174.058 5.76758 174.058C6.20508 174.058 6.60872 174.003 6.97852 173.894C7.34831 173.784 7.76237 173.62 8.2207 173.401V174.847C7.79883 175.05 7.37174 175.209 6.93945 175.323C6.50716 175.433 6.00195 175.487 5.42383 175.487ZM4.24414 170.394H4.50977C5.14518 170.394 5.69727 170.334 6.16602 170.214C6.63477 170.089 6.99674 169.907 7.25195 169.667C7.50716 169.422 7.63477 169.125 7.63477 168.776C7.63477 168.506 7.54883 168.295 7.37695 168.144C7.21029 167.987 6.96029 167.909 6.62695 167.909C6.29883 167.909 5.97591 168.011 5.6582 168.214C5.34049 168.412 5.05664 168.698 4.80664 169.073C4.55664 169.443 4.36914 169.883 4.24414 170.394ZM10.1973 175.331L12.041 166.659H13.5176L13.3301 168.292H13.377C13.5853 167.985 13.8275 167.696 14.1035 167.425C14.3796 167.149 14.6921 166.925 15.041 166.753C15.3952 166.581 15.791 166.495 16.2285 166.495C16.7077 166.495 17.1139 166.589 17.4473 166.776C17.7806 166.964 18.0332 167.232 18.2051 167.581C18.377 167.93 18.4629 168.347 18.4629 168.831C18.4629 169.045 18.4447 169.274 18.4082 169.519C18.377 169.758 18.3353 169.993 18.2832 170.222L17.1973 175.331H15.3301L16.4395 170.073C16.4863 169.87 16.5202 169.688 16.541 169.526C16.5671 169.365 16.5801 169.214 16.5801 169.073C16.5801 168.729 16.4941 168.472 16.3223 168.3C16.1556 168.128 15.9056 168.042 15.5723 168.042C15.2077 168.042 14.8483 168.183 14.4941 168.464C14.14 168.745 13.8197 169.154 13.5332 169.69C13.2467 170.227 13.0202 170.875 12.8535 171.636L12.0723 175.331H10.1973ZM18.7285 179.175C18.5046 179.175 18.2884 179.157 18.0801 179.12C17.8665 179.084 17.6868 179.042 17.541 178.995V177.495C17.6973 177.552 17.8483 177.594 17.9941 177.62C18.1348 177.651 18.2832 177.667 18.4395 177.667C18.7936 177.667 19.0827 177.537 19.3066 177.276C19.5358 177.021 19.7077 176.631 19.8223 176.104L21.5176 168.073H20.1348L20.3066 167.229L21.8145 166.659L21.9785 165.917C22.0931 165.386 22.2389 164.94 22.416 164.581C22.5983 164.216 22.8118 163.925 23.0566 163.706C23.3066 163.487 23.5931 163.331 23.916 163.237C24.2441 163.138 24.6139 163.089 25.0254 163.089C25.3379 163.089 25.6374 163.12 25.9238 163.183C26.2155 163.245 26.4681 163.326 26.6816 163.425L26.1973 164.8C26.0462 164.737 25.8848 164.683 25.7129 164.636C25.541 164.589 25.3509 164.565 25.1426 164.565C24.7728 164.565 24.4785 164.68 24.2598 164.909C24.041 165.138 23.8796 165.506 23.7754 166.011L23.6348 166.683H25.4082L25.127 168.073H23.3379L21.5879 176.354C21.4681 176.907 21.2936 177.394 21.0645 177.815C20.8405 178.243 20.5384 178.576 20.1582 178.815C19.778 179.055 19.3014 179.175 18.7285 179.175ZM28.8145 175.487C28.153 175.487 27.5749 175.362 27.0801 175.112C26.5905 174.857 26.2103 174.485 25.9395 173.995C25.6738 173.5 25.541 172.896 25.541 172.183C25.541 171.474 25.6426 170.784 25.8457 170.112C26.0488 169.435 26.3483 168.826 26.7441 168.284C27.14 167.743 27.6217 167.313 28.1895 166.995C28.7572 166.677 29.403 166.519 30.127 166.519C31.0124 166.519 31.6764 166.719 32.1191 167.12C32.5671 167.516 32.791 168.042 32.791 168.698C32.791 169.146 32.6895 169.555 32.4863 169.925C32.2832 170.295 31.9733 170.615 31.5566 170.886C31.1452 171.151 30.6217 171.357 29.9863 171.503C29.3561 171.649 28.6139 171.722 27.7598 171.722H27.4082C27.403 171.8 27.3978 171.881 27.3926 171.964C27.3874 172.042 27.3848 172.12 27.3848 172.198C27.3848 172.776 27.5358 173.232 27.8379 173.565C28.14 173.894 28.5801 174.058 29.1582 174.058C29.5957 174.058 29.9993 174.003 30.3691 173.894C30.7389 173.784 31.153 173.62 31.6113 173.401V174.847C31.1895 175.05 30.7624 175.209 30.3301 175.323C29.8978 175.433 29.3926 175.487 28.8145 175.487ZM27.6348 170.394H27.9004C28.5358 170.394 29.0879 170.334 29.5566 170.214C30.0254 170.089 30.3874 169.907 30.6426 169.667C30.8978 169.422 31.0254 169.125 31.0254 168.776C31.0254 168.506 30.9395 168.295 30.7676 168.144C30.6009 167.987 30.3509 167.909 30.0176 167.909C29.6895 167.909 29.3665 168.011 29.0488 168.214C28.7311 168.412 28.4473 168.698 28.1973 169.073C27.9473 169.443 27.7598 169.883 27.6348 170.394ZM33.6191 175.331L35.4551 166.683H36.8848L36.6973 168.315H36.7832C37.0072 167.982 37.2493 167.68 37.5098 167.409C37.7754 167.138 38.0697 166.922 38.3926 166.761C38.7155 166.599 39.0749 166.519 39.4707 166.519C39.6113 166.519 39.7572 166.529 39.9082 166.55C40.0645 166.565 40.1999 166.589 40.3145 166.62L39.916 168.339C39.8014 168.308 39.6764 168.282 39.541 168.261C39.4056 168.24 39.2624 168.229 39.1113 168.229C38.7676 168.229 38.4447 168.31 38.1426 168.472C37.8405 168.633 37.5671 168.857 37.3223 169.144C37.0775 169.43 36.8665 169.766 36.6895 170.151C36.5124 170.532 36.3743 170.946 36.2754 171.394L35.4473 175.331H33.6191ZM40.1504 175.331L41.9863 166.683H43.416L43.2285 168.315H43.3066C43.5098 168.008 43.7441 167.719 44.0098 167.448C44.2806 167.172 44.5853 166.948 44.9238 166.776C45.2676 166.604 45.653 166.519 46.0801 166.519C46.6842 166.519 47.1452 166.685 47.4629 167.019C47.7858 167.352 47.9863 167.808 48.0645 168.386H48.127C48.3405 168.052 48.5879 167.745 48.8691 167.464C49.1556 167.183 49.4759 166.956 49.8301 166.784C50.1895 166.607 50.5801 166.519 51.002 166.519C51.6999 166.519 52.2285 166.722 52.5879 167.128C52.9473 167.534 53.127 168.102 53.127 168.831C53.127 169.05 53.1113 169.274 53.0801 169.503C53.054 169.732 53.0124 169.969 52.9551 170.214L51.877 175.331H50.0488L51.166 170.081C51.2077 169.878 51.2389 169.696 51.2598 169.534C51.2858 169.368 51.2988 169.211 51.2988 169.065C51.2988 168.727 51.2181 168.469 51.0566 168.292C50.9004 168.11 50.6608 168.019 50.3379 168.019C50.0671 168.019 49.7988 168.099 49.5332 168.261C49.2728 168.422 49.0254 168.657 48.791 168.964C48.5566 169.271 48.3483 169.644 48.166 170.081C47.9837 170.513 47.8353 171.003 47.7207 171.55L46.9238 175.331H45.1035L46.2051 170.097C46.252 169.888 46.2858 169.701 46.3066 169.534C46.3275 169.368 46.3379 169.222 46.3379 169.097C46.3379 168.748 46.2624 168.482 46.1113 168.3C45.9655 168.112 45.7311 168.019 45.4082 168.019C45.1374 168.019 44.8691 168.099 44.6035 168.261C44.3379 168.422 44.0879 168.659 43.8535 168.972C43.6191 169.284 43.4082 169.664 43.2207 170.112C43.0332 170.555 42.8796 171.063 42.7598 171.636L41.9785 175.331H40.1504ZM58.0176 175.487C57.3561 175.487 56.778 175.362 56.2832 175.112C55.7936 174.857 55.4134 174.485 55.1426 173.995C54.877 173.5 54.7441 172.896 54.7441 172.183C54.7441 171.474 54.8457 170.784 55.0488 170.112C55.252 169.435 55.5514 168.826 55.9473 168.284C56.3431 167.743 56.8249 167.313 57.3926 166.995C57.9603 166.677 58.6061 166.519 59.3301 166.519C60.2155 166.519 60.8796 166.719 61.3223 167.12C61.7702 167.516 61.9941 168.042 61.9941 168.698C61.9941 169.146 61.8926 169.555 61.6895 169.925C61.4863 170.295 61.1764 170.615 60.7598 170.886C60.3483 171.151 59.8249 171.357 59.1895 171.503C58.5592 171.649 57.8171 171.722 56.9629 171.722H56.6113C56.6061 171.8 56.6009 171.881 56.5957 171.964C56.5905 172.042 56.5879 172.12 56.5879 172.198C56.5879 172.776 56.7389 173.232 57.041 173.565C57.3431 173.894 57.7832 174.058 58.3613 174.058C58.7988 174.058 59.2025 174.003 59.5723 173.894C59.9421 173.784 60.3561 173.62 60.8145 173.401V174.847C60.3926 175.05 59.9655 175.209 59.5332 175.323C59.1009 175.433 58.5957 175.487 58.0176 175.487ZM56.8379 170.394H57.1035C57.7389 170.394 58.291 170.334 58.7598 170.214C59.2285 170.089 59.5905 169.907 59.8457 169.667C60.1009 169.422 60.2285 169.125 60.2285 168.776C60.2285 168.506 60.1426 168.295 59.9707 168.144C59.804 167.987 59.554 167.909 59.2207 167.909C58.8926 167.909 58.5697 168.011 58.252 168.214C57.9342 168.412 57.6504 168.698 57.4004 169.073C57.1504 169.443 56.9629 169.883 56.8379 170.394ZM65.5879 175.487C65.14 175.487 64.7337 175.381 64.3691 175.167C64.0098 174.953 63.7233 174.623 63.5098 174.175C63.2962 173.722 63.1895 173.141 63.1895 172.433C63.1895 171.839 63.2493 171.258 63.3691 170.69C63.4941 170.118 63.6738 169.581 63.9082 169.081C64.1426 168.576 64.429 168.133 64.7676 167.753C65.1061 167.368 65.4889 167.068 65.916 166.854C66.3483 166.636 66.8171 166.526 67.3223 166.526C67.6973 166.526 68.0176 166.591 68.2832 166.722C68.5488 166.852 68.7728 167.024 68.9551 167.237C69.1374 167.451 69.291 167.683 69.416 167.933H69.4863C69.502 167.797 69.5202 167.625 69.541 167.417C69.5671 167.203 69.5983 166.974 69.6348 166.729C69.6712 166.479 69.7155 166.237 69.7676 166.003L70.3691 163.175H72.1895L69.6113 175.331H68.1816L68.3535 173.933H68.2988C68.0697 174.224 67.8197 174.487 67.5488 174.722C67.2832 174.956 66.9889 175.144 66.666 175.284C66.3431 175.42 65.9837 175.487 65.5879 175.487ZM66.2988 173.995C66.5436 173.995 66.778 173.933 67.002 173.808C67.2311 173.683 67.4421 173.511 67.6348 173.292C67.8327 173.068 68.0124 172.813 68.1738 172.526C68.3353 172.235 68.4733 171.925 68.5879 171.597C68.7025 171.269 68.791 170.935 68.8535 170.597C68.916 170.258 68.9473 169.93 68.9473 169.612C68.9473 169.128 68.8301 168.743 68.5957 168.456C68.3665 168.164 68.0228 168.019 67.5645 168.019C67.2676 168.019 66.9915 168.102 66.7363 168.269C66.4811 168.435 66.2493 168.662 66.041 168.948C65.8327 169.235 65.653 169.565 65.502 169.94C65.3561 170.31 65.2441 170.706 65.166 171.128C65.0879 171.55 65.0488 171.972 65.0488 172.394C65.0488 172.92 65.153 173.318 65.3613 173.589C65.5749 173.86 65.8874 173.995 66.2988 173.995ZM74.9551 175.487C74.5124 175.487 74.1087 175.381 73.7441 175.167C73.3848 174.948 73.0983 174.615 72.8848 174.167C72.6712 173.714 72.5645 173.138 72.5645 172.44C72.5645 171.836 72.627 171.248 72.752 170.675C72.8822 170.102 73.0645 169.565 73.2988 169.065C73.5384 168.565 73.8275 168.125 74.166 167.745C74.5046 167.36 74.8874 167.06 75.3145 166.847C75.7415 166.628 76.2025 166.519 76.6973 166.519C77.0723 166.519 77.4004 166.584 77.6816 166.714C77.9629 166.839 78.1999 167.008 78.3926 167.222C78.5853 167.435 78.7415 167.672 78.8613 167.933H78.9316L79.4004 166.683H80.8066L78.9707 175.331H77.5723L77.7441 173.933H77.6816C77.4577 174.219 77.2077 174.479 76.9316 174.714C76.6608 174.948 76.3613 175.136 76.0332 175.276C75.7051 175.417 75.3457 175.487 74.9551 175.487ZM75.627 173.995C75.9915 173.995 76.3405 173.86 76.6738 173.589C77.0072 173.313 77.3014 172.948 77.5566 172.495C77.8171 172.042 78.0098 171.545 78.1348 171.003C78.1973 170.743 78.2389 170.495 78.2598 170.261C78.2858 170.026 78.2988 169.792 78.2988 169.558C78.2988 169.104 78.179 168.735 77.9395 168.448C77.6999 168.162 77.3717 168.019 76.9551 168.019C76.6686 168.019 76.3952 168.099 76.1348 168.261C75.8796 168.422 75.6478 168.646 75.4395 168.933C75.2311 169.214 75.0488 169.539 74.8926 169.909C74.7415 170.279 74.6243 170.677 74.541 171.104C74.4629 171.526 74.4238 171.956 74.4238 172.394C74.4238 172.92 74.528 173.318 74.7363 173.589C74.9499 173.86 75.2467 173.995 75.627 173.995ZM84.2441 175.487C83.7962 175.487 83.39 175.381 83.0254 175.167C82.666 174.953 82.3796 174.623 82.166 174.175C81.9525 173.722 81.8457 173.141 81.8457 172.433C81.8457 171.839 81.9056 171.258 82.0254 170.69C82.1504 170.118 82.3301 169.581 82.5645 169.081C82.7988 168.576 83.0853 168.133 83.4238 167.753C83.7624 167.368 84.1452 167.068 84.5723 166.854C85.0046 166.636 85.4733 166.526 85.9785 166.526C86.3535 166.526 86.6738 166.591 86.9395 166.722C87.2051 166.852 87.429 167.024 87.6113 167.237C87.7936 167.451 87.9473 167.683 88.0723 167.933H88.1426C88.1582 167.797 88.1764 167.625 88.1973 167.417C88.2233 167.203 88.2546 166.974 88.291 166.729C88.3275 166.479 88.3717 166.237 88.4238 166.003L89.0254 163.175H90.8457L88.2676 175.331H86.8379L87.0098 173.933H86.9551C86.7259 174.224 86.4759 174.487 86.2051 174.722C85.9395 174.956 85.6452 175.144 85.3223 175.284C84.9993 175.42 84.64 175.487 84.2441 175.487ZM84.9551 173.995C85.1999 173.995 85.4342 173.933 85.6582 173.808C85.8874 173.683 86.0983 173.511 86.291 173.292C86.4889 173.068 86.6686 172.813 86.8301 172.526C86.9915 172.235 87.1296 171.925 87.2441 171.597C87.3587 171.269 87.4473 170.935 87.5098 170.597C87.5723 170.258 87.6035 169.93 87.6035 169.612C87.6035 169.128 87.4863 168.743 87.252 168.456C87.0228 168.164 86.679 168.019 86.2207 168.019C85.9238 168.019 85.6478 168.102 85.3926 168.269C85.1374 168.435 84.9056 168.662 84.6973 168.948C84.4889 169.235 84.3092 169.565 84.1582 169.94C84.0124 170.31 83.9004 170.706 83.8223 171.128C83.7441 171.55 83.7051 171.972 83.7051 172.394C83.7051 172.92 83.8092 173.318 84.0176 173.589C84.2311 173.86 84.5436 173.995 84.9551 173.995ZM94.502 175.487C93.8405 175.487 93.2624 175.362 92.7676 175.112C92.278 174.857 91.8978 174.485 91.627 173.995C91.3613 173.5 91.2285 172.896 91.2285 172.183C91.2285 171.474 91.3301 170.784 91.5332 170.112C91.7363 169.435 92.0358 168.826 92.4316 168.284C92.8275 167.743 93.3092 167.313 93.877 166.995C94.4447 166.677 95.0905 166.519 95.8145 166.519C96.6999 166.519 97.3639 166.719 97.8066 167.12C98.2546 167.516 98.4785 168.042 98.4785 168.698C98.4785 169.146 98.377 169.555 98.1738 169.925C97.9707 170.295 97.6608 170.615 97.2441 170.886C96.8327 171.151 96.3092 171.357 95.6738 171.503C95.0436 171.649 94.3014 171.722 93.4473 171.722H93.0957C93.0905 171.8 93.0853 171.881 93.0801 171.964C93.0749 172.042 93.0723 172.12 93.0723 172.198C93.0723 172.776 93.2233 173.232 93.5254 173.565C93.8275 173.894 94.2676 174.058 94.8457 174.058C95.2832 174.058 95.6868 174.003 96.0566 173.894C96.4264 173.784 96.8405 173.62 97.2988 173.401V174.847C96.877 175.05 96.4499 175.209 96.0176 175.323C95.5853 175.433 95.0801 175.487 94.502 175.487ZM93.3223 170.394H93.5879C94.2233 170.394 94.7754 170.334 95.2441 170.214C95.7129 170.089 96.0749 169.907 96.3301 169.667C96.5853 169.422 96.7129 169.125 96.7129 168.776C96.7129 168.506 96.627 168.295 96.4551 168.144C96.2884 167.987 96.0384 167.909 95.7051 167.909C95.377 167.909 95.054 168.011 94.7363 168.214C94.4186 168.412 94.1348 168.698 93.8848 169.073C93.6348 169.443 93.4473 169.883 93.3223 170.394ZM101.58 175.487C101.038 175.487 100.564 175.44 100.158 175.347C99.7572 175.258 99.3952 175.128 99.0723 174.956V173.386C99.4056 173.584 99.7806 173.75 100.197 173.886C100.619 174.016 101.051 174.081 101.494 174.081C101.838 174.081 102.137 174.034 102.393 173.94C102.648 173.847 102.846 173.714 102.986 173.542C103.132 173.365 103.205 173.151 103.205 172.901C103.205 172.719 103.163 172.558 103.08 172.417C102.997 172.276 102.854 172.133 102.65 171.987C102.447 171.841 102.166 171.667 101.807 171.464C101.426 171.25 101.104 171.034 100.838 170.815C100.577 170.591 100.377 170.344 100.236 170.073C100.101 169.802 100.033 169.485 100.033 169.12C100.033 168.573 100.158 168.107 100.408 167.722C100.663 167.331 101.023 167.034 101.486 166.831C101.955 166.623 102.507 166.519 103.143 166.519C103.653 166.519 104.135 166.578 104.588 166.698C105.041 166.813 105.46 166.974 105.846 167.183L105.244 168.542C104.958 168.381 104.64 168.243 104.291 168.128C103.942 168.008 103.567 167.948 103.166 167.948C102.796 167.948 102.486 168.034 102.236 168.206C101.992 168.378 101.869 168.623 101.869 168.94C101.869 169.107 101.908 169.258 101.986 169.394C102.07 169.524 102.208 169.657 102.4 169.792C102.593 169.927 102.856 170.084 103.189 170.261C103.549 170.459 103.869 170.667 104.15 170.886C104.432 171.104 104.653 171.357 104.814 171.644C104.976 171.925 105.057 172.266 105.057 172.667C105.057 173.276 104.913 173.792 104.627 174.214C104.346 174.631 103.945 174.948 103.424 175.167C102.903 175.381 102.288 175.487 101.58 175.487ZM5.35352 197.487C4.73372 197.487 4.18164 197.373 3.69727 197.144C3.21289 196.914 2.83268 196.563 2.55664 196.089C2.2806 195.615 2.14258 195.011 2.14258 194.276C2.14258 193.657 2.20768 193.063 2.33789 192.495C2.47331 191.922 2.66862 191.396 2.92383 190.917C3.17904 190.433 3.49154 190.013 3.86133 189.659C4.23112 189.3 4.65299 189.021 5.12695 188.823C5.60091 188.62 6.12435 188.519 6.69727 188.519C7.14518 188.519 7.56445 188.563 7.95508 188.651C8.3457 188.735 8.70508 188.852 9.0332 189.003L8.48633 190.448C8.23633 190.334 7.9681 190.235 7.68164 190.151C7.40039 190.063 7.09049 190.019 6.75195 190.019C6.33008 190.019 5.94987 190.133 5.61133 190.362C5.27279 190.586 4.98372 190.896 4.74414 191.292C4.50456 191.683 4.31966 192.125 4.18945 192.62C4.06445 193.115 4.00195 193.633 4.00195 194.175C4.00195 194.56 4.06706 194.888 4.19727 195.159C4.32747 195.43 4.51497 195.638 4.75977 195.784C5.00977 195.925 5.30924 195.995 5.6582 195.995C6.04362 195.995 6.4056 195.94 6.74414 195.831C7.08268 195.716 7.42122 195.576 7.75977 195.409V196.925C7.43685 197.097 7.07747 197.232 6.68164 197.331C6.28581 197.435 5.8431 197.487 5.35352 197.487ZM12.0332 197.487C11.5905 197.487 11.1868 197.381 10.8223 197.167C10.4629 196.948 10.1764 196.615 9.96289 196.167C9.74935 195.714 9.64258 195.138 9.64258 194.44C9.64258 193.836 9.70508 193.248 9.83008 192.675C9.96029 192.102 10.1426 191.565 10.377 191.065C10.6165 190.565 10.9056 190.125 11.2441 189.745C11.5827 189.36 11.9655 189.06 12.3926 188.847C12.8197 188.628 13.2806 188.519 13.7754 188.519C14.1504 188.519 14.4785 188.584 14.7598 188.714C15.041 188.839 15.278 189.008 15.4707 189.222C15.6634 189.435 15.8197 189.672 15.9395 189.933H16.0098L16.4785 188.683H17.8848L16.0488 197.331H14.6504L14.8223 195.933H14.7598C14.5358 196.219 14.2858 196.479 14.0098 196.714C13.7389 196.948 13.4395 197.136 13.1113 197.276C12.7832 197.417 12.4238 197.487 12.0332 197.487ZM12.7051 195.995C13.0697 195.995 13.4186 195.86 13.752 195.589C14.0853 195.313 14.3796 194.948 14.6348 194.495C14.8952 194.042 15.0879 193.545 15.2129 193.003C15.2754 192.743 15.3171 192.495 15.3379 192.261C15.3639 192.026 15.377 191.792 15.377 191.558C15.377 191.104 15.2572 190.735 15.0176 190.448C14.778 190.162 14.4499 190.019 14.0332 190.019C13.7467 190.019 13.4733 190.099 13.2129 190.261C12.9577 190.422 12.7259 190.646 12.5176 190.933C12.3092 191.214 12.127 191.539 11.9707 191.909C11.8197 192.279 11.7025 192.677 11.6191 193.104C11.541 193.526 11.502 193.956 11.502 194.394C11.502 194.92 11.6061 195.318 11.8145 195.589C12.028 195.86 12.3249 195.995 12.7051 195.995ZM18.5566 197.331L20.3926 188.683H21.8223L21.6348 190.315H21.7207C21.9447 189.982 22.1868 189.68 22.4473 189.409C22.7129 189.138 23.0072 188.922 23.3301 188.761C23.653 188.599 24.0124 188.519 24.4082 188.519C24.5488 188.519 24.6947 188.529 24.8457 188.55C25.002 188.565 25.1374 188.589 25.252 188.62L24.8535 190.339C24.7389 190.308 24.6139 190.282 24.4785 190.261C24.3431 190.24 24.1999 190.229 24.0488 190.229C23.7051 190.229 23.3822 190.31 23.0801 190.472C22.778 190.633 22.5046 190.857 22.2598 191.144C22.015 191.43 21.804 191.766 21.627 192.151C21.4499 192.532 21.3118 192.946 21.2129 193.394L20.3848 197.331H18.5566ZM27.8535 197.487C27.4056 197.487 26.9993 197.381 26.6348 197.167C26.2754 196.953 25.9889 196.623 25.7754 196.175C25.5618 195.722 25.4551 195.141 25.4551 194.433C25.4551 193.839 25.515 193.258 25.6348 192.69C25.7598 192.118 25.9395 191.581 26.1738 191.081C26.4082 190.576 26.6947 190.133 27.0332 189.753C27.3717 189.368 27.7546 189.068 28.1816 188.854C28.6139 188.636 29.0827 188.526 29.5879 188.526C29.9629 188.526 30.2832 188.591 30.5488 188.722C30.8145 188.852 31.0384 189.024 31.2207 189.237C31.403 189.451 31.5566 189.683 31.6816 189.933H31.752C31.7676 189.797 31.7858 189.625 31.8066 189.417C31.8327 189.203 31.8639 188.974 31.9004 188.729C31.9368 188.479 31.9811 188.237 32.0332 188.003L32.6348 185.175H34.4551L31.877 197.331H30.4473L30.6191 195.933H30.5645C30.3353 196.224 30.0853 196.487 29.8145 196.722C29.5488 196.956 29.2546 197.144 28.9316 197.284C28.6087 197.42 28.2493 197.487 27.8535 197.487ZM28.5645 195.995C28.8092 195.995 29.0436 195.933 29.2676 195.808C29.4967 195.683 29.7077 195.511 29.9004 195.292C30.0983 195.068 30.278 194.813 30.4395 194.526C30.6009 194.235 30.7389 193.925 30.8535 193.597C30.9681 193.269 31.0566 192.935 31.1191 192.597C31.1816 192.258 31.2129 191.93 31.2129 191.612C31.2129 191.128 31.0957 190.743 30.8613 190.456C30.6322 190.164 30.2884 190.019 29.8301 190.019C29.5332 190.019 29.2572 190.102 29.002 190.269C28.7467 190.435 28.515 190.662 28.3066 190.948C28.0983 191.235 27.9186 191.565 27.7676 191.94C27.6217 192.31 27.5098 192.706 27.4316 193.128C27.3535 193.55 27.3145 193.972 27.3145 194.394C27.3145 194.92 27.4186 195.318 27.627 195.589C27.8405 195.86 28.153 195.995 28.5645 195.995ZM34.4629 197.331L36.2988 188.683H38.127L36.291 197.331H34.4629ZM37.6191 187.386C37.3483 187.386 37.1217 187.321 36.9395 187.19C36.7572 187.055 36.666 186.844 36.666 186.558C36.666 186.318 36.7103 186.11 36.7988 185.933C36.8926 185.756 37.0254 185.62 37.1973 185.526C37.3743 185.427 37.5853 185.378 37.8301 185.378C38.1009 185.378 38.3223 185.443 38.4941 185.573C38.666 185.698 38.752 185.901 38.752 186.183C38.752 186.547 38.6504 186.839 38.4473 187.058C38.2441 187.276 37.9681 187.386 37.6191 187.386ZM42.4941 197.472C41.8379 197.472 41.265 197.336 40.7754 197.065C40.2858 196.795 39.9056 196.412 39.6348 195.917C39.3691 195.417 39.2363 194.826 39.2363 194.144C39.2363 193.565 39.2962 193.003 39.416 192.456C39.541 191.909 39.7233 191.399 39.9629 190.925C40.2025 190.451 40.502 190.037 40.8613 189.683C41.2207 189.323 41.6374 189.045 42.1113 188.847C42.5853 188.644 43.1165 188.542 43.7051 188.542C44.377 188.542 44.9551 188.677 45.4395 188.948C45.9238 189.219 46.2962 189.607 46.5566 190.112C46.8171 190.618 46.9473 191.222 46.9473 191.925C46.9473 192.487 46.8874 193.037 46.7676 193.573C46.653 194.11 46.4785 194.615 46.2441 195.089C46.0098 195.558 45.7129 195.972 45.3535 196.331C44.9993 196.685 44.5827 196.964 44.1035 197.167C43.6296 197.37 43.0931 197.472 42.4941 197.472ZM42.627 195.972C42.9186 195.972 43.1895 195.907 43.4395 195.776C43.6947 195.641 43.9238 195.451 44.127 195.206C44.3301 194.956 44.502 194.662 44.6426 194.323C44.7884 193.979 44.9004 193.599 44.9785 193.183C45.0566 192.766 45.0957 192.321 45.0957 191.847C45.0957 191.529 45.0488 191.235 44.9551 190.964C44.8613 190.688 44.7051 190.466 44.4863 190.3C44.2728 190.128 43.9863 190.042 43.627 190.042C43.304 190.042 43.0072 190.12 42.7363 190.276C42.4707 190.427 42.2337 190.638 42.0254 190.909C41.8223 191.18 41.6504 191.493 41.5098 191.847C41.3691 192.196 41.2624 192.571 41.1895 192.972C41.1165 193.368 41.0801 193.769 41.0801 194.175C41.0801 194.753 41.2103 195.198 41.4707 195.511C41.7363 195.818 42.1217 195.972 42.627 195.972ZM49.5176 197.331L48.4629 188.683H50.2754L50.7129 193.433C50.7337 193.636 50.752 193.878 50.7676 194.159C50.7832 194.44 50.7962 194.716 50.8066 194.987C50.8223 195.253 50.8301 195.472 50.8301 195.644H50.8926C50.9811 195.43 51.0827 195.188 51.1973 194.917C51.3171 194.641 51.4368 194.373 51.5566 194.112C51.6764 193.847 51.7832 193.623 51.877 193.44L54.3535 188.683H56.3145L51.6191 197.331H49.5176ZM58.5957 197.487C58.153 197.487 57.7493 197.381 57.3848 197.167C57.0254 196.948 56.7389 196.615 56.5254 196.167C56.3118 195.714 56.2051 195.138 56.2051 194.44C56.2051 193.836 56.2676 193.248 56.3926 192.675C56.5228 192.102 56.7051 191.565 56.9395 191.065C57.179 190.565 57.4681 190.125 57.8066 189.745C58.1452 189.36 58.528 189.06 58.9551 188.847C59.3822 188.628 59.8431 188.519 60.3379 188.519C60.7129 188.519 61.041 188.584 61.3223 188.714C61.6035 188.839 61.8405 189.008 62.0332 189.222C62.2259 189.435 62.3822 189.672 62.502 189.933H62.5723L63.041 188.683H64.4473L62.6113 197.331H61.2129L61.3848 195.933H61.3223C61.0983 196.219 60.8483 196.479 60.5723 196.714C60.3014 196.948 60.002 197.136 59.6738 197.276C59.3457 197.417 58.9863 197.487 58.5957 197.487ZM59.2676 195.995C59.6322 195.995 59.9811 195.86 60.3145 195.589C60.6478 195.313 60.9421 194.948 61.1973 194.495C61.4577 194.042 61.6504 193.545 61.7754 193.003C61.8379 192.743 61.8796 192.495 61.9004 192.261C61.9264 192.026 61.9395 191.792 61.9395 191.558C61.9395 191.104 61.8197 190.735 61.5801 190.448C61.3405 190.162 61.0124 190.019 60.5957 190.019C60.3092 190.019 60.0358 190.099 59.7754 190.261C59.5202 190.422 59.2884 190.646 59.0801 190.933C58.8717 191.214 58.6895 191.539 58.5332 191.909C58.3822 192.279 58.265 192.677 58.1816 193.104C58.1035 193.526 58.0645 193.956 58.0645 194.394C58.0645 194.92 58.1686 195.318 58.377 195.589C58.5905 195.86 58.8874 195.995 59.2676 195.995ZM67.3926 197.487C66.8509 197.487 66.377 197.44 65.9707 197.347C65.5697 197.258 65.2077 197.128 64.8848 196.956V195.386C65.2181 195.584 65.5931 195.75 66.0098 195.886C66.4316 196.016 66.8639 196.081 67.3066 196.081C67.6504 196.081 67.9499 196.034 68.2051 195.94C68.4603 195.847 68.6582 195.714 68.7988 195.542C68.9447 195.365 69.0176 195.151 69.0176 194.901C69.0176 194.719 68.9759 194.558 68.8926 194.417C68.8092 194.276 68.666 194.133 68.4629 193.987C68.2598 193.841 67.9785 193.667 67.6191 193.464C67.2389 193.25 66.916 193.034 66.6504 192.815C66.39 192.591 66.1895 192.344 66.0488 192.073C65.9134 191.802 65.8457 191.485 65.8457 191.12C65.8457 190.573 65.9707 190.107 66.2207 189.722C66.4759 189.331 66.8353 189.034 67.2988 188.831C67.7676 188.623 68.3197 188.519 68.9551 188.519C69.4655 188.519 69.9473 188.578 70.4004 188.698C70.8535 188.813 71.2728 188.974 71.6582 189.183L71.0566 190.542C70.7702 190.381 70.4525 190.243 70.1035 190.128C69.7546 190.008 69.3796 189.948 68.9785 189.948C68.6087 189.948 68.2988 190.034 68.0488 190.206C67.804 190.378 67.6816 190.623 67.6816 190.94C67.6816 191.107 67.7207 191.258 67.7988 191.394C67.8822 191.524 68.0202 191.657 68.2129 191.792C68.4056 191.927 68.6686 192.084 69.002 192.261C69.3613 192.459 69.6816 192.667 69.9629 192.886C70.2441 193.104 70.4655 193.357 70.627 193.644C70.7884 193.925 70.8691 194.266 70.8691 194.667C70.8691 195.276 70.7259 195.792 70.4395 196.214C70.1582 196.631 69.7572 196.948 69.2363 197.167C68.7155 197.381 68.1009 197.487 67.3926 197.487ZM75.9316 197.487C75.3118 197.487 74.7598 197.373 74.2754 197.144C73.791 196.914 73.4108 196.563 73.1348 196.089C72.8587 195.615 72.7207 195.011 72.7207 194.276C72.7207 193.657 72.7858 193.063 72.916 192.495C73.0514 191.922 73.2467 191.396 73.502 190.917C73.7572 190.433 74.0697 190.013 74.4395 189.659C74.8092 189.3 75.2311 189.021 75.7051 188.823C76.179 188.62 76.7025 188.519 77.2754 188.519C77.7233 188.519 78.1426 188.563 78.5332 188.651C78.9238 188.735 79.2832 188.852 79.6113 189.003L79.0645 190.448C78.8145 190.334 78.5462 190.235 78.2598 190.151C77.9785 190.063 77.6686 190.019 77.3301 190.019C76.9082 190.019 76.528 190.133 76.1895 190.362C75.8509 190.586 75.5618 190.896 75.3223 191.292C75.0827 191.683 74.8978 192.125 74.7676 192.62C74.6426 193.115 74.5801 193.633 74.5801 194.175C74.5801 194.56 74.6452 194.888 74.7754 195.159C74.9056 195.43 75.0931 195.638 75.3379 195.784C75.5879 195.925 75.8874 195.995 76.2363 195.995C76.6217 195.995 76.9837 195.94 77.3223 195.831C77.6608 195.716 77.9993 195.576 78.3379 195.409V196.925C78.015 197.097 77.6556 197.232 77.2598 197.331C76.8639 197.435 76.4212 197.487 75.9316 197.487ZM82.5332 197.487C82.0697 197.487 81.6738 197.396 81.3457 197.214C81.0228 197.032 80.7754 196.769 80.6035 196.425C80.4368 196.076 80.3535 195.659 80.3535 195.175C80.3535 194.961 80.3691 194.727 80.4004 194.472C80.4368 194.211 80.4811 193.943 80.5332 193.667L81.5957 188.683H83.4238L82.3066 193.933C82.2702 194.136 82.2389 194.321 82.2129 194.487C82.1921 194.649 82.1816 194.797 82.1816 194.933C82.1816 195.282 82.2624 195.547 82.4238 195.729C82.5905 195.907 82.8483 195.995 83.1973 195.995C83.5723 195.995 83.9368 195.854 84.291 195.573C84.6504 195.287 84.9759 194.873 85.2676 194.331C85.5592 193.789 85.7858 193.136 85.9473 192.37L86.7285 188.683H88.541L86.7129 197.331H85.2754L85.4629 195.69H85.3848C85.1764 195.998 84.9342 196.289 84.6582 196.565C84.3822 196.836 84.0697 197.058 83.7207 197.229C83.3717 197.401 82.9759 197.487 82.5332 197.487ZM89.2988 197.331L91.8848 185.175H93.7051L91.127 197.331H89.2988ZM96.4707 197.487C96.028 197.487 95.6243 197.381 95.2598 197.167C94.9004 196.948 94.6139 196.615 94.4004 196.167C94.1868 195.714 94.0801 195.138 94.0801 194.44C94.0801 193.836 94.1426 193.248 94.2676 192.675C94.3978 192.102 94.5801 191.565 94.8145 191.065C95.054 190.565 95.3431 190.125 95.6816 189.745C96.0202 189.36 96.403 189.06 96.8301 188.847C97.2572 188.628 97.7181 188.519 98.2129 188.519C98.5879 188.519 98.916 188.584 99.1973 188.714C99.4785 188.839 99.7155 189.008 99.9082 189.222C100.101 189.435 100.257 189.672 100.377 189.933H100.447L100.916 188.683H102.322L100.486 197.331H99.0879L99.2598 195.933H99.1973C98.9733 196.219 98.7233 196.479 98.4473 196.714C98.1764 196.948 97.877 197.136 97.5488 197.276C97.2207 197.417 96.8613 197.487 96.4707 197.487ZM97.1426 195.995C97.5072 195.995 97.8561 195.86 98.1895 195.589C98.5228 195.313 98.8171 194.948 99.0723 194.495C99.3327 194.042 99.5254 193.545 99.6504 193.003C99.7129 192.743 99.7546 192.495 99.7754 192.261C99.8014 192.026 99.8145 191.792 99.8145 191.558C99.8145 191.104 99.6947 190.735 99.4551 190.448C99.2155 190.162 98.8874 190.019 98.4707 190.019C98.1842 190.019 97.9108 190.099 97.6504 190.261C97.3952 190.422 97.1634 190.646 96.9551 190.933C96.7467 191.214 96.5645 191.539 96.4082 191.909C96.2572 192.279 96.14 192.677 96.0566 193.104C95.9785 193.526 95.9395 193.956 95.9395 194.394C95.9395 194.92 96.0436 195.318 96.252 195.589C96.4655 195.86 96.7624 195.995 97.1426 195.995ZM102.994 197.331L104.83 188.683H106.26L106.072 190.315H106.158C106.382 189.982 106.624 189.68 106.885 189.409C107.15 189.138 107.445 188.922 107.768 188.761C108.09 188.599 108.45 188.519 108.846 188.519C108.986 188.519 109.132 188.529 109.283 188.55C109.439 188.565 109.575 188.589 109.689 188.62L109.291 190.339C109.176 190.308 109.051 190.282 108.916 190.261C108.781 190.24 108.637 190.229 108.486 190.229C108.143 190.229 107.82 190.31 107.518 190.472C107.215 190.633 106.942 190.857 106.697 191.144C106.452 191.43 106.242 191.766 106.064 192.151C105.887 192.532 105.749 192.946 105.65 193.394L104.822 197.331H102.994ZM113.174 197.487C112.512 197.487 111.934 197.362 111.439 197.112C110.95 196.857 110.57 196.485 110.299 195.995C110.033 195.5 109.9 194.896 109.9 194.183C109.9 193.474 110.002 192.784 110.205 192.112C110.408 191.435 110.708 190.826 111.104 190.284C111.499 189.743 111.981 189.313 112.549 188.995C113.117 188.677 113.762 188.519 114.486 188.519C115.372 188.519 116.036 188.719 116.479 189.12C116.926 189.516 117.15 190.042 117.15 190.698C117.15 191.146 117.049 191.555 116.846 191.925C116.643 192.295 116.333 192.615 115.916 192.886C115.505 193.151 114.981 193.357 114.346 193.503C113.715 193.649 112.973 193.722 112.119 193.722H111.768C111.762 193.8 111.757 193.881 111.752 193.964C111.747 194.042 111.744 194.12 111.744 194.198C111.744 194.776 111.895 195.232 112.197 195.565C112.499 195.894 112.939 196.058 113.518 196.058C113.955 196.058 114.359 196.003 114.729 195.894C115.098 195.784 115.512 195.62 115.971 195.401V196.847C115.549 197.05 115.122 197.209 114.689 197.323C114.257 197.433 113.752 197.487 113.174 197.487ZM111.994 192.394H112.26C112.895 192.394 113.447 192.334 113.916 192.214C114.385 192.089 114.747 191.907 115.002 191.667C115.257 191.422 115.385 191.125 115.385 190.776C115.385 190.506 115.299 190.295 115.127 190.144C114.96 189.987 114.71 189.909 114.377 189.909C114.049 189.909 113.726 190.011 113.408 190.214C113.09 190.412 112.807 190.698 112.557 191.073C112.307 191.443 112.119 191.883 111.994 192.394ZM120.252 197.487C119.71 197.487 119.236 197.44 118.83 197.347C118.429 197.258 118.067 197.128 117.744 196.956V195.386C118.077 195.584 118.452 195.75 118.869 195.886C119.291 196.016 119.723 196.081 120.166 196.081C120.51 196.081 120.809 196.034 121.064 195.94C121.32 195.847 121.518 195.714 121.658 195.542C121.804 195.365 121.877 195.151 121.877 194.901C121.877 194.719 121.835 194.558 121.752 194.417C121.669 194.276 121.525 194.133 121.322 193.987C121.119 193.841 120.838 193.667 120.479 193.464C120.098 193.25 119.775 193.034 119.51 192.815C119.249 192.591 119.049 192.344 118.908 192.073C118.773 191.802 118.705 191.485 118.705 191.12C118.705 190.573 118.83 190.107 119.08 189.722C119.335 189.331 119.695 189.034 120.158 188.831C120.627 188.623 121.179 188.519 121.814 188.519C122.325 188.519 122.807 188.578 123.26 188.698C123.713 188.813 124.132 188.974 124.518 189.183L123.916 190.542C123.63 190.381 123.312 190.243 122.963 190.128C122.614 190.008 122.239 189.948 121.838 189.948C121.468 189.948 121.158 190.034 120.908 190.206C120.663 190.378 120.541 190.623 120.541 190.94C120.541 191.107 120.58 191.258 120.658 191.394C120.742 191.524 120.88 191.657 121.072 191.792C121.265 191.927 121.528 192.084 121.861 192.261C122.221 192.459 122.541 192.667 122.822 192.886C123.104 193.104 123.325 193.357 123.486 193.644C123.648 193.925 123.729 194.266 123.729 194.667C123.729 195.276 123.585 195.792 123.299 196.214C123.018 196.631 122.617 196.948 122.096 197.167C121.575 197.381 120.96 197.487 120.252 197.487ZM1.19727 223.175C0.931641 223.175 0.715495 223.159 0.548828 223.128C0.376953 223.097 0.220703 223.06 0.0800781 223.019V221.558C0.220703 221.589 0.369141 221.615 0.525391 221.636C0.681641 221.662 0.853516 221.675 1.04102 221.675C1.50456 221.675 1.89258 221.534 2.20508 221.253C2.52279 220.977 2.81445 220.594 3.08008 220.104L3.47852 219.378L2.18164 210.683H3.99414L4.50977 214.901C4.54622 215.193 4.57487 215.506 4.5957 215.839C4.62174 216.172 4.63997 216.495 4.65039 216.808C4.66081 217.115 4.66602 217.375 4.66602 217.589H4.7207C4.79362 217.412 4.88477 217.188 4.99414 216.917C5.10352 216.646 5.22591 216.357 5.36133 216.05C5.49674 215.743 5.63216 215.456 5.76758 215.19L8.06445 210.683H10.041L4.64258 220.698C4.3457 221.25 4.02539 221.711 3.68164 222.081C3.3431 222.451 2.9707 222.724 2.56445 222.901C2.1582 223.084 1.70247 223.175 1.19727 223.175ZM16.541 219.487C16.0931 219.487 15.6868 219.381 15.3223 219.167C14.9629 218.953 14.6764 218.623 14.4629 218.175C14.2493 217.722 14.1426 217.141 14.1426 216.433C14.1426 215.839 14.2025 215.258 14.3223 214.69C14.4473 214.118 14.627 213.581 14.8613 213.081C15.0957 212.576 15.3822 212.133 15.7207 211.753C16.0592 211.368 16.4421 211.068 16.8691 210.854C17.3014 210.636 17.7702 210.526 18.2754 210.526C18.6504 210.526 18.9707 210.591 19.2363 210.722C19.502 210.852 19.7259 211.024 19.9082 211.237C20.0905 211.451 20.2441 211.683 20.3691 211.933H20.4395C20.4551 211.797 20.4733 211.625 20.4941 211.417C20.5202 211.203 20.5514 210.974 20.5879 210.729C20.6243 210.479 20.6686 210.237 20.7207 210.003L21.3223 207.175H23.1426L20.5645 219.331H19.1348L19.3066 217.933H19.252C19.0228 218.224 18.7728 218.487 18.502 218.722C18.2363 218.956 17.9421 219.144 17.6191 219.284C17.2962 219.42 16.9368 219.487 16.541 219.487ZM17.252 217.995C17.4967 217.995 17.7311 217.933 17.9551 217.808C18.1842 217.683 18.3952 217.511 18.5879 217.292C18.7858 217.068 18.9655 216.813 19.127 216.526C19.2884 216.235 19.4264 215.925 19.541 215.597C19.6556 215.269 19.7441 214.935 19.8066 214.597C19.8691 214.258 19.9004 213.93 19.9004 213.612C19.9004 213.128 19.7832 212.743 19.5488 212.456C19.3197 212.164 18.9759 212.019 18.5176 212.019C18.2207 212.019 17.9447 212.102 17.6895 212.269C17.4342 212.435 17.2025 212.662 16.9941 212.948C16.7858 213.235 16.6061 213.565 16.4551 213.94C16.3092 214.31 16.1973 214.706 16.1191 215.128C16.041 215.55 16.002 215.972 16.002 216.394C16.002 216.92 16.1061 217.318 16.3145 217.589C16.528 217.86 16.8405 217.995 17.252 217.995ZM26.7988 219.487C26.1374 219.487 25.5592 219.362 25.0645 219.112C24.5749 218.857 24.1947 218.485 23.9238 217.995C23.6582 217.5 23.5254 216.896 23.5254 216.183C23.5254 215.474 23.627 214.784 23.8301 214.112C24.0332 213.435 24.3327 212.826 24.7285 212.284C25.1243 211.743 25.6061 211.313 26.1738 210.995C26.7415 210.677 27.3874 210.519 28.1113 210.519C28.9967 210.519 29.6608 210.719 30.1035 211.12C30.5514 211.516 30.7754 212.042 30.7754 212.698C30.7754 213.146 30.6738 213.555 30.4707 213.925C30.2676 214.295 29.9577 214.615 29.541 214.886C29.1296 215.151 28.6061 215.357 27.9707 215.503C27.3405 215.649 26.5983 215.722 25.7441 215.722H25.3926C25.3874 215.8 25.3822 215.881 25.377 215.964C25.3717 216.042 25.3691 216.12 25.3691 216.198C25.3691 216.776 25.5202 217.232 25.8223 217.565C26.1243 217.894 26.5645 218.058 27.1426 218.058C27.5801 218.058 27.9837 218.003 28.3535 217.894C28.7233 217.784 29.1374 217.62 29.5957 217.401V218.847C29.1738 219.05 28.7467 219.209 28.3145 219.323C27.8822 219.433 27.377 219.487 26.7988 219.487ZM25.6191 214.394H25.8848C26.5202 214.394 27.0723 214.334 27.541 214.214C28.0098 214.089 28.3717 213.907 28.627 213.667C28.8822 213.422 29.0098 213.125 29.0098 212.776C29.0098 212.506 28.9238 212.295 28.752 212.144C28.5853 211.987 28.3353 211.909 28.002 211.909C27.6738 211.909 27.3509 212.011 27.0332 212.214C26.7155 212.412 26.4316 212.698 26.1816 213.073C25.9316 213.443 25.7441 213.883 25.6191 214.394ZM31.5957 219.331L34.1816 207.175H36.002L33.4238 219.331H31.5957ZM43.7441 219.487C43.1243 219.487 42.5723 219.373 42.0879 219.144C41.6035 218.914 41.2233 218.563 40.9473 218.089C40.6712 217.615 40.5332 217.011 40.5332 216.276C40.5332 215.657 40.5983 215.063 40.7285 214.495C40.8639 213.922 41.0592 213.396 41.3145 212.917C41.5697 212.433 41.8822 212.013 42.252 211.659C42.6217 211.3 43.0436 211.021 43.5176 210.823C43.9915 210.62 44.515 210.519 45.0879 210.519C45.5358 210.519 45.9551 210.563 46.3457 210.651C46.7363 210.735 47.0957 210.852 47.4238 211.003L46.877 212.448C46.627 212.334 46.3587 212.235 46.0723 212.151C45.791 212.063 45.4811 212.019 45.1426 212.019C44.7207 212.019 44.3405 212.133 44.002 212.362C43.6634 212.586 43.3743 212.896 43.1348 213.292C42.8952 213.683 42.7103 214.125 42.5801 214.62C42.4551 215.115 42.3926 215.633 42.3926 216.175C42.3926 216.56 42.4577 216.888 42.5879 217.159C42.7181 217.43 42.9056 217.638 43.1504 217.784C43.4004 217.925 43.6999 217.995 44.0488 217.995C44.4342 217.995 44.7962 217.94 45.1348 217.831C45.4733 217.716 45.8118 217.576 46.1504 217.409V218.925C45.8275 219.097 45.4681 219.232 45.0723 219.331C44.6764 219.435 44.2337 219.487 43.7441 219.487ZM51.291 219.472C50.6348 219.472 50.0618 219.336 49.5723 219.065C49.0827 218.795 48.7025 218.412 48.4316 217.917C48.166 217.417 48.0332 216.826 48.0332 216.144C48.0332 215.565 48.0931 215.003 48.2129 214.456C48.3379 213.909 48.5202 213.399 48.7598 212.925C48.9993 212.451 49.2988 212.037 49.6582 211.683C50.0176 211.323 50.4342 211.045 50.9082 210.847C51.3822 210.644 51.9134 210.542 52.502 210.542C53.1738 210.542 53.752 210.677 54.2363 210.948C54.7207 211.219 55.0931 211.607 55.3535 212.112C55.6139 212.618 55.7441 213.222 55.7441 213.925C55.7441 214.487 55.6842 215.037 55.5645 215.573C55.4499 216.11 55.2754 216.615 55.041 217.089C54.8066 217.558 54.5098 217.972 54.1504 218.331C53.7962 218.685 53.3796 218.964 52.9004 219.167C52.4264 219.37 51.89 219.472 51.291 219.472ZM51.4238 217.972C51.7155 217.972 51.9863 217.907 52.2363 217.776C52.4915 217.641 52.7207 217.451 52.9238 217.206C53.127 216.956 53.2988 216.662 53.4395 216.323C53.5853 215.979 53.6973 215.599 53.7754 215.183C53.8535 214.766 53.8926 214.321 53.8926 213.847C53.8926 213.529 53.8457 213.235 53.752 212.964C53.6582 212.688 53.502 212.466 53.2832 212.3C53.0697 212.128 52.7832 212.042 52.4238 212.042C52.1009 212.042 51.804 212.12 51.5332 212.276C51.2676 212.427 51.0306 212.638 50.8223 212.909C50.6191 213.18 50.4473 213.493 50.3066 213.847C50.166 214.196 50.0592 214.571 49.9863 214.972C49.9134 215.368 49.877 215.769 49.877 216.175C49.877 216.753 50.0072 217.198 50.2676 217.511C50.5332 217.818 50.9186 217.972 51.4238 217.972ZM56.8535 219.331L58.6895 210.683H60.1191L59.9316 212.315H60.0176C60.2415 211.982 60.4837 211.68 60.7441 211.409C61.0098 211.138 61.304 210.922 61.627 210.761C61.9499 210.599 62.3092 210.519 62.7051 210.519C62.8457 210.519 62.9915 210.529 63.1426 210.55C63.2988 210.565 63.4342 210.589 63.5488 210.62L63.1504 212.339C63.0358 212.308 62.9108 212.282 62.7754 212.261C62.64 212.24 62.4967 212.229 62.3457 212.229C62.002 212.229 61.679 212.31 61.377 212.472C61.0749 212.633 60.8014 212.857 60.5566 213.144C60.3118 213.43 60.1009 213.766 59.9238 214.151C59.7467 214.532 59.6087 214.946 59.5098 215.394L58.6816 219.331H56.8535ZM66.1426 219.487C65.6999 219.487 65.2962 219.381 64.9316 219.167C64.5723 218.948 64.2858 218.615 64.0723 218.167C63.8587 217.714 63.752 217.138 63.752 216.44C63.752 215.836 63.8145 215.248 63.9395 214.675C64.0697 214.102 64.252 213.565 64.4863 213.065C64.7259 212.565 65.015 212.125 65.3535 211.745C65.6921 211.36 66.0749 211.06 66.502 210.847C66.929 210.628 67.39 210.519 67.8848 210.519C68.2598 210.519 68.5879 210.584 68.8691 210.714C69.1504 210.839 69.3874 211.008 69.5801 211.222C69.7728 211.435 69.929 211.672 70.0488 211.933H70.1191L70.5879 210.683H71.9941L70.1582 219.331H68.7598L68.9316 217.933H68.8691C68.6452 218.219 68.3952 218.479 68.1191 218.714C67.8483 218.948 67.5488 219.136 67.2207 219.276C66.8926 219.417 66.5332 219.487 66.1426 219.487ZM66.8145 217.995C67.179 217.995 67.528 217.86 67.8613 217.589C68.1947 217.313 68.4889 216.948 68.7441 216.495C69.0046 216.042 69.1973 215.545 69.3223 215.003C69.3848 214.743 69.4264 214.495 69.4473 214.261C69.4733 214.026 69.4863 213.792 69.4863 213.558C69.4863 213.104 69.3665 212.735 69.127 212.448C68.8874 212.162 68.5592 212.019 68.1426 212.019C67.8561 212.019 67.5827 212.099 67.3223 212.261C67.0671 212.422 66.8353 212.646 66.627 212.933C66.4186 213.214 66.2363 213.539 66.0801 213.909C65.929 214.279 65.8118 214.677 65.7285 215.104C65.6504 215.526 65.6113 215.956 65.6113 216.394C65.6113 216.92 65.7155 217.318 65.9238 217.589C66.1374 217.86 66.4342 217.995 66.8145 217.995ZM71.9863 219.331L72.2129 218.183L77.1895 212.081H73.752L74.0488 210.683H79.5801L79.3066 211.979L74.416 217.925H78.2207L77.9316 219.331H71.9863ZM83.4941 219.472C82.8379 219.472 82.265 219.336 81.7754 219.065C81.2858 218.795 80.9056 218.412 80.6348 217.917C80.3691 217.417 80.2363 216.826 80.2363 216.144C80.2363 215.565 80.2962 215.003 80.416 214.456C80.541 213.909 80.7233 213.399 80.9629 212.925C81.2025 212.451 81.502 212.037 81.8613 211.683C82.2207 211.323 82.6374 211.045 83.1113 210.847C83.5853 210.644 84.1165 210.542 84.7051 210.542C85.377 210.542 85.9551 210.677 86.4395 210.948C86.9238 211.219 87.2962 211.607 87.5566 212.112C87.8171 212.618 87.9473 213.222 87.9473 213.925C87.9473 214.487 87.8874 215.037 87.7676 215.573C87.653 216.11 87.4785 216.615 87.2441 217.089C87.0098 217.558 86.7129 217.972 86.3535 218.331C85.9993 218.685 85.5827 218.964 85.1035 219.167C84.6296 219.37 84.0931 219.472 83.4941 219.472ZM83.627 217.972C83.9186 217.972 84.1895 217.907 84.4395 217.776C84.6947 217.641 84.9238 217.451 85.127 217.206C85.3301 216.956 85.502 216.662 85.6426 216.323C85.7884 215.979 85.9004 215.599 85.9785 215.183C86.0566 214.766 86.0957 214.321 86.0957 213.847C86.0957 213.529 86.0488 213.235 85.9551 212.964C85.8613 212.688 85.7051 212.466 85.4863 212.3C85.2728 212.128 84.9863 212.042 84.627 212.042C84.304 212.042 84.0072 212.12 83.7363 212.276C83.4707 212.427 83.2337 212.638 83.0254 212.909C82.8223 213.18 82.6504 213.493 82.5098 213.847C82.3691 214.196 82.2624 214.571 82.1895 214.972C82.1165 215.368 82.0801 215.769 82.0801 216.175C82.0801 216.753 82.2103 217.198 82.4707 217.511C82.7363 217.818 83.1217 217.972 83.627 217.972ZM83.9941 209.636V209.44C84.1764 209.237 84.3743 208.998 84.5879 208.722C84.8066 208.446 85.0202 208.164 85.2285 207.878C85.4368 207.586 85.6191 207.318 85.7754 207.073H87.8223V207.214C87.7077 207.36 87.5462 207.539 87.3379 207.753C87.1348 207.966 86.9056 208.19 86.6504 208.425C86.4004 208.659 86.1504 208.883 85.9004 209.097C85.6504 209.305 85.4212 209.485 85.2129 209.636H83.9941ZM89.0254 219.331L90.8691 210.659H92.3457L92.1582 212.292H92.2051C92.4134 211.985 92.6556 211.696 92.9316 211.425C93.2077 211.149 93.5202 210.925 93.8691 210.753C94.2233 210.581 94.6191 210.495 95.0566 210.495C95.5358 210.495 95.9421 210.589 96.2754 210.776C96.6087 210.964 96.8613 211.232 97.0332 211.581C97.2051 211.93 97.291 212.347 97.291 212.831C97.291 213.045 97.2728 213.274 97.2363 213.519C97.2051 213.758 97.1634 213.993 97.1113 214.222L96.0254 219.331H94.1582L95.2676 214.073C95.3145 213.87 95.3483 213.688 95.3691 213.526C95.3952 213.365 95.4082 213.214 95.4082 213.073C95.4082 212.729 95.3223 212.472 95.1504 212.3C94.9837 212.128 94.7337 212.042 94.4004 212.042C94.0358 212.042 93.6764 212.183 93.3223 212.464C92.9681 212.745 92.6478 213.154 92.3613 213.69C92.0749 214.227 91.8483 214.875 91.6816 215.636L90.9004 219.331H89.0254Z" fill="black"/>
</svg>
