<svg width="126" height="181" viewBox="0 0 126 181" fill="none" xmlns="http://www.w3.org/2000/svg">
<path d="M109.165 47.8193C109.4 45.4687 108.721 43.1011 107.252 41.1523C105.783 39.2036 103.694 37.8984 101.37 37.4765C98.999 37.0449 96.6729 37.5815 94.8135 38.9819C93.442 40.0158 92.4943 41.4136 91.9788 42.9655C90.3925 42.557 88.7386 42.3349 87.0361 42.3349C75.4404 42.3349 66.0068 52.3789 66.0068 64.7241C66.0068 77.0688 75.4404 87.1128 87.0361 87.1128C98.6318 87.1128 108.065 77.0688 108.065 64.7241C108.065 60.8331 107.127 57.1718 105.48 53.9805C105.623 53.886 105.775 53.81 105.913 53.706C107.771 52.3057 108.926 50.2148 109.165 47.8193ZM87.0361 45.3349C94.3029 45.3349 100.564 49.9918 103.415 56.668H90.2725C87.0469 56.668 84.1191 54.8911 82.6309 52.0312C82.3994 51.5869 81.9609 51.2871 81.4639 51.2324C80.9697 51.1792 80.4727 51.3755 80.1514 51.7588L78.6104 53.5937C76.9688 55.5473 74.5645 56.668 72.0127 56.668H70.6575C73.5087 49.9918 79.7693 45.3349 87.0361 45.3349ZM87.0361 84.1128C77.0947 84.1128 69.0068 75.4155 69.0068 64.7241C69.0068 62.9726 69.2435 61.283 69.6502 59.668H72.0127C75.4531 59.668 78.6953 58.1572 80.9072 55.5234L81.1445 55.2407C83.3213 58.0132 86.6582 59.668 90.2725 59.668H104.422C104.829 61.283 105.065 62.9726 105.065 64.7241C105.065 75.4155 96.9775 84.1128 87.0361 84.1128ZM104.106 51.3105C104.053 51.3511 103.995 51.3846 103.94 51.4228C101.63 48.1039 98.4778 45.4903 94.8245 43.9335C95.1541 42.9343 95.7458 42.0356 96.6191 41.3774C97.5312 40.6909 98.6299 40.333 99.7891 40.333C100.134 40.333 100.482 40.3647 100.834 40.4282C102.414 40.7148 103.843 41.6133 104.855 42.958C105.869 44.3027 106.34 45.9228 106.18 47.521C106.025 49.0737 105.289 50.4199 104.106 51.3105ZM82.3141 66.279C82.3141 67.5354 81.2921 68.5574 80.0363 68.5574C78.7804 68.5574 77.7584 67.5354 77.7584 66.279C77.7584 65.0232 78.7804 64.0017 80.0363 64.0017C81.2921 64.0017 82.3141 65.0232 82.3141 66.279ZM96.3141 66.279C96.3141 67.5354 95.2921 68.5574 94.0363 68.5574C92.7804 68.5574 91.7584 67.5354 91.7584 66.279C91.7584 65.0232 92.7804 64.0017 94.0363 64.0017C95.2921 64.0017 96.3141 65.0232 96.3141 66.279ZM92.2588 73.7153C92.2588 75.6626 90.0625 77.0766 87.0361 77.0766C84.0107 77.0766 81.8145 75.6626 81.8145 73.7153C81.8145 72.8872 82.4863 72.2153 83.3145 72.2153C84.0762 72.2153 84.7061 72.7837 84.8018 73.52C85.0244 73.7056 85.792 74.0766 87.0361 74.0766C88.2803 74.0766 89.0488 73.7056 89.2715 73.52C89.3672 72.7837 89.9971 72.2153 90.7588 72.2153C91.5869 72.2153 92.2588 72.8872 92.2588 73.7153ZM38.3296 42.3349C26.7339 42.3349 17.2998 52.3789 17.2998 64.7241C17.2998 77.0688 26.7339 87.1128 38.3296 87.1128C49.9253 87.1128 59.3589 77.0688 59.3589 64.7241C59.3589 52.3789 49.9253 42.3349 38.3296 42.3349ZM56.3589 64.7241C56.3589 75.4155 48.271 84.1128 38.3296 84.1128C28.3877 84.1128 20.2998 75.4155 20.2998 64.7241C20.2998 62.9726 20.5364 61.283 20.9432 59.668H35.0938C38.707 59.668 42.0444 58.0132 44.2212 55.2402L44.459 55.5234C46.6714 58.1572 49.9131 59.668 53.353 59.668H55.7155C56.1223 61.283 56.3589 62.9726 56.3589 64.7241ZM53.353 56.668C50.8013 56.668 48.397 55.5473 46.7559 53.5937L45.2144 51.7588C44.8926 51.3755 44.4014 51.1797 43.9023 51.2324C43.4043 51.2871 42.9668 51.5869 42.7354 52.0307C41.2466 54.8911 38.3184 56.668 35.0938 56.668H33.0859C33.8733 55.9537 34.5781 55.1345 35.1597 54.2021C35.5981 53.499 35.3838 52.5737 34.6812 52.1357C33.979 51.6968 33.0537 51.9116 32.6147 52.6142C31.0312 55.1523 28.2988 56.668 25.3057 56.668H21.9504C24.8017 49.9918 31.0624 45.3349 38.3296 45.3349C45.5964 45.3349 51.857 49.9918 54.7083 56.668H53.353ZM47.6074 66.279C47.6074 67.5354 46.5855 68.5574 45.3296 68.5574C44.0737 68.5574 43.0518 67.5354 43.0518 66.279C43.0518 65.0232 44.0737 64.0017 45.3296 64.0017C46.5855 64.0017 47.6074 65.0232 47.6074 66.279ZM33.6074 66.279C33.6074 67.5354 32.5854 68.5574 31.3296 68.5574C30.0737 68.5574 29.0518 67.5354 29.0518 66.279C29.0518 65.0232 30.0737 64.0017 31.3296 64.0017C32.5854 64.0017 33.6074 65.0232 33.6074 66.279ZM43.5518 73.7153C43.5518 75.6626 41.3555 77.0766 38.3296 77.0766C35.3037 77.0766 33.1074 75.6626 33.1074 73.7153C33.1074 72.8872 33.7788 72.2153 34.6074 72.2153C35.3696 72.2153 35.999 72.7837 36.0947 73.52C36.3169 73.7056 37.0854 74.0766 38.3296 74.0766C39.5737 74.0766 40.3423 73.7056 40.5645 73.52C40.6602 72.7837 41.2896 72.2153 42.0518 72.2153C42.8804 72.2153 43.5518 72.8872 43.5518 73.7153Z" fill="black"/>
<rect x="2.7998" y="1.83105" width="121" height="121" rx="6.5" stroke="black" stroke-width="3"/>
<path d="M36.8623 153.331L39.2764 141.909H41.3623L44.5029 150.894H44.5498C44.5863 150.654 44.6331 150.36 44.6904 150.011C44.7477 149.657 44.8128 149.289 44.8857 148.909C44.9587 148.529 45.029 148.177 45.0967 147.854L46.3623 141.909H48.0576L45.6436 153.331H43.6123L40.4014 144.214H40.3467C40.3311 144.334 40.305 144.516 40.2686 144.761C40.2321 145 40.1878 145.276 40.1357 145.589C40.0889 145.901 40.0368 146.219 39.9795 146.542C39.9222 146.865 39.8623 147.164 39.7998 147.44L38.5576 153.331H36.8623ZM48.3701 153.331L50.2061 144.683H52.0342L50.1982 153.331H48.3701ZM51.5264 143.386C51.2555 143.386 51.029 143.321 50.8467 143.19C50.6644 143.055 50.5732 142.844 50.5732 142.558C50.5732 142.318 50.6175 142.11 50.7061 141.933C50.7998 141.756 50.9326 141.62 51.1045 141.526C51.2816 141.427 51.4925 141.378 51.7373 141.378C52.0081 141.378 52.2295 141.443 52.4014 141.573C52.5732 141.698 52.6592 141.901 52.6592 142.183C52.6592 142.547 52.5576 142.839 52.3545 143.058C52.1514 143.276 51.8753 143.386 51.5264 143.386ZM52.7451 153.331L54.5889 144.659H56.0654L55.8779 146.292H55.9248C56.1331 145.985 56.3753 145.696 56.6514 145.425C56.9274 145.149 57.2399 144.925 57.5889 144.753C57.943 144.581 58.3389 144.495 58.7764 144.495C59.2555 144.495 59.6618 144.589 59.9951 144.776C60.3285 144.964 60.5811 145.232 60.7529 145.581C60.9248 145.93 61.0107 146.347 61.0107 146.831C61.0107 147.045 60.9925 147.274 60.9561 147.519C60.9248 147.758 60.8831 147.993 60.8311 148.222L59.7451 153.331H57.8779L58.9873 148.073C59.0342 147.87 59.068 147.688 59.0889 147.526C59.1149 147.365 59.1279 147.214 59.1279 147.073C59.1279 146.729 59.042 146.472 58.8701 146.3C58.7035 146.128 58.4535 146.042 58.1201 146.042C57.7555 146.042 57.3962 146.183 57.042 146.464C56.6878 146.745 56.3675 147.154 56.0811 147.69C55.7946 148.227 55.568 148.875 55.4014 149.636L54.6201 153.331H52.7451ZM55.3936 143.628C55.4925 143.133 55.6357 142.724 55.8232 142.401C56.0107 142.073 56.2347 141.828 56.4951 141.667C56.7607 141.506 57.0602 141.425 57.3936 141.425C57.6383 141.425 57.8623 141.469 58.0654 141.558C58.2738 141.641 58.4639 141.74 58.6357 141.854C58.8128 141.969 58.9795 142.071 59.1357 142.159C59.292 142.243 59.4456 142.284 59.5967 142.284C59.7998 142.284 59.9665 142.216 60.0967 142.081C60.2269 141.946 60.3545 141.722 60.4795 141.409H61.5498C61.4352 141.909 61.2816 142.323 61.0889 142.651C60.8962 142.979 60.667 143.224 60.4014 143.386C60.141 143.542 59.8441 143.62 59.5107 143.62C59.2764 143.62 59.0602 143.576 58.8623 143.487C58.6696 143.399 58.4873 143.297 58.3154 143.183C58.1436 143.068 57.9743 142.969 57.8076 142.886C57.6462 142.797 57.4795 142.753 57.3076 142.753C57.1149 142.753 56.9508 142.826 56.8154 142.972C56.6852 143.118 56.5706 143.336 56.4717 143.628H55.3936ZM65.8545 153.472C65.1982 153.472 64.6253 153.336 64.1357 153.065C63.6462 152.795 63.266 152.412 62.9951 151.917C62.7295 151.417 62.5967 150.826 62.5967 150.144C62.5967 149.565 62.6566 149.003 62.7764 148.456C62.9014 147.909 63.0837 147.399 63.3232 146.925C63.5628 146.451 63.8623 146.037 64.2217 145.683C64.5811 145.323 64.9977 145.045 65.4717 144.847C65.9456 144.644 66.4769 144.542 67.0654 144.542C67.7373 144.542 68.3154 144.677 68.7998 144.948C69.2842 145.219 69.6566 145.607 69.917 146.112C70.1774 146.618 70.3076 147.222 70.3076 147.925C70.3076 148.487 70.2477 149.037 70.1279 149.573C70.0133 150.11 69.8389 150.615 69.6045 151.089C69.3701 151.558 69.0732 151.972 68.7139 152.331C68.3597 152.685 67.943 152.964 67.4639 153.167C66.9899 153.37 66.4535 153.472 65.8545 153.472ZM65.9873 151.972C66.279 151.972 66.5498 151.907 66.7998 151.776C67.055 151.641 67.2842 151.451 67.4873 151.206C67.6904 150.956 67.8623 150.662 68.0029 150.323C68.1488 149.979 68.2607 149.599 68.3389 149.183C68.417 148.766 68.4561 148.321 68.4561 147.847C68.4561 147.529 68.4092 147.235 68.3154 146.964C68.2217 146.688 68.0654 146.466 67.8467 146.3C67.6331 146.128 67.3467 146.042 66.9873 146.042C66.6644 146.042 66.3675 146.12 66.0967 146.276C65.8311 146.427 65.5941 146.638 65.3857 146.909C65.1826 147.18 65.0107 147.493 64.8701 147.847C64.7295 148.196 64.6227 148.571 64.5498 148.972C64.4769 149.368 64.4404 149.769 64.4404 150.175C64.4404 150.753 64.5706 151.198 64.8311 151.511C65.0967 151.818 65.4821 151.972 65.9873 151.972ZM73.6904 153.487C73.1488 153.487 72.6748 153.44 72.2686 153.347C71.8675 153.258 71.5055 153.128 71.1826 152.956V151.386C71.516 151.584 71.891 151.75 72.3076 151.886C72.7295 152.016 73.1618 152.081 73.6045 152.081C73.9482 152.081 74.2477 152.034 74.5029 151.94C74.7581 151.847 74.9561 151.714 75.0967 151.542C75.2425 151.365 75.3154 151.151 75.3154 150.901C75.3154 150.719 75.2738 150.558 75.1904 150.417C75.1071 150.276 74.9639 150.133 74.7607 149.987C74.5576 149.841 74.2764 149.667 73.917 149.464C73.5368 149.25 73.2139 149.034 72.9482 148.815C72.6878 148.591 72.4873 148.344 72.3467 148.073C72.2113 147.802 72.1436 147.485 72.1436 147.12C72.1436 146.573 72.2686 146.107 72.5186 145.722C72.7738 145.331 73.1331 145.034 73.5967 144.831C74.0654 144.623 74.6175 144.519 75.2529 144.519C75.7633 144.519 76.2451 144.578 76.6982 144.698C77.1514 144.813 77.5706 144.974 77.9561 145.183L77.3545 146.542C77.068 146.381 76.7503 146.243 76.4014 146.128C76.0524 146.008 75.6774 145.948 75.2764 145.948C74.9066 145.948 74.5967 146.034 74.3467 146.206C74.1019 146.378 73.9795 146.623 73.9795 146.94C73.9795 147.107 74.0186 147.258 74.0967 147.394C74.18 147.524 74.318 147.657 74.5107 147.792C74.7035 147.927 74.9665 148.084 75.2998 148.261C75.6592 148.459 75.9795 148.667 76.2607 148.886C76.542 149.104 76.7633 149.357 76.9248 149.644C77.0863 149.925 77.167 150.266 77.167 150.667C77.167 151.276 77.0238 151.792 76.7373 152.214C76.4561 152.631 76.055 152.948 75.5342 153.167C75.0133 153.381 74.3988 153.487 73.6904 153.487ZM82.2295 157.175C81.9639 157.175 81.7477 157.159 81.5811 157.128C81.4092 157.097 81.2529 157.06 81.1123 157.019V155.558C81.2529 155.589 81.4014 155.615 81.5576 155.636C81.7139 155.662 81.8857 155.675 82.0732 155.675C82.5368 155.675 82.9248 155.534 83.2373 155.253C83.555 154.977 83.8467 154.594 84.1123 154.104L84.5107 153.378L83.2139 144.683H85.0264L85.542 148.901C85.5785 149.193 85.6071 149.506 85.6279 149.839C85.654 150.172 85.6722 150.495 85.6826 150.808C85.693 151.115 85.6982 151.375 85.6982 151.589H85.7529C85.8258 151.412 85.917 151.188 86.0264 150.917C86.1357 150.646 86.2581 150.357 86.3936 150.05C86.529 149.743 86.6644 149.456 86.7998 149.19L89.0967 144.683H91.0732L85.6748 154.698C85.3779 155.25 85.0576 155.711 84.7139 156.081C84.3753 156.451 84.0029 156.724 83.5967 156.901C83.1904 157.084 82.7347 157.175 82.2295 157.175ZM18.9561 175.487C18.5133 175.487 18.1097 175.381 17.7451 175.167C17.3857 174.948 17.0993 174.615 16.8857 174.167C16.6722 173.714 16.5654 173.138 16.5654 172.44C16.5654 171.836 16.6279 171.248 16.7529 170.675C16.8831 170.102 17.0654 169.565 17.2998 169.065C17.5394 168.565 17.8285 168.125 18.167 167.745C18.5055 167.36 18.8883 167.06 19.3154 166.847C19.7425 166.628 20.2035 166.519 20.6982 166.519C21.0732 166.519 21.4014 166.584 21.6826 166.714C21.9639 166.839 22.2008 167.008 22.3936 167.222C22.5863 167.435 22.7425 167.672 22.8623 167.933H22.9326L23.4014 166.683H24.8076L22.9717 175.331H21.5732L21.7451 173.933H21.6826C21.4587 174.219 21.2087 174.479 20.9326 174.714C20.6618 174.948 20.3623 175.136 20.0342 175.276C19.7061 175.417 19.3467 175.487 18.9561 175.487ZM19.6279 173.995C19.9925 173.995 20.3415 173.86 20.6748 173.589C21.0081 173.313 21.3024 172.948 21.5576 172.495C21.818 172.042 22.0107 171.545 22.1357 171.003C22.1982 170.743 22.2399 170.495 22.2607 170.261C22.2868 170.026 22.2998 169.792 22.2998 169.558C22.2998 169.104 22.18 168.735 21.9404 168.448C21.7008 168.162 21.3727 168.019 20.9561 168.019C20.6696 168.019 20.3962 168.099 20.1357 168.261C19.8805 168.422 19.6488 168.646 19.4404 168.933C19.2321 169.214 19.0498 169.539 18.8936 169.909C18.7425 170.279 18.6253 170.677 18.542 171.104C18.4639 171.526 18.4248 171.956 18.4248 172.394C18.4248 172.92 18.529 173.318 18.7373 173.589C18.9508 173.86 19.2477 173.995 19.6279 173.995ZM28.2451 175.487C27.7972 175.487 27.391 175.381 27.0264 175.167C26.667 174.953 26.3805 174.623 26.167 174.175C25.9535 173.722 25.8467 173.141 25.8467 172.433C25.8467 171.839 25.9066 171.258 26.0264 170.69C26.1514 170.118 26.3311 169.581 26.5654 169.081C26.7998 168.576 27.0863 168.133 27.4248 167.753C27.7633 167.368 28.1462 167.068 28.5732 166.854C29.0055 166.636 29.4743 166.526 29.9795 166.526C30.3545 166.526 30.6748 166.591 30.9404 166.722C31.2061 166.852 31.43 167.024 31.6123 167.237C31.7946 167.451 31.9482 167.683 32.0732 167.933H32.1436C32.1592 167.797 32.1774 167.625 32.1982 167.417C32.2243 167.203 32.2555 166.974 32.292 166.729C32.3285 166.479 32.3727 166.237 32.4248 166.003L33.0264 163.175H34.8467L32.2686 175.331H30.8389L31.0107 173.933H30.9561C30.7269 174.224 30.4769 174.487 30.2061 174.722C29.9404 174.956 29.6462 175.144 29.3232 175.284C29.0003 175.42 28.641 175.487 28.2451 175.487ZM28.9561 173.995C29.2008 173.995 29.4352 173.933 29.6592 173.808C29.8883 173.683 30.0993 173.511 30.292 173.292C30.4899 173.068 30.6696 172.813 30.8311 172.526C30.9925 172.235 31.1305 171.925 31.2451 171.597C31.3597 171.269 31.4482 170.935 31.5107 170.597C31.5732 170.258 31.6045 169.93 31.6045 169.612C31.6045 169.128 31.4873 168.743 31.2529 168.456C31.0238 168.164 30.68 168.019 30.2217 168.019C29.9248 168.019 29.6488 168.102 29.3936 168.269C29.1383 168.435 28.9066 168.662 28.6982 168.948C28.4899 169.235 28.3102 169.565 28.1592 169.94C28.0133 170.31 27.9014 170.706 27.8232 171.128C27.7451 171.55 27.7061 171.972 27.7061 172.394C27.7061 172.92 27.8102 173.318 28.0186 173.589C28.2321 173.86 28.5446 173.995 28.9561 173.995ZM38.4795 175.472C37.8232 175.472 37.2503 175.336 36.7607 175.065C36.2712 174.795 35.891 174.412 35.6201 173.917C35.3545 173.417 35.2217 172.826 35.2217 172.144C35.2217 171.565 35.2816 171.003 35.4014 170.456C35.5264 169.909 35.7087 169.399 35.9482 168.925C36.1878 168.451 36.4873 168.037 36.8467 167.683C37.2061 167.323 37.6227 167.045 38.0967 166.847C38.5706 166.644 39.1019 166.542 39.6904 166.542C40.3623 166.542 40.9404 166.677 41.4248 166.948C41.9092 167.219 42.2816 167.607 42.542 168.112C42.8024 168.618 42.9326 169.222 42.9326 169.925C42.9326 170.487 42.8727 171.037 42.7529 171.573C42.6383 172.11 42.4639 172.615 42.2295 173.089C41.9951 173.558 41.6982 173.972 41.3389 174.331C40.9847 174.685 40.568 174.964 40.0889 175.167C39.6149 175.37 39.0785 175.472 38.4795 175.472ZM38.6123 173.972C38.904 173.972 39.1748 173.907 39.4248 173.776C39.68 173.641 39.9092 173.451 40.1123 173.206C40.3154 172.956 40.4873 172.662 40.6279 172.323C40.7738 171.979 40.8857 171.599 40.9639 171.183C41.042 170.766 41.0811 170.321 41.0811 169.847C41.0811 169.529 41.0342 169.235 40.9404 168.964C40.8467 168.688 40.6904 168.466 40.4717 168.3C40.2581 168.128 39.9717 168.042 39.6123 168.042C39.2894 168.042 38.9925 168.12 38.7217 168.276C38.4561 168.427 38.2191 168.638 38.0107 168.909C37.8076 169.18 37.6357 169.493 37.4951 169.847C37.3545 170.196 37.2477 170.571 37.1748 170.972C37.1019 171.368 37.0654 171.769 37.0654 172.175C37.0654 172.753 37.1956 173.198 37.4561 173.511C37.7217 173.818 38.1071 173.972 38.6123 173.972ZM44.0342 175.331L46.6201 163.175H48.4404L45.8623 175.331H44.0342ZM52.0967 175.487C51.4352 175.487 50.8571 175.362 50.3623 175.112C49.8727 174.857 49.4925 174.485 49.2217 173.995C48.9561 173.5 48.8232 172.896 48.8232 172.183C48.8232 171.474 48.9248 170.784 49.1279 170.112C49.3311 169.435 49.6305 168.826 50.0264 168.284C50.4222 167.743 50.904 167.313 51.4717 166.995C52.0394 166.677 52.6852 166.519 53.4092 166.519C54.2946 166.519 54.9587 166.719 55.4014 167.12C55.8493 167.516 56.0732 168.042 56.0732 168.698C56.0732 169.146 55.9717 169.555 55.7686 169.925C55.5654 170.295 55.2555 170.615 54.8389 170.886C54.4274 171.151 53.904 171.357 53.2686 171.503C52.6383 171.649 51.8962 171.722 51.042 171.722H50.6904C50.6852 171.8 50.68 171.881 50.6748 171.964C50.6696 172.042 50.667 172.12 50.667 172.198C50.667 172.776 50.818 173.232 51.1201 173.565C51.4222 173.894 51.8623 174.058 52.4404 174.058C52.8779 174.058 53.2816 174.003 53.6514 173.894C54.0212 173.784 54.4352 173.62 54.8936 173.401V174.847C54.4717 175.05 54.0446 175.209 53.6123 175.323C53.18 175.433 52.6748 175.487 52.0967 175.487ZM50.917 170.394H51.1826C51.818 170.394 52.3701 170.334 52.8389 170.214C53.3076 170.089 53.6696 169.907 53.9248 169.667C54.18 169.422 54.3076 169.125 54.3076 168.776C54.3076 168.506 54.2217 168.295 54.0498 168.144C53.8831 167.987 53.6331 167.909 53.2998 167.909C52.9717 167.909 52.6488 168.011 52.3311 168.214C52.0133 168.412 51.7295 168.698 51.4795 169.073C51.2295 169.443 51.042 169.883 50.917 170.394ZM59.1748 175.487C58.6331 175.487 58.1592 175.44 57.7529 175.347C57.3519 175.258 56.9899 175.128 56.667 174.956V173.386C57.0003 173.584 57.3753 173.75 57.792 173.886C58.2139 174.016 58.6462 174.081 59.0889 174.081C59.4326 174.081 59.7321 174.034 59.9873 173.94C60.2425 173.847 60.4404 173.714 60.5811 173.542C60.7269 173.365 60.7998 173.151 60.7998 172.901C60.7998 172.719 60.7581 172.558 60.6748 172.417C60.5915 172.276 60.4482 172.133 60.2451 171.987C60.042 171.841 59.7607 171.667 59.4014 171.464C59.0212 171.25 58.6982 171.034 58.4326 170.815C58.1722 170.591 57.9717 170.344 57.8311 170.073C57.6956 169.802 57.6279 169.485 57.6279 169.12C57.6279 168.573 57.7529 168.107 58.0029 167.722C58.2581 167.331 58.6175 167.034 59.0811 166.831C59.5498 166.623 60.1019 166.519 60.7373 166.519C61.2477 166.519 61.7295 166.578 62.1826 166.698C62.6357 166.813 63.055 166.974 63.4404 167.183L62.8389 168.542C62.5524 168.381 62.2347 168.243 61.8857 168.128C61.5368 168.008 61.1618 167.948 60.7607 167.948C60.391 167.948 60.0811 168.034 59.8311 168.206C59.5863 168.378 59.4639 168.623 59.4639 168.94C59.4639 169.107 59.5029 169.258 59.5811 169.394C59.6644 169.524 59.8024 169.657 59.9951 169.792C60.1878 169.927 60.4508 170.084 60.7842 170.261C61.1436 170.459 61.4639 170.667 61.7451 170.886C62.0264 171.104 62.2477 171.357 62.4092 171.644C62.5706 171.925 62.6514 172.266 62.6514 172.667C62.6514 173.276 62.5081 173.792 62.2217 174.214C61.9404 174.631 61.5394 174.948 61.0186 175.167C60.4977 175.381 59.8831 175.487 59.1748 175.487ZM67.7139 175.487C67.0941 175.487 66.542 175.373 66.0576 175.144C65.5732 174.914 65.193 174.563 64.917 174.089C64.641 173.615 64.5029 173.011 64.5029 172.276C64.5029 171.657 64.568 171.063 64.6982 170.495C64.8337 169.922 65.029 169.396 65.2842 168.917C65.5394 168.433 65.8519 168.013 66.2217 167.659C66.5915 167.3 67.0133 167.021 67.4873 166.823C67.9613 166.62 68.4847 166.519 69.0576 166.519C69.5055 166.519 69.9248 166.563 70.3154 166.651C70.7061 166.735 71.0654 166.852 71.3936 167.003L70.8467 168.448C70.5967 168.334 70.3285 168.235 70.042 168.151C69.7607 168.063 69.4508 168.019 69.1123 168.019C68.6904 168.019 68.3102 168.133 67.9717 168.362C67.6331 168.586 67.3441 168.896 67.1045 169.292C66.8649 169.683 66.68 170.125 66.5498 170.62C66.4248 171.115 66.3623 171.633 66.3623 172.175C66.3623 172.56 66.4274 172.888 66.5576 173.159C66.6878 173.43 66.8753 173.638 67.1201 173.784C67.3701 173.925 67.6696 173.995 68.0186 173.995C68.404 173.995 68.766 173.94 69.1045 173.831C69.443 173.716 69.7816 173.576 70.1201 173.409V174.925C69.7972 175.097 69.4378 175.232 69.042 175.331C68.6462 175.435 68.2035 175.487 67.7139 175.487ZM75.2842 175.487C74.6227 175.487 74.0446 175.362 73.5498 175.112C73.0602 174.857 72.68 174.485 72.4092 173.995C72.1436 173.5 72.0107 172.896 72.0107 172.183C72.0107 171.474 72.1123 170.784 72.3154 170.112C72.5186 169.435 72.818 168.826 73.2139 168.284C73.6097 167.743 74.0915 167.313 74.6592 166.995C75.2269 166.677 75.8727 166.519 76.5967 166.519C77.4821 166.519 78.1462 166.719 78.5889 167.12C79.0368 167.516 79.2607 168.042 79.2607 168.698C79.2607 169.146 79.1592 169.555 78.9561 169.925C78.7529 170.295 78.443 170.615 78.0264 170.886C77.6149 171.151 77.0915 171.357 76.4561 171.503C75.8258 171.649 75.0837 171.722 74.2295 171.722H73.8779C73.8727 171.8 73.8675 171.881 73.8623 171.964C73.8571 172.042 73.8545 172.12 73.8545 172.198C73.8545 172.776 74.0055 173.232 74.3076 173.565C74.6097 173.894 75.0498 174.058 75.6279 174.058C76.0654 174.058 76.4691 174.003 76.8389 173.894C77.2087 173.784 77.6227 173.62 78.0811 173.401V174.847C77.6592 175.05 77.2321 175.209 76.7998 175.323C76.3675 175.433 75.8623 175.487 75.2842 175.487ZM74.1045 170.394H74.3701C75.0055 170.394 75.5576 170.334 76.0264 170.214C76.4951 170.089 76.8571 169.907 77.1123 169.667C77.3675 169.422 77.4951 169.125 77.4951 168.776C77.4951 168.506 77.4092 168.295 77.2373 168.144C77.0706 167.987 76.8206 167.909 76.4873 167.909C76.1592 167.909 75.8363 168.011 75.5186 168.214C75.2008 168.412 74.917 168.698 74.667 169.073C74.417 169.443 74.2295 169.883 74.1045 170.394ZM80.0576 175.331L81.9014 166.659H83.3779L83.1904 168.292H83.2373C83.4456 167.985 83.6878 167.696 83.9639 167.425C84.2399 167.149 84.5524 166.925 84.9014 166.753C85.2555 166.581 85.6514 166.495 86.0889 166.495C86.568 166.495 86.9743 166.589 87.3076 166.776C87.641 166.964 87.8936 167.232 88.0654 167.581C88.2373 167.93 88.3232 168.347 88.3232 168.831C88.3232 169.045 88.305 169.274 88.2686 169.519C88.2373 169.758 88.1956 169.993 88.1436 170.222L87.0576 175.331H85.1904L86.2998 170.073C86.3467 169.87 86.3805 169.688 86.4014 169.526C86.4274 169.365 86.4404 169.214 86.4404 169.073C86.4404 168.729 86.3545 168.472 86.1826 168.3C86.016 168.128 85.766 168.042 85.4326 168.042C85.068 168.042 84.7087 168.183 84.3545 168.464C84.0003 168.745 83.68 169.154 83.3936 169.69C83.1071 170.227 82.8805 170.875 82.7139 171.636L81.9326 175.331H80.0576ZM92.2139 175.487C91.5837 175.487 91.0706 175.347 90.6748 175.065C90.2842 174.779 90.0889 174.279 90.0889 173.565C90.0889 173.425 90.0967 173.271 90.1123 173.104C90.1331 172.933 90.1618 172.756 90.1982 172.573L91.1514 168.073H89.9014L90.0732 167.198L91.5498 166.597L92.5342 164.769H93.6826L93.2764 166.683H95.4795L95.1826 168.073H92.9873L92.0264 172.581C92.0003 172.69 91.9769 172.808 91.9561 172.933C91.9404 173.052 91.9326 173.162 91.9326 173.261C91.9326 173.495 91.9977 173.677 92.1279 173.808C92.2581 173.938 92.4561 174.003 92.7217 174.003C92.9248 174.003 93.1201 173.982 93.3076 173.94C93.4951 173.899 93.7008 173.839 93.9248 173.761V175.144C93.7321 175.232 93.4821 175.31 93.1748 175.378C92.8675 175.451 92.5472 175.487 92.2139 175.487ZM99.1123 175.487C98.4508 175.487 97.8727 175.362 97.3779 175.112C96.8883 174.857 96.5081 174.485 96.2373 173.995C95.9717 173.5 95.8389 172.896 95.8389 172.183C95.8389 171.474 95.9404 170.784 96.1436 170.112C96.3467 169.435 96.6462 168.826 97.042 168.284C97.4378 167.743 97.9196 167.313 98.4873 166.995C99.055 166.677 99.7008 166.519 100.425 166.519C101.31 166.519 101.974 166.719 102.417 167.12C102.865 167.516 103.089 168.042 103.089 168.698C103.089 169.146 102.987 169.555 102.784 169.925C102.581 170.295 102.271 170.615 101.854 170.886C101.443 171.151 100.92 171.357 100.284 171.503C99.654 171.649 98.9118 171.722 98.0576 171.722H97.7061C97.7008 171.8 97.6956 171.881 97.6904 171.964C97.6852 172.042 97.6826 172.12 97.6826 172.198C97.6826 172.776 97.8337 173.232 98.1357 173.565C98.4378 173.894 98.8779 174.058 99.4561 174.058C99.8936 174.058 100.297 174.003 100.667 173.894C101.037 173.784 101.451 173.62 101.909 173.401V174.847C101.487 175.05 101.06 175.209 100.628 175.323C100.196 175.433 99.6904 175.487 99.1123 175.487ZM97.9326 170.394H98.1982C98.8337 170.394 99.3857 170.334 99.8545 170.214C100.323 170.089 100.685 169.907 100.94 169.667C101.196 169.422 101.323 169.125 101.323 168.776C101.323 168.506 101.237 168.295 101.065 168.144C100.899 167.987 100.649 167.909 100.315 167.909C99.9873 167.909 99.6644 168.011 99.3467 168.214C99.029 168.412 98.7451 168.698 98.4951 169.073C98.2451 169.443 98.0576 169.883 97.9326 170.394ZM106.19 175.487C105.649 175.487 105.175 175.44 104.769 175.347C104.368 175.258 104.006 175.128 103.683 174.956V173.386C104.016 173.584 104.391 173.75 104.808 173.886C105.229 174.016 105.662 174.081 106.104 174.081C106.448 174.081 106.748 174.034 107.003 173.94C107.258 173.847 107.456 173.714 107.597 173.542C107.743 173.365 107.815 173.151 107.815 172.901C107.815 172.719 107.774 172.558 107.69 172.417C107.607 172.276 107.464 172.133 107.261 171.987C107.058 171.841 106.776 171.667 106.417 171.464C106.037 171.25 105.714 171.034 105.448 170.815C105.188 170.591 104.987 170.344 104.847 170.073C104.711 169.802 104.644 169.485 104.644 169.12C104.644 168.573 104.769 168.107 105.019 167.722C105.274 167.331 105.633 167.034 106.097 166.831C106.565 166.623 107.118 166.519 107.753 166.519C108.263 166.519 108.745 166.578 109.198 166.698C109.651 166.813 110.071 166.974 110.456 167.183L109.854 168.542C109.568 168.381 109.25 168.243 108.901 168.128C108.552 168.008 108.177 167.948 107.776 167.948C107.407 167.948 107.097 168.034 106.847 168.206C106.602 168.378 106.479 168.623 106.479 168.94C106.479 169.107 106.519 169.258 106.597 169.394C106.68 169.524 106.818 169.657 107.011 169.792C107.203 169.927 107.466 170.084 107.8 170.261C108.159 170.459 108.479 170.667 108.761 170.886C109.042 171.104 109.263 171.357 109.425 171.644C109.586 171.925 109.667 172.266 109.667 172.667C109.667 173.276 109.524 173.792 109.237 174.214C108.956 174.631 108.555 174.948 108.034 175.167C107.513 175.381 106.899 175.487 106.19 175.487Z" fill="black"/>
</svg>
