<svg width="126" height="203" viewBox="0 0 126 203" fill="none" xmlns="http://www.w3.org/2000/svg">
<path d="M78.1711 72.8311C78.1711 73.9311 79.0711 74.8311 80.1711 74.8311C81.2711 74.8311 82.1711 73.9311 82.1711 72.8311V65.4311L89.2711 67.9311C89.4711 68.0311 89.6711 68.0311 89.9711 68.0311C90.7711 68.0311 91.5711 67.5311 91.8711 66.7311C92.2711 65.7311 91.6711 64.5311 90.6711 64.2311L81.3711 60.9311L64.4711 43.9311V23.3311C64.4711 22.2311 63.5711 21.3311 62.4711 21.3311C61.3711 21.3311 60.4711 22.2311 60.4711 23.3311V43.9311L43.6711 60.8311L34.3711 64.1311C33.3711 64.5311 32.7711 65.6311 33.1711 66.6311C33.4711 67.4311 34.2711 67.9311 35.0711 67.9311C35.2711 67.9311 35.4711 67.9311 35.7711 67.8311L42.8711 65.3311V72.7311C42.8711 73.8311 43.7711 74.7311 44.8711 74.7311C45.9711 74.7311 46.8711 73.8311 46.8711 72.7311V63.3311L62.4711 47.6311L78.1711 63.3311V72.8311ZM53.7711 62.6311C52.6711 62.6311 51.7711 63.5311 51.7711 64.6311V94.1311C51.7711 96.4311 49.9711 98.3311 47.7711 98.4311C41.6711 98.8311 30.5711 98.6311 24.3711 91.5311C19.6711 85.9311 18.4711 77.1311 20.9711 65.3311C26.6711 38.6311 40.0711 30.5311 47.5711 28.1311C48.5711 27.8311 49.5711 27.9311 50.4711 28.6311C51.3711 29.2311 51.7711 30.2311 51.7711 31.2311V40.6311C51.7711 41.7311 52.6711 42.6311 53.7711 42.6311C54.8711 42.6311 55.7711 41.7311 55.7711 40.6311V31.2311C55.7711 28.9311 54.6711 26.7311 52.7711 25.3311C50.8711 23.9311 48.5711 23.6311 46.2711 24.3311C38.0711 26.9311 23.2711 35.7311 17.0711 64.4311C14.2711 77.6311 15.7711 87.5311 21.4711 94.1311C27.5711 101.131 37.2711 102.631 44.2711 102.631C45.6711 102.631 46.9711 102.531 48.1711 102.531C52.4711 102.231 55.8711 98.5311 55.8711 94.2311V64.6311C55.7711 63.5311 54.8711 62.6311 53.7711 62.6311ZM107.871 64.4311C101.671 35.7311 86.8711 26.9311 78.5711 24.2311C76.3711 23.5311 73.9711 23.9311 72.0711 25.2311C70.1711 26.6311 69.0711 28.7311 69.0711 31.1311V40.5311C69.0711 41.6311 69.9711 42.5311 71.0711 42.5311C72.1711 42.5311 73.0711 41.6311 73.0711 40.5311V31.1311C73.0711 30.0311 73.5711 29.1311 74.3711 28.5311C75.1711 27.9311 76.2711 27.7311 77.2711 28.0311C84.7711 30.4311 98.0711 38.5311 103.871 65.2311C106.471 77.1311 105.271 85.9311 100.471 91.4311C94.2711 98.5311 83.1711 98.8311 77.0711 98.3311C74.8711 98.1311 73.0711 96.231 73.0711 94.0311V64.6311C73.0711 63.5311 72.1711 62.6311 71.0711 62.6311C69.9711 62.6311 69.0711 63.5311 69.0711 64.6311V94.1311C69.0711 98.4311 72.4711 102.131 76.7711 102.431C77.8711 102.531 79.2711 102.531 80.6711 102.531C87.6711 102.531 97.3711 101.031 103.471 94.0311C109.171 87.5311 110.671 77.6311 107.871 64.4311Z" fill="black"/>
<rect x="2.2002" y="1.83105" width="121" height="121" rx="6.5" stroke="black" stroke-width="3"/>
<path d="M14.708 153.331L17.1221 141.909H19.9971C20.8669 141.909 21.5648 142.039 22.0908 142.3C22.6221 142.56 23.0075 142.927 23.2471 143.401C23.4919 143.87 23.6143 144.42 23.6143 145.05C23.6143 145.706 23.4971 146.284 23.2627 146.784C23.0335 147.279 22.7028 147.696 22.2705 148.034C21.8382 148.368 21.3148 148.62 20.7002 148.792C20.0908 148.959 19.4059 149.042 18.6455 149.042H17.458L16.5518 153.331H14.708ZM17.7939 147.495H18.8408C19.4346 147.495 19.9476 147.407 20.3799 147.229C20.8122 147.047 21.1455 146.779 21.3799 146.425C21.6195 146.065 21.7393 145.625 21.7393 145.104C21.7393 144.537 21.583 144.123 21.2705 143.862C20.958 143.597 20.4867 143.464 19.8564 143.464H18.6455L17.7939 147.495ZM27.5908 153.487C26.9294 153.487 26.3512 153.362 25.8564 153.112C25.3669 152.857 24.9867 152.485 24.7158 151.995C24.4502 151.5 24.3174 150.896 24.3174 150.183C24.3174 149.474 24.4189 148.784 24.6221 148.112C24.8252 147.435 25.1247 146.826 25.5205 146.284C25.9163 145.743 26.3981 145.313 26.9658 144.995C27.5335 144.677 28.1794 144.519 28.9033 144.519C29.7887 144.519 30.4528 144.719 30.8955 145.12C31.3434 145.516 31.5674 146.042 31.5674 146.698C31.5674 147.146 31.4658 147.555 31.2627 147.925C31.0596 148.295 30.7497 148.615 30.333 148.886C29.9215 149.151 29.3981 149.357 28.7627 149.503C28.1325 149.649 27.3903 149.722 26.5361 149.722H26.1846C26.1794 149.8 26.1742 149.881 26.1689 149.964C26.1637 150.042 26.1611 150.12 26.1611 150.198C26.1611 150.776 26.3122 151.232 26.6143 151.565C26.9163 151.894 27.3564 152.058 27.9346 152.058C28.3721 152.058 28.7757 152.003 29.1455 151.894C29.5153 151.784 29.9294 151.62 30.3877 151.401V152.847C29.9658 153.05 29.5387 153.209 29.1064 153.323C28.6742 153.433 28.1689 153.487 27.5908 153.487ZM26.4111 148.394H26.6768C27.3122 148.394 27.8643 148.334 28.333 148.214C28.8018 148.089 29.1637 147.907 29.4189 147.667C29.6742 147.422 29.8018 147.125 29.8018 146.776C29.8018 146.506 29.7158 146.295 29.5439 146.144C29.3773 145.987 29.1273 145.909 28.7939 145.909C28.4658 145.909 28.1429 146.011 27.8252 146.214C27.5075 146.412 27.2236 146.698 26.9736 147.073C26.7236 147.443 26.5361 147.883 26.4111 148.394ZM32.3955 153.331L34.2314 144.683H35.6611L35.4736 146.315H35.5596C35.7835 145.982 36.0257 145.68 36.2861 145.409C36.5518 145.138 36.846 144.922 37.1689 144.761C37.4919 144.599 37.8512 144.519 38.2471 144.519C38.3877 144.519 38.5335 144.529 38.6846 144.55C38.8408 144.565 38.9762 144.589 39.0908 144.62L38.6924 146.339C38.5778 146.308 38.4528 146.282 38.3174 146.261C38.182 146.24 38.0387 146.229 37.8877 146.229C37.5439 146.229 37.221 146.31 36.9189 146.472C36.6169 146.633 36.3434 146.857 36.0986 147.144C35.8538 147.43 35.6429 147.766 35.4658 148.151C35.2887 148.532 35.1507 148.946 35.0518 149.394L34.2236 153.331H32.3955ZM41.2002 153.487C40.6585 153.487 40.1846 153.44 39.7783 153.347C39.3773 153.258 39.0153 153.128 38.6924 152.956V151.386C39.0257 151.584 39.4007 151.75 39.8174 151.886C40.2393 152.016 40.6715 152.081 41.1143 152.081C41.458 152.081 41.7575 152.034 42.0127 151.94C42.2679 151.847 42.4658 151.714 42.6064 151.542C42.7523 151.365 42.8252 151.151 42.8252 150.901C42.8252 150.719 42.7835 150.558 42.7002 150.417C42.6169 150.276 42.4736 150.133 42.2705 149.987C42.0674 149.841 41.7861 149.667 41.4268 149.464C41.0465 149.25 40.7236 149.034 40.458 148.815C40.1976 148.591 39.9971 148.344 39.8564 148.073C39.721 147.802 39.6533 147.485 39.6533 147.12C39.6533 146.573 39.7783 146.107 40.0283 145.722C40.2835 145.331 40.6429 145.034 41.1064 144.831C41.5752 144.623 42.1273 144.519 42.7627 144.519C43.2731 144.519 43.7549 144.578 44.208 144.698C44.6611 144.813 45.0804 144.974 45.4658 145.183L44.8643 146.542C44.5778 146.381 44.2601 146.243 43.9111 146.128C43.5622 146.008 43.1872 145.948 42.7861 145.948C42.4163 145.948 42.1064 146.034 41.8564 146.206C41.6117 146.378 41.4893 146.623 41.4893 146.94C41.4893 147.107 41.5283 147.258 41.6064 147.394C41.6898 147.524 41.8278 147.657 42.0205 147.792C42.2132 147.927 42.4762 148.084 42.8096 148.261C43.1689 148.459 43.4893 148.667 43.7705 148.886C44.0518 149.104 44.2731 149.357 44.4346 149.644C44.596 149.925 44.6768 150.266 44.6768 150.667C44.6768 151.276 44.5335 151.792 44.2471 152.214C43.9658 152.631 43.5648 152.948 43.0439 153.167C42.5231 153.381 41.9085 153.487 41.2002 153.487ZM49.7861 153.472C49.1299 153.472 48.557 153.336 48.0674 153.065C47.5778 152.795 47.1976 152.412 46.9268 151.917C46.6611 151.417 46.5283 150.826 46.5283 150.144C46.5283 149.565 46.5882 149.003 46.708 148.456C46.833 147.909 47.0153 147.399 47.2549 146.925C47.4945 146.451 47.7939 146.037 48.1533 145.683C48.5127 145.323 48.9294 145.045 49.4033 144.847C49.8773 144.644 50.4085 144.542 50.9971 144.542C51.6689 144.542 52.2471 144.677 52.7314 144.948C53.2158 145.219 53.5882 145.607 53.8486 146.112C54.109 146.618 54.2393 147.222 54.2393 147.925C54.2393 148.487 54.1794 149.037 54.0596 149.573C53.945 150.11 53.7705 150.615 53.5361 151.089C53.3018 151.558 53.0049 151.972 52.6455 152.331C52.2913 152.685 51.8747 152.964 51.3955 153.167C50.9215 153.37 50.3851 153.472 49.7861 153.472ZM49.9189 151.972C50.2106 151.972 50.4814 151.907 50.7314 151.776C50.9867 151.641 51.2158 151.451 51.4189 151.206C51.6221 150.956 51.7939 150.662 51.9346 150.323C52.0804 149.979 52.1924 149.599 52.2705 149.183C52.3486 148.766 52.3877 148.321 52.3877 147.847C52.3877 147.529 52.3408 147.235 52.2471 146.964C52.1533 146.688 51.9971 146.466 51.7783 146.3C51.5648 146.128 51.2783 146.042 50.9189 146.042C50.596 146.042 50.2992 146.12 50.0283 146.276C49.7627 146.427 49.5257 146.638 49.3174 146.909C49.1143 147.18 48.9424 147.493 48.8018 147.847C48.6611 148.196 48.5544 148.571 48.4814 148.972C48.4085 149.368 48.3721 149.769 48.3721 150.175C48.3721 150.753 48.5023 151.198 48.7627 151.511C49.0283 151.818 49.4137 151.972 49.9189 151.972ZM55.3174 153.331L57.1611 144.659H58.6377L58.4502 146.292H58.4971C58.7054 145.985 58.9476 145.696 59.2236 145.425C59.4997 145.149 59.8122 144.925 60.1611 144.753C60.5153 144.581 60.9111 144.495 61.3486 144.495C61.8278 144.495 62.234 144.589 62.5674 144.776C62.9007 144.964 63.1533 145.232 63.3252 145.581C63.4971 145.93 63.583 146.347 63.583 146.831C63.583 147.045 63.5648 147.274 63.5283 147.519C63.4971 147.758 63.4554 147.993 63.4033 148.222L62.3174 153.331H60.4502L61.5596 148.073C61.6064 147.87 61.6403 147.688 61.6611 147.526C61.6872 147.365 61.7002 147.214 61.7002 147.073C61.7002 146.729 61.6143 146.472 61.4424 146.3C61.2757 146.128 61.0257 146.042 60.6924 146.042C60.3278 146.042 59.9684 146.183 59.6143 146.464C59.2601 146.745 58.9398 147.154 58.6533 147.69C58.3669 148.227 58.1403 148.875 57.9736 149.636L57.1924 153.331H55.3174ZM67.5596 153.487C67.1169 153.487 66.7132 153.381 66.3486 153.167C65.9893 152.948 65.7028 152.615 65.4893 152.167C65.2757 151.714 65.1689 151.138 65.1689 150.44C65.1689 149.836 65.2314 149.248 65.3564 148.675C65.4867 148.102 65.6689 147.565 65.9033 147.065C66.1429 146.565 66.432 146.125 66.7705 145.745C67.109 145.36 67.4919 145.06 67.9189 144.847C68.346 144.628 68.807 144.519 69.3018 144.519C69.6768 144.519 70.0049 144.584 70.2861 144.714C70.5674 144.839 70.8044 145.008 70.9971 145.222C71.1898 145.435 71.346 145.672 71.4658 145.933H71.5361L72.0049 144.683H73.4111L71.5752 153.331H70.1768L70.3486 151.933H70.2861C70.0622 152.219 69.8122 152.479 69.5361 152.714C69.2653 152.948 68.9658 153.136 68.6377 153.276C68.3096 153.417 67.9502 153.487 67.5596 153.487ZM68.2314 151.995C68.596 151.995 68.945 151.86 69.2783 151.589C69.6117 151.313 69.9059 150.948 70.1611 150.495C70.4215 150.042 70.6143 149.545 70.7393 149.003C70.8018 148.743 70.8434 148.495 70.8643 148.261C70.8903 148.026 70.9033 147.792 70.9033 147.558C70.9033 147.104 70.7835 146.735 70.5439 146.448C70.3044 146.162 69.9762 146.019 69.5596 146.019C69.2731 146.019 68.9997 146.099 68.7393 146.261C68.484 146.422 68.2523 146.646 68.0439 146.933C67.8356 147.214 67.6533 147.539 67.4971 147.909C67.346 148.279 67.2288 148.677 67.1455 149.104C67.0674 149.526 67.0283 149.956 67.0283 150.394C67.0283 150.92 67.1325 151.318 67.3408 151.589C67.5544 151.86 67.8512 151.995 68.2314 151.995ZM76.3564 153.487C75.8148 153.487 75.3408 153.44 74.9346 153.347C74.5335 153.258 74.1715 153.128 73.8486 152.956V151.386C74.182 151.584 74.557 151.75 74.9736 151.886C75.3955 152.016 75.8278 152.081 76.2705 152.081C76.6143 152.081 76.9137 152.034 77.1689 151.94C77.4242 151.847 77.6221 151.714 77.7627 151.542C77.9085 151.365 77.9814 151.151 77.9814 150.901C77.9814 150.719 77.9398 150.558 77.8564 150.417C77.7731 150.276 77.6299 150.133 77.4268 149.987C77.2236 149.841 76.9424 149.667 76.583 149.464C76.2028 149.25 75.8799 149.034 75.6143 148.815C75.3538 148.591 75.1533 148.344 75.0127 148.073C74.8773 147.802 74.8096 147.485 74.8096 147.12C74.8096 146.573 74.9346 146.107 75.1846 145.722C75.4398 145.331 75.7992 145.034 76.2627 144.831C76.7314 144.623 77.2835 144.519 77.9189 144.519C78.4294 144.519 78.9111 144.578 79.3643 144.698C79.8174 144.813 80.2367 144.974 80.6221 145.183L80.0205 146.542C79.734 146.381 79.4163 146.243 79.0674 146.128C78.7184 146.008 78.3434 145.948 77.9424 145.948C77.5726 145.948 77.2627 146.034 77.0127 146.206C76.7679 146.378 76.6455 146.623 76.6455 146.94C76.6455 147.107 76.6846 147.258 76.7627 147.394C76.846 147.524 76.984 147.657 77.1768 147.792C77.3695 147.927 77.6325 148.084 77.9658 148.261C78.3252 148.459 78.6455 148.667 78.9268 148.886C79.208 149.104 79.4294 149.357 79.5908 149.644C79.7523 149.925 79.833 150.266 79.833 150.667C79.833 151.276 79.6898 151.792 79.4033 152.214C79.1221 152.631 78.721 152.948 78.2002 153.167C77.6794 153.381 77.0648 153.487 76.3564 153.487ZM89.0518 153.487C88.432 153.487 87.8799 153.373 87.3955 153.144C86.9111 152.914 86.5309 152.563 86.2549 152.089C85.9788 151.615 85.8408 151.011 85.8408 150.276C85.8408 149.657 85.9059 149.063 86.0361 148.495C86.1715 147.922 86.3669 147.396 86.6221 146.917C86.8773 146.433 87.1898 146.013 87.5596 145.659C87.9294 145.3 88.3512 145.021 88.8252 144.823C89.2992 144.62 89.8226 144.519 90.3955 144.519C90.8434 144.519 91.2627 144.563 91.6533 144.651C92.0439 144.735 92.4033 144.852 92.7314 145.003L92.1846 146.448C91.9346 146.334 91.6663 146.235 91.3799 146.151C91.0986 146.063 90.7887 146.019 90.4502 146.019C90.0283 146.019 89.6481 146.133 89.3096 146.362C88.971 146.586 88.682 146.896 88.4424 147.292C88.2028 147.683 88.0179 148.125 87.8877 148.62C87.7627 149.115 87.7002 149.633 87.7002 150.175C87.7002 150.56 87.7653 150.888 87.8955 151.159C88.0257 151.43 88.2132 151.638 88.458 151.784C88.708 151.925 89.0075 151.995 89.3564 151.995C89.7419 151.995 90.1038 151.94 90.4424 151.831C90.7809 151.716 91.1195 151.576 91.458 151.409V152.925C91.1351 153.097 90.7757 153.232 90.3799 153.331C89.984 153.435 89.5413 153.487 89.0518 153.487ZM96.5986 153.472C95.9424 153.472 95.3695 153.336 94.8799 153.065C94.3903 152.795 94.0101 152.412 93.7393 151.917C93.4736 151.417 93.3408 150.826 93.3408 150.144C93.3408 149.565 93.4007 149.003 93.5205 148.456C93.6455 147.909 93.8278 147.399 94.0674 146.925C94.307 146.451 94.6064 146.037 94.9658 145.683C95.3252 145.323 95.7419 145.045 96.2158 144.847C96.6898 144.644 97.221 144.542 97.8096 144.542C98.4814 144.542 99.0596 144.677 99.5439 144.948C100.028 145.219 100.401 145.607 100.661 146.112C100.922 146.618 101.052 147.222 101.052 147.925C101.052 148.487 100.992 149.037 100.872 149.573C100.757 150.11 100.583 150.615 100.349 151.089C100.114 151.558 99.8174 151.972 99.458 152.331C99.1038 152.685 98.6872 152.964 98.208 153.167C97.734 153.37 97.1976 153.472 96.5986 153.472ZM96.7314 151.972C97.0231 151.972 97.2939 151.907 97.5439 151.776C97.7992 151.641 98.0283 151.451 98.2314 151.206C98.4346 150.956 98.6064 150.662 98.7471 150.323C98.8929 149.979 99.0049 149.599 99.083 149.183C99.1611 148.766 99.2002 148.321 99.2002 147.847C99.2002 147.529 99.1533 147.235 99.0596 146.964C98.9658 146.688 98.8096 146.466 98.5908 146.3C98.3773 146.128 98.0908 146.042 97.7314 146.042C97.4085 146.042 97.1117 146.12 96.8408 146.276C96.5752 146.427 96.3382 146.638 96.1299 146.909C95.9268 147.18 95.7549 147.493 95.6143 147.847C95.4736 148.196 95.3669 148.571 95.2939 148.972C95.221 149.368 95.1846 149.769 95.1846 150.175C95.1846 150.753 95.3148 151.198 95.5752 151.511C95.8408 151.818 96.2262 151.972 96.7314 151.972ZM102.13 153.331L103.974 144.659H105.45L105.263 146.292H105.31C105.518 145.985 105.76 145.696 106.036 145.425C106.312 145.149 106.625 144.925 106.974 144.753C107.328 144.581 107.724 144.495 108.161 144.495C108.64 144.495 109.047 144.589 109.38 144.776C109.713 144.964 109.966 145.232 110.138 145.581C110.31 145.93 110.396 146.347 110.396 146.831C110.396 147.045 110.377 147.274 110.341 147.519C110.31 147.758 110.268 147.993 110.216 148.222L109.13 153.331H107.263L108.372 148.073C108.419 147.87 108.453 147.688 108.474 147.526C108.5 147.365 108.513 147.214 108.513 147.073C108.513 146.729 108.427 146.472 108.255 146.3C108.088 146.128 107.838 146.042 107.505 146.042C107.14 146.042 106.781 146.183 106.427 146.464C106.073 146.745 105.752 147.154 105.466 147.69C105.179 148.227 104.953 148.875 104.786 149.636L104.005 153.331H102.13ZM14.3408 175.487C13.6794 175.487 13.1012 175.362 12.6064 175.112C12.1169 174.857 11.7367 174.485 11.4658 173.995C11.2002 173.5 11.0674 172.896 11.0674 172.183C11.0674 171.474 11.1689 170.784 11.3721 170.112C11.5752 169.435 11.8747 168.826 12.2705 168.284C12.6663 167.743 13.1481 167.313 13.7158 166.995C14.2835 166.677 14.9294 166.519 15.6533 166.519C16.5387 166.519 17.2028 166.719 17.6455 167.12C18.0934 167.516 18.3174 168.042 18.3174 168.698C18.3174 169.146 18.2158 169.555 18.0127 169.925C17.8096 170.295 17.4997 170.615 17.083 170.886C16.6715 171.151 16.1481 171.357 15.5127 171.503C14.8825 171.649 14.1403 171.722 13.2861 171.722H12.9346C12.9294 171.8 12.9242 171.881 12.9189 171.964C12.9137 172.042 12.9111 172.12 12.9111 172.198C12.9111 172.776 13.0622 173.232 13.3643 173.565C13.6663 173.894 14.1064 174.058 14.6846 174.058C15.1221 174.058 15.5257 174.003 15.8955 173.894C16.2653 173.784 16.6794 173.62 17.1377 173.401V174.847C16.7158 175.05 16.2887 175.209 15.8564 175.323C15.4242 175.433 14.9189 175.487 14.3408 175.487ZM13.1611 170.394H13.4268C14.0622 170.394 14.6143 170.334 15.083 170.214C15.5518 170.089 15.9137 169.907 16.1689 169.667C16.4242 169.422 16.5518 169.125 16.5518 168.776C16.5518 168.506 16.4658 168.295 16.2939 168.144C16.1273 167.987 15.8773 167.909 15.5439 167.909C15.2158 167.909 14.8929 168.011 14.5752 168.214C14.2575 168.412 13.9736 168.698 13.7236 169.073C13.4736 169.443 13.2861 169.883 13.1611 170.394ZM19.1143 175.331L20.958 166.659H22.4346L22.2471 168.292H22.2939C22.5023 167.985 22.7445 167.696 23.0205 167.425C23.2965 167.149 23.609 166.925 23.958 166.753C24.3122 166.581 24.708 166.495 25.1455 166.495C25.6247 166.495 26.0309 166.589 26.3643 166.776C26.6976 166.964 26.9502 167.232 27.1221 167.581C27.2939 167.93 27.3799 168.347 27.3799 168.831C27.3799 169.045 27.3617 169.274 27.3252 169.519C27.2939 169.758 27.2523 169.993 27.2002 170.222L26.1143 175.331H24.2471L25.3564 170.073C25.4033 169.87 25.4372 169.688 25.458 169.526C25.484 169.365 25.4971 169.214 25.4971 169.073C25.4971 168.729 25.4111 168.472 25.2393 168.3C25.0726 168.128 24.8226 168.042 24.4893 168.042C24.1247 168.042 23.7653 168.183 23.4111 168.464C23.057 168.745 22.7367 169.154 22.4502 169.69C22.1637 170.227 21.9372 170.875 21.7705 171.636L20.9893 175.331H19.1143ZM27.6455 179.175C27.4215 179.175 27.2054 179.157 26.9971 179.12C26.7835 179.084 26.6038 179.042 26.458 178.995V177.495C26.6143 177.552 26.7653 177.594 26.9111 177.62C27.0518 177.651 27.2002 177.667 27.3564 177.667C27.7106 177.667 27.9997 177.537 28.2236 177.276C28.4528 177.021 28.6247 176.631 28.7393 176.104L30.4346 168.073H29.0518L29.2236 167.229L30.7314 166.659L30.8955 165.917C31.0101 165.386 31.1559 164.94 31.333 164.581C31.5153 164.216 31.7288 163.925 31.9736 163.706C32.2236 163.487 32.5101 163.331 32.833 163.237C33.1611 163.138 33.5309 163.089 33.9424 163.089C34.2549 163.089 34.5544 163.12 34.8408 163.183C35.1325 163.245 35.3851 163.326 35.5986 163.425L35.1143 164.8C34.9632 164.737 34.8018 164.683 34.6299 164.636C34.458 164.589 34.2679 164.565 34.0596 164.565C33.6898 164.565 33.3955 164.68 33.1768 164.909C32.958 165.138 32.7965 165.506 32.6924 166.011L32.5518 166.683H34.3252L34.0439 168.073H32.2549L30.5049 176.354C30.3851 176.907 30.2106 177.394 29.9814 177.815C29.7575 178.243 29.4554 178.576 29.0752 178.815C28.695 179.055 28.2184 179.175 27.6455 179.175ZM37.7314 175.487C37.07 175.487 36.4919 175.362 35.9971 175.112C35.5075 174.857 35.1273 174.485 34.8564 173.995C34.5908 173.5 34.458 172.896 34.458 172.183C34.458 171.474 34.5596 170.784 34.7627 170.112C34.9658 169.435 35.2653 168.826 35.6611 168.284C36.057 167.743 36.5387 167.313 37.1064 166.995C37.6742 166.677 38.32 166.519 39.0439 166.519C39.9294 166.519 40.5934 166.719 41.0361 167.12C41.484 167.516 41.708 168.042 41.708 168.698C41.708 169.146 41.6064 169.555 41.4033 169.925C41.2002 170.295 40.8903 170.615 40.4736 170.886C40.0622 171.151 39.5387 171.357 38.9033 171.503C38.2731 171.649 37.5309 171.722 36.6768 171.722H36.3252C36.32 171.8 36.3148 171.881 36.3096 171.964C36.3044 172.042 36.3018 172.12 36.3018 172.198C36.3018 172.776 36.4528 173.232 36.7549 173.565C37.057 173.894 37.4971 174.058 38.0752 174.058C38.5127 174.058 38.9163 174.003 39.2861 173.894C39.6559 173.784 40.07 173.62 40.5283 173.401V174.847C40.1064 175.05 39.6794 175.209 39.2471 175.323C38.8148 175.433 38.3096 175.487 37.7314 175.487ZM36.5518 170.394H36.8174C37.4528 170.394 38.0049 170.334 38.4736 170.214C38.9424 170.089 39.3044 169.907 39.5596 169.667C39.8148 169.422 39.9424 169.125 39.9424 168.776C39.9424 168.506 39.8564 168.295 39.6846 168.144C39.5179 167.987 39.2679 167.909 38.9346 167.909C38.6064 167.909 38.2835 168.011 37.9658 168.214C37.6481 168.412 37.3643 168.698 37.1143 169.073C36.8643 169.443 36.6768 169.883 36.5518 170.394ZM42.5361 175.331L44.3721 166.683H45.8018L45.6143 168.315H45.7002C45.9242 167.982 46.1663 167.68 46.4268 167.409C46.6924 167.138 46.9867 166.922 47.3096 166.761C47.6325 166.599 47.9919 166.519 48.3877 166.519C48.5283 166.519 48.6742 166.529 48.8252 166.55C48.9814 166.565 49.1169 166.589 49.2314 166.62L48.833 168.339C48.7184 168.308 48.5934 168.282 48.458 168.261C48.3226 168.24 48.1794 168.229 48.0283 168.229C47.6846 168.229 47.3617 168.31 47.0596 168.472C46.7575 168.633 46.484 168.857 46.2393 169.144C45.9945 169.43 45.7835 169.766 45.6064 170.151C45.4294 170.532 45.2913 170.946 45.1924 171.394L44.3643 175.331H42.5361ZM49.0674 175.331L50.9033 166.683H52.333L52.1455 168.315H52.2236C52.4268 168.008 52.6611 167.719 52.9268 167.448C53.1976 167.172 53.5023 166.948 53.8408 166.776C54.1846 166.604 54.57 166.519 54.9971 166.519C55.6012 166.519 56.0622 166.685 56.3799 167.019C56.7028 167.352 56.9033 167.808 56.9814 168.386H57.0439C57.2575 168.052 57.5049 167.745 57.7861 167.464C58.0726 167.183 58.3929 166.956 58.7471 166.784C59.1064 166.607 59.4971 166.519 59.9189 166.519C60.6169 166.519 61.1455 166.722 61.5049 167.128C61.8643 167.534 62.0439 168.102 62.0439 168.831C62.0439 169.05 62.0283 169.274 61.9971 169.503C61.971 169.732 61.9294 169.969 61.8721 170.214L60.7939 175.331H58.9658L60.083 170.081C60.1247 169.878 60.1559 169.696 60.1768 169.534C60.2028 169.368 60.2158 169.211 60.2158 169.065C60.2158 168.727 60.1351 168.469 59.9736 168.292C59.8174 168.11 59.5778 168.019 59.2549 168.019C58.984 168.019 58.7158 168.099 58.4502 168.261C58.1898 168.422 57.9424 168.657 57.708 168.964C57.4736 169.271 57.2653 169.644 57.083 170.081C56.9007 170.513 56.7523 171.003 56.6377 171.55L55.8408 175.331H54.0205L55.1221 170.097C55.1689 169.888 55.2028 169.701 55.2236 169.534C55.2445 169.368 55.2549 169.222 55.2549 169.097C55.2549 168.748 55.1794 168.482 55.0283 168.3C54.8825 168.112 54.6481 168.019 54.3252 168.019C54.0544 168.019 53.7861 168.099 53.5205 168.261C53.2549 168.422 53.0049 168.659 52.7705 168.972C52.5361 169.284 52.3252 169.664 52.1377 170.112C51.9502 170.555 51.7965 171.063 51.6768 171.636L50.8955 175.331H49.0674ZM66.9346 175.487C66.2731 175.487 65.695 175.362 65.2002 175.112C64.7106 174.857 64.3304 174.485 64.0596 173.995C63.7939 173.5 63.6611 172.896 63.6611 172.183C63.6611 171.474 63.7627 170.784 63.9658 170.112C64.1689 169.435 64.4684 168.826 64.8643 168.284C65.2601 167.743 65.7419 167.313 66.3096 166.995C66.8773 166.677 67.5231 166.519 68.2471 166.519C69.1325 166.519 69.7965 166.719 70.2393 167.12C70.6872 167.516 70.9111 168.042 70.9111 168.698C70.9111 169.146 70.8096 169.555 70.6064 169.925C70.4033 170.295 70.0934 170.615 69.6768 170.886C69.2653 171.151 68.7419 171.357 68.1064 171.503C67.4762 171.649 66.734 171.722 65.8799 171.722H65.5283C65.5231 171.8 65.5179 171.881 65.5127 171.964C65.5075 172.042 65.5049 172.12 65.5049 172.198C65.5049 172.776 65.6559 173.232 65.958 173.565C66.2601 173.894 66.7002 174.058 67.2783 174.058C67.7158 174.058 68.1195 174.003 68.4893 173.894C68.859 173.784 69.2731 173.62 69.7314 173.401V174.847C69.3096 175.05 68.8825 175.209 68.4502 175.323C68.0179 175.433 67.5127 175.487 66.9346 175.487ZM65.7549 170.394H66.0205C66.6559 170.394 67.208 170.334 67.6768 170.214C68.1455 170.089 68.5075 169.907 68.7627 169.667C69.0179 169.422 69.1455 169.125 69.1455 168.776C69.1455 168.506 69.0596 168.295 68.8877 168.144C68.721 167.987 68.471 167.909 68.1377 167.909C67.8096 167.909 67.4867 168.011 67.1689 168.214C66.8512 168.412 66.5674 168.698 66.3174 169.073C66.0674 169.443 65.8799 169.883 65.7549 170.394ZM74.5049 175.487C74.057 175.487 73.6507 175.381 73.2861 175.167C72.9268 174.953 72.6403 174.623 72.4268 174.175C72.2132 173.722 72.1064 173.141 72.1064 172.433C72.1064 171.839 72.1663 171.258 72.2861 170.69C72.4111 170.118 72.5908 169.581 72.8252 169.081C73.0596 168.576 73.346 168.133 73.6846 167.753C74.0231 167.368 74.4059 167.068 74.833 166.854C75.2653 166.636 75.734 166.526 76.2393 166.526C76.6143 166.526 76.9346 166.591 77.2002 166.722C77.4658 166.852 77.6898 167.024 77.8721 167.237C78.0544 167.451 78.208 167.683 78.333 167.933H78.4033C78.4189 167.797 78.4372 167.625 78.458 167.417C78.484 167.203 78.5153 166.974 78.5518 166.729C78.5882 166.479 78.6325 166.237 78.6846 166.003L79.2861 163.175H81.1064L78.5283 175.331H77.0986L77.2705 173.933H77.2158C76.9867 174.224 76.7367 174.487 76.4658 174.722C76.2002 174.956 75.9059 175.144 75.583 175.284C75.2601 175.42 74.9007 175.487 74.5049 175.487ZM75.2158 173.995C75.4606 173.995 75.695 173.933 75.9189 173.808C76.1481 173.683 76.359 173.511 76.5518 173.292C76.7497 173.068 76.9294 172.813 77.0908 172.526C77.2523 172.235 77.3903 171.925 77.5049 171.597C77.6195 171.269 77.708 170.935 77.7705 170.597C77.833 170.258 77.8643 169.93 77.8643 169.612C77.8643 169.128 77.7471 168.743 77.5127 168.456C77.2835 168.164 76.9398 168.019 76.4814 168.019C76.1846 168.019 75.9085 168.102 75.6533 168.269C75.3981 168.435 75.1663 168.662 74.958 168.948C74.7497 169.235 74.57 169.565 74.4189 169.94C74.2731 170.31 74.1611 170.706 74.083 171.128C74.0049 171.55 73.9658 171.972 73.9658 172.394C73.9658 172.92 74.07 173.318 74.2783 173.589C74.4919 173.86 74.8044 173.995 75.2158 173.995ZM83.8721 175.487C83.4294 175.487 83.0257 175.381 82.6611 175.167C82.3018 174.948 82.0153 174.615 81.8018 174.167C81.5882 173.714 81.4814 173.138 81.4814 172.44C81.4814 171.836 81.5439 171.248 81.6689 170.675C81.7992 170.102 81.9814 169.565 82.2158 169.065C82.4554 168.565 82.7445 168.125 83.083 167.745C83.4215 167.36 83.8044 167.06 84.2314 166.847C84.6585 166.628 85.1195 166.519 85.6143 166.519C85.9893 166.519 86.3174 166.584 86.5986 166.714C86.8799 166.839 87.1169 167.008 87.3096 167.222C87.5023 167.435 87.6585 167.672 87.7783 167.933H87.8486L88.3174 166.683H89.7236L87.8877 175.331H86.4893L86.6611 173.933H86.5986C86.3747 174.219 86.1247 174.479 85.8486 174.714C85.5778 174.948 85.2783 175.136 84.9502 175.276C84.6221 175.417 84.2627 175.487 83.8721 175.487ZM84.5439 173.995C84.9085 173.995 85.2575 173.86 85.5908 173.589C85.9242 173.313 86.2184 172.948 86.4736 172.495C86.734 172.042 86.9268 171.545 87.0518 171.003C87.1143 170.743 87.1559 170.495 87.1768 170.261C87.2028 170.026 87.2158 169.792 87.2158 169.558C87.2158 169.104 87.096 168.735 86.8564 168.448C86.6169 168.162 86.2887 168.019 85.8721 168.019C85.5856 168.019 85.3122 168.099 85.0518 168.261C84.7965 168.422 84.5648 168.646 84.3564 168.933C84.1481 169.214 83.9658 169.539 83.8096 169.909C83.6585 170.279 83.5413 170.677 83.458 171.104C83.3799 171.526 83.3408 171.956 83.3408 172.394C83.3408 172.92 83.445 173.318 83.6533 173.589C83.8669 173.86 84.1637 173.995 84.5439 173.995ZM93.1611 175.487C92.7132 175.487 92.307 175.381 91.9424 175.167C91.583 174.953 91.2965 174.623 91.083 174.175C90.8695 173.722 90.7627 173.141 90.7627 172.433C90.7627 171.839 90.8226 171.258 90.9424 170.69C91.0674 170.118 91.2471 169.581 91.4814 169.081C91.7158 168.576 92.0023 168.133 92.3408 167.753C92.6794 167.368 93.0622 167.068 93.4893 166.854C93.9215 166.636 94.3903 166.526 94.8955 166.526C95.2705 166.526 95.5908 166.591 95.8564 166.722C96.1221 166.852 96.346 167.024 96.5283 167.237C96.7106 167.451 96.8643 167.683 96.9893 167.933H97.0596C97.0752 167.797 97.0934 167.625 97.1143 167.417C97.1403 167.203 97.1715 166.974 97.208 166.729C97.2445 166.479 97.2887 166.237 97.3408 166.003L97.9424 163.175H99.7627L97.1846 175.331H95.7549L95.9268 173.933H95.8721C95.6429 174.224 95.3929 174.487 95.1221 174.722C94.8564 174.956 94.5622 175.144 94.2393 175.284C93.9163 175.42 93.557 175.487 93.1611 175.487ZM93.8721 173.995C94.1169 173.995 94.3512 173.933 94.5752 173.808C94.8044 173.683 95.0153 173.511 95.208 173.292C95.4059 173.068 95.5856 172.813 95.7471 172.526C95.9085 172.235 96.0465 171.925 96.1611 171.597C96.2757 171.269 96.3643 170.935 96.4268 170.597C96.4893 170.258 96.5205 169.93 96.5205 169.612C96.5205 169.128 96.4033 168.743 96.1689 168.456C95.9398 168.164 95.596 168.019 95.1377 168.019C94.8408 168.019 94.5648 168.102 94.3096 168.269C94.0544 168.435 93.8226 168.662 93.6143 168.948C93.4059 169.235 93.2262 169.565 93.0752 169.94C92.9294 170.31 92.8174 170.706 92.7393 171.128C92.6611 171.55 92.6221 171.972 92.6221 172.394C92.6221 172.92 92.7262 173.318 92.9346 173.589C93.1481 173.86 93.4606 173.995 93.8721 173.995ZM103.419 175.487C102.757 175.487 102.179 175.362 101.685 175.112C101.195 174.857 100.815 174.485 100.544 173.995C100.278 173.5 100.146 172.896 100.146 172.183C100.146 171.474 100.247 170.784 100.45 170.112C100.653 169.435 100.953 168.826 101.349 168.284C101.744 167.743 102.226 167.313 102.794 166.995C103.362 166.677 104.007 166.519 104.731 166.519C105.617 166.519 106.281 166.719 106.724 167.12C107.172 167.516 107.396 168.042 107.396 168.698C107.396 169.146 107.294 169.555 107.091 169.925C106.888 170.295 106.578 170.615 106.161 170.886C105.75 171.151 105.226 171.357 104.591 171.503C103.961 171.649 103.218 171.722 102.364 171.722H102.013C102.007 171.8 102.002 171.881 101.997 171.964C101.992 172.042 101.989 172.12 101.989 172.198C101.989 172.776 102.14 173.232 102.442 173.565C102.744 173.894 103.185 174.058 103.763 174.058C104.2 174.058 104.604 174.003 104.974 173.894C105.343 173.784 105.757 173.62 106.216 173.401V174.847C105.794 175.05 105.367 175.209 104.935 175.323C104.502 175.433 103.997 175.487 103.419 175.487ZM102.239 170.394H102.505C103.14 170.394 103.692 170.334 104.161 170.214C104.63 170.089 104.992 169.907 105.247 169.667C105.502 169.422 105.63 169.125 105.63 168.776C105.63 168.506 105.544 168.295 105.372 168.144C105.205 167.987 104.955 167.909 104.622 167.909C104.294 167.909 103.971 168.011 103.653 168.214C103.336 168.412 103.052 168.698 102.802 169.073C102.552 169.443 102.364 169.883 102.239 170.394ZM110.497 175.487C109.955 175.487 109.481 175.44 109.075 175.347C108.674 175.258 108.312 175.128 107.989 174.956V173.386C108.323 173.584 108.698 173.75 109.114 173.886C109.536 174.016 109.968 174.081 110.411 174.081C110.755 174.081 111.054 174.034 111.31 173.94C111.565 173.847 111.763 173.714 111.903 173.542C112.049 173.365 112.122 173.151 112.122 172.901C112.122 172.719 112.08 172.558 111.997 172.417C111.914 172.276 111.771 172.133 111.567 171.987C111.364 171.841 111.083 171.667 110.724 171.464C110.343 171.25 110.021 171.034 109.755 170.815C109.494 170.591 109.294 170.344 109.153 170.073C109.018 169.802 108.95 169.485 108.95 169.12C108.95 168.573 109.075 168.107 109.325 167.722C109.58 167.331 109.94 167.034 110.403 166.831C110.872 166.623 111.424 166.519 112.06 166.519C112.57 166.519 113.052 166.578 113.505 166.698C113.958 166.813 114.377 166.974 114.763 167.183L114.161 168.542C113.875 168.381 113.557 168.243 113.208 168.128C112.859 168.008 112.484 167.948 112.083 167.948C111.713 167.948 111.403 168.034 111.153 168.206C110.909 168.378 110.786 168.623 110.786 168.94C110.786 169.107 110.825 169.258 110.903 169.394C110.987 169.524 111.125 169.657 111.317 169.792C111.51 169.927 111.773 170.084 112.106 170.261C112.466 170.459 112.786 170.667 113.067 170.886C113.349 171.104 113.57 171.357 113.731 171.644C113.893 171.925 113.974 172.266 113.974 172.667C113.974 173.276 113.83 173.792 113.544 174.214C113.263 174.631 112.862 174.948 112.341 175.167C111.82 175.381 111.205 175.487 110.497 175.487ZM18.458 201.167L21.1064 188.683H22.5361L22.3643 190.175H22.4268C22.6403 189.888 22.8799 189.62 23.1455 189.37C23.4111 189.12 23.708 188.917 24.0361 188.761C24.3695 188.604 24.734 188.526 25.1299 188.526C25.5726 188.526 25.9736 188.636 26.333 188.854C26.6976 189.068 26.9867 189.401 27.2002 189.854C27.4189 190.302 27.5283 190.881 27.5283 191.589C27.5283 192.183 27.4658 192.766 27.3408 193.339C27.221 193.907 27.0439 194.44 26.8096 194.94C26.5752 195.44 26.2887 195.883 25.9502 196.269C25.6169 196.649 25.2367 196.948 24.8096 197.167C24.3825 197.381 23.9137 197.487 23.4033 197.487C23.0283 197.487 22.7054 197.425 22.4346 197.3C22.1689 197.17 21.945 196.998 21.7627 196.784C21.5804 196.571 21.4268 196.336 21.3018 196.081H21.2314C21.2054 196.388 21.1689 196.709 21.1221 197.042C21.0752 197.375 21.0179 197.693 20.9502 197.995L20.2783 201.167H18.458ZM23.1611 195.995C23.458 195.995 23.734 195.914 23.9893 195.753C24.2445 195.586 24.4762 195.36 24.6846 195.073C24.8929 194.787 25.07 194.456 25.2158 194.081C25.3617 193.706 25.4736 193.31 25.5518 192.894C25.6299 192.472 25.6689 192.047 25.6689 191.62C25.6689 191.089 25.5648 190.69 25.3564 190.425C25.1533 190.154 24.846 190.019 24.4346 190.019C24.1846 190.019 23.945 190.084 23.7158 190.214C23.4867 190.339 23.2731 190.511 23.0752 190.729C22.8773 190.948 22.6976 191.203 22.5361 191.495C22.3747 191.782 22.2367 192.089 22.1221 192.417C22.0075 192.745 21.9189 193.078 21.8564 193.417C21.7992 193.756 21.7705 194.084 21.7705 194.401C21.7705 194.881 21.8877 195.266 22.1221 195.558C22.3617 195.849 22.708 195.995 23.1611 195.995ZM31.3408 197.487C30.8773 197.487 30.4814 197.396 30.1533 197.214C29.8304 197.032 29.583 196.769 29.4111 196.425C29.2445 196.076 29.1611 195.659 29.1611 195.175C29.1611 194.961 29.1768 194.727 29.208 194.472C29.2445 194.211 29.2887 193.943 29.3408 193.667L30.4033 188.683H32.2314L31.1143 193.933C31.0778 194.136 31.0465 194.321 31.0205 194.487C30.9997 194.649 30.9893 194.797 30.9893 194.933C30.9893 195.282 31.07 195.547 31.2314 195.729C31.3981 195.907 31.6559 195.995 32.0049 195.995C32.3799 195.995 32.7445 195.854 33.0986 195.573C33.458 195.287 33.7835 194.873 34.0752 194.331C34.3669 193.789 34.5934 193.136 34.7549 192.37L35.5361 188.683H37.3486L35.5205 197.331H34.083L34.2705 195.69H34.1924C33.984 195.998 33.7419 196.289 33.4658 196.565C33.1898 196.836 32.8773 197.058 32.5283 197.229C32.1794 197.401 31.7835 197.487 31.3408 197.487ZM38.1064 197.331L40.6924 185.175H42.5127L39.9346 197.331H38.1064ZM42.5205 197.331L44.3564 188.683H45.7861L45.5986 190.315H45.6768C45.8799 190.008 46.1143 189.719 46.3799 189.448C46.6507 189.172 46.9554 188.948 47.2939 188.776C47.6377 188.604 48.0231 188.519 48.4502 188.519C49.0544 188.519 49.5153 188.685 49.833 189.019C50.1559 189.352 50.3564 189.808 50.4346 190.386H50.4971C50.7106 190.052 50.958 189.745 51.2393 189.464C51.5257 189.183 51.846 188.956 52.2002 188.784C52.5596 188.607 52.9502 188.519 53.3721 188.519C54.07 188.519 54.5986 188.722 54.958 189.128C55.3174 189.534 55.4971 190.102 55.4971 190.831C55.4971 191.05 55.4814 191.274 55.4502 191.503C55.4242 191.732 55.3825 191.969 55.3252 192.214L54.2471 197.331H52.4189L53.5361 192.081C53.5778 191.878 53.609 191.696 53.6299 191.534C53.6559 191.368 53.6689 191.211 53.6689 191.065C53.6689 190.727 53.5882 190.469 53.4268 190.292C53.2705 190.11 53.0309 190.019 52.708 190.019C52.4372 190.019 52.1689 190.099 51.9033 190.261C51.6429 190.422 51.3955 190.657 51.1611 190.964C50.9268 191.271 50.7184 191.644 50.5361 192.081C50.3538 192.513 50.2054 193.003 50.0908 193.55L49.2939 197.331H47.4736L48.5752 192.097C48.6221 191.888 48.6559 191.701 48.6768 191.534C48.6976 191.368 48.708 191.222 48.708 191.097C48.708 190.748 48.6325 190.482 48.4814 190.3C48.3356 190.112 48.1012 190.019 47.7783 190.019C47.5075 190.019 47.2393 190.099 46.9736 190.261C46.708 190.422 46.458 190.659 46.2236 190.972C45.9893 191.284 45.7783 191.664 45.5908 192.112C45.4033 192.555 45.2497 193.063 45.1299 193.636L44.3486 197.331H42.5205ZM60.3643 197.472C59.708 197.472 59.1351 197.336 58.6455 197.065C58.1559 196.795 57.7757 196.412 57.5049 195.917C57.2393 195.417 57.1064 194.826 57.1064 194.144C57.1064 193.565 57.1663 193.003 57.2861 192.456C57.4111 191.909 57.5934 191.399 57.833 190.925C58.0726 190.451 58.3721 190.037 58.7314 189.683C59.0908 189.323 59.5075 189.045 59.9814 188.847C60.4554 188.644 60.9867 188.542 61.5752 188.542C62.2471 188.542 62.8252 188.677 63.3096 188.948C63.7939 189.219 64.1663 189.607 64.4268 190.112C64.6872 190.618 64.8174 191.222 64.8174 191.925C64.8174 192.487 64.7575 193.037 64.6377 193.573C64.5231 194.11 64.3486 194.615 64.1143 195.089C63.8799 195.558 63.583 195.972 63.2236 196.331C62.8695 196.685 62.4528 196.964 61.9736 197.167C61.4997 197.37 60.9632 197.472 60.3643 197.472ZM60.4971 195.972C60.7887 195.972 61.0596 195.907 61.3096 195.776C61.5648 195.641 61.7939 195.451 61.9971 195.206C62.2002 194.956 62.3721 194.662 62.5127 194.323C62.6585 193.979 62.7705 193.599 62.8486 193.183C62.9268 192.766 62.9658 192.321 62.9658 191.847C62.9658 191.529 62.9189 191.235 62.8252 190.964C62.7314 190.688 62.5752 190.466 62.3564 190.3C62.1429 190.128 61.8564 190.042 61.4971 190.042C61.1742 190.042 60.8773 190.12 60.6064 190.276C60.3408 190.427 60.1038 190.638 59.8955 190.909C59.6924 191.18 59.5205 191.493 59.3799 191.847C59.2393 192.196 59.1325 192.571 59.0596 192.972C58.9867 193.368 58.9502 193.769 58.9502 194.175C58.9502 194.753 59.0804 195.198 59.3408 195.511C59.6064 195.818 59.9919 195.972 60.4971 195.972ZM65.8955 197.331L67.7393 188.659H69.2158L69.0283 190.292H69.0752C69.2835 189.985 69.5257 189.696 69.8018 189.425C70.0778 189.149 70.3903 188.925 70.7393 188.753C71.0934 188.581 71.4893 188.495 71.9268 188.495C72.4059 188.495 72.8122 188.589 73.1455 188.776C73.4788 188.964 73.7314 189.232 73.9033 189.581C74.0752 189.93 74.1611 190.347 74.1611 190.831C74.1611 191.045 74.1429 191.274 74.1064 191.519C74.0752 191.758 74.0335 191.993 73.9814 192.222L72.8955 197.331H71.0283L72.1377 192.073C72.1846 191.87 72.2184 191.688 72.2393 191.526C72.2653 191.365 72.2783 191.214 72.2783 191.073C72.2783 190.729 72.1924 190.472 72.0205 190.3C71.8538 190.128 71.6038 190.042 71.2705 190.042C70.9059 190.042 70.5465 190.183 70.1924 190.464C69.8382 190.745 69.5179 191.154 69.2314 191.69C68.945 192.227 68.7184 192.875 68.5518 193.636L67.7705 197.331H65.8955ZM78.1377 197.487C77.695 197.487 77.2913 197.381 76.9268 197.167C76.5674 196.948 76.2809 196.615 76.0674 196.167C75.8538 195.714 75.7471 195.138 75.7471 194.44C75.7471 193.836 75.8096 193.248 75.9346 192.675C76.0648 192.102 76.2471 191.565 76.4814 191.065C76.721 190.565 77.0101 190.125 77.3486 189.745C77.6872 189.36 78.07 189.06 78.4971 188.847C78.9242 188.628 79.3851 188.519 79.8799 188.519C80.2549 188.519 80.583 188.584 80.8643 188.714C81.1455 188.839 81.3825 189.008 81.5752 189.222C81.7679 189.435 81.9242 189.672 82.0439 189.933H82.1143L82.583 188.683H83.9893L82.1533 197.331H80.7549L80.9268 195.933H80.8643C80.6403 196.219 80.3903 196.479 80.1143 196.714C79.8434 196.948 79.5439 197.136 79.2158 197.276C78.8877 197.417 78.5283 197.487 78.1377 197.487ZM78.8096 195.995C79.1742 195.995 79.5231 195.86 79.8564 195.589C80.1898 195.313 80.484 194.948 80.7393 194.495C80.9997 194.042 81.1924 193.545 81.3174 193.003C81.3799 192.743 81.4215 192.495 81.4424 192.261C81.4684 192.026 81.4814 191.792 81.4814 191.558C81.4814 191.104 81.3617 190.735 81.1221 190.448C80.8825 190.162 80.5544 190.019 80.1377 190.019C79.8512 190.019 79.5778 190.099 79.3174 190.261C79.0622 190.422 78.8304 190.646 78.6221 190.933C78.4137 191.214 78.2314 191.539 78.0752 191.909C77.9242 192.279 77.807 192.677 77.7236 193.104C77.6455 193.526 77.6064 193.956 77.6064 194.394C77.6064 194.92 77.7106 195.318 77.9189 195.589C78.1325 195.86 78.4294 195.995 78.8096 195.995ZM84.6611 197.331L86.4971 188.683H87.9268L87.7393 190.315H87.8252C88.0492 189.982 88.2913 189.68 88.5518 189.409C88.8174 189.138 89.1117 188.922 89.4346 188.761C89.7575 188.599 90.1169 188.519 90.5127 188.519C90.6533 188.519 90.7992 188.529 90.9502 188.55C91.1064 188.565 91.2419 188.589 91.3564 188.62L90.958 190.339C90.8434 190.308 90.7184 190.282 90.583 190.261C90.4476 190.24 90.3044 190.229 90.1533 190.229C89.8096 190.229 89.4867 190.31 89.1846 190.472C88.8825 190.633 88.609 190.857 88.3643 191.144C88.1195 191.43 87.9085 191.766 87.7314 192.151C87.5544 192.532 87.4163 192.946 87.3174 193.394L86.4893 197.331H84.6611ZM94.8408 197.487C94.1794 197.487 93.6012 197.362 93.1064 197.112C92.6169 196.857 92.2367 196.485 91.9658 195.995C91.7002 195.5 91.5674 194.896 91.5674 194.183C91.5674 193.474 91.6689 192.784 91.8721 192.112C92.0752 191.435 92.3747 190.826 92.7705 190.284C93.1663 189.743 93.6481 189.313 94.2158 188.995C94.7835 188.677 95.4294 188.519 96.1533 188.519C97.0387 188.519 97.7028 188.719 98.1455 189.12C98.5934 189.516 98.8174 190.042 98.8174 190.698C98.8174 191.146 98.7158 191.555 98.5127 191.925C98.3096 192.295 97.9997 192.615 97.583 192.886C97.1715 193.151 96.6481 193.357 96.0127 193.503C95.3825 193.649 94.6403 193.722 93.7861 193.722H93.4346C93.4294 193.8 93.4242 193.881 93.4189 193.964C93.4137 194.042 93.4111 194.12 93.4111 194.198C93.4111 194.776 93.5622 195.232 93.8643 195.565C94.1663 195.894 94.6064 196.058 95.1846 196.058C95.6221 196.058 96.0257 196.003 96.3955 195.894C96.7653 195.784 97.1794 195.62 97.6377 195.401V196.847C97.2158 197.05 96.7887 197.209 96.3564 197.323C95.9242 197.433 95.4189 197.487 94.8408 197.487ZM93.6611 192.394H93.9268C94.5622 192.394 95.1143 192.334 95.583 192.214C96.0518 192.089 96.4137 191.907 96.6689 191.667C96.9242 191.422 97.0518 191.125 97.0518 190.776C97.0518 190.506 96.9658 190.295 96.7939 190.144C96.6273 189.987 96.3773 189.909 96.0439 189.909C95.7158 189.909 95.3929 190.011 95.0752 190.214C94.7575 190.412 94.4736 190.698 94.2236 191.073C93.9736 191.443 93.7861 191.883 93.6611 192.394ZM101.919 197.487C101.377 197.487 100.903 197.44 100.497 197.347C100.096 197.258 99.734 197.128 99.4111 196.956V195.386C99.7445 195.584 100.119 195.75 100.536 195.886C100.958 196.016 101.39 196.081 101.833 196.081C102.177 196.081 102.476 196.034 102.731 195.94C102.987 195.847 103.185 195.714 103.325 195.542C103.471 195.365 103.544 195.151 103.544 194.901C103.544 194.719 103.502 194.558 103.419 194.417C103.336 194.276 103.192 194.133 102.989 193.987C102.786 193.841 102.505 193.667 102.146 193.464C101.765 193.25 101.442 193.034 101.177 192.815C100.916 192.591 100.716 192.344 100.575 192.073C100.44 191.802 100.372 191.485 100.372 191.12C100.372 190.573 100.497 190.107 100.747 189.722C101.002 189.331 101.362 189.034 101.825 188.831C102.294 188.623 102.846 188.519 103.481 188.519C103.992 188.519 104.474 188.578 104.927 188.698C105.38 188.813 105.799 188.974 106.185 189.183L105.583 190.542C105.297 190.381 104.979 190.243 104.63 190.128C104.281 190.008 103.906 189.948 103.505 189.948C103.135 189.948 102.825 190.034 102.575 190.206C102.33 190.378 102.208 190.623 102.208 190.94C102.208 191.107 102.247 191.258 102.325 191.394C102.409 191.524 102.547 191.657 102.739 191.792C102.932 191.927 103.195 192.084 103.528 192.261C103.888 192.459 104.208 192.667 104.489 192.886C104.771 193.104 104.992 193.357 105.153 193.644C105.315 193.925 105.396 194.266 105.396 194.667C105.396 195.276 105.252 195.792 104.966 196.214C104.685 196.631 104.284 196.948 103.763 197.167C103.242 197.381 102.627 197.487 101.919 197.487Z" fill="black"/>
</svg>
