<svg width="126" height="159" viewBox="0 0 126 159" fill="none" xmlns="http://www.w3.org/2000/svg">
<path d="M90.0914 64.2111C90.8014 63.2011 91.0314 61.9611 90.6914 60.6911C90.5314 60.0711 90.2214 59.4811 89.7914 58.9311L78.4314 44.6411C76.1514 41.7711 72.8814 39.9711 69.3014 39.5511C69.5614 38.7811 69.7014 37.9611 69.7014 37.1011V34.3811C70.5314 33.7111 70.9214 32.5111 70.7114 31.0611C70.4714 29.4011 69.5514 27.7211 68.1714 26.4411C67.8414 26.1411 67.4414 25.8111 66.9714 25.5111C67.3214 24.8411 67.5014 24.1111 67.5014 23.3611C67.5014 20.5911 65.0014 18.3311 61.9214 18.3311C58.8414 18.3311 56.3414 20.5911 56.3414 23.3611C56.3414 24.1111 56.5314 24.8411 56.8714 25.5111C56.4014 25.8111 56.0014 26.1311 55.6714 26.4411C54.2914 27.7211 53.3714 29.4011 53.1314 31.0611C52.9214 32.5011 53.3114 33.7111 54.1414 34.3811V37.1011C54.1414 37.9511 54.2814 38.7811 54.5414 39.5511C50.9514 39.9711 47.6914 41.7711 45.4114 44.6411L34.0514 58.9311C33.6214 59.4711 33.3214 60.0611 33.1514 60.6911C32.6314 62.6711 33.4714 64.5711 35.3614 65.6611C35.9714 66.0111 36.6114 66.1611 37.2414 66.1611C38.7714 66.1611 40.2814 65.3111 41.3114 64.3711C42.6814 63.1211 45.6014 60.4811 47.9514 58.3711C44.7114 70.1011 43.3214 90.1011 43.2614 91.0611C43.2414 91.3911 43.3514 91.7211 43.5814 91.9711C43.8114 92.2111 44.1314 92.3511 44.4614 92.3511H49.3614V100.711C49.3614 102.231 49.9614 103.651 51.0414 104.721C52.1014 105.771 53.5114 106.351 55.0014 106.351C55.0314 106.351 55.0514 106.351 55.0814 106.351C58.1514 106.311 60.6414 103.751 60.6414 100.651V92.3511H63.1914V100.651C63.1914 103.761 65.6914 106.311 68.7514 106.351C68.7814 106.351 68.8014 106.351 68.8314 106.351C70.3214 106.351 71.7314 105.771 72.7914 104.721C73.8714 103.651 74.4714 102.231 74.4714 100.711V92.3511H79.3714C79.7014 92.3511 80.0214 92.2111 80.2514 91.9711C80.4814 91.7311 80.6014 91.4011 80.5714 91.0611C80.5014 90.1011 79.1114 70.1011 75.8814 58.3711C78.2214 60.4811 81.1514 63.1211 82.5214 64.3711C83.0514 64.8511 83.6714 65.2811 84.3114 65.5811C83.5114 66.4811 83.0314 67.6711 83.0314 68.9711V70.0311C83.0314 70.701 83.5714 71.2411 84.2414 71.2411C84.9114 71.2411 85.4514 70.701 85.4514 70.0311V68.9711C85.4514 67.4711 86.6714 66.2611 88.1614 66.2611C89.6514 66.2611 90.8714 67.4811 90.8714 68.9711V105.141C90.8714 105.811 91.4114 106.351 92.0814 106.351C92.7514 106.351 93.2914 105.811 93.2914 105.141V68.9711C93.2914 66.8211 91.9614 64.9811 90.0914 64.2211V64.2111ZM56.5814 37.1011V34.9811C58.6514 34.8411 60.8014 33.5311 61.9314 32.7311C63.0614 33.5311 65.2114 34.8411 67.2814 34.9811V37.1011C67.2814 40.0511 64.8814 42.4511 61.9314 42.4511C58.9814 42.4511 56.5814 40.0511 56.5814 37.1011ZM58.7714 23.3711C58.7714 21.9311 60.1914 20.7611 61.9314 20.7611C63.6714 20.7611 65.0914 21.9311 65.0914 23.3711C65.0914 23.7611 64.9814 24.1511 64.7714 24.5011C63.9414 24.2511 63.0014 24.0911 61.9214 24.0911C60.8414 24.0911 59.9014 24.2511 59.0714 24.5011C58.8614 24.1511 58.7514 23.7611 58.7514 23.3711H58.7714ZM55.5514 31.4011C55.7114 30.3011 56.3714 29.1111 57.3414 28.2211C58.1814 27.4411 59.6614 26.5111 61.9414 26.5111C64.2214 26.5111 65.7014 27.4411 66.5414 28.2211C67.5014 29.1111 68.1714 30.3011 68.3314 31.4011C68.4314 32.0811 68.2714 32.4711 68.1614 32.5111C66.7014 32.9311 64.0414 31.3611 62.7114 30.2811C62.4314 30.0511 62.0714 29.9711 61.7314 30.0311C61.7314 30.0311 61.7314 30.0311 61.7214 30.0311C61.6914 30.0311 61.6614 30.0411 61.6214 30.0511C61.6214 30.0511 61.6114 30.0511 61.6014 30.0511C61.5714 30.0511 61.5314 30.0711 61.5014 30.0811C61.5014 30.0811 61.5014 30.0811 61.4914 30.0811C61.3814 30.1211 61.2714 30.1911 61.1814 30.2711C61.1514 30.2911 60.2314 31.0311 59.0414 31.6711C57.6414 32.4211 56.4714 32.7111 55.7214 32.5011C55.6114 32.4711 55.4614 32.0711 55.5514 31.3911V31.4011ZM58.2414 100.631C58.2414 102.421 56.8114 103.891 55.0614 103.921C54.1914 103.931 53.3714 103.601 52.7514 102.991C52.1314 102.381 51.7914 101.571 51.7914 100.701V92.3411H58.2314V100.641L58.2414 100.631ZM72.0714 100.701C72.0714 101.571 71.7314 102.381 71.1114 102.991C70.4914 103.601 69.6714 103.931 68.8014 103.921C67.0514 103.901 65.6214 102.421 65.6214 100.631V92.3311H72.0614V100.691L72.0714 100.701ZM74.0914 53.4711C74.0914 53.4711 74.0714 53.4611 74.0714 53.4511C74.0514 53.4311 74.0314 53.4211 74.0114 53.4011C74.0014 53.3911 73.9814 53.3811 73.9714 53.3711C73.9514 53.3611 73.9414 53.3511 73.9214 53.3411C73.9014 53.3311 73.8814 53.3211 73.8714 53.3111C73.8514 53.3111 73.8414 53.2911 73.8214 53.2911C73.8014 53.2811 73.7814 53.2711 73.7614 53.2611C73.7514 53.2611 73.7314 53.2511 73.7214 53.2411C73.7014 53.2411 73.6814 53.2211 73.6614 53.2211C73.6414 53.2211 73.6314 53.2211 73.6114 53.2111C73.5914 53.2111 73.5714 53.2011 73.5514 53.2011C73.5314 53.2011 73.5114 53.2011 73.4914 53.1911C73.4714 53.1911 73.4514 53.1911 73.4414 53.1911C73.4214 53.1911 73.4014 53.1911 73.3814 53.1911C73.3614 53.1911 73.3514 53.1911 73.3314 53.1911C73.3114 53.1911 73.2814 53.1911 73.2614 53.1911C73.2414 53.1911 73.2314 53.1911 73.2114 53.1911C73.1914 53.1911 73.1614 53.1911 73.1414 53.1911C73.1214 53.1911 73.1114 53.1911 73.0914 53.1911C73.0714 53.1911 73.0514 53.1911 73.0314 53.2011C73.0114 53.2011 72.9914 53.2011 72.9714 53.2211C72.9514 53.2211 72.9414 53.2211 72.9214 53.2411C72.9014 53.2411 72.8714 53.2611 72.8514 53.2711C72.8514 53.2711 72.8314 53.2711 72.8214 53.2811C72.8214 53.2811 72.8214 53.2811 72.8114 53.2811C72.7914 53.291 72.7614 53.3011 72.7414 53.3111C72.7314 53.3111 72.7114 53.3211 72.7014 53.3311C72.6814 53.3411 72.6614 53.3511 72.6414 53.3711C72.6214 53.3811 72.6114 53.3911 72.5914 53.4011C72.5814 53.4111 72.5614 53.4211 72.5514 53.4311C72.5314 53.4411 72.5114 53.4611 72.5014 53.4711C72.4914 53.4711 72.4814 53.4911 72.4714 53.5011C72.4514 53.5211 72.4314 53.5411 72.4114 53.5611C72.4114 53.5611 72.4114 53.5611 72.4014 53.5711C72.4014 53.5711 72.3914 53.5811 72.3814 53.5911C72.3614 53.6111 72.3514 53.6311 72.3314 53.6511C72.3214 53.6611 72.3114 53.6811 72.3014 53.6911C72.2914 53.7111 72.2814 53.7211 72.2714 53.7411C72.2614 53.7611 72.2514 53.7811 72.2414 53.7911C72.2414 53.8111 72.2214 53.8211 72.2214 53.8411C72.2114 53.8611 72.2014 53.8811 72.1914 53.9011C72.1914 53.9111 72.1814 53.9311 72.1714 53.9411C72.1714 53.9611 72.1514 53.9811 72.1514 54.0011C72.1514 54.0211 72.1514 54.0311 72.1414 54.0511C72.1414 54.0711 72.1314 54.0911 72.1314 54.1111C72.1314 54.1311 72.1314 54.1511 72.1214 54.1711C72.1214 54.1911 72.1214 54.2111 72.1214 54.2311C72.1214 54.2511 72.1214 54.2711 72.1214 54.2911C72.1214 54.3111 72.1214 54.3211 72.1214 54.3411C72.1214 54.3611 72.1214 54.3911 72.1214 54.4111C72.1214 54.4311 72.1214 54.4411 72.1214 54.4611C72.1214 54.4811 72.1214 54.5111 72.1214 54.5311C72.1214 54.5511 72.1214 54.5611 72.1214 54.5811C72.1214 54.6011 72.1214 54.6211 72.1314 54.6411C72.1314 54.6611 72.1314 54.6811 72.1514 54.7011C72.1514 54.7211 72.1514 54.7311 72.1714 54.7511C72.1714 54.7711 72.1914 54.8011 72.2014 54.8211C72.2014 54.8211 72.2014 54.8411 72.2014 54.8511C75.8214 63.3011 77.6914 84.4811 78.1114 89.9211H45.8114C46.2414 84.4811 48.1014 63.3011 51.7214 54.8511C51.7214 54.8511 51.7214 54.8311 51.7214 54.8211C51.7214 54.8011 51.7414 54.7711 51.7514 54.7511C51.7514 54.7311 51.7614 54.7211 51.7614 54.7011C51.7614 54.6811 51.7714 54.6611 51.7814 54.6411C51.7814 54.6211 51.7814 54.6011 51.7914 54.5811C51.7914 54.5611 51.7914 54.5511 51.7914 54.5311C51.7914 54.5111 51.7914 54.4811 51.7914 54.4611C51.7914 54.4411 51.7914 54.4311 51.7914 54.4111C51.7914 54.3911 51.7914 54.3611 51.7914 54.3411C51.7914 54.3211 51.7914 54.3111 51.7914 54.2911C51.7914 54.2711 51.7914 54.2511 51.7914 54.2311C51.7914 54.2111 51.7914 54.1911 51.7914 54.1711C51.7914 54.1511 51.7914 54.1311 51.7814 54.1111C51.7814 54.0911 51.7814 54.0711 51.7714 54.0511C51.7714 54.0311 51.7714 54.0211 51.7614 54.0011C51.7614 53.9811 51.7514 53.9611 51.7414 53.9411C51.7414 53.9311 51.7314 53.9111 51.7214 53.9011C51.7214 53.8811 51.7014 53.8611 51.6914 53.8411C51.6914 53.8211 51.6714 53.8111 51.6714 53.7911C51.6714 53.7711 51.6514 53.7511 51.6414 53.7411C51.6314 53.7211 51.6214 53.7111 51.6114 53.6911C51.6114 53.6811 51.5914 53.6611 51.5814 53.6511C51.5714 53.6311 51.5514 53.6111 51.5314 53.5911C51.5314 53.5911 51.5214 53.5711 51.5114 53.5711C51.5114 53.5711 51.5114 53.5711 51.5014 53.5611C51.4814 53.5411 51.4614 53.5211 51.4514 53.5011C51.4414 53.4911 51.4314 53.4811 51.4214 53.4711C51.4014 53.4511 51.3914 53.4411 51.3714 53.4311C51.3614 53.4211 51.3414 53.4111 51.3314 53.4011C51.3214 53.3911 51.3014 53.3811 51.2814 53.3711C51.2614 53.3611 51.2414 53.3411 51.2214 53.3311C51.2114 53.3311 51.1914 53.3211 51.1814 53.3111C51.1614 53.3011 51.1314 53.291 51.1114 53.2811C51.1114 53.2811 51.1114 53.2811 51.1014 53.2811C51.1014 53.2811 51.0814 53.2811 51.0714 53.2811C51.0514 53.2811 51.0214 53.2611 51.0014 53.2511C50.9814 53.2511 50.9714 53.2411 50.9514 53.2311C50.9314 53.2311 50.9114 53.2211 50.8914 53.2111C50.8714 53.2111 50.8514 53.2111 50.8314 53.2011C50.8114 53.2011 50.8014 53.2011 50.7814 53.2011C50.7614 53.2011 50.7314 53.2011 50.7114 53.2011C50.6914 53.2011 50.6814 53.2011 50.6614 53.2011C50.6414 53.2011 50.6114 53.2011 50.5914 53.2011C50.5714 53.2011 50.5614 53.2011 50.5414 53.2011C50.5214 53.2011 50.5014 53.2011 50.4714 53.2011C50.4514 53.2011 50.4314 53.2011 50.4214 53.2011C50.4014 53.2011 50.3814 53.2011 50.3614 53.2111C50.3414 53.2111 50.3214 53.2111 50.3014 53.2211C50.2814 53.2211 50.2714 53.2211 50.2514 53.2311C50.2314 53.2311 50.2114 53.2411 50.1914 53.2511C50.1714 53.2511 50.1614 53.2611 50.1414 53.2711C50.1214 53.2711 50.1014 53.2911 50.0814 53.3011C50.0614 53.3011 50.0514 53.3211 50.0314 53.3211C50.0114 53.3211 49.9914 53.3411 49.9814 53.3511C49.9614 53.361 49.9414 53.3711 49.9314 53.3911C49.9214 53.3911 49.9014 53.4111 49.8914 53.4211C49.8714 53.4411 49.8514 53.4511 49.8314 53.4711C49.8314 53.4711 49.8214 53.4811 49.8114 53.4911C49.7314 53.5611 42.2114 60.3211 39.7314 62.5911C38.9814 63.2811 37.5314 64.1011 36.6114 63.5711C36.1714 63.3211 35.1914 62.5911 35.5314 61.3111C35.6114 61.0111 35.7614 60.7211 35.9814 60.4411L47.3414 46.1511C49.4214 43.5311 52.5014 41.9911 55.8314 41.8811C57.2514 43.7011 59.4714 44.8711 61.9514 44.8711C64.4314 44.8711 66.6514 43.7011 68.0714 41.8811C71.4014 41.9811 74.4814 43.5211 76.5614 46.1511L87.9214 60.4411C88.1414 60.7211 88.2914 61.0111 88.3714 61.3111C88.7114 62.5911 87.7314 63.3111 87.2914 63.5711C86.3714 64.1011 84.9214 63.2711 84.1714 62.5911C81.6914 60.3211 74.1714 53.5611 74.0914 53.4911V53.4711Z" fill="black"/>
<rect x="2.5" y="1.83105" width="121" height="121" rx="6.5" stroke="black" stroke-width="3"/>
<path d="M0.0703125 153.331L6.19531 141.909H8.34375L9.64062 153.331H7.82812L7.50781 150.151H3.6875L2.04688 153.331H0.0703125ZM4.49219 148.542H7.38281L7.125 145.737C7.09896 145.388 7.07031 145.021 7.03906 144.636C7.00781 144.245 6.99219 143.875 6.99219 143.526H6.94531C6.8151 143.865 6.66406 144.216 6.49219 144.581C6.32031 144.94 6.13542 145.31 5.9375 145.69L4.49219 148.542ZM13.6562 153.487C13.2083 153.487 12.8021 153.381 12.4375 153.167C12.0781 152.953 11.7917 152.623 11.5781 152.175C11.3646 151.722 11.2578 151.141 11.2578 150.433C11.2578 149.839 11.3177 149.258 11.4375 148.69C11.5625 148.118 11.7422 147.581 11.9766 147.081C12.2109 146.576 12.4974 146.133 12.8359 145.753C13.1745 145.368 13.5573 145.068 13.9844 144.854C14.4167 144.636 14.8854 144.526 15.3906 144.526C15.7656 144.526 16.0859 144.591 16.3516 144.722C16.6172 144.852 16.8411 145.024 17.0234 145.237C17.2057 145.451 17.3594 145.683 17.4844 145.933H17.5547C17.5703 145.797 17.5885 145.625 17.6094 145.417C17.6354 145.203 17.6667 144.974 17.7031 144.729C17.7396 144.479 17.7839 144.237 17.8359 144.003L18.4375 141.175H20.2578L17.6797 153.331H16.25L16.4219 151.933H16.3672C16.138 152.224 15.888 152.487 15.6172 152.722C15.3516 152.956 15.0573 153.144 14.7344 153.284C14.4115 153.42 14.0521 153.487 13.6562 153.487ZM14.3672 151.995C14.612 151.995 14.8464 151.933 15.0703 151.808C15.2995 151.683 15.5104 151.511 15.7031 151.292C15.901 151.068 16.0807 150.813 16.2422 150.526C16.4036 150.235 16.5417 149.925 16.6562 149.597C16.7708 149.269 16.8594 148.935 16.9219 148.597C16.9844 148.258 17.0156 147.93 17.0156 147.612C17.0156 147.128 16.8984 146.743 16.6641 146.456C16.4349 146.164 16.0911 146.019 15.6328 146.019C15.3359 146.019 15.0599 146.102 14.8047 146.269C14.5495 146.435 14.3177 146.662 14.1094 146.948C13.901 147.235 13.7214 147.565 13.5703 147.94C13.4245 148.31 13.3125 148.706 13.2344 149.128C13.1562 149.55 13.1172 149.972 13.1172 150.394C13.1172 150.92 13.2214 151.318 13.4297 151.589C13.6432 151.86 13.9557 151.995 14.3672 151.995ZM22.9453 153.487C22.4818 153.487 22.0859 153.396 21.7578 153.214C21.4349 153.032 21.1875 152.769 21.0156 152.425C20.849 152.076 20.7656 151.659 20.7656 151.175C20.7656 150.961 20.7812 150.727 20.8125 150.472C20.849 150.211 20.8932 149.943 20.9453 149.667L22.0078 144.683H23.8359L22.7188 149.933C22.6823 150.136 22.651 150.321 22.625 150.487C22.6042 150.649 22.5938 150.797 22.5938 150.933C22.5938 151.282 22.6745 151.547 22.8359 151.729C23.0026 151.907 23.2604 151.995 23.6094 151.995C23.9844 151.995 24.349 151.854 24.7031 151.573C25.0625 151.287 25.388 150.873 25.6797 150.331C25.9714 149.789 26.1979 149.136 26.3594 148.37L27.1406 144.683H28.9531L27.125 153.331H25.6875L25.875 151.69H25.7969C25.5885 151.998 25.3464 152.289 25.0703 152.565C24.7943 152.836 24.4818 153.058 24.1328 153.229C23.7839 153.401 23.388 153.487 22.9453 153.487ZM29.7109 153.331L32.2969 141.175H34.1172L31.5391 153.331H29.7109ZM36.7969 153.487C36.1667 153.487 35.6536 153.347 35.2578 153.065C34.8672 152.779 34.6719 152.279 34.6719 151.565C34.6719 151.425 34.6797 151.271 34.6953 151.104C34.7161 150.933 34.7448 150.756 34.7812 150.573L35.7344 146.073H34.4844L34.6562 145.198L36.1328 144.597L37.1172 142.769H38.2656L37.8594 144.683H40.0625L39.7656 146.073H37.5703L36.6094 150.581C36.5833 150.69 36.5599 150.808 36.5391 150.933C36.5234 151.052 36.5156 151.162 36.5156 151.261C36.5156 151.495 36.5807 151.677 36.7109 151.808C36.8411 151.938 37.0391 152.003 37.3047 152.003C37.5078 152.003 37.7031 151.982 37.8906 151.94C38.0781 151.899 38.2839 151.839 38.5078 151.761V153.144C38.3151 153.232 38.0651 153.31 37.7578 153.378C37.4505 153.451 37.1302 153.487 36.7969 153.487ZM43.6719 153.472C43.0156 153.472 42.4427 153.336 41.9531 153.065C41.4635 152.795 41.0833 152.412 40.8125 151.917C40.5469 151.417 40.4141 150.826 40.4141 150.144C40.4141 149.565 40.474 149.003 40.5938 148.456C40.7188 147.909 40.901 147.399 41.1406 146.925C41.3802 146.451 41.6797 146.037 42.0391 145.683C42.3984 145.323 42.8151 145.045 43.2891 144.847C43.763 144.644 44.2943 144.542 44.8828 144.542C45.5547 144.542 46.1328 144.677 46.6172 144.948C47.1016 145.219 47.474 145.607 47.7344 146.112C47.9948 146.618 48.125 147.222 48.125 147.925C48.125 148.487 48.0651 149.037 47.9453 149.573C47.8307 150.11 47.6562 150.615 47.4219 151.089C47.1875 151.558 46.8906 151.972 46.5312 152.331C46.1771 152.685 45.7604 152.964 45.2812 153.167C44.8073 153.37 44.2708 153.472 43.6719 153.472ZM43.8047 151.972C44.0964 151.972 44.3672 151.907 44.6172 151.776C44.8724 151.641 45.1016 151.451 45.3047 151.206C45.5078 150.956 45.6797 150.662 45.8203 150.323C45.9661 149.979 46.0781 149.599 46.1562 149.183C46.2344 148.766 46.2734 148.321 46.2734 147.847C46.2734 147.529 46.2266 147.235 46.1328 146.964C46.0391 146.688 45.8828 146.466 45.6641 146.3C45.4505 146.128 45.1641 146.042 44.8047 146.042C44.4818 146.042 44.1849 146.12 43.9141 146.276C43.6484 146.427 43.4115 146.638 43.2031 146.909C43 147.18 42.8281 147.493 42.6875 147.847C42.5469 148.196 42.4401 148.571 42.3672 148.972C42.2943 149.368 42.2578 149.769 42.2578 150.175C42.2578 150.753 42.388 151.198 42.6484 151.511C42.9141 151.818 43.2995 151.972 43.8047 151.972ZM51.5078 153.487C50.9661 153.487 50.4922 153.44 50.0859 153.347C49.6849 153.258 49.3229 153.128 49 152.956V151.386C49.3333 151.584 49.7083 151.75 50.125 151.886C50.5469 152.016 50.9792 152.081 51.4219 152.081C51.7656 152.081 52.0651 152.034 52.3203 151.94C52.5755 151.847 52.7734 151.714 52.9141 151.542C53.0599 151.365 53.1328 151.151 53.1328 150.901C53.1328 150.719 53.0911 150.558 53.0078 150.417C52.9245 150.276 52.7812 150.133 52.5781 149.987C52.375 149.841 52.0938 149.667 51.7344 149.464C51.3542 149.25 51.0312 149.034 50.7656 148.815C50.5052 148.591 50.3047 148.344 50.1641 148.073C50.0286 147.802 49.9609 147.485 49.9609 147.12C49.9609 146.573 50.0859 146.107 50.3359 145.722C50.5911 145.331 50.9505 145.034 51.4141 144.831C51.8828 144.623 52.4349 144.519 53.0703 144.519C53.5807 144.519 54.0625 144.578 54.5156 144.698C54.9688 144.813 55.388 144.974 55.7734 145.183L55.1719 146.542C54.8854 146.381 54.5677 146.243 54.2188 146.128C53.8698 146.008 53.4948 145.948 53.0938 145.948C52.724 145.948 52.4141 146.034 52.1641 146.206C51.9193 146.378 51.7969 146.623 51.7969 146.94C51.7969 147.107 51.8359 147.258 51.9141 147.394C51.9974 147.524 52.1354 147.657 52.3281 147.792C52.5208 147.927 52.7839 148.084 53.1172 148.261C53.4766 148.459 53.7969 148.667 54.0781 148.886C54.3594 149.104 54.5807 149.357 54.7422 149.644C54.9036 149.925 54.9844 150.266 54.9844 150.667C54.9844 151.276 54.8411 151.792 54.5547 152.214C54.2734 152.631 53.8724 152.948 53.3516 153.167C52.8307 153.381 52.2161 153.487 51.5078 153.487ZM60.625 153.331L62.4609 144.683H63.8906L63.7031 146.315H63.7812C63.9844 146.008 64.2188 145.719 64.4844 145.448C64.7552 145.172 65.0599 144.948 65.3984 144.776C65.7422 144.604 66.1276 144.519 66.5547 144.519C67.1589 144.519 67.6198 144.685 67.9375 145.019C68.2604 145.352 68.4609 145.808 68.5391 146.386H68.6016C68.8151 146.052 69.0625 145.745 69.3438 145.464C69.6302 145.183 69.9505 144.956 70.3047 144.784C70.6641 144.607 71.0547 144.519 71.4766 144.519C72.1745 144.519 72.7031 144.722 73.0625 145.128C73.4219 145.534 73.6016 146.102 73.6016 146.831C73.6016 147.05 73.5859 147.274 73.5547 147.503C73.5286 147.732 73.487 147.969 73.4297 148.214L72.3516 153.331H70.5234L71.6406 148.081C71.6823 147.878 71.7135 147.696 71.7344 147.534C71.7604 147.368 71.7734 147.211 71.7734 147.065C71.7734 146.727 71.6927 146.469 71.5312 146.292C71.375 146.11 71.1354 146.019 70.8125 146.019C70.5417 146.019 70.2734 146.099 70.0078 146.261C69.7474 146.422 69.5 146.657 69.2656 146.964C69.0312 147.271 68.8229 147.644 68.6406 148.081C68.4583 148.513 68.3099 149.003 68.1953 149.55L67.3984 153.331H65.5781L66.6797 148.097C66.7266 147.888 66.7604 147.701 66.7812 147.534C66.8021 147.368 66.8125 147.222 66.8125 147.097C66.8125 146.748 66.737 146.482 66.5859 146.3C66.4401 146.112 66.2057 146.019 65.8828 146.019C65.612 146.019 65.3438 146.099 65.0781 146.261C64.8125 146.422 64.5625 146.659 64.3281 146.972C64.0938 147.284 63.8828 147.664 63.6953 148.112C63.5078 148.555 63.3542 149.063 63.2344 149.636L62.4531 153.331H60.625ZM77.6016 153.487C77.1589 153.487 76.7552 153.381 76.3906 153.167C76.0312 152.948 75.7448 152.615 75.5312 152.167C75.3177 151.714 75.2109 151.138 75.2109 150.44C75.2109 149.836 75.2734 149.248 75.3984 148.675C75.5286 148.102 75.7109 147.565 75.9453 147.065C76.1849 146.565 76.474 146.125 76.8125 145.745C77.151 145.36 77.5339 145.06 77.9609 144.847C78.388 144.628 78.849 144.519 79.3438 144.519C79.7188 144.519 80.0469 144.584 80.3281 144.714C80.6094 144.839 80.8464 145.008 81.0391 145.222C81.2318 145.435 81.388 145.672 81.5078 145.933H81.5781L82.0469 144.683H83.4531L81.6172 153.331H80.2188L80.3906 151.933H80.3281C80.1042 152.219 79.8542 152.479 79.5781 152.714C79.3073 152.948 79.0078 153.136 78.6797 153.276C78.3516 153.417 77.9922 153.487 77.6016 153.487ZM78.2734 151.995C78.638 151.995 78.987 151.86 79.3203 151.589C79.6536 151.313 79.9479 150.948 80.2031 150.495C80.4635 150.042 80.6562 149.545 80.7812 149.003C80.8438 148.743 80.8854 148.495 80.9062 148.261C80.9323 148.026 80.9453 147.792 80.9453 147.558C80.9453 147.104 80.8255 146.735 80.5859 146.448C80.3464 146.162 80.0182 146.019 79.6016 146.019C79.3151 146.019 79.0417 146.099 78.7812 146.261C78.526 146.422 78.2943 146.646 78.0859 146.933C77.8776 147.214 77.6953 147.539 77.5391 147.909C77.388 148.279 77.2708 148.677 77.1875 149.104C77.1094 149.526 77.0703 149.956 77.0703 150.394C77.0703 150.92 77.1745 151.318 77.3828 151.589C77.5964 151.86 77.8932 151.995 78.2734 151.995ZM83.5469 157.175C83.2812 157.175 83.0651 157.159 82.8984 157.128C82.7266 157.097 82.5703 157.06 82.4297 157.019V155.558C82.5703 155.589 82.7188 155.615 82.875 155.636C83.0312 155.662 83.2031 155.675 83.3906 155.675C83.8542 155.675 84.2422 155.534 84.5547 155.253C84.8724 154.977 85.1641 154.594 85.4297 154.104L85.8281 153.378L84.5312 144.683H86.3438L86.8594 148.901C86.8958 149.193 86.9245 149.506 86.9453 149.839C86.9714 150.172 86.9896 150.495 87 150.808C87.0104 151.115 87.0156 151.375 87.0156 151.589H87.0703C87.1432 151.412 87.2344 151.188 87.3438 150.917C87.4531 150.646 87.5755 150.357 87.7109 150.05C87.8464 149.743 87.9818 149.456 88.1172 149.19L90.4141 144.683H92.3906L86.9922 154.698C86.6953 155.25 86.375 155.711 86.0312 156.081C85.6927 156.451 85.3203 156.724 84.9141 156.901C84.5078 157.084 84.0521 157.175 83.5469 157.175ZM95.5938 153.472C94.9375 153.472 94.3646 153.336 93.875 153.065C93.3854 152.795 93.0052 152.412 92.7344 151.917C92.4688 151.417 92.3359 150.826 92.3359 150.144C92.3359 149.565 92.3958 149.003 92.5156 148.456C92.6406 147.909 92.8229 147.399 93.0625 146.925C93.3021 146.451 93.6016 146.037 93.9609 145.683C94.3203 145.323 94.737 145.045 95.2109 144.847C95.6849 144.644 96.2161 144.542 96.8047 144.542C97.4766 144.542 98.0547 144.677 98.5391 144.948C99.0234 145.219 99.3958 145.607 99.6562 146.112C99.9167 146.618 100.047 147.222 100.047 147.925C100.047 148.487 99.987 149.037 99.8672 149.573C99.7526 150.11 99.5781 150.615 99.3438 151.089C99.1094 151.558 98.8125 151.972 98.4531 152.331C98.099 152.685 97.6823 152.964 97.2031 153.167C96.7292 153.37 96.1927 153.472 95.5938 153.472ZM95.7266 151.972C96.0182 151.972 96.2891 151.907 96.5391 151.776C96.7943 151.641 97.0234 151.451 97.2266 151.206C97.4297 150.956 97.6016 150.662 97.7422 150.323C97.888 149.979 98 149.599 98.0781 149.183C98.1562 148.766 98.1953 148.321 98.1953 147.847C98.1953 147.529 98.1484 147.235 98.0547 146.964C97.9609 146.688 97.8047 146.466 97.5859 146.3C97.3724 146.128 97.0859 146.042 96.7266 146.042C96.4036 146.042 96.1068 146.12 95.8359 146.276C95.5703 146.427 95.3333 146.638 95.125 146.909C94.9219 147.18 94.75 147.493 94.6094 147.847C94.4688 148.196 94.362 148.571 94.2891 148.972C94.2161 149.368 94.1797 149.769 94.1797 150.175C94.1797 150.753 94.3099 151.198 94.5703 151.511C94.8359 151.818 95.2214 151.972 95.7266 151.972ZM101.156 153.331L102.992 144.683H104.422L104.234 146.315H104.32C104.544 145.982 104.786 145.68 105.047 145.409C105.312 145.138 105.607 144.922 105.93 144.761C106.253 144.599 106.612 144.519 107.008 144.519C107.148 144.519 107.294 144.529 107.445 144.55C107.602 144.565 107.737 144.589 107.852 144.62L107.453 146.339C107.339 146.308 107.214 146.282 107.078 146.261C106.943 146.24 106.799 146.229 106.648 146.229C106.305 146.229 105.982 146.31 105.68 146.472C105.378 146.633 105.104 146.857 104.859 147.144C104.615 147.43 104.404 147.766 104.227 148.151C104.049 148.532 103.911 148.946 103.812 149.394L102.984 153.331H101.156ZM111.336 153.487C110.674 153.487 110.096 153.362 109.602 153.112C109.112 152.857 108.732 152.485 108.461 151.995C108.195 151.5 108.062 150.896 108.062 150.183C108.062 149.474 108.164 148.784 108.367 148.112C108.57 147.435 108.87 146.826 109.266 146.284C109.661 145.743 110.143 145.313 110.711 144.995C111.279 144.677 111.924 144.519 112.648 144.519C113.534 144.519 114.198 144.719 114.641 145.12C115.089 145.516 115.312 146.042 115.312 146.698C115.312 147.146 115.211 147.555 115.008 147.925C114.805 148.295 114.495 148.615 114.078 148.886C113.667 149.151 113.143 149.357 112.508 149.503C111.878 149.649 111.135 149.722 110.281 149.722H109.93C109.924 149.8 109.919 149.881 109.914 149.964C109.909 150.042 109.906 150.12 109.906 150.198C109.906 150.776 110.057 151.232 110.359 151.565C110.661 151.894 111.102 152.058 111.68 152.058C112.117 152.058 112.521 152.003 112.891 151.894C113.26 151.784 113.674 151.62 114.133 151.401V152.847C113.711 153.05 113.284 153.209 112.852 153.323C112.419 153.433 111.914 153.487 111.336 153.487ZM110.156 148.394H110.422C111.057 148.394 111.609 148.334 112.078 148.214C112.547 148.089 112.909 147.907 113.164 147.667C113.419 147.422 113.547 147.125 113.547 146.776C113.547 146.506 113.461 146.295 113.289 146.144C113.122 145.987 112.872 145.909 112.539 145.909C112.211 145.909 111.888 146.011 111.57 146.214C111.253 146.412 110.969 146.698 110.719 147.073C110.469 147.443 110.281 147.883 110.156 148.394ZM118.414 153.487C117.872 153.487 117.398 153.44 116.992 153.347C116.591 153.258 116.229 153.128 115.906 152.956V151.386C116.24 151.584 116.615 151.75 117.031 151.886C117.453 152.016 117.885 152.081 118.328 152.081C118.672 152.081 118.971 152.034 119.227 151.94C119.482 151.847 119.68 151.714 119.82 151.542C119.966 151.365 120.039 151.151 120.039 150.901C120.039 150.719 119.997 150.558 119.914 150.417C119.831 150.276 119.688 150.133 119.484 149.987C119.281 149.841 119 149.667 118.641 149.464C118.26 149.25 117.938 149.034 117.672 148.815C117.411 148.591 117.211 148.344 117.07 148.073C116.935 147.802 116.867 147.485 116.867 147.12C116.867 146.573 116.992 146.107 117.242 145.722C117.497 145.331 117.857 145.034 118.32 144.831C118.789 144.623 119.341 144.519 119.977 144.519C120.487 144.519 120.969 144.578 121.422 144.698C121.875 144.813 122.294 144.974 122.68 145.183L122.078 146.542C121.792 146.381 121.474 146.243 121.125 146.128C120.776 146.008 120.401 145.948 120 145.948C119.63 145.948 119.32 146.034 119.07 146.206C118.826 146.378 118.703 146.623 118.703 146.94C118.703 147.107 118.742 147.258 118.82 147.394C118.904 147.524 119.042 147.657 119.234 147.792C119.427 147.927 119.69 148.084 120.023 148.261C120.383 148.459 120.703 148.667 120.984 148.886C121.266 149.104 121.487 149.357 121.648 149.644C121.81 149.925 121.891 150.266 121.891 150.667C121.891 151.276 121.747 151.792 121.461 152.214C121.18 152.631 120.779 152.948 120.258 153.167C119.737 153.381 119.122 153.487 118.414 153.487Z" fill="black"/>
</svg>
