<svg width="203" height="27" viewBox="0 0 203 27" fill="none" xmlns="http://www.w3.org/2000/svg">
<g clip-path="url(#clip0_247_36697)">
<path d="M10.9708 3.25488C11.1493 3.25488 11.3235 3.31597 11.4934 3.43378C11.6633 3.55159 11.7765 3.69121 11.8375 3.85265L16.1319 14.5471C16.1929 14.7085 16.2451 14.9092 16.2974 15.1579C16.3453 15.4066 16.3714 15.6204 16.3714 15.7993V23.086C16.3714 23.2649 16.3061 23.4176 16.1798 23.5485C16.0535 23.6794 15.8967 23.7405 15.7181 23.7405H12.9176C12.739 23.7405 12.5866 23.6751 12.4559 23.5485C12.3253 23.4176 12.2643 23.2649 12.2643 23.086V19.6521H4.0849V23.086C4.0849 23.2649 4.01957 23.4176 3.89326 23.5485C3.76696 23.6794 3.61016 23.7405 3.43159 23.7405H0.657214C0.478643 23.7405 0.326205 23.6751 0.195543 23.5485C0.0648816 23.4176 0.00390625 23.2649 0.00390625 23.086V15.7993C0.00390625 15.6204 0.0300385 15.4066 0.0779477 15.1579C0.125857 14.9092 0.182477 14.7041 0.243452 14.5471L4.50302 3.85265C4.58141 3.69557 4.70772 3.55595 4.87758 3.43378C5.04744 3.31597 5.22165 3.25488 5.40022 3.25488H10.9751H10.9708ZM4.23298 15.5593H12.1032L8.82355 7.34764H7.51258L4.23298 15.5593Z" fill="black"/>
<path d="M36.7586 6.71985C36.7586 6.89874 36.6933 7.0471 36.567 7.16927C36.4363 7.28708 36.2839 7.34816 36.1053 7.34816H31.0051V19.6526H36.1053C36.2839 19.6526 36.4363 19.7181 36.567 19.8446C36.6976 19.9755 36.7586 20.1282 36.7586 20.3071V23.0865C36.7586 23.2654 36.6933 23.4181 36.567 23.549C36.4407 23.6799 36.2839 23.741 36.1053 23.741H21.8545C21.6759 23.741 21.5235 23.6756 21.3928 23.549C21.2621 23.4181 21.2012 23.2654 21.2012 23.0865V20.3071C21.2012 20.1282 21.2665 19.9755 21.3928 19.8446C21.5191 19.7137 21.6759 19.6526 21.8545 19.6526H26.9241V7.34816H21.8545C21.6759 7.34816 21.5235 7.28708 21.3928 7.16927C21.2621 7.05146 21.2012 6.89874 21.2012 6.71985V3.91426C21.2012 3.73536 21.2665 3.58265 21.3928 3.45175C21.5191 3.32085 21.6759 3.25977 21.8545 3.25977H36.1053C36.2839 3.25977 36.4363 3.32521 36.567 3.45175C36.6976 3.58265 36.7586 3.73536 36.7586 3.91426V6.71985Z" fill="black"/>
<path d="M57.6291 23.1476C57.7075 23.3091 57.7075 23.4443 57.6291 23.5665C57.5507 23.6843 57.42 23.7454 57.2414 23.7454H54.0533C53.8747 23.7454 53.7005 23.6843 53.5306 23.5665C53.3608 23.4487 53.2388 23.3091 53.1561 23.1476L49.7284 15.5599H45.6735V23.0865C45.6735 23.2654 45.6082 23.4181 45.4819 23.549C45.3556 23.6799 45.1988 23.741 45.0202 23.741H42.2197C42.0411 23.741 41.8887 23.6756 41.758 23.549C41.6274 23.4181 41.5664 23.2654 41.5664 23.0865V3.91426C41.5664 3.73536 41.6317 3.58265 41.758 3.45175C41.8843 3.32085 42.0411 3.25977 42.2197 3.25977H52.6552C53.3913 3.25977 54.0751 3.39939 54.7109 3.67864C55.3468 3.95789 55.9043 4.3375 56.3791 4.81309C56.8538 5.28869 57.2327 5.84719 57.5115 6.48423C57.7902 7.12127 57.9296 7.81067 57.9296 8.5437V10.2759C57.9296 10.8737 57.8338 11.4453 57.6465 11.9951C57.4592 12.5448 57.1935 13.0422 56.8582 13.4873C56.5184 13.9367 56.1177 14.3207 55.6517 14.6392C55.1857 14.9577 54.6718 15.1977 54.1143 15.3548L57.6334 23.152L57.6291 23.1476ZM52.6509 11.4715C52.9906 11.4715 53.2737 11.358 53.5002 11.1268C53.7266 10.8955 53.8442 10.6163 53.8442 10.2759V8.5437C53.8442 8.20337 53.731 7.91975 53.5002 7.69286C53.2737 7.46597 52.9862 7.34816 52.6509 7.34816H45.6735V11.4715H52.6509Z" fill="black"/>
<path d="M78.3795 6.71985C78.3795 6.89874 78.3185 7.0471 78.2009 7.16927C78.0833 7.28708 77.9309 7.34816 77.7523 7.34816H66.7201V11.4715H76.707C76.8856 11.4715 77.038 11.5326 77.1687 11.6504C77.2993 11.7682 77.3603 11.9209 77.3603 12.0998V14.9054C77.3603 15.0843 77.295 15.237 77.1687 15.3679C77.038 15.4988 76.8856 15.5599 76.707 15.5599H66.7201V19.6526H77.7523C77.9309 19.6526 78.079 19.7181 78.2009 19.8446C78.3185 19.9755 78.3795 20.1282 78.3795 20.3071V23.0865C78.3795 23.2654 78.3185 23.4181 78.2009 23.549C78.0833 23.6799 77.9309 23.741 77.7523 23.741H63.2619C63.0834 23.741 62.9353 23.6756 62.8133 23.549C62.6957 23.4181 62.6348 23.2654 62.6348 23.0865V3.91426C62.6348 3.73536 62.6957 3.58265 62.8133 3.45175C62.9309 3.32085 63.0834 3.25977 63.2619 3.25977H77.7523C77.9309 3.25977 78.079 3.32521 78.2009 3.45175C78.3185 3.58265 78.3795 3.73536 78.3795 3.91426V6.71985Z" fill="black"/>
<path d="M92.6621 0C92.8406 0 92.9931 0.0654493 93.1237 0.191984C93.2544 0.322883 93.3154 0.475598 93.3154 0.654493V26.3717C93.3154 26.5506 93.25 26.6989 93.1237 26.8211C92.9931 26.9389 92.8406 27 92.6621 27H89.8877C89.7091 27 89.5567 26.9389 89.426 26.8211C89.2954 26.7033 89.2344 26.5506 89.2344 26.3717V0.658856C89.2344 0.479961 89.2997 0.327246 89.426 0.196348C89.5567 0.0654492 89.7091 0.00436328 89.8877 0.00436328H92.6621V0Z" fill="black"/>
<path d="M119.342 23.7454H105.388C105.209 23.7454 105.057 23.6799 104.926 23.5534C104.795 23.4225 104.734 23.2698 104.734 23.0909V3.91426C104.734 3.73536 104.8 3.58265 104.926 3.45175C105.052 3.32085 105.209 3.25977 105.388 3.25977H108.162C108.341 3.25977 108.493 3.32521 108.624 3.45175C108.754 3.58265 108.82 3.73536 108.82 3.91426V19.6526H119.342C119.521 19.6526 119.669 19.7181 119.791 19.8446C119.909 19.9755 119.97 20.1282 119.97 20.3071V23.0865C119.97 23.2654 119.909 23.4181 119.791 23.549C119.673 23.6799 119.521 23.741 119.342 23.741V23.7454Z" fill="black"/>
<path d="M140.632 6.71985C140.632 6.89874 140.566 7.0471 140.44 7.16927C140.309 7.28708 140.157 7.34816 139.978 7.34816H134.878V19.6526H139.978C140.157 19.6526 140.309 19.7181 140.44 19.8446C140.571 19.9755 140.632 20.1282 140.632 20.3071V23.0865C140.632 23.2654 140.566 23.4181 140.44 23.549C140.314 23.6799 140.157 23.741 139.978 23.741H125.728C125.549 23.741 125.397 23.6756 125.266 23.549C125.135 23.4181 125.074 23.2654 125.074 23.0865V20.3071C125.074 20.1282 125.14 19.9755 125.266 19.8446C125.392 19.7137 125.549 19.6526 125.728 19.6526H130.797V7.34816H125.728C125.549 7.34816 125.397 7.28708 125.266 7.16927C125.135 7.05146 125.074 6.89874 125.074 6.71985V3.91426C125.074 3.73536 125.14 3.58265 125.266 3.45175C125.392 3.32085 125.549 3.25977 125.728 3.25977H139.978C140.157 3.25977 140.309 3.32521 140.44 3.45175C140.571 3.58265 140.632 3.73536 140.632 3.91426V6.71985Z" fill="black"/>
<path d="M156.519 3.25488C157.233 3.25488 157.908 3.39451 158.544 3.67376C159.18 3.95301 159.738 4.33261 160.212 4.80821C160.687 5.28381 161.066 5.84231 161.345 6.47935C161.623 7.11639 161.763 7.80579 161.763 8.53882V10.271C161.763 10.8906 161.663 11.4666 161.467 12.0033C161.266 12.5399 161.001 13.0374 160.661 13.4955C161.001 13.9537 161.266 14.4511 161.467 14.9878C161.667 15.5244 161.763 16.1048 161.763 16.72V18.4522C161.763 19.1896 161.623 19.8746 161.345 20.5117C161.066 21.1487 160.687 21.7072 160.212 22.1828C159.738 22.6584 159.18 23.038 158.544 23.3173C157.908 23.5965 157.233 23.7361 156.519 23.7361H146.053C145.874 23.7361 145.726 23.6707 145.604 23.5442C145.487 23.4133 145.426 23.2605 145.426 23.0816V3.91374C145.426 3.73484 145.487 3.58213 145.604 3.45123C145.722 3.32033 145.874 3.25925 146.053 3.25925H156.519V3.25488ZM149.511 11.4404H156.519C156.837 11.4404 157.111 11.3313 157.338 11.1132C157.564 10.895 157.682 10.6157 157.682 10.2754V8.54318C157.682 8.20285 157.569 7.91923 157.338 7.69234C157.111 7.46545 156.837 7.34764 156.519 7.34764H149.511V11.4404ZM157.682 16.7287C157.682 16.3884 157.569 16.1135 157.338 15.891C157.111 15.6728 156.837 15.5637 156.519 15.5637H149.511V19.6565H156.519C156.837 19.6565 157.111 19.543 157.338 19.3118C157.564 19.0849 157.682 18.8013 157.682 18.4609V16.7287Z" fill="black"/>
<path d="M182.246 23.1476C182.325 23.3091 182.325 23.4443 182.246 23.5665C182.168 23.6843 182.037 23.7454 181.859 23.7454H178.67C178.492 23.7454 178.318 23.6843 178.148 23.5665C177.978 23.4487 177.856 23.3091 177.773 23.1476L174.346 15.5599H170.291V23.0865C170.291 23.2654 170.225 23.4181 170.099 23.549C169.973 23.6799 169.816 23.741 169.637 23.741H166.837C166.658 23.741 166.506 23.6756 166.375 23.549C166.245 23.4181 166.184 23.2654 166.184 23.0865V3.91426C166.184 3.73536 166.249 3.58265 166.375 3.45175C166.502 3.32085 166.658 3.25977 166.837 3.25977H177.272C178.008 3.25977 178.692 3.39939 179.328 3.67864C179.964 3.95789 180.522 4.3375 180.996 4.81309C181.471 5.28869 181.85 5.84719 182.129 6.48423C182.407 7.12127 182.547 7.81067 182.547 8.5437V10.2759C182.547 10.8737 182.451 11.4453 182.264 11.9951C182.076 12.5448 181.811 13.0422 181.475 13.4873C181.136 13.9367 180.735 14.3207 180.269 14.6392C179.803 14.9577 179.289 15.1977 178.731 15.3548L182.251 23.152L182.246 23.1476ZM177.268 11.4715C177.608 11.4715 177.891 11.358 178.117 11.1268C178.344 10.8955 178.461 10.6163 178.461 10.2759V8.5437C178.461 8.20337 178.348 7.91975 178.117 7.69286C177.891 7.46597 177.603 7.34816 177.268 7.34816H170.291V11.4715H177.268Z" fill="black"/>
<path d="M202.999 6.71985C202.999 6.89874 202.938 7.0471 202.82 7.16927C202.702 7.28708 202.55 7.34816 202.371 7.34816H191.339V11.4715H201.326C201.505 11.4715 201.657 11.5326 201.788 11.6504C201.918 11.7682 201.984 11.9209 201.984 12.0998V14.9054C201.984 15.0843 201.918 15.237 201.788 15.3679C201.657 15.4988 201.505 15.5599 201.326 15.5599H191.339V19.6526H202.371C202.55 19.6526 202.698 19.7181 202.82 19.8446C202.938 19.9755 202.999 20.1282 202.999 20.3071V23.0865C202.999 23.2654 202.938 23.4181 202.82 23.549C202.702 23.6799 202.55 23.741 202.371 23.741H187.881C187.703 23.741 187.554 23.6756 187.432 23.549C187.315 23.4181 187.254 23.2654 187.254 23.0865V3.91426C187.254 3.73536 187.315 3.58265 187.432 3.45175C187.55 3.32085 187.703 3.25977 187.881 3.25977H202.371C202.55 3.25977 202.698 3.32521 202.82 3.45175C202.938 3.58265 202.999 3.73536 202.999 3.91426V6.71985Z" fill="black"/>
</g>
<defs>
<clipPath id="clip0_247_36697">
<rect width="203" height="27" fill="white"/>
</clipPath>
</defs>
</svg>
