<svg width="162" height="49" viewBox="0 0 162 49" fill="none" xmlns="http://www.w3.org/2000/svg">
<g clip-path="url(#clip0_247_36798)">
<path d="M40.2584 18.712C38.326 25.5307 32.2068 30.288 24.9602 30.4466C17.7137 30.288 11.5944 25.5307 9.66203 18.712C10.6282 19.822 12.0775 20.2977 13.5268 20.2977C14.9761 20.2977 16.4254 19.822 17.3916 18.712C18.3579 19.822 19.8072 20.2977 21.2565 20.2977C22.7058 20.2977 24.1551 19.822 25.1213 18.712C26.0875 19.822 27.5368 20.2977 28.9861 20.2977C30.4354 20.2977 31.8847 19.822 32.8509 18.712C33.8171 19.822 35.2664 20.2977 36.7157 20.2977C38.165 20.2977 39.2922 19.822 40.2584 18.712ZM40.4195 15.2233C40.4195 6.81877 33.495 0 24.9602 0C16.4254 0 9.50099 6.81877 9.50099 15.2233H23.3499C21.5785 14.589 20.4513 13.0032 20.4513 11.1003C20.4513 8.72168 22.5447 6.66019 24.9602 6.66019C27.3757 6.66019 29.4692 8.72168 29.4692 11.1003C29.4692 12.8447 28.3419 14.589 26.7316 15.2233H40.4195ZM25.9264 49C26.2485 35.9968 36.5547 24.7379 49.7594 24.2621C49.7594 37.424 39.2922 48.2071 25.9264 49ZM23.994 49C23.672 35.9968 13.3658 24.7379 0 24.2621C0.161034 37.424 10.6282 48.2071 23.994 49ZM85.67 1.11003H54.2684V47.89H85.67V40.5955H64.0915V28.068H85.67V20.6149H64.0915V8.24595H85.67V1.11003ZM97.4254 20.6149H107.087C110.308 20.6149 112.563 17.6019 112.563 14.4304C112.724 11.2589 110.308 8.72168 107.249 8.40453H98.2306V47.89H88.0855V1.11003H110.308C117.555 1.11003 122.869 7.2945 122.869 14.4304C122.869 21.5663 117.555 28.068 110.308 28.068H97.4254V20.6149ZM112.724 47.89H123.352L128.022 35.521H147.346L144.447 27.7508H130.759L137.523 9.99029L151.533 47.89H162L143.159 1.11003H131.082L112.724 47.89Z" fill="#0071BC"/>
</g>
<defs>
<clipPath id="clip0_247_36798">
<rect width="162" height="49" fill="white"/>
</clipPath>
</defs>
</svg>
