<svg width="240" height="242" viewBox="0 0 240 242" fill="none" xmlns="http://www.w3.org/2000/svg">
<g clip-path="url(#clip0_335_29434)">
<path d="M140.744 101.887H130.697L157.835 141.473L160.388 139.824L140.744 101.887Z" fill="#91BE7B"/>
<path d="M135.198 139.075C129.832 141.14 125.959 141.569 124.066 141.636V141.624C124.066 141.624 123.835 141.645 123.41 141.645C122.985 141.645 122.754 141.624 122.754 141.624V141.636C120.862 141.569 116.988 141.136 111.622 139.075C103.825 136.077 99.6283 129.479 99.6283 129.479L90.6328 141.027L91.23 142.074C91.8272 143.121 96.1798 146.422 96.1798 146.422L98.8797 143.722C98.8797 143.722 99.4811 144.471 100.978 145.371C102.48 146.271 105.028 147.919 105.028 147.919L103.678 151.216L105.625 152.268C107.572 153.319 110.722 154.068 110.722 154.068L112.072 150.619C112.072 150.619 113.124 150.771 115.672 151.368C118.221 151.969 119.869 151.818 119.869 151.818V156.015H126.955V151.818C126.955 151.818 128.604 151.969 131.152 151.368C133.701 150.766 134.752 150.619 134.752 150.619L136.102 154.068C136.102 154.068 139.252 153.319 141.199 152.268L143.15 151.216L141.8 147.919C141.8 147.919 144.349 146.271 145.85 145.371C147.347 144.471 147.949 143.722 147.949 143.722L150.649 146.422C150.649 146.422 154.997 143.121 155.598 142.074L156.2 141.027L147.204 129.479C147.204 129.479 143.003 136.077 135.211 139.075H135.198Z" fill="#91BE7B"/>
<path d="M106.07 101.887L86.4268 139.824L88.9753 141.473L116.117 101.887H106.07Z" fill="#91BE7B"/>
<path d="M117.913 130.226H109.069V135.773H122.75H124.062H137.746V130.226H128.898V99.9386H137.145V94.2402H124.062H122.75H109.667V99.9386H117.913V130.226Z" fill="#91BE7B"/>
<path d="M122.976 91.9905C122.976 91.9905 122.922 91.1073 123.372 91.1073H123.447C123.897 91.1073 123.843 91.9905 123.843 91.9905H136.4L132.413 82.3642C133.393 80.6863 133.961 78.7433 133.961 76.6574C133.961 70.875 129.638 66.1144 124.061 65.4457V65.3574C123.839 65.3574 123.624 65.3784 123.405 65.3911C123.187 65.3784 122.968 65.3574 122.749 65.3574V65.4457C117.177 66.1186 112.854 70.875 112.854 76.6574C112.854 78.7433 113.426 80.6905 114.406 82.3642L110.419 91.9905H122.976ZM123.41 71.3628C126.025 71.7076 128.061 73.9323 128.061 76.6574C128.061 79.3826 126.03 81.6073 123.41 81.9521C120.79 81.6073 118.758 79.3826 118.758 76.6574C118.758 73.9323 120.79 71.7076 123.41 71.3628Z" fill="#91BE7B"/>
<mask id="mask0_335_29434" style="mask-type:luminance" maskUnits="userSpaceOnUse" x="41" y="42" width="157" height="158">
<path d="M119.751 199.502C162.854 199.502 197.795 164.257 197.795 120.78C197.795 77.3035 162.854 42.0586 119.751 42.0586C76.6478 42.0586 41.7061 77.3035 41.7061 120.78C41.7061 164.257 76.6478 199.502 119.751 199.502Z" fill="white"/>
</mask>
<g mask="url(#mask0_335_29434)">
<path d="M118.628 35.9863H117.729V206.248H118.628V35.9863Z" fill="#91BE7B"/>
<path d="M116.828 35.9863H115.928V206.248H116.828V35.9863Z" fill="#91BE7B"/>
<path d="M115.028 35.9863H114.128V206.248H115.028V35.9863Z" fill="#91BE7B"/>
<path d="M113.228 35.9863H112.328V206.248H113.228V35.9863Z" fill="#91BE7B"/>
<path d="M111.432 35.9863H110.532V206.248H111.432V35.9863Z" fill="#91BE7B"/>
<path d="M109.632 35.9863H108.732V206.248H109.632V35.9863Z" fill="#91BE7B"/>
<path d="M107.833 35.9863H106.933V206.248H107.833V35.9863Z" fill="#91BE7B"/>
<path d="M106.033 35.9863H105.133V206.248H106.033V35.9863Z" fill="#91BE7B"/>
<path d="M104.233 35.9863H103.333V206.248H104.233V35.9863Z" fill="#91BE7B"/>
<path d="M102.433 35.9863H101.533V206.248H102.433V35.9863Z" fill="#91BE7B"/>
<path d="M100.633 35.9863H99.7334V206.248H100.633V35.9863Z" fill="#91BE7B"/>
<path d="M98.8375 35.9863H97.9375V206.248H98.8375V35.9863Z" fill="#91BE7B"/>
<path d="M97.0377 35.9863H96.1377V206.248H97.0377V35.9863Z" fill="#91BE7B"/>
<path d="M95.2379 35.9863H94.3379V206.248H95.2379V35.9863Z" fill="#91BE7B"/>
<path d="M93.4381 35.9863H92.5381V206.248H93.4381V35.9863Z" fill="#91BE7B"/>
<path d="M91.6373 35.9863H90.7373V206.248H91.6373V35.9863Z" fill="#91BE7B"/>
<path d="M89.8375 35.9863H88.9375V206.248H89.8375V35.9863Z" fill="#91BE7B"/>
<path d="M88.0377 35.9863H87.1377V206.248H88.0377V35.9863Z" fill="#91BE7B"/>
<path d="M86.2379 35.9863H85.3379V206.248H86.2379V35.9863Z" fill="#91BE7B"/>
<path d="M84.442 35.9863H83.542V206.248H84.442V35.9863Z" fill="#91BE7B"/>
<path d="M82.6422 35.9863H81.7422V206.248H82.6422V35.9863Z" fill="#91BE7B"/>
<path d="M80.8414 35.9863H79.9414V206.248H80.8414V35.9863Z" fill="#91BE7B"/>
<path d="M79.0416 35.9863H78.1416V206.248H79.0416V35.9863Z" fill="#91BE7B"/>
<path d="M77.2418 35.9863H76.3418V206.248H77.2418V35.9863Z" fill="#91BE7B"/>
<path d="M75.442 35.9863H74.542V206.248H75.442V35.9863Z" fill="#91BE7B"/>
<path d="M73.6422 35.9863H72.7422V206.248H73.6422V35.9863Z" fill="#91BE7B"/>
<path d="M70.0464 35.9863H69.1465V206.248H70.0464V35.9863Z" fill="#91BE7B"/>
<path d="M68.2466 35.9863H67.3467V206.248H68.2466V35.9863Z" fill="#91BE7B"/>
<path d="M66.4468 35.9863H65.5469V206.248H66.4468V35.9863Z" fill="#91BE7B"/>
<path d="M71.8463 35.9863H70.9463V206.248H71.8463V35.9863Z" fill="#91BE7B"/>
<path d="M64.647 35.9863H63.7471V206.248H64.647V35.9863Z" fill="#91BE7B"/>
<path d="M62.8472 35.9863H61.9473V206.248H62.8472V35.9863Z" fill="#91BE7B"/>
<path d="M61.0513 35.9863H60.1514V206.248H61.0513V35.9863Z" fill="#91BE7B"/>
<path d="M59.2515 35.9863H58.3516V206.248H59.2515V35.9863Z" fill="#91BE7B"/>
<path d="M57.4517 35.9863H56.5518V206.248H57.4517V35.9863Z" fill="#91BE7B"/>
<path d="M55.6509 35.9863H54.751V206.248H55.6509V35.9863Z" fill="#91BE7B"/>
<path d="M53.8511 35.9863H52.9512V206.248H53.8511V35.9863Z" fill="#91BE7B"/>
<path d="M52.0513 35.9863H51.1514V206.248H52.0513V35.9863Z" fill="#91BE7B"/>
<path d="M50.2515 35.9863H49.3516V206.248H50.2515V35.9863Z" fill="#91BE7B"/>
<path d="M48.4556 35.9863H47.5557V206.248H48.4556V35.9863Z" fill="#91BE7B"/>
<path d="M46.6558 35.9863H45.7559V206.248H46.6558V35.9863Z" fill="#91BE7B"/>
<path d="M44.856 35.9863H43.9561V206.248H44.856V35.9863Z" fill="#91BE7B"/>
<path d="M43.0562 35.9863H42.1562V206.248H43.0562V35.9863Z" fill="#91BE7B"/>
<path d="M196 35.9863H195.1V206.248H196V35.9863Z" fill="#91BE7B"/>
<path d="M194.199 35.9863H193.299V206.248H194.199V35.9863Z" fill="#91BE7B"/>
<path d="M192.399 35.9863H191.499V206.248H192.399V35.9863Z" fill="#91BE7B"/>
<path d="M190.599 35.9863H189.699V206.248H190.599V35.9863Z" fill="#91BE7B"/>
<path d="M188.799 35.9863H187.899V206.248H188.799V35.9863Z" fill="#91BE7B"/>
<path d="M187.003 35.9863H186.104V206.248H187.003V35.9863Z" fill="#91BE7B"/>
<path d="M185.204 35.9863H184.304V206.248H185.204V35.9863Z" fill="#91BE7B"/>
<path d="M183.404 35.9863H182.504V206.248H183.404V35.9863Z" fill="#91BE7B"/>
<path d="M181.604 35.9863H180.704V206.248H181.604V35.9863Z" fill="#91BE7B"/>
<path d="M179.804 35.9863H178.904V206.248H179.804V35.9863Z" fill="#91BE7B"/>
<path d="M178.004 35.9863H177.104V206.248H178.004V35.9863Z" fill="#91BE7B"/>
<path d="M176.205 35.9863H175.305V206.248H176.205V35.9863Z" fill="#91BE7B"/>
<path d="M174.404 35.9863H173.504V206.248H174.404V35.9863Z" fill="#91BE7B"/>
<path d="M172.609 35.9863H171.709V206.248H172.609V35.9863Z" fill="#91BE7B"/>
<path d="M170.809 35.9863H169.909V206.248H170.809V35.9863Z" fill="#91BE7B"/>
<path d="M169.008 35.9863H168.108V206.248H169.008V35.9863Z" fill="#91BE7B"/>
<path d="M167.209 35.9863H166.309V206.248H167.209V35.9863Z" fill="#91BE7B"/>
<path d="M165.409 35.9863H164.509V206.248H165.409V35.9863Z" fill="#91BE7B"/>
<path d="M163.609 35.9863H162.709V206.248H163.609V35.9863Z" fill="#91BE7B"/>
<path d="M161.809 35.9863H160.909V206.248H161.809V35.9863Z" fill="#91BE7B"/>
<path d="M160.013 35.9863H159.113V206.248H160.013V35.9863Z" fill="#91BE7B"/>
<path d="M158.212 35.9863H157.312V206.248H158.212V35.9863Z" fill="#91BE7B"/>
<path d="M156.414 35.9863H155.514V206.248H156.414V35.9863Z" fill="#91BE7B"/>
<path d="M154.614 35.9863H153.714V206.248H154.614V35.9863Z" fill="#91BE7B"/>
<path d="M152.813 35.9863H151.913V206.248H152.813V35.9863Z" fill="#91BE7B"/>
<path d="M151.013 35.9863H150.113V206.248H151.013V35.9863Z" fill="#91BE7B"/>
<path d="M147.418 35.9863H146.518V206.248H147.418V35.9863Z" fill="#91BE7B"/>
<path d="M145.618 35.9863H144.718V206.248H145.618V35.9863Z" fill="#91BE7B"/>
<path d="M143.818 35.9863H142.918V206.248H143.818V35.9863Z" fill="#91BE7B"/>
<path d="M149.213 35.9863H148.313V206.248H149.213V35.9863Z" fill="#91BE7B"/>
<path d="M142.018 35.9863H141.118V206.248H142.018V35.9863Z" fill="#91BE7B"/>
<path d="M140.218 35.9863H139.318V206.248H140.218V35.9863Z" fill="#91BE7B"/>
<path d="M138.419 35.9863H137.519V206.248H138.419V35.9863Z" fill="#91BE7B"/>
<path d="M136.623 35.9863H135.723V206.248H136.623V35.9863Z" fill="#91BE7B"/>
<path d="M134.823 35.9863H133.923V206.248H134.823V35.9863Z" fill="#91BE7B"/>
<path d="M133.022 35.9863H132.122V206.248H133.022V35.9863Z" fill="#91BE7B"/>
<path d="M131.222 35.9863H130.322V206.248H131.222V35.9863Z" fill="#91BE7B"/>
<path d="M129.422 35.9863H128.522V206.248H129.422V35.9863Z" fill="#91BE7B"/>
<path d="M127.623 35.9863H126.723V206.248H127.623V35.9863Z" fill="#91BE7B"/>
<path d="M125.823 35.9863H124.923V206.248H125.823V35.9863Z" fill="#91BE7B"/>
<path d="M124.027 35.9863H123.127V206.248H124.027V35.9863Z" fill="#91BE7B"/>
<path d="M122.227 35.9863H121.327V206.248H122.227V35.9863Z" fill="#91BE7B"/>
<path d="M120.427 35.9863H119.527V206.248H120.427V35.9863Z" fill="#91BE7B"/>
</g>
<path d="M136.319 99.7852H126.272L153.414 139.371L155.963 137.722L136.319 99.7852Z" fill="#F0ECEA"/>
<path d="M130.773 136.976C125.407 139.041 121.534 139.47 119.641 139.537V139.524C119.641 139.524 119.41 139.545 118.985 139.549C118.56 139.549 118.329 139.524 118.329 139.524V139.537C116.433 139.47 112.559 139.036 107.197 136.976C99.4005 133.977 95.2035 127.379 95.2035 127.379L86.208 138.927L86.8052 139.974C87.4024 141.026 91.755 144.323 91.755 144.323L94.4549 141.623C94.4549 141.623 95.0563 142.371 96.5534 143.271C98.0547 144.171 100.603 145.82 100.603 145.82L99.2533 149.121L101.2 150.172C103.148 151.22 106.297 151.972 106.297 151.972L107.647 148.52C107.647 148.52 108.699 148.671 111.247 149.272C113.796 149.87 115.444 149.722 115.444 149.722V153.919H122.526V149.722C122.526 149.722 124.179 149.874 126.727 149.272C129.276 148.671 130.327 148.52 130.327 148.52L131.677 151.972C131.677 151.972 134.827 151.224 136.778 150.172L138.726 149.121L137.376 145.82C137.376 145.82 139.924 144.171 141.425 143.271C142.927 142.371 143.528 141.623 143.528 141.623L146.228 144.323C146.228 144.323 150.577 141.021 151.178 139.974L151.775 138.927L142.78 127.379C142.78 127.379 138.583 133.977 130.786 136.976H130.773Z" fill="#F0ECEA"/>
<path d="M101.646 99.7852L82.002 137.722L84.5505 139.371L111.692 99.7852H101.646Z" fill="#F0ECEA"/>
<path d="M113.493 128.127H104.645V133.674H118.329H119.641H133.321V128.127H124.473V97.839H132.724V92.1406H119.641H118.329H105.246V97.839H113.493V128.127Z" fill="#F0ECEA"/>
<path d="M118.552 89.8909C118.552 89.8909 118.497 89.0077 118.947 89.0077H119.023C119.473 89.0077 119.418 89.8909 119.418 89.8909H131.975L127.989 80.2646C128.968 78.5867 129.54 76.6437 129.54 74.5578C129.54 68.7754 125.217 64.0148 119.641 63.3461V63.2578C119.418 63.2578 119.203 63.2788 118.985 63.2915C118.766 63.2788 118.552 63.2578 118.329 63.2578V63.3461C112.752 64.019 108.429 68.7754 108.429 74.5578C108.429 76.6437 109.001 78.5867 109.981 80.2646L105.994 89.8909H118.552ZM118.985 69.2632C121.605 69.608 123.632 71.8327 123.632 74.5578C123.632 77.283 121.601 79.5076 118.985 79.8525C116.365 79.5076 114.334 77.283 114.334 74.5578C114.334 71.8327 116.365 69.608 118.985 69.2632Z" fill="#F0ECEA"/>
<path d="M62.6226 133.28C62.6226 133.28 63.6866 98.4592 64.0861 92.8239C64.4856 87.1886 64.6202 81.1749 63.6866 80.5356C62.7572 79.8922 55.978 86.2971 55.4481 86.5536C54.9182 86.8102 59.6998 85.0186 60.3643 88.8582C61.0287 92.6978 60.2297 126.749 60.2297 126.749L62.6226 133.28Z" fill="#91BE7B"/>
<path d="M63.001 135.618L59.7796 126.824V126.74C59.788 126.4 60.5702 92.6887 59.9226 88.9333C59.6745 87.4992 58.7787 86.8053 57.1764 86.8053C56.512 86.8053 55.9106 86.9357 55.6541 86.9904C55.5279 87.0156 55.4774 87.0282 55.4101 87.0282H55.0527L54.8887 86.3301L55.2503 86.1493C55.3807 86.0694 56.0746 85.4722 56.7433 84.896C60.3852 81.7504 62.5426 80.043 63.514 80.043C63.678 80.043 63.821 80.085 63.943 80.1691C64.292 80.4088 65.3644 81.1448 64.536 92.8612C64.1449 98.4208 63.0851 132.947 63.0767 133.296L63.0052 135.622L63.001 135.618ZM60.6796 126.673L62.244 130.937C62.4879 123.048 63.2996 97.5166 63.636 92.7897C64.2542 84.0718 63.7958 81.2121 63.4257 80.9009C62.6898 80.9387 58.9343 84.1811 57.3278 85.5689C57.1848 85.6909 57.0587 85.8044 56.9367 85.9054C57.0124 85.9054 57.0923 85.9011 57.1722 85.9011C59.195 85.9011 60.4819 86.9231 60.8015 88.7777C61.4576 92.5584 60.73 124.373 60.6754 126.673H60.6796Z" fill="#F0ECEA"/>
<path d="M53.8551 94.875C53.8551 94.875 54.2547 102.171 57.577 113.951C60.8993 125.73 69.1419 148.642 69.1419 148.642L62.7623 142.497C62.7623 142.497 54.6542 123.935 52.2613 111.516C49.8684 99.0973 53.8594 94.875 53.8594 94.875H53.8551Z" fill="#91BE7B"/>
<path d="M70.214 150.299L62.3499 142.674C62.27 142.489 54.1913 123.922 51.8194 111.6C49.4097 99.1016 53.3628 94.7448 53.531 94.5639L54.2502 93.8027L54.3091 94.8499C54.3133 94.9214 54.7464 102.243 58.014 113.825C61.2943 125.453 69.4865 148.259 69.5664 148.486L70.2182 150.299H70.214ZM63.1363 142.233L68.0693 146.985C66.0591 141.337 59.8855 123.804 57.1393 114.069C54.6497 105.233 53.7918 98.8451 53.5184 96.2209C52.547 98.1049 51.0162 102.714 52.6984 111.428C54.9735 123.241 62.5475 140.878 63.1363 142.233Z" fill="#F0ECEA"/>
<path d="M103.655 79.9668C106.443 75.8707 111.099 70.7485 109.236 68.8308C107.377 66.9089 90.4964 70.6223 79.7262 80.0972C74.1162 85.0344 70.0243 88.1632 70.0243 88.1632L63.2451 104.291C63.2451 104.291 76.2147 85.0638 97.1368 74.5923C110.695 67.8047 103.651 79.9668 103.651 79.9668H103.655Z" fill="#91BE7B"/>
<path d="M63.6194 104.539L62.833 104.114L69.6584 87.8729L69.7552 87.8014C69.7972 87.772 73.8975 84.6263 79.4319 79.7564C88.1203 72.1151 101.3 67.8887 107.087 67.8887C108.34 67.8887 109.152 68.0947 109.56 68.5153C111.297 70.3068 108.698 73.8226 105.947 77.5486C105.279 78.457 104.61 79.3611 104.025 80.219L103.264 79.7396C103.975 78.5158 105.632 75.0253 104.816 73.6081C104.13 72.4221 101.485 72.9142 97.3387 74.9917C76.7656 85.2866 63.7456 104.35 63.6152 104.539H63.6194ZM70.3944 88.4407L65.0955 101.044C69.6753 95.1946 81.0846 82.1157 96.9392 74.1842C101.809 71.7451 104.61 71.4465 105.598 73.1581C106.09 74.0118 105.981 75.2356 105.657 76.4299C107.827 73.4777 110.048 70.3068 108.916 69.1419C108.836 69.0578 108.466 68.7886 107.091 68.7886C102.419 68.7886 89.2684 72.3044 80.0291 80.4293C74.9363 84.9081 71.0504 87.9402 70.3986 88.4407H70.3944Z" fill="#F0ECEA"/>
<path d="M69.2672 81.4386C69.2672 81.4386 78.8388 64.5411 99.7062 51.6094C99.7062 51.6094 71.6601 77.8513 66.6094 94.4923L69.2672 81.4344V81.4386Z" fill="#91BE7B"/>
<path d="M67.0385 94.6225L66.168 94.4038L68.8763 81.2156C68.973 81.0432 78.7422 64.07 99.4709 51.2266L100.018 51.9373C99.7358 52.198 72.0009 78.2886 67.0427 94.6225H67.0385ZM69.6921 81.5983L68.0478 89.6685C74.1667 76.9639 89.1928 61.3028 95.993 54.5741C78.7507 66.4671 70.3019 80.5553 69.6921 81.5983Z" fill="#F0ECEA"/>
<path d="M71.2608 82.3305C71.2608 82.3305 87.477 63.0023 115.389 54.6797C115.389 54.6797 78.3049 74.0079 67.0049 92.188L71.2608 82.3305Z" fill="#91BE7B"/>
<path d="M67.3876 92.427L66.5928 92.0107L70.916 82.0438C71.08 81.8503 87.5359 62.5137 115.262 54.25L115.599 55.0785C115.229 55.2719 78.4942 74.5623 67.3918 92.427H67.3876ZM71.6477 82.5737L69.1244 88.415C79.6002 75.13 101.67 61.845 110.939 56.6093C86.8924 65.1842 72.5224 81.5517 71.6435 82.5737H71.6477Z" fill="#F0ECEA"/>
<path d="M62.4884 103.583C62.4884 103.583 67.5391 75.2931 76.1771 62.3613L62.0889 114.458L62.4884 103.579V103.583Z" fill="#91BE7B"/>
<path d="M61.4961 118.379L62.0386 103.563C62.0975 103.218 67.2113 74.9658 75.803 62.1097L77.3296 59.8262L61.4961 118.379ZM74.9115 65.3227C67.4132 78.9105 62.9806 103.395 62.9302 103.66L62.682 110.544L74.9115 65.3227Z" fill="#F0ECEA"/>
<path d="M67.0546 110.881C67.3196 110.241 83.826 85.0381 101.682 77.0898C101.682 77.0898 74.6413 87.1451 63.5557 110.317L61.5413 113.955L61.2764 125.221L67.0546 110.881Z" fill="#91BE7B"/>
<path d="M60.7637 127.686L61.1464 113.741L63.1608 110.103C74.1832 87.0574 101.249 76.7709 101.523 76.6699L101.863 77.5026C83.9945 85.4551 67.5807 110.831 67.4671 111.066L60.7679 127.686H60.7637ZM61.9832 114.077L61.7772 122.757L66.6303 110.713C66.7102 110.52 78.1364 92.7095 92.5106 82.0487C83.6581 87.0616 70.7264 96.343 63.9514 110.511L61.979 114.077H61.9832Z" fill="#F0ECEA"/>
<path d="M62.7324 131.53C62.7324 131.53 68.9649 103.808 74.9534 102.542C80.9378 101.277 80.3659 112.106 80.3659 112.106C80.3659 112.106 76.3539 105.444 74.3058 109.498C72.2578 113.556 63.4389 138.549 63.4389 138.549L62.7324 131.53Z" fill="#91BE7B"/>
<path d="M63.1951 140.597L62.2783 131.505L62.2951 131.433C62.5517 130.289 68.6664 103.412 74.861 102.1C76.3792 101.781 77.6618 102.147 78.6417 103.181C81.1229 105.797 80.8327 111.874 80.8201 112.13L80.7444 113.594L79.9874 112.336C79.3692 111.31 77.4389 108.64 75.9923 108.64C75.8114 108.64 75.2521 108.64 74.718 109.704C72.7078 113.686 63.9647 138.448 63.8764 138.7L63.2077 140.601L63.1951 140.597ZM63.1867 131.559L63.6871 136.509C65.7983 130.567 72.1737 112.723 73.9064 109.296C74.4279 108.265 75.1259 107.74 75.9839 107.74C77.4726 107.74 78.9992 109.418 79.916 110.646C79.8529 108.736 79.5164 105.414 77.9857 103.799C77.2203 102.992 76.2614 102.727 75.046 102.983C70.3822 103.972 64.9235 123.876 63.1867 131.559Z" fill="#F0ECEA"/>
<path d="M74.1503 154.492C74.1503 154.492 72.0266 128.372 73.6162 124.024C75.2101 119.671 78.5324 126.072 78.5324 126.072C78.5324 126.072 77.8679 115.193 76.0091 114.166C74.1503 113.145 68.7001 117.367 68.8304 136.956L70.9542 153.21L74.1461 154.497L74.1503 154.492Z" fill="#91BE7B"/>
<path d="M74.6596 155.177L70.5467 153.52L68.3893 137.001C68.2799 121.353 71.7074 116.205 73.1877 114.717C74.1339 113.766 74.9287 113.564 75.4334 113.564C75.7236 113.564 75.9927 113.632 76.2324 113.762C78.209 114.851 78.8777 124.175 78.9912 126.038L79.1216 128.153L78.1459 126.273C77.4772 124.991 76.06 122.951 75.0928 122.951C74.6007 122.951 74.2517 123.615 74.0498 124.175C72.5064 128.384 74.5881 154.189 74.6091 154.45L74.668 155.177H74.6596ZM71.3709 152.885L73.6461 153.798C73.3096 149.462 71.72 127.897 73.1961 123.864C73.6377 122.661 74.2727 122.051 75.0843 122.051C76.1441 122.051 77.2081 123.208 77.9483 124.255C77.5782 120.062 76.7791 115.095 75.7951 114.557C75.6941 114.498 75.568 114.469 75.4292 114.469C75.16 114.469 74.5881 114.582 73.8227 115.356C72.4223 116.765 69.1799 121.689 69.285 136.947L71.3709 152.89V152.885Z" fill="#F0ECEA"/>
<path d="M74.7141 134.805C74.7141 134.805 77.3719 152.598 89.8663 166.678L77.9018 158.872C77.9018 158.872 74.18 146.197 74.7099 134.805H74.7141Z" fill="#91BE7B"/>
<path d="M92.4271 168.891L77.5188 159.159L77.4726 158.999C77.4347 158.873 73.7339 146.122 74.2638 134.785L75.1596 134.738C75.1848 134.915 77.9478 152.565 90.2025 166.38L92.4271 168.891ZM78.2884 158.587L87.5741 164.647C80.0757 155.185 76.581 144.558 75.1428 138.91C75.4498 148.183 77.9226 157.284 78.2926 158.587H78.2884Z" fill="#F0ECEA"/>
<path d="M100.64 177.053C100.64 177.053 87.7504 177.945 81.2362 177.179C74.7219 176.41 69.4062 174.618 69.4062 174.618C69.4062 174.618 83.4945 174.362 88.1457 174.492C92.8011 174.618 100.64 177.053 100.64 177.053Z" fill="#91BE7B"/>
<path d="M88.3013 177.941C85.3448 177.941 82.9519 177.836 81.1814 177.626C74.6966 176.86 69.3137 175.064 69.259 175.048L66.7988 174.219L69.3936 174.173C69.5071 174.173 83.5407 173.916 88.1541 174.047C92.8179 174.173 100.447 176.528 100.77 176.629L103.067 177.34L100.669 177.508C100.606 177.512 94.2688 177.949 88.3013 177.949V177.941ZM72.3963 175.018C74.5579 175.59 77.7582 176.318 81.2866 176.73C83.0192 176.936 85.3785 177.037 88.3013 177.037C91.8717 177.037 95.5725 176.881 97.9738 176.755C95.2907 176.032 91.0474 175.018 88.1372 174.938C84.8528 174.846 76.8078 174.951 72.4005 175.018H72.3963Z" fill="#F0ECEA"/>
<path d="M99.7106 175.519C99.7106 175.519 84.0285 172.188 78.4437 169.118C72.8588 166.044 59.3047 159.773 59.3047 159.773C59.3047 159.773 70.7351 170.401 78.3133 172.188C85.8915 173.979 99.7148 175.519 99.7148 175.519H99.7106Z" fill="#91BE7B"/>
<path d="M99.6602 175.965C99.5214 175.948 85.7234 174.405 78.2083 172.626C70.6048 170.826 59.4688 160.535 58.9978 160.102L56.9287 158.176L59.494 159.362C59.6286 159.425 73.1281 165.674 78.6624 168.719C84.1253 171.726 99.6518 175.044 99.8074 175.073L99.6644 175.961L99.6602 175.965ZM61.9626 161.506C65.6929 164.673 73.0818 170.489 78.4143 171.751C82.0436 172.609 87.1574 173.412 91.468 174.013C86.7369 172.781 81.1563 171.12 78.2251 169.509C74.2804 167.339 66.248 163.521 61.9626 161.511V161.506Z" fill="#F0ECEA"/>
<path d="M98.6465 170.783C98.6465 170.783 96.2536 162.204 93.9953 158.621C91.737 155.038 84.8232 148.764 84.8232 148.764C84.8232 148.764 88.011 156.317 91.3375 160.282C94.6598 164.252 98.6465 170.779 98.6465 170.779V170.783Z" fill="#91BE7B"/>
<path d="M99.9508 173.777L98.2645 171.019C98.2266 170.951 94.2567 164.471 90.9932 160.577C87.6625 156.602 84.5421 149.255 84.4117 148.94L83.6211 147.064L85.1308 148.435C85.4168 148.692 92.1161 154.79 94.3828 158.385C96.6496 161.985 98.9878 170.312 99.0887 170.665L99.9592 173.782L99.9508 173.777ZM86.1612 150.631C87.3429 153.141 89.4961 157.385 91.6829 159.992C93.6132 162.297 95.7832 165.488 97.2593 167.755C96.3594 164.954 94.9548 160.984 93.6174 158.857C92.0909 156.434 88.3396 152.708 86.1612 150.631Z" fill="#F0ECEA"/>
<path d="M94.1261 174.236C94.1261 174.236 76.1815 163.739 72.1947 160.156C68.208 156.573 56.378 146.454 54.6496 148.25C52.9212 150.042 53.7202 154.268 53.7202 154.268C53.7202 154.268 49.8638 142.619 53.0557 142.619C56.2477 142.619 68.4729 154.012 75.6516 160.03C82.8303 166.043 94.1261 174.24 94.1261 174.24V174.236Z" fill="#91BE7B"/>
<path d="M93.8994 174.628C93.1634 174.199 75.8664 164.068 71.8923 160.493C67.2747 156.342 57.8545 148.491 55.2514 148.491C55.1546 148.491 55.0327 148.503 54.9738 148.566C53.4262 150.173 54.1537 154.151 54.1621 154.189L53.2916 154.412C52.9762 153.457 50.2469 145.004 51.8491 142.784C52.1393 142.384 52.5557 142.17 53.0519 142.17C55.5247 142.17 61.9086 147.549 70.6559 155.148C72.5568 156.801 74.3693 158.369 75.9379 159.686C83.0241 165.624 94.2737 173.791 94.3872 173.879L93.8952 174.632L93.8994 174.628ZM55.2514 147.587C58.7881 147.587 71.1017 158.567 72.4937 159.82C74.6763 161.784 81.1947 165.905 86.5483 169.177C82.9568 166.465 78.6967 163.172 75.3576 160.375C73.7847 159.059 71.9722 157.482 70.0671 155.829C63.8683 150.446 55.3775 143.074 53.0519 143.074C52.8458 143.074 52.6986 143.15 52.5809 143.314C51.8618 144.31 52.3916 147.662 53.1655 150.749C53.3 149.71 53.6281 148.663 54.3219 147.944C54.5448 147.713 54.8602 147.591 55.2514 147.591V147.587Z" fill="#F0ECEA"/>
<path d="M46.8101 119.705C46.8101 119.705 72.9974 153.37 85.4918 162.588C97.9861 171.806 99.7104 175.52 99.7104 175.52C99.7104 175.52 69.4059 156.318 57.9755 141.342C46.5451 126.362 46.8101 119.709 46.8101 119.709V119.705Z" fill="#91BE7B"/>
<path d="M100.766 176.717L99.4708 175.897C99.168 175.704 68.9645 156.481 57.6182 141.61C46.2173 126.673 46.3518 119.965 46.3602 119.687L46.4107 118.455L47.1677 119.427C47.4284 119.763 73.4601 153.15 85.761 162.221C98.205 171.406 100.051 175.17 100.123 175.325L100.77 176.713L100.766 176.717ZM47.4705 121.273C48.0508 124.01 50.225 130.441 58.3331 141.064C67.8206 153.499 90.6814 169.051 97.8012 173.74C96.0644 171.78 92.4603 168.29 85.2227 162.949C74.2213 154.832 52.4245 127.551 47.4705 121.273Z" fill="#F0ECEA"/>
<path d="M101.634 186.696C102.235 187.238 103.934 187.894 107.378 188.374C110.823 188.853 114.145 189.122 114.275 188.521C114.402 187.924 115.6 179.622 116.021 178.819C116.437 178.016 116.05 177.124 116.05 177.124L110.289 175.9C110.289 175.9 105.982 180.615 104.935 182.049C103.884 183.483 100.528 185.695 101.634 186.692V186.696Z" fill="#91BE7B"/>
<path d="M134.73 186.806C134.112 187.34 132.379 187.971 128.918 188.396C125.457 188.821 122.122 189.035 122.017 188.438C121.916 187.841 121.062 179.522 120.675 178.711C120.288 177.903 120.713 177.016 120.713 177.016L126.525 175.885C126.525 175.885 130.634 180.662 131.626 182.113C132.615 183.56 135.882 185.826 134.734 186.806H134.73Z" fill="#91BE7B"/>
<path d="M145.294 71.8333C145.294 71.8333 142.367 72.4977 140.467 74.3229C138.57 76.1481 136.846 77.477 136.846 77.477C136.846 77.477 142.851 79.0456 147.364 79.6344C151.653 80.1937 156.157 77.805 158.571 74.8191C160.985 71.8291 153.398 70.0039 153.398 70.0039C153.398 70.0039 147.881 70.5044 145.294 71.8291V71.8333Z" fill="#F0ECEA"/>
<path d="M148.637 80.6186C148.174 80.6186 147.708 80.5891 147.245 80.5303C142.724 79.9415 136.866 78.4149 136.614 78.3519C136.281 78.2635 136.029 77.9986 135.962 77.6622C135.895 77.3257 136.025 76.9809 136.294 76.7706C136.311 76.758 138.006 75.4459 139.839 73.6796C141.698 71.8881 144.385 71.1353 144.978 70.9881C147.72 69.634 153.082 69.1377 153.309 69.1167C153.406 69.1125 153.507 69.1167 153.599 69.1377C154.495 69.3522 159.008 70.5508 159.811 72.91C160.009 73.4904 160.072 74.3903 159.264 75.3954C156.699 78.5747 152.523 80.627 148.633 80.627L148.637 80.6186ZM138.8 77.0355C140.903 77.5402 144.533 78.3603 147.476 78.743C151.673 79.2855 155.845 76.7538 157.868 74.2515C158.221 73.81 158.146 73.5745 158.112 73.4777C157.763 72.4558 155.109 71.3666 153.33 70.9124C152.451 71.0007 147.88 71.5138 145.706 72.6282C145.639 72.6619 145.567 72.6871 145.491 72.7039C145.466 72.7124 142.779 73.339 141.088 74.9665C140.247 75.7781 139.444 76.4888 138.8 77.0313V77.0355Z" fill="#91BE7B"/>
<path d="M148.915 71.0004C148.915 71.0004 146.328 65.8529 144.776 61.7022C143.225 57.5514 143.225 56.5547 143.225 56.5547C143.225 56.5547 152.704 57.5514 156.329 63.3633C161.211 71.1938 158.57 74.8189 158.57 74.8189C158.57 74.8189 152.018 73.49 148.915 71.0004Z" fill="#F0ECEA"/>
<path d="M158.57 75.7239C158.511 75.7239 158.452 75.7197 158.389 75.7071C158.112 75.6525 151.589 74.3025 148.351 71.7077C148.25 71.6278 148.17 71.5227 148.107 71.4092C148.002 71.1989 145.483 66.1734 143.931 62.0226C142.4 57.9265 142.32 56.7532 142.32 56.5597C142.32 56.3032 142.425 56.0635 142.619 55.8911C142.808 55.7187 143.06 55.6345 143.317 55.664C143.721 55.706 153.28 56.7784 157.09 62.8931C162.233 71.1442 159.42 75.1856 159.298 75.3539C159.125 75.5894 158.856 75.7239 158.57 75.7239ZM149.629 70.4209C152.001 72.225 156.388 73.3899 158.07 73.7894C158.486 72.6077 159.008 69.3695 155.563 63.8436C152.968 59.6802 146.963 58.1368 144.364 57.649C144.57 58.3891 144.94 59.575 145.617 61.3918C146.976 65.0211 149.163 69.4789 149.629 70.4209Z" fill="#91BE7B"/>
<path d="M150.983 63.1973C150.983 63.1973 153.881 65.8425 155.096 69.5222L150.983 63.1973Z" fill="#F0ECEA"/>
<path d="M155.1 70.4213C154.722 70.4213 154.373 70.1815 154.246 69.8031C153.119 66.4008 150.403 63.886 150.377 63.8608C150.012 63.5243 149.986 62.9566 150.323 62.5907C150.655 62.2248 151.227 62.1954 151.593 62.5318C151.719 62.6454 154.68 65.3789 155.954 69.2353C156.11 69.7063 155.853 70.2152 155.382 70.3708C155.285 70.4044 155.193 70.417 155.1 70.417V70.4213Z" fill="#91BE7B"/>
<path d="M147.552 76.1126C147.552 76.1126 151.223 74.75 155.471 74.3379L147.552 76.1126Z" fill="#F0ECEA"/>
<path d="M147.552 77.0119C147.186 77.0119 146.841 76.789 146.707 76.4231C146.534 75.9563 146.77 75.4391 147.237 75.2666C147.392 75.2078 151.068 73.8578 155.378 73.4415C155.879 73.3952 156.312 73.7569 156.363 74.2489C156.409 74.7452 156.047 75.1825 155.555 75.233C151.476 75.6283 147.901 76.9404 147.863 76.953C147.758 76.9909 147.653 77.0077 147.552 77.0077V77.0119Z" fill="#91BE7B"/>
<path d="M158.916 75.3211C158.916 75.3211 156.33 62.7006 136.846 65.8589C136.846 65.8589 142.708 70.8423 145.122 72.8315C147.536 74.8249 154.088 76.8183 158.916 75.3211Z" fill="#F0ECEA"/>
<path d="M155.16 76.7414C150.799 76.7414 146.442 75.0845 144.554 73.5243C142.14 71.5309 136.265 66.5432 136.265 66.5432C136 66.3161 135.887 65.9545 135.983 65.618C136.076 65.2816 136.362 65.0293 136.707 64.9704C138.83 64.6256 140.857 64.4531 142.737 64.4531C157.44 64.4531 159.778 75.034 159.803 75.1434C159.895 75.5975 159.631 76.0475 159.189 76.1821C157.982 76.5564 156.628 76.7456 155.164 76.7456L155.16 76.7414ZM138.965 66.4717C140.87 68.0866 144.07 70.7907 145.698 72.1365C147.372 73.5159 151.363 74.9415 155.16 74.9415C156.098 74.9415 156.981 74.8574 157.789 74.685C156.964 72.4098 153.713 66.2489 142.733 66.2489C141.539 66.2489 140.277 66.3245 138.961 66.4717H138.965Z" fill="#91BE7B"/>
<path d="M149.948 70.8379C149.948 70.8379 153.569 71.3383 158.052 75.1569L149.948 70.8379Z" fill="#F0ECEA"/>
<path d="M158.052 76.0525C157.846 76.0525 157.64 75.981 157.468 75.838C153.271 72.2634 149.856 71.7335 149.822 71.7251C149.33 71.6536 148.99 71.1994 149.061 70.7074C149.129 70.2153 149.566 69.8663 150.075 69.942C150.235 69.963 154.011 70.5223 158.641 74.4628C159.02 74.7866 159.066 75.3544 158.742 75.7329C158.566 75.9431 158.313 76.0483 158.057 76.0483L158.052 76.0525Z" fill="#91BE7B"/>
<path d="M162.086 84.7457C162.086 84.7457 159.226 83.8415 156.619 84.4471C154.011 85.0527 151.82 85.3176 151.82 85.3176C151.82 85.3176 156.093 89.6745 159.626 92.4417C162.982 95.0743 168.116 95.3014 171.796 93.964C175.472 92.6267 169.992 87.2563 169.992 87.2563C169.992 87.2563 165.017 84.9097 162.09 84.7415L162.086 84.7457Z" fill="#F0ECEA"/>
<path d="M167.052 95.6663C163.97 95.6663 161.131 94.7747 159.066 93.1514C155.529 90.3758 151.349 86.1283 151.177 85.9475C150.937 85.7036 150.857 85.3461 150.971 85.0223C151.084 84.6985 151.37 84.4672 151.711 84.4251C151.732 84.4251 153.889 84.156 156.417 83.5672C157.081 83.4116 157.805 83.3359 158.578 83.3359C160.328 83.3359 161.829 83.7312 162.246 83.8532C165.316 84.0761 170.164 86.347 170.371 86.4438C170.459 86.4858 170.543 86.5447 170.614 86.6162C171.258 87.2428 174.425 90.4978 173.899 92.9201C173.764 93.5299 173.348 94.3584 172.095 94.8084C170.556 95.3677 168.81 95.6621 167.048 95.6621L167.052 95.6663ZM153.721 85.9433C155.244 87.432 157.885 89.9385 160.177 91.7384C161.93 93.1136 164.369 93.8706 167.052 93.8706C168.608 93.8706 170.143 93.614 171.485 93.122C172.061 92.9117 172.12 92.6426 172.145 92.5417C172.372 91.4987 170.72 89.2698 169.471 88.0124C168.663 87.6423 164.495 85.7877 162.04 85.6447C161.964 85.6447 161.888 85.6279 161.817 85.6069C161.804 85.6027 160.311 85.1401 158.578 85.1401C157.943 85.1401 157.35 85.2032 156.825 85.3251C155.656 85.5985 154.575 85.8003 153.725 85.9433H153.721Z" fill="#91BE7B"/>
<path d="M165.624 85.8552C165.624 85.8552 166.209 80.1652 167.13 75.8462C168.055 71.523 168.593 70.6777 168.593 70.6777C168.593 70.6777 176.146 76.292 176.087 83.067C176.011 92.2012 171.798 93.9675 171.798 93.9675C171.798 93.9675 166.928 89.5434 165.628 85.8594L165.624 85.8552Z" fill="#F0ECEA"/>
<path d="M171.797 94.8623C171.574 94.8623 171.36 94.7823 171.192 94.6267C170.986 94.4417 166.137 90.0092 164.778 86.1486C164.732 86.0224 164.72 85.892 164.732 85.7575C164.757 85.522 165.329 79.9708 166.255 75.6518C167.167 71.3875 167.735 70.3529 167.84 70.1847C167.975 69.9744 168.193 69.8273 168.437 69.7852C168.681 69.7431 168.938 69.7978 169.135 69.9492C169.459 70.1889 177.054 75.9167 176.991 83.0702C176.911 92.688 172.34 94.7109 172.151 94.7908C172.037 94.837 171.919 94.8623 171.801 94.8623H171.797ZM166.545 85.7407C167.592 88.4658 170.691 91.6493 171.907 92.8268C172.903 92.0404 175.136 89.5466 175.187 83.0534C175.229 78.1961 170.923 73.8645 168.984 72.1613C168.753 72.8888 168.425 74.1 168.012 76.0303C167.209 79.7984 166.658 84.6851 166.545 85.7407Z" fill="#91BE7B"/>
<path d="M171.615 80.2344C171.615 80.2344 172.658 83.9478 171.704 87.6948L171.615 80.2344Z" fill="#F0ECEA"/>
<path d="M171.704 88.5954C171.629 88.5954 171.553 88.587 171.481 88.566C170.998 88.444 170.708 87.9562 170.83 87.4726C171.717 83.9989 170.754 80.5126 170.746 80.4747C170.611 79.9953 170.893 79.4991 171.368 79.3645C171.847 79.2341 172.344 79.5075 172.478 79.9869C172.52 80.1467 173.576 83.9779 172.571 87.9142C172.47 88.3221 172.104 88.5912 171.7 88.5912L171.704 88.5954Z" fill="#91BE7B"/>
<path d="M161.694 89.5293C161.694 89.5293 165.568 90.2148 169.411 91.9979L161.694 89.5293Z" fill="#F0ECEA"/>
<path d="M169.407 92.8941C169.281 92.8941 169.151 92.8689 169.033 92.81C165.349 91.0984 161.577 90.4171 161.535 90.4129C161.047 90.3288 160.719 89.862 160.807 89.37C160.891 88.8821 161.358 88.5499 161.846 88.6424C162.01 88.6719 165.883 89.3658 169.786 91.1783C170.236 91.3886 170.434 91.9227 170.223 92.3727C170.068 92.7007 169.744 92.8941 169.403 92.8941H169.407Z" fill="#91BE7B"/>
<path d="M171.818 94.5626C171.818 94.5626 176.448 82.4972 158.116 75.3984C158.116 75.3984 160.417 82.5982 161.396 85.5083C162.376 88.4227 166.885 93.4146 171.813 94.5626H171.818Z" fill="#F0ECEA"/>
<path d="M171.818 95.4627C171.75 95.4627 171.683 95.4543 171.612 95.4375C166.355 94.2095 161.624 88.9948 160.547 85.7944C159.563 82.8801 157.259 75.6719 157.259 75.6719C157.153 75.3397 157.246 74.9822 157.498 74.7425C157.751 74.5028 158.116 74.4313 158.44 74.5575C177.39 81.8918 172.705 94.752 172.659 94.8824C172.524 95.2357 172.184 95.4585 171.818 95.4585V95.4627ZM159.567 76.9714C160.316 79.3012 161.586 83.2459 162.255 85.2183C163.1 87.7289 166.994 92.0647 171.204 93.4525C171.797 90.8788 172.499 82.6782 159.567 76.9672V76.9714Z" fill="#91BE7B"/>
<path d="M166.596 86.2344C166.596 86.2344 169.413 88.4759 171.171 93.9892L166.596 86.2344Z" fill="#F0ECEA"/>
<path d="M171.171 94.8839C170.788 94.8839 170.435 94.64 170.313 94.2573C168.673 89.114 166.057 86.9524 166.032 86.9314C165.649 86.6202 165.586 86.0524 165.893 85.6655C166.204 85.2786 166.768 85.2156 167.155 85.5226C167.277 85.6193 170.208 87.9996 172.029 93.7064C172.18 94.1816 171.919 94.6862 171.444 94.8376C171.356 94.8671 171.259 94.8797 171.171 94.8797V94.8839Z" fill="#91BE7B"/>
<path d="M172.416 103.596C172.416 103.596 170.136 101.51 167.395 100.959C164.648 100.413 162.453 99.7188 162.453 99.7188C162.453 99.7188 164.468 105.669 166.52 109.808C168.471 113.735 173.215 116.162 177.311 116.482C181.403 116.801 178.716 109.37 178.716 109.37C178.716 109.37 175.103 105.013 172.412 103.596H172.416Z" fill="#F0ECEA"/>
<path d="M177.563 117.389C177.462 117.389 177.357 117.389 177.248 117.376C173.253 117.065 167.941 114.689 165.721 110.206C163.668 106.064 161.692 100.252 161.608 100.008C161.498 99.6883 161.578 99.3309 161.818 99.0912C162.053 98.8473 162.411 98.7632 162.731 98.8641C162.752 98.8725 164.913 99.5496 167.575 100.079C170.25 100.614 172.466 102.443 172.941 102.855C175.738 104.386 179.266 108.617 179.418 108.797C179.485 108.877 179.535 108.97 179.569 109.066C179.754 109.58 181.344 114.151 179.847 116.287C179.493 116.792 178.808 117.393 177.567 117.393L177.563 117.389ZM163.887 101.064C164.627 103.112 165.981 106.682 167.331 109.407C169.245 113.259 173.888 115.312 177.387 115.581L177.563 115.589C178.068 115.589 178.261 115.408 178.371 115.248C179.043 114.294 178.526 111.556 177.929 109.823C177.336 109.125 174.258 105.58 171.999 104.394C171.932 104.361 171.869 104.314 171.814 104.264C171.793 104.243 169.674 102.338 167.222 101.846C165.931 101.589 164.77 101.303 163.887 101.068V101.064Z" fill="#91BE7B"/>
<path d="M175.249 106.166C175.249 106.166 178.437 101.039 181.313 97.3555C184.19 93.6673 185.098 93.0996 185.098 93.0996C185.098 93.0996 189.628 101.653 186.431 108.029C182.121 116.621 177.318 116.482 177.318 116.482C177.318 116.482 174.77 110.207 175.253 106.17L175.249 106.166Z" fill="#F0ECEA"/>
<path d="M177.331 117.382H177.289C176.932 117.369 176.616 117.151 176.482 116.818C176.377 116.554 173.853 110.283 174.354 106.061C174.371 105.931 174.413 105.804 174.484 105.691C174.518 105.64 177.731 100.485 180.603 96.8048C183.433 93.1797 184.443 92.4479 184.615 92.3428C184.829 92.2082 185.086 92.1704 185.33 92.2377C185.57 92.3007 185.776 92.4647 185.893 92.6876C186.087 93.0535 190.599 101.725 187.231 108.441C182.87 117.138 177.882 117.39 177.331 117.39V117.382ZM176.124 106.469C175.847 109.505 177.314 113.879 177.907 115.506C179.211 115.22 182.487 113.879 185.628 107.63C187.937 103.025 185.843 97.0277 184.804 94.6095C184.249 95.1941 183.358 96.2076 182.024 97.915C179.505 101.145 176.705 105.548 176.124 106.473V106.469Z" fill="#91BE7B"/>
<path d="M183.514 103.434C183.514 103.434 182.778 107.391 180.133 110.524L183.514 103.434Z" fill="#F0ECEA"/>
<path d="M180.137 111.423C179.93 111.423 179.724 111.356 179.556 111.213C179.178 110.893 179.127 110.326 179.447 109.947C181.899 107.045 182.622 103.307 182.63 103.269C182.723 102.781 183.194 102.462 183.682 102.55C184.17 102.642 184.489 103.109 184.401 103.597C184.367 103.765 183.589 107.828 180.826 111.104C180.645 111.314 180.393 111.423 180.137 111.423Z" fill="#91BE7B"/>
<path d="M169.833 107.943C169.833 107.943 173.181 110.256 175.977 113.591L169.833 107.943Z" fill="#F0ECEA"/>
<path d="M175.978 114.496C175.721 114.496 175.464 114.387 175.284 114.177C172.596 110.968 169.354 108.71 169.32 108.689C168.912 108.407 168.811 107.848 169.093 107.435C169.375 107.027 169.934 106.922 170.342 107.208C170.481 107.305 173.82 109.626 176.667 113.02C176.983 113.399 176.932 113.966 176.554 114.286C176.385 114.425 176.184 114.496 175.978 114.496Z" fill="#91BE7B"/>
<path d="M177.063 117.057C177.063 117.057 187.03 107.649 173.005 93.0605C173.005 93.0605 171.844 100.849 171.423 104.024C170.999 107.195 172.942 113.852 177.063 117.057Z" fill="#F0ECEA"/>
<path d="M177.063 117.953C176.87 117.953 176.676 117.89 176.512 117.764C172.113 114.345 170.065 107.385 170.528 103.899C170.953 100.724 172.113 92.9225 172.113 92.9225C172.164 92.5818 172.404 92.3043 172.732 92.1992C173.06 92.0982 173.417 92.1865 173.653 92.4347C178.914 97.9101 181.521 103.327 181.395 108.542C181.256 114.274 177.829 117.571 177.681 117.709C177.509 117.873 177.286 117.953 177.063 117.953ZM173.619 95.0504C173.249 97.5569 172.605 101.947 172.315 104.134C171.945 106.88 173.627 112.675 176.975 115.796C177.854 114.694 179.519 112.133 179.595 108.457C179.687 104.176 177.677 99.6722 173.619 95.0504Z" fill="#91BE7B"/>
<path d="M175.99 106.939C175.99 106.939 177.614 110.274 176.718 116.233L175.99 106.939Z" fill="#F0ECEA"/>
<path d="M176.718 117.133C176.671 117.133 176.625 117.133 176.583 117.125C176.091 117.049 175.75 116.591 175.826 116.103C176.667 110.539 175.195 107.368 175.178 107.335C174.968 106.889 175.153 106.351 175.599 106.136C176.041 105.926 176.583 106.107 176.798 106.553C176.869 106.7 178.534 110.207 177.605 116.372C177.538 116.818 177.151 117.138 176.713 117.138L176.718 117.133Z" fill="#91BE7B"/>
<path d="M173.316 127.631C173.316 127.631 171.714 124.839 169.14 123.442C166.566 122.046 164.59 120.684 164.59 120.684C164.59 120.684 164.645 127.282 165.334 132.064C165.99 136.61 169.956 140.5 173.964 142.081C177.967 143.658 177.732 135.369 177.732 135.369C177.732 135.369 175.545 129.881 173.316 127.631Z" fill="#F0ECEA"/>
<path d="M174.918 143.178C174.51 143.178 174.077 143.09 173.635 142.913C169.732 141.378 165.195 137.366 164.446 132.189C163.756 127.399 163.698 120.961 163.693 120.692C163.693 120.355 163.874 120.044 164.173 119.888C164.471 119.729 164.829 119.754 165.102 119.943C165.123 119.956 167.075 121.302 169.573 122.651C172.083 124.01 173.702 126.529 174.039 127.08C176.339 129.473 178.48 134.809 178.572 135.036C178.61 135.133 178.631 135.238 178.635 135.343C178.648 135.861 178.728 140.436 176.894 142.325C176.352 142.884 175.666 143.182 174.922 143.182L174.918 143.178ZM165.527 122.365C165.59 124.624 165.762 128.72 166.225 131.933C166.868 136.399 170.859 139.89 174.295 141.24C174.527 141.332 174.733 141.378 174.918 141.378C175.183 141.378 175.393 141.282 175.603 141.067C176.659 139.978 176.852 136.803 176.84 135.554C176.478 134.679 174.556 130.158 172.68 128.266C172.626 128.211 172.575 128.148 172.537 128.081C172.521 128.055 171.023 125.486 168.715 124.233C167.457 123.551 166.347 122.883 165.527 122.365Z" fill="#91BE7B"/>
<path d="M175.304 131.088C175.304 131.088 180.207 126.916 184.316 124.098C188.429 121.281 189.522 120.986 189.522 120.986C189.522 120.986 191.238 130.966 185.918 136.391C178.74 143.696 173.966 142.081 173.966 142.081C173.966 142.081 173.487 134.995 175.304 131.088Z" fill="#F0ECEA"/>
<path d="M175.245 143.127C174.311 143.127 173.773 142.963 173.672 142.926C173.327 142.808 173.088 142.497 173.062 142.135C173.041 141.836 172.587 134.775 174.484 130.705C174.538 130.587 174.618 130.486 174.715 130.402C174.766 130.36 179.698 126.171 183.803 123.358C187.836 120.59 189.077 120.174 189.287 120.119C189.527 120.056 189.792 120.094 190.006 120.233C190.216 120.368 190.364 120.59 190.406 120.839C190.481 121.263 192.138 131.34 186.558 137.025C181.339 142.341 177.23 143.132 175.245 143.132V143.127ZM174.824 141.315C176.267 141.428 180.073 141.05 185.271 135.759C189.157 131.802 189.018 125.061 188.774 122.336C188.025 122.748 186.776 123.496 184.821 124.838C181.2 127.319 176.898 130.915 176.04 131.638C174.74 134.62 174.766 139.502 174.829 141.311L174.824 141.315Z" fill="#91BE7B"/>
<path d="M184.51 130.877C184.51 130.877 182.458 134.628 178.77 136.958L184.51 130.877Z" fill="#F0ECEA"/>
<path d="M178.77 137.859C178.471 137.859 178.181 137.711 178.013 137.438C177.744 137.022 177.874 136.462 178.29 136.197C181.743 134.011 183.703 130.478 183.724 130.44C183.963 130.003 184.51 129.843 184.943 130.087C185.381 130.322 185.54 130.869 185.301 131.307C185.212 131.466 183.093 135.289 179.253 137.72C179.102 137.817 178.938 137.859 178.774 137.859H178.77Z" fill="#91BE7B"/>
<path d="M169.274 131.205C169.274 131.205 171.865 134.553 173.572 138.766L169.274 131.205Z" fill="#F0ECEA"/>
<path d="M173.576 139.67C173.223 139.67 172.882 139.46 172.744 139.107C171.104 135.065 168.593 131.789 168.563 131.756C168.261 131.365 168.332 130.797 168.723 130.494C169.119 130.191 169.682 130.263 169.985 130.654C170.094 130.793 172.672 134.153 174.409 138.43C174.594 138.892 174.375 139.414 173.913 139.599C173.799 139.645 173.686 139.666 173.572 139.666L173.576 139.67Z" fill="#91BE7B"/>
<path d="M173.517 142.577C173.517 142.577 186.646 136.193 177.39 117.23C177.39 117.23 173.643 124.695 172.167 127.752C170.691 130.81 170.438 138.094 173.517 142.577Z" fill="#F0ECEA"/>
<path d="M173.517 143.477C173.227 143.477 172.949 143.338 172.777 143.086C169.496 138.309 169.74 130.709 171.355 127.358C172.835 124.3 176.587 116.827 176.587 116.827C176.738 116.52 177.049 116.331 177.39 116.331C177.76 116.314 178.046 116.529 178.197 116.836C181.633 123.867 182.47 130.049 180.691 135.205C178.689 141.004 174.101 143.292 173.908 143.385C173.782 143.448 173.647 143.477 173.517 143.477ZM177.356 119.304C176.166 121.685 174.009 125.999 172.974 128.144C171.658 130.873 171.414 137.156 173.82 141.366C176.233 139.81 183.601 133.649 177.36 119.304H177.356Z" fill="#91BE7B"/>
<path d="M175.792 132.09C175.792 132.09 176.318 135.938 173.441 141.649L175.792 132.09Z" fill="#F0ECEA"/>
<path d="M173.446 142.548C173.307 142.548 173.172 142.518 173.042 142.451C172.6 142.228 172.42 141.69 172.642 141.244C175.338 135.891 174.909 132.244 174.905 132.207C174.842 131.715 175.187 131.265 175.679 131.197C176.162 131.143 176.621 131.475 176.688 131.967C176.713 132.135 177.218 136.155 174.253 142.052C174.093 142.367 173.778 142.548 173.45 142.548H173.446Z" fill="#91BE7B"/>
<path d="M167.604 150.32C167.604 150.32 167.381 147.137 165.661 144.824C163.945 142.511 162.755 140.467 162.755 140.467C162.755 140.467 159.904 146.468 158.432 151.086C157.032 155.476 158.916 160.615 161.855 163.677C164.791 166.738 168.214 159.131 168.214 159.131C168.214 159.131 168.643 153.268 167.608 150.32H167.604Z" fill="#F0ECEA"/>
<path d="M163.353 165.3C162.566 165.3 161.843 164.964 161.204 164.299C158.336 161.314 155.977 155.817 157.575 150.813C159.051 146.191 161.822 140.333 161.94 140.084C162.083 139.786 162.381 139.584 162.718 139.571C163.05 139.555 163.365 139.731 163.534 140.017C163.542 140.038 164.72 142.048 166.389 144.29C168.071 146.548 168.433 149.488 168.5 150.135C169.535 153.248 169.135 158.954 169.114 159.198C169.106 159.303 169.081 159.404 169.039 159.501C168.601 160.468 166.28 165.305 163.357 165.305L163.353 165.3ZM162.869 142.368C161.936 144.437 160.283 148.243 159.286 151.359C157.915 155.666 159.989 160.439 162.503 163.055C162.932 163.505 163.248 163.505 163.353 163.505C164.631 163.505 166.414 160.864 167.327 158.904C167.386 157.966 167.63 153.096 166.759 150.619C166.734 150.548 166.717 150.464 166.709 150.388C166.709 150.354 166.478 147.427 164.943 145.367C164.101 144.235 163.391 143.171 162.873 142.372L162.869 142.368Z" fill="#91BE7B"/>
<path d="M167.89 154.26C167.89 154.26 174.16 152.477 179.122 151.598C184.085 150.719 185.208 150.9 185.208 150.9C185.208 150.9 182.386 160.644 175.178 163.39C165.467 167.091 161.851 163.68 161.851 163.68C161.851 163.68 164.521 157.065 167.89 154.264V154.26Z" fill="#F0ECEA"/>
<path d="M167.091 166.011C163.129 166.011 161.417 164.501 161.237 164.328C160.967 164.076 160.883 163.681 161.022 163.336C161.136 163.058 163.819 156.477 167.318 153.567C167.414 153.487 167.528 153.428 167.65 153.394C167.713 153.378 174.021 151.59 178.971 150.711C184.493 149.731 185.355 150.009 185.355 150.009C185.603 150.059 185.834 150.211 185.965 150.425C186.095 150.64 186.145 150.905 186.078 151.144C185.956 151.561 183.046 161.355 175.506 164.228C172.402 165.409 169.576 166.011 167.095 166.011H167.091ZM162.973 163.344C163.629 163.698 164.954 164.211 167.091 164.211C169.349 164.211 171.96 163.651 174.858 162.545C180.119 160.539 182.945 154.416 183.933 151.826C183.067 151.893 181.612 152.07 179.278 152.482C174.892 153.26 169.399 154.77 168.323 155.072C165.841 157.238 163.722 161.666 162.973 163.344Z" fill="#91BE7B"/>
<path d="M176.327 157.828C176.327 157.828 172.824 160.389 168.454 161.003L176.327 157.828Z" fill="#F0ECEA"/>
<path d="M168.454 161.902C168.012 161.902 167.625 161.579 167.562 161.129C167.495 160.637 167.836 160.182 168.328 160.111C172.428 159.535 175.763 157.125 175.796 157.1C176.196 156.81 176.759 156.894 177.054 157.297C177.344 157.697 177.26 158.26 176.856 158.555C176.709 158.664 173.122 161.255 168.58 161.894C168.538 161.902 168.492 161.902 168.454 161.902Z" fill="#91BE7B"/>
<path d="M162.373 151.918C162.373 151.918 163.252 156.01 162.949 160.522L162.373 151.918Z" fill="#F0ECEA"/>
<path d="M162.949 161.423C162.928 161.423 162.907 161.423 162.886 161.423C162.39 161.389 162.016 160.96 162.049 160.464C162.339 156.14 161.502 152.15 161.494 152.107C161.389 151.62 161.7 151.144 162.184 151.039C162.672 150.93 163.151 151.245 163.252 151.729C163.29 151.901 164.156 155.997 163.845 160.586C163.815 161.061 163.42 161.423 162.949 161.423Z" fill="#91BE7B"/>
<path d="M161.229 163.946C161.229 163.946 175.931 163.504 175.868 142.553C175.868 142.553 169.194 147.793 166.515 149.963C163.836 152.133 160.409 158.63 161.233 163.946H161.229Z" fill="#F0ECEA"/>
<path d="M161.228 164.846C160.787 164.846 160.408 164.522 160.341 164.085C159.466 158.424 163.016 151.637 165.947 149.265C168.63 147.091 175.312 141.847 175.312 141.847C175.586 141.636 175.952 141.594 176.263 141.741C176.574 141.893 176.768 142.204 176.768 142.549C176.835 164.127 161.414 164.838 161.258 164.842H161.228V164.846ZM174.93 144.433C172.806 146.102 168.958 149.139 167.078 150.661C164.685 152.596 161.708 158.176 162.027 162.962C164.917 162.529 174.278 159.93 174.934 144.437L174.93 144.433Z" fill="#91BE7B"/>
<path d="M167.894 155.373C167.894 155.373 166.687 159.07 161.569 163.082L167.894 155.373Z" fill="#F0ECEA"/>
<path d="M161.57 163.977C161.3 163.977 161.04 163.859 160.863 163.632C160.556 163.241 160.628 162.677 161.014 162.37C165.813 158.606 167.028 155.12 167.041 155.086C167.201 154.615 167.71 154.363 168.181 154.519C168.652 154.678 168.908 155.183 168.752 155.65C168.702 155.81 167.394 159.658 162.129 163.787C161.965 163.918 161.767 163.981 161.574 163.981L161.57 163.977Z" fill="#91BE7B"/>
<path d="M151.459 166.855C151.459 166.855 152.57 163.848 151.943 161.073C151.316 158.293 151.073 155.959 151.073 155.959C151.073 155.959 145.984 160.375 142.721 164.046C139.625 167.537 139.23 172.978 140.664 176.911C142.094 180.843 148.377 175.174 148.377 175.174C148.377 175.174 151.19 169.959 151.459 166.859V166.855Z" fill="#F0ECEA"/>
<path d="M142.544 179.193C141.249 179.193 140.286 178.487 139.819 177.212C138.419 173.373 138.52 167.422 142.048 163.444C145.307 159.772 150.27 155.458 150.48 155.277C150.732 155.054 151.09 154.995 151.401 155.117C151.712 155.239 151.931 155.525 151.964 155.857C151.964 155.882 152.217 158.179 152.818 160.87C153.428 163.587 152.549 166.434 152.339 167.048C152.002 170.299 149.281 175.379 149.164 175.593C149.117 175.682 149.05 175.766 148.974 175.833C148.592 176.178 145.177 179.193 142.536 179.193H142.544ZM150.408 157.75C148.701 159.289 145.602 162.153 143.398 164.638C140.357 168.066 140.29 173.238 141.514 176.594C141.77 177.297 142.161 177.393 142.548 177.393C144.138 177.393 146.674 175.467 147.666 174.601C148.104 173.768 150.341 169.382 150.568 166.775C150.577 166.695 150.593 166.615 150.619 166.543C150.627 166.514 151.624 163.742 151.069 161.265C150.766 159.92 150.551 158.683 150.408 157.75Z" fill="#91BE7B"/>
<path d="M150.092 170.576C150.092 170.576 156.581 171.346 161.497 172.435C166.413 173.528 167.368 174.126 167.368 174.126C167.368 174.126 160.753 181.981 153.006 181.742C142.564 181.418 140.659 176.901 140.659 176.901C140.659 176.901 145.844 171.855 150.088 170.576H150.092Z" fill="#F0ECEA"/>
<path d="M153.36 182.65H152.986C142.094 182.309 139.924 177.46 139.84 177.254C139.697 176.914 139.777 176.518 140.041 176.258C140.26 176.047 145.433 171.043 149.836 169.714C149.954 169.68 150.076 169.664 150.202 169.68C150.269 169.689 156.796 170.463 161.7 171.552C166.523 172.624 167.671 173.247 167.856 173.36C168.075 173.499 168.226 173.726 168.268 173.983C168.306 174.239 168.235 174.504 168.067 174.698C167.793 175.026 161.287 182.642 153.364 182.642L153.36 182.65ZM141.833 177.048C142.704 178.129 145.517 180.615 153.045 180.846H153.364C158.899 180.846 163.865 176.451 165.817 174.483C164.992 174.214 163.592 173.823 161.308 173.314C156.96 172.347 151.283 171.628 150.181 171.493C146.997 172.528 143.212 175.787 141.833 177.044V177.048Z" fill="#91BE7B"/>
<path d="M156.363 177.078C156.363 177.078 152.094 178.083 147.83 176.977L156.363 177.078Z" fill="#F0ECEA"/>
<path d="M152.187 178.398C150.795 178.398 149.205 178.263 147.599 177.847C147.115 177.725 146.829 177.233 146.956 176.749C147.078 176.27 147.574 175.98 148.053 176.106C152.057 177.14 156.115 176.207 156.153 176.202C156.636 176.093 157.12 176.387 157.238 176.871C157.351 177.355 157.053 177.843 156.569 177.952C156.451 177.981 154.635 178.398 152.187 178.398Z" fill="#91BE7B"/>
<path d="M146 166.316C146 166.316 145.117 170.408 142.977 174.433L146 166.316Z" fill="#F0ECEA"/>
<path d="M142.972 175.333C142.834 175.333 142.686 175.299 142.552 175.227C142.115 174.992 141.946 174.449 142.182 174.008C144.234 170.151 145.113 166.165 145.121 166.127C145.227 165.643 145.706 165.336 146.194 165.437C146.677 165.542 146.984 166.022 146.884 166.505C146.846 166.678 145.946 170.77 143.771 174.857C143.612 175.16 143.3 175.333 142.977 175.333H142.972Z" fill="#91BE7B"/>
<path d="M139.982 176.913C139.982 176.913 153.654 182.141 162.246 162.896C162.246 162.896 153.957 165.146 150.605 166.109C147.249 167.072 141.425 171.724 139.982 176.917V176.913Z" fill="#F0ECEA"/>
<path d="M144.247 178.461C141.543 178.461 139.738 177.784 139.658 177.755C139.225 177.591 138.99 177.124 139.116 176.674C140.651 171.148 146.698 166.291 150.357 165.244C153.717 164.281 162.01 162.027 162.01 162.027C162.347 161.934 162.704 162.043 162.931 162.308C163.154 162.573 163.209 162.943 163.07 163.263C157.166 176.485 148.742 178.461 144.247 178.461ZM141.126 176.312C141.82 176.476 142.909 176.666 144.247 176.666C148.948 176.666 155.488 174.462 160.597 164.281C157.952 165 153.196 166.303 150.853 166.976C147.859 167.834 142.829 171.8 141.126 176.312Z" fill="#91BE7B"/>
<path d="M149.642 171.6C149.642 171.6 147.005 174.531 140.655 176.247L149.642 171.6Z" fill="#F0ECEA"/>
<path d="M140.656 177.146C140.256 177.146 139.894 176.881 139.789 176.482C139.659 176.002 139.945 175.51 140.424 175.38C146.392 173.765 148.953 171.023 148.978 170.998C149.31 170.632 149.878 170.602 150.248 170.935C150.614 171.267 150.644 171.834 150.311 172.2C150.198 172.327 147.422 175.35 140.891 177.117C140.815 177.138 140.731 177.146 140.656 177.146Z" fill="#91BE7B"/>
<path d="M123.081 172.361C123.081 172.361 128.291 169.766 131.887 169.53C137.442 169.165 139.137 170.729 139.322 172.205C139.507 173.677 138.132 179.195 137.484 179.989C136.837 180.784 134.709 181.747 128.792 180.385C126.411 179.838 122.319 177.66 122.319 177.66L123.081 172.356V172.361Z" fill="#91BE7B"/>
<path d="M136.672 180.28C136.672 180.28 136.588 178.131 124.106 176.979L136.672 180.28Z" fill="#91BE7B"/>
<path d="M123.851 174.039C123.851 174.039 133.254 170.001 139.15 172.992L123.851 174.039Z" fill="#91BE7B"/>
<path d="M124.279 175.405C124.279 175.405 134.877 173.832 138.468 176.351L124.279 175.405Z" fill="#91BE7B"/>
<path d="M114.044 172.361C114.044 172.361 108.833 169.766 105.238 169.53C99.6823 169.165 97.9833 170.729 97.7982 172.205C97.6132 173.677 98.9884 179.195 99.636 179.989C100.284 180.784 102.412 181.747 108.329 180.385C110.709 179.838 114.805 177.66 114.805 177.66L114.04 172.356L114.044 172.361Z" fill="#91BE7B"/>
<path d="M100.451 180.28C100.451 180.28 100.539 178.131 113.017 176.979L100.451 180.28Z" fill="#91BE7B"/>
<path d="M113.274 174.039C113.274 174.039 103.871 170.001 97.9746 172.992L113.274 174.039Z" fill="#91BE7B"/>
<path d="M112.845 175.405C112.845 175.405 102.252 173.832 98.6562 176.351L112.845 175.405Z" fill="#91BE7B"/>
<path d="M114.364 172.218C115.894 171.991 117.9 172.155 119.747 172.155C121.593 172.155 123.224 172.1 123.595 172.836C123.687 173.021 123.75 177.239 123.611 177.668C123.426 178.236 121.391 178.35 119.263 178.291C118.699 178.274 118.09 178.282 117.488 178.291C115.814 178.316 114.191 178.371 113.712 178.122C113.295 177.904 112.723 175.65 112.988 173.988C113.001 173.904 113.018 173.824 113.035 173.749C113.211 172.95 113.611 172.332 114.359 172.222L114.364 172.218Z" fill="#91BE7B"/>
<path d="M119.749 199.953C76.4671 199.953 41.2549 164.438 41.2549 120.781C41.2549 77.1244 76.4671 41.6094 119.749 41.6094C163.032 41.6094 198.244 77.1244 198.244 120.781C198.244 164.438 163.032 199.953 119.749 199.953ZM119.749 42.5135C76.9633 42.5135 42.1548 77.6248 42.1548 120.785C42.1548 163.946 76.9633 199.057 119.749 199.057C162.536 199.057 197.344 163.946 197.344 120.785C197.344 77.6248 162.536 42.5135 119.749 42.5135Z" fill="#91BE7B"/>
<path d="M119.75 197.702C77.2121 197.702 42.6055 163.099 42.6055 120.57C42.6055 78.0399 77.2121 43.4375 119.75 43.4375C162.288 43.4375 196.895 78.0399 196.895 120.57C196.895 163.099 162.284 197.702 119.75 197.702ZM119.75 44.3333C77.7083 44.3333 43.5054 78.5319 43.5054 120.565C43.5054 162.599 77.7083 196.797 119.75 196.797C161.792 196.797 195.999 162.599 195.999 120.565C195.999 78.5319 161.792 44.3333 119.75 44.3333Z" fill="#91BE7B"/>
<path d="M119.75 216.594C67.3667 216.594 24.7529 173.61 24.7529 120.781C24.7529 67.9526 67.3709 24.9688 119.75 24.9688C172.128 24.9688 214.746 67.9526 214.746 120.781C214.746 173.61 172.128 216.594 119.75 216.594ZM119.75 25.8645C67.8629 25.8645 25.6529 68.4446 25.6529 120.777C25.6529 173.11 67.8671 215.69 119.75 215.69C171.632 215.69 213.846 173.11 213.846 120.777C213.846 68.4446 171.636 25.8645 119.75 25.8645Z" fill="#91BE7B"/>
<path d="M108.038 211.104L105.439 210.675C105.788 209.014 106.045 207.673 106.213 206.647C106.385 205.604 106.545 204.485 106.697 203.291L105.027 203.715L104.674 202.698L108.522 200.633L109.729 200.835C109.216 203.497 108.837 205.562 108.598 207.042C108.434 208.034 108.244 209.389 108.038 211.104Z" fill="#91BE7B"/>
<path d="M118.472 209.095C118.413 210.008 118.022 210.735 117.299 211.278C116.571 211.82 115.671 212.056 114.603 211.984C113.547 211.917 112.706 211.585 112.084 210.996C111.457 210.403 111.176 209.675 111.23 208.801C111.272 208.17 111.483 207.61 111.87 207.123C112.282 206.597 112.849 206.214 113.573 205.975L113.581 205.848C112.58 205.18 112.113 204.339 112.177 203.329C112.223 202.593 112.559 202.013 113.19 201.576C113.812 201.155 114.574 200.978 115.469 201.033C116.348 201.088 117.046 201.349 117.572 201.815C118.098 202.278 118.337 202.846 118.291 203.519C118.262 204.011 118.098 204.456 117.803 204.856C117.48 205.302 117.046 205.613 116.508 205.794L116.5 205.92C117.896 206.753 118.552 207.812 118.472 209.091V209.095ZM116.496 209.12C116.559 208.102 115.953 207.257 114.675 206.584C114.25 206.71 113.892 206.971 113.602 207.367C113.312 207.762 113.152 208.195 113.123 208.67C113.089 209.221 113.224 209.671 113.526 210.02C113.829 210.369 114.237 210.558 114.746 210.592C115.225 210.626 115.629 210.504 115.957 210.23C116.285 209.961 116.466 209.591 116.496 209.124V209.12ZM116.601 203.691C116.626 203.279 116.521 202.938 116.281 202.677C116.041 202.417 115.718 202.274 115.314 202.248C114.918 202.223 114.59 202.303 114.33 202.497C114.069 202.686 113.926 202.955 113.901 203.296C113.85 204.078 114.355 204.763 115.415 205.356C116.151 205.041 116.546 204.486 116.596 203.691H116.601Z" fill="#91BE7B"/>
<path d="M127.69 208.905C127.724 209.821 127.404 210.583 126.736 211.192C126.067 211.802 125.196 212.122 124.124 212.16C123.069 212.197 122.198 211.954 121.521 211.424C120.84 210.898 120.486 210.196 120.457 209.325C120.436 208.694 120.592 208.118 120.928 207.593C121.285 207.029 121.815 206.592 122.509 206.285V206.158C121.441 205.591 120.894 204.8 120.861 203.791C120.835 203.055 121.113 202.441 121.698 201.945C122.274 201.465 123.014 201.213 123.914 201.183C124.793 201.15 125.516 201.343 126.08 201.751C126.647 202.159 126.946 202.702 126.967 203.379C126.984 203.871 126.866 204.329 126.61 204.758C126.332 205.233 125.932 205.582 125.415 205.818V205.944C126.891 206.634 127.648 207.622 127.69 208.905ZM125.726 209.123C125.693 208.106 125.003 207.319 123.666 206.777C123.254 206.945 122.926 207.235 122.677 207.66C122.429 208.08 122.312 208.526 122.328 209.001C122.349 209.556 122.526 209.99 122.862 210.305C123.199 210.62 123.624 210.772 124.137 210.755C124.616 210.738 125.003 210.578 125.306 210.276C125.609 209.973 125.747 209.586 125.731 209.119L125.726 209.123ZM125.297 203.711C125.285 203.295 125.146 202.971 124.877 202.735C124.612 202.5 124.28 202.386 123.876 202.403C123.481 202.416 123.161 202.533 122.921 202.748C122.677 202.962 122.564 203.244 122.577 203.581C122.602 204.367 123.169 204.998 124.284 205.481C124.986 205.094 125.323 204.506 125.297 203.711Z" fill="#91BE7B"/>
<path d="M135.672 204.224C135.949 206.247 135.705 207.892 134.94 209.145C134.158 210.419 132.884 211.218 131.122 211.542L130.756 210.369C131.975 210.125 132.863 209.544 133.409 208.632C133.872 207.858 134.07 206.903 134.002 205.776L133.927 205.785C133.556 206.361 132.968 206.701 132.16 206.811C131.286 206.933 130.554 206.727 129.961 206.193C129.427 205.709 129.103 205.066 128.994 204.267C128.872 203.388 129.04 202.605 129.494 201.911C130.007 201.138 130.772 200.683 131.799 200.541C132.699 200.419 133.502 200.637 134.196 201.205C134.991 201.853 135.483 202.858 135.672 204.22V204.224ZM133.914 204.695C133.771 203.653 133.489 202.883 133.069 202.395C132.72 201.983 132.316 201.806 131.853 201.869C131.412 201.928 131.084 202.16 130.869 202.563C130.672 202.929 130.608 203.358 130.676 203.838C130.747 204.363 130.949 204.788 131.281 205.12C131.66 205.49 132.114 205.638 132.656 205.562C133.224 205.486 133.645 205.2 133.91 204.7L133.914 204.695Z" fill="#91BE7B"/>
<path d="M119.75 239.087C55.3857 239.087 3.01953 186.115 3.01953 121.007C3.01953 55.8978 55.3857 2.92188 119.75 2.92188C184.114 2.92188 236.481 55.8936 236.481 121.002C236.481 186.111 184.114 239.083 119.75 239.083V239.087ZM119.75 3.82605C55.882 3.82184 3.9195 56.3899 3.9195 121.002C3.9195 185.615 55.882 238.183 119.75 238.183C183.618 238.183 235.581 185.615 235.581 121.002C235.581 56.3899 183.622 3.82184 119.75 3.82184V3.82605Z" fill="#91BE7B"/>
<path d="M119.75 241.561C53.7203 241.561 0 187.378 0 120.78C0 54.1829 53.7203 0 119.75 0C185.78 0 239.5 54.1829 239.5 120.78C239.5 187.378 185.78 241.561 119.75 241.561ZM119.75 1.34995C54.4647 1.34995 1.34995 54.9273 1.34995 120.78C1.34995 186.633 54.4647 240.211 119.75 240.211C185.035 240.211 238.15 186.633 238.15 120.78C238.15 54.9273 185.04 1.34995 119.75 1.34995Z" fill="#91BE7B"/>
<path d="M119.573 214.566C68.2038 214.566 26.4102 172.39 26.4102 120.554C26.4102 68.7174 68.2038 26.541 119.573 26.541C170.943 26.541 212.737 68.7174 212.737 120.554C212.737 172.39 170.943 214.566 119.573 214.566ZM119.573 27.441C68.7001 27.441 27.3101 69.2094 27.3101 120.554C27.3101 171.898 68.7001 213.666 119.573 213.666C170.447 213.666 211.837 171.894 211.837 120.554C211.837 69.2136 170.447 27.441 119.573 27.441Z" fill="#91BE7B"/>
<path d="M8.32715 123.711C10.493 123.597 12.6545 123.454 14.8161 123.282C19.0847 122.941 21.3598 124.522 21.6374 128.025C21.7762 129.758 21.4061 131.1 20.5313 132.05C19.6566 133 17.9913 133.572 15.5437 133.766C13.3821 133.938 11.2583 134.136 9.17244 134.363L8.95376 131.629C11.1322 131.541 13.2307 131.415 15.2535 131.255C17.0198 131.112 18.2141 130.793 18.8366 130.288C19.4548 129.787 19.7323 129.064 19.6566 128.126C19.5767 127.142 19.194 126.457 18.5085 126.07C17.8188 125.683 16.5824 125.561 14.7951 125.704C12.8354 125.86 10.7495 126.07 8.53742 126.331L8.32715 123.715V123.711Z" fill="#91BE7B"/>
<path d="M21.3553 110.173L21.2417 112.566C20.9768 112.553 19.5385 113.373 16.9312 115.026C14.1808 116.755 12.3094 117.726 11.3169 117.941V118.096C12.7299 118.004 14.0084 117.983 15.1481 118.037C16.7419 118.113 18.6806 118.163 20.9726 118.18L20.8591 120.56C18.8657 120.367 16.6746 120.216 14.2859 120.102C11.9351 119.989 9.92911 119.942 8.27637 119.959L8.41515 117.087C8.75579 117.104 10.1562 116.372 12.6164 114.892C15.228 113.315 16.9943 112.423 17.9068 112.213L17.9152 112.07C16.4728 112.154 15.1775 112.171 14.0378 112.12C12.2926 112.036 10.4968 111.994 8.65906 111.998L8.77261 109.58C10.3665 109.748 12.3641 109.887 14.7696 110.001C17.1919 110.118 19.3871 110.177 21.3595 110.181L21.3553 110.173Z" fill="#91BE7B"/>
<path d="M22.1461 104.972L21.7676 107.684C19.7994 107.327 17.6294 106.978 15.2576 106.65C12.9235 106.322 10.9344 106.086 9.29004 105.943L9.66853 103.227C11.2666 103.534 13.2432 103.853 15.6024 104.181C18.0121 104.518 20.1905 104.783 22.1461 104.968V104.972Z" fill="#91BE7B"/>
<path d="M12.3558 90.0374C12.873 90.1552 14.7613 91.3369 18.0247 93.5826C21.2881 95.8283 23.1722 97.01 23.6768 97.1236L23.0923 99.7225C22.6086 99.6132 20.405 99.8151 16.4813 100.324C12.5576 100.833 10.3666 101.039 9.9082 100.934L10.5811 97.9352C11.0395 98.0404 12.7637 97.9815 15.7538 97.7712C18.7438 97.5567 20.426 97.4937 20.8045 97.5778L20.8424 97.418C20.4765 97.3339 19.0424 96.5685 16.5318 95.1092C14.0211 93.6541 12.4315 92.8508 11.7586 92.6995L12.3558 90.0332V90.0374Z" fill="#91BE7B"/>
<path d="M25.7119 83.159L27.7011 83.9201L25.0474 91.7212C23.2307 91.0147 21.1658 90.2662 18.8528 89.4755C16.6281 88.7185 14.7189 88.113 13.125 87.6588L15.6567 80.2109L17.629 80.9974C16.9057 82.7973 16.2917 84.4458 15.787 85.9388C16.6576 86.1658 17.6669 86.4771 18.8234 86.8724C19.2565 85.5939 19.6897 84.2145 20.1144 82.7384L22.0279 83.3903C21.4812 84.7991 20.985 86.1574 20.5434 87.4569C21.784 87.8775 22.9531 88.2517 24.0507 88.5714C24.6185 86.8934 25.1778 85.0935 25.7161 83.1632L25.7119 83.159Z" fill="#91BE7B"/>
<path d="M32.7183 72.917L31.5071 75.516C29.1226 75.2258 27.6003 75.1459 26.9484 75.2847C26.2966 75.4193 25.7793 75.8903 25.4008 76.6977C25.241 77.0384 25.0938 77.3622 24.955 77.6776C26.4564 78.3799 27.9872 79.0654 29.5432 79.7298L28.4035 82.169C26.6751 81.269 24.7027 80.2976 22.4907 79.263C20.3627 78.2663 18.5333 77.4547 16.9941 76.8281L17.7049 75.3099C17.789 75.1333 17.9488 74.7632 18.1927 74.1955C18.4366 73.6277 18.6679 73.1105 18.8908 72.6353C20.144 69.9522 21.6916 69.0354 23.5252 69.8975C24.9803 70.5788 25.6363 71.8194 25.4933 73.6193L25.6237 73.6782C26.0611 73.1651 26.7634 72.8624 27.7306 72.7698C28.6937 72.6815 30.3632 72.7278 32.7309 72.917H32.7183ZM23.1173 72.4334C21.9566 71.8909 21.023 72.3661 20.3249 73.8633C20.0683 74.4142 19.8833 74.9188 19.7655 75.3772C20.7033 75.7389 21.8977 76.2604 23.3528 76.9374C23.5168 76.622 23.6472 76.3529 23.7523 76.13C24.6228 74.2712 24.4083 73.0348 23.1173 72.4334Z" fill="#91BE7B"/>
<path d="M34.7374 63.0525C36.8906 64.3646 37.0294 66.5725 35.1453 69.6719C34.5061 70.7275 33.7828 71.6274 32.9795 72.376L31.3814 70.8494C32.2309 70.1429 32.8996 69.3943 33.3832 68.5995C33.9215 67.7164 34.2201 67.0309 34.2832 66.5388C34.3463 66.0468 34.1781 65.6809 33.7743 65.4328C33.3538 65.1805 32.8912 65.1468 32.3865 65.3361C31.9408 65.4959 31.2258 65.9332 30.2334 66.644C29.3292 67.2874 28.5259 67.6869 27.8278 67.8467C26.9489 68.0444 26.0952 67.893 25.2835 67.3967C24.3373 66.8206 23.8074 66.0174 23.6981 64.987C23.593 63.9567 23.9378 62.7834 24.741 61.4671C25.3971 60.3863 26.0405 59.5326 26.6671 58.9102L28.3157 60.3316C27.5923 60.9119 26.9699 61.6353 26.4443 62.5016C25.6536 63.8053 25.6074 64.6674 26.3013 65.088C26.6713 65.315 27.0625 65.3445 27.4788 65.1805C27.8405 65.0375 28.4671 64.6296 29.3628 63.9567C30.3175 63.246 31.167 62.796 31.9071 62.6067C32.8954 62.3544 33.8416 62.5016 34.7416 63.0483L34.7374 63.0525Z" fill="#91BE7B"/>
<path d="M40.4065 61.1143L38.8084 63.339C37.2356 62.0984 35.4777 60.7779 33.5348 59.3817C31.6255 58.0023 29.9728 56.8668 28.585 55.9669L30.1872 53.7422C31.4573 54.7641 33.0596 55.9669 34.9898 57.3631C36.9622 58.7845 38.7705 60.0377 40.4107 61.1185L40.4065 61.1143Z" fill="#91BE7B"/>
<path d="M43.6897 46.5957C45.0733 47.7943 45.9018 49.2872 46.1667 51.0745C46.4317 52.8576 45.8723 54.5524 44.4888 56.1547C43.8621 56.878 42.9748 57.8495 41.8183 59.0691C40.4011 57.7317 38.7651 56.2598 36.919 54.6576C35.1443 53.1184 33.6009 51.8357 32.293 50.8138L33.399 49.5311C33.5798 49.3208 33.8448 49.0012 34.1896 48.5765C34.5303 48.1475 34.7574 47.87 34.8709 47.7438C36.3933 45.9817 37.9409 45.0818 39.5011 45.0523C41.0655 45.0187 42.4617 45.5359 43.6897 46.5999V46.5957ZM42.2767 48.8667C41.3431 48.055 40.317 47.6471 39.2025 47.6387C38.0881 47.6303 37.0451 48.1854 36.0737 49.3082C35.8928 49.5185 35.6657 49.8255 35.3924 50.2292C36.4101 51.0283 37.4488 51.8862 38.5128 52.8072C39.6777 53.8165 40.8553 54.7921 42.0454 55.7384C42.386 55.4734 42.6888 55.1874 42.9664 54.8678C43.8706 53.8165 44.2196 52.7567 44.0051 51.6885C43.7907 50.6161 43.2145 49.6783 42.2767 48.8667Z" fill="#91BE7B"/>
<path d="M58.2037 42.3952L55.9076 44.4769C55.6216 44.1615 54.5955 43.4634 52.825 42.3826L49.5111 45.3853C50.3732 47.2441 50.9578 48.3417 51.2648 48.6824L49.1032 50.6379C48.9349 50.4528 48.1065 48.4132 46.6219 44.5232C45.1374 40.6331 44.2627 38.543 44.002 38.2529L46.7145 35.7969C46.9626 36.0702 48.8803 37.1721 52.4675 39.1066C56.0548 41.0411 57.9682 42.1387 58.1995 42.3952H58.2037ZM51.2185 41.3396C48.1695 39.6112 46.5505 38.644 46.3696 38.4421L46.2561 38.5472C46.4243 38.7323 47.2107 40.4523 48.6069 43.7031L51.2185 41.3354V41.3396Z" fill="#91BE7B"/>
<path d="M63.9433 30.1191C64.9946 31.6204 65.4362 33.2689 65.2638 35.0647C65.0871 36.8604 64.1367 38.3701 62.4041 39.5855C61.6219 40.1364 60.5242 40.8598 59.107 41.7639C58.0556 40.1238 56.8277 38.2986 55.423 36.2968C54.0731 34.375 52.8872 32.7559 51.8652 31.448L53.2488 30.4723C53.4759 30.3125 53.8082 30.0644 54.2455 29.7364C54.6829 29.4041 54.9688 29.1896 55.1076 29.0929C57.0127 27.7514 58.7285 27.2551 60.2509 27.6042C61.7775 27.9532 63.0055 28.7943 63.9433 30.1233V30.1191ZM62.0214 31.9821C61.3107 30.9686 60.4149 30.3209 59.3341 30.0391C58.2533 29.7616 57.1094 30.0476 55.8941 30.9013C55.667 31.0611 55.3726 31.305 55.0109 31.6288C55.8057 32.6465 56.609 33.7357 57.4164 34.888C58.3038 36.1539 59.2079 37.3861 60.1331 38.5888C60.5242 38.4164 60.8901 38.2061 61.235 37.9664C62.3704 37.1674 62.9634 36.2254 63.0139 35.1361C63.0643 34.0469 62.7363 32.9956 62.0256 31.9821H62.0214Z" fill="#91BE7B"/>
<path d="M86.1822 26.7424L83.9785 27.676C83.8734 27.4321 82.515 26.4901 79.895 24.8541C77.1447 23.1257 75.4583 21.8557 74.8401 21.0524L74.6971 21.1113C75.3952 22.3519 75.9671 23.4958 76.4129 24.5514C77.0353 26.0191 77.8344 27.7937 78.81 29.867L76.619 30.7964C75.9293 28.9166 75.1134 26.8728 74.184 24.6649C73.263 22.4949 72.4388 20.6697 71.707 19.181L74.3523 18.0581C74.4868 18.3736 75.7527 19.3198 78.1498 20.8968C80.7025 22.5706 82.2669 23.7776 82.8515 24.5135L82.9818 24.4546C82.2795 23.1888 81.7034 22.0281 81.2618 20.9767C80.5805 19.366 79.8404 17.7301 79.0413 16.0732L81.266 15.127C81.8043 16.6367 82.5487 18.4997 83.4865 20.7202C84.4327 22.9533 85.3285 24.9635 86.1822 26.7424Z" fill="#91BE7B"/>
<path d="M99.0335 22.982L96.0519 23.8231C95.9341 23.4152 95.3243 22.3302 94.2225 20.5765L89.9203 21.7877C89.8699 23.8358 89.9035 25.0806 90.0255 25.5221L87.2246 26.3128C87.1573 26.0688 87.3214 23.8778 87.7209 19.7312C88.1204 15.5889 88.2676 13.3264 88.1582 12.9437L91.6782 11.9512C91.7791 12.3044 93.0071 14.1464 95.358 17.4813C97.713 20.812 98.9368 22.6456 99.0335 22.982ZM93.2468 18.928C91.2829 16.022 90.2652 14.4366 90.1895 14.1759L90.0423 14.2179C90.1096 14.4576 90.0465 16.3501 89.8572 19.8868L93.2468 18.928Z" fill="#91BE7B"/>
<path d="M108.711 19.1473L108.905 21.372C108.034 21.7336 107.159 21.986 106.285 22.1289C104.102 22.4822 102.34 22.1458 101.003 21.1238C99.6653 20.0977 98.8537 18.7267 98.5761 16.9983C98.2859 15.2068 98.6434 13.5498 99.6401 12.0275C100.641 10.5051 102.197 9.57148 104.308 9.23084C105.086 9.10468 105.835 9.07524 106.558 9.14253L106.579 11.4051C105.788 11.2831 105.048 11.2789 104.363 11.3924C103.072 11.6027 102.176 12.1662 101.676 13.0872C101.179 14.0082 101.024 15.0554 101.213 16.2287C101.406 17.4273 101.949 18.4029 102.836 19.1641C103.728 19.9211 104.846 20.1944 106.196 19.9757C106.987 19.8496 107.824 19.572 108.707 19.1473H108.711Z" fill="#91BE7B"/>
<path d="M113.501 21.1368L110.772 21.3555C110.696 19.3537 110.561 17.1584 110.372 14.7697C110.183 12.4189 109.981 10.4255 109.767 8.78118L112.496 8.5625C112.542 10.19 112.66 12.196 112.849 14.5679C113.043 16.9944 113.257 19.1854 113.501 21.1368Z" fill="#91BE7B"/>
<path d="M127.741 14.4831C127.711 16.4639 127.085 18.0998 125.853 19.3867C124.62 20.6735 123.115 21.3044 121.327 21.2791C119.624 21.2581 118.207 20.6357 117.076 19.4203C115.944 18.2049 115.394 16.6784 115.419 14.828C115.448 12.8472 116.079 11.2113 117.307 9.92443C118.539 8.63756 120.045 8.00675 121.836 8.03198C123.54 8.05721 124.957 8.67121 126.084 9.88237C127.215 11.0935 127.766 12.6243 127.745 14.4789L127.741 14.4831ZM125.066 14.727C125.087 13.3771 124.755 12.2795 124.078 11.43C123.401 10.5805 122.555 10.1515 121.538 10.1347C120.596 10.1221 119.792 10.5342 119.12 11.3711C118.451 12.208 118.106 13.272 118.089 14.563C118.072 15.9046 118.4 17.0022 119.082 17.8559C119.763 18.7096 120.608 19.1386 121.613 19.1554C122.555 19.168 123.359 18.7559 124.027 17.9148C124.7 17.0737 125.045 16.0139 125.062 14.727H125.066Z" fill="#91BE7B"/>
<path d="M139.586 22.7214L137.223 22.3765C137.261 22.1116 136.584 20.6018 135.192 17.8389C133.737 14.9329 132.954 12.9732 132.841 11.9639L132.685 11.9428C132.643 13.3685 132.538 14.6427 132.374 15.774C132.143 17.351 131.907 19.2813 131.668 21.5649L129.312 21.22C129.699 19.2561 130.065 17.0861 130.41 14.7142C130.751 12.3802 130.99 10.391 131.133 8.73828L133.981 9.15462C133.93 9.49526 134.519 10.9588 135.751 13.5535C137.067 16.3123 137.782 18.1543 137.9 19.0837L138.043 19.1047C138.098 17.658 138.207 16.367 138.371 15.2357C138.623 13.503 138.838 11.7199 139.01 9.88637L141.407 10.2354C141.084 11.8083 140.751 13.7848 140.406 16.1693C140.057 18.5706 139.784 20.7532 139.591 22.7172L139.586 22.7214Z" fill="#91BE7B"/>
<path d="M152.544 26.1785L149.558 25.35C149.672 24.9379 149.714 23.6973 149.68 21.6198L145.37 20.4254C144.264 22.1497 143.65 23.2305 143.528 23.672L140.723 22.894C140.79 22.6501 142.068 20.8628 144.554 17.5237C147.043 14.1846 148.335 12.3258 148.444 11.9473L151.968 12.9229C151.867 13.2762 151.968 15.4882 152.254 19.5633C152.54 23.6342 152.641 25.8378 152.548 26.1743L152.544 26.1785ZM149.697 19.7105C149.52 16.2032 149.47 14.3191 149.541 14.0584L149.394 14.0163C149.327 14.2603 148.297 15.8415 146.303 18.7685L149.697 19.7105Z" fill="#91BE7B"/>
<path d="M161.884 27.7144L161.035 29.6489L153.562 26.6756C154.281 25.0776 155.126 23.0506 156.102 20.5904C156.997 18.332 157.704 16.4564 158.217 14.9551L160.74 15.9602C160.13 17.2933 159.352 19.1437 158.41 21.5072C157.695 23.3113 157.086 24.7327 156.589 25.7631C158.242 26.4191 160.008 27.071 161.884 27.7144Z" fill="#91BE7B"/>
<path d="M182.154 34.1273C181.161 35.6665 179.799 36.6968 178.07 37.2057C176.342 37.7187 174.588 37.3991 172.809 36.251C172.01 35.7338 170.925 34.9852 169.559 34.0095C170.69 32.4157 171.914 30.5947 173.238 28.5382C174.513 26.5617 175.56 24.8543 176.392 23.416L177.818 24.337C178.049 24.4884 178.403 24.7029 178.874 24.9846C179.345 25.2664 179.652 25.4515 179.795 25.544C181.75 26.8098 182.852 28.2144 183.104 29.7578C183.357 31.3012 183.041 32.7605 182.158 34.1273H182.154ZM179.711 33.0423C180.383 31.9993 180.644 30.9227 180.497 29.8209C180.35 28.7149 179.656 27.7602 178.407 26.9528C178.176 26.8014 177.839 26.6206 177.402 26.4061C176.754 27.5289 176.052 28.677 175.291 29.8588C174.454 31.1582 173.65 32.4577 172.885 33.7698C173.192 34.0684 173.52 34.3333 173.873 34.5604C175.042 35.3132 176.136 35.5109 177.166 35.1492C178.197 34.7875 179.046 34.0852 179.715 33.0423H179.711Z" fill="#91BE7B"/>
<path d="M187.643 44.5438L186.234 46.1419L179.867 40.9145C181.167 39.4595 182.592 37.7857 184.144 35.8932C185.633 34.0723 186.873 32.4952 187.858 31.1621L193.934 36.1498L192.509 37.7226C191.075 36.4147 189.754 35.2582 188.535 34.2615C188.017 34.9975 187.37 35.8386 186.6 36.7806C187.639 37.6385 188.779 38.5258 190.011 39.4426L188.728 41.0071C187.605 39.9977 186.512 39.0599 185.448 38.1852C184.619 39.1987 183.862 40.1618 183.173 41.0785C184.539 42.2014 186.032 43.3537 187.647 44.5396L187.643 44.5438Z" fill="#91BE7B"/>
<path d="M200.474 61.7941L198.505 59.4054C198.829 59.1362 199.574 58.1354 200.734 56.4195L197.887 52.9669C195.995 53.7449 194.872 54.279 194.519 54.5691L192.664 52.3192C192.858 52.1594 194.931 51.4235 198.88 50.1156C202.829 48.8077 204.952 48.0297 205.259 47.7773L207.589 50.6034C207.307 50.8389 206.117 52.7061 204.023 56.205C201.929 59.7082 200.747 61.5712 200.478 61.7899L200.474 61.7941ZM201.845 54.8593C203.712 51.8861 204.746 50.3132 204.957 50.1408L204.856 50.023C204.662 50.1829 202.909 50.8894 199.603 52.1426L201.845 54.8593Z" fill="#91BE7B"/>
<path d="M208.435 67.8375C206.323 69.2169 204.275 68.3884 202.295 65.3478C201.622 64.3133 201.121 63.2746 200.789 62.2232L202.854 61.441C203.123 62.5134 203.51 63.4386 204.019 64.2208C204.582 65.0871 205.07 65.6548 205.487 65.924C205.899 66.1931 206.302 66.1973 206.698 65.9408C207.11 65.6717 207.341 65.2679 207.387 64.7254C207.434 64.2544 207.35 63.4175 207.139 62.2148C206.95 61.1214 206.933 60.2214 207.097 59.5275C207.299 58.6444 207.804 57.9463 208.603 57.4206C209.532 56.815 210.483 56.6846 211.458 57.0295C212.434 57.3785 213.338 58.1986 214.183 59.4897C214.873 60.5494 215.365 61.4999 215.655 62.3325L213.662 63.2073C213.452 62.3031 213.069 61.4284 212.514 60.5789C211.681 59.3046 210.928 58.8883 210.247 59.3299C209.885 59.5654 209.688 59.906 209.654 60.3518C209.629 60.7387 209.726 61.483 209.94 62.5807C210.171 63.7498 210.209 64.7086 210.062 65.4614C209.86 66.4665 209.318 67.2529 208.439 67.8291L208.435 67.8375Z" fill="#91BE7B"/>
<path d="M222.417 74.9711C220.453 75.8879 218.498 76.8299 216.563 77.8013C212.732 79.7148 210.032 79.1008 208.464 75.9594C207.69 74.4076 207.53 73.024 207.989 71.8128C208.443 70.6016 209.772 69.4493 211.971 68.3517C213.91 67.3803 215.802 66.4046 217.657 65.4121L218.881 67.8639C216.891 68.7638 214.991 69.668 213.178 70.5722C211.593 71.3628 210.604 72.1114 210.217 72.8095C209.826 73.5076 209.847 74.2814 210.268 75.1225C210.709 76.0056 211.319 76.4977 212.101 76.5986C212.884 76.6995 214.078 76.3463 215.68 75.5472C217.438 74.6683 219.297 73.6926 221.252 72.6244L222.422 74.9711H222.417Z" fill="#91BE7B"/>
<path d="M215.373 92.3931L214.587 90.1348C214.839 90.0465 215.869 88.7512 217.674 86.2406C219.583 83.6079 220.954 82.0099 221.795 81.4421L221.744 81.2949C220.462 81.9089 219.28 82.4052 218.203 82.7837C216.698 83.3094 214.881 83.9864 212.749 84.8275L211.967 82.5776C213.889 82.0141 215.979 81.337 218.241 80.5506C220.462 79.7768 222.337 79.0745 223.872 78.4395L224.814 81.1562C224.491 81.2697 223.464 82.4683 221.732 84.7602C219.894 87.1994 218.59 88.6839 217.817 89.218L217.867 89.3568C219.175 88.7386 220.369 88.2381 221.45 87.8681C223.099 87.2919 224.777 86.6611 226.484 85.9714L227.279 88.2592C225.735 88.6965 223.83 89.3147 221.555 90.1053C219.263 90.9002 217.203 91.6656 215.377 92.3973L215.373 92.3931Z" fill="#91BE7B"/>
<path d="M220.142 103.067L217.934 103.382C217.522 102.533 217.224 101.675 217.03 100.804C216.555 98.6425 216.791 96.8594 217.737 95.4674C218.683 94.0712 220.008 93.188 221.715 92.8138C223.486 92.4227 225.159 92.6876 226.732 93.6002C228.305 94.5128 229.323 96.0183 229.781 98.1126C229.949 98.8822 230.021 99.6308 229.996 100.358L227.737 100.506C227.813 99.7065 227.775 98.9705 227.628 98.2893C227.346 97.0108 226.732 96.1445 225.786 95.6987C224.84 95.2529 223.784 95.1562 222.628 95.4127C221.446 95.6735 220.5 96.2706 219.793 97.2042C219.087 98.1379 218.876 99.2733 219.175 100.611C219.347 101.393 219.671 102.213 220.142 103.075V103.067Z" fill="#91BE7B"/>
<path d="M218.427 107.94L218.057 105.223C220.046 105.034 222.228 104.778 224.6 104.454C226.934 104.134 228.911 103.819 230.538 103.512L230.908 106.228C229.289 106.367 227.296 106.599 224.937 106.922C222.531 107.255 220.357 107.591 218.427 107.94Z" fill="#91BE7B"/>
<path d="M225.858 121.811C223.882 121.895 222.212 121.357 220.862 120.196C219.508 119.04 218.793 117.564 218.717 115.78C218.646 114.077 219.18 112.626 220.328 111.428C221.476 110.229 222.973 109.59 224.815 109.514C226.792 109.43 228.461 109.969 229.811 111.125C231.165 112.282 231.88 113.753 231.956 115.545C232.027 117.248 231.489 118.699 230.345 119.898C229.201 121.096 227.704 121.735 225.854 121.815L225.858 121.811ZM225.467 119.149C226.813 119.094 227.894 118.699 228.701 117.976C229.508 117.248 229.895 116.382 229.849 115.368C229.807 114.426 229.353 113.644 228.478 113.022C227.608 112.399 226.527 112.118 225.236 112.172C223.894 112.227 222.818 112.622 222.006 113.35C221.194 114.077 220.807 114.948 220.854 115.953C220.891 116.895 221.35 117.677 222.225 118.3C223.099 118.922 224.176 119.208 225.463 119.153L225.467 119.149Z" fill="#91BE7B"/>
<path d="M218.304 134.141L218.515 131.757C218.775 131.782 220.247 131.021 222.922 129.477C225.74 127.862 227.649 126.971 228.65 126.799L228.662 126.643C227.241 126.677 225.962 126.643 224.823 126.542C223.237 126.399 221.299 126.273 219.011 126.159L219.221 123.783C221.202 124.057 223.384 124.3 225.769 124.515C228.111 124.725 230.113 124.856 231.766 124.902L231.514 127.77C231.173 127.741 229.743 128.413 227.224 129.789C224.545 131.256 222.749 132.072 221.828 132.245L221.816 132.388C223.258 132.358 224.554 132.4 225.689 132.497C227.43 132.652 229.222 132.766 231.059 132.842L230.845 135.251C229.259 135.02 227.27 134.797 224.869 134.583C222.455 134.368 220.26 134.217 218.296 134.133L218.304 134.141Z" fill="#91BE7B"/>
<path d="M221.639 153.394C221.639 154.635 220.634 155.644 219.39 155.644C218.145 155.644 217.14 154.639 217.14 153.394C217.14 152.15 218.149 151.145 219.39 151.145C220.63 151.145 221.639 152.154 221.639 153.394Z" fill="#91BE7B"/>
<path d="M21.6873 153.394C21.6873 154.635 20.6822 155.644 19.4374 155.644C18.1926 155.644 17.1875 154.639 17.1875 153.394C17.1875 152.15 18.1926 151.145 19.4374 151.145C20.6822 151.145 21.6873 152.154 21.6873 153.394Z" fill="#91BE7B"/>
<path d="M34.9977 173.445L33.1557 174.382C32.26 172.591 31.4147 170.989 30.6156 169.576C29.7199 170.177 28.7022 170.799 27.5625 171.443C28.1723 172.519 28.8872 173.726 29.7157 175.064L28.0167 176.022C27.2849 174.609 26.6205 173.373 26.0191 172.317C24.4673 173.192 23.0248 174.038 21.6875 174.858L20.3838 172.549C22.0786 171.687 23.9668 170.669 26.0401 169.5C28.0335 168.373 29.7157 167.376 31.0824 166.51L34.9935 173.445H34.9977Z" fill="#91BE7B"/>
<path d="M31.7174 190.229L29.9469 187.714C30.2876 187.475 31.0782 186.558 32.3272 184.964L29.7703 181.335C27.8652 181.94 26.7298 182.369 26.3639 182.63L24.6943 180.262C24.8962 180.123 26.9737 179.572 30.9226 178.618C34.8757 177.663 37.0079 177.074 37.3233 176.852L39.4176 179.825C39.1232 180.031 37.8363 181.768 35.557 185.031C33.2734 188.299 31.995 190.027 31.7174 190.225V190.229ZM33.5174 183.526C35.5402 180.758 36.6588 179.299 36.8733 179.148L36.785 179.022C36.5831 179.165 34.8252 179.711 31.4987 180.666L33.5132 183.526H33.5174Z" fill="#91BE7B"/>
<path d="M40.915 197.289L39.1781 198.601C38.4169 198.059 37.7399 197.462 37.1553 196.797C35.7002 195.149 35.0357 193.5 35.1703 191.847C35.3007 190.195 36.0072 188.807 37.2857 187.676C38.6104 186.502 40.1664 185.943 41.9579 185.993C43.7452 186.04 45.3475 186.86 46.7563 188.458C47.2736 189.042 47.6983 189.656 48.0306 190.296L46.176 191.486C45.8522 190.762 45.4652 190.14 45.0069 189.618C44.1447 188.643 43.2027 188.184 42.1766 188.247C41.1505 188.306 40.2042 188.718 39.3379 189.488C38.4506 190.27 37.9333 191.233 37.7819 192.373C37.6305 193.513 38.0048 194.589 38.9006 195.611C39.4262 196.204 40.1033 196.768 40.9234 197.289H40.915Z" fill="#91BE7B"/>
<path d="M57.1977 198.66C55.7384 200.19 54.3002 201.738 52.8871 203.311C50.0863 206.41 47.3948 206.793 44.8043 204.459C43.5258 203.302 42.8698 202.091 42.8445 200.821C42.8151 199.551 43.6057 198.029 45.2122 196.246C46.6294 194.677 48.0004 193.117 49.3293 191.557L51.3479 193.382C49.8634 194.904 48.4588 196.397 47.1341 197.865C45.9734 199.147 45.3468 200.178 45.2501 200.956C45.1533 201.734 45.4519 202.432 46.1458 203.063C46.8734 203.719 47.6135 203.958 48.3663 203.778C49.1191 203.597 50.0779 202.852 51.2512 201.557C52.5381 200.132 53.8754 198.584 55.2674 196.919L57.2019 198.664L57.1977 198.66Z" fill="#91BE7B"/>
<path d="M59.4434 212.934L58.1733 214.557L51.7012 209.868C52.7651 208.535 54.052 206.823 55.566 204.733C56.9538 202.815 58.0682 201.213 58.9093 199.922L61.0961 201.507C60.1962 202.618 59.0186 204.178 57.5636 206.184C56.4533 207.715 55.5365 208.909 54.8174 209.763C56.2473 210.801 57.7907 211.861 59.4392 212.938L59.4434 212.934Z" fill="#91BE7B"/>
<path d="M73.3424 209.342L72.2448 211.049C71.1934 210.313 70.1799 209.649 69.2043 209.068C68.5861 210.082 67.9006 211.217 67.152 212.471C65.9913 214.414 64.9231 216.272 63.9517 218.043L61.6387 216.663C62.7363 214.99 63.8676 213.169 65.0367 211.209C65.7726 209.977 66.4371 208.833 67.0385 207.777C66.2647 207.315 65.1712 206.722 63.7666 206.003L64.8769 204.291L73.3382 209.342H73.3424Z" fill="#91BE7B"/>
<path d="M78.835 225.423L76.0383 224.141C76.2108 223.762 76.4378 222.572 76.7196 220.566L72.6824 218.711C71.3409 220.192 70.5755 221.138 70.3862 221.542L67.7578 220.335C67.8587 220.112 69.3811 218.594 72.3207 215.784C75.2603 212.975 76.8079 211.394 76.9719 211.045L80.2732 212.559C80.1218 212.887 79.8821 215.032 79.5499 219.006C79.2176 222.976 78.9779 225.116 78.8392 225.423H78.835ZM77.0266 218.724C77.3883 215.313 77.6196 213.492 77.7331 213.253L77.5943 213.19C77.4934 213.413 76.2444 214.771 73.8473 217.265L77.0266 218.728V218.724Z" fill="#91BE7B"/>
<path d="M93.2767 223.217C92.7341 224.916 91.708 226.228 90.1899 227.149C88.6759 228.066 86.9138 228.205 84.912 227.57C84.0079 227.284 82.7715 226.851 81.207 226.274C81.8631 224.487 82.5486 222.456 83.2719 220.189C83.9658 218.006 84.5167 216.131 84.9288 214.566L86.5311 215.075C86.7919 215.159 87.1872 215.273 87.7129 215.42C88.2385 215.567 88.5792 215.664 88.739 215.714C90.9426 216.417 92.3725 217.464 93.0201 218.86C93.6678 220.256 93.7561 221.707 93.2724 223.221L93.2767 223.217ZM90.6525 222.809C91.0183 221.657 90.9847 220.576 90.5515 219.571C90.1184 218.566 89.2016 217.838 87.7928 217.392C87.532 217.308 87.1619 217.22 86.6867 217.132C86.3671 218.347 85.997 219.613 85.5849 220.921C85.1307 222.355 84.7102 223.785 84.3233 225.215C84.6975 225.416 85.0802 225.585 85.4756 225.711C86.7877 226.127 87.8895 226.035 88.7768 225.437C89.6642 224.836 90.2908 223.961 90.6567 222.813L90.6525 222.809Z" fill="#91BE7B"/>
<path d="M114.582 226.413C114.405 228.192 113.669 229.685 112.378 230.896C111.087 232.107 109.393 232.612 107.302 232.402C106.356 232.305 105.061 232.141 103.408 231.901C103.677 230.017 103.934 227.889 104.169 225.517C104.396 223.238 104.548 221.291 104.624 219.672L106.297 219.84C106.571 219.865 106.983 219.899 107.525 219.933C108.068 219.966 108.425 219.992 108.589 220.008C110.89 220.235 112.505 220.967 113.43 222.199C114.355 223.427 114.738 224.832 114.582 226.409V226.413ZM111.933 226.556C112.05 225.353 111.794 224.306 111.163 223.411C110.532 222.519 109.481 221.998 108.013 221.85C107.74 221.825 107.361 221.812 106.873 221.821C106.815 223.078 106.714 224.39 106.579 225.757C106.432 227.254 106.314 228.739 106.234 230.219C106.642 230.341 107.05 230.425 107.466 230.463C108.837 230.598 109.893 230.282 110.637 229.513C111.382 228.743 111.811 227.755 111.933 226.552V226.556Z" fill="#91BE7B"/>
<path d="M125.242 230.782L125.2 232.86L117.021 232.994C117.071 231.093 117.079 228.949 117.037 226.568C116.999 224.281 116.924 222.325 116.814 220.71L124.62 220.584L124.548 222.653C122.622 222.586 120.881 222.561 119.317 222.59C119.397 223.465 119.443 224.495 119.464 225.685C120.801 225.66 122.235 225.605 123.758 225.509L123.791 227.481C122.29 227.443 120.86 227.435 119.493 227.46C119.514 228.738 119.561 229.933 119.628 231.043C121.386 231.013 123.253 230.929 125.242 230.791V230.782Z" fill="#91BE7B"/>
<path d="M139.793 231.058L137.114 231.525C136.862 229.591 136.534 227.475 136.13 225.175C135.739 222.912 135.361 220.995 134.999 219.422L137.682 218.955C137.871 220.528 138.166 222.462 138.569 224.75C138.977 227.088 139.385 229.191 139.797 231.058H139.793Z" fill="#91BE7B"/>
<path d="M153.263 227.758L150.971 228.38C150.904 228.132 149.697 227.043 147.35 225.125C144.89 223.098 143.41 221.66 142.913 220.802L142.766 220.844C143.279 222.131 143.683 223.313 143.977 224.39C144.385 225.891 144.924 227.703 145.592 229.84L143.309 230.458C142.892 228.549 142.379 226.471 141.769 224.217C141.168 222.001 140.609 220.125 140.096 218.599L142.85 217.85C142.939 218.17 144.049 219.25 146.189 221.08C148.465 223.027 149.836 224.39 150.307 225.176L150.445 225.138C149.928 223.822 149.524 222.627 149.234 221.555C148.788 219.911 148.288 218.233 147.733 216.525L150.05 215.895C150.37 217.425 150.841 219.322 151.455 221.589C152.073 223.872 152.678 225.929 153.267 227.758H153.263Z" fill="#91BE7B"/>
<path d="M165.875 222.467C164.609 223.4 163.503 224.061 162.553 224.447C160.509 225.284 158.738 225.368 157.237 224.704C155.732 224.04 154.659 222.921 154.02 221.352C153.343 219.708 153.33 218.038 153.978 216.352C154.63 214.666 155.967 213.404 158.003 212.571C158.957 212.18 159.832 211.919 160.635 211.789L161.186 213.972C160.156 214.115 159.273 214.338 158.528 214.645C157.279 215.158 156.497 215.919 156.19 216.924C155.883 217.929 155.954 218.976 156.4 220.07C156.854 221.18 157.599 222.008 158.629 222.551C159.659 223.098 160.778 223.119 161.998 222.618C162.334 222.479 162.713 222.286 163.129 222.034C162.776 221.424 162.473 220.806 162.216 220.183C161.96 219.552 161.607 218.871 161.161 218.139L163.68 217.105C163.999 218.022 164.344 218.93 164.719 219.842C164.988 220.499 165.375 221.373 165.879 222.467H165.875Z" fill="#91BE7B"/>
<path d="M175.157 215.521L176.082 217.38L168.899 221.299C168.062 219.592 167.074 217.691 165.934 215.596C164.837 213.586 163.865 211.891 163.016 210.512L169.866 206.773L170.762 208.636C169.025 209.469 167.473 210.26 166.098 211.008C166.573 211.744 167.095 212.636 167.667 213.679C168.844 213.04 170.085 212.32 171.389 211.53L172.335 213.262C170.989 213.927 169.715 214.583 168.516 215.239C169.126 216.362 169.723 217.396 170.299 218.351C171.839 217.51 173.458 216.568 175.153 215.521H175.157Z" fill="#91BE7B"/>
<path d="M187.213 209.831L185.271 211.197C185.123 210.987 183.618 210.377 180.758 209.372C177.751 208.308 175.871 207.459 175.11 206.824L174.984 206.912C175.905 207.947 176.691 208.922 177.331 209.835C178.222 211.105 179.349 212.627 180.708 214.402L178.773 215.76C177.73 214.112 176.536 212.329 175.194 210.419C173.874 208.54 172.713 206.971 171.708 205.709L174.042 204.065C174.235 204.338 175.649 204.973 178.281 205.966C181.082 207.021 182.836 207.837 183.551 208.413L183.668 208.333C182.739 207.274 181.952 206.29 181.309 205.377C180.329 203.981 179.286 202.576 178.18 201.159L180.144 199.775C180.968 201.104 182.053 202.728 183.403 204.645C184.762 206.58 186.032 208.308 187.209 209.826L187.213 209.831Z" fill="#91BE7B"/>
<path d="M191.953 205.805L189.876 207.562C188.681 206.019 187.331 204.354 185.826 202.571C184.341 200.817 183.05 199.349 181.948 198.176L184.026 196.418C184.985 197.684 186.213 199.202 187.714 200.977C189.24 202.789 190.658 204.4 191.957 205.805H191.953Z" fill="#91BE7B"/>
<path d="M198.964 196.314L200.364 197.849L194.527 203.581C193.253 202.168 191.781 200.612 190.111 198.909C188.509 197.277 187.108 195.915 185.914 194.817L191.482 189.346L192.853 190.893C191.411 192.172 190.132 193.353 189.018 194.451C189.674 195.031 190.422 195.746 191.255 196.592C192.21 195.654 193.206 194.624 194.245 193.505L195.629 194.91C194.518 195.915 193.471 196.899 192.496 197.853C193.391 198.762 194.249 199.599 195.065 200.356C196.318 199.123 197.614 197.773 198.955 196.306L198.964 196.314Z" fill="#91BE7B"/>
<path d="M208.876 187.789L207.064 189.98C204.873 189.139 203.451 188.702 202.795 188.677C202.139 188.651 201.529 188.979 200.966 189.661C200.73 189.947 200.507 190.224 200.293 190.489C201.542 191.52 202.82 192.537 204.128 193.538L202.429 195.603C201.016 194.329 199.389 192.933 197.551 191.419C195.785 189.959 194.25 188.748 192.95 187.785L194.01 186.502C194.132 186.355 194.384 186.04 194.759 185.552C195.133 185.068 195.486 184.623 195.818 184.223C197.69 181.956 199.389 181.448 200.911 182.705C202.118 183.702 202.425 185.043 201.832 186.734L201.941 186.826C202.488 186.439 203.233 186.317 204.17 186.46C205.108 186.603 206.681 187.045 208.88 187.789H208.876ZM199.885 185.043C198.922 184.244 197.917 184.48 196.87 185.745C196.487 186.208 196.184 186.65 195.957 187.062C196.752 187.63 197.757 188.412 198.964 189.408C199.199 189.143 199.393 188.921 199.549 188.731C200.844 187.159 200.957 185.931 199.885 185.047V185.043Z" fill="#91BE7B"/>
<path d="M211.669 183.638L210.113 185.871C208.561 184.69 206.828 183.428 204.911 182.095C203.027 180.783 201.399 179.698 200.032 178.848L201.588 176.615C202.837 177.591 204.419 178.743 206.324 180.072C208.266 181.43 210.05 182.616 211.669 183.643V183.638Z" fill="#91BE7B"/>
<path d="M219.129 171.32L217.59 173.982C217.232 173.776 216.063 173.436 214.095 172.973L211.87 176.817C213.22 178.293 214.087 179.143 214.474 179.365L213.023 181.868C212.808 181.746 211.441 180.089 208.918 176.901C206.395 173.713 204.965 172.023 204.633 171.829L206.45 168.684C206.761 168.86 208.876 169.302 212.8 170.004C216.723 170.706 218.83 171.144 219.121 171.312L219.129 171.32ZM212.291 172.498C208.931 171.821 207.139 171.413 206.912 171.287L206.836 171.417C207.047 171.539 208.283 172.91 210.541 175.526L212.291 172.498Z" fill="#91BE7B"/>
</g>
<defs>
<clipPath id="clip0_335_29434">
<rect width="239.5" height="241.561" fill="white"/>
</clipPath>
</defs>
</svg>
