<svg width="84" height="85" viewBox="0 0 84 85" fill="none" xmlns="http://www.w3.org/2000/svg">
<g clip-path="url(#clip0_630_6454)">
<path d="M48.8304 35.9434H45.3447L54.76 49.6775L55.6457 49.1055L48.8304 35.9434Z" fill="white"/>
<path d="M46.906 48.8462C45.0442 49.5626 43.7004 49.7114 43.0438 49.7347V49.7304C43.0438 49.7304 42.9636 49.7377 42.8162 49.7377C42.6689 49.7377 42.5886 49.7304 42.5886 49.7304V49.7347C41.932 49.7114 40.5883 49.5611 38.7265 48.8462C36.0214 47.8059 34.5653 45.5166 34.5653 45.5166L31.4443 49.5232L31.6515 49.8865C31.8587 50.2498 33.3688 51.3951 33.3688 51.3951L34.3055 50.4584C34.3055 50.4584 34.5142 50.7181 35.0336 51.0304C35.5545 51.3426 36.4387 51.9146 36.4387 51.9146L35.9703 53.0585L36.6459 53.4232C37.3214 53.788 38.4143 54.0477 38.4143 54.0477L38.8826 52.8513C38.8826 52.8513 39.2474 52.9038 40.1316 53.111C41.0158 53.3196 41.5877 53.2671 41.5877 53.2671V54.7233H44.0462V53.2671C44.0462 53.2671 44.6182 53.3196 45.5024 53.111C46.3865 52.9023 46.7513 52.8513 46.7513 52.8513L47.2197 54.0477C47.2197 54.0477 48.3125 53.788 48.988 53.4232L49.665 53.0585L49.1967 51.9146C49.1967 51.9146 50.0809 51.3426 50.6018 51.0304C51.1212 50.7181 51.3298 50.4584 51.3298 50.4584L52.2665 51.3951C52.2665 51.3951 53.7752 50.2498 53.9839 49.8865L54.1925 49.5232L51.0716 45.5166C51.0716 45.5166 49.614 47.8059 46.9103 48.8462H46.906Z" fill="white"/>
<path d="M36.8006 35.9434L29.9854 49.1055L30.8695 49.6775L40.2863 35.9434H36.8006Z" fill="white"/>
<path d="M40.9092 45.7762H37.8408V47.7007H42.5871H43.0424H47.7901V45.7762H44.7203V35.268H47.5815V33.291H43.0424H42.5871H38.048V35.268H40.9092V45.7762Z" fill="white"/>
<path d="M42.6663 32.5107C42.6663 32.5107 42.6473 32.2043 42.8035 32.2043H42.8297C42.9859 32.2043 42.9669 32.5107 42.9669 32.5107H47.3236L45.9404 29.1709C46.2804 28.5888 46.4774 27.9147 46.4774 27.191C46.4774 25.1848 44.9775 23.5331 43.0428 23.3011V23.2705C42.9654 23.2705 42.891 23.2778 42.8151 23.2822C42.7393 23.2778 42.6634 23.2705 42.5875 23.2705V23.3011C40.6543 23.5346 39.1544 25.1848 39.1544 27.191C39.1544 27.9147 39.3528 28.5902 39.6928 29.1709L38.3096 32.5107H42.6663ZM42.8166 25.354C43.7241 25.4737 44.4303 26.2455 44.4303 27.191C44.4303 28.1365 43.7256 28.9083 42.8166 29.0279C41.9076 28.9083 41.2029 28.1365 41.2029 27.191C41.2029 26.2455 41.9076 25.4737 42.8166 25.354Z" fill="white"/>
<mask id="mask0_630_6454" style="mask-type:luminance" maskUnits="userSpaceOnUse" x="14" y="15" width="55" height="55">
<path d="M41.5469 69.8117C56.5012 69.8117 68.6241 57.5836 68.6241 42.4996C68.6241 27.4155 56.5012 15.1875 41.5469 15.1875C26.5926 15.1875 14.4697 27.4155 14.4697 42.4996C14.4697 57.5836 26.5926 69.8117 41.5469 69.8117Z" fill="white"/>
</mask>
<g mask="url(#mask0_630_6454)">
<path d="M41.1579 13.0811H40.8457V72.1524H41.1579V13.0811Z" fill="white"/>
<path d="M40.5329 13.0811H40.2207V72.1524H40.5329V13.0811Z" fill="white"/>
<path d="M39.9089 13.0811H39.5967V72.1524H39.9089V13.0811Z" fill="white"/>
<path d="M39.2839 13.0811H38.9717V72.1524H39.2839V13.0811Z" fill="white"/>
<path d="M38.6609 13.0811H38.3486V72.1524H38.6609V13.0811Z" fill="white"/>
<path d="M38.0368 13.0811H37.7246V72.1524H38.0368V13.0811Z" fill="white"/>
<path d="M37.4118 13.0811H37.0996V72.1524H37.4118V13.0811Z" fill="white"/>
<path d="M36.7878 13.0811H36.4756V72.1524H36.7878V13.0811Z" fill="white"/>
<path d="M36.1628 13.0811H35.8506V72.1524H36.1628V13.0811Z" fill="white"/>
<path d="M35.5388 13.0811H35.2266V72.1524H35.5388V13.0811Z" fill="white"/>
<path d="M34.9138 13.0811H34.6016V72.1524H34.9138V13.0811Z" fill="white"/>
<path d="M34.2908 13.0811H33.9785V72.1524H34.2908V13.0811Z" fill="white"/>
<path d="M33.6667 13.0811H33.3545V72.1524H33.6667V13.0811Z" fill="white"/>
<path d="M33.0417 13.0811H32.7295V72.1524H33.0417V13.0811Z" fill="white"/>
<path d="M32.4177 13.0811H32.1055V72.1524H32.4177V13.0811Z" fill="white"/>
<path d="M31.7937 13.0811H31.4814V72.1524H31.7937V13.0811Z" fill="white"/>
<path d="M31.1687 13.0811H30.8564V72.1524H31.1687V13.0811Z" fill="white"/>
<path d="M30.5447 13.0811H30.2324V72.1524H30.5447V13.0811Z" fill="white"/>
<path d="M29.9197 13.0811H29.6074V72.1524H29.9197V13.0811Z" fill="white"/>
<path d="M29.2966 13.0811H28.9844V72.1524H29.2966V13.0811Z" fill="white"/>
<path d="M28.6726 13.0811H28.3604V72.1524H28.6726V13.0811Z" fill="white"/>
<path d="M28.0476 13.0811H27.7354V72.1524H28.0476V13.0811Z" fill="white"/>
<path d="M27.4236 13.0811H27.1113V72.1524H27.4236V13.0811Z" fill="white"/>
<path d="M26.7986 13.0811H26.4863V72.1524H26.7986V13.0811Z" fill="white"/>
<path d="M26.1745 13.0811H25.8623V72.1524H26.1745V13.0811Z" fill="white"/>
<path d="M25.5495 13.0811H25.2373V72.1524H25.5495V13.0811Z" fill="white"/>
<path d="M24.3025 13.0811H23.9902V72.1524H24.3025V13.0811Z" fill="white"/>
<path d="M23.6784 13.0811H23.3662V72.1524H23.6784V13.0811Z" fill="white"/>
<path d="M23.0534 13.0811H22.7412V72.1524H23.0534V13.0811Z" fill="white"/>
<path d="M24.9265 13.0811H24.6143V72.1524H24.9265V13.0811Z" fill="white"/>
<path d="M22.4294 13.0811H22.1172V72.1524H22.4294V13.0811Z" fill="white"/>
<path d="M21.8044 13.0811H21.4922V72.1524H21.8044V13.0811Z" fill="white"/>
<path d="M21.1814 13.0811H20.8691V72.1524H21.1814V13.0811Z" fill="white"/>
<path d="M20.5574 13.0811H20.2451V72.1524H20.5574V13.0811Z" fill="white"/>
<path d="M19.9324 13.0811H19.6201V72.1524H19.9324V13.0811Z" fill="white"/>
<path d="M19.3083 13.0811H18.9961V72.1524H19.3083V13.0811Z" fill="white"/>
<path d="M18.6833 13.0811H18.3711V72.1524H18.6833V13.0811Z" fill="white"/>
<path d="M18.0593 13.0811H17.7471V72.1524H18.0593V13.0811Z" fill="white"/>
<path d="M17.4343 13.0811H17.1221V72.1524H17.4343V13.0811Z" fill="white"/>
<path d="M16.8113 13.0811H16.499V72.1524H16.8113V13.0811Z" fill="white"/>
<path d="M16.1872 13.0811H15.875V72.1524H16.1872V13.0811Z" fill="white"/>
<path d="M15.5622 13.0811H15.25V72.1524H15.5622V13.0811Z" fill="white"/>
<path d="M14.9382 13.0811H14.626V72.1524H14.9382V13.0811Z" fill="white"/>
<path d="M68.0017 13.0811H67.6895V72.1524H68.0017V13.0811Z" fill="white"/>
<path d="M67.3767 13.0811H67.0645V72.1524H67.3767V13.0811Z" fill="white"/>
<path d="M66.7527 13.0811H66.4404V72.1524H66.7527V13.0811Z" fill="white"/>
<path d="M66.1277 13.0811H65.8154V72.1524H66.1277V13.0811Z" fill="white"/>
<path d="M65.5036 13.0811H65.1914V72.1524H65.5036V13.0811Z" fill="white"/>
<path d="M64.8806 13.0811H64.5684V72.1524H64.8806V13.0811Z" fill="white"/>
<path d="M64.2556 13.0811H63.9434V72.1524H64.2556V13.0811Z" fill="white"/>
<path d="M63.6316 13.0811H63.3193V72.1524H63.6316V13.0811Z" fill="white"/>
<path d="M63.0066 13.0811H62.6943V72.1524H63.0066V13.0811Z" fill="white"/>
<path d="M62.3825 13.0811H62.0703V72.1524H62.3825V13.0811Z" fill="white"/>
<path d="M61.7575 13.0811H61.4453V72.1524H61.7575V13.0811Z" fill="white"/>
<path d="M61.1335 13.0811H60.8213V72.1524H61.1335V13.0811Z" fill="white"/>
<path d="M60.5085 13.0811H60.1963V72.1524H60.5085V13.0811Z" fill="white"/>
<path d="M59.8855 13.0811H59.5732V72.1524H59.8855V13.0811Z" fill="white"/>
<path d="M59.2615 13.0811H58.9492V72.1524H59.2615V13.0811Z" fill="white"/>
<path d="M58.6374 13.0811H58.3252V72.1524H58.6374V13.0811Z" fill="white"/>
<path d="M58.0124 13.0811H57.7002V72.1524H58.0124V13.0811Z" fill="white"/>
<path d="M57.3884 13.0811H57.0762V72.1524H57.3884V13.0811Z" fill="white"/>
<path d="M56.7634 13.0811H56.4512V72.1524H56.7634V13.0811Z" fill="white"/>
<path d="M56.1394 13.0811H55.8271V72.1524H56.1394V13.0811Z" fill="white"/>
<path d="M55.5163 13.0811H55.2041V72.1524H55.5163V13.0811Z" fill="white"/>
<path d="M54.8913 13.0811H54.5791V72.1524H54.8913V13.0811Z" fill="white"/>
<path d="M54.2673 13.0811H53.9551V72.1524H54.2673V13.0811Z" fill="white"/>
<path d="M53.6423 13.0811H53.3301V72.1524H53.6423V13.0811Z" fill="white"/>
<path d="M53.0183 13.0811H52.7061V72.1524H53.0183V13.0811Z" fill="white"/>
<path d="M52.3933 13.0811H52.0811V72.1524H52.3933V13.0811Z" fill="white"/>
<path d="M51.1462 13.0811H50.834V72.1524H51.1462V13.0811Z" fill="white"/>
<path d="M50.5222 13.0811H50.21V72.1524H50.5222V13.0811Z" fill="white"/>
<path d="M49.8972 13.0811H49.585V72.1524H49.8972V13.0811Z" fill="white"/>
<path d="M51.7693 13.0811H51.457V72.1524H51.7693V13.0811Z" fill="white"/>
<path d="M49.2732 13.0811H48.9609V72.1524H49.2732V13.0811Z" fill="white"/>
<path d="M48.6482 13.0811H48.3359V72.1524H48.6482V13.0811Z" fill="white"/>
<path d="M48.0242 13.0811H47.7119V72.1524H48.0242V13.0811Z" fill="white"/>
<path d="M47.4011 13.0811H47.0889V72.1524H47.4011V13.0811Z" fill="white"/>
<path d="M46.7761 13.0811H46.4639V72.1524H46.7761V13.0811Z" fill="white"/>
<path d="M46.1521 13.0811H45.8398V72.1524H46.1521V13.0811Z" fill="white"/>
<path d="M45.5271 13.0811H45.2148V72.1524H45.5271V13.0811Z" fill="white"/>
<path d="M44.9031 13.0811H44.5908V72.1524H44.9031V13.0811Z" fill="white"/>
<path d="M44.2781 13.0811H43.9658V72.1524H44.2781V13.0811Z" fill="white"/>
<path d="M43.654 13.0811H43.3418V72.1524H43.654V13.0811Z" fill="white"/>
<path d="M43.031 13.0811H42.7188V72.1524H43.031V13.0811Z" fill="white"/>
<path d="M42.406 13.0811H42.0938V72.1524H42.406V13.0811Z" fill="white"/>
<path d="M41.782 13.0811H41.4697V72.1524H41.782V13.0811Z" fill="white"/>
</g>
<path d="M47.2953 35.2158H43.8096L53.2263 48.9499L54.1105 48.378L47.2953 35.2158Z" fill="black"/>
<path d="M45.3708 48.1186C43.5091 48.835 42.1653 48.9838 41.5087 49.0072V49.0028C41.5087 49.0028 41.4284 49.0101 41.2811 49.0116C41.1337 49.0116 41.0535 49.0028 41.0535 49.0028V49.0072C40.3954 48.9838 39.0516 48.8336 37.1913 48.1186C34.4862 47.0783 33.0301 44.7891 33.0301 44.7891L29.9092 48.7956L30.1164 49.1589C30.3236 49.5237 31.8337 50.6676 31.8337 50.6676L32.7704 49.7309C32.7704 49.7309 32.979 49.9906 33.4985 50.3028C34.0193 50.6151 34.9035 51.187 34.9035 51.187L34.4352 52.3324L35.1107 52.6972C35.7863 53.0605 36.8791 53.3216 36.8791 53.3216L37.3475 52.1237C37.3475 52.1237 37.7122 52.1763 38.5964 52.3849C39.4806 52.5921 40.0525 52.541 40.0525 52.541V53.9972H42.5096V52.541C42.5096 52.541 43.083 52.5936 43.9672 52.3849C44.8514 52.1763 45.2161 52.1237 45.2161 52.1237L45.6845 53.3216C45.6845 53.3216 46.7773 53.0619 47.4543 52.6972L48.1299 52.3324L47.6615 51.187C47.6615 51.187 48.5457 50.6151 49.0666 50.3028C49.5875 49.9906 49.7961 49.7309 49.7961 49.7309L50.7328 50.6676C50.7328 50.6676 52.2415 49.5222 52.4502 49.1589L52.6573 48.7956L49.5364 44.7891C49.5364 44.7891 48.0803 47.0783 45.3752 48.1186H45.3708Z" fill="black"/>
<path d="M35.2655 35.2158L28.4502 48.378L29.3344 48.9499L38.7511 35.2158H35.2655Z" fill="black"/>
<path d="M39.3755 45.0486H36.3057V46.9731H41.0534H41.5087H46.255V45.0486H43.1851V34.5405H46.0478V32.5635H41.5087H41.0534H36.5143V34.5405H39.3755V45.0486Z" fill="black"/>
<path d="M41.1312 31.7832C41.1312 31.7832 41.1122 31.4768 41.2683 31.4768H41.2946C41.4507 31.4768 41.4317 31.7832 41.4317 31.7832H45.7885L44.4053 28.4434C44.7452 27.8612 44.9437 27.1871 44.9437 26.4635C44.9437 24.4573 43.4438 22.8056 41.5091 22.5736V22.543C41.4317 22.543 41.3573 22.5503 41.2814 22.5546C41.2056 22.5503 41.1312 22.543 41.0538 22.543V22.5736C39.1191 22.8071 37.6192 24.4573 37.6192 26.4635C37.6192 27.1871 37.8176 27.8612 38.1576 28.4434L36.7744 31.7832H41.1312ZM41.2814 24.6265C42.1904 24.7461 42.8937 25.518 42.8937 26.4635C42.8937 27.4089 42.189 28.1808 41.2814 28.3004C40.3724 28.1808 39.6677 27.4089 39.6677 26.4635C39.6677 25.518 40.3724 24.7461 41.2814 24.6265Z" fill="black"/>
<path d="M21.726 46.8358C21.726 46.8358 22.0951 34.7548 22.2337 32.7996C22.3724 30.8445 22.4191 28.758 22.0951 28.5363C21.7727 28.313 19.4207 30.5352 19.2368 30.6242C19.053 30.7132 20.712 30.0916 20.9425 31.4237C21.173 32.7559 20.8958 44.5698 20.8958 44.5698L21.726 46.8358Z" fill="white"/>
<path d="M21.8575 47.6467L20.7399 44.5958V44.5666C20.7428 44.4484 21.0142 32.7526 20.7895 31.4497C20.7034 30.9521 20.3926 30.7114 19.8367 30.7114C19.6062 30.7114 19.3975 30.7566 19.3085 30.7756C19.2647 30.7844 19.2472 30.7887 19.2239 30.7887H19.0999L19.043 30.5465L19.1684 30.4838C19.2137 30.4561 19.4544 30.2489 19.6864 30.049C20.95 28.9576 21.6985 28.3652 22.0355 28.3652C22.0924 28.3652 22.142 28.3798 22.1843 28.409C22.3054 28.4922 22.6775 28.7475 22.39 32.8124C22.2544 34.7413 21.8867 46.7202 21.8838 46.8413L21.8589 47.6481L21.8575 47.6467ZM21.0521 44.5433L21.5949 46.0227C21.6795 43.2856 21.9611 34.4276 22.0778 32.7876C22.2923 29.763 22.1333 28.7709 22.0049 28.6629C21.7495 28.676 20.4466 29.8009 19.8892 30.2824C19.8396 30.3247 19.7958 30.3641 19.7535 30.3992C19.7798 30.3992 19.8075 30.3977 19.8352 30.3977C20.537 30.3977 20.9835 30.7523 21.0944 31.3957C21.322 32.7074 21.0696 43.7452 21.0506 44.5433H21.0521Z" fill="black"/>
<path d="M18.6843 33.5117C18.6843 33.5117 18.8229 36.0432 19.9756 40.13C21.1283 44.2168 23.988 52.1658 23.988 52.1658L21.7746 50.0341C21.7746 50.0341 18.9616 43.5938 18.1314 39.2852C17.3011 34.9766 18.6858 33.5117 18.6858 33.5117H18.6843Z" fill="white"/>
<path d="M24.3603 52.7406L21.6319 50.0954C21.6041 50.0312 18.8013 43.5894 17.9784 39.3144C17.1423 34.9781 18.5138 33.4665 18.5722 33.4037L18.8217 33.1396L18.8421 33.503C18.8436 33.5278 18.9939 36.068 20.1276 40.0862C21.2656 44.1205 24.1079 52.033 24.1356 52.1118L24.3618 52.7406H24.3603ZM21.9047 49.9422L23.6162 51.5909C22.9187 49.6314 20.7768 43.5486 19.8241 40.1708C18.9603 37.1054 18.6627 34.8891 18.5678 33.9786C18.2308 34.6323 17.6997 36.2314 18.2833 39.2546C19.0727 43.353 21.7004 49.4723 21.9047 49.9422Z" fill="black"/>
<path d="M35.9625 28.3386C36.9298 26.9175 38.545 25.1404 37.8986 24.475C37.2537 23.8082 31.3971 25.0966 27.6604 28.3838C25.714 30.0968 24.2944 31.1823 24.2944 31.1823L21.9424 36.7778C21.9424 36.7778 26.4421 30.107 33.7009 26.4739C38.4049 24.119 35.961 28.3386 35.961 28.3386H35.9625Z" fill="white"/>
<path d="M22.0726 36.8641L21.7998 36.7168L24.1679 31.0819L24.2014 31.0571C24.216 31.0469 25.6386 29.9555 27.5587 28.2659C30.5731 25.6148 35.1458 24.1484 37.1535 24.1484C37.5883 24.1484 37.8699 24.2199 38.0114 24.3658C38.614 24.9874 37.7123 26.2072 36.7581 27.4999C36.5261 27.815 36.2941 28.1287 36.0913 28.4264L35.8272 28.2601C36.0738 27.8355 36.6486 26.6245 36.3656 26.1328C36.1277 25.7213 35.21 25.892 33.7714 26.6128C26.6337 30.1846 22.1164 36.7985 22.0712 36.8641H22.0726ZM24.4232 31.2789L22.5848 35.6516C24.1737 33.6221 28.1321 29.0844 33.6328 26.3326C35.3223 25.4864 36.2941 25.3828 36.637 25.9766C36.8077 26.2728 36.7697 26.6974 36.6574 27.1118C37.4103 26.0875 38.1806 24.9874 37.7882 24.5832C37.7604 24.5541 37.632 24.4607 37.1549 24.4607C35.5339 24.4607 30.9714 25.6804 27.7659 28.4993C25.999 30.0532 24.6508 31.1052 24.4246 31.2789H24.4232Z" fill="black"/>
<path d="M24.0315 28.8501C24.0315 28.8501 27.3523 22.9876 34.5922 18.501C34.5922 18.501 24.8617 27.6055 23.1094 33.379L24.0315 28.8486V28.8501Z" fill="white"/>
<path d="M23.2581 33.4242L22.9561 33.3483L23.8957 28.7727C23.9292 28.7129 27.3186 22.8241 34.5103 18.3682L34.7 18.6147C34.6023 18.7052 24.9798 27.7572 23.2595 33.4242H23.2581ZM24.1787 28.9055L23.6083 31.7054C25.7312 27.2976 30.9444 21.8641 33.3037 19.5296C27.3216 23.6558 24.3903 28.5436 24.1787 28.9055Z" fill="black"/>
<path d="M24.7227 29.1587C24.7227 29.1587 30.3488 22.4529 40.0325 19.5654C40.0325 19.5654 27.1666 26.2713 23.2461 32.5788L24.7227 29.1587Z" fill="white"/>
<path d="M23.3793 32.6623L23.1035 32.5179L24.6034 29.0599C24.6603 28.9928 30.3696 22.284 39.9892 19.417L40.1059 19.7044C39.9775 19.7715 27.2326 26.4642 23.3807 32.6623H23.3793ZM24.8573 29.2437L23.9819 31.2704C27.6164 26.6612 35.2735 22.0521 38.4893 20.2355C30.1464 23.2105 25.1608 28.8892 24.8558 29.2437H24.8573Z" fill="black"/>
<path d="M21.6796 36.5331C21.6796 36.5331 23.432 26.718 26.4289 22.2314L21.541 40.3063L21.6796 36.5317V36.5331Z" fill="white"/>
<path d="M21.335 41.666L21.5232 36.5258C21.5436 36.4061 23.3178 26.6042 26.2987 22.1438L26.8283 21.3516L21.335 41.666ZM25.9894 23.2586C23.3879 27.9728 21.85 36.4674 21.8325 36.5593L21.7464 38.9478L25.9894 23.2586Z" fill="black"/>
<path d="M23.2645 39.0643C23.3564 38.8426 29.0832 30.0984 35.2784 27.3408C35.2784 27.3408 25.8966 30.8294 22.0506 38.8688L21.3517 40.1309L21.2598 44.0397L23.2645 39.0643Z" fill="white"/>
<path d="M21.082 44.8951L21.2148 40.0569L21.9137 38.7948C25.7379 30.7992 35.1284 27.2303 35.2232 27.1953L35.3414 27.4842C29.1419 30.2433 23.4472 39.0472 23.4078 39.1289L21.0835 44.8951H21.082ZM21.5052 40.1736L21.4337 43.1851L23.1174 39.0064C23.1451 38.9393 27.1094 32.7602 32.0965 29.0614C29.0251 30.8006 24.5385 34.0208 22.188 38.9363L21.5037 40.1736H21.5052Z" fill="black"/>
<path d="M21.7637 46.2287C21.7637 46.2287 23.926 36.6106 26.0037 36.1714C28.0799 35.7323 27.8815 39.4893 27.8815 39.4893C27.8815 39.4893 26.4896 37.1782 25.779 38.5847C25.0684 39.9927 22.0088 48.6639 22.0088 48.6639L21.7637 46.2287Z" fill="white"/>
<path d="M21.9245 49.3746L21.6064 46.2201L21.6123 46.1953C21.7013 45.7984 23.8228 36.4736 25.9719 36.0183C26.4987 35.9075 26.9437 36.0344 27.2836 36.3933C28.1445 37.3009 28.0438 39.4092 28.0394 39.4982L28.0132 40.0059L27.7505 39.5697C27.5361 39.2137 26.8663 38.2872 26.3644 38.2872C26.3017 38.2872 26.1076 38.2872 25.9223 38.6563C25.2249 40.038 22.1915 48.629 22.1609 48.7165L21.9289 49.376L21.9245 49.3746ZM21.9216 46.239L22.0952 47.9564C22.8277 45.8947 25.0396 39.7039 25.6407 38.5148C25.8217 38.1573 26.0639 37.9749 26.3615 37.9749C26.878 37.9749 27.4077 38.5571 27.7257 38.9831C27.7038 38.3207 27.5871 37.1681 27.056 36.6078C26.7905 36.3277 26.4578 36.2357 26.0361 36.3247C24.418 36.6676 22.5242 43.5733 21.9216 46.239Z" fill="black"/>
<path d="M25.7254 54.1961C25.7254 54.1961 24.9886 45.1339 25.5401 43.6252C26.0931 42.1151 27.2458 44.3358 27.2458 44.3358C27.2458 44.3358 27.0152 40.5612 26.3703 40.2052C25.7254 39.8507 23.8345 41.3155 23.8797 48.1118L24.6165 53.7511L25.724 54.1976L25.7254 54.1961Z" fill="white"/>
<path d="M25.9019 54.4335L24.475 53.8586L23.7265 48.1274C23.6885 42.6983 24.8777 40.9124 25.3913 40.3959C25.7195 40.0661 25.9953 39.9961 26.1704 39.9961C26.2711 39.9961 26.3644 40.0194 26.4476 40.0647C27.1334 40.4426 27.3654 43.6773 27.4048 44.3237L27.45 45.0576L27.1115 44.4054C26.8795 43.9604 26.3878 43.2527 26.0522 43.2527C25.8815 43.2527 25.7604 43.4832 25.6904 43.6773C25.1549 45.1378 25.8771 54.0906 25.8844 54.181L25.9048 54.4335H25.9019ZM24.7609 53.6383L25.5503 53.9549C25.4336 52.4506 24.882 44.9686 25.3942 43.5693C25.5474 43.152 25.7677 42.9405 26.0493 42.9405C26.417 42.9405 26.7861 43.3417 27.0429 43.705C26.9145 42.2503 26.6373 40.5272 26.2959 40.3404C26.2609 40.32 26.2171 40.3098 26.1689 40.3098C26.0756 40.3098 25.8771 40.3492 25.6116 40.6176C25.1257 41.1064 24.0008 42.815 24.0373 48.1085L24.7609 53.6397V53.6383Z" fill="black"/>
<path d="M25.9207 47.3652C25.9207 47.3652 26.8429 53.5385 31.1777 58.4234L27.0267 55.7154C27.0267 55.7154 25.7354 51.3178 25.9193 47.3652H25.9207Z" fill="white"/>
<path d="M32.0667 59.1908L26.8944 55.8145L26.8783 55.7591C26.8652 55.7153 25.5812 51.2915 25.7651 47.3578L26.0759 47.3418C26.0846 47.4031 27.0432 53.5267 31.2949 58.3197L32.0667 59.1908ZM27.1614 55.6161L30.383 57.7186C27.7815 54.4357 26.569 50.7487 26.07 48.7892C26.1765 52.0064 27.0345 55.1638 27.1629 55.6161H27.1614Z" fill="black"/>
<path d="M34.9165 62.0225C34.9165 62.0225 30.4445 62.3318 28.1844 62.0662C25.9243 61.7992 24.0801 61.1777 24.0801 61.1777C24.0801 61.1777 28.9679 61.0887 30.5816 61.1339C32.1968 61.1777 34.9165 62.0225 34.9165 62.0225Z" fill="white"/>
<path d="M30.6359 62.3307C29.6102 62.3307 28.78 62.2942 28.1658 62.2213C25.9159 61.9557 24.0483 61.3327 24.0293 61.3269L23.1758 61.0394L24.076 61.0234C24.1154 61.0234 28.9843 60.9344 30.5849 60.9796C32.203 61.0234 34.8497 61.8405 34.962 61.8755L35.7587 62.1221L34.927 62.1804C34.9051 62.1819 32.7063 62.3336 30.6359 62.3336V62.3307ZM25.1178 61.3167C25.8677 61.5151 26.9781 61.7675 28.2022 61.9105C28.8034 61.982 29.6219 62.017 30.6359 62.017C31.8747 62.017 33.1587 61.963 33.9918 61.9192C33.0609 61.6683 31.5887 61.3167 30.579 61.2889C29.4395 61.2568 26.6483 61.2933 25.1192 61.3167H25.1178Z" fill="black"/>
<path d="M34.5938 61.491C34.5938 61.491 29.153 60.3355 27.2154 59.2703C25.2777 58.2038 20.5752 56.0283 20.5752 56.0283C20.5752 56.0283 24.5409 59.7154 27.1701 60.3355C29.7994 60.957 34.5953 61.491 34.5953 61.491H34.5938Z" fill="white"/>
<path d="M34.5765 61.6454C34.5283 61.6396 29.7411 61.1041 27.1338 60.487C24.4958 59.8625 20.6322 56.2922 20.4688 56.1419L19.751 55.4736L20.641 55.8851C20.6877 55.907 25.3713 58.0751 27.2914 59.1315C29.1867 60.1747 34.5735 61.3259 34.6275 61.3361L34.5779 61.644L34.5765 61.6454ZM21.4975 56.6292C22.7917 57.7279 25.3552 59.7458 27.2053 60.1835C28.4645 60.4811 30.2387 60.7598 31.7342 60.9684C30.0928 60.5409 28.1566 59.9646 27.1396 59.4058C25.771 58.6529 22.9842 57.3281 21.4975 56.6307V56.6292Z" fill="black"/>
<path d="M34.2246 59.8486C34.2246 59.8486 33.3944 56.8721 32.6109 55.629C31.8274 54.3859 29.4287 52.209 29.4287 52.209C29.4287 52.209 30.5347 54.8295 31.6888 56.2053C32.8414 57.5827 34.2246 59.8472 34.2246 59.8472V59.8486Z" fill="white"/>
<path d="M34.6772 60.8871L34.0922 59.9299C34.079 59.9066 32.7017 57.6582 31.5694 56.3071C30.4139 54.9283 29.3313 52.3793 29.286 52.2699L29.0117 51.6191L29.5355 52.0948C29.6347 52.1838 31.959 54.2994 32.7454 55.5469C33.5319 56.7959 34.3431 59.6848 34.3781 59.8074L34.6802 60.8885L34.6772 60.8871ZM29.893 52.8564C30.303 53.7275 31.05 55.1997 31.8087 56.1043C32.4784 56.9038 33.2313 58.0113 33.7434 58.7977C33.4312 57.826 32.9439 56.4486 32.4799 55.7103C31.9503 54.8699 30.6488 53.5772 29.893 52.8564Z" fill="black"/>
<path d="M32.6557 61.0454C32.6557 61.0454 26.4299 57.4036 25.0467 56.1604C23.6635 54.9173 19.5592 51.4068 18.9595 52.0298C18.3599 52.6514 18.6371 54.1178 18.6371 54.1178C18.6371 54.1178 17.2991 50.0762 18.4066 50.0762C19.514 50.0762 23.7555 54.0288 26.2461 56.1167C28.7367 58.2031 32.6557 61.0468 32.6557 61.0468V61.0454Z" fill="white"/>
<path d="M32.5772 61.1809C32.3219 61.0321 26.3208 57.5172 24.942 56.277C23.3399 54.8369 20.0716 52.1129 19.1685 52.1129C19.1349 52.1129 19.0926 52.1173 19.0722 52.1391C18.5353 52.6965 18.7877 54.0768 18.7906 54.0899L18.4886 54.1672C18.3791 53.836 17.4322 50.9033 17.9881 50.1329C18.0888 49.9943 18.2332 49.9199 18.4054 49.9199C19.2633 49.9199 21.4782 51.7861 24.513 54.4226C25.1725 54.996 25.8014 55.5402 26.3456 55.9969C28.8041 58.0571 32.7071 60.8906 32.7465 60.9212L32.5758 61.1824L32.5772 61.1809ZM19.1685 51.7992C20.3955 51.7992 24.6677 55.6088 25.1506 56.0436C25.9079 56.725 28.1694 58.1548 30.0268 59.29C28.7808 58.3489 27.3027 57.2065 26.1442 56.2362C25.5985 55.7795 24.9697 55.2324 24.3087 54.6589C22.1581 52.7913 19.2123 50.2336 18.4054 50.2336C18.3339 50.2336 18.2828 50.2599 18.242 50.3168C17.9925 50.6626 18.1763 51.8255 18.4448 52.8964C18.4915 52.536 18.6053 52.1727 18.846 51.9232C18.9234 51.843 19.0328 51.8006 19.1685 51.8006V51.7992Z" fill="black"/>
<path d="M16.2404 42.126C16.2404 42.126 25.326 53.8057 29.6608 57.004C33.9957 60.2022 34.5939 61.4906 34.5939 61.4906C34.5939 61.4906 24.0799 54.8285 20.1142 49.6328C16.1485 44.4357 16.2404 42.1274 16.2404 42.1274V42.126Z" fill="white"/>
<path d="M34.9601 61.9062L34.5107 61.6216C34.4057 61.5545 23.9267 54.8852 19.9902 49.726C16.0347 44.5434 16.0814 42.2162 16.0843 42.1199L16.1018 41.6924L16.3644 42.0294C16.4549 42.1461 25.4865 53.7296 29.7542 56.8768C34.0715 60.0634 34.7121 61.3692 34.7369 61.4232L34.9616 61.9047L34.9601 61.9062ZM16.4695 42.6699C16.6708 43.6198 17.4252 45.8507 20.2382 49.5363C23.5299 53.8507 31.4613 59.2463 33.9315 60.8732C33.3289 60.1932 32.0785 58.9822 29.5674 57.1292C25.7505 54.3132 18.1882 44.8483 16.4695 42.6699Z" fill="black"/>
<path d="M35.2612 65.3684C35.4698 65.5567 36.0593 65.7843 37.2542 65.9506C38.4492 66.1169 39.6019 66.2103 39.6471 66.0017C39.6909 65.7945 40.1067 62.9143 40.2526 62.6356C40.397 62.357 40.2628 62.0476 40.2628 62.0476L38.2639 61.623C38.2639 61.623 36.7698 63.2587 36.4065 63.7562C36.0418 64.2537 34.8774 65.0212 35.2612 65.367V65.3684Z" fill="white"/>
<path d="M46.7431 65.4064C46.5287 65.5917 45.9275 65.8105 44.7267 65.9579C43.5259 66.1052 42.3689 66.1797 42.3324 65.9725C42.2974 65.7653 42.0012 62.8793 41.867 62.5977C41.7327 62.3175 41.8801 62.0097 41.8801 62.0097L43.8965 61.6172C43.8965 61.6172 45.322 63.2747 45.6664 63.7781C46.0092 64.28 47.1429 65.0664 46.7446 65.4064H46.7431Z" fill="white"/>
<path d="M50.4088 25.5175C50.4088 25.5175 49.3933 25.748 48.7338 26.3813C48.0758 27.0145 47.4775 27.4756 47.4775 27.4756C47.4775 27.4756 49.5611 28.0198 51.1266 28.2241C52.6149 28.4181 54.1775 27.5894 55.015 26.5534C55.8525 25.516 53.2204 24.8828 53.2204 24.8828C53.2204 24.8828 51.3061 25.0564 50.4088 25.516V25.5175Z" fill="black"/>
<path d="M51.5687 28.5652C51.4082 28.5652 51.2463 28.555 51.0858 28.5346C49.5173 28.3303 47.4848 27.8007 47.3973 27.7788C47.282 27.7482 47.1944 27.6563 47.1711 27.5395C47.1478 27.4228 47.193 27.3032 47.2864 27.2302C47.2922 27.2258 47.8802 26.7706 48.5164 26.1578C49.1613 25.5362 50.0936 25.2751 50.2993 25.224C51.2506 24.7542 53.1109 24.582 53.1897 24.5747C53.2233 24.5733 53.2583 24.5747 53.2904 24.582C53.6012 24.6564 55.1667 25.0723 55.4454 25.8908C55.514 26.0921 55.5359 26.4044 55.2557 26.7531C54.3657 27.8561 52.9169 28.5682 51.5672 28.5682L51.5687 28.5652ZM48.156 27.3221C48.8855 27.4972 50.1447 27.7817 51.166 27.9145C52.6221 28.1027 54.0695 27.2244 54.7713 26.3562C54.8939 26.203 54.8676 26.1213 54.856 26.0878C54.7349 25.7332 53.8142 25.3553 53.197 25.1977C52.8921 25.2284 51.3061 25.4064 50.5517 25.793C50.5284 25.8047 50.5036 25.8135 50.4773 25.8193C50.4686 25.8222 49.5362 26.0396 48.9497 26.6043C48.6579 26.8859 48.3792 27.1325 48.156 27.3207V27.3221Z" fill="white"/>
<path d="M51.6645 25.2287C51.6645 25.2287 50.7672 23.4428 50.2288 22.0027C49.6904 20.5626 49.6904 20.2168 49.6904 20.2168C49.6904 20.2168 52.9791 20.5626 54.2369 22.579C55.9308 25.2958 55.0145 26.5535 55.0145 26.5535C55.0145 26.5535 52.7413 26.0924 51.6645 25.2287Z" fill="black"/>
<path d="M55.0147 26.867C54.9943 26.867 54.9739 26.8655 54.952 26.8611C54.8557 26.8422 52.5927 26.3738 51.4692 25.4736C51.4342 25.4459 51.4065 25.4094 51.3846 25.37C51.3481 25.297 50.4742 23.5535 49.9358 22.1134C49.4047 20.6923 49.377 20.2852 49.377 20.2181C49.377 20.1291 49.4134 20.0459 49.4805 19.9861C49.5462 19.9262 49.6337 19.8971 49.7227 19.9073C49.8628 19.9219 53.1793 20.2939 54.5012 22.4154C56.2856 25.2781 55.3095 26.6802 55.2672 26.7386C55.2073 26.8203 55.114 26.867 55.0147 26.867ZM51.9128 25.0271C52.7357 25.653 54.2575 26.0572 54.8411 26.1958C54.9856 25.7858 55.1665 24.6623 53.9715 22.7451C53.0713 21.3007 50.9878 20.7652 50.0861 20.596C50.1575 20.8527 50.2859 21.2642 50.5209 21.8945C50.9921 23.1537 51.7508 24.7003 51.9128 25.0271Z" fill="white"/>
<path d="M52.3828 22.5205C52.3828 22.5205 53.3881 23.4383 53.8098 24.7149L52.3828 22.5205Z" fill="black"/>
<path d="M53.811 25.0267C53.6796 25.0267 53.5585 24.9436 53.5148 24.8122C53.1237 23.6319 52.1812 22.7593 52.1724 22.7506C52.0455 22.6339 52.0368 22.4369 52.1535 22.31C52.2687 22.183 52.4672 22.1728 52.5941 22.2895C52.6379 22.3289 53.6651 23.2773 54.1072 24.6153C54.1611 24.7787 54.0721 24.9552 53.9087 25.0092C53.8752 25.0209 53.8431 25.0253 53.811 25.0253V25.0267Z" fill="white"/>
<path d="M51.1924 27.0015C51.1924 27.0015 52.4661 26.5287 53.9398 26.3857L51.1924 27.0015Z" fill="black"/>
<path d="M51.1927 27.3134C51.0658 27.3134 50.9462 27.236 50.8995 27.1091C50.8396 26.9471 50.9214 26.7677 51.0833 26.7079C51.1373 26.6874 52.4125 26.2191 53.908 26.0746C54.0817 26.0586 54.232 26.1841 54.2495 26.3548C54.2655 26.5269 54.14 26.6787 53.9693 26.6962C52.554 26.8333 51.3138 27.2886 51.3007 27.2929C51.2642 27.3061 51.2278 27.3119 51.1927 27.3119V27.3134Z" fill="white"/>
<path d="M55.1347 26.7274C55.1347 26.7274 54.2374 22.3488 47.4775 23.4446C47.4775 23.4446 49.5115 25.1735 50.349 25.8637C51.1865 26.5553 53.4597 27.2469 55.1347 26.7274Z" fill="black"/>
<path d="M53.8321 27.2204C52.3191 27.2204 50.8075 26.6455 50.1524 26.1042C49.3149 25.4126 47.2766 23.6822 47.2766 23.6822C47.1847 23.6034 47.1453 23.4779 47.1788 23.3612C47.2109 23.2445 47.3101 23.1569 47.4298 23.1365C48.1666 23.0169 48.8699 22.957 49.5221 22.957C54.6229 22.957 55.4342 26.628 55.4429 26.666C55.475 26.8235 55.3831 26.9797 55.2299 27.0263C54.8112 27.1562 54.3413 27.2219 53.8336 27.2219L53.8321 27.2204ZM48.2133 23.6574C48.8743 24.2177 49.9846 25.1558 50.5493 25.6227C51.13 26.1013 52.5146 26.5959 53.8321 26.5959C54.1575 26.5959 54.4639 26.5667 54.744 26.5069C54.4581 25.7176 53.3302 23.58 49.5206 23.58C49.1062 23.58 48.6685 23.6063 48.2118 23.6574H48.2133Z" fill="white"/>
<path d="M52.0244 25.1719C52.0244 25.1719 53.2807 25.3455 54.836 26.6703L52.0244 25.1719Z" fill="black"/>
<path d="M54.8356 26.981C54.7641 26.981 54.6927 26.9562 54.6328 26.9066C53.1767 25.6664 51.9919 25.4826 51.9803 25.4796C51.8096 25.4548 51.6914 25.2973 51.7162 25.1266C51.7395 24.9558 51.8913 24.8347 52.0678 24.861C52.1233 24.8683 53.4335 25.0624 55.0399 26.4295C55.1712 26.5418 55.1873 26.7388 55.0749 26.8701C55.0136 26.9431 54.9261 26.9796 54.8371 26.9796L54.8356 26.981Z" fill="white"/>
<path d="M56.2344 29.9964C56.2344 29.9964 55.2423 29.6827 54.3376 29.8928C53.433 30.1029 52.6729 30.1948 52.6729 30.1948C52.6729 30.1948 54.1553 31.7064 55.3809 32.6664C56.5452 33.5798 58.3267 33.6586 59.6034 33.1946C60.8786 32.7306 58.9774 30.8674 58.9774 30.8674C58.9774 30.8674 57.2514 30.0533 56.2359 29.9949L56.2344 29.9964Z" fill="black"/>
<path d="M57.9574 33.7858C56.8879 33.7858 55.9031 33.4764 55.1867 32.9133C53.9596 31.9503 52.5093 30.4766 52.4495 30.4139C52.3663 30.3293 52.3386 30.2052 52.378 30.0929C52.4174 29.9805 52.5166 29.9003 52.6348 29.8857C52.6421 29.8857 53.3906 29.7923 54.2675 29.5881C54.498 29.5341 54.749 29.5078 55.0174 29.5078C55.6244 29.5078 56.1453 29.645 56.2897 29.6873C57.3548 29.7646 59.0371 30.5525 59.1086 30.5861C59.1393 30.6006 59.1685 30.6211 59.1933 30.6459C59.4165 30.8633 60.5152 31.9926 60.3328 32.833C60.2861 33.0446 60.1416 33.332 59.7068 33.4881C59.1728 33.6822 58.5673 33.7843 57.956 33.7843L57.9574 33.7858ZM53.3322 30.4124C53.8604 30.9289 54.7767 31.7985 55.5719 32.423C56.1803 32.9001 57.0266 33.1628 57.9574 33.1628C58.4973 33.1628 59.0298 33.0737 59.4953 32.903C59.6952 32.8301 59.7156 32.7367 59.7244 32.7017C59.8031 32.3398 59.2297 31.5665 58.7964 31.1303C58.5163 31.0019 57.0703 30.3584 56.2182 30.3088C56.192 30.3088 56.1657 30.303 56.1409 30.2957C56.1365 30.2942 55.6186 30.1337 55.0174 30.1337C54.7971 30.1337 54.5914 30.1556 54.409 30.1979C54.0034 30.2928 53.6284 30.3628 53.3337 30.4124H53.3322Z" fill="white"/>
<path d="M57.4609 30.3819C57.4609 30.3819 57.6637 28.4078 57.9833 26.9094C58.3043 25.4095 58.491 25.1162 58.491 25.1162C58.491 25.1162 61.1115 27.0641 61.0911 29.4146C61.0648 32.5837 59.6028 33.1965 59.6028 33.1965C59.6028 33.1965 57.9132 31.6615 57.4624 30.3834L57.4609 30.3819Z" fill="black"/>
<path d="M59.6032 33.5069C59.5259 33.5069 59.4515 33.4792 59.3931 33.4252C59.3216 33.361 57.6393 31.8231 57.168 30.4837C57.152 30.4399 57.1476 30.3947 57.152 30.348C57.1607 30.2663 57.3592 28.3404 57.6802 26.8419C57.9968 25.3624 58.1938 25.0035 58.2302 24.9451C58.2769 24.8722 58.3528 24.8211 58.4374 24.8065C58.522 24.7919 58.611 24.8109 58.6796 24.8634C58.792 24.9466 61.427 26.9338 61.4051 29.4157C61.3774 32.7525 59.7914 33.4543 59.7258 33.4821C59.6864 33.4981 59.6455 33.5069 59.6047 33.5069H59.6032ZM57.7808 30.3422C58.1441 31.2876 59.2195 32.3922 59.6411 32.8007C59.9869 32.5278 60.7617 31.6626 60.7792 29.4098C60.7938 27.7246 59.2997 26.2218 58.6271 25.6309C58.5468 25.8833 58.433 26.3035 58.2901 26.9732C58.0114 28.2805 57.8202 29.976 57.7808 30.3422Z" fill="white"/>
<path d="M59.54 28.4326C59.54 28.4326 59.9019 29.721 59.5707 31.021L59.54 28.4326Z" fill="black"/>
<path d="M59.5709 31.333C59.5446 31.333 59.5184 31.3301 59.4936 31.3228C59.3258 31.2805 59.2251 31.1113 59.2674 30.9435C59.5753 29.7383 59.2411 28.5287 59.2382 28.5156C59.1915 28.3493 59.2893 28.1771 59.4542 28.1304C59.6205 28.0852 59.7927 28.18 59.8394 28.3463C59.854 28.4018 60.2202 29.731 59.8715 31.0967C59.8364 31.2382 59.7095 31.3316 59.5694 31.3316L59.5709 31.333Z" fill="white"/>
<path d="M56.0986 31.6572C56.0986 31.6572 57.4424 31.8951 58.776 32.5137L56.0986 31.6572Z" fill="black"/>
<path d="M58.7749 32.8242C58.7311 32.8242 58.6859 32.8155 58.645 32.795C57.3669 32.2012 56.0581 31.9648 56.0435 31.9634C55.8743 31.9342 55.7605 31.7722 55.7911 31.6015C55.8203 31.4323 55.9823 31.317 56.1515 31.3491C56.2084 31.3593 57.5522 31.6001 58.9062 32.2289C59.0623 32.3019 59.1309 32.4872 59.0579 32.6433C59.004 32.7571 58.8916 32.8242 58.7734 32.8242H58.7749Z" fill="white"/>
<path d="M59.611 33.4038C59.611 33.4038 61.2175 29.2178 54.8574 26.7549C54.8574 26.7549 55.6555 29.2528 55.9955 30.2625C56.3354 31.2736 57.8996 33.0055 59.6096 33.4038H59.611Z" fill="black"/>
<path d="M59.611 33.7157C59.5876 33.7157 59.5643 33.7128 59.5395 33.7069C57.7157 33.2809 56.0742 31.4716 55.7007 30.3613C55.3593 29.3502 54.5597 26.8494 54.5597 26.8494C54.5233 26.7341 54.5554 26.6101 54.6429 26.5269C54.7304 26.4437 54.8574 26.4189 54.9697 26.4627C61.5442 29.0073 59.9188 33.4691 59.9028 33.5143C59.8561 33.6369 59.7379 33.7142 59.611 33.7142V33.7157ZM55.3608 27.3002C55.6205 28.1085 56.0611 29.4771 56.2931 30.1614C56.5864 31.0325 57.9374 32.5368 59.398 33.0183C59.6037 32.1253 59.8474 29.2801 55.3608 27.2987V27.3002Z" fill="white"/>
<path d="M57.7988 30.5137C57.7988 30.5137 58.7764 31.2913 59.3863 33.2042L57.7988 30.5137Z" fill="black"/>
<path d="M59.386 33.5145C59.2532 33.5145 59.1307 33.4299 59.0883 33.2971C58.5193 31.5127 57.6118 30.7628 57.603 30.7555C57.4703 30.6475 57.4484 30.4505 57.5549 30.3163C57.6628 30.1821 57.8584 30.1602 57.9926 30.2667C58.0349 30.3002 59.0519 31.1261 59.6836 33.106C59.7362 33.2709 59.6457 33.446 59.4808 33.4985C59.4502 33.5087 59.4166 33.5131 59.386 33.5131V33.5145Z" fill="white"/>
<path d="M59.8178 36.5376C59.8178 36.5376 59.027 35.8139 58.0757 35.6228C57.123 35.4331 56.3613 35.1924 56.3613 35.1924C56.3613 35.1924 57.0602 37.2569 57.7722 38.6927C58.4492 40.0554 60.0951 40.8973 61.5162 41.0082C62.9358 41.1191 62.0035 38.5409 62.0035 38.5409C62.0035 38.5409 60.7502 37.0293 59.8164 36.5376H59.8178Z" fill="black"/>
<path d="M61.6041 41.3235C61.5691 41.3235 61.5326 41.3235 61.4947 41.3191C60.1086 41.2111 58.2658 40.3868 57.4954 38.8314C56.7834 37.3943 56.0976 35.3778 56.0685 35.2932C56.0305 35.1823 56.0582 35.0583 56.1414 34.9751C56.2231 34.8905 56.3471 34.8613 56.458 34.8963C56.4653 34.8993 57.2153 35.1342 58.1389 35.318C59.0668 35.5033 59.8357 36.138 60.0006 36.281C60.9709 36.8121 62.195 38.2799 62.2476 38.3426C62.2709 38.3704 62.2884 38.4025 62.3001 38.436C62.3643 38.614 62.9158 40.2 62.3964 40.9412C62.2738 41.1163 62.036 41.325 61.6056 41.325L61.6041 41.3235ZM56.8593 35.6594C57.1161 36.37 57.5859 37.6087 58.0542 38.5542C58.7181 39.8907 60.3289 40.6027 61.5428 40.6961L61.6041 40.699C61.7792 40.699 61.8463 40.6363 61.8843 40.5808C62.1177 40.2496 61.9382 39.2998 61.7311 38.6986C61.5253 38.4564 60.4573 37.2265 59.6738 36.815C59.6504 36.8033 59.6285 36.7873 59.6096 36.7698C59.6023 36.7625 58.8669 36.1015 58.0163 35.9308C57.5684 35.8418 57.1657 35.7426 56.8593 35.6609V35.6594Z" fill="white"/>
<path d="M60.801 37.4288C60.801 37.4288 61.9069 35.6502 62.9049 34.3721C63.9029 33.0925 64.2181 32.8955 64.2181 32.8955C64.2181 32.8955 65.7895 35.8632 64.6806 38.0752C63.1851 41.056 61.5188 41.0079 61.5188 41.0079C61.5188 41.0079 60.6346 38.831 60.8024 37.4303L60.801 37.4288Z" fill="black"/>
<path d="M61.5236 41.32H61.509C61.3849 41.3156 61.2755 41.2397 61.2288 41.1245C61.1923 41.0325 60.3169 38.8571 60.4905 37.3922C60.4964 37.347 60.511 37.3032 60.5358 37.2638C60.5474 37.2463 61.6622 35.4575 62.6587 34.1808C63.6406 32.9231 63.9908 32.6692 64.0506 32.6327C64.125 32.5861 64.2141 32.5729 64.2987 32.5963C64.3818 32.6181 64.4533 32.6751 64.4942 32.7524C64.5613 32.8793 66.1269 35.8879 64.9582 38.218C63.4451 41.2353 61.7147 41.3229 61.5236 41.3229V41.32ZM61.1048 37.5337C61.0085 38.5872 61.5177 40.1046 61.7234 40.6692C62.1758 40.57 63.3124 40.1046 64.4023 37.9364C65.2033 36.3387 64.4767 34.2581 64.1163 33.4192C63.9237 33.622 63.6144 33.9736 63.1519 34.566C62.2779 35.6865 61.3061 37.2142 61.1048 37.5352V37.5337Z" fill="white"/>
<path d="M63.6682 36.4805C63.6682 36.4805 63.4129 37.8534 62.4951 38.9404L63.6682 36.4805Z" fill="black"/>
<path d="M62.4969 39.2526C62.4254 39.2526 62.3539 39.2293 62.2955 39.1797C62.1642 39.0688 62.1467 38.8718 62.2576 38.7405C63.1082 37.7338 63.3592 36.4367 63.3621 36.4235C63.3942 36.2543 63.5576 36.1434 63.7269 36.174C63.8961 36.2061 64.007 36.3681 63.9764 36.5373C63.9647 36.5957 63.6948 38.0051 62.7362 39.1418C62.6734 39.2147 62.5859 39.2526 62.4969 39.2526Z" fill="white"/>
<path d="M58.9229 38.0459C58.9229 38.0459 60.0843 38.8484 61.0545 40.0054L58.9229 38.0459Z" fill="black"/>
<path d="M61.0542 40.3189C60.9652 40.3189 60.8762 40.281 60.8135 40.208C59.8811 39.0948 58.7562 38.3113 58.7445 38.304C58.603 38.2062 58.568 38.0122 58.6657 37.8692C58.7635 37.7276 58.9575 37.6912 59.0991 37.7904C59.1472 37.8239 60.3057 38.6293 61.2935 39.8068C61.4029 39.9381 61.3854 40.1351 61.2541 40.246C61.1957 40.2941 61.1257 40.3189 61.0542 40.3189Z" fill="white"/>
<path d="M61.4306 41.2082C61.4306 41.2082 64.8885 37.9443 60.0226 32.8828C60.0226 32.8828 59.6199 35.585 59.474 36.6866C59.3266 37.7867 60.0007 40.0964 61.4306 41.2082Z" fill="black"/>
<path d="M61.4302 41.5188C61.3631 41.5188 61.296 41.4969 61.2391 41.4532C59.7129 40.2669 59.0024 37.8522 59.1628 36.6426C59.3102 35.5411 59.7129 32.8345 59.7129 32.8345C59.7304 32.7163 59.8136 32.62 59.9274 32.5835C60.0412 32.5485 60.1652 32.5792 60.2469 32.6652C62.0722 34.5649 62.9768 36.4442 62.9331 38.2534C62.8849 40.2421 61.6958 41.386 61.6447 41.4342C61.5849 41.4911 61.5076 41.5188 61.4302 41.5188ZM60.2353 33.5728C60.1069 34.4424 59.8836 35.9656 59.7829 36.7243C59.6545 37.6771 60.2382 39.6877 61.3996 40.7703C61.7045 40.388 62.2823 39.4995 62.3086 38.2243C62.3407 36.7389 61.6432 35.1763 60.2353 33.5728Z" fill="white"/>
<path d="M61.0586 37.6973C61.0586 37.6973 61.6218 38.8543 61.311 40.9218L61.0586 37.6973Z" fill="black"/>
<path d="M61.3111 41.2344C61.2951 41.2344 61.279 41.2344 61.2644 41.2315C61.0937 41.2053 60.9756 41.0462 61.0018 40.877C61.2936 38.9466 60.783 37.8465 60.7771 37.8348C60.7042 37.6802 60.7684 37.4934 60.923 37.419C61.0762 37.346 61.2644 37.4088 61.3389 37.5634C61.3637 37.6145 61.9414 38.8314 61.619 40.9703C61.5957 41.125 61.4614 41.2359 61.3097 41.2359L61.3111 41.2344Z" fill="white"/>
<path d="M60.1301 44.8762C60.1301 44.8762 59.5742 43.9074 58.6812 43.423C57.7883 42.9386 57.1025 42.4658 57.1025 42.4658C57.1025 42.4658 57.1215 44.7551 57.3608 46.414C57.5884 47.9913 58.9643 49.3409 60.3548 49.8895C61.7438 50.4367 61.6621 47.5609 61.6621 47.5609C61.6621 47.5609 60.9034 45.6568 60.1301 44.8762Z" fill="black"/>
<path d="M60.6862 50.2701C60.5447 50.2701 60.3944 50.2395 60.2412 50.1782C58.8872 49.6456 57.3129 48.2537 57.0532 46.4576C56.8139 44.7957 56.7935 42.5619 56.792 42.4685C56.792 42.3518 56.8547 42.2438 56.9583 42.1898C57.0619 42.1344 57.1859 42.1432 57.2808 42.2088C57.2881 42.2132 57.9651 42.6801 58.8318 43.1484C59.7028 43.6197 60.2645 44.4937 60.3813 44.6848C61.1794 45.515 61.922 47.3666 61.9541 47.4454C61.9673 47.4789 61.9746 47.5154 61.976 47.5519C61.9804 47.7313 62.0081 49.3188 61.372 49.9739C61.1838 50.168 60.9459 50.2716 60.6877 50.2716L60.6862 50.2701ZM57.4281 43.0492C57.45 43.8327 57.5099 45.2539 57.6703 46.3686C57.8936 47.9181 59.2782 49.1291 60.4703 49.5975C60.5505 49.6296 60.622 49.6456 60.6862 49.6456C60.7781 49.6456 60.8511 49.6121 60.924 49.5377C61.2903 49.1598 61.3574 48.0582 61.353 47.6248C61.2275 47.3213 60.5607 45.7529 59.91 45.0963C59.891 45.0773 59.8735 45.0554 59.8604 45.0321C59.8546 45.0233 59.3351 44.1319 58.5341 43.6971C58.0978 43.4607 57.7127 43.2287 57.4281 43.0492Z" fill="white"/>
<path d="M60.8207 46.075C60.8207 46.075 62.522 44.6276 63.9475 43.65C65.3745 42.6724 65.7538 42.5703 65.7538 42.5703C65.7538 42.5703 66.3491 46.0327 64.5034 47.9148C62.0128 50.4492 60.3568 49.8889 60.3568 49.8889C60.3568 49.8889 60.1904 47.4304 60.8207 46.075Z" fill="black"/>
<path d="M60.8004 50.2525C60.4764 50.2525 60.2897 50.1956 60.2547 50.1825C60.135 50.1416 60.0519 50.0337 60.0431 49.9082C60.0358 49.8046 59.8782 47.3548 60.5363 45.9425C60.5552 45.9016 60.583 45.8666 60.6165 45.8374C60.634 45.8228 62.3455 44.3696 63.7695 43.3935C65.1688 42.4334 65.5992 42.289 65.6721 42.27C65.7553 42.2481 65.8472 42.2613 65.9216 42.3094C65.9946 42.3561 66.0457 42.4334 66.0603 42.5195C66.0865 42.6669 66.6614 46.1628 64.7252 48.1354C62.9145 49.9797 61.489 50.254 60.8004 50.254V50.2525ZM60.6544 49.6237C61.1549 49.6631 62.4753 49.5318 64.2787 47.6963C65.6269 46.3233 65.5788 43.9844 65.4941 43.0389C65.2344 43.1819 64.8011 43.4416 64.1226 43.9071C62.8664 44.7679 61.3738 46.0154 61.0761 46.2664C60.6253 47.3009 60.634 48.9948 60.6559 49.6222L60.6544 49.6237Z" fill="white"/>
<path d="M64.015 46.0029C64.015 46.0029 63.303 47.3044 62.0234 48.1127L64.015 46.0029Z" fill="black"/>
<path d="M62.0233 48.4245C61.9198 48.4245 61.8191 48.3734 61.7607 48.2786C61.6673 48.1341 61.7126 47.9401 61.857 47.8481C63.0549 47.0894 63.7348 45.8638 63.7421 45.8507C63.8253 45.6989 64.015 45.6435 64.1652 45.7281C64.317 45.8098 64.3724 45.9995 64.2893 46.1513C64.2586 46.2067 63.5233 47.533 62.1911 48.3763C62.1386 48.4099 62.0817 48.4245 62.0248 48.4245H62.0233Z" fill="white"/>
<path d="M58.7285 46.1162C58.7285 46.1162 59.6273 47.2776 60.2197 48.7396L58.7285 46.1162Z" fill="black"/>
<path d="M60.2212 49.0534C60.0987 49.0534 59.9805 48.9805 59.9323 48.8579C59.3633 47.4557 58.4923 46.3191 58.482 46.3075C58.377 46.1718 58.4018 45.9748 58.5375 45.8697C58.6746 45.7647 58.8702 45.7895 58.9752 45.9252C59.0131 45.9733 59.9075 47.1391 60.5101 48.623C60.5743 48.7835 60.4985 48.9644 60.338 49.0286C60.2986 49.0447 60.2592 49.0519 60.2198 49.0519L60.2212 49.0534Z" fill="white"/>
<path d="M60.2007 50.0613C60.2007 50.0613 64.7559 47.8465 61.5445 41.2676C61.5445 41.2676 60.2445 43.8574 59.7324 44.9181C59.2203 45.9789 59.1327 48.506 60.2007 50.0613Z" fill="black"/>
<path d="M60.2004 50.3736C60.0997 50.3736 60.0034 50.3255 59.9436 50.2379C58.8056 48.5804 58.8902 45.9439 59.4505 44.781C59.964 43.7203 61.2655 41.1276 61.2655 41.1276C61.3181 41.0211 61.426 40.9554 61.5442 40.9554C61.6726 40.9496 61.7718 41.024 61.8244 41.1305C63.0164 43.57 63.3068 45.7148 62.6896 47.5036C61.9951 49.5157 60.4032 50.3094 60.3361 50.3415C60.2923 50.3634 60.2456 50.3736 60.2004 50.3736ZM61.5325 41.987C61.1196 42.8128 60.3711 44.3098 60.0122 45.0539C59.5555 46.0008 59.4709 48.1807 60.3055 49.6412C61.143 49.1013 63.6992 46.9638 61.534 41.987H61.5325Z" fill="white"/>
<path d="M60.9894 46.4229C60.9894 46.4229 61.1718 47.7579 60.1738 49.7393L60.9894 46.4229Z" fill="black"/>
<path d="M60.1751 50.0514C60.127 50.0514 60.0803 50.0412 60.035 50.0178C59.8818 49.9405 59.8191 49.7537 59.8964 49.5991C60.8317 47.7417 60.6829 46.4767 60.6814 46.4635C60.6595 46.2928 60.7792 46.1367 60.9499 46.1134C61.1177 46.0944 61.2767 46.2097 61.3 46.3804C61.3088 46.4387 61.4839 47.8336 60.4553 49.8792C60.3998 49.9886 60.2904 50.0514 60.1766 50.0514H60.1751Z" fill="white"/>
<path d="M58.1488 52.7486C58.1488 52.7486 58.0714 51.6441 57.4747 50.8417C56.8794 50.0392 56.4665 49.3301 56.4665 49.3301C56.4665 49.3301 55.4772 51.4122 54.9666 53.0142C54.4807 54.5375 55.1343 56.3204 56.1542 57.3826C57.1726 58.4448 58.3603 55.8054 58.3603 55.8054C58.3603 55.8054 58.5091 53.7714 58.1502 52.7486H58.1488Z" fill="black"/>
<path d="M56.6734 57.9454C56.4005 57.9454 56.1496 57.8287 55.9278 57.5982C54.9327 56.5623 54.1142 54.6553 54.6686 52.919C55.1807 51.3155 56.1423 49.283 56.1831 49.1969C56.2327 49.0933 56.3363 49.0233 56.453 49.0189C56.5683 49.0131 56.6777 49.0744 56.7361 49.1736C56.739 49.1809 57.1476 49.8783 57.7268 50.656C58.3104 51.4395 58.4359 52.4594 58.4593 52.6841C58.8182 53.7638 58.6796 55.7437 58.6723 55.8284C58.6694 55.8648 58.6606 55.8999 58.646 55.9334C58.4943 56.269 57.6889 57.9469 56.6748 57.9469L56.6734 57.9454ZM56.5056 49.9892C56.1817 50.7071 55.6083 52.0275 55.2625 53.1087C54.7868 54.6028 55.5061 56.2588 56.3786 57.1663C56.5275 57.3224 56.6369 57.3224 56.6734 57.3224C57.1169 57.3224 57.7356 56.4061 58.0522 55.7262C58.0726 55.4009 58.1572 53.7113 57.8552 52.8519C57.8464 52.8271 57.8406 52.7979 57.8377 52.7716C57.8377 52.76 57.7574 51.7445 57.2249 51.0295C56.9331 50.637 56.6865 50.2679 56.507 49.9907L56.5056 49.9892Z" fill="white"/>
<path d="M58.2476 54.1155C58.2476 54.1155 60.423 53.4968 62.1447 53.1919C63.8664 52.8869 64.2559 52.9497 64.2559 52.9497C64.2559 52.9497 63.2769 56.3303 60.7761 57.2831C57.4071 58.567 56.1523 57.3837 56.1523 57.3837C56.1523 57.3837 57.0788 55.0886 58.2476 54.1169V54.1155Z" fill="black"/>
<path d="M57.9701 58.1922C56.5957 58.1922 56.0018 57.6684 55.9391 57.6086C55.8457 57.5211 55.8165 57.3839 55.8647 57.2643C55.9041 57.168 56.835 54.8846 58.0489 53.8749C58.0825 53.8472 58.1219 53.8267 58.1642 53.8151C58.1861 53.8092 60.3746 53.1891 62.092 52.8842C64.0077 52.5442 64.3068 52.6405 64.3068 52.6405C64.3929 52.658 64.4731 52.7106 64.5184 52.785C64.5636 52.8594 64.5811 52.9513 64.5578 53.0345C64.5154 53.1789 63.5058 56.5771 60.8897 57.5736C59.8129 57.9836 58.8324 58.1922 57.9716 58.1922H57.9701ZM56.5417 57.2672C56.7693 57.3898 57.2289 57.5678 57.9701 57.5678C58.7536 57.5678 59.6597 57.3737 60.665 56.99C62.4903 56.294 63.4708 54.1696 63.8136 53.2708C63.5131 53.2942 63.0082 53.3555 62.1985 53.4984C60.6767 53.7684 58.7711 54.2922 58.3976 54.3972C57.5368 55.1486 56.8014 56.685 56.5417 57.2672Z" fill="white"/>
<path d="M61.1747 55.3535C61.1747 55.3535 59.9593 56.2421 58.4434 56.4551L61.1747 55.3535Z" fill="black"/>
<path d="M58.4431 56.767C58.2899 56.767 58.1557 56.6546 58.1338 56.4985C58.1105 56.3278 58.2286 56.1702 58.3993 56.1454C59.8219 55.9455 60.979 55.1095 60.9906 55.1007C61.1292 55 61.3248 55.0292 61.4269 55.1693C61.5276 55.3079 61.4984 55.5034 61.3583 55.6055C61.3072 55.6435 60.0627 56.5423 58.4869 56.764C58.4723 56.767 58.4563 56.767 58.4431 56.767Z" fill="white"/>
<path d="M56.334 53.3027C56.334 53.3027 56.6389 54.7224 56.5339 56.288L56.334 53.3027Z" fill="black"/>
<path d="M56.5334 56.6002C56.5261 56.6002 56.5188 56.6002 56.5115 56.6002C56.3394 56.5885 56.2095 56.4397 56.2212 56.2675C56.3218 54.7676 56.0315 53.383 56.0286 53.3684C55.9921 53.1991 56.1001 53.0342 56.2679 52.9978C56.4371 52.9598 56.6034 53.0693 56.6385 53.237C56.6516 53.2969 56.9522 54.718 56.8442 56.3098C56.834 56.4747 56.6968 56.6002 56.5334 56.6002Z" fill="white"/>
<path d="M55.9364 57.475C55.9364 57.475 61.0372 57.3218 61.0154 50.0527C61.0154 50.0527 58.6998 51.8707 57.7704 52.6236C56.841 53.3765 55.6519 55.6307 55.9378 57.475H55.9364Z" fill="black"/>
<path d="M55.9367 57.7875C55.7835 57.7875 55.6522 57.6752 55.6289 57.5234C55.3254 55.5595 56.5568 53.2046 57.5738 52.3817C58.5047 51.6274 60.8231 49.8079 60.8231 49.8079C60.918 49.735 61.0449 49.7204 61.1529 49.7714C61.2608 49.824 61.328 49.9319 61.328 50.0516C61.3513 57.538 56.0009 57.7846 55.947 57.786H55.9367V57.7875ZM60.6904 50.7052C59.9535 51.2845 58.6185 52.3379 57.9663 52.8661C57.1361 53.5373 56.1031 55.4734 56.214 57.1338C57.2163 56.9836 60.4642 56.0819 60.6918 50.7067L60.6904 50.7052Z" fill="white"/>
<path d="M58.2491 54.501C58.2491 54.501 57.8304 55.7835 56.0547 57.1754L58.2491 54.501Z" fill="black"/>
<path d="M56.0546 57.4858C55.9612 57.4858 55.8708 57.445 55.8095 57.3662C55.703 57.2305 55.7278 57.035 55.862 56.9285C57.5268 55.6226 57.9485 54.4131 57.9529 54.4014C58.0083 54.238 58.1848 54.1504 58.3483 54.2044C58.5117 54.2599 58.6007 54.4349 58.5467 54.5969C58.5292 54.6523 58.0754 55.9874 56.2487 57.4202C56.1918 57.4654 56.1232 57.4873 56.0561 57.4873L56.0546 57.4858Z" fill="white"/>
<path d="M52.5483 58.4845C52.5483 58.4845 52.9334 57.4413 52.716 56.4783C52.4986 55.5139 52.414 54.7041 52.414 54.7041C52.414 54.7041 50.6486 56.2361 49.5163 57.5099C48.4425 58.7209 48.3053 60.6089 48.8029 61.9731C49.2989 63.3373 51.4788 61.3705 51.4788 61.3705C51.4788 61.3705 52.4549 59.5613 52.5483 58.486V58.4845Z" fill="black"/>
<path d="M49.4549 62.7654C49.0055 62.7654 48.6713 62.5202 48.5094 62.0781C48.0235 60.746 48.0585 58.6815 49.2827 57.3012C50.4135 56.0274 52.1351 54.5304 52.2081 54.4677C52.2956 54.3904 52.4197 54.3699 52.5276 54.4123C52.6356 54.4546 52.7115 54.5538 52.7231 54.669C52.7231 54.6778 52.8107 55.4744 53.0193 56.4082C53.2309 57.3508 52.926 58.3386 52.853 58.5516C52.7363 59.6795 51.7923 61.442 51.7514 61.5164C51.7354 61.547 51.712 61.5762 51.6858 61.5996C51.553 61.7192 50.3682 62.7654 49.4519 62.7654H49.4549ZM52.1833 55.3256C51.5909 55.8596 50.5156 56.8533 49.751 57.7156C48.6961 58.9047 48.6728 60.6993 49.0974 61.8637C49.1864 62.1073 49.3221 62.1409 49.4563 62.1409C50.0078 62.1409 50.8877 61.4726 51.232 61.1721C51.3837 60.8832 52.1599 59.3614 52.2387 58.4568C52.2417 58.429 52.2475 58.4013 52.2562 58.3765C52.2592 58.3663 52.605 57.4048 52.4124 56.5454C52.3073 56.0785 52.2329 55.6495 52.1833 55.3256Z" fill="white"/>
<path d="M52.0734 59.7764C52.0734 59.7764 54.3248 60.0434 56.0304 60.4213C57.736 60.8006 58.0673 61.0078 58.0673 61.0078C58.0673 61.0078 55.7722 63.7333 53.0846 63.6502C49.4617 63.5378 48.8008 61.9708 48.8008 61.9708C48.8008 61.9708 50.5998 60.2199 52.072 59.7764H52.0734Z" fill="black"/>
<path d="M53.2074 63.9649H53.0775C49.2986 63.8467 48.5457 62.1644 48.5165 62.0929C48.4669 61.9748 48.4946 61.8376 48.5865 61.7471C48.6624 61.6742 50.4571 59.9379 51.9847 59.4769C52.0255 59.4652 52.0679 59.4593 52.1116 59.4652C52.135 59.4681 54.3994 59.7366 56.1007 60.1145C57.7742 60.4865 58.1726 60.7025 58.2368 60.7419C58.3126 60.79 58.3651 60.8688 58.3797 60.9578C58.3929 61.0468 58.3681 61.1387 58.3097 61.2058C58.2149 61.3196 55.9577 63.962 53.2088 63.962L53.2074 63.9649ZM49.2081 62.0214C49.5101 62.3964 50.4862 63.2587 53.098 63.339H53.2088C55.129 63.339 56.8521 61.8143 57.5291 61.1314C57.2431 61.038 56.7573 60.9023 55.965 60.7258C54.4563 60.3902 52.4866 60.1407 52.1043 60.094C50.9998 60.453 49.6867 61.5837 49.2081 62.02V62.0214Z" fill="white"/>
<path d="M54.2485 62.0321C54.2485 62.0321 52.7676 62.3808 51.2881 61.9971L54.2485 62.0321Z" fill="black"/>
<path d="M52.8 62.49C52.3171 62.49 51.7655 62.4433 51.2082 62.2989C51.0404 62.2565 50.9412 62.0858 50.9849 61.918C51.0273 61.7517 51.1994 61.651 51.3658 61.6948C52.7548 62.0537 54.1628 61.7298 54.1759 61.7284C54.3437 61.6904 54.5115 61.7926 54.5523 61.9604C54.5917 62.1281 54.4881 62.2974 54.3203 62.3353C54.2795 62.3455 53.6492 62.49 52.8 62.49Z" fill="white"/>
<path d="M50.6536 58.2979C50.6536 58.2979 50.3472 59.7175 49.6045 61.1138L50.6536 58.2979Z" fill="black"/>
<path d="M49.6033 61.4261C49.5551 61.4261 49.5041 61.4145 49.4574 61.3897C49.3056 61.308 49.2473 61.1197 49.329 60.9665C50.041 59.6286 50.346 58.2454 50.3489 58.2323C50.3853 58.0645 50.5517 57.958 50.7209 57.993C50.8887 58.0295 50.9952 58.1958 50.9602 58.3636C50.9471 58.4234 50.6348 59.8431 49.8805 61.2613C49.8251 61.3663 49.7171 61.4261 49.6048 61.4261H49.6033Z" fill="white"/>
<path d="M48.5664 61.9744C48.5664 61.9744 53.3098 63.788 56.2907 57.1113C56.2907 57.1113 53.4149 57.8919 52.252 58.226C51.0877 58.5602 49.0669 60.1739 48.5664 61.9758V61.9744Z" fill="black"/>
<path d="M50.0457 62.5111C49.1076 62.5111 48.4816 62.2762 48.4539 62.266C48.3036 62.2091 48.2219 62.0471 48.2657 61.891C48.7982 59.9738 50.8964 58.2886 52.1657 57.9253C53.3315 57.5911 56.2088 56.8091 56.2088 56.8091C56.3255 56.777 56.4495 56.8149 56.5283 56.9068C56.6057 56.9988 56.6246 57.1272 56.5765 57.238C54.528 61.8253 51.6055 62.5111 50.0457 62.5111ZM48.9631 61.7655C49.2039 61.8224 49.5818 61.8881 50.0457 61.8881C51.677 61.8881 53.9458 61.1235 55.7185 57.5911C54.8008 57.8406 53.1506 58.2929 52.3379 58.5264C51.2991 58.824 49.554 60.1999 48.9631 61.7655Z" fill="white"/>
<path d="M51.9178 60.1299C51.9178 60.1299 51.003 61.1468 48.7998 61.7421L51.9178 60.1299Z" fill="black"/>
<path d="M48.7998 62.0546C48.6612 62.0546 48.5357 61.9627 48.4992 61.8241C48.454 61.6578 48.5532 61.4871 48.7195 61.4418C50.7899 60.8816 51.6785 59.9303 51.6873 59.9215C51.8025 59.7946 51.9995 59.7844 52.1279 59.8996C52.2548 60.0149 52.2651 60.2119 52.1498 60.3388C52.1104 60.3826 51.1474 61.4316 48.8815 62.0444C48.8552 62.0517 48.826 62.0546 48.7998 62.0546Z" fill="white"/>
<path d="M42.7016 60.3952C42.7016 60.3952 44.5094 59.4949 45.7569 59.4132C47.6843 59.2863 48.2723 59.8291 48.3365 60.3412C48.4007 60.8519 47.9236 62.7661 47.6989 63.0419C47.4742 63.3177 46.7359 63.6518 44.683 63.179C43.8572 62.9894 42.4375 62.2336 42.4375 62.2336L42.7016 60.3937V60.3952Z" fill="white"/>
<path d="M47.4173 63.1424C47.4173 63.1424 47.3881 62.3969 43.0576 61.9971L47.4173 63.1424Z" fill="white"/>
<path d="M42.9688 60.9774C42.9688 60.9774 46.2312 59.5767 48.2768 60.6141L42.9688 60.9774Z" fill="white"/>
<path d="M43.1172 61.4515C43.1172 61.4515 46.794 60.9058 48.0401 61.7798L43.1172 61.4515Z" fill="white"/>
<path d="M39.5661 60.3952C39.5661 60.3952 37.7583 59.4949 36.5108 59.4132C34.5834 59.2863 33.9939 59.8291 33.9297 60.3412C33.8655 60.8519 34.3426 62.7661 34.5673 63.0419C34.792 63.3177 35.5303 63.6518 37.5832 63.179C38.409 62.9894 39.8301 62.2336 39.8301 62.2336L39.5646 60.3937L39.5661 60.3952Z" fill="white"/>
<path d="M34.8506 63.1424C34.8506 63.1424 34.8812 62.3969 39.2102 61.9971L34.8506 63.1424Z" fill="white"/>
<path d="M39.2993 60.9774C39.2993 60.9774 36.0368 59.5767 33.9912 60.6141L39.2993 60.9774Z" fill="white"/>
<path d="M39.1504 61.4515C39.1504 61.4515 35.475 60.9058 34.2275 61.7798L39.1504 61.4515Z" fill="white"/>
<path d="M39.6773 60.3455C40.2084 60.2667 40.9044 60.3236 41.5449 60.3236C42.1854 60.3236 42.7515 60.3046 42.8799 60.5599C42.912 60.6241 42.9339 62.0876 42.8858 62.2364C42.8216 62.4334 42.1154 62.4728 41.3771 62.4523C41.1816 62.4465 40.97 62.4494 40.7614 62.4523C40.1807 62.4611 39.6175 62.4801 39.4511 62.394C39.3067 62.3181 39.1083 61.5361 39.2002 60.9597C39.2046 60.9305 39.2104 60.9028 39.2162 60.8766C39.2775 60.5993 39.4161 60.3849 39.6758 60.3469L39.6773 60.3455Z" fill="white"/>
<path d="M41.5468 69.9677C26.5302 69.9677 14.3135 57.6459 14.3135 42.4995C14.3135 27.353 26.5302 15.0312 41.5468 15.0312C56.5634 15.0312 68.7801 27.353 68.7801 42.4995C68.7801 57.6459 56.5634 69.9677 41.5468 69.9677ZM41.5468 15.3449C26.7023 15.3449 14.6257 27.5266 14.6257 42.5009C14.6257 57.4752 26.7023 69.6569 41.5468 69.6569C56.3912 69.6569 68.4678 57.4752 68.4678 42.5009C68.4678 27.5266 56.3912 15.3449 41.5468 15.3449Z" fill="white"/>
<path d="M41.5462 69.1872C26.7878 69.1872 14.7812 57.182 14.7812 42.4266C14.7812 27.6711 26.7878 15.666 41.5462 15.666C56.3046 15.666 68.3111 27.6711 68.3111 42.4266C68.3111 57.182 56.3031 69.1872 41.5462 69.1872ZM41.5462 15.9768C26.96 15.9768 15.0935 27.8419 15.0935 42.4251C15.0935 57.0084 26.96 68.8735 41.5462 68.8735C56.1324 68.8735 68.0004 57.0084 68.0004 42.4251C68.0004 27.8419 56.1324 15.9768 41.5462 15.9768Z" fill="white"/>
<path d="M41.5465 75.7412C23.3725 75.7412 8.58789 60.8282 8.58789 42.4995C8.58789 24.1708 23.374 9.25781 41.5465 9.25781C59.7191 9.25781 74.5052 24.1708 74.5052 42.4995C74.5052 60.8282 59.7191 75.7412 41.5465 75.7412ZM41.5465 9.56859C23.5447 9.56859 8.90013 24.3415 8.90013 42.4981C8.90013 60.6546 23.5461 75.4275 41.5465 75.4275C59.5469 75.4275 74.1929 60.6546 74.1929 42.4981C74.1929 24.3415 59.5484 9.56859 41.5465 9.56859Z" fill="white"/>
<path d="M37.4837 73.8372L36.582 73.6883C36.7031 73.112 36.7921 72.6466 36.8504 72.2906C36.9102 71.9287 36.9657 71.5406 37.0182 71.1262L36.439 71.2736L36.3164 70.9205L37.6514 70.2041L38.0702 70.2741C37.8922 71.1977 37.7609 71.9141 37.6777 72.4277C37.6208 72.772 37.5551 73.2419 37.4837 73.8372Z" fill="white"/>
<path d="M41.1037 73.1402C41.0832 73.4568 40.9476 73.7092 40.6966 73.8975C40.4442 74.0857 40.1319 74.1674 39.7613 74.1426C39.3951 74.1192 39.1033 74.004 38.8874 73.7997C38.67 73.594 38.5722 73.3416 38.5912 73.0381C38.6058 72.8192 38.6787 72.6252 38.813 72.4559C38.9559 72.2735 39.1529 72.1408 39.4039 72.0576L39.4068 72.0138C39.0595 71.7818 38.8976 71.49 38.9195 71.1398C38.9355 70.8845 39.0522 70.6832 39.2711 70.5314C39.487 70.3855 39.7511 70.3242 40.0619 70.3432C40.3669 70.3622 40.6091 70.4526 40.7914 70.6146C40.9738 70.7751 41.057 70.9721 41.0409 71.2055C41.0307 71.3762 40.9738 71.5309 40.8717 71.6695C40.7593 71.8241 40.6091 71.9321 40.4223 71.9949L40.4194 72.0386C40.9038 72.3275 41.1314 72.6952 41.1037 73.1388V73.1402ZM40.4179 73.149C40.4398 72.7959 40.2297 72.5026 39.7861 72.2692C39.6388 72.3129 39.5148 72.4034 39.4141 72.5405C39.3134 72.6777 39.258 72.828 39.2478 72.9928C39.2361 73.184 39.2828 73.3401 39.3878 73.4612C39.4929 73.5823 39.6344 73.648 39.811 73.6596C39.9773 73.6713 40.1174 73.629 40.2312 73.5342C40.345 73.4408 40.4077 73.3124 40.4179 73.1504V73.149ZM40.4544 71.2653C40.4632 71.1223 40.4267 71.0042 40.3435 70.9137C40.2603 70.8232 40.148 70.7736 40.0079 70.7649C39.8708 70.7561 39.757 70.7838 39.6665 70.851C39.576 70.9166 39.5264 71.01 39.5177 71.1282C39.5002 71.3996 39.6753 71.6374 40.0429 71.8431C40.2983 71.7337 40.4354 71.5411 40.4529 71.2653H40.4544Z" fill="white"/>
<path d="M44.3022 73.0747C44.3139 73.3927 44.203 73.6568 43.971 73.8684C43.739 74.0799 43.437 74.1908 43.0649 74.204C42.6987 74.2171 42.3967 74.1325 42.1618 73.9486C41.9254 73.7662 41.8029 73.5226 41.7926 73.2206C41.7853 73.0017 41.8393 72.8018 41.9561 72.6194C42.0801 72.4239 42.2639 72.2722 42.5047 72.1657V72.1219C42.1341 71.9249 41.9444 71.6506 41.9327 71.3004C41.924 71.0451 42.0203 70.8321 42.2231 70.6599C42.423 70.4936 42.6798 70.406 42.992 70.3958C43.2969 70.3842 43.5479 70.4513 43.7434 70.5928C43.9404 70.7343 44.044 70.9225 44.0513 71.1575C44.0571 71.3282 44.0162 71.4872 43.9272 71.636C43.8309 71.8009 43.6923 71.922 43.5129 72.0037V72.0475C44.025 72.2868 44.2876 72.6296 44.3022 73.0747ZM43.6208 73.1505C43.6092 72.7974 43.3699 72.5246 42.9059 72.3364C42.7629 72.3947 42.6491 72.4954 42.563 72.6428C42.4769 72.7887 42.4361 72.9433 42.4419 73.1082C42.4492 73.3008 42.5105 73.4511 42.6272 73.5605C42.7439 73.67 42.8913 73.7225 43.0693 73.7166C43.2357 73.7108 43.3699 73.6554 43.4749 73.5503C43.58 73.4453 43.6281 73.311 43.6223 73.1491L43.6208 73.1505ZM43.472 71.2727C43.4676 71.1283 43.4195 71.0159 43.3261 70.9342C43.2342 70.8525 43.1189 70.8131 42.9789 70.819C42.8417 70.8233 42.7308 70.8642 42.6477 70.9386C42.563 71.013 42.5236 71.1108 42.528 71.2275C42.5368 71.5003 42.7337 71.7192 43.1204 71.887C43.364 71.7527 43.4808 71.5485 43.472 71.2727Z" fill="white"/>
<path d="M47.0715 71.4506C47.1678 72.1524 47.0832 72.7229 46.8177 73.1577C46.5463 73.5998 46.1042 73.877 45.4928 73.9894L45.3659 73.5823C45.789 73.4977 46.0969 73.2963 46.2866 72.9797C46.4471 72.7112 46.5156 72.38 46.4923 71.989L46.466 71.9919C46.3376 72.1918 46.1334 72.31 45.8532 72.3479C45.5497 72.3902 45.2959 72.3188 45.0901 72.1335C44.9048 71.9657 44.7925 71.7424 44.7546 71.4652C44.7122 71.1603 44.7706 70.8889 44.9282 70.6481C45.1062 70.3797 45.3717 70.2221 45.7278 70.1725C46.04 70.1302 46.3187 70.206 46.5594 70.403C46.8352 70.6277 47.0059 70.9764 47.0715 71.4492V71.4506ZM46.4617 71.614C46.412 71.2522 46.3143 70.9852 46.1684 70.8159C46.0473 70.6729 45.9072 70.6117 45.7467 70.6335C45.5935 70.654 45.4797 70.7342 45.4053 70.8743C45.3367 71.0012 45.3148 71.15 45.3382 71.3164C45.363 71.4988 45.433 71.6461 45.5483 71.7614C45.6796 71.8898 45.8372 71.9409 46.0254 71.9146C46.2224 71.8883 46.3683 71.7891 46.4602 71.6155L46.4617 71.614Z" fill="white"/>
<path d="M41.5469 83.5457C19.216 83.5457 1.04785 65.1674 1.04785 42.5782C1.04785 19.9891 19.216 1.60938 41.5469 1.60938C63.8778 1.60938 82.046 19.9877 82.046 42.5768C82.046 65.1659 63.8778 83.5442 41.5469 83.5442V83.5457ZM41.5469 1.92307C19.3882 1.92161 1.36009 20.1598 1.36009 42.5768C1.36009 64.9937 19.3882 83.232 41.5469 83.232C63.7056 83.232 81.7337 64.9937 81.7337 42.5768C81.7337 20.1598 63.7071 1.92161 41.5469 1.92161V1.92307Z" fill="white"/>
<path d="M41.5467 84.404C18.638 84.404 0 65.6055 0 42.4998C0 19.3942 18.638 0.595703 41.5467 0.595703C64.4553 0.595703 83.0933 19.3942 83.0933 42.4998C83.0933 65.6055 64.4553 84.404 41.5467 84.404ZM41.5467 1.06406C18.8962 1.06406 0.468357 19.6525 0.468357 42.4998C0.468357 65.3472 18.8962 83.9356 41.5467 83.9356C64.1971 83.9356 82.625 65.3472 82.625 42.4998C82.625 19.6525 64.1985 1.06406 41.5467 1.06406Z" fill="white"/>
<path d="M41.4856 75.0382C23.6632 75.0382 9.16309 60.4053 9.16309 42.4209C9.16309 24.4366 23.6632 9.80371 41.4856 9.80371C59.308 9.80371 73.8081 24.4366 73.8081 42.4209C73.8081 60.4053 59.308 75.0382 41.4856 75.0382ZM41.4856 10.1159C23.8354 10.1159 9.47532 24.6073 9.47532 42.4209C9.47532 60.2346 23.8354 74.7259 41.4856 74.7259C59.1358 74.7259 73.4958 60.2331 73.4958 42.4209C73.4958 24.6088 59.1358 10.1159 41.4856 10.1159Z" fill="white"/>
<path d="M2.88867 43.5161C3.64009 43.4767 4.39004 43.4271 5.14 43.3673C6.62094 43.2491 7.41029 43.7977 7.50659 45.0131C7.55474 45.6142 7.42634 46.0797 7.12286 46.4094C6.81937 46.7392 6.24159 46.9376 5.39241 47.0047C4.64246 47.0645 3.90563 47.1331 3.18194 47.2119L3.10607 46.2635C3.86186 46.2329 4.58993 46.1891 5.29174 46.1336C5.90454 46.084 6.31892 45.9732 6.53486 45.7981C6.74934 45.6244 6.84564 45.3735 6.81937 45.0481C6.79165 44.7067 6.65888 44.4689 6.42105 44.3346C6.18176 44.2004 5.7528 44.1581 5.1327 44.2077C4.45278 44.2617 3.72909 44.3346 2.96162 44.4251L2.88867 43.5176V43.5161Z" fill="white"/>
<path d="M7.40876 38.82L7.36937 39.6502C7.27745 39.6458 6.77845 39.9303 5.87383 40.5037C4.91961 41.1034 4.27033 41.4405 3.92599 41.5149V41.5688C4.41624 41.5367 4.85979 41.5295 5.25519 41.5484C5.80818 41.5747 6.4808 41.5922 7.27599 41.598L7.23659 42.4239C6.545 42.3567 5.78483 42.3042 4.95609 42.2648C4.14047 42.2254 3.4445 42.2094 2.87109 42.2152L2.91924 41.2187C3.03743 41.2245 3.52329 40.9706 4.37684 40.457C5.28292 39.9099 5.89572 39.6006 6.21234 39.5276L6.21525 39.478C5.7148 39.5072 5.26541 39.513 4.87 39.4955C4.26449 39.4663 3.64148 39.4518 3.00387 39.4532L3.04326 38.6143C3.59625 38.6726 4.2893 38.7208 5.12388 38.7602C5.9643 38.801 6.72592 38.8214 7.41022 38.8229L7.40876 38.82Z" fill="white"/>
<path d="M7.68299 37.0147L7.55168 37.9558C6.86884 37.8318 6.11597 37.7107 5.29306 37.5969C4.48328 37.483 3.79315 37.4013 3.22266 37.3517L3.35397 36.4092C3.90841 36.5157 4.59417 36.6266 5.4127 36.7404C6.24874 36.8571 7.00453 36.949 7.68299 37.0132V37.0147Z" fill="white"/>
<path d="M4.28667 31.8335C4.46614 31.8743 5.12125 32.2843 6.25348 33.0635C7.38571 33.8426 8.03937 34.2526 8.21445 34.292L8.01164 35.1937C7.84385 35.1558 7.07931 35.2258 5.71801 35.4023C4.35671 35.5789 3.59654 35.6504 3.4375 35.6139L3.67095 34.5736C3.82999 34.6101 4.4282 34.5897 5.46559 34.5167C6.50298 34.4423 7.0866 34.4204 7.21792 34.4496L7.23105 34.3941C7.10411 34.365 6.60657 34.0994 5.73552 33.5931C4.86446 33.0883 4.31293 32.8096 4.07949 32.7571L4.28667 31.832V31.8335Z" fill="white"/>
<path d="M8.92067 29.4466L9.6108 29.7107L8.69014 32.4173C8.05983 32.1721 7.34343 31.9124 6.54095 31.6381C5.76911 31.3755 5.10669 31.1654 4.55371 31.0078L5.43206 28.4238L6.11636 28.6967C5.8654 29.3211 5.65238 29.8931 5.47729 30.4111C5.77932 30.4899 6.12949 30.5978 6.53073 30.735C6.68102 30.2914 6.8313 29.8129 6.97866 29.3007L7.64254 29.5269C7.45286 30.0157 7.28069 30.4869 7.12749 30.9378C7.55791 31.0837 7.96353 31.2135 8.34434 31.3244C8.54131 30.7423 8.73537 30.1178 8.92213 29.4481L8.92067 29.4466Z" fill="white"/>
<path d="M11.3509 25.8937L10.9307 26.7954C10.1034 26.6947 9.57525 26.667 9.3491 26.7151C9.12294 26.7618 8.94348 26.9252 8.81216 27.2054C8.75672 27.3236 8.70565 27.4359 8.6575 27.5453C9.17839 27.789 9.70948 28.0268 10.2493 28.2574L9.85393 29.1036C9.25426 28.7914 8.56996 28.4543 7.8025 28.0954C7.06421 27.7496 6.42952 27.468 5.89551 27.2506L6.14209 26.7239C6.17127 26.6626 6.22671 26.5342 6.31134 26.3372C6.39596 26.1403 6.47621 25.9608 6.55354 25.7959C6.98834 24.8651 7.52527 24.547 8.16142 24.8461C8.66626 25.0825 8.89387 25.5129 8.84426 26.1373L8.88949 26.1578C9.04124 25.9798 9.2849 25.8747 9.62048 25.8426C9.95461 25.812 10.5339 25.828 11.3553 25.8937H11.3509ZM8.0199 25.7259C7.6172 25.5377 7.29329 25.7026 7.05108 26.222C6.96208 26.4131 6.89788 26.5882 6.85703 26.7472C7.1824 26.8727 7.59677 27.0536 8.1016 27.2885C8.15851 27.1791 8.20374 27.0857 8.24021 27.0084C8.54224 26.3635 8.46783 25.9345 8.0199 25.7259Z" fill="white"/>
<path d="M12.0513 22.4713C12.7983 22.9266 12.8464 23.6926 12.1928 24.7679C11.971 25.1341 11.7201 25.4464 11.4414 25.7061L10.8869 25.1764C11.1817 24.9313 11.4136 24.6716 11.5814 24.3958C11.7682 24.0894 11.8718 23.8516 11.8937 23.6809C11.9156 23.5102 11.8572 23.3833 11.7171 23.2972C11.5712 23.2096 11.4107 23.198 11.2356 23.2636C11.081 23.3191 10.8329 23.4708 10.4886 23.7174C10.1749 23.9406 9.89623 24.0792 9.65403 24.1347C9.34908 24.2033 9.05289 24.1507 8.7713 23.9786C8.44301 23.7787 8.25917 23.5 8.22123 23.1425C8.18475 22.785 8.3044 22.378 8.58308 21.9213C8.81069 21.5463 9.03393 21.2501 9.25133 21.0342L9.82328 21.5273C9.57232 21.7287 9.35638 21.9796 9.174 22.2802C8.89969 22.7325 8.88364 23.0316 9.12439 23.1775C9.25278 23.2563 9.38848 23.2665 9.53292 23.2096C9.6584 23.16 9.8758 23.0185 10.1866 22.785C10.5178 22.5385 10.8125 22.3823 11.0693 22.3167C11.4122 22.2291 11.7405 22.2802 12.0527 22.4699L12.0513 22.4713Z" fill="white"/>
<path d="M14.0184 21.798L13.464 22.5698C12.9183 22.1394 12.3084 21.6812 11.6343 21.1968C10.9719 20.7183 10.3985 20.3243 9.91699 20.0121L10.4729 19.2402C10.9135 19.5948 11.4694 20.0121 12.1391 20.4965C12.8234 20.9896 13.4508 21.4244 14.0199 21.7994L14.0184 21.798Z" fill="white"/>
<path d="M15.1581 16.7616C15.6382 17.1774 15.9256 17.6954 16.0175 18.3155C16.1095 18.9341 15.9154 19.5221 15.4354 20.078C15.218 20.329 14.9101 20.666 14.5089 21.0892C14.0172 20.6252 13.4496 20.1145 12.8091 19.5586C12.1933 19.0246 11.6579 18.5796 11.2041 18.225L11.5878 17.78C11.6506 17.7071 11.7425 17.5962 11.8621 17.4488C11.9803 17.3 12.0591 17.2037 12.0985 17.1599C12.6267 16.5486 13.1636 16.2363 13.7049 16.2261C14.2477 16.2144 14.7321 16.3939 15.1581 16.7631V16.7616ZM14.6679 17.5495C14.344 17.2679 13.988 17.1264 13.6013 17.1234C13.2147 17.1205 12.8528 17.3131 12.5158 17.7027C12.4531 17.7756 12.3743 17.8822 12.2794 18.0222C12.6325 18.2994 12.9929 18.5971 13.362 18.9166C13.7662 19.2668 14.1747 19.6053 14.5877 19.9336C14.7058 19.8417 14.8109 19.7424 14.9072 19.6316C15.2209 19.2668 15.342 18.8991 15.2676 18.5285C15.1932 18.1565 14.9933 17.8311 14.6679 17.5495Z" fill="white"/>
<path d="M20.1929 15.3039L19.3962 16.0261C19.297 15.9167 18.941 15.6745 18.3267 15.2995L17.177 16.3413C17.4761 16.9862 17.6789 17.367 17.7854 17.4852L17.0355 18.1637C16.9771 18.0995 16.6897 17.3918 16.1746 16.0422C15.6596 14.6926 15.3561 13.9674 15.2656 13.8667L16.2067 13.0146C16.2928 13.1095 16.9581 13.4918 18.2027 14.1629C19.4473 14.8341 20.1112 15.2149 20.1914 15.3039H20.1929ZM17.7694 14.9377C16.7116 14.338 16.1498 14.0024 16.0871 13.9324L16.0477 13.9689C16.106 14.0331 16.3789 14.6298 16.8633 15.7577L17.7694 14.9362V14.9377Z" fill="white"/>
<path d="M22.1846 11.0448C22.5493 11.5657 22.7025 12.1376 22.6427 12.7606C22.5814 13.3837 22.2517 13.9075 21.6505 14.3291C21.3792 14.5203 20.9983 14.7712 20.5066 15.0849C20.1419 14.5159 19.7158 13.8827 19.2285 13.1881C18.7601 12.5214 18.3487 11.9596 17.9941 11.5058L18.4742 11.1673C18.553 11.1119 18.6682 11.0258 18.82 10.912C18.9717 10.7967 19.0709 10.7223 19.1191 10.6888C19.78 10.2233 20.3753 10.0512 20.9035 10.1723C21.4331 10.2934 21.8592 10.5852 22.1846 11.0462V11.0448ZM21.5178 11.6912C21.2712 11.3395 20.9604 11.1148 20.5854 11.0171C20.2104 10.9208 19.8136 11.02 19.3919 11.3162C19.3131 11.3716 19.211 11.4562 19.0855 11.5686C19.3613 11.9217 19.64 12.2996 19.9201 12.6994C20.228 13.1385 20.5417 13.566 20.8626 13.9833C20.9983 13.9235 21.1253 13.8506 21.2449 13.7674C21.6389 13.4902 21.8446 13.1633 21.8621 12.7854C21.8796 12.4075 21.7658 12.0428 21.5192 11.6912H21.5178Z" fill="white"/>
<path d="M29.9 9.87367L29.1355 10.1976C29.099 10.113 28.6277 9.78612 27.7187 9.21855C26.7645 8.61888 26.1794 8.17824 25.9649 7.89956L25.9153 7.91999C26.1575 8.35041 26.356 8.74727 26.5106 9.1135C26.7266 9.62271 27.0038 10.2384 27.3423 10.9577L26.5821 11.2802C26.3428 10.628 26.0598 9.9189 25.7373 9.15289C25.4178 8.40002 25.1318 7.76679 24.8779 7.25028L25.7957 6.86071C25.8424 6.97014 26.2815 7.29843 27.1132 7.84558C27.9989 8.42628 28.5416 8.84503 28.7444 9.10037L28.7897 9.07994C28.546 8.64076 28.3461 8.23806 28.1929 7.8733C27.9565 7.31448 27.6997 6.74691 27.4225 6.17204L28.1944 5.84375C28.3811 6.36755 28.6394 7.01391 28.9648 7.7843C29.293 8.55906 29.6038 9.25649 29.9 9.87367Z" fill="white"/>
<path d="M34.359 8.5693L33.3245 8.86111C33.2836 8.71958 33.0721 8.34314 32.6898 7.73471L31.1972 8.15492C31.1797 8.86548 31.1913 9.29736 31.2337 9.45057L30.2619 9.72487C30.2386 9.64024 30.2955 8.88007 30.4341 7.44144C30.5727 6.00427 30.6238 5.2193 30.5858 5.08653L31.8071 4.74219C31.8421 4.86475 32.2681 5.50382 33.0837 6.66085C33.9008 7.81642 34.3254 8.45257 34.359 8.5693ZM32.3513 7.16276C31.6699 6.15455 31.3168 5.60449 31.2906 5.51403L31.2395 5.52862C31.2628 5.61179 31.241 6.26836 31.1753 7.49543L32.3513 7.16276Z" fill="white"/>
<path d="M37.7162 7.23816L37.7833 8.01C37.4813 8.13548 37.1778 8.22302 36.8743 8.27263C36.1171 8.39519 35.5057 8.27847 35.0418 7.92392C34.5778 7.56791 34.2962 7.09225 34.1999 6.49258C34.0992 5.87102 34.2232 5.29616 34.569 4.76798C34.9163 4.2398 35.4561 3.91589 36.1886 3.7977C36.4585 3.75393 36.7182 3.74372 36.9692 3.76706L36.9765 4.55204C36.7022 4.50972 36.4454 4.50826 36.2075 4.54766C35.7596 4.62061 35.4488 4.81613 35.2752 5.13566C35.103 5.45519 35.0491 5.8185 35.1147 6.22557C35.1818 6.64141 35.37 6.97991 35.6779 7.244C35.9872 7.50663 36.3753 7.60147 36.8437 7.52559C37.118 7.48182 37.4083 7.38553 37.7147 7.23816H37.7162Z" fill="white"/>
<path d="M39.3777 7.92899L38.4307 8.00486C38.4045 7.31035 38.3578 6.54872 38.2921 5.71997C38.2265 4.90436 38.1564 4.21277 38.082 3.64228L39.029 3.56641C39.045 4.13106 39.0859 4.82703 39.1515 5.64994C39.2186 6.49182 39.293 7.25198 39.3777 7.92899Z" fill="white"/>
<path d="M44.3183 5.62028C44.3081 6.3075 44.0907 6.87507 43.6632 7.32154C43.2357 7.76801 42.7133 7.98687 42.0932 7.97812C41.5023 7.97082 41.0106 7.75488 40.6181 7.33322C40.2256 6.91155 40.0345 6.38191 40.0433 5.73992C40.0535 5.05271 40.2723 4.48514 40.6984 4.03866C41.1259 3.59219 41.6482 3.37333 42.2698 3.38209C42.8607 3.39084 43.3524 3.60387 43.7434 4.02407C44.1359 4.44428 44.327 4.97538 44.3198 5.61882L44.3183 5.62028ZM43.3903 5.70491C43.3976 5.23655 43.2824 4.85574 43.0475 4.56101C42.8125 4.26628 42.5193 4.11745 42.1662 4.11162C41.8394 4.10724 41.5607 4.25023 41.3272 4.54058C41.0952 4.83093 40.9756 5.20007 40.9698 5.648C40.9639 6.11344 41.0777 6.49426 41.3141 6.79045C41.5505 7.08664 41.8437 7.23546 42.1924 7.2413C42.5193 7.24567 42.798 7.10268 43.0299 6.81087C43.2634 6.51906 43.383 6.15138 43.3889 5.70491H43.3903Z" fill="white"/>
<path d="M48.4287 8.47832L47.6087 8.35868C47.6219 8.26676 47.387 7.74295 46.904 6.78435C46.3992 5.77614 46.1278 5.09622 46.0884 4.74605L46.0344 4.73875C46.0198 5.23338 45.9834 5.67547 45.9265 6.06796C45.8462 6.6151 45.7645 7.28481 45.6813 8.07708L44.8643 7.95744C44.9985 7.27606 45.1254 6.52318 45.2451 5.70027C45.3633 4.8905 45.4464 4.20036 45.496 3.62695L46.4838 3.7714C46.4663 3.88958 46.6706 4.39734 47.0981 5.29757C47.5548 6.25472 47.8028 6.89378 47.8437 7.21623L47.8933 7.22353C47.9122 6.72161 47.9502 6.27368 48.0071 5.8812C48.0946 5.28006 48.169 4.66142 48.2288 4.02528L49.0605 4.14638C48.9482 4.69206 48.8329 5.37782 48.7133 6.20511C48.5921 7.03823 48.4973 7.79548 48.4302 8.47686L48.4287 8.47832Z" fill="white"/>
<path d="M52.9237 9.67768L51.8877 9.39025C51.9271 9.24726 51.9417 8.81684 51.9301 8.09607L50.4345 7.68169C50.0508 8.27991 49.8378 8.65489 49.7955 8.80809L48.8223 8.53816C48.8456 8.45354 49.2892 7.83344 50.1515 6.67494C51.0152 5.51645 51.4632 4.87155 51.5011 4.74023L52.7238 5.07874C52.6888 5.2013 52.7238 5.96876 52.823 7.38259C52.9222 8.79495 52.9572 9.5595 52.9251 9.67623L52.9237 9.67768ZM51.9359 7.43365C51.8746 6.2168 51.8571 5.56314 51.8819 5.47268L51.8308 5.45809C51.8075 5.54272 51.45 6.09132 50.7584 7.10683L51.9359 7.43365Z" fill="white"/>
<path d="M56.1648 10.211L55.8701 10.8821L53.2773 9.85057C53.5268 9.29613 53.8201 8.59286 54.1586 7.73932C54.4694 6.9558 54.7145 6.30506 54.8925 5.78418L55.768 6.13289C55.5564 6.59542 55.2865 7.2374 54.9596 8.05739C54.7116 8.68333 54.5 9.17649 54.3279 9.53396C54.9013 9.76157 55.5141 9.98772 56.1648 10.211Z" fill="white"/>
<path d="M63.197 12.4359C62.8527 12.97 62.38 13.3274 61.7803 13.504C61.1806 13.682 60.5722 13.5711 59.955 13.1728C59.6778 12.9933 59.3013 12.7336 58.8271 12.3951C59.2196 11.8421 59.6442 11.2103 60.1038 10.4969C60.5459 9.8111 60.9092 9.21872 61.1981 8.71973L61.6927 9.03926C61.773 9.09179 61.8955 9.1662 62.059 9.26395C62.2224 9.36171 62.3289 9.42591 62.3785 9.45801C63.057 9.89719 63.4392 10.3845 63.5268 10.92C63.6143 11.4555 63.5049 11.9618 63.1985 12.4359H63.197ZM62.3493 12.0595C62.5828 11.6977 62.6732 11.3241 62.6222 10.9419C62.5711 10.5581 62.3303 10.2269 61.897 9.94679C61.8168 9.89427 61.7 9.83153 61.5483 9.75712C61.3236 10.1467 61.0799 10.545 60.8158 10.955C60.5255 11.4059 60.2468 11.8567 59.9813 12.3119C60.0878 12.4155 60.2016 12.5074 60.3241 12.5862C60.7298 12.8474 61.1091 12.916 61.4666 12.7905C61.8241 12.665 62.1188 12.4214 62.3508 12.0595H62.3493Z" fill="white"/>
<path d="M65.1011 16.0499L64.6123 16.6044L62.4033 14.7908C62.8542 14.2859 63.3488 13.7052 63.8872 13.0487C64.4037 12.4169 64.8341 11.8697 65.1755 11.4072L67.2839 13.1377L66.7892 13.6834C66.2917 13.2296 65.8336 12.8283 65.4104 12.4826C65.231 12.7379 65.0063 13.0297 64.7393 13.3565C65.0997 13.6542 65.4951 13.962 65.9226 14.2801L65.4776 14.8229C65.088 14.4727 64.7086 14.1473 64.3395 13.8439C64.0521 14.1955 63.7894 14.5296 63.5501 14.8477C64.0243 15.2373 64.5423 15.637 65.1026 16.0485L65.1011 16.0499Z" fill="white"/>
<path d="M69.5532 22.0349L68.8704 21.2062C68.9827 21.1128 69.241 20.7655 69.6437 20.1702L68.6559 18.9724C67.9993 19.2423 67.6098 19.4276 67.4872 19.5283L66.8438 18.7477C66.9109 18.6922 67.6302 18.4369 69.0002 17.9831C70.3703 17.5293 71.1071 17.2594 71.2136 17.1719L72.0219 18.1524C71.9242 18.2341 71.5113 18.8819 70.7847 20.0958C70.0581 21.3112 69.6481 21.9576 69.5547 22.0335L69.5532 22.0349ZM70.0289 19.6289C70.6767 18.5974 71.0356 18.0517 71.1086 17.9919L71.0736 17.951C71.0064 18.0065 70.398 18.2516 69.2512 18.6864L70.0289 19.6289Z" fill="white"/>
<path d="M72.3147 24.1313C71.5822 24.6099 70.8717 24.3224 70.1844 23.2675C69.951 22.9086 69.7774 22.5482 69.6621 22.1835L70.3785 21.9121C70.4719 22.2841 70.6061 22.6051 70.7827 22.8765C70.9782 23.1771 71.1474 23.374 71.2919 23.4674C71.4349 23.5608 71.5749 23.5623 71.7121 23.4733C71.8551 23.3799 71.9353 23.2398 71.9514 23.0516C71.9674 22.8882 71.9382 22.5978 71.8653 22.1805C71.7996 21.8012 71.7938 21.4889 71.8507 21.2482C71.9207 20.9418 72.0958 20.6996 72.373 20.5172C72.6955 20.3071 73.0252 20.2619 73.3637 20.3815C73.7022 20.5026 74.0159 20.7871 74.3092 21.2351C74.5485 21.6028 74.7192 21.9325 74.8199 22.2214L74.1283 22.5249C74.0553 22.2112 73.9226 21.9077 73.73 21.613C73.4411 21.1709 73.1799 21.0264 72.9435 21.1796C72.818 21.2613 72.7495 21.3795 72.7378 21.5342C72.729 21.6684 72.7626 21.9267 72.837 22.3075C72.9173 22.7131 72.9304 23.0458 72.8793 23.3069C72.8093 23.6556 72.6211 23.9285 72.3161 24.1284L72.3147 24.1313Z" fill="white"/>
<path d="M77.1658 26.6055C76.4845 26.9236 75.806 27.2504 75.1348 27.5874C73.8056 28.2513 72.8689 28.0383 72.3247 26.9484C72.0562 26.41 72.0008 25.93 72.1598 25.5097C72.3174 25.0895 72.7784 24.6898 73.5415 24.3089C74.2142 23.9719 74.8707 23.6334 75.5142 23.2891L75.9388 24.1397C75.2486 24.4519 74.5891 24.7656 73.9603 25.0793C73.4102 25.3536 73.0673 25.6133 72.9331 25.8555C72.7974 26.0977 72.8047 26.3662 72.9506 26.658C73.1038 26.9644 73.3154 27.1351 73.5868 27.1702C73.8582 27.2052 74.2725 27.0826 74.8284 26.8054C75.4383 26.5004 76.0832 26.1619 76.7617 25.7913L77.1673 26.6055H77.1658Z" fill="white"/>
<path d="M74.7219 32.6507L74.449 31.8672C74.5366 31.8366 74.894 31.3872 75.52 30.5161C76.1824 29.6028 76.658 29.0483 76.9499 28.8513L76.9324 28.8003C76.4873 29.0133 76.0773 29.1855 75.7038 29.3168C75.1815 29.4992 74.5512 29.7341 73.8114 30.0259L73.54 29.2453C74.2068 29.0498 74.932 28.8149 75.717 28.542C76.4873 28.2735 77.1381 28.0299 77.6706 27.8096L77.9975 28.7521C77.8851 28.7915 77.5291 29.2073 76.928 30.0025C76.2904 30.8488 75.8381 31.3638 75.5696 31.5491L75.5871 31.5973C76.0409 31.3828 76.4552 31.2092 76.8302 31.0808C77.4022 30.8809 77.9843 30.662 78.5767 30.4227L78.8525 31.2165C78.317 31.3682 77.656 31.5827 76.8667 31.857C76.0715 32.1328 75.3566 32.3983 74.7233 32.6522L74.7219 32.6507Z" fill="white"/>
<path d="M76.3772 36.3543L75.6112 36.4637C75.4682 36.169 75.3646 35.8713 75.2975 35.5693C75.1327 34.8193 75.2144 34.2007 75.5426 33.7177C75.8709 33.2333 76.3305 32.9269 76.9229 32.7971C77.5372 32.6614 78.1179 32.7533 78.6636 33.0699C79.2093 33.3865 79.5624 33.9089 79.7214 34.6355C79.7797 34.9025 79.8046 35.1622 79.7958 35.4146L79.0123 35.4657C79.0386 35.1885 79.0254 34.9331 78.9744 34.6968C78.8766 34.2532 78.6636 33.9526 78.3353 33.798C78.007 33.6433 77.6408 33.6098 77.2395 33.6988C76.8295 33.7892 76.5012 33.9964 76.2561 34.3203C76.011 34.6442 75.938 35.0382 76.0416 35.5022C76.1015 35.7736 76.2138 36.0581 76.3772 36.3572V36.3543Z" fill="white"/>
<path d="M75.7817 38.0452L75.6533 37.1026C76.3435 37.037 77.1007 36.948 77.9236 36.8356C78.7334 36.7247 79.4191 36.6153 79.9838 36.5088L80.1122 37.4513C79.5505 37.4995 78.8589 37.5797 78.0403 37.6921C77.2058 37.8074 76.4514 37.9241 75.7817 38.0452Z" fill="white"/>
<path d="M78.3596 42.8571C77.6738 42.8863 77.0946 42.6996 76.6262 42.2969C76.1564 41.8956 75.9083 41.3835 75.8821 40.7648C75.8573 40.1739 76.0426 39.6705 76.4409 39.2547C76.8392 38.8389 77.3586 38.6171 77.9977 38.5908C78.6835 38.5617 79.2627 38.7484 79.7311 39.1497C80.2009 39.5509 80.4489 40.0616 80.4752 40.6831C80.5 41.2741 80.3132 41.7774 79.9164 42.1933C79.5195 42.6091 79.0001 42.8309 78.3581 42.8586L78.3596 42.8571ZM78.2239 41.9335C78.6908 41.9146 79.0657 41.7774 79.3459 41.5265C79.626 41.2741 79.7602 40.9735 79.7442 40.6219C79.7296 40.295 79.572 40.0236 79.2685 39.8077C78.9665 39.5918 78.5915 39.494 78.1436 39.513C77.6782 39.5319 77.3047 39.6691 77.0231 39.9215C76.7415 40.1739 76.6072 40.476 76.6233 40.8247C76.6364 41.1515 76.7954 41.4229 77.0989 41.6388C77.4024 41.8548 77.7759 41.954 78.2224 41.935L78.2239 41.9335Z" fill="white"/>
<path d="M75.7392 47.1347L75.8122 46.3074C75.9027 46.3161 76.4133 46.0521 77.3413 45.5166C78.3189 44.9563 78.9813 44.647 79.3285 44.5872L79.3329 44.5332C78.8397 44.5448 78.3962 44.5332 78.0008 44.4982C77.4507 44.4485 76.7781 44.4048 75.9844 44.3654L76.0573 43.541C76.7445 43.6359 77.5018 43.7205 78.3291 43.7949C79.1418 43.8678 79.8363 43.9131 80.4097 43.9291L80.3221 44.9242C80.204 44.914 79.7079 45.1474 78.8339 45.6245C77.9045 46.1338 77.2815 46.4168 76.9619 46.4766L76.9576 46.5262C77.458 46.516 77.9074 46.5306 78.3013 46.5642C78.9054 46.6182 79.527 46.6576 80.1646 46.6838L80.0902 47.5199C79.5401 47.4396 78.85 47.3623 78.0168 47.2879C77.1793 47.2135 76.4177 47.1609 75.7363 47.1318L75.7392 47.1347Z" fill="white"/>
<path d="M76.8971 53.8148C76.8971 54.2452 76.5484 54.5954 76.1165 54.5954C75.6846 54.5954 75.3359 54.2467 75.3359 53.8148C75.3359 53.3829 75.6861 53.0342 76.1165 53.0342C76.547 53.0342 76.8971 53.3844 76.8971 53.8148Z" fill="white"/>
<path d="M7.52408 53.8148C7.52408 54.2452 7.17537 54.5954 6.74349 54.5954C6.31161 54.5954 5.96289 54.2467 5.96289 53.8148C5.96289 53.3829 6.31161 53.0342 6.74349 53.0342C7.17537 53.0342 7.52408 53.3844 7.52408 53.8148Z" fill="white"/>
<path d="M12.1425 60.7712L11.5034 61.0966C11.1926 60.475 10.8994 59.9191 10.6222 59.4289C10.3114 59.6375 9.95828 59.8535 9.56288 60.0767C9.77444 60.4502 10.0225 60.869 10.3099 61.333L9.72045 61.6656C9.46658 61.1754 9.23605 60.7464 9.0274 60.3802C8.48901 60.6837 7.98855 60.9769 7.52457 61.2615L7.07227 60.4604C7.66027 60.1613 8.31538 59.8082 9.0347 59.4026C9.72629 59.0116 10.3099 58.6658 10.7841 58.3652L12.141 60.7712H12.1425Z" fill="white"/>
<path d="M11.004 66.5944L10.3897 65.7219C10.5079 65.6387 10.7822 65.3206 11.2156 64.7676L10.3285 63.5085C9.66751 63.7186 9.27357 63.8674 9.14663 63.9579L8.56738 63.1364C8.63742 63.0883 9.35819 62.8971 10.7282 62.5659C12.0998 62.2347 12.8395 62.0305 12.9489 61.9531L13.6755 62.9847C13.5734 63.0562 13.1269 63.6588 12.3361 64.791C11.5439 65.9247 11.1003 66.5243 11.004 66.5929V66.5944ZM11.6285 64.2686C12.3303 63.3086 12.7184 62.8023 12.7928 62.7498L12.7622 62.706C12.6921 62.7556 12.0823 62.9453 10.9281 63.2765L11.627 64.2686H11.6285Z" fill="white"/>
<path d="M14.1953 69.0441L13.5927 69.4994C13.3286 69.3111 13.0937 69.104 12.8909 68.8734C12.386 68.3015 12.1555 67.7295 12.2022 67.1561C12.2474 66.5827 12.4925 66.1012 12.9361 65.7087C13.3957 65.3017 13.9355 65.1076 14.5571 65.1251C15.1772 65.1412 15.7331 65.4257 16.2219 65.9801C16.4014 66.1829 16.5487 66.396 16.664 66.6177L16.0205 67.0306C15.9082 66.7797 15.774 66.5637 15.6149 66.3828C15.3158 66.0443 14.989 65.8853 14.633 65.9072C14.277 65.9276 13.9487 66.0706 13.6481 66.3376C13.3403 66.609 13.1608 66.9431 13.1083 67.3385C13.0557 67.7339 13.1856 68.1074 13.4964 68.462C13.6788 68.6677 13.9137 68.8632 14.1982 69.0441H14.1953Z" fill="white"/>
<path d="M19.8453 69.52C19.339 70.0511 18.84 70.588 18.3497 71.1337C17.378 72.2091 16.4442 72.3418 15.5454 71.5321C15.1019 71.1308 14.8743 70.7106 14.8655 70.27C14.8553 69.8293 15.1296 69.3012 15.687 68.6825C16.1787 68.1383 16.6543 67.597 17.1154 67.0557L17.8157 67.6889C17.3007 68.2171 16.8134 68.735 16.3537 69.2443C15.951 69.6893 15.7336 70.0467 15.7001 70.3167C15.6665 70.5866 15.7701 70.8288 16.0109 71.0476C16.2633 71.2753 16.5201 71.3584 16.7813 71.2957C17.0424 71.2329 17.3751 70.9747 17.7822 70.5253C18.2286 70.0307 18.6926 69.4937 19.1756 68.916L19.8467 69.5215L19.8453 69.52Z" fill="white"/>
<path d="M20.6236 74.4714L20.183 75.0345L17.9375 73.4077C18.3066 72.9452 18.7531 72.3513 19.2784 71.6262C19.7599 70.9609 20.1465 70.405 20.4383 69.957L21.197 70.5071C20.8848 70.8923 20.4763 71.4336 19.9714 72.1296C19.5862 72.6607 19.2682 73.075 19.0187 73.3712C19.5147 73.7316 20.0502 74.0993 20.6222 74.4728L20.6236 74.4714Z" fill="white"/>
<path d="M25.4463 73.226L25.0655 73.8183C24.7007 73.563 24.3491 73.3325 24.0106 73.1311C23.7961 73.4828 23.5583 73.8767 23.2986 74.3115C22.8959 74.9856 22.5253 75.6305 22.1882 76.2447L21.3857 75.7662C21.7666 75.1855 22.159 74.5537 22.5647 73.8738C22.82 73.4463 23.0505 73.0494 23.2592 72.6832C22.9907 72.5227 22.6113 72.317 22.124 72.0675L22.5092 71.4736L25.4448 73.226H25.4463Z" fill="white"/>
<path d="M27.3519 78.8049L26.3817 78.3599C26.4415 78.2286 26.5203 77.8157 26.618 77.1197L25.2173 76.4763C24.7519 76.9899 24.4864 77.3181 24.4207 77.4582L23.5088 77.0395C23.5438 76.9621 24.072 76.4354 25.0919 75.4608C26.1117 74.4861 26.6487 73.9375 26.7056 73.8164L27.8509 74.3417C27.7984 74.4555 27.7153 75.1996 27.6 76.5784C27.4847 77.9558 27.4016 78.6984 27.3534 78.8049H27.3519ZM26.7246 76.4806C26.85 75.2973 26.9303 74.6656 26.9697 74.5824L26.9215 74.5605C26.8865 74.6379 26.4532 75.1091 25.6215 75.9744L26.7246 76.4821V76.4806Z" fill="white"/>
<path d="M32.3623 78.0394C32.1741 78.6288 31.8181 79.0841 31.2914 79.4036C30.7661 79.7217 30.1547 79.7698 29.4602 79.5495C29.1465 79.4503 28.7176 79.3 28.1748 79.1001C28.4024 78.48 28.6402 77.7753 28.8912 76.9888C29.1319 76.2316 29.3231 75.5809 29.4661 75.0381L30.022 75.2146C30.1124 75.2438 30.2496 75.2832 30.432 75.3343C30.6143 75.3853 30.7325 75.4189 30.788 75.4364C31.5525 75.6801 32.0486 76.0434 32.2733 76.5278C32.498 77.0122 32.5286 77.5156 32.3608 78.0408L32.3623 78.0394ZM31.4518 77.8978C31.5788 77.4981 31.5671 77.1231 31.4168 76.7744C31.2665 76.4256 30.9485 76.1732 30.4597 76.0186C30.3692 75.9894 30.2408 75.9588 30.076 75.9281C29.9651 76.3498 29.8367 76.789 29.6937 77.2427C29.5361 77.7403 29.3902 78.2363 29.256 78.7324C29.3858 78.8025 29.5186 78.8608 29.6557 78.9046C30.111 79.049 30.4932 79.0169 30.8011 78.8098C31.109 78.6011 31.3264 78.2976 31.4533 77.8993L31.4518 77.8978Z" fill="white"/>
<path d="M39.7537 79.1484C39.6924 79.7656 39.4371 80.2836 38.9891 80.7038C38.5412 81.124 37.9532 81.2991 37.228 81.2261C36.8998 81.1926 36.4504 81.1357 35.877 81.0525C35.9703 80.3989 36.0593 79.6606 36.141 78.8377C36.2198 78.0469 36.2724 77.3713 36.2986 76.8096L36.8793 76.8679C36.9742 76.8767 37.1172 76.8884 37.3054 76.9C37.4936 76.9117 37.6176 76.9205 37.6745 76.9263C38.4726 77.0051 39.0329 77.259 39.3539 77.6865C39.6749 78.1125 39.8077 78.5998 39.7537 79.147V79.1484ZM38.8345 79.198C38.8753 78.7808 38.7863 78.4175 38.5675 78.1067C38.3486 77.7974 37.9838 77.6164 37.4746 77.5654C37.3798 77.5566 37.2485 77.5522 37.0792 77.5552C37.0588 77.9914 37.0238 78.4466 36.9771 78.9208C36.926 79.4403 36.8852 79.9553 36.8574 80.4689C36.999 80.5112 37.1405 80.5404 37.2849 80.5535C37.7606 80.6002 38.1268 80.4908 38.3851 80.2238C38.6433 79.9568 38.7922 79.6139 38.8345 79.1966V79.198Z" fill="white"/>
<path d="M43.4523 80.6642L43.4377 81.385L40.5998 81.4317C40.6173 80.7722 40.6202 80.028 40.6057 79.2022C40.5925 78.4085 40.5663 77.73 40.5283 77.1697L43.2363 77.126L43.2115 77.8438C42.5433 77.8205 41.9392 77.8117 41.3965 77.8219C41.4242 78.1254 41.4402 78.4829 41.4475 78.8958C41.9115 78.8871 42.409 78.8681 42.9372 78.8345L42.9489 79.5188C42.428 79.5057 41.9319 79.5028 41.4577 79.5115C41.465 79.9551 41.4811 80.3695 41.5044 80.7547C42.1143 80.7444 42.7621 80.7153 43.4523 80.6671V80.6642Z" fill="white"/>
<path d="M48.5012 80.7607L47.5718 80.9226C47.4843 80.2515 47.3704 79.5176 47.2304 78.7195C47.0947 77.9345 46.9634 77.2692 46.8379 76.7235L47.7688 76.5615C47.8344 77.1072 47.9366 77.7784 48.0766 78.5721C48.2182 79.3833 48.3597 80.1129 48.5027 80.7607H48.5012Z" fill="white"/>
<path d="M53.1738 79.615L52.3786 79.831C52.3552 79.7449 51.9365 79.367 51.1223 78.7017C50.2688 77.9984 49.7552 77.4994 49.583 77.2017L49.532 77.2163C49.71 77.6628 49.85 78.0728 49.9522 78.4463C50.0937 78.9672 50.2805 79.5961 50.5125 80.3373L49.7202 80.5517C49.5757 79.8893 49.3977 79.1685 49.1862 78.3865C48.9775 77.6176 48.7835 76.9668 48.6055 76.4372L49.5611 76.1775C49.5918 76.2884 49.977 76.6634 50.7196 77.298C51.509 77.9736 51.9846 78.4463 52.1481 78.7192L52.1962 78.706C52.0167 78.2493 51.8767 77.835 51.776 77.4629C51.6213 76.8924 51.4477 76.3103 51.2551 75.7179L52.0591 75.499C52.1699 76.0301 52.3334 76.6882 52.5464 77.4746C52.7609 78.2669 52.971 78.9803 53.1752 79.615H53.1738Z" fill="white"/>
<path d="M57.5496 77.7797C57.1105 78.1037 56.7267 78.3327 56.397 78.467C55.6879 78.7573 55.0736 78.7865 54.5527 78.556C54.0304 78.3254 53.6583 77.9373 53.4366 77.3931C53.2016 76.8226 53.1973 76.2434 53.422 75.6583C53.6481 75.0732 54.1121 74.6355 54.8183 74.3466C55.1495 74.2109 55.453 74.1204 55.7317 74.0752L55.9228 74.8324C55.5653 74.8821 55.2589 74.9594 55.0007 75.0659C54.5673 75.2439 54.2959 75.508 54.1894 75.8567C54.0829 76.2054 54.1077 76.5687 54.2624 76.9481C54.42 77.3333 54.6782 77.6207 55.0357 77.8089C55.3932 77.9986 55.7813 78.0059 56.2044 77.8323C56.3211 77.7841 56.4524 77.717 56.5969 77.6295C56.4743 77.4179 56.3693 77.2034 56.2803 76.9875C56.1913 76.7686 56.0687 76.5323 55.914 76.2784L56.788 75.9194C56.8989 76.2375 57.0185 76.5527 57.1484 76.8693C57.2418 77.0969 57.376 77.4004 57.5511 77.7797H57.5496Z" fill="white"/>
<path d="M60.7699 75.3688L61.0909 76.0137L58.5988 77.3736C58.3085 76.7812 57.9656 76.1217 57.5702 75.3951C57.1894 74.6977 56.8523 74.1097 56.5576 73.6311L58.9344 72.334L59.2452 72.9803C58.6426 73.2692 58.1042 73.5435 57.6271 73.8033C57.792 74.0586 57.9729 74.3679 58.1713 74.7298C58.5799 74.508 59.0103 74.2585 59.4626 73.9842L59.7909 74.5853C59.324 74.8158 58.8819 75.0435 58.4661 75.2711C58.6776 75.6606 58.8848 76.0196 59.0847 76.3508C59.6187 76.059 60.1805 75.7321 60.7685 75.3688H60.7699Z" fill="white"/>
<path d="M64.9528 73.3949L64.2787 73.8691C64.2276 73.7961 63.7053 73.5845 62.7131 73.2358C61.6699 72.8667 61.0177 72.5719 60.7536 72.3516L60.7098 72.3823C61.0294 72.7412 61.3022 73.0797 61.524 73.3963C61.8333 73.8369 62.2244 74.3651 62.6956 74.9809L62.0245 75.4521C61.6626 74.8802 61.2482 74.2615 60.7828 73.5991C60.3247 72.9469 59.922 72.4027 59.5732 71.965L60.383 71.3945C60.4501 71.4893 60.9404 71.7096 61.8537 72.054C62.8255 72.4202 63.4339 72.7033 63.6819 72.9032L63.7228 72.8754C63.4003 72.5078 63.1275 72.1663 62.9043 71.8497C62.5643 71.3653 62.2025 70.878 61.8187 70.3863L62.5001 69.9062C62.7861 70.3673 63.1625 70.9305 63.6309 71.5958C64.1022 72.267 64.5428 72.8667 64.9513 73.3934L64.9528 73.3949Z" fill="white"/>
<path d="M66.5971 71.9988L65.8763 72.6087C65.4619 72.0732 64.9936 71.4954 64.4712 70.8768C63.9562 70.2684 63.5082 69.7591 63.126 69.3521L63.8468 68.7422C64.1794 69.1814 64.6055 69.7081 65.1263 70.3238C65.656 70.9527 66.1477 71.5115 66.5985 71.9988H66.5971Z" fill="white"/>
<path d="M69.0294 68.7057L69.5153 69.2383L67.4901 71.227C67.048 70.7368 66.5373 70.1969 65.9581 69.606C65.4022 69.0399 64.9163 68.5671 64.502 68.1863L66.4337 66.2881L66.9094 66.825C66.4089 67.2686 65.9654 67.6786 65.5787 68.0594C65.8064 68.2607 66.0661 68.5088 66.355 68.802C66.6862 68.4767 67.032 68.1192 67.3923 67.7311L67.8724 68.2184C67.4872 68.5671 67.1239 68.9086 66.7854 69.2398C67.0962 69.5549 67.3938 69.8453 67.6769 70.1079C68.1117 69.6804 68.5611 69.212 69.0265 68.7028L69.0294 68.7057Z" fill="white"/>
<path d="M72.4688 65.748L71.84 66.5082C71.0798 66.2164 70.5866 66.0647 70.359 66.0559C70.1314 66.0471 69.9198 66.1609 69.7243 66.3973C69.6426 66.4965 69.5653 66.5928 69.4909 66.6848C69.9242 67.0422 70.3678 67.3953 70.8215 67.7426L70.2321 68.459C69.7418 68.0169 69.1772 67.5325 68.5396 67.0072C67.9268 66.5009 67.3942 66.0807 66.9434 65.7466L67.311 65.3016C67.3534 65.2505 67.4409 65.1411 67.5708 64.9718C67.7006 64.804 67.8232 64.6494 67.9384 64.5108C68.5877 63.7243 69.1772 63.5478 69.7054 63.984C70.1241 64.3298 70.2306 64.7953 70.0249 65.3818L70.0628 65.4139C70.2525 65.2797 70.5108 65.2374 70.8361 65.287C71.1615 65.3366 71.7072 65.4898 72.4703 65.748H72.4688ZM69.3493 64.7953C69.0152 64.5181 68.6665 64.5998 68.3032 65.0389C68.1704 65.1994 68.0654 65.3526 67.9866 65.4956C68.2623 65.6926 68.6111 65.964 69.0298 66.3098C69.1115 66.2179 69.1786 66.1405 69.2326 66.0749C69.682 65.5292 69.7214 65.1031 69.3493 64.7967V64.7953Z" fill="white"/>
<path d="M73.4376 64.3077L72.8978 65.0825C72.3594 64.6725 71.7582 64.2348 71.0929 63.7722C70.4392 63.317 69.8746 62.9406 69.4004 62.6459L69.9402 61.8711C70.3736 62.2096 70.9222 62.6094 71.5831 63.0704C72.2572 63.5417 72.8759 63.9532 73.4376 64.3092V64.3077Z" fill="white"/>
<path d="M76.0255 60.034L75.4915 60.9576C75.3674 60.8861 74.9618 60.7679 74.279 60.6074L73.5071 61.941C73.9755 62.4531 74.2761 62.7478 74.4103 62.8251L73.9069 63.6933C73.8325 63.651 73.3583 63.0761 72.4829 61.9701C71.6074 60.8642 71.1114 60.2776 70.9961 60.2105L71.6264 59.1191C71.7344 59.1804 72.4683 59.3336 73.8296 59.5773C75.1909 59.8209 75.9219 59.9727 76.0225 60.0311L76.0255 60.034ZM73.653 60.4425C72.4872 60.2076 71.8657 60.0661 71.7869 60.0223L71.7606 60.0675C71.8336 60.1098 72.2626 60.5855 73.0461 61.493L73.653 60.4425Z" fill="white"/>
</g>
<defs>
<clipPath id="clip0_630_6454">
<rect width="83.0933" height="83.8083" fill="white" transform="translate(0 0.595703)"/>
</clipPath>
</defs>
</svg>
