<svg width="84" height="84" viewBox="0 0 84 84" fill="none" xmlns="http://www.w3.org/2000/svg">
<g clip-path="url(#clip0_481_103451)">
<path d="M48.8294 35.4434H45.3438L54.759 49.1775L55.6447 48.6055L48.8294 35.4434Z" fill="black"/>
<path d="M46.905 48.3462C45.0432 49.0626 43.6994 49.2114 43.0429 49.2347V49.2304C43.0429 49.2304 42.9626 49.2377 42.8153 49.2377C42.6679 49.2377 42.5876 49.2304 42.5876 49.2304V49.2347C41.9311 49.2114 40.5873 49.0611 38.7255 48.3462C36.0204 47.3059 34.5643 45.0166 34.5643 45.0166L31.4434 49.0232L31.6505 49.3865C31.8577 49.7498 33.3679 50.8951 33.3679 50.8951L34.3046 49.9584C34.3046 49.9584 34.5132 50.2181 35.0326 50.5304C35.5535 50.8426 36.4377 51.4146 36.4377 51.4146L35.9694 52.5585L36.6449 52.9232C37.3204 53.288 38.4133 53.5477 38.4133 53.5477L38.8816 52.3513C38.8816 52.3513 39.2464 52.4038 40.1306 52.611C41.0148 52.8196 41.5867 52.7671 41.5867 52.7671V54.2233H44.0452V52.7671C44.0452 52.7671 44.6172 52.8196 45.5014 52.611C46.3856 52.4023 46.7503 52.3513 46.7503 52.3513L47.2187 53.5477C47.2187 53.5477 48.3115 53.288 48.9871 52.9232L49.6641 52.5585L49.1957 51.4146C49.1957 51.4146 50.0799 50.8426 50.6008 50.5304C51.1202 50.2181 51.3289 49.9584 51.3289 49.9584L52.2656 50.8951C52.2656 50.8951 53.7742 49.7498 53.9829 49.3865L54.1915 49.0232L51.0706 45.0166C51.0706 45.0166 49.613 47.3059 46.9094 48.3462H46.905Z" fill="black"/>
<path d="M36.7996 35.4434L29.9844 48.6055L30.8686 49.1775L40.2853 35.4434H36.7996Z" fill="black"/>
<path d="M40.9082 45.2762H37.8398V47.2007H42.5862H43.0414H47.7892V45.2762H44.7193V34.768H47.5805V32.791H43.0414H42.5862H38.047V34.768H40.9082V45.2762Z" fill="black"/>
<path d="M42.6653 32.0107C42.6653 32.0107 42.6464 31.7043 42.8025 31.7043H42.8288C42.9849 31.7043 42.9659 32.0107 42.9659 32.0107H47.3226L45.9395 28.6709C46.2794 28.0888 46.4764 27.4147 46.4764 26.691C46.4764 24.6848 44.9765 23.0331 43.0418 22.8011V22.7705C42.9644 22.7705 42.89 22.7778 42.8142 22.7822C42.7383 22.7778 42.6624 22.7705 42.5866 22.7705V22.8011C40.6533 23.0346 39.1534 24.6848 39.1534 26.691C39.1534 27.4147 39.3518 28.0902 39.6918 28.6709L38.3086 32.0107H42.6653ZM42.8156 24.854C43.7232 24.9737 44.4293 25.7455 44.4293 26.691C44.4293 27.6365 43.7246 28.4083 42.8156 28.5279C41.9066 28.4083 41.2019 27.6365 41.2019 26.691C41.2019 25.7455 41.9066 24.9737 42.8156 24.854Z" fill="black"/>
<mask id="mask0_481_103451" style="mask-type:luminance" maskUnits="userSpaceOnUse" x="14" y="14" width="55" height="56">
<path d="M41.5459 69.3117C56.5003 69.3117 68.6231 57.0836 68.6231 41.9996C68.6231 26.9155 56.5003 14.6875 41.5459 14.6875C26.5916 14.6875 14.4688 26.9155 14.4688 41.9996C14.4688 57.0836 26.5916 69.3117 41.5459 69.3117Z" fill="white"/>
</mask>
<g mask="url(#mask0_481_103451)">
<path d="M41.156 12.5811H40.8438V71.6524H41.156V12.5811Z" fill="black"/>
<path d="M40.5329 12.5811H40.2207V71.6524H40.5329V12.5811Z" fill="black"/>
<path d="M39.9079 12.5811H39.5957V71.6524H39.9079V12.5811Z" fill="black"/>
<path d="M39.2829 12.5811H38.9707V71.6524H39.2829V12.5811Z" fill="black"/>
<path d="M38.6599 12.5811H38.3477V71.6524H38.6599V12.5811Z" fill="black"/>
<path d="M38.0349 12.5811H37.7227V71.6524H38.0349V12.5811Z" fill="black"/>
<path d="M37.4118 12.5811H37.0996V71.6524H37.4118V12.5811Z" fill="black"/>
<path d="M36.7868 12.5811H36.4746V71.6524H36.7868V12.5811Z" fill="black"/>
<path d="M36.1618 12.5811H35.8496V71.6524H36.1618V12.5811Z" fill="black"/>
<path d="M35.5368 12.5811H35.2246V71.6524H35.5368V12.5811Z" fill="black"/>
<path d="M34.9138 12.5811H34.6016V71.6524H34.9138V12.5811Z" fill="black"/>
<path d="M34.2908 12.5811H33.9785V71.6524H34.2908V12.5811Z" fill="black"/>
<path d="M33.6658 12.5811H33.3535V71.6524H33.6658V12.5811Z" fill="black"/>
<path d="M33.0408 12.5811H32.7285V71.6524H33.0408V12.5811Z" fill="black"/>
<path d="M32.4177 12.5811H32.1055V71.6524H32.4177V12.5811Z" fill="black"/>
<path d="M31.7927 12.5811H31.4805V71.6524H31.7927V12.5811Z" fill="black"/>
<path d="M31.1677 12.5811H30.8555V71.6524H31.1677V12.5811Z" fill="black"/>
<path d="M30.5427 12.5811H30.2305V71.6524H30.5427V12.5811Z" fill="black"/>
<path d="M29.9197 12.5811H29.6074V71.6524H29.9197V12.5811Z" fill="black"/>
<path d="M29.2966 12.5811H28.9844V71.6524H29.2966V12.5811Z" fill="black"/>
<path d="M28.6716 12.5811H28.3594V71.6524H28.6716V12.5811Z" fill="black"/>
<path d="M28.0466 12.5811H27.7344V71.6524H28.0466V12.5811Z" fill="black"/>
<path d="M27.4216 12.5811H27.1094V71.6524H27.4216V12.5811Z" fill="black"/>
<path d="M26.7986 12.5811H26.4863V71.6524H26.7986V12.5811Z" fill="black"/>
<path d="M26.1736 12.5811H25.8613V71.6524H26.1736V12.5811Z" fill="black"/>
<path d="M25.5486 12.5811H25.2363V71.6524H25.5486V12.5811Z" fill="black"/>
<path d="M24.3005 12.5811H23.9883V71.6524H24.3005V12.5811Z" fill="black"/>
<path d="M23.6775 12.5811H23.3652V71.6524H23.6775V12.5811Z" fill="black"/>
<path d="M23.0525 12.5811H22.7402V71.6524H23.0525V12.5811Z" fill="black"/>
<path d="M24.9255 12.5811H24.6133V71.6524H24.9255V12.5811Z" fill="black"/>
<path d="M22.4275 12.5811H22.1152V71.6524H22.4275V12.5811Z" fill="black"/>
<path d="M21.8044 12.5811H21.4922V71.6524H21.8044V12.5811Z" fill="black"/>
<path d="M21.1814 12.5811H20.8691V71.6524H21.1814V12.5811Z" fill="black"/>
<path d="M20.5564 12.5811H20.2441V71.6524H20.5564V12.5811Z" fill="black"/>
<path d="M19.9314 12.5811H19.6191V71.6524H19.9314V12.5811Z" fill="black"/>
<path d="M19.3064 12.5811H18.9941V71.6524H19.3064V12.5811Z" fill="black"/>
<path d="M18.6833 12.5811H18.3711V71.6524H18.6833V12.5811Z" fill="black"/>
<path d="M18.0583 12.5811H17.7461V71.6524H18.0583V12.5811Z" fill="black"/>
<path d="M17.4333 12.5811H17.1211V71.6524H17.4333V12.5811Z" fill="black"/>
<path d="M16.8103 12.5811H16.498V71.6524H16.8103V12.5811Z" fill="black"/>
<path d="M16.1853 12.5811H15.873V71.6524H16.1853V12.5811Z" fill="black"/>
<path d="M15.5622 12.5811H15.25V71.6524H15.5622V12.5811Z" fill="black"/>
<path d="M14.9372 12.5811H14.625V71.6524H14.9372V12.5811Z" fill="black"/>
<path d="M67.9997 12.5811H67.6875V71.6524H67.9997V12.5811Z" fill="black"/>
<path d="M67.3767 12.5811H67.0645V71.6524H67.3767V12.5811Z" fill="black"/>
<path d="M66.7517 12.5811H66.4395V71.6524H66.7517V12.5811Z" fill="black"/>
<path d="M66.1267 12.5811H65.8145V71.6524H66.1267V12.5811Z" fill="black"/>
<path d="M65.5017 12.5811H65.1895V71.6524H65.5017V12.5811Z" fill="black"/>
<path d="M64.8786 12.5811H64.5664V71.6524H64.8786V12.5811Z" fill="black"/>
<path d="M64.2556 12.5811H63.9434V71.6524H64.2556V12.5811Z" fill="black"/>
<path d="M63.6306 12.5811H63.3184V71.6524H63.6306V12.5811Z" fill="black"/>
<path d="M63.0056 12.5811H62.6934V71.6524H63.0056V12.5811Z" fill="black"/>
<path d="M62.3806 12.5811H62.0684V71.6524H62.3806V12.5811Z" fill="black"/>
<path d="M61.7575 12.5811H61.4453V71.6524H61.7575V12.5811Z" fill="black"/>
<path d="M61.1325 12.5811H60.8203V71.6524H61.1325V12.5811Z" fill="black"/>
<path d="M60.5075 12.5811H60.1953V71.6524H60.5075V12.5811Z" fill="black"/>
<path d="M59.8845 12.5811H59.5723V71.6524H59.8845V12.5811Z" fill="black"/>
<path d="M59.2615 12.5811H58.9492V71.6524H59.2615V12.5811Z" fill="black"/>
<path d="M58.6365 12.5811H58.3242V71.6524H58.6365V12.5811Z" fill="black"/>
<path d="M58.0115 12.5811H57.6992V71.6524H58.0115V12.5811Z" fill="black"/>
<path d="M57.3865 12.5811H57.0742V71.6524H57.3865V12.5811Z" fill="black"/>
<path d="M56.7634 12.5811H56.4512V71.6524H56.7634V12.5811Z" fill="black"/>
<path d="M56.1384 12.5811H55.8262V71.6524H56.1384V12.5811Z" fill="black"/>
<path d="M55.5154 12.5811H55.2031V71.6524H55.5154V12.5811Z" fill="black"/>
<path d="M54.8904 12.5811H54.5781V71.6524H54.8904V12.5811Z" fill="black"/>
<path d="M54.2654 12.5811H53.9531V71.6524H54.2654V12.5811Z" fill="black"/>
<path d="M53.6423 12.5811H53.3301V71.6524H53.6423V12.5811Z" fill="black"/>
<path d="M53.0173 12.5811H52.7051V71.6524H53.0173V12.5811Z" fill="black"/>
<path d="M52.3923 12.5811H52.0801V71.6524H52.3923V12.5811Z" fill="black"/>
<path d="M51.1443 12.5811H50.832V71.6524H51.1443V12.5811Z" fill="black"/>
<path d="M50.5212 12.5811H50.209V71.6524H50.5212V12.5811Z" fill="black"/>
<path d="M49.8962 12.5811H49.584V71.6524H49.8962V12.5811Z" fill="black"/>
<path d="M51.7673 12.5811H51.4551V71.6524H51.7673V12.5811Z" fill="black"/>
<path d="M49.2712 12.5811H48.959V71.6524H49.2712V12.5811Z" fill="black"/>
<path d="M48.6482 12.5811H48.3359V71.6524H48.6482V12.5811Z" fill="black"/>
<path d="M48.0232 12.5811H47.7109V71.6524H48.0232V12.5811Z" fill="black"/>
<path d="M47.4001 12.5811H47.0879V71.6524H47.4001V12.5811Z" fill="black"/>
<path d="M46.7751 12.5811H46.4629V71.6524H46.7751V12.5811Z" fill="black"/>
<path d="M46.1501 12.5811H45.8379V71.6524H46.1501V12.5811Z" fill="black"/>
<path d="M45.5271 12.5811H45.2148V71.6524H45.5271V12.5811Z" fill="black"/>
<path d="M44.9021 12.5811H44.5898V71.6524H44.9021V12.5811Z" fill="black"/>
<path d="M44.2771 12.5811H43.9648V71.6524H44.2771V12.5811Z" fill="black"/>
<path d="M43.6521 12.5811H43.3398V71.6524H43.6521V12.5811Z" fill="black"/>
<path d="M43.029 12.5811H42.7168V71.6524H43.029V12.5811Z" fill="black"/>
<path d="M42.406 12.5811H42.0938V71.6524H42.406V12.5811Z" fill="black"/>
<path d="M41.781 12.5811H41.4688V71.6524H41.781V12.5811Z" fill="black"/>
</g>
<path d="M47.2943 34.7158H43.8086L53.2253 48.4499L54.1095 47.878L47.2943 34.7158Z" fill="#F0ECEA"/>
<path d="M45.3698 47.6186C43.5081 48.335 42.1643 48.4838 41.5077 48.5072V48.5028C41.5077 48.5028 41.4275 48.5101 41.2801 48.5116C41.1327 48.5116 41.0525 48.5028 41.0525 48.5028V48.5072C40.3944 48.4838 39.0507 48.3336 37.1904 47.6186C34.4853 46.5783 33.0291 44.2891 33.0291 44.2891L29.9082 48.2956L30.1154 48.6589C30.3226 49.0237 31.8327 50.1676 31.8327 50.1676L32.7694 49.2309C32.7694 49.2309 32.9781 49.4906 33.4975 49.8028C34.0184 50.1151 34.9026 50.687 34.9026 50.687L34.4342 51.8324L35.1097 52.1972C35.7853 52.5605 36.8781 52.8216 36.8781 52.8216L37.3465 51.6237C37.3465 51.6237 37.7112 51.6763 38.5954 51.8849C39.4796 52.0921 40.0516 52.041 40.0516 52.041V53.4972H42.5086V52.041C42.5086 52.041 43.082 52.0936 43.9662 51.8849C44.8504 51.6763 45.2152 51.6237 45.2152 51.6237L45.6835 52.8216C45.6835 52.8216 46.7764 52.5619 47.4534 52.1972L48.1289 51.8324L47.6606 50.687C47.6606 50.687 48.5447 50.1151 49.0656 49.8028C49.5865 49.4906 49.7952 49.2309 49.7952 49.2309L50.7319 50.1676C50.7319 50.1676 52.2405 49.0222 52.4492 48.6589L52.6564 48.2956L49.5354 44.2891C49.5354 44.2891 48.0793 46.5783 45.3742 47.6186H45.3698Z" fill="#F0ECEA"/>
<path d="M35.2645 34.7158L28.4492 47.878L29.3334 48.4499L38.7502 34.7158H35.2645Z" fill="#F0ECEA"/>
<path d="M39.3745 44.5486H36.3047V46.4731H41.0525H41.5077H46.254V44.5486H43.1841V34.0405H46.0468V32.0635H41.5077H41.0525H36.5133V34.0405H39.3745V44.5486Z" fill="#F0ECEA"/>
<path d="M41.1302 31.2832C41.1302 31.2832 41.1112 30.9768 41.2673 30.9768H41.2936C41.4497 30.9768 41.4307 31.2832 41.4307 31.2832H45.7875L44.4043 27.9434C44.7443 27.3612 44.9427 26.6871 44.9427 25.9635C44.9427 23.9573 43.4428 22.3056 41.5081 22.0736V22.043C41.4307 22.043 41.3563 22.0503 41.2805 22.0546C41.2046 22.0503 41.1302 22.043 41.0529 22.043V22.0736C39.1181 22.3071 37.6182 23.9573 37.6182 25.9635C37.6182 26.6871 37.8167 27.3612 38.1566 27.9434L36.7734 31.2832H41.1302ZM41.2805 24.1265C42.1895 24.2461 42.8927 25.018 42.8927 25.9635C42.8927 26.9089 42.188 27.6808 41.2805 27.8004C40.3715 27.6808 39.6667 26.9089 39.6667 25.9635C39.6667 25.018 40.3715 24.2461 41.2805 24.1265Z" fill="#F0ECEA"/>
<path d="M21.726 46.3358C21.726 46.3358 22.0951 34.2548 22.2337 32.2996C22.3724 30.3445 22.4191 28.258 22.0951 28.0363C21.7727 27.813 19.4207 30.0352 19.2368 30.1242C19.053 30.2132 20.712 29.5916 20.9425 30.9237C21.173 32.2559 20.8958 44.0698 20.8958 44.0698L21.726 46.3358Z" fill="black"/>
<path d="M21.8575 47.1467L20.7399 44.0958V44.0666C20.7428 43.9484 21.0142 32.2526 20.7895 30.9497C20.7034 30.4521 20.3926 30.2114 19.8367 30.2114C19.6062 30.2114 19.3975 30.2566 19.3085 30.2756C19.2647 30.2844 19.2472 30.2887 19.2239 30.2887H19.0999L19.043 30.0465L19.1684 29.9838C19.2137 29.9561 19.4544 29.7489 19.6864 29.549C20.95 28.4576 21.6985 27.8652 22.0355 27.8652C22.0924 27.8652 22.142 27.8798 22.1843 27.909C22.3054 27.9922 22.6775 28.2475 22.39 32.3124C22.2544 34.2413 21.8867 46.2202 21.8838 46.3413L21.8589 47.1481L21.8575 47.1467ZM21.0521 44.0433L21.5949 45.5227C21.6795 42.7856 21.9611 33.9276 22.0778 32.2876C22.2923 29.263 22.1333 28.2709 22.0049 28.1629C21.7495 28.176 20.4466 29.3009 19.8892 29.7824C19.8396 29.8247 19.7958 29.8641 19.7535 29.8992C19.7798 29.8992 19.8075 29.8977 19.8352 29.8977C20.537 29.8977 20.9835 30.2523 21.0944 30.8957C21.322 32.2074 21.0696 43.2452 21.0506 44.0433H21.0521Z" fill="#F0ECEA"/>
<path d="M18.6853 33.0117C18.6853 33.0117 18.8239 35.5432 19.9766 39.63C21.1292 43.7168 23.989 51.6658 23.989 51.6658L21.7756 49.5341C21.7756 49.5341 18.9625 43.0938 18.1323 38.7852C17.3021 34.4766 18.6868 33.0117 18.6868 33.0117H18.6853Z" fill="black"/>
<path d="M24.3603 52.2406L21.6319 49.5954C21.6041 49.5312 18.8013 43.0894 17.9784 38.8144C17.1423 34.4781 18.5138 32.9665 18.5722 32.9037L18.8217 32.6396L18.8421 33.003C18.8436 33.0278 18.9939 35.568 20.1276 39.5862C21.2656 43.6205 24.1079 51.533 24.1356 51.6118L24.3618 52.2406H24.3603ZM21.9047 49.4422L23.6162 51.0909C22.9187 49.1314 20.7768 43.0486 19.8241 39.6708C18.9603 36.6054 18.6627 34.3891 18.5678 33.4786C18.2308 34.1323 17.6997 35.7314 18.2833 38.7546C19.0727 42.853 21.7004 48.9723 21.9047 49.4422Z" fill="#F0ECEA"/>
<path d="M35.9615 27.8386C36.9288 26.4175 38.544 24.6404 37.8977 23.975C37.2528 23.3082 31.3961 24.5966 27.6595 27.8838C25.7131 29.5968 24.2934 30.6823 24.2934 30.6823L21.9414 36.2778C21.9414 36.2778 26.4411 29.607 33.6999 25.9739C38.4039 23.619 35.96 27.8386 35.96 27.8386H35.9615Z" fill="black"/>
<path d="M22.0717 36.3641L21.7988 36.2168L24.1669 30.5819L24.2004 30.5571C24.215 30.5469 25.6376 29.4555 27.5577 27.7659C30.5721 25.1148 35.1448 23.6484 37.1525 23.6484C37.5873 23.6484 37.8689 23.7199 38.0104 23.8658C38.613 24.4874 37.7113 25.7072 36.7571 26.9999C36.5251 27.315 36.2931 27.6287 36.0903 27.9264L35.8262 27.7601C36.0728 27.3355 36.6477 26.1245 36.3646 25.6328C36.1268 25.2213 35.209 25.392 33.7704 26.1128C26.6327 29.6846 22.1154 36.2985 22.0702 36.3641H22.0717ZM24.4222 30.7789L22.5838 35.1516C24.1727 33.1221 28.1311 28.5844 33.6318 25.8326C35.3214 24.9864 36.2931 24.8828 36.636 25.4766C36.8067 25.7728 36.7688 26.1974 36.6564 26.6118C37.4093 25.5875 38.1797 24.4874 37.7872 24.0832C37.7595 24.0541 37.6311 23.9607 37.1539 23.9607C35.5329 23.9607 30.9705 25.1804 27.7649 27.9993C25.998 29.5532 24.6498 30.6052 24.4237 30.7789H24.4222Z" fill="#F0ECEA"/>
<path d="M24.0315 28.3501C24.0315 28.3501 27.3523 22.4876 34.5922 18.001C34.5922 18.001 24.8617 27.1055 23.1094 32.879L24.0315 28.3486V28.3501Z" fill="black"/>
<path d="M23.2591 32.9242L22.957 32.8483L23.8967 28.2727C23.9302 28.2129 27.3196 22.3241 34.5113 17.8682L34.701 18.1147C34.6032 18.2052 24.9807 27.2572 23.2605 32.9242H23.2591ZM24.1797 28.4055L23.6092 31.2054C25.7322 26.7976 30.9454 21.3641 33.3047 19.0296C27.3225 23.1558 24.3913 28.0436 24.1797 28.4055Z" fill="#F0ECEA"/>
<path d="M24.7227 28.6587C24.7227 28.6587 30.3488 21.9529 40.0325 19.0654C40.0325 19.0654 27.1666 25.7713 23.2461 32.0788L24.7227 28.6587Z" fill="black"/>
<path d="M23.3793 32.1623L23.1035 32.0179L24.6034 28.5599C24.6603 28.4928 30.3696 21.784 39.9892 18.917L40.1059 19.2044C39.9775 19.2715 27.2326 25.9642 23.3807 32.1623H23.3793ZM24.8573 28.7437L23.9819 30.7704C27.6164 26.1612 35.2735 21.5521 38.4893 19.7355C30.1464 22.7105 25.1608 28.3892 24.8558 28.7437H24.8573Z" fill="#F0ECEA"/>
<path d="M21.6796 36.0331C21.6796 36.0331 23.432 26.218 26.4289 21.7314L21.541 39.8063L21.6796 36.0317V36.0331Z" fill="black"/>
<path d="M21.3359 41.166L21.5242 36.0258C21.5446 35.9061 23.3188 26.1042 26.2997 21.6438L26.8293 20.8516L21.3359 41.166ZM25.9903 22.7586C23.3888 27.4728 21.851 35.9674 21.8335 36.0593L21.7474 38.4478L25.9903 22.7586Z" fill="#F0ECEA"/>
<path d="M23.2645 38.5643C23.3564 38.3426 29.0832 29.5984 35.2784 26.8408C35.2784 26.8408 25.8966 30.3294 22.0506 38.3688L21.3517 39.6309L21.2598 43.5397L23.2645 38.5643Z" fill="black"/>
<path d="M21.082 44.3951L21.2148 39.5569L21.9137 38.2948C25.7379 30.2992 35.1284 26.7303 35.2232 26.6953L35.3414 26.9842C29.1419 29.7433 23.4472 38.5472 23.4078 38.6289L21.0835 44.3951H21.082ZM21.5052 39.6736L21.4337 42.6851L23.1174 38.5064C23.1451 38.4393 27.1094 32.2602 32.0965 28.5614C29.0251 30.3006 24.5385 33.5208 22.188 38.4363L21.5037 39.6736H21.5052Z" fill="#F0ECEA"/>
<path d="M21.7656 45.7287C21.7656 45.7287 23.9279 36.1106 26.0056 35.6714C28.0819 35.2323 27.8835 38.9893 27.8835 38.9893C27.8835 38.9893 26.4915 36.6782 25.781 38.0847C25.0704 39.4927 22.0107 48.1639 22.0107 48.1639L21.7656 45.7287Z" fill="black"/>
<path d="M21.9255 48.8746L21.6074 45.7201L21.6133 45.6953C21.7023 45.2984 23.8237 35.9736 25.9729 35.5183C26.4996 35.4075 26.9447 35.5344 27.2846 35.8933C28.1455 36.8009 28.0448 38.9092 28.0404 38.9982L28.0141 39.5059L27.7515 39.0697C27.537 38.7137 26.8673 37.7872 26.3654 37.7872C26.3027 37.7872 26.1086 37.7872 25.9233 38.1563C25.2259 39.538 22.1925 48.129 22.1619 48.2165L21.9299 48.876L21.9255 48.8746ZM21.9226 45.739L22.0962 47.4564C22.8287 45.3947 25.0406 39.2039 25.6417 38.0148C25.8226 37.6573 26.0648 37.4749 26.3625 37.4749C26.879 37.4749 27.4086 38.0571 27.7267 38.4831C27.7048 37.8207 27.5881 36.6681 27.057 36.1078C26.7915 35.8277 26.4588 35.7357 26.0371 35.8247C24.419 36.1676 22.5252 43.0733 21.9226 45.739Z" fill="#F0ECEA"/>
<path d="M25.7254 53.6961C25.7254 53.6961 24.9886 44.6339 25.5401 43.1252C26.0931 41.6151 27.2458 43.8358 27.2458 43.8358C27.2458 43.8358 27.0152 40.0612 26.3703 39.7052C25.7254 39.3507 23.8345 40.8155 23.8797 47.6118L24.6165 53.2511L25.724 53.6976L25.7254 53.6961Z" fill="black"/>
<path d="M25.9029 53.9335L24.4759 53.3586L23.7274 47.6274C23.6895 42.1983 24.8786 40.4124 25.3922 39.8959C25.7205 39.5661 25.9963 39.4961 26.1714 39.4961C26.272 39.4961 26.3654 39.5194 26.4486 39.5647C27.1343 39.9426 27.3663 43.1773 27.4057 43.8237L27.451 44.5576L27.1125 43.9054C26.8805 43.4604 26.3888 42.7527 26.0532 42.7527C25.8825 42.7527 25.7614 42.9832 25.6913 43.1773C25.1559 44.6378 25.8781 53.5906 25.8854 53.681L25.9058 53.9335H25.9029ZM24.7619 53.1383L25.5513 53.4549C25.4345 51.9506 24.883 44.4686 25.3952 43.0693C25.5484 42.652 25.7687 42.4405 26.0503 42.4405C26.418 42.4405 26.7871 42.8417 27.0439 43.205C26.9155 41.7503 26.6383 40.0272 26.2968 39.8404C26.2618 39.82 26.2181 39.8098 26.1699 39.8098C26.0765 39.8098 25.8781 39.8492 25.6126 40.1176C25.1267 40.6064 24.0018 42.315 24.0382 47.6085L24.7619 53.1397V53.1383Z" fill="#F0ECEA"/>
<path d="M25.9217 46.8652C25.9217 46.8652 26.8438 53.0385 31.1787 57.9234L27.0277 55.2154C27.0277 55.2154 25.7364 50.8178 25.9203 46.8652H25.9217Z" fill="black"/>
<path d="M32.0677 58.6908L26.8954 55.3145L26.8793 55.2591C26.8662 55.2153 25.5822 50.7915 25.7661 46.8578L26.0768 46.8418C26.0856 46.9031 27.0442 53.0267 31.2959 57.8197L32.0677 58.6908ZM27.1624 55.1161L30.384 57.2186C27.7825 53.9357 26.57 50.2487 26.071 48.2892C26.1775 51.5064 27.0354 54.6638 27.1638 55.1161H27.1624Z" fill="#F0ECEA"/>
<path d="M34.9165 61.5225C34.9165 61.5225 30.4445 61.8318 28.1844 61.5662C25.9243 61.2992 24.0801 60.6777 24.0801 60.6777C24.0801 60.6777 28.9679 60.5887 30.5816 60.6339C32.1968 60.6777 34.9165 61.5225 34.9165 61.5225Z" fill="black"/>
<path d="M30.6359 61.8307C29.6102 61.8307 28.78 61.7942 28.1658 61.7213C25.9159 61.4557 24.0483 60.8327 24.0293 60.8269L23.1758 60.5394L24.076 60.5234C24.1154 60.5234 28.9843 60.4344 30.5849 60.4796C32.203 60.5234 34.8497 61.3405 34.962 61.3755L35.7587 61.6221L34.927 61.6804C34.9051 61.6819 32.7063 61.8336 30.6359 61.8336V61.8307ZM25.1178 60.8167C25.8677 61.0151 26.9781 61.2675 28.2022 61.4105C28.8034 61.482 29.6219 61.517 30.6359 61.517C31.8747 61.517 33.1587 61.463 33.9918 61.4192C33.0609 61.1683 31.5887 60.8167 30.579 60.7889C29.4395 60.7568 26.6483 60.7933 25.1192 60.8167H25.1178Z" fill="#F0ECEA"/>
<path d="M34.5928 60.991C34.5928 60.991 29.152 59.8355 27.2144 58.7703C25.2768 57.7038 20.5742 55.5283 20.5742 55.5283C20.5742 55.5283 24.5399 59.2154 27.1692 59.8355C29.7984 60.457 34.5943 60.991 34.5943 60.991H34.5928Z" fill="black"/>
<path d="M34.5755 61.1454C34.5273 61.1396 29.7402 60.6041 27.1328 59.987C24.4949 59.3625 20.6313 55.7922 20.4679 55.6419L19.75 54.9736L20.64 55.3851C20.6867 55.407 25.3703 57.5751 27.2904 58.6315C29.1857 59.6747 34.5726 60.8259 34.6265 60.8361L34.5769 61.144L34.5755 61.1454ZM21.4965 56.1292C22.7907 57.2279 25.3542 59.2458 27.2043 59.6835C28.4635 59.9811 30.2377 60.2598 31.7332 60.4684C30.0918 60.0409 28.1556 59.4646 27.1387 58.9058C25.7701 58.1529 22.9833 56.8281 21.4965 56.1307V56.1292Z" fill="#F0ECEA"/>
<path d="M34.2256 59.3486C34.2256 59.3486 33.3954 56.3721 32.6119 55.129C31.8284 53.8859 29.4297 51.709 29.4297 51.709C29.4297 51.709 30.5357 54.3295 31.6898 55.7053C32.8424 57.0827 34.2256 59.3472 34.2256 59.3472V59.3486Z" fill="black"/>
<path d="M34.6772 60.3871L34.0922 59.4299C34.079 59.4066 32.7017 57.1582 31.5694 55.8071C30.4139 54.4283 29.3313 51.8793 29.286 51.7699L29.0117 51.1191L29.5355 51.5948C29.6347 51.6838 31.959 53.7994 32.7454 55.0469C33.5319 56.2959 34.3431 59.1848 34.3781 59.3074L34.6802 60.3885L34.6772 60.3871ZM29.893 52.3564C30.303 53.2275 31.05 54.6997 31.8087 55.6043C32.4784 56.4038 33.2313 57.5113 33.7434 58.2977C33.4312 57.326 32.9439 55.9486 32.4799 55.2103C31.9503 54.3699 30.6488 53.0772 29.893 52.3564Z" fill="#F0ECEA"/>
<path d="M32.6567 60.5454C32.6567 60.5454 26.4309 56.9036 25.0477 55.6604C23.6645 54.4173 19.5602 50.9068 18.9605 51.5298C18.3609 52.1514 18.6381 53.6178 18.6381 53.6178C18.6381 53.6178 17.3001 49.5762 18.4075 49.5762C19.515 49.5762 23.7564 53.5288 26.2471 55.6167C28.7377 57.7031 32.6567 60.5468 32.6567 60.5468V60.5454Z" fill="black"/>
<path d="M32.5772 60.6809C32.3219 60.5321 26.3208 57.0172 24.942 55.777C23.3399 54.3369 20.0716 51.6129 19.1685 51.6129C19.1349 51.6129 19.0926 51.6173 19.0722 51.6391C18.5353 52.1965 18.7877 53.5768 18.7906 53.5899L18.4886 53.6672C18.3791 53.336 17.4322 50.4033 17.9881 49.6329C18.0888 49.4943 18.2332 49.4199 18.4054 49.4199C19.2633 49.4199 21.4782 51.2861 24.513 53.9226C25.1725 54.496 25.8014 55.0402 26.3456 55.4969C28.8041 57.5571 32.7071 60.3906 32.7465 60.4212L32.5758 60.6824L32.5772 60.6809ZM19.1685 51.2992C20.3955 51.2992 24.6677 55.1088 25.1506 55.5436C25.9079 56.225 28.1694 57.6548 30.0268 58.79C28.7808 57.8489 27.3027 56.7065 26.1442 55.7362C25.5985 55.2795 24.9697 54.7324 24.3087 54.1589C22.1581 52.2913 19.2123 49.7336 18.4054 49.7336C18.3339 49.7336 18.2828 49.7599 18.242 49.8168C17.9925 50.1626 18.1763 51.3255 18.4448 52.3964C18.4915 52.036 18.6053 51.6727 18.846 51.4232C18.9234 51.343 19.0328 51.3006 19.1685 51.3006V51.2992Z" fill="#F0ECEA"/>
<path d="M16.2404 41.626C16.2404 41.626 25.326 53.3057 29.6608 56.504C33.9957 59.7022 34.5939 60.9906 34.5939 60.9906C34.5939 60.9906 24.0799 54.3285 20.1142 49.1328C16.1485 43.9357 16.2404 41.6274 16.2404 41.6274V41.626Z" fill="black"/>
<path d="M34.9601 61.4062L34.5107 61.1216C34.4057 61.0545 23.9267 54.3852 19.9902 49.226C16.0347 44.0434 16.0814 41.7162 16.0843 41.6199L16.1018 41.1924L16.3644 41.5294C16.4549 41.6461 25.4865 53.2296 29.7542 56.3768C34.0715 59.5634 34.7121 60.8692 34.7369 60.9232L34.9616 61.4047L34.9601 61.4062ZM16.4695 42.1699C16.6708 43.1198 17.4252 45.3507 20.2382 49.0363C23.5299 53.3507 31.4613 58.7463 33.9315 60.3732C33.3289 59.6932 32.0785 58.4822 29.5674 56.6292C25.7505 53.8132 18.1882 44.3483 16.4695 42.1699Z" fill="#F0ECEA"/>
<path d="M35.2602 64.8684C35.4688 65.0567 36.0583 65.2843 37.2533 65.4506C38.4482 65.6169 39.6009 65.7103 39.6461 65.5017C39.6899 65.2945 40.1057 62.4143 40.2516 62.1356C40.3961 61.857 40.2618 61.5476 40.2618 61.5476L38.2629 61.123C38.2629 61.123 36.7689 62.7587 36.4055 63.2562C36.0408 63.7537 34.8765 64.5212 35.2602 64.867V64.8684Z" fill="black"/>
<path d="M46.7431 64.9064C46.5287 65.0917 45.9275 65.3105 44.7267 65.4579C43.5259 65.6052 42.3689 65.6797 42.3324 65.4725C42.2974 65.2653 42.0012 62.3793 41.867 62.0977C41.7327 61.8175 41.8801 61.5097 41.8801 61.5097L43.8965 61.1172C43.8965 61.1172 45.322 62.7747 45.6664 63.2781C46.0092 63.78 47.1429 64.5664 46.7446 64.9064H46.7431Z" fill="black"/>
<path d="M50.4078 25.0175C50.4078 25.0175 49.3923 25.248 48.7328 25.8813C48.0748 26.5145 47.4766 26.9756 47.4766 26.9756C47.4766 26.9756 49.5601 27.5198 51.1257 27.7241C52.6139 27.9181 54.1766 27.0894 55.0141 26.0534C55.8516 25.016 53.2194 24.3828 53.2194 24.3828C53.2194 24.3828 51.3051 24.5564 50.4078 25.016V25.0175Z" fill="#F0ECEA"/>
<path d="M51.5677 28.0652C51.4072 28.0652 51.2453 28.055 51.0848 28.0346C49.5163 27.8303 47.4838 27.3007 47.3963 27.2788C47.281 27.2482 47.1935 27.1563 47.1701 27.0395C47.1468 26.9228 47.192 26.8032 47.2854 26.7302C47.2912 26.7258 47.8792 26.2706 48.5154 25.6578C49.1603 25.0362 50.0926 24.7751 50.2983 24.724C51.2497 24.2542 53.11 24.082 53.1887 24.0747C53.2223 24.0733 53.2573 24.0747 53.2894 24.082C53.6002 24.1564 55.1658 24.5723 55.4444 25.3908C55.513 25.5921 55.5349 25.9044 55.2548 26.2531C54.3647 27.3561 52.9159 28.0682 51.5663 28.0682L51.5677 28.0652ZM48.155 26.8221C48.8845 26.9972 50.1437 27.2817 51.165 27.4145C52.6212 27.6027 54.0686 26.7244 54.7704 25.8562C54.8929 25.703 54.8667 25.6213 54.855 25.5878C54.7339 25.2332 53.8132 24.8553 53.196 24.6977C52.8911 24.7284 51.3051 24.9064 50.5508 25.293C50.5274 25.3047 50.5026 25.3135 50.4764 25.3193C50.4676 25.3222 49.5353 25.5396 48.9487 26.1043C48.6569 26.3859 48.3782 26.6325 48.155 26.8207V26.8221Z" fill="black"/>
<path d="M51.6655 24.7287C51.6655 24.7287 50.7682 22.9428 50.2298 21.5027C49.6914 20.0626 49.6914 19.7168 49.6914 19.7168C49.6914 19.7168 52.9801 20.0626 54.2378 22.079C55.9318 24.7958 55.0155 26.0535 55.0155 26.0535C55.0155 26.0535 52.7423 25.5924 51.6655 24.7287Z" fill="#F0ECEA"/>
<path d="M55.0147 26.367C54.9943 26.367 54.9739 26.3655 54.952 26.3611C54.8557 26.3422 52.5927 25.8738 51.4692 24.9736C51.4342 24.9459 51.4065 24.9094 51.3846 24.87C51.3481 24.797 50.4742 23.0535 49.9358 21.6134C49.4047 20.1923 49.377 19.7852 49.377 19.7181C49.377 19.6291 49.4134 19.5459 49.4805 19.4861C49.5462 19.4262 49.6337 19.3971 49.7227 19.4073C49.8628 19.4219 53.1793 19.7939 54.5012 21.9154C56.2856 24.7781 55.3095 26.1802 55.2672 26.2386C55.2073 26.3203 55.114 26.367 55.0147 26.367ZM51.9128 24.5271C52.7357 25.153 54.2575 25.5572 54.8411 25.6958C54.9856 25.2858 55.1665 24.1623 53.9715 22.2451C53.0713 20.8007 50.9878 20.2652 50.0861 20.096C50.1575 20.3527 50.2859 20.7642 50.5209 21.3945C50.9921 22.6537 51.7508 24.2003 51.9128 24.5271Z" fill="black"/>
<path d="M52.3828 22.0205C52.3828 22.0205 53.3881 22.9383 53.8098 24.2149L52.3828 22.0205Z" fill="#F0ECEA"/>
<path d="M53.8119 24.5267C53.6806 24.5267 53.5595 24.4436 53.5158 24.3122C53.1247 23.1319 52.1822 22.2593 52.1734 22.2506C52.0465 22.1339 52.0377 21.9369 52.1545 21.81C52.2697 21.683 52.4681 21.6728 52.5951 21.7895C52.6389 21.8289 53.666 22.7773 54.1081 24.1153C54.1621 24.2787 54.0731 24.4552 53.9097 24.5092C53.8761 24.5209 53.844 24.5253 53.8119 24.5253V24.5267Z" fill="black"/>
<path d="M51.1914 26.5015C51.1914 26.5015 52.4652 26.0287 53.9388 25.8857L51.1914 26.5015Z" fill="#F0ECEA"/>
<path d="M51.1918 26.8134C51.0648 26.8134 50.9452 26.736 50.8985 26.6091C50.8387 26.4471 50.9204 26.2677 51.0823 26.2079C51.1363 26.1874 52.4115 25.7191 53.9071 25.5746C54.0807 25.5586 54.231 25.6841 54.2485 25.8548C54.2645 26.0269 54.1391 26.1787 53.9684 26.1962C52.5531 26.3333 51.3129 26.7886 51.2997 26.7929C51.2633 26.8061 51.2268 26.8119 51.1918 26.8119V26.8134Z" fill="black"/>
<path d="M55.1337 26.2274C55.1337 26.2274 54.2364 21.8488 47.4766 22.9446C47.4766 22.9446 49.5105 24.6735 50.348 25.3637C51.1855 26.0553 53.4587 26.7469 55.1337 26.2274Z" fill="#F0ECEA"/>
<path d="M53.8312 26.7204C52.3181 26.7204 50.8065 26.1455 50.1514 25.6042C49.3139 24.9126 47.2756 23.1822 47.2756 23.1822C47.1837 23.1034 47.1443 22.9779 47.1779 22.8612C47.21 22.7445 47.3092 22.6569 47.4288 22.6365C48.1656 22.5169 48.8689 22.457 49.5211 22.457C54.622 22.457 55.4332 26.128 55.442 26.166C55.4741 26.3235 55.3821 26.4797 55.2289 26.5263C54.8102 26.6562 54.3404 26.7219 53.8326 26.7219L53.8312 26.7204ZM48.2123 23.1574C48.8733 23.7177 49.9836 24.6558 50.5483 25.1227C51.129 25.6013 52.5136 26.0959 53.8312 26.0959C54.1565 26.0959 54.4629 26.0667 54.7431 26.0069C54.4571 25.2176 53.3292 23.08 49.5196 23.08C49.1053 23.08 48.6676 23.1063 48.2109 23.1574H48.2123Z" fill="black"/>
<path d="M52.0215 24.6719C52.0215 24.6719 53.2777 24.8455 54.8331 26.1703L52.0215 24.6719Z" fill="#F0ECEA"/>
<path d="M54.8337 26.481C54.7622 26.481 54.6907 26.4562 54.6309 26.4066C53.1747 25.1664 51.99 24.9826 51.9783 24.9796C51.8076 24.9548 51.6894 24.7973 51.7142 24.6266C51.7376 24.4558 51.8893 24.3347 52.0659 24.361C52.1213 24.3683 53.4315 24.5624 55.038 25.9295C55.1693 26.0418 55.1853 26.2388 55.073 26.3701C55.0117 26.4431 54.9241 26.4796 54.8351 26.4796L54.8337 26.481Z" fill="black"/>
<path d="M56.2354 29.4964C56.2354 29.4964 55.2432 29.1827 54.3386 29.3928C53.434 29.6029 52.6738 29.6948 52.6738 29.6948C52.6738 29.6948 54.1562 31.2064 55.3818 32.1664C56.5462 33.0798 58.3277 33.1586 59.6044 32.6946C60.8796 32.2306 58.9784 30.3674 58.9784 30.3674C58.9784 30.3674 57.2523 29.5533 56.2368 29.4949L56.2354 29.4964Z" fill="#F0ECEA"/>
<path d="M57.9584 33.2858C56.8889 33.2858 55.9041 32.9764 55.1877 32.4133C53.9606 31.4503 52.5103 29.9766 52.4505 29.9139C52.3673 29.8293 52.3396 29.7052 52.379 29.5929C52.4184 29.4805 52.5176 29.4003 52.6358 29.3857C52.6431 29.3857 53.3916 29.2923 54.2685 29.0881C54.499 29.0341 54.7499 29.0078 55.0184 29.0078C55.6254 29.0078 56.1463 29.145 56.2907 29.1873C57.3558 29.2646 59.0381 30.0525 59.1096 30.0861C59.1402 30.1006 59.1694 30.1211 59.1942 30.1459C59.4175 30.3633 60.5161 31.4926 60.3338 32.333C60.2871 32.5446 60.1426 32.832 59.7078 32.9881C59.1738 33.1822 58.5683 33.2843 57.957 33.2843L57.9584 33.2858ZM53.3332 29.9124C53.8614 30.4289 54.7777 31.2985 55.5729 31.923C56.1813 32.4001 57.0275 32.6628 57.9584 32.6628C58.4983 32.6628 59.0308 32.5737 59.4963 32.403C59.6961 32.3301 59.7166 32.2367 59.7253 32.2017C59.8041 31.8398 59.2307 31.0665 58.7974 30.6303C58.5172 30.5019 57.0713 29.8584 56.2192 29.8088C56.193 29.8088 56.1667 29.803 56.1419 29.7957C56.1375 29.7942 55.6195 29.6337 55.0184 29.6337C54.7981 29.6337 54.5924 29.6556 54.41 29.6979C54.0044 29.7928 53.6294 29.8628 53.3347 29.9124H53.3332Z" fill="black"/>
<path d="M57.4629 29.8819C57.4629 29.8819 57.6657 27.9078 57.9852 26.4094C58.3062 24.9095 58.493 24.6162 58.493 24.6162C58.493 24.6162 61.1135 26.5641 61.093 28.9146C61.0668 32.0837 59.6048 32.6965 59.6048 32.6965C59.6048 32.6965 57.9152 31.1615 57.4644 29.8834L57.4629 29.8819Z" fill="#F0ECEA"/>
<path d="M59.6052 33.0069C59.5278 33.0069 59.4534 32.9792 59.3951 32.9252C59.3236 32.861 57.6413 31.3231 57.17 29.9837C57.1539 29.9399 57.1496 29.8947 57.1539 29.848C57.1627 29.7663 57.3611 27.8404 57.6821 26.3419C57.9987 24.8624 58.1957 24.5035 58.2322 24.4451C58.2789 24.3722 58.3547 24.3211 58.4394 24.3065C58.524 24.2919 58.613 24.3109 58.6816 24.3634C58.7939 24.4466 61.429 26.4338 61.4071 28.9157C61.3794 32.2525 59.7934 32.9543 59.7277 32.9821C59.6883 32.9981 59.6475 33.0069 59.6066 33.0069H59.6052ZM57.7828 29.8422C58.1461 30.7876 59.2214 31.8922 59.6431 32.3007C59.9889 32.0278 60.7637 31.1626 60.7812 28.9098C60.7958 27.2246 59.3017 25.7218 58.6291 25.1309C58.5488 25.3833 58.435 25.8035 58.292 26.4732C58.0133 27.7805 57.8222 29.476 57.7828 29.8422Z" fill="black"/>
<path d="M59.543 27.9326C59.543 27.9326 59.9048 29.221 59.5736 30.521L59.543 27.9326Z" fill="#F0ECEA"/>
<path d="M59.5728 30.833C59.5466 30.833 59.5203 30.8301 59.4955 30.8228C59.3277 30.7805 59.2271 30.6113 59.2694 30.4435C59.5772 29.2383 59.2431 28.0287 59.2402 28.0156C59.1935 27.8493 59.2912 27.6771 59.4561 27.6304C59.6225 27.5852 59.7946 27.68 59.8413 27.8463C59.8559 27.9018 60.2221 29.231 59.8734 30.5967C59.8384 30.7382 59.7115 30.8316 59.5714 30.8316L59.5728 30.833Z" fill="black"/>
<path d="M56.0996 31.1572C56.0996 31.1572 57.4434 31.3951 58.777 32.0137L56.0996 31.1572Z" fill="#F0ECEA"/>
<path d="M58.7759 32.3242C58.7321 32.3242 58.6869 32.3155 58.646 32.295C57.3679 31.7012 56.0591 31.4648 56.0445 31.4634C55.8753 31.4342 55.7615 31.2722 55.7921 31.1015C55.8213 30.9323 55.9832 30.817 56.1525 30.8491C56.2094 30.8593 57.5532 31.1001 58.9072 31.7289C59.0633 31.8019 59.1319 31.9872 59.0589 32.1433C59.0049 32.2571 58.8926 32.3242 58.7744 32.3242H58.7759Z" fill="black"/>
<path d="M59.611 32.9038C59.611 32.9038 61.2175 28.7178 54.8574 26.2549C54.8574 26.2549 55.6555 28.7528 55.9955 29.7625C56.3354 30.7736 57.8996 32.5055 59.6096 32.9038H59.611Z" fill="#F0ECEA"/>
<path d="M59.611 33.2157C59.5876 33.2157 59.5643 33.2128 59.5395 33.2069C57.7157 32.7809 56.0742 30.9716 55.7007 29.8613C55.3593 28.8502 54.5597 26.3494 54.5597 26.3494C54.5233 26.2341 54.5554 26.1101 54.6429 26.0269C54.7304 25.9437 54.8574 25.9189 54.9697 25.9627C61.5442 28.5073 59.9188 32.9691 59.9028 33.0143C59.8561 33.1369 59.7379 33.2142 59.611 33.2142V33.2157ZM55.3608 26.8002C55.6205 27.6085 56.0611 28.9771 56.2931 29.6614C56.5864 30.5325 57.9374 32.0368 59.398 32.5183C59.6037 31.6253 59.8474 28.7801 55.3608 26.7987V26.8002Z" fill="black"/>
<path d="M57.7988 30.0137C57.7988 30.0137 58.7764 30.7913 59.3863 32.7042L57.7988 30.0137Z" fill="#F0ECEA"/>
<path d="M59.387 33.0145C59.2542 33.0145 59.1316 32.9299 59.0893 32.7971C58.5203 31.0127 57.6128 30.2628 57.604 30.2555C57.4712 30.1475 57.4493 29.9505 57.5559 29.8163C57.6638 29.6821 57.8593 29.6602 57.9936 29.7667C58.0359 29.8002 59.0528 30.6261 59.6846 32.606C59.7371 32.7709 59.6467 32.946 59.4818 32.9985C59.4512 33.0087 59.4176 33.0131 59.387 33.0131V33.0145Z" fill="black"/>
<path d="M59.8178 36.0376C59.8178 36.0376 59.027 35.3139 58.0757 35.1228C57.123 34.9331 56.3613 34.6924 56.3613 34.6924C56.3613 34.6924 57.0602 36.7569 57.7722 38.1927C58.4492 39.5554 60.0951 40.3973 61.5162 40.5082C62.9358 40.6191 62.0035 38.0409 62.0035 38.0409C62.0035 38.0409 60.7502 36.5293 59.8164 36.0376H59.8178Z" fill="#F0ECEA"/>
<path d="M61.6031 40.8235C61.5681 40.8235 61.5316 40.8235 61.4937 40.8191C60.1076 40.7111 58.2648 39.8868 57.4944 38.3314C56.7824 36.8943 56.0967 34.8778 56.0675 34.7932C56.0295 34.6823 56.0573 34.5583 56.1404 34.4751C56.2221 34.3905 56.3462 34.3613 56.457 34.3963C56.4643 34.3993 57.2143 34.6342 58.1379 34.818C59.0658 35.0033 59.8348 35.638 59.9996 35.781C60.9699 36.3121 62.1941 37.7799 62.2466 37.8426C62.2699 37.8704 62.2874 37.9025 62.2991 37.936C62.3633 38.114 62.9148 39.7 62.3954 40.4412C62.2728 40.6163 62.035 40.825 61.6046 40.825L61.6031 40.8235ZM56.8583 35.1594C57.1151 35.87 57.5849 37.1087 58.0533 38.0542C58.7171 39.3907 60.3279 40.1027 61.5419 40.1961L61.6031 40.199C61.7782 40.199 61.8453 40.1363 61.8833 40.0808C62.1167 39.7496 61.9373 38.7998 61.7301 38.1986C61.5243 37.9564 60.4563 36.7265 59.6728 36.315C59.6495 36.3033 59.6276 36.2873 59.6086 36.2698C59.6013 36.2625 58.8659 35.6015 58.0153 35.4308C57.5674 35.3418 57.1647 35.2426 56.8583 35.1609V35.1594Z" fill="black"/>
<path d="M60.801 36.9288C60.801 36.9288 61.9069 35.1502 62.9049 33.8721C63.9029 32.5925 64.2181 32.3955 64.2181 32.3955C64.2181 32.3955 65.7895 35.3632 64.6806 37.5752C63.1851 40.556 61.5188 40.5079 61.5188 40.5079C61.5188 40.5079 60.6346 38.331 60.8024 36.9303L60.801 36.9288Z" fill="#F0ECEA"/>
<path d="M61.5226 40.82H61.508C61.384 40.8156 61.2745 40.7397 61.2278 40.6245C61.1914 40.5325 60.3159 38.3571 60.4896 36.8922C60.4954 36.847 60.51 36.8032 60.5348 36.7638C60.5465 36.7463 61.6612 34.9575 62.6577 33.6808C63.6397 32.4231 63.9898 32.1692 64.0497 32.1327C64.1241 32.0861 64.2131 32.0729 64.2977 32.0963C64.3809 32.1181 64.4524 32.1751 64.4932 32.2524C64.5603 32.3793 66.1259 35.3879 64.9572 37.718C63.4442 40.7353 61.7137 40.8229 61.5226 40.8229V40.82ZM61.1038 37.0337C61.0075 38.0872 61.5167 39.6046 61.7225 40.1692C62.1748 40.07 63.3114 39.6046 64.4013 37.4364C65.2023 35.8387 64.4757 33.7581 64.1153 32.9192C63.9227 33.122 63.6134 33.4736 63.1509 34.066C62.2769 35.1865 61.3052 36.7142 61.1038 37.0352V37.0337Z" fill="black"/>
<path d="M63.6672 35.9805C63.6672 35.9805 63.4119 37.3534 62.4941 38.4404L63.6672 35.9805Z" fill="#F0ECEA"/>
<path d="M62.4959 38.7526C62.4244 38.7526 62.3529 38.7293 62.2946 38.6797C62.1633 38.5688 62.1458 38.3718 62.2566 38.2405C63.1073 37.2338 63.3582 35.9367 63.3611 35.9235C63.3932 35.7543 63.5567 35.6434 63.7259 35.674C63.8952 35.7061 64.0061 35.8681 63.9754 36.0373C63.9637 36.0957 63.6938 37.5051 62.7352 38.6418C62.6725 38.7147 62.5849 38.7526 62.4959 38.7526Z" fill="black"/>
<path d="M58.9219 37.5459C58.9219 37.5459 60.0833 38.3484 61.0536 39.5054L58.9219 37.5459Z" fill="#F0ECEA"/>
<path d="M61.0532 39.8189C60.9642 39.8189 60.8752 39.781 60.8125 39.708C59.8801 38.5948 58.7552 37.8113 58.7435 37.804C58.602 37.7062 58.567 37.5122 58.6647 37.3692C58.7625 37.2276 58.9566 37.1912 59.0981 37.2904C59.1462 37.3239 60.3047 38.1293 61.2925 39.3068C61.4019 39.4381 61.3844 39.6351 61.2531 39.746C61.1948 39.7941 61.1247 39.8189 61.0532 39.8189Z" fill="black"/>
<path d="M61.4296 40.7082C61.4296 40.7082 64.8876 37.4443 60.0216 32.3828C60.0216 32.3828 59.6189 35.085 59.473 36.1866C59.3256 37.2867 59.9997 39.5964 61.4296 40.7082Z" fill="#F0ECEA"/>
<path d="M61.4302 41.0188C61.3631 41.0188 61.296 40.9969 61.2391 40.9532C59.7129 39.7669 59.0024 37.3522 59.1628 36.1426C59.3102 35.0411 59.7129 32.3345 59.7129 32.3345C59.7304 32.2163 59.8136 32.12 59.9274 32.0835C60.0412 32.0485 60.1652 32.0792 60.2469 32.1652C62.0722 34.0649 62.9768 35.9442 62.9331 37.7534C62.8849 39.7421 61.6958 40.886 61.6447 40.9342C61.5849 40.9911 61.5076 41.0188 61.4302 41.0188ZM60.2353 33.0728C60.1069 33.9424 59.8836 35.4656 59.7829 36.2243C59.6545 37.1771 60.2382 39.1877 61.3996 40.2703C61.7045 39.888 62.2823 38.9995 62.3086 37.7243C62.3407 36.2389 61.6432 34.6763 60.2353 33.0728Z" fill="black"/>
<path d="M61.0586 37.1973C61.0586 37.1973 61.6218 38.3543 61.311 40.4218L61.0586 37.1973Z" fill="#F0ECEA"/>
<path d="M61.3102 40.7344C61.2941 40.7344 61.2781 40.7344 61.2635 40.7315C61.0928 40.7053 60.9746 40.5462 61.0008 40.377C61.2926 38.4466 60.782 37.3465 60.7761 37.3348C60.7032 37.1802 60.7674 36.9934 60.922 36.919C61.0752 36.846 61.2635 36.9088 61.3379 37.0634C61.3627 37.1145 61.9405 38.3314 61.618 40.4703C61.5947 40.625 61.4604 40.7359 61.3087 40.7359L61.3102 40.7344Z" fill="black"/>
<path d="M60.1311 44.3762C60.1311 44.3762 59.5752 43.4074 58.6822 42.923C57.7893 42.4386 57.1035 41.9658 57.1035 41.9658C57.1035 41.9658 57.1225 44.2551 57.3618 45.914C57.5894 47.4913 58.9653 48.8409 60.3558 49.3895C61.7448 49.9367 61.6631 47.0609 61.6631 47.0609C61.6631 47.0609 60.9044 45.1568 60.1311 44.3762Z" fill="#F0ECEA"/>
<path d="M60.6872 49.7701C60.5457 49.7701 60.3954 49.7395 60.2422 49.6782C58.8882 49.1456 57.3139 47.7537 57.0541 45.9576C56.8149 44.2957 56.7944 42.0619 56.793 41.9685C56.793 41.8518 56.8557 41.7438 56.9593 41.6898C57.0629 41.6344 57.1869 41.6432 57.2818 41.7088C57.289 41.7132 57.9661 42.1801 58.8327 42.6484C59.7038 43.1197 60.2655 43.9937 60.3823 44.1848C61.1804 45.015 61.923 46.8666 61.9551 46.9454C61.9682 46.9789 61.9755 47.0154 61.977 47.0519C61.9814 47.2313 62.0091 48.8188 61.373 49.4739C61.1847 49.668 60.9469 49.7716 60.6887 49.7716L60.6872 49.7701ZM57.4291 42.5492C57.451 43.3327 57.5108 44.7539 57.6713 45.8686C57.8946 47.4181 59.2792 48.6291 60.4713 49.0975C60.5515 49.1296 60.623 49.1456 60.6872 49.1456C60.7791 49.1456 60.8521 49.1121 60.925 49.0377C61.2912 48.6598 61.3584 47.5582 61.354 47.1248C61.2285 46.8213 60.5617 45.2529 59.911 44.5963C59.892 44.5773 59.8745 44.5554 59.8614 44.5321C59.8555 44.5233 59.3361 43.6319 58.5351 43.1971C58.0988 42.9607 57.7136 42.7287 57.4291 42.5492Z" fill="black"/>
<path d="M60.8217 45.575C60.8217 45.575 62.523 44.1276 63.9485 43.15C65.3754 42.1724 65.7548 42.0703 65.7548 42.0703C65.7548 42.0703 66.3501 45.5327 64.5044 47.4148C62.0138 49.9492 60.3577 49.3889 60.3577 49.3889C60.3577 49.3889 60.1914 46.9304 60.8217 45.575Z" fill="#F0ECEA"/>
<path d="M60.8004 49.7525C60.4764 49.7525 60.2897 49.6956 60.2547 49.6825C60.135 49.6416 60.0519 49.5337 60.0431 49.4082C60.0358 49.3046 59.8782 46.8548 60.5363 45.4425C60.5552 45.4016 60.583 45.3666 60.6165 45.3374C60.634 45.3228 62.3455 43.8696 63.7695 42.8935C65.1688 41.9334 65.5992 41.789 65.6721 41.77C65.7553 41.7481 65.8472 41.7613 65.9216 41.8094C65.9946 41.8561 66.0457 41.9334 66.0603 42.0195C66.0865 42.1669 66.6614 45.6628 64.7252 47.6354C62.9145 49.4797 61.489 49.754 60.8004 49.754V49.7525ZM60.6544 49.1237C61.1549 49.1631 62.4753 49.0318 64.2787 47.1963C65.6269 45.8233 65.5788 43.4844 65.4941 42.5389C65.2344 42.6819 64.8011 42.9416 64.1226 43.4071C62.8664 44.2679 61.3738 45.5154 61.0761 45.7664C60.6253 46.8009 60.634 48.4948 60.6559 49.1222L60.6544 49.1237Z" fill="black"/>
<path d="M64.0131 45.5029C64.0131 45.5029 63.3011 46.8044 62.0215 47.6127L64.0131 45.5029Z" fill="#F0ECEA"/>
<path d="M62.0224 47.9245C61.9188 47.9245 61.8181 47.8734 61.7597 47.7786C61.6664 47.6341 61.7116 47.4401 61.856 47.3481C63.0539 46.5894 63.7338 45.3638 63.7411 45.3507C63.8243 45.1989 64.014 45.1435 64.1643 45.2281C64.316 45.3098 64.3715 45.4995 64.2883 45.6513C64.2576 45.7067 63.5223 47.033 62.1902 47.8763C62.1376 47.9099 62.0807 47.9245 62.0238 47.9245H62.0224Z" fill="black"/>
<path d="M58.7305 45.6162C58.7305 45.6162 59.6292 46.7776 60.2216 48.2396L58.7305 45.6162Z" fill="#F0ECEA"/>
<path d="M60.2222 48.5534C60.0997 48.5534 59.9815 48.4805 59.9333 48.3579C59.3643 46.9557 58.4932 45.8191 58.483 45.8075C58.378 45.6718 58.4028 45.4748 58.5385 45.3697C58.6756 45.2647 58.8711 45.2895 58.9762 45.4252C59.0141 45.4733 59.9085 46.6391 60.5111 48.123C60.5753 48.2835 60.4994 48.4644 60.3389 48.5286C60.2995 48.5447 60.2602 48.5519 60.2208 48.5519L60.2222 48.5534Z" fill="black"/>
<path d="M60.2007 49.5613C60.2007 49.5613 64.7559 47.3465 61.5445 40.7676C61.5445 40.7676 60.2445 43.3574 59.7324 44.4181C59.2203 45.4789 59.1327 48.006 60.2007 49.5613Z" fill="#F0ECEA"/>
<path d="M60.2004 49.8736C60.0997 49.8736 60.0034 49.8255 59.9436 49.7379C58.8056 48.0804 58.8902 45.4439 59.4505 44.281C59.964 43.2203 61.2655 40.6276 61.2655 40.6276C61.3181 40.5211 61.426 40.4554 61.5442 40.4554C61.6726 40.4496 61.7718 40.524 61.8244 40.6305C63.0164 43.07 63.3068 45.2148 62.6896 47.0036C61.9951 49.0157 60.4032 49.8094 60.3361 49.8415C60.2923 49.8634 60.2456 49.8736 60.2004 49.8736ZM61.5325 41.487C61.1196 42.3128 60.3711 43.8098 60.0122 44.5539C59.5555 45.5008 59.4709 47.6807 60.3055 49.1412C61.143 48.6013 63.6992 46.4638 61.534 41.487H61.5325Z" fill="black"/>
<path d="M60.9914 45.9229C60.9914 45.9229 61.1738 47.2579 60.1758 49.2393L60.9914 45.9229Z" fill="#F0ECEA"/>
<path d="M60.1771 49.5514C60.1289 49.5514 60.0822 49.5412 60.037 49.5178C59.8838 49.4405 59.8211 49.2537 59.8984 49.0991C60.8336 47.2417 60.6848 45.9767 60.6834 45.9635C60.6615 45.7928 60.7811 45.6367 60.9518 45.6134C61.1196 45.5944 61.2787 45.7097 61.302 45.8804C61.3108 45.9387 61.4858 47.3336 60.4572 49.3792C60.4018 49.4886 60.2923 49.5514 60.1785 49.5514H60.1771Z" fill="black"/>
<path d="M58.1488 52.2486C58.1488 52.2486 58.0714 51.1441 57.4747 50.3417C56.8794 49.5392 56.4665 48.8301 56.4665 48.8301C56.4665 48.8301 55.4772 50.9122 54.9666 52.5142C54.4807 54.0375 55.1343 55.8204 56.1542 56.8826C57.1726 57.9448 58.3603 55.3054 58.3603 55.3054C58.3603 55.3054 58.5091 53.2714 58.1502 52.2486H58.1488Z" fill="#F0ECEA"/>
<path d="M56.6743 57.4454C56.4015 57.4454 56.1505 57.3287 55.9288 57.0982C54.9337 56.0623 54.1152 54.1553 54.6696 52.419C55.1817 50.8155 56.1432 48.783 56.1841 48.6969C56.2337 48.5933 56.3373 48.5233 56.454 48.5189C56.5693 48.5131 56.6787 48.5744 56.7371 48.6736C56.74 48.6809 57.1485 49.3783 57.7278 50.156C58.3114 50.9395 58.4369 51.9594 58.4602 52.1841C58.8192 53.2638 58.6805 55.2437 58.6732 55.3284C58.6703 55.3648 58.6616 55.3999 58.647 55.4334C58.4952 55.769 57.6898 57.4469 56.6758 57.4469L56.6743 57.4454ZM56.5065 49.4892C56.1826 50.2071 55.6092 51.5275 55.2634 52.6087C54.7878 54.1028 55.5071 55.7588 56.3796 56.6663C56.5284 56.8224 56.6379 56.8224 56.6743 56.8224C57.1179 56.8224 57.7365 55.9061 58.0531 55.2262C58.0736 54.9009 58.1582 53.2113 57.8562 52.3519C57.8474 52.3271 57.8416 52.2979 57.8387 52.2716C57.8387 52.26 57.7584 51.2445 57.2259 50.5295C56.9341 50.137 56.6875 49.7679 56.508 49.4907L56.5065 49.4892Z" fill="black"/>
<path d="M58.2495 53.6155C58.2495 53.6155 60.425 52.9968 62.1466 52.6919C63.8683 52.3869 64.2579 52.4497 64.2579 52.4497C64.2579 52.4497 63.2789 55.8303 60.778 56.7831C57.4091 58.067 56.1543 56.8837 56.1543 56.8837C56.1543 56.8837 57.0808 54.5886 58.2495 53.6169V53.6155Z" fill="#F0ECEA"/>
<path d="M57.9721 57.6922C56.5976 57.6922 56.0038 57.1684 55.9411 57.1086C55.8477 57.0211 55.8185 56.8839 55.8666 56.7643C55.906 56.668 56.8369 54.3846 58.0509 53.3749C58.0844 53.3472 58.1238 53.3267 58.1661 53.3151C58.188 53.3092 60.3766 52.6891 62.0939 52.3842C64.0096 52.0442 64.3088 52.1405 64.3088 52.1405C64.3948 52.158 64.4751 52.2106 64.5203 52.285C64.5655 52.3594 64.5831 52.4513 64.5597 52.5345C64.5174 52.6789 63.5077 56.0771 60.8916 57.0736C59.8149 57.4836 58.8344 57.6922 57.9735 57.6922H57.9721ZM56.5436 56.7672C56.7713 56.8898 57.2309 57.0678 57.9721 57.0678C58.7556 57.0678 59.6617 56.8737 60.6669 56.49C62.4922 55.794 63.4727 53.6696 63.8156 52.7708C63.515 52.7942 63.0102 52.8555 62.2004 52.9984C60.6786 53.2684 58.7731 53.7922 58.3996 53.8972C57.5387 54.6486 56.8034 56.185 56.5436 56.7672Z" fill="black"/>
<path d="M61.1767 54.8535C61.1767 54.8535 59.9613 55.7421 58.4453 55.9551L61.1767 54.8535Z" fill="#F0ECEA"/>
<path d="M58.4451 56.267C58.2919 56.267 58.1576 56.1546 58.1358 55.9985C58.1124 55.8278 58.2306 55.6702 58.4013 55.6454C59.8239 55.4455 60.9809 54.6095 60.9926 54.6007C61.1312 54.5 61.3267 54.5292 61.4288 54.6693C61.5295 54.8079 61.5003 55.0034 61.3603 55.1055C61.3092 55.1435 60.0646 56.0423 58.4888 56.264C58.4743 56.267 58.4582 56.267 58.4451 56.267Z" fill="black"/>
<path d="M56.334 52.8027C56.334 52.8027 56.6389 54.2224 56.5339 55.788L56.334 52.8027Z" fill="#F0ECEA"/>
<path d="M56.5334 56.1002C56.5261 56.1002 56.5188 56.1002 56.5115 56.1002C56.3394 56.0885 56.2095 55.9397 56.2212 55.7675C56.3218 54.2676 56.0315 52.883 56.0286 52.8684C55.9921 52.6991 56.1001 52.5342 56.2679 52.4978C56.4371 52.4598 56.6034 52.5693 56.6385 52.737C56.6516 52.7969 56.9522 54.218 56.8442 55.8098C56.834 55.9747 56.6968 56.1002 56.5334 56.1002Z" fill="black"/>
<path d="M55.9364 56.975C55.9364 56.975 61.0372 56.8218 61.0154 49.5527C61.0154 49.5527 58.6998 51.3707 57.7704 52.1236C56.841 52.8765 55.6519 55.1307 55.9378 56.975H55.9364Z" fill="#F0ECEA"/>
<path d="M55.9367 57.2875C55.7835 57.2875 55.6522 57.1752 55.6289 57.0234C55.3254 55.0595 56.5568 52.7046 57.5738 51.8817C58.5047 51.1274 60.8231 49.3079 60.8231 49.3079C60.918 49.235 61.0449 49.2204 61.1529 49.2714C61.2608 49.324 61.328 49.4319 61.328 49.5516C61.3513 57.038 56.0009 57.2846 55.947 57.286H55.9367V57.2875ZM60.6904 50.2052C59.9535 50.7845 58.6185 51.8379 57.9663 52.3661C57.1361 53.0373 56.1031 54.9734 56.214 56.6338C57.2163 56.4836 60.4642 55.5819 60.6918 50.2067L60.6904 50.2052Z" fill="black"/>
<path d="M58.2491 54.001C58.2491 54.001 57.8304 55.2835 56.0547 56.6754L58.2491 54.001Z" fill="#F0ECEA"/>
<path d="M56.0556 56.9858C55.9622 56.9858 55.8718 56.945 55.8105 56.8662C55.704 56.7305 55.7288 56.535 55.863 56.4285C57.5278 55.1226 57.9495 53.9131 57.9538 53.9014C58.0093 53.738 58.1858 53.6504 58.3492 53.7044C58.5126 53.7599 58.6016 53.9349 58.5477 54.0969C58.5302 54.1523 58.0764 55.4874 56.2496 56.9202C56.1927 56.9654 56.1242 56.9873 56.0571 56.9873L56.0556 56.9858Z" fill="black"/>
<path d="M52.5473 57.9845C52.5473 57.9845 52.9325 56.9413 52.7151 55.9783C52.4977 55.0139 52.413 54.2041 52.413 54.2041C52.413 54.2041 50.6476 55.7361 49.5154 57.0099C48.4415 58.2209 48.3043 60.1089 48.8019 61.4731C49.298 62.8373 51.4778 60.8705 51.4778 60.8705C51.4778 60.8705 52.4539 59.0613 52.5473 57.986V57.9845Z" fill="#F0ECEA"/>
<path d="M49.4539 62.2654C49.0045 62.2654 48.6704 62.0202 48.5084 61.5781C48.0225 60.246 48.0576 58.1815 49.2817 56.8012C50.4125 55.5274 52.1342 54.0304 52.2071 53.9677C52.2947 53.8904 52.4187 53.8699 52.5267 53.9123C52.6346 53.9546 52.7105 54.0538 52.7222 54.169C52.7222 54.1778 52.8097 54.9744 53.0184 55.9082C53.2299 56.8508 52.925 57.8386 52.852 58.0516C52.7353 59.1795 51.7913 60.942 51.7504 61.0164C51.7344 61.047 51.711 61.0762 51.6848 61.0996C51.552 61.2192 50.3672 62.2654 49.451 62.2654H49.4539ZM52.1823 54.8256C51.5899 55.3596 50.5146 56.3533 49.7501 57.2156C48.6952 58.4047 48.6718 60.1993 49.0964 61.3637C49.1854 61.6073 49.3211 61.6409 49.4553 61.6409C50.0069 61.6409 50.8867 60.9726 51.231 60.6721C51.3828 60.3832 52.159 58.8614 52.2378 57.9568C52.2407 57.929 52.2465 57.9013 52.2553 57.8765C52.2582 57.8663 52.604 56.9048 52.4114 56.0454C52.3063 55.5785 52.2319 55.1495 52.1823 54.8256Z" fill="black"/>
<path d="M52.0734 59.2764C52.0734 59.2764 54.3248 59.5434 56.0304 59.9213C57.736 60.3006 58.0673 60.5078 58.0673 60.5078C58.0673 60.5078 55.7722 63.2333 53.0846 63.1502C49.4617 63.0378 48.8008 61.4708 48.8008 61.4708C48.8008 61.4708 50.5998 59.7199 52.072 59.2764H52.0734Z" fill="#F0ECEA"/>
<path d="M53.2074 63.4649H53.0775C49.2986 63.3467 48.5457 61.6644 48.5165 61.5929C48.4669 61.4748 48.4946 61.3376 48.5865 61.2471C48.6624 61.1742 50.4571 59.4379 51.9847 58.9769C52.0255 58.9652 52.0679 58.9593 52.1116 58.9652C52.135 58.9681 54.3994 59.2366 56.1007 59.6145C57.7742 59.9865 58.1726 60.2025 58.2368 60.2419C58.3126 60.29 58.3651 60.3688 58.3797 60.4578C58.3929 60.5468 58.3681 60.6387 58.3097 60.7058C58.2149 60.8196 55.9577 63.462 53.2088 63.462L53.2074 63.4649ZM49.2081 61.5214C49.5101 61.8964 50.4862 62.7587 53.098 62.839H53.2088C55.129 62.839 56.8521 61.3143 57.5291 60.6314C57.2431 60.538 56.7573 60.4023 55.965 60.2258C54.4563 59.8902 52.4866 59.6407 52.1043 59.594C50.9998 59.953 49.6867 61.0837 49.2081 61.52V61.5214Z" fill="black"/>
<path d="M54.2495 61.5321C54.2495 61.5321 52.7685 61.8808 51.2891 61.4971L54.2495 61.5321Z" fill="#F0ECEA"/>
<path d="M52.8 61.99C52.3171 61.99 51.7655 61.9433 51.2082 61.7989C51.0404 61.7565 50.9412 61.5858 50.9849 61.418C51.0273 61.2517 51.1994 61.151 51.3658 61.1948C52.7548 61.5537 54.1628 61.2298 54.1759 61.2284C54.3437 61.1904 54.5115 61.2926 54.5523 61.4604C54.5917 61.6281 54.4881 61.7974 54.3203 61.8353C54.2795 61.8455 53.6492 61.99 52.8 61.99Z" fill="black"/>
<path d="M50.6526 57.7979C50.6526 57.7979 50.3462 59.2175 49.6035 60.6138L50.6526 57.7979Z" fill="#F0ECEA"/>
<path d="M49.6023 60.9261C49.5542 60.9261 49.5031 60.9145 49.4564 60.8897C49.3047 60.808 49.2463 60.6197 49.328 60.4665C50.04 59.1286 50.345 57.7454 50.3479 57.7323C50.3844 57.5645 50.5507 57.458 50.72 57.493C50.8877 57.5295 50.9943 57.6958 50.9592 57.8636C50.9461 57.9234 50.6339 59.3431 49.8795 60.7613C49.8241 60.8663 49.7161 60.9261 49.6038 60.9261H49.6023Z" fill="black"/>
<path d="M48.5664 61.4744C48.5664 61.4744 53.3098 63.288 56.2907 56.6113C56.2907 56.6113 53.4149 57.3919 52.252 57.726C51.0877 58.0602 49.0669 59.6739 48.5664 61.4758V61.4744Z" fill="#F0ECEA"/>
<path d="M50.0457 62.0111C49.1076 62.0111 48.4816 61.7762 48.4539 61.766C48.3036 61.7091 48.2219 61.5471 48.2657 61.391C48.7982 59.4738 50.8964 57.7886 52.1657 57.4253C53.3315 57.0911 56.2088 56.3091 56.2088 56.3091C56.3255 56.277 56.4495 56.3149 56.5283 56.4068C56.6057 56.4988 56.6246 56.6272 56.5765 56.738C54.528 61.3253 51.6055 62.0111 50.0457 62.0111ZM48.9631 61.2655C49.2039 61.3224 49.5818 61.3881 50.0457 61.3881C51.677 61.3881 53.9458 60.6235 55.7185 57.0911C54.8008 57.3406 53.1506 57.7929 52.3379 58.0264C51.2991 58.324 49.554 59.6999 48.9631 61.2655Z" fill="black"/>
<path d="M51.9149 59.6299C51.9149 59.6299 51.0001 60.6468 48.7969 61.2421L51.9149 59.6299Z" fill="#F0ECEA"/>
<path d="M48.7978 61.5546C48.6592 61.5546 48.5337 61.4627 48.4973 61.3241C48.452 61.1578 48.5513 60.9871 48.7176 60.9418C50.788 60.3816 51.6766 59.4303 51.6853 59.4215C51.8006 59.2946 51.9975 59.2844 52.1259 59.3996C52.2529 59.5149 52.2631 59.7119 52.1478 59.8388C52.1084 59.8826 51.1455 60.9316 48.8795 61.5444C48.8533 61.5517 48.8241 61.5546 48.7978 61.5546Z" fill="black"/>
<path d="M42.7016 59.8952C42.7016 59.8952 44.5094 58.9949 45.7569 58.9132C47.6843 58.7863 48.2723 59.3291 48.3365 59.8412C48.4007 60.3519 47.9236 62.2661 47.6989 62.5419C47.4742 62.8177 46.7359 63.1518 44.683 62.679C43.8572 62.4894 42.4375 61.7336 42.4375 61.7336L42.7016 59.8937V59.8952Z" fill="black"/>
<path d="M47.4163 62.6424C47.4163 62.6424 47.3871 61.8969 43.0566 61.4971L47.4163 62.6424Z" fill="black"/>
<path d="M42.9688 60.4774C42.9688 60.4774 46.2312 59.0767 48.2768 60.1141L42.9688 60.4774Z" fill="black"/>
<path d="M43.1172 60.9515C43.1172 60.9515 46.794 60.4058 48.0401 61.2798L43.1172 60.9515Z" fill="black"/>
<path d="M39.5661 59.8952C39.5661 59.8952 37.7583 58.9949 36.5108 58.9132C34.5834 58.7863 33.9939 59.3291 33.9297 59.8412C33.8655 60.3519 34.3426 62.2661 34.5673 62.5419C34.792 62.8177 35.5303 63.1518 37.5832 62.679C38.409 62.4894 39.8301 61.7336 39.8301 61.7336L39.5646 59.8937L39.5661 59.8952Z" fill="black"/>
<path d="M34.8496 62.6424C34.8496 62.6424 34.8802 61.8969 39.2093 61.4971L34.8496 62.6424Z" fill="black"/>
<path d="M39.2983 60.4774C39.2983 60.4774 36.0358 59.0767 33.9902 60.1141L39.2983 60.4774Z" fill="black"/>
<path d="M39.1494 60.9515C39.1494 60.9515 35.4741 60.4058 34.2266 61.2798L39.1494 60.9515Z" fill="black"/>
<path d="M39.6763 59.8455C40.2074 59.7667 40.9034 59.8236 41.5439 59.8236C42.1844 59.8236 42.7506 59.8046 42.879 60.0599C42.9111 60.1241 42.9329 61.5876 42.8848 61.7364C42.8206 61.9334 42.1144 61.9728 41.3761 61.9523C41.1806 61.9465 40.969 61.9494 40.7604 61.9523C40.1797 61.9611 39.6165 61.9801 39.4502 61.894C39.3057 61.8181 39.1073 61.0361 39.1992 60.4597C39.2036 60.4305 39.2094 60.4028 39.2153 60.3766C39.2765 60.0993 39.4151 59.8849 39.6749 59.8469L39.6763 59.8455Z" fill="black"/>
<path d="M41.5458 69.4677C26.5292 69.4677 14.3125 57.1459 14.3125 41.9995C14.3125 26.853 26.5292 14.5312 41.5458 14.5312C56.5624 14.5312 68.7791 26.853 68.7791 41.9995C68.7791 57.1459 56.5624 69.4677 41.5458 69.4677ZM41.5458 14.8449C26.7014 14.8449 14.6247 27.0266 14.6247 42.0009C14.6247 56.9752 26.7014 69.1569 41.5458 69.1569C56.3903 69.1569 68.4669 56.9752 68.4669 42.0009C68.4669 27.0266 56.3903 14.8449 41.5458 14.8449Z" fill="black"/>
<path d="M41.5462 68.6872C26.7878 68.6872 14.7812 56.682 14.7812 41.9266C14.7812 27.1711 26.7878 15.166 41.5462 15.166C56.3046 15.166 68.3111 27.1711 68.3111 41.9266C68.3111 56.682 56.3031 68.6872 41.5462 68.6872ZM41.5462 15.4768C26.96 15.4768 15.0935 27.3419 15.0935 41.9251C15.0935 56.5084 26.96 68.3735 41.5462 68.3735C56.1324 68.3735 68.0004 56.5084 68.0004 41.9251C68.0004 27.3419 56.1324 15.4768 41.5462 15.4768Z" fill="black"/>
<path d="M41.5465 75.2412C23.3725 75.2412 8.58789 60.3282 8.58789 41.9995C8.58789 23.6708 23.374 8.75781 41.5465 8.75781C59.7191 8.75781 74.5052 23.6708 74.5052 41.9995C74.5052 60.3282 59.7191 75.2412 41.5465 75.2412ZM41.5465 9.06859C23.5447 9.06859 8.90013 23.8415 8.90013 41.9981C8.90013 60.1546 23.5461 74.9275 41.5465 74.9275C59.5469 74.9275 74.1929 60.1546 74.1929 41.9981C74.1929 23.8415 59.5484 9.06859 41.5465 9.06859Z" fill="black"/>
<path d="M37.4837 73.3372L36.582 73.1883C36.7031 72.612 36.7921 72.1466 36.8504 71.7906C36.9102 71.4287 36.9657 71.0406 37.0182 70.6262L36.439 70.7736L36.3164 70.4205L37.6514 69.7041L38.0702 69.7741C37.8922 70.6977 37.7609 71.4141 37.6777 71.9277C37.6208 72.272 37.5551 72.7419 37.4837 73.3372Z" fill="black"/>
<path d="M41.1027 72.6402C41.0823 72.9568 40.9466 73.2092 40.6956 73.3975C40.4432 73.5857 40.131 73.6674 39.7604 73.6426C39.3941 73.6192 39.1023 73.504 38.8864 73.2997C38.669 73.094 38.5712 72.8416 38.5902 72.5381C38.6048 72.3192 38.6777 72.1252 38.812 71.9559C38.955 71.7735 39.1519 71.6408 39.4029 71.5576L39.4058 71.5138C39.0586 71.2818 38.8966 70.99 38.9185 70.6398C38.9345 70.3845 39.0513 70.1832 39.2701 70.0314C39.4861 69.8855 39.7502 69.8242 40.0609 69.8432C40.3659 69.8622 40.6081 69.9526 40.7905 70.1146C40.9728 70.2751 41.056 70.4721 41.04 70.7055C41.0297 70.8762 40.9728 71.0309 40.8707 71.1695C40.7584 71.3241 40.6081 71.4321 40.4213 71.4949L40.4184 71.5386C40.9028 71.8275 41.1304 72.1952 41.1027 72.6388V72.6402ZM40.4169 72.649C40.4388 72.2959 40.2287 72.0026 39.7852 71.7692C39.6378 71.8129 39.5138 71.9034 39.4131 72.0405C39.3124 72.1777 39.257 72.328 39.2468 72.4928C39.2351 72.684 39.2818 72.8401 39.3868 72.9612C39.4919 73.0823 39.6334 73.148 39.81 73.1596C39.9763 73.1713 40.1164 73.129 40.2302 73.0342C40.344 72.9408 40.4067 72.8124 40.4169 72.6504V72.649ZM40.4534 70.7653C40.4622 70.6223 40.4257 70.5042 40.3425 70.4137C40.2594 70.3232 40.147 70.2736 40.0069 70.2649C39.8698 70.2561 39.756 70.2838 39.6655 70.351C39.5751 70.4166 39.5255 70.51 39.5167 70.6282C39.4992 70.8996 39.6743 71.1374 40.042 71.3431C40.2973 71.2337 40.4345 71.0411 40.452 70.7653H40.4534Z" fill="black"/>
<path d="M44.3012 72.5747C44.3129 72.8927 44.202 73.1568 43.97 73.3684C43.738 73.5799 43.436 73.6908 43.064 73.704C42.6977 73.7171 42.3957 73.6325 42.1608 73.4486C41.9244 73.2662 41.8019 73.0226 41.7917 72.7206C41.7844 72.5017 41.8384 72.3018 41.9551 72.1194C42.0791 71.9239 42.2629 71.7722 42.5037 71.6657V71.6219C42.1331 71.4249 41.9434 71.1506 41.9317 70.8004C41.923 70.5451 42.0193 70.3321 42.2221 70.1599C42.422 69.9936 42.6788 69.906 42.991 69.8958C43.296 69.8842 43.5469 69.9513 43.7424 70.0928C43.9394 70.2343 44.043 70.4225 44.0503 70.6575C44.0561 70.8282 44.0153 70.9872 43.9263 71.136C43.83 71.3009 43.6914 71.422 43.5119 71.5037V71.5475C44.024 71.7868 44.2867 72.1296 44.3012 72.5747ZM43.6199 72.6505C43.6082 72.2974 43.3689 72.0246 42.9049 71.8364C42.7619 71.8947 42.6481 71.9954 42.562 72.1428C42.476 72.2887 42.4351 72.4433 42.4409 72.6082C42.4482 72.8008 42.5095 72.9511 42.6262 73.0605C42.743 73.17 42.8903 73.2225 43.0683 73.2166C43.2347 73.2108 43.3689 73.1554 43.474 73.0503C43.579 72.9453 43.6272 72.811 43.6213 72.6491L43.6199 72.6505ZM43.471 70.7727C43.4667 70.6283 43.4185 70.5159 43.3251 70.4342C43.2332 70.3525 43.118 70.3131 42.9779 70.319C42.8407 70.3233 42.7298 70.3642 42.6467 70.4386C42.5621 70.513 42.5227 70.6108 42.527 70.7275C42.5358 71.0003 42.7328 71.2192 43.1194 71.387C43.3631 71.2527 43.4798 71.0485 43.471 70.7727Z" fill="black"/>
<path d="M47.0706 70.9506C47.1669 71.6524 47.0822 72.2229 46.8167 72.6577C46.5453 73.0998 46.1032 73.377 45.4919 73.4894L45.3649 73.0823C45.7881 72.9977 46.0959 72.7963 46.2856 72.4797C46.4461 72.2112 46.5147 71.88 46.4913 71.489L46.4651 71.4919C46.3367 71.6918 46.1324 71.81 45.8523 71.8479C45.5488 71.8902 45.2949 71.8188 45.0892 71.6335C44.9039 71.4657 44.7915 71.2424 44.7536 70.9652C44.7113 70.6603 44.7696 70.3889 44.9272 70.1481C45.1052 69.8797 45.3708 69.7221 45.7268 69.6725C46.039 69.6302 46.3177 69.706 46.5584 69.903C46.8342 70.1277 47.0049 70.4764 47.0706 70.9492V70.9506ZM46.4607 71.114C46.4111 70.7522 46.3133 70.4852 46.1674 70.3159C46.0463 70.1729 45.9062 70.1117 45.7457 70.1335C45.5925 70.154 45.4787 70.2342 45.4043 70.3743C45.3357 70.5012 45.3139 70.65 45.3372 70.8164C45.362 70.9988 45.432 71.1461 45.5473 71.2614C45.6786 71.3898 45.8362 71.4409 46.0244 71.4146C46.2214 71.3883 46.3673 71.2891 46.4592 71.1155L46.4607 71.114Z" fill="black"/>
<path d="M41.5459 83.0457C19.2151 83.0457 1.04688 64.6674 1.04688 42.0782C1.04688 19.4891 19.2151 1.10938 41.5459 1.10938C63.8768 1.10938 82.045 19.4877 82.045 42.0768C82.045 64.6659 63.8768 83.0442 41.5459 83.0442V83.0457ZM41.5459 1.42307C19.3872 1.42161 1.35911 19.6598 1.35911 42.0768C1.35911 64.4937 19.3872 82.732 41.5459 82.732C63.7046 82.732 81.7327 64.4937 81.7327 42.0768C81.7327 19.6598 63.7061 1.42161 41.5459 1.42161V1.42307Z" fill="black"/>
<path d="M41.5467 83.904C18.638 83.904 0 65.1055 0 41.9998C0 18.8942 18.638 0.0957031 41.5467 0.0957031C64.4553 0.0957031 83.0933 18.8942 83.0933 41.9998C83.0933 65.1055 64.4553 83.904 41.5467 83.904ZM41.5467 0.564061C18.8962 0.564061 0.468357 19.1525 0.468357 41.9998C0.468357 64.8472 18.8962 83.4356 41.5467 83.4356C64.1971 83.4356 82.625 64.8472 82.625 41.9998C82.625 19.1525 64.1985 0.564061 41.5467 0.564061Z" fill="black"/>
<path d="M41.4846 74.5382C23.6622 74.5382 9.16211 59.9053 9.16211 41.9209C9.16211 23.9366 23.6622 9.30371 41.4846 9.30371C59.307 9.30371 73.8071 23.9366 73.8071 41.9209C73.8071 59.9053 59.307 74.5382 41.4846 74.5382ZM41.4846 9.61595C23.8344 9.61595 9.47435 24.1073 9.47435 41.9209C9.47435 59.7346 23.8344 74.2259 41.4846 74.2259C59.1348 74.2259 73.4949 59.7331 73.4949 41.9209C73.4949 24.1088 59.1348 9.61595 41.4846 9.61595Z" fill="black"/>
<path d="M2.88867 43.0161C3.64009 42.9767 4.39004 42.9271 5.14 42.8673C6.62094 42.7491 7.41029 43.2977 7.50659 44.5131C7.55474 45.1142 7.42634 45.5797 7.12286 45.9094C6.81937 46.2392 6.24159 46.4376 5.39241 46.5047C4.64246 46.5645 3.90563 46.6331 3.18194 46.7119L3.10607 45.7635C3.86186 45.7329 4.58993 45.6891 5.29174 45.6336C5.90454 45.584 6.31892 45.4732 6.53486 45.2981C6.74934 45.1244 6.84564 44.8735 6.81937 44.5481C6.79165 44.2067 6.65888 43.9689 6.42105 43.8346C6.18176 43.7004 5.7528 43.6581 5.1327 43.7077C4.45278 43.7617 3.72909 43.8346 2.96162 43.9251L2.88867 43.0176V43.0161Z" fill="black"/>
<path d="M7.40876 38.32L7.36937 39.1502C7.27745 39.1458 6.77845 39.4303 5.87383 40.0037C4.91961 40.6034 4.27033 40.9405 3.92599 41.0149V41.0688C4.41624 41.0367 4.85979 41.0295 5.25519 41.0484C5.80818 41.0747 6.4808 41.0922 7.27599 41.098L7.23659 41.9239C6.545 41.8567 5.78483 41.8042 4.95609 41.7648C4.14047 41.7254 3.4445 41.7094 2.87109 41.7152L2.91924 40.7187C3.03743 40.7245 3.52329 40.4706 4.37684 39.957C5.28292 39.4099 5.89572 39.1006 6.21234 39.0276L6.21525 38.978C5.7148 39.0072 5.26541 39.013 4.87 38.9955C4.26449 38.9663 3.64148 38.9518 3.00387 38.9532L3.04326 38.1143C3.59625 38.1726 4.2893 38.2208 5.12388 38.2602C5.9643 38.301 6.72592 38.3214 7.41022 38.3229L7.40876 38.32Z" fill="black"/>
<path d="M7.68299 36.5147L7.55168 37.4558C6.86884 37.3318 6.11597 37.2107 5.29306 37.0969C4.48328 36.983 3.79315 36.9013 3.22266 36.8517L3.35397 35.9092C3.90841 36.0157 4.59417 36.1266 5.4127 36.2404C6.24874 36.3571 7.00453 36.449 7.68299 36.5132V36.5147Z" fill="black"/>
<path d="M4.28667 31.3335C4.46614 31.3743 5.12125 31.7843 6.25348 32.5635C7.38571 33.3426 8.03937 33.7526 8.21445 33.792L8.01164 34.6937C7.84385 34.6558 7.07931 34.7258 5.71801 34.9023C4.35671 35.0789 3.59654 35.1504 3.4375 35.1139L3.67095 34.0736C3.82999 34.1101 4.4282 34.0897 5.46559 34.0167C6.50298 33.9423 7.0866 33.9204 7.21792 33.9496L7.23105 33.8941C7.10411 33.865 6.60657 33.5994 5.73552 33.0931C4.86446 32.5883 4.31293 32.3096 4.07949 32.2571L4.28667 31.332V31.3335Z" fill="black"/>
<path d="M8.91969 28.9466L9.60983 29.2107L8.68916 31.9173C8.05885 31.6721 7.34245 31.4124 6.53997 31.1381C5.76813 30.8755 5.10572 30.6654 4.55273 30.5078L5.43109 27.9238L6.11538 28.1967C5.86443 28.8211 5.6514 29.3931 5.47632 29.9111C5.77834 29.9899 6.12852 30.0978 6.52976 30.235C6.68004 29.7914 6.83032 29.3129 6.97769 28.8007L7.64156 29.0269C7.45188 29.5157 7.27971 29.9869 7.12651 30.4378C7.55693 30.5837 7.96255 30.7135 8.34337 30.8244C8.54034 30.2423 8.73439 29.6178 8.92115 28.9481L8.91969 28.9466Z" fill="black"/>
<path d="M11.3519 25.3937L10.9317 26.2954C10.1044 26.1947 9.57623 26.167 9.35007 26.2151C9.12392 26.2618 8.94446 26.4252 8.81314 26.7054C8.7577 26.8236 8.70663 26.9359 8.65848 27.0453C9.17936 27.289 9.71046 27.5268 10.2503 27.7574L9.85491 28.6036C9.25523 28.2914 8.57094 27.9543 7.80347 27.5954C7.06519 27.2496 6.4305 26.968 5.89648 26.7506L6.14306 26.2239C6.17225 26.1626 6.22769 26.0342 6.31232 25.8372C6.39694 25.6403 6.47719 25.4608 6.55452 25.2959C6.98932 24.3651 7.52625 24.047 8.1624 24.3461C8.66723 24.5825 8.89485 25.0129 8.84524 25.6373L8.89047 25.6578C9.04221 25.4798 9.28587 25.3747 9.62146 25.3426C9.95558 25.312 10.5348 25.328 11.3563 25.3937H11.3519ZM8.02087 25.2259C7.61817 25.0377 7.29426 25.2026 7.05206 25.722C6.96306 25.9131 6.89886 26.0882 6.858 26.2472C7.18337 26.3727 7.59775 26.5536 8.10258 26.7885C8.15948 26.6791 8.20471 26.5857 8.24119 26.5084C8.54321 25.8635 8.4688 25.4345 8.02087 25.2259Z" fill="black"/>
<path d="M12.0513 21.9713C12.7983 22.4266 12.8464 23.1926 12.1928 24.2679C11.971 24.6341 11.7201 24.9464 11.4414 25.2061L10.8869 24.6764C11.1817 24.4313 11.4136 24.1716 11.5814 23.8958C11.7682 23.5894 11.8718 23.3516 11.8937 23.1809C11.9156 23.0102 11.8572 22.8833 11.7171 22.7972C11.5712 22.7096 11.4107 22.698 11.2356 22.7636C11.081 22.8191 10.8329 22.9708 10.4886 23.2174C10.1749 23.4406 9.89623 23.5792 9.65403 23.6347C9.34908 23.7033 9.05289 23.6507 8.7713 23.4786C8.44301 23.2787 8.25917 23 8.22123 22.6425C8.18475 22.285 8.3044 21.878 8.58308 21.4213C8.81069 21.0463 9.03393 20.7501 9.25133 20.5342L9.82328 21.0273C9.57232 21.2287 9.35638 21.4796 9.174 21.7802C8.89969 22.2325 8.88364 22.5316 9.12439 22.6775C9.25278 22.7563 9.38848 22.7665 9.53292 22.7096C9.6584 22.66 9.8758 22.5185 10.1866 22.285C10.5178 22.0385 10.8125 21.8823 11.0693 21.8167C11.4122 21.7291 11.7405 21.7802 12.0527 21.9699L12.0513 21.9713Z" fill="black"/>
<path d="M14.0174 21.298L13.463 22.0698C12.9173 21.6394 12.3074 21.1812 11.6333 20.6968C10.9709 20.2183 10.3975 19.8243 9.91602 19.5121L10.4719 18.7402C10.9126 19.0948 11.4685 19.5121 12.1382 19.9965C12.8225 20.4896 13.4499 20.9244 14.0189 21.2994L14.0174 21.298Z" fill="black"/>
<path d="M15.1572 16.2616C15.6372 16.6774 15.9246 17.1954 16.0166 17.8155C16.1085 18.4341 15.9144 19.0221 15.4344 19.578C15.217 19.829 14.9091 20.166 14.5079 20.5892C14.0162 20.1252 13.4486 19.6145 12.8081 19.0586C12.1924 18.5246 11.6569 18.0796 11.2031 17.725L11.5869 17.28C11.6496 17.2071 11.7415 17.0962 11.8612 16.9488C11.9793 16.8 12.0581 16.7037 12.0975 16.6599C12.6257 16.0486 13.1626 15.7363 13.7039 15.7261C14.2467 15.7144 14.7311 15.8939 15.1572 16.2631V16.2616ZM14.6669 17.0495C14.343 16.7679 13.987 16.6264 13.6004 16.6234C13.2137 16.6205 12.8519 16.8131 12.5148 17.2027C12.4521 17.2756 12.3733 17.3822 12.2785 17.5222C12.6315 17.7994 12.9919 18.0971 13.3611 18.4166C13.7652 18.7668 14.1738 19.1053 14.5867 19.4336C14.7049 19.3417 14.8099 19.2424 14.9062 19.1316C15.2199 18.7668 15.341 18.3991 15.2666 18.0285C15.1922 17.6565 14.9923 17.3311 14.6669 17.0495Z" fill="black"/>
<path d="M20.1929 14.8039L19.3962 15.5261C19.297 15.4167 18.941 15.1745 18.3267 14.7995L17.177 15.8413C17.4761 16.4862 17.6789 16.867 17.7854 16.9852L17.0355 17.6637C16.9771 17.5995 16.6897 16.8918 16.1746 15.5422C15.6596 14.1926 15.3561 13.4674 15.2656 13.3667L16.2067 12.5146C16.2928 12.6095 16.9581 12.9918 18.2027 13.6629C19.4473 14.3341 20.1112 14.7149 20.1914 14.8039H20.1929ZM17.7694 14.4377C16.7116 13.838 16.1498 13.5024 16.0871 13.4324L16.0477 13.4689C16.106 13.5331 16.3789 14.1298 16.8633 15.2577L17.7694 14.4362V14.4377Z" fill="black"/>
<path d="M22.1846 10.5448C22.5493 11.0657 22.7025 11.6376 22.6427 12.2606C22.5814 12.8837 22.2517 13.4075 21.6505 13.8291C21.3792 14.0203 20.9983 14.2712 20.5066 14.5849C20.1419 14.0159 19.7158 13.3827 19.2285 12.6881C18.7601 12.0214 18.3487 11.4596 17.9941 11.0058L18.4742 10.6673C18.553 10.6119 18.6682 10.5258 18.82 10.412C18.9717 10.2967 19.0709 10.2223 19.1191 10.1888C19.78 9.72334 20.3753 9.55117 20.9035 9.67227C21.4331 9.79337 21.8592 10.0852 22.1846 10.5462V10.5448ZM21.5178 11.1912C21.2712 10.8395 20.9604 10.6148 20.5854 10.5171C20.2104 10.4208 19.8136 10.52 19.3919 10.8162C19.3131 10.8716 19.211 10.9562 19.0855 11.0686C19.3613 11.4217 19.64 11.7996 19.9201 12.1994C20.228 12.6385 20.5417 13.066 20.8626 13.4833C20.9983 13.4235 21.1253 13.3506 21.2449 13.2674C21.6389 12.9902 21.8446 12.6633 21.8621 12.2854C21.8796 11.9075 21.7658 11.5428 21.5192 11.1912H21.5178Z" fill="black"/>
<path d="M29.901 9.37367L29.1364 9.69758C29.1 9.61295 28.6287 9.28612 27.7197 8.71855C26.7655 8.11888 26.1804 7.67824 25.9659 7.39956L25.9163 7.41999C26.1585 7.85041 26.3569 8.24727 26.5116 8.6135C26.7275 9.12271 27.0048 9.73843 27.3433 10.4577L26.5831 10.7802C26.3438 10.128 26.0607 9.4189 25.7383 8.65289C25.4188 7.90002 25.1328 7.26679 24.8789 6.75028L25.7967 6.36071C25.8433 6.47014 26.2825 6.79843 27.1142 7.34558C27.9998 7.92628 28.5426 8.34503 28.7454 8.60037L28.7906 8.57994C28.547 8.14076 28.3471 7.73806 28.1939 7.3733C27.9575 6.81448 27.7007 6.24691 27.4235 5.67204L28.1953 5.34375C28.3821 5.86755 28.6404 6.51391 28.9657 7.2843C29.294 8.05906 29.6048 8.75649 29.901 9.37367Z" fill="black"/>
<path d="M34.3599 8.0693L33.3255 8.36111C33.2846 8.21958 33.073 7.84314 32.6908 7.23471L31.1982 7.65492C31.1806 8.36548 31.1923 8.79736 31.2346 8.95057L30.2629 9.22487C30.2396 9.14024 30.2965 8.38007 30.4351 6.94144C30.5737 5.50427 30.6247 4.7193 30.5868 4.58653L31.808 4.24219C31.8431 4.36475 32.2691 5.00382 33.0847 6.16085C33.9018 7.31642 34.3264 7.95257 34.3599 8.0693ZM32.3523 6.66276C31.6709 5.65455 31.3178 5.10449 31.2915 5.01403L31.2405 5.02862C31.2638 5.11179 31.2419 5.76836 31.1763 6.99543L32.3523 6.66276Z" fill="black"/>
<path d="M37.7162 6.73816L37.7833 7.51C37.4813 7.63548 37.1778 7.72302 36.8743 7.77263C36.1171 7.89519 35.5057 7.77847 35.0418 7.42392C34.5778 7.06791 34.2962 6.59225 34.1999 5.99258C34.0992 5.37102 34.2232 4.79616 34.569 4.26798C34.9163 3.7398 35.4561 3.41589 36.1886 3.2977C36.4585 3.25393 36.7182 3.24372 36.9692 3.26706L36.9765 4.05204C36.7022 4.00972 36.4454 4.00826 36.2075 4.04766C35.7596 4.12061 35.4488 4.31613 35.2752 4.63566C35.103 4.95519 35.0491 5.3185 35.1147 5.72557C35.1818 6.14141 35.37 6.47991 35.6779 6.744C35.9872 7.00663 36.3753 7.10147 36.8437 7.02559C37.118 6.98182 37.4083 6.88553 37.7147 6.73816H37.7162Z" fill="black"/>
<path d="M39.3777 7.42899L38.4307 7.50486C38.4045 6.81035 38.3578 6.04872 38.2921 5.21997C38.2265 4.40436 38.1564 3.71277 38.082 3.14228L39.029 3.06641C39.045 3.63106 39.0859 4.32703 39.1515 5.14994C39.2186 5.99182 39.293 6.75198 39.3777 7.42899Z" fill="black"/>
<path d="M44.3183 5.12028C44.3081 5.8075 44.0907 6.37507 43.6632 6.82154C43.2357 7.26801 42.7133 7.48687 42.0932 7.47812C41.5023 7.47082 41.0106 7.25488 40.6181 6.83322C40.2256 6.41155 40.0345 5.88191 40.0433 5.23992C40.0535 4.55271 40.2723 3.98514 40.6984 3.53866C41.1259 3.09219 41.6482 2.87333 42.2698 2.88209C42.8607 2.89084 43.3524 3.10387 43.7434 3.52407C44.1359 3.94428 44.327 4.47538 44.3198 5.11882L44.3183 5.12028ZM43.3903 5.20491C43.3976 4.73655 43.2824 4.35574 43.0475 4.06101C42.8125 3.76628 42.5193 3.61745 42.1662 3.61162C41.8394 3.60724 41.5607 3.75023 41.3272 4.04058C41.0952 4.33093 40.9756 4.70007 40.9698 5.148C40.9639 5.61344 41.0777 5.99426 41.3141 6.29045C41.5505 6.58664 41.8437 6.73546 42.1924 6.7413C42.5193 6.74567 42.798 6.60268 43.0299 6.31087C43.2634 6.01906 43.383 5.65138 43.3889 5.20491H43.3903Z" fill="black"/>
<path d="M48.4278 7.97832L47.6078 7.85868C47.6209 7.76676 47.386 7.24295 46.903 6.28435C46.3982 5.27614 46.1268 4.59622 46.0874 4.24605L46.0334 4.23875C46.0189 4.73338 45.9824 5.17547 45.9255 5.56796C45.8452 6.1151 45.7635 6.78481 45.6804 7.57708L44.8633 7.45744C44.9975 6.77606 45.1245 6.02318 45.2441 5.20027C45.3623 4.3905 45.4454 3.70036 45.4951 3.12695L46.4828 3.2714C46.4653 3.38958 46.6696 3.89734 47.0971 4.79757C47.5538 5.75472 47.8018 6.39378 47.8427 6.71623L47.8923 6.72353C47.9113 6.22161 47.9492 5.77368 48.0061 5.3812C48.0936 4.78006 48.168 4.16142 48.2279 3.52528L49.0595 3.64638C48.9472 4.19206 48.8319 4.87782 48.7123 5.70511C48.5912 6.53823 48.4963 7.29548 48.4292 7.97686L48.4278 7.97832Z" fill="black"/>
<path d="M52.9237 9.17768L51.8877 8.89025C51.9271 8.74726 51.9417 8.31684 51.9301 7.59607L50.4345 7.18169C50.0508 7.77991 49.8378 8.15489 49.7955 8.30809L48.8223 8.03816C48.8456 7.95354 49.2892 7.33344 50.1515 6.17494C51.0152 5.01645 51.4632 4.37155 51.5011 4.24023L52.7238 4.57874C52.6888 4.7013 52.7238 5.46876 52.823 6.88259C52.9222 8.29495 52.9572 9.0595 52.9251 9.17623L52.9237 9.17768ZM51.9359 6.93365C51.8746 5.7168 51.8571 5.06314 51.8819 4.97268L51.8308 4.95809C51.8075 5.04272 51.45 5.59132 50.7584 6.60683L51.9359 6.93365Z" fill="black"/>
<path d="M56.1648 9.71096L55.8701 10.3821L53.2773 9.35057C53.5268 8.79613 53.8201 8.09286 54.1586 7.23932C54.4694 6.4558 54.7145 5.80506 54.8925 5.28418L55.768 5.63289C55.5564 6.09542 55.2865 6.7374 54.9596 7.55739C54.7116 8.18333 54.5 8.67649 54.3279 9.03396C54.9013 9.26157 55.5141 9.48772 56.1648 9.71096Z" fill="black"/>
<path d="M63.198 11.9359C62.8537 12.47 62.3809 12.8274 61.7813 13.004C61.1816 13.182 60.5732 13.0711 59.956 12.6728C59.6788 12.4933 59.3023 12.2336 58.8281 11.8951C59.2206 11.3421 59.6452 10.7103 60.1048 9.99686C60.5469 9.3111 60.9102 8.71872 61.1991 8.21973L61.6937 8.53926C61.774 8.59179 61.8965 8.6662 62.0599 8.76395C62.2234 8.86171 62.3299 8.92591 62.3795 8.95801C63.0579 9.39719 63.4402 9.88451 63.5277 10.42C63.6153 10.9555 63.5059 11.4618 63.1995 11.9359H63.198ZM62.3503 11.5595C62.5837 11.1977 62.6742 10.8241 62.6231 10.4419C62.5721 10.0581 62.3313 9.72693 61.898 9.44679C61.8177 9.39427 61.701 9.33153 61.5493 9.25712C61.3246 9.64668 61.0809 10.045 60.8168 10.455C60.5265 10.9059 60.2478 11.3567 59.9822 11.8119C60.0888 11.9155 60.2026 12.0074 60.3251 12.0862C60.7307 12.3474 61.1101 12.416 61.4676 12.2905C61.825 12.165 62.1198 11.9214 62.3517 11.5595H62.3503Z" fill="black"/>
<path d="M65.1021 15.5499L64.6133 16.1044L62.4043 14.2908C62.8551 13.7859 63.3498 13.2052 63.8882 12.5487C64.4047 11.9169 64.8351 11.3697 65.1765 10.9072L67.2848 12.6377L66.7902 13.1834C66.2927 12.7296 65.8345 12.3283 65.4114 11.9826C65.2319 12.2379 65.0073 12.5297 64.7402 12.8565C65.1006 13.1542 65.496 13.462 65.9235 13.7801L65.4785 14.3229C65.089 13.9727 64.7096 13.6473 64.3405 13.3439C64.053 13.6955 63.7904 14.0296 63.5511 14.3477C64.0253 14.7373 64.5433 15.137 65.1036 15.5485L65.1021 15.5499Z" fill="black"/>
<path d="M69.5532 21.5349L68.8704 20.7062C68.9827 20.6128 69.241 20.2655 69.6437 19.6702L68.6559 18.4724C67.9993 18.7423 67.6098 18.9276 67.4872 19.0283L66.8438 18.2477C66.9109 18.1922 67.6302 17.9369 69.0002 17.4831C70.3703 17.0293 71.1071 16.7594 71.2136 16.6719L72.0219 17.6524C71.9242 17.7341 71.5113 18.3819 70.7847 19.5958C70.0581 20.8112 69.6481 21.4576 69.5547 21.5335L69.5532 21.5349ZM70.0289 19.1289C70.6767 18.0974 71.0356 17.5517 71.1086 17.4919L71.0736 17.451C71.0064 17.5065 70.398 17.7516 69.2512 18.1864L70.0289 19.1289Z" fill="black"/>
<path d="M72.3147 23.6313C71.5822 24.1099 70.8717 23.8224 70.1844 22.7675C69.951 22.4086 69.7774 22.0482 69.6621 21.6835L70.3785 21.4121C70.4719 21.7841 70.6061 22.1051 70.7827 22.3765C70.9782 22.6771 71.1474 22.874 71.2919 22.9674C71.4349 23.0608 71.5749 23.0623 71.7121 22.9733C71.8551 22.8799 71.9353 22.7398 71.9514 22.5516C71.9674 22.3882 71.9382 22.0978 71.8653 21.6805C71.7996 21.3012 71.7938 20.9889 71.8507 20.7482C71.9207 20.4418 72.0958 20.1996 72.373 20.0172C72.6955 19.8071 73.0252 19.7619 73.3637 19.8815C73.7022 20.0026 74.0159 20.2871 74.3092 20.7351C74.5485 21.1028 74.7192 21.4325 74.8199 21.7214L74.1283 22.0249C74.0553 21.7112 73.9226 21.4077 73.73 21.113C73.4411 20.6709 73.1799 20.5264 72.9435 20.6796C72.818 20.7613 72.7495 20.8795 72.7378 21.0342C72.729 21.1684 72.7626 21.4267 72.837 21.8075C72.9173 22.2131 72.9304 22.5458 72.8793 22.8069C72.8093 23.1556 72.6211 23.4285 72.3161 23.6284L72.3147 23.6313Z" fill="black"/>
<path d="M77.1668 26.1055C76.4854 26.4236 75.807 26.7504 75.1358 27.0874C73.8066 27.7513 72.8699 27.5383 72.3257 26.4484C72.0572 25.91 72.0017 25.43 72.1608 25.0097C72.3184 24.5895 72.7794 24.1898 73.5425 23.8089C74.2151 23.4719 74.8717 23.1334 75.5152 22.7891L75.9397 23.6397C75.2496 23.9519 74.5901 24.2656 73.9613 24.5793C73.4112 24.8536 73.0683 25.1133 72.9341 25.3555C72.7984 25.5977 72.8057 25.8662 72.9516 26.158C73.1048 26.4644 73.3164 26.6351 73.5877 26.6702C73.8591 26.7052 74.2735 26.5826 74.8294 26.3054C75.4393 26.0004 76.0842 25.6619 76.7626 25.2913L77.1683 26.1055H77.1668Z" fill="black"/>
<path d="M74.7229 32.1507L74.45 31.3672C74.5376 31.3366 74.895 30.8872 75.521 30.0161C76.1834 29.1028 76.659 28.5483 76.9508 28.3513L76.9333 28.3003C76.4883 28.5133 76.0783 28.6855 75.7048 28.8168C75.1825 28.9992 74.5521 29.2341 73.8124 29.5259L73.541 28.7453C74.2078 28.5498 74.933 28.3149 75.7179 28.042C76.4883 27.7735 77.1391 27.5299 77.6716 27.3096L77.9984 28.2521C77.8861 28.2915 77.5301 28.7073 76.9289 29.5025C76.2913 30.3488 75.839 30.8638 75.5706 31.0491L75.5881 31.0973C76.0418 30.8828 76.4562 30.7092 76.8312 30.5808C77.4031 30.3809 77.9853 30.162 78.5777 29.9227L78.8534 30.7165C78.318 30.8682 77.657 31.0827 76.8677 31.357C76.0725 31.6328 75.3575 31.8983 74.7243 32.1522L74.7229 32.1507Z" fill="black"/>
<path d="M76.3772 35.8543L75.6112 35.9637C75.4682 35.669 75.3646 35.3713 75.2975 35.0693C75.1327 34.3193 75.2144 33.7007 75.5426 33.2177C75.8709 32.7333 76.3305 32.4269 76.9229 32.2971C77.5372 32.1614 78.1179 32.2533 78.6636 32.5699C79.2093 32.8865 79.5624 33.4089 79.7214 34.1355C79.7797 34.4025 79.8046 34.6622 79.7958 34.9146L79.0123 34.9657C79.0386 34.6885 79.0254 34.4331 78.9744 34.1968C78.8766 33.7532 78.6636 33.4526 78.3353 33.298C78.007 33.1433 77.6408 33.1098 77.2395 33.1988C76.8295 33.2892 76.5012 33.4964 76.2561 33.8203C76.011 34.1442 75.938 34.5382 76.0416 35.0022C76.1015 35.2736 76.2138 35.5581 76.3772 35.8572V35.8543Z" fill="black"/>
<path d="M75.7807 37.5452L75.6523 36.6026C76.3425 36.537 77.0997 36.448 77.9226 36.3356C78.7324 36.2247 79.4182 36.1153 79.9828 36.0088L80.1112 36.9513C79.5495 36.9995 78.8579 37.0797 78.0394 37.1921C77.2048 37.3074 76.4504 37.4241 75.7807 37.5452Z" fill="black"/>
<path d="M78.3605 42.3571C77.6748 42.3863 77.0955 42.1996 76.6272 41.7969C76.1574 41.3956 75.9093 40.8835 75.8831 40.2648C75.8583 39.6739 76.0435 39.1705 76.4419 38.7547C76.8402 38.3389 77.3596 38.1171 77.9987 38.0908C78.6844 38.0617 79.2637 38.2484 79.732 38.6497C80.2019 39.0509 80.4499 39.5616 80.4762 40.1831C80.501 40.7741 80.3142 41.2774 79.9173 41.6933C79.5205 42.1091 79.0011 42.3309 78.3591 42.3586L78.3605 42.3571ZM78.2248 41.4335C78.6917 41.4146 79.0667 41.2774 79.3469 41.0265C79.627 40.7741 79.7612 40.4735 79.7452 40.1219C79.7306 39.795 79.573 39.5236 79.2695 39.3077C78.9675 39.0918 78.5925 38.994 78.1446 39.013C77.6792 39.0319 77.3056 39.1691 77.024 39.4215C76.7424 39.6739 76.6082 39.976 76.6242 40.3247C76.6374 40.6515 76.7964 40.9229 77.0999 41.1388C77.4034 41.3548 77.7769 41.454 78.2234 41.435L78.2248 41.4335Z" fill="black"/>
<path d="M75.7392 46.6347L75.8122 45.8074C75.9027 45.8161 76.4133 45.5521 77.3413 45.0166C78.3189 44.4563 78.9813 44.147 79.3285 44.0872L79.3329 44.0332C78.8397 44.0448 78.3962 44.0332 78.0008 43.9982C77.4507 43.9485 76.7781 43.9048 75.9844 43.8654L76.0573 43.041C76.7445 43.1359 77.5018 43.2205 78.3291 43.2949C79.1418 43.3678 79.8363 43.4131 80.4097 43.4291L80.3221 44.4242C80.204 44.414 79.7079 44.6474 78.8339 45.1245C77.9045 45.6338 77.2815 45.9168 76.9619 45.9766L76.9576 46.0262C77.458 46.016 77.9074 46.0306 78.3013 46.0642C78.9054 46.1182 79.527 46.1576 80.1646 46.1838L80.0902 47.0199C79.5401 46.9396 78.85 46.8623 78.0168 46.7879C77.1793 46.7135 76.4177 46.6609 75.7363 46.6318L75.7392 46.6347Z" fill="black"/>
<path d="M76.8971 53.3148C76.8971 53.7452 76.5484 54.0954 76.1165 54.0954C75.6846 54.0954 75.3359 53.7467 75.3359 53.3148C75.3359 52.8829 75.6861 52.5342 76.1165 52.5342C76.547 52.5342 76.8971 52.8844 76.8971 53.3148Z" fill="black"/>
<path d="M7.52408 53.3148C7.52408 53.7452 7.17537 54.0954 6.74349 54.0954C6.31161 54.0954 5.96289 53.7467 5.96289 53.3148C5.96289 52.8829 6.31161 52.5342 6.74349 52.5342C7.17537 52.5342 7.52408 52.8844 7.52408 53.3148Z" fill="black"/>
<path d="M12.1425 60.2712L11.5034 60.5966C11.1926 59.975 10.8994 59.4191 10.6222 58.9289C10.3114 59.1375 9.95828 59.3535 9.56288 59.5767C9.77444 59.9502 10.0225 60.369 10.3099 60.833L9.72045 61.1656C9.46658 60.6754 9.23605 60.2464 9.0274 59.8802C8.48901 60.1837 7.98855 60.4769 7.52457 60.7615L7.07227 59.9604C7.66027 59.6613 8.31538 59.3082 9.0347 58.9026C9.72629 58.5116 10.3099 58.1658 10.7841 57.8652L12.141 60.2712H12.1425Z" fill="black"/>
<path d="M11.005 66.0944L10.3907 65.2219C10.5089 65.1387 10.7832 64.8206 11.2165 64.2676L10.3294 63.0085C9.66849 63.2186 9.27454 63.3674 9.1476 63.4579L8.56836 62.6364C8.63839 62.5883 9.35917 62.3971 10.7292 62.0659C12.1007 61.7347 12.8405 61.5305 12.9499 61.4531L13.6765 62.4847C13.5744 62.5562 13.1279 63.1588 12.3371 64.291C11.5448 65.4247 11.1013 66.0243 11.005 66.0929V66.0944ZM11.6295 63.7686C12.3313 62.8086 12.7194 62.3023 12.7938 62.2498L12.7631 62.206C12.6931 62.2556 12.0832 62.4453 10.9291 62.7765L11.628 63.7686H11.6295Z" fill="black"/>
<path d="M14.1962 68.5441L13.5936 68.9994C13.3296 68.8111 13.0946 68.604 12.8918 68.3734C12.387 67.8015 12.1565 67.2295 12.2032 66.6561C12.2484 66.0827 12.4935 65.6012 12.9371 65.2087C13.3967 64.8017 13.9365 64.6076 14.5581 64.6251C15.1782 64.6412 15.7341 64.9257 16.2229 65.4801C16.4023 65.6829 16.5497 65.896 16.665 66.1177L16.0215 66.5306C15.9092 66.2797 15.7749 66.0637 15.6159 65.8828C15.3168 65.5443 14.99 65.3853 14.634 65.4072C14.2779 65.4276 13.9497 65.5706 13.6491 65.8376C13.3412 66.109 13.1618 66.4431 13.1092 66.8385C13.0567 67.2339 13.1866 67.6074 13.4973 67.962C13.6797 68.1677 13.9146 68.3632 14.1992 68.5441H14.1962Z" fill="black"/>
<path d="M19.8453 69.02C19.339 69.5511 18.84 70.088 18.3497 70.6337C17.378 71.7091 16.4442 71.8418 15.5454 71.0321C15.1019 70.6308 14.8743 70.2106 14.8655 69.77C14.8553 69.3293 15.1296 68.8012 15.687 68.1825C16.1787 67.6383 16.6543 67.097 17.1154 66.5557L17.8157 67.1889C17.3007 67.7171 16.8134 68.235 16.3537 68.7443C15.951 69.1893 15.7336 69.5467 15.7001 69.8167C15.6665 70.0866 15.7701 70.3288 16.0109 70.5476C16.2633 70.7753 16.5201 70.8584 16.7813 70.7957C17.0424 70.7329 17.3751 70.4747 17.7822 70.0253C18.2286 69.5307 18.6926 68.9937 19.1756 68.416L19.8467 69.0215L19.8453 69.02Z" fill="black"/>
<path d="M20.6236 73.9714L20.183 74.5345L17.9375 72.9077C18.3066 72.4452 18.7531 71.8513 19.2784 71.1262C19.7599 70.4609 20.1465 69.905 20.4383 69.457L21.197 70.0071C20.8848 70.3923 20.4763 70.9336 19.9714 71.6296C19.5862 72.1607 19.2682 72.575 19.0187 72.8712C19.5147 73.2316 20.0502 73.5993 20.6222 73.9728L20.6236 73.9714Z" fill="black"/>
<path d="M25.4453 72.726L25.0645 73.3183C24.6997 73.063 24.3481 72.8325 24.0096 72.6311C23.7951 72.9828 23.5573 73.3767 23.2976 73.8115C22.8949 74.4856 22.5243 75.1305 22.1872 75.7447L21.3848 75.2662C21.7656 74.6855 22.1581 74.0537 22.5637 73.3738C22.819 72.9463 23.0495 72.5494 23.2582 72.1832C22.9897 72.0227 22.6104 71.817 22.123 71.5675L22.5082 70.9736L25.4439 72.726H25.4453Z" fill="black"/>
<path d="M27.351 78.3049L26.3807 77.8599C26.4405 77.7286 26.5193 77.3157 26.6171 76.6197L25.2164 75.9763C24.7509 76.4899 24.4854 76.8181 24.4197 76.9582L23.5078 76.5395C23.5428 76.4621 24.071 75.9354 25.0909 74.9608C26.1108 73.9861 26.6477 73.4375 26.7046 73.3164L27.85 73.8417C27.7974 73.9555 27.7143 74.6996 27.599 76.0784C27.4837 77.4558 27.4006 78.1984 27.3524 78.3049H27.351ZM26.7236 75.9806C26.8491 74.7973 26.9293 74.1656 26.9687 74.0824L26.9205 74.0605C26.8855 74.1379 26.4522 74.6091 25.6205 75.4744L26.7236 75.9821V75.9806Z" fill="black"/>
<path d="M32.3613 77.5394C32.1731 78.1288 31.8171 78.5841 31.2904 78.9036C30.7651 79.2217 30.1538 79.2698 29.4593 79.0495C29.1456 78.9503 28.7166 78.8 28.1738 78.6001C28.4014 77.98 28.6393 77.2753 28.8902 76.4888C29.131 75.7316 29.3221 75.0809 29.4651 74.5381L30.021 74.7146C30.1115 74.7438 30.2486 74.7832 30.431 74.8343C30.6134 74.8853 30.7316 74.9189 30.787 74.9364C31.5515 75.1801 32.0476 75.5434 32.2723 76.0278C32.497 76.5122 32.5277 77.0156 32.3599 77.5408L32.3613 77.5394ZM31.4509 77.3978C31.5778 76.9981 31.5661 76.6231 31.4159 76.2744C31.2656 75.9256 30.9475 75.6732 30.4587 75.5186C30.3682 75.4894 30.2399 75.4588 30.075 75.4281C29.9641 75.8498 29.8357 76.289 29.6927 76.7427C29.5351 77.2403 29.3892 77.7363 29.255 78.2324C29.3848 78.3025 29.5176 78.3608 29.6548 78.4046C30.11 78.549 30.4923 78.5169 30.8001 78.3098C31.108 78.1011 31.3254 77.7976 31.4523 77.3993L31.4509 77.3978Z" fill="black"/>
<path d="M39.7537 78.6484C39.6924 79.2656 39.4371 79.7836 38.9891 80.2038C38.5412 80.624 37.9532 80.7991 37.228 80.7261C36.8998 80.6926 36.4504 80.6357 35.877 80.5525C35.9703 79.8989 36.0593 79.1606 36.141 78.3377C36.2198 77.5469 36.2724 76.8713 36.2986 76.3096L36.8793 76.3679C36.9742 76.3767 37.1172 76.3884 37.3054 76.4C37.4936 76.4117 37.6176 76.4205 37.6745 76.4263C38.4726 76.5051 39.0329 76.759 39.3539 77.1865C39.6749 77.6125 39.8077 78.0998 39.7537 78.647V78.6484ZM38.8345 78.698C38.8753 78.2808 38.7863 77.9175 38.5675 77.6067C38.3486 77.2974 37.9838 77.1164 37.4746 77.0654C37.3798 77.0566 37.2485 77.0522 37.0792 77.0552C37.0588 77.4914 37.0238 77.9466 36.9771 78.4208C36.926 78.9403 36.8852 79.4553 36.8574 79.9689C36.999 80.0112 37.1405 80.0404 37.2849 80.0535C37.7606 80.1002 38.1268 79.9908 38.3851 79.7238C38.6433 79.4568 38.7922 79.1139 38.8345 78.6966V78.698Z" fill="black"/>
<path d="M43.4532 80.1642L43.4387 80.885L40.6008 80.9317C40.6183 80.2722 40.6212 79.528 40.6066 78.7022C40.5935 77.9085 40.5672 77.23 40.5293 76.6697L43.2373 76.626L43.2125 77.3438C42.5443 77.3205 41.9402 77.3117 41.3974 77.3219C41.4252 77.6254 41.4412 77.9829 41.4485 78.3958C41.9125 78.3871 42.41 78.3681 42.9382 78.3345L42.9499 79.0188C42.429 79.0057 41.9329 79.0028 41.4587 79.0115C41.466 79.4551 41.4821 79.8695 41.5054 80.2547C42.1153 80.2444 42.7631 80.2153 43.4532 80.1671V80.1642Z" fill="black"/>
<path d="M48.5012 80.2607L47.5718 80.4226C47.4843 79.7515 47.3704 79.0176 47.2304 78.2195C47.0947 77.4345 46.9634 76.7692 46.8379 76.2235L47.7688 76.0615C47.8344 76.6072 47.9366 77.2784 48.0766 78.0721C48.2182 78.8833 48.3597 79.6129 48.5027 80.2607H48.5012Z" fill="black"/>
<path d="M53.1738 79.115L52.3786 79.331C52.3552 79.2449 51.9365 78.867 51.1223 78.2017C50.2688 77.4984 49.7552 76.9994 49.583 76.7017L49.532 76.7163C49.71 77.1628 49.85 77.5728 49.9522 77.9463C50.0937 78.4672 50.2805 79.0961 50.5125 79.8373L49.7202 80.0517C49.5757 79.3893 49.3977 78.6685 49.1862 77.8865C48.9775 77.1176 48.7835 76.4668 48.6055 75.9372L49.5611 75.6775C49.5918 75.7884 49.977 76.1634 50.7196 76.798C51.509 77.4736 51.9846 77.9463 52.1481 78.2192L52.1962 78.206C52.0167 77.7493 51.8767 77.335 51.776 76.9629C51.6213 76.3924 51.4477 75.8103 51.2551 75.2179L52.0591 74.999C52.1699 75.5301 52.3334 76.1882 52.5464 76.9746C52.7609 77.7669 52.971 78.4803 53.1752 79.115H53.1738Z" fill="black"/>
<path d="M57.5506 77.2797C57.1114 77.6037 56.7277 77.8327 56.398 77.967C55.6889 78.2573 55.0746 78.2865 54.5537 78.056C54.0314 77.8254 53.6593 77.4373 53.4375 76.8931C53.2026 76.3226 53.1982 75.7434 53.4229 75.1583C53.6491 74.5732 54.1131 74.1355 54.8193 73.8466C55.1505 73.7109 55.4539 73.6204 55.7326 73.5752L55.9238 74.3324C55.5663 74.3821 55.2599 74.4594 55.0016 74.5659C54.5683 74.7439 54.2969 75.008 54.1904 75.3567C54.0839 75.7054 54.1087 76.0687 54.2634 76.4481C54.4209 76.8333 54.6792 77.1207 55.0367 77.3089C55.3941 77.4986 55.7822 77.5059 56.2054 77.3323C56.3221 77.2841 56.4534 77.217 56.5978 77.1295C56.4753 76.9179 56.3702 76.7034 56.2812 76.4875C56.1922 76.2686 56.0697 76.0323 55.915 75.7784L56.789 75.4194C56.8999 75.7375 57.0195 76.0527 57.1494 76.3693C57.2428 76.5969 57.377 76.9004 57.5521 77.2797H57.5506Z" fill="black"/>
<path d="M60.7709 74.8688L61.0919 75.5137L58.5998 76.8736C58.3095 76.2812 57.9666 75.6217 57.5712 74.8951C57.1904 74.1977 56.8533 73.6097 56.5586 73.1311L58.9354 71.834L59.2462 72.4803C58.6436 72.7692 58.1052 73.0435 57.6281 73.3033C57.793 73.5586 57.9739 73.8679 58.1723 74.2298C58.5808 74.008 59.0113 73.7585 59.4636 73.4842L59.7919 74.0853C59.325 74.3158 58.8829 74.5435 58.467 74.7711C58.6786 75.1606 58.8858 75.5196 59.0857 75.8508C59.6197 75.559 60.1814 75.2321 60.7694 74.8688H60.7709Z" fill="black"/>
<path d="M64.9538 72.8949L64.2797 73.3691C64.2286 73.2961 63.7063 73.0845 62.7141 72.7358C61.6709 72.3667 61.0187 72.0719 60.7546 71.8516L60.7108 71.8823C61.0304 72.2412 61.3032 72.5797 61.525 72.8963C61.8343 73.3369 62.2253 73.8651 62.6966 74.4809L62.0254 74.9521C61.6636 74.3802 61.2492 73.7615 60.7838 73.0991C60.3256 72.4469 59.9229 71.9027 59.5742 71.465L60.384 70.8945C60.4511 70.9893 60.9414 71.2096 61.8547 71.554C62.8265 71.9202 63.4349 72.2033 63.6829 72.4032L63.7238 72.3754C63.4013 72.0078 63.1285 71.6663 62.9052 71.3497C62.5653 70.8653 62.2034 70.378 61.8197 69.8863L62.5011 69.4062C62.7871 69.8673 63.1635 70.4305 63.6319 71.0958C64.1031 71.767 64.5438 72.3667 64.9523 72.8934L64.9538 72.8949Z" fill="black"/>
<path d="M66.5981 71.4988L65.8773 72.1087C65.4629 71.5732 64.9945 70.9954 64.4722 70.3768C63.9572 69.7684 63.5092 69.2591 63.127 68.8521L63.8477 68.2422C64.1804 68.6814 64.6064 69.2081 65.1273 69.8238C65.657 70.4527 66.1487 71.0115 66.5995 71.4988H66.5981Z" fill="black"/>
<path d="M69.0294 68.2057L69.5153 68.7383L67.4901 70.727C67.048 70.2368 66.5373 69.6969 65.9581 69.106C65.4022 68.5399 64.9163 68.0671 64.502 67.6863L66.4337 65.7881L66.9094 66.325C66.4089 66.7686 65.9654 67.1786 65.5787 67.5594C65.8064 67.7607 66.0661 68.0088 66.355 68.302C66.6862 67.9767 67.032 67.6192 67.3923 67.2311L67.8724 67.7184C67.4872 68.0671 67.1239 68.4086 66.7854 68.7398C67.0962 69.0549 67.3938 69.3453 67.6769 69.6079C68.1117 69.1804 68.5611 68.712 69.0265 68.2028L69.0294 68.2057Z" fill="black"/>
<path d="M72.4688 65.248L71.84 66.0082C71.0798 65.7164 70.5866 65.5647 70.359 65.5559C70.1314 65.5471 69.9198 65.6609 69.7243 65.8973C69.6426 65.9965 69.5653 66.0928 69.4909 66.1848C69.9242 66.5422 70.3678 66.8953 70.8215 67.2426L70.2321 67.959C69.7418 67.5169 69.1772 67.0325 68.5396 66.5072C67.9268 66.0009 67.3942 65.5807 66.9434 65.2466L67.311 64.8016C67.3534 64.7505 67.4409 64.6411 67.5708 64.4718C67.7006 64.304 67.8232 64.1494 67.9384 64.0108C68.5877 63.2243 69.1772 63.0478 69.7054 63.484C70.1241 63.8298 70.2306 64.2953 70.0249 64.8818L70.0628 64.9139C70.2525 64.7797 70.5108 64.7374 70.8361 64.787C71.1615 64.8366 71.7072 64.9898 72.4703 65.248H72.4688ZM69.3493 64.2953C69.0152 64.0181 68.6665 64.0998 68.3032 64.5389C68.1704 64.6994 68.0654 64.8526 67.9866 64.9956C68.2623 65.1926 68.6111 65.464 69.0298 65.8098C69.1115 65.7179 69.1786 65.6405 69.2326 65.5749C69.682 65.0292 69.7214 64.6031 69.3493 64.2967V64.2953Z" fill="black"/>
<path d="M73.4376 63.8077L72.8978 64.5825C72.3594 64.1725 71.7582 63.7348 71.0929 63.2722C70.4392 62.817 69.8746 62.4406 69.4004 62.1459L69.9402 61.3711C70.3736 61.7096 70.9222 62.1094 71.5831 62.5704C72.2572 63.0417 72.8759 63.4532 73.4376 63.8092V63.8077Z" fill="black"/>
<path d="M76.0255 59.534L75.4915 60.4576C75.3674 60.3861 74.9618 60.2679 74.279 60.1074L73.5071 61.441C73.9755 61.9531 74.2761 62.2478 74.4103 62.3251L73.9069 63.1933C73.8325 63.151 73.3583 62.5761 72.4829 61.4701C71.6074 60.3642 71.1114 59.7776 70.9961 59.7105L71.6264 58.6191C71.7344 58.6804 72.4683 58.8336 73.8296 59.0773C75.1909 59.3209 75.9219 59.4727 76.0225 59.5311L76.0255 59.534ZM73.653 59.9425C72.4872 59.7076 71.8657 59.5661 71.7869 59.5223L71.7606 59.5675C71.8336 59.6098 72.2626 60.0855 73.0461 60.993L73.653 59.9425Z" fill="black"/>
</g>
<defs>
<clipPath id="clip0_481_103451">
<rect width="83.0933" height="83.8083" fill="white" transform="translate(0 0.0957031)"/>
</clipPath>
</defs>
</svg>
