<svg width="99" height="39" viewBox="0 0 99 39" fill="none" xmlns="http://www.w3.org/2000/svg">
<g clip-path="url(#clip0_630_6817)">
<path d="M29.1529 26.6447C30.1267 25.817 31.2466 25.3788 32.5612 25.3788C34.1193 25.3788 35.2148 25.9874 35.8721 27.2533L39.7672 25.184C38.55 22.7252 36.2373 21.2158 32.975 21.2158C30.5406 21.2158 28.3739 21.9949 26.5237 23.6016C24.6978 25.184 23.578 27.2046 23.1641 29.6635C22.7502 32.171 23.2371 34.289 24.6248 35.9931C26.0368 37.6972 28.0087 38.5493 30.5649 38.5493C33.681 38.5493 36.4564 37.1373 38.2335 34.6541L34.7522 32.3901C33.7541 33.729 32.4395 34.3863 30.8571 34.3863C29.5911 34.3863 28.6417 33.9481 28.0087 33.1204C27.3757 32.2684 27.181 31.1728 27.4001 29.8582C27.6435 28.4949 28.2278 27.4237 29.1773 26.596" fill="white"/>
<path d="M87.0691 25.5493L87.556 22.8714L87.7751 21.6055H87.6777H77.2095L74.8237 35.2872L74.2881 38.2086H74.8237H84.9754L85.6571 34.2161H79.2544L79.6926 31.7816H85.3893L86.0953 27.8864H80.3499L80.7881 25.5493H87.0691Z" fill="white"/>
<path d="M89.918 23.8945L89.139 23.5293L88.4573 27.4001L89.5529 27.814L94.4705 29.6885L89.212 31.4657L87.6296 32.0013L86.8506 36.286L88.8469 35.4826L98.3657 31.6605L98.9743 28.1548L89.918 23.8945Z" fill="white"/>
<path d="M10.1155 15.4705L10.8215 11.5997L9.70164 11.1859L4.78399 9.3113L10.0181 7.53413L11.6005 6.99855L12.3796 2.71387L10.4076 3.4929L0.864479 7.33938L0.255859 10.845L9.33647 15.1054L10.1155 15.4705Z" fill="white"/>
<path d="M18.8069 5.83032C19.7807 5.0026 20.9005 4.5644 22.2151 4.5644C23.8462 4.5644 25.0148 5.17302 25.6964 6.4146L29.5916 4.32095C28.3257 1.88647 25.8669 0.425781 22.629 0.425781C20.2432 0.425781 18.1496 1.15612 16.3724 2.64116C16.2994 2.68985 16.2263 2.73854 16.1776 2.81157C14.3518 4.39398 13.2076 6.4146 12.7937 8.87342C12.3798 11.3566 12.8911 13.4746 14.2787 15.2031C14.863 15.9091 15.569 16.469 16.348 16.8829C17.4436 17.4671 18.7582 17.7593 20.2432 17.7593C22.7507 17.7593 24.8687 17.0289 26.5972 15.5439C28.3257 14.0832 29.3969 12.0869 29.8107 9.55508L30.1029 7.87529H21.7282L21.0953 11.527H24.9418C24.114 12.9877 22.6777 13.718 20.6571 13.718C19.3181 13.718 18.32 13.2798 17.6627 12.4034C17.0054 11.527 16.7863 10.4071 17.0297 9.06818C17.2731 7.70487 17.8574 6.6337 18.8069 5.80598" fill="white"/>
<path d="M30.4189 17.3942H34.6793L37.6007 0.791016H33.3403L30.4189 17.3942Z" fill="white"/>
<path d="M62.6757 13.3042H56.9547L59.1701 0.791016H54.9341L52.0127 17.3942H61.9697L62.6757 13.3042Z" fill="white"/>
<path d="M76.382 12.9633C76.6742 11.2349 76.3333 9.94459 75.3109 9.11687C75.1404 8.9708 74.97 8.84908 74.7996 8.72735C74.0206 8.16742 73.2902 7.85094 72.0973 7.43708C70.0037 6.70674 69.3464 6.29287 69.5411 5.51384C69.6872 4.80784 70.2471 4.44267 71.2453 4.44267C72.4138 4.44267 73.2416 5.0026 73.7528 6.17115L77.3802 4.22357C76.4307 1.78909 74.3371 0.425781 71.5618 0.425781C69.955 0.425781 68.543 0.863987 67.3501 1.71605C66.1816 2.54378 65.4512 3.73667 65.1834 5.24605C64.9156 6.68239 65.1834 7.85094 65.9138 8.67866C66.6441 9.50639 67.764 10.1637 69.2247 10.6749C70.2471 11.0401 70.8314 11.2105 70.9531 11.2836C71.7809 11.6487 72.146 12.0626 72.0487 12.5982C71.9026 13.3529 71.1966 13.7424 69.882 13.7424C68.2996 13.7424 67.3014 13.0607 66.8389 11.6731L63.0654 13.6207C63.7471 16.1769 65.9868 17.7593 69.5168 17.7593C71.7565 17.7593 73.5337 17.1507 74.7509 15.9821C75.5543 15.2031 76.0899 14.2049 76.3333 12.9633" fill="white"/>
<path d="M46.9976 38.5737C49.6024 38.5737 51.8178 37.7703 53.595 36.1392C55.3965 34.5324 56.5164 32.5118 56.9302 30.1017C57.3441 27.7159 56.8085 25.6466 55.4208 23.8694C54.0088 22.0922 52.0613 21.2158 49.5538 21.2158C47.0462 21.2158 44.7578 22.0192 42.932 23.6503C41.1061 25.2571 39.9862 27.2533 39.5724 29.6391C38.6229 34.2159 41.9095 38.671 46.9976 38.5737ZM43.784 29.9069C44.0275 28.5923 44.6361 27.5211 45.6099 26.6691C46.608 25.817 47.7522 25.3788 49.0182 25.3788C50.2841 25.3788 51.3066 25.817 51.9882 26.6691C52.6699 27.4968 52.9133 28.5923 52.6699 29.9069C52.4508 31.2215 51.8178 32.2927 50.7953 33.1691C49.7729 33.9968 48.6287 34.435 47.3627 34.435C46.0968 34.435 45.0987 33.9968 44.417 33.1691C43.7597 32.3414 43.5406 31.2459 43.784 29.9069Z" fill="white"/>
<path d="M70.4902 35.9689C72.2187 34.4839 73.3142 32.5363 73.7524 30.1505C74.1663 27.789 73.7037 25.7928 72.3891 24.113C71.0745 22.4332 69.3217 21.6055 67.1306 21.6055H60.3628L57.4414 38.233H64.2093C66.6437 38.233 68.7374 37.4783 70.4659 35.9689M64.0145 25.7197H66.4246C68.7374 25.7197 70.0033 27.3508 69.6138 29.8584C69.3704 31.1486 68.8104 32.1711 67.934 32.9745C67.0576 33.7535 66.0351 34.143 64.8179 34.143H62.5295L64.0145 25.7441V25.7197Z" fill="white"/>
<path d="M51.8424 6.75542C52.1588 5.12432 51.7693 3.68798 50.7468 2.51943C49.7244 1.35088 48.3854 0.766602 46.73 0.766602H40.2299L37.2842 17.3941H41.5445L42.494 12.0382H44.2955L46.2431 17.3941H50.5277L48.2393 11.3566C50.1626 10.5045 51.4772 8.87341 51.8424 6.75542ZM47.582 6.56066C47.3873 7.68052 46.5839 8.43521 45.5371 8.41086H43.0782L43.7355 4.68611H45.9996C47.1438 4.68611 47.7281 5.4408 47.5333 6.56066" fill="white"/>
</g>
<defs>
<clipPath id="clip0_630_6817">
<rect width="98.7181" height="38.1483" fill="white" transform="translate(0.255859 0.425781)"/>
</clipPath>
</defs>
</svg>
