<svg width="274" height="270" viewBox="0 0 274 270" fill="none" xmlns="http://www.w3.org/2000/svg">
<g clip-path="url(#clip0_247_36420)">
<path fill-rule="evenodd" clip-rule="evenodd" d="M137.098 0C61.2943 0 0 61.875 0 138.431C0 199.631 39.2631 251.409 93.7376 269.747C100.557 271.125 103.055 266.766 103.055 263.109C103.055 259.903 102.831 248.906 102.831 237.431C64.6902 245.672 56.7477 220.922 56.7477 220.922C50.6295 204.891 41.5364 200.756 41.5364 200.756C29.0474 192.291 42.4345 192.291 42.4345 192.291C56.2706 193.219 63.5395 206.494 63.5395 206.494C75.8039 227.588 95.5338 221.625 103.504 217.941C104.627 208.997 108.275 202.809 112.12 199.378C81.6976 196.172 49.7034 184.247 49.7034 131.091C49.7034 115.959 55.148 103.584 63.764 93.9656C62.3888 90.5344 57.6458 76.3313 65.1392 57.2906C65.1392 57.2906 76.702 53.6344 102.831 71.4938C114.001 68.4563 125.535 66.9094 137.098 66.9094C148.661 66.9094 160.476 68.5125 171.366 71.4938C197.466 53.6063 209.057 57.2906 209.057 57.2906C216.551 76.3031 211.78 90.5344 210.432 93.9656C219.273 103.584 224.493 115.959 224.493 131.091C224.493 184.275 192.499 195.947 161.852 199.378C166.847 203.738 171.169 211.978 171.169 225.056C171.169 243.619 170.945 258.525 170.945 263.109C170.945 266.766 173.443 271.125 180.262 269.747C234.737 251.409 274 199.631 274 138.431C274.224 61.875 212.706 0 137.126 0L137.098 0Z" fill="black"/>
</g>
<defs>
<clipPath id="clip0_247_36420">
<rect width="274" height="270" fill="white"/>
</clipPath>
</defs>
</svg>
