<svg width="224" height="62" viewBox="0 0 224 62" fill="none" xmlns="http://www.w3.org/2000/svg">
<g clip-path="url(#clip0_247_36409)">
<path d="M43.142 26.6067H24.3167C23.8316 26.6067 23.4398 27.0012 23.4398 27.4896V36.7577C23.4398 37.2461 23.8316 37.6469 24.3167 37.6469H31.6615V49.1631C31.6615 49.1631 30.0134 49.7267 25.4548 49.7267C20.0753 49.7267 12.5626 47.7478 12.5626 31.1155C12.5626 14.4831 20.3863 12.2913 27.731 12.2913C34.087 12.2913 36.8296 13.4185 38.5709 13.9633C39.1182 14.1324 39.622 13.5813 39.622 13.0929L41.724 4.13794C41.724 3.90623 41.6494 3.6307 41.3882 3.44909C40.6792 2.94186 36.3632 0.505865 25.4548 0.505865C12.8922 0.499603 0 5.88509 0 31.7605C0 57.6358 14.758 61.4933 27.1962 61.4933C37.495 61.4933 43.739 57.0597 43.739 57.0597C43.994 56.9157 44.0251 56.5525 44.0251 56.3896V27.4896C44.0251 27.0012 43.6333 26.6067 43.1482 26.6067H43.142Z" fill="black"/>
<path d="M140.154 3.60017C140.154 3.10546 139.768 2.71094 139.283 2.71094H128.685C128.2 2.71094 127.809 3.11172 127.809 3.60017V24.2216H111.291V3.60017C111.291 3.10546 110.899 2.71094 110.414 2.71094H99.8164C99.3313 2.71094 98.9395 3.11172 98.9395 3.60017V59.4464C98.9395 59.9411 99.3313 60.3419 99.8164 60.3419H110.414C110.899 60.3419 111.291 59.9411 111.291 59.4464V35.5624H127.809L127.777 59.4464C127.777 59.9411 128.169 60.3419 128.654 60.3419H139.277C139.762 60.3419 140.147 59.9411 140.154 59.4464V3.60017Z" fill="black"/>
<path d="M63.1423 10.9276C63.1423 7.08261 60.0825 3.97656 56.3075 3.97656C52.5325 3.97656 49.4727 7.08261 49.4727 10.9276C49.4727 14.7726 52.5325 17.8786 56.3075 17.8786C60.0825 17.8786 63.1423 14.7663 63.1423 10.9276Z" fill="black"/>
<path d="M62.3831 47.6683V21.8931C62.3831 21.4047 61.9913 21.0039 61.5062 21.0039H50.94C50.4549 21.0039 50.0195 21.5049 50.0195 21.9996V58.934C50.0195 60.0173 50.6912 60.343 51.5619 60.343H61.0833C62.1281 60.343 62.3831 59.8295 62.3831 58.9152V47.6746V47.6683Z" fill="black"/>
<path d="M180.43 21.084H169.913C169.428 21.084 169.036 21.4848 169.036 21.9795V49.364C169.036 49.364 166.362 51.3304 162.575 51.3304C158.787 51.3304 157.773 49.5957 157.773 45.8572V21.9795C157.773 21.4848 157.382 21.084 156.897 21.084H146.225C145.746 21.084 145.348 21.4848 145.348 21.9795V47.667C145.348 58.7698 151.492 61.4876 159.95 61.4876C166.884 61.4876 172.482 57.6301 172.482 57.6301C172.482 57.6301 172.749 59.6653 172.867 59.9033C172.985 60.1413 173.303 60.3855 173.638 60.3855L180.43 60.3542C180.909 60.3542 181.307 59.9534 181.307 59.465V21.9795C181.307 21.4848 180.909 21.084 180.423 21.084H180.43Z" fill="black"/>
<path d="M209.18 19.8255C203.203 19.8255 199.142 22.512 199.142 22.512V3.60017C199.142 3.10546 198.75 2.71094 198.265 2.71094H187.637C187.152 2.71094 186.76 3.11172 186.76 3.60017V59.4464C186.76 59.9411 187.152 60.3419 187.637 60.3419H195.013C195.342 60.3419 195.597 60.1665 195.784 59.866C195.964 59.5654 196.231 57.2922 196.231 57.2922C196.231 57.2922 200.579 61.4378 208.807 61.4378C218.465 61.4378 224.006 56.5032 224.006 39.2884C224.006 22.0736 215.156 19.8255 209.18 19.8255ZM205.032 51.2867C201.381 51.174 198.912 49.5083 198.912 49.5083V31.8239C198.912 31.8239 201.35 30.3147 204.347 30.0454C208.135 29.701 211.785 30.8532 211.785 39.9522C211.785 49.5459 210.137 51.437 205.038 51.2867H205.032Z" fill="black"/>
<path d="M92.8455 20.9905H84.8975C84.8975 20.9905 84.8851 10.4199 84.8851 10.4137C84.8851 10.0129 84.6798 9.8125 84.2196 9.8125H73.3859C72.963 9.8125 72.7392 10.0004 72.7392 10.4074V21.3349C72.7392 21.3349 67.3099 22.6563 66.9429 22.7627C66.576 22.8692 66.3086 23.2073 66.3086 23.6144V30.484C66.3086 30.9787 66.7004 31.3732 67.1855 31.3732H72.7392V47.8929C72.7392 60.1668 81.2904 61.3691 87.0555 61.3691C89.6925 61.3691 92.8456 60.5175 93.368 60.3233C93.6851 60.2043 93.8655 59.8787 93.8655 59.5218V51.9696C93.8717 51.4749 93.4612 51.0803 92.9948 51.0803C92.5284 51.0803 91.3467 51.2682 90.1278 51.2682C86.2222 51.2682 84.8975 49.4396 84.8975 47.0725C84.8975 44.7054 84.8975 31.3732 84.8975 31.3732H92.8455C93.3306 31.3732 93.7224 30.9724 93.7224 30.484V21.8797C93.7224 21.385 93.3306 20.9905 92.8455 20.9905Z" fill="black"/>
</g>
<defs>
<clipPath id="clip0_247_36409">
<rect width="224" height="61" fill="white" transform="translate(0 0.5)"/>
</clipPath>
</defs>
</svg>
