<svg width="126" height="28" viewBox="0 0 126 28" fill="none" xmlns="http://www.w3.org/2000/svg">
<path d="M125.724 24.2513C125.452 24.328 125.221 24.3698 124.99 24.3698C124.173 24.3698 123.789 24.0213 123.789 23.0174V15.4399C123.789 11.4594 120.61 9.52149 116.85 9.52149C113.979 9.52149 112.435 9.87004 109.367 11.1039L108.682 15.1192L112.672 15.5445L113.238 13.5786C114.056 13.1534 114.866 13.0767 115.914 13.0767C118.744 13.0767 118.786 15.2029 118.786 16.9805V17.5591C117.892 17.4406 116.885 17.4057 115.914 17.4057C111.924 17.4057 107.774 18.4096 107.774 22.7037C107.774 26.3356 110.639 27.695 113.161 27.695C115.991 27.695 117.773 25.9941 118.779 24.2164C119.009 26.3426 120.288 27.695 122.615 27.695C123.698 27.695 124.823 27.3883 125.752 26.8794L125.724 24.2513ZM114.992 24.1398C113.483 24.1398 112.938 23.2475 112.938 22.1251C112.938 20.229 114.489 19.7271 116.27 19.7271C117.081 19.7271 117.975 19.8456 118.793 19.9571C118.674 22.8641 116.774 24.1398 114.992 24.1398ZM108.277 0.703125L100.717 27.3116H95.7911L103.351 0.703125H108.277ZM98.1248 0.703125L90.5647 27.3116H85.6457L93.2058 0.703125H98.1248ZM77.1353 9.87004H82.3687V16.13H77.1353V9.87004ZM77.1353 21.0446H82.3687V27.3116H77.1353V21.0446ZM69.5193 20.8146L73.474 21.198L72.391 27.3116H57.117L56.6139 24.6835L66.2283 13.6623H60.7643L59.9888 16.3671L56.3834 15.9767L57.0052 9.86307H72.3561L72.7473 12.4912L63.0491 23.5193H68.7087L69.5193 20.8146ZM44.4702 9.52149C38.1888 9.52149 35.0864 13.739 35.0864 18.8418C35.0864 24.4116 38.8106 27.695 44.1977 27.695C49.7805 27.695 53.8121 24.1746 53.8121 18.6048C53.8121 13.732 50.7447 9.52149 44.4702 9.52149ZM44.3514 23.8679C41.6404 23.8679 40.243 21.5465 40.243 18.5281C40.243 15.2377 41.8291 13.3486 44.3934 13.3486C46.755 13.3486 48.6556 14.931 48.6556 18.4514C48.6556 21.7766 46.9507 23.8679 44.3514 23.8679ZM30.5867 23.5193H32.9134V27.3116H25.5839V17.4894C25.5839 14.4709 24.5777 13.3137 22.6004 13.3137C20.1968 13.3137 19.2256 15.0147 19.2256 17.4545V23.5193H21.5523V27.3116H14.2297V17.4894C14.2297 14.4709 13.2236 13.3137 11.2462 13.3137C8.84261 13.3137 7.87139 15.0147 7.87139 17.4545V23.5193H11.2043V27.3116H0.548828V23.5193H2.87556V13.6553H0.548828V9.86307H7.87139V12.4912C8.91947 10.6369 10.7431 9.51452 13.1816 9.51452C15.704 9.51452 18.0238 10.7135 18.8832 13.2649C19.8544 10.9436 21.8318 9.51452 24.5847 9.51452C27.722 9.51452 30.5937 11.4106 30.5937 15.5445V23.5193H30.5867Z" fill="white"/>
</svg>
