<svg width="173" height="59" viewBox="0 0 173 59" fill="none" xmlns="http://www.w3.org/2000/svg">
<g clip-path="url(#clip0_247_36718)">
<path d="M29.418 58.4158C13.1954 58.4158 0 45.3165 0 29.2079C0 13.0993 13.1954 0 29.418 0C45.6407 0 58.836 13.0993 58.836 29.2079C58.836 45.3165 45.6407 58.4158 29.418 58.4158ZM29.418 1.34533C13.9433 1.34533 1.35337 13.8428 1.35337 29.2079C1.35337 44.5731 13.9433 57.0882 29.4358 57.0882C44.9284 57.0882 57.5183 44.5908 57.5183 29.2079C57.5183 13.8251 44.9106 1.34533 29.418 1.34533Z" fill="#0690CF"/>
<path d="M29.4189 50.3966C17.3454 50.3966 7.51562 40.8907 7.51562 29.2076C7.51562 17.5244 17.3454 8.01855 29.4189 8.01855C41.4924 8.01855 51.3221 17.5244 51.3221 29.2076C51.3221 40.8907 41.4924 50.3966 29.4189 50.3966ZM29.4189 9.5232C18.1645 9.5232 9.01146 18.3564 9.01146 29.2076C9.01146 40.0588 18.1645 48.8919 29.4189 48.8919C40.6732 48.8919 49.8263 40.0588 49.8263 29.2076C49.8263 18.3564 40.6732 9.5232 29.4189 9.5232Z" fill="#0690CF"/>
<path d="M6.17976 19.0469L6.57152 20.4807H7.97832L6.94548 21.2773L7.33725 22.5341L6.12634 21.5428L4.93323 22.6226L5.41404 21.2773L4.20312 20.4807L5.60992 20.5161L6.17976 19.0469Z" fill="#0690CF"/>
<path d="M7.47901 22.7473L6.12564 21.6498L4.98596 22.6765L4.86131 22.588L5.3243 21.2958L3.95312 20.393L5.57361 20.4284L6.21468 18.7998L6.64206 20.393H8.20912L7.05163 21.2958L7.49682 22.7296L7.47901 22.7473ZM4.45174 20.57L5.50238 21.2604L5.11061 22.3756L6.12564 21.4551L7.19409 22.3225L6.87356 21.2604L7.76393 20.5523H6.51741L6.17906 19.2955L5.66265 20.6054H4.46954L4.45174 20.57Z" fill="#0690CF"/>
<path d="M51.0726 39.3154L51.4465 40.7493H52.8533L51.8383 41.5459L52.2122 42.8027L51.0013 41.8114L49.826 42.8912L50.3068 41.5459L49.0781 40.7493L50.4849 40.7847L51.0726 39.3154Z" fill="#0690CF"/>
<path d="M52.3542 43.0159L51.0009 41.9006L49.8612 42.945L49.7365 42.8565L50.1995 41.5643L48.8105 40.6615L50.431 40.6969L51.0721 39.0684L51.4995 40.6615H53.0665L51.9091 41.5643L52.3542 42.9982V43.0159ZM49.327 40.8208L50.3776 41.5112L49.9858 42.6264L51.0009 41.7059L52.0693 42.591L51.7488 41.5289L52.6392 40.8208H51.3926L51.0543 39.564L50.5379 40.8562H49.3448L49.327 40.8208Z" fill="#0690CF"/>
<path d="M7.69366 38.9971L8.06762 40.4309H9.47441L8.45938 41.2275L8.83334 42.4843L7.62243 41.493L6.44713 42.5728L6.92794 41.2275L5.69922 40.4309L7.10601 40.4663L7.69366 38.9971Z" fill="#0690CF"/>
<path d="M8.97534 42.6974L7.62197 41.5999L6.48228 42.6266L6.35763 42.5381L6.82063 41.2635L5.43164 40.3607L7.05212 40.3961L7.6932 38.7676L8.12058 40.3607H9.68764L8.53015 41.2635L8.97534 42.6974ZM5.96587 40.5201L7.01651 41.2104L6.62474 42.3256L7.63977 41.4051L8.70822 42.2725L8.38769 41.2104L9.27806 40.5024H8.03154L7.6932 39.2455L7.17678 40.5555L5.98367 40.5201H5.96587Z" fill="#0690CF"/>
<path d="M52.7989 18.0215L53.3153 19.4553H54.5975L53.5824 20.2519L53.9564 21.5087L52.7989 20.4466L51.5702 21.5972L52.0332 20.2519L50.8223 19.4553L52.2291 19.4907L52.7989 18.0215Z" fill="#0690CF"/>
<path d="M54.116 21.7375L52.816 20.5338L51.6229 21.6313L51.4983 21.5605L51.9613 20.2683L50.5723 19.3655L52.1927 19.4009L52.816 17.79L53.3859 19.3655H54.8283L53.6708 20.2683L54.116 21.7375ZM51.0887 19.5248L52.1393 20.2152L51.7476 21.3304L52.816 20.3391L53.8132 21.2596L53.4927 20.2152L54.3831 19.5248H53.2612L52.7982 18.2326L52.2818 19.5602H51.0887V19.5248Z" fill="#0690CF"/>
<path d="M14.5121 45.8123L15.1353 46.361L12.1971 49.512L11.5382 48.9101L12.3396 45.4937L10.2383 47.7241L9.63281 47.1576L12.5532 44.0244L13.2477 44.6617L12.4642 47.9896H12.482L14.5121 45.8123Z" fill="#0690CF"/>
<path d="M30.5222 6.85132L29.5605 6.76281L31.5372 2.69141L32.5878 2.79762L33.6919 7.16995L32.7125 7.08145L32.5166 6.17865L30.9139 6.01934L30.5222 6.85132ZM31.2345 5.31127L32.3385 5.41748L31.9646 3.70041L31.2345 5.31127Z" fill="#0690CF"/>
<path d="M36.3992 7.04621L38.4471 7.70118L38.1978 8.42695L35.2773 7.50646L36.6663 3.50586L37.5211 3.78909L36.3992 7.04621Z" fill="#0690CF"/>
<path d="M43.0231 9.64807C42.3998 10.5686 41.5629 10.604 40.6369 10.0375C40.2985 9.82509 39.8533 9.43565 39.7643 8.8869C39.7109 8.55056 39.8355 8.21423 40.0492 7.84249L41.6163 5.50586L42.382 5.98381L40.8506 8.28504C40.53 8.78069 40.6725 9.17013 41.0108 9.40025C41.5272 9.73658 41.919 9.61267 42.2039 9.18783L43.771 6.85119L44.5367 7.34684L42.9875 9.64807H43.0231Z" fill="#0690CF"/>
<path d="M44.9992 13.0118L44.3047 12.4453L46.6019 9.77234L45.5868 8.97576L46.0854 8.3916L48.81 10.5689L48.3114 11.1531L47.2964 10.3388L44.9992 13.0118Z" fill="#0690CF"/>
<path d="M25.6964 5.85965C25.7498 6.08977 25.9279 6.51462 26.7292 6.40841C27.1566 6.3376 27.6018 6.17828 27.5306 5.73574C27.4771 5.41711 27.1388 5.364 26.658 5.3286L26.1772 5.29319C25.4649 5.24009 24.7526 5.18698 24.6101 4.24879C24.5389 3.77084 24.6457 2.92116 26.0525 2.70874C27.3703 2.51402 27.8689 3.3106 27.9579 3.82395L27.1032 3.94786C27.0497 3.77084 26.9073 3.3283 26.1238 3.45221C25.7854 3.50532 25.3936 3.68233 25.4649 4.07177C25.5183 4.40811 25.8032 4.42581 25.9991 4.44351L27.0854 4.54972C27.6908 4.60283 28.2785 4.76214 28.4031 5.52332C28.6168 6.79784 27.3169 7.09877 26.9429 7.15188C25.3758 7.382 24.9663 6.53232 24.8772 6.01897L25.732 5.89505L25.6964 5.85965Z" fill="#0690CF"/>
<path d="M15.8489 5.98352C16.3653 5.718 17.8078 5.25775 18.7516 7.02793C19.6954 8.7981 18.4666 9.70089 17.968 9.94872C17.4516 10.2142 16.0092 10.6745 15.0654 8.90431C14.1216 7.13414 15.3503 6.24905 15.8489 5.98352ZM17.6119 9.27605C18.0393 9.06363 18.5201 8.47947 17.9502 7.43507C17.3982 6.39066 16.6325 6.42607 16.2051 6.65619C15.7777 6.86861 15.2969 7.45277 15.8667 8.49717C16.4188 9.55928 17.1845 9.50617 17.6119 9.27605Z" fill="#0690CF"/>
<path d="M9.58008 11.0995L11.0937 9.54172C11.8951 8.72743 12.643 9.13458 12.9101 9.3824C13.2484 9.70103 13.3731 10.1436 13.1772 10.5507C13.5333 10.4091 13.7648 10.356 14.3347 10.8871C14.7799 11.3119 14.9045 11.4181 15.0826 11.3296L15.1716 11.4004L14.4771 12.1085C14.2813 12.02 14.1032 11.8961 13.7827 11.5951C13.3553 11.2057 13.1772 11.0641 12.7142 11.542L12.0731 12.2147L13.284 13.3476L12.6786 13.9672L9.58008 11.0818V11.0995ZM12.2868 10.9756C12.6074 10.6392 12.6608 10.3737 12.3581 10.0905C12.1978 9.93115 11.8772 9.78954 11.5211 10.1613L10.7376 10.9579L11.5567 11.7367L12.2868 10.9756Z" fill="#0690CF"/>
<path d="M41.2432 48.3085L41.9733 47.9014L44.0746 51.5656L43.291 52.0082L40.2459 50.238H40.2281L41.7418 52.8579L40.9939 53.2473L38.8926 49.583L39.7295 49.1405L42.6856 50.8753L42.7034 50.8576L41.2432 48.3085Z" fill="#0690CF"/>
<path d="M42.8086 47.1401L44.3222 46.0072C45.4797 45.1398 46.4769 45.9187 46.9934 46.5383C47.5632 47.2463 48.0974 48.5032 46.9755 49.3529L45.4975 50.4681L42.8264 47.1224L42.8086 47.1401ZM45.7112 49.3706L46.4057 48.8395C46.9934 48.397 46.7262 47.6712 46.2811 47.1224C45.4975 46.1311 44.9455 46.4144 44.6428 46.6445L43.9483 47.1578L45.6934 49.3352L45.7112 49.3706Z" fill="#0690CF"/>
<path d="M50.0574 46.5204L49.4697 47.1754L46.2109 44.3962L46.7986 43.7412L50.0574 46.5204Z" fill="#0690CF"/>
<path d="M51.4462 15.1006L50.0573 13.3127L49.3272 13.8438L50.6093 15.49L50.0038 15.9326L48.7217 14.304L47.8135 14.959L49.2737 16.8177L48.6683 17.2779L46.6738 14.7112L50.1285 12.1621L52.0695 14.6404L51.4462 15.1006Z" fill="#0690CF"/>
<path d="M17.398 47.9896C17.861 48.3083 18.9651 49.3527 17.8076 50.9812C16.6501 52.6098 15.2789 51.9548 14.7981 51.6362C14.3351 51.3176 13.231 50.2732 14.3885 48.6446C15.546 47.016 16.935 47.671 17.398 47.9896ZM15.2433 51.0343C15.6351 51.2999 16.383 51.4592 17.0775 50.4856C17.772 49.512 17.3802 48.8924 16.9706 48.6092C16.5611 48.3437 15.8309 48.1843 15.1365 49.1579C14.442 50.1315 14.8337 50.7511 15.2433 51.0343Z" fill="#0690CF"/>
<path d="M22.0098 50.2911L22.8646 50.6097L19.9263 54.0616L19.125 53.7607L19.3565 49.2998L20.2469 49.6361L19.9263 52.9464V52.9641L22.0098 50.2911Z" fill="#0690CF"/>
<path d="M23.4702 55.0885L22.5977 54.8584L23.7195 50.8047L24.5921 51.0348L23.4702 55.0885Z" fill="#0690CF"/>
<path d="M33.7631 55.4064L32.9084 55.4772L32.659 51.9368L32.0892 55.5303L31.1988 55.5834L30.1482 52.1139L30.3975 55.6365L29.5427 55.7073L29.2578 51.4766L30.5756 51.3881L31.5906 54.6629H31.6084L32.1426 51.2819L33.4604 51.1934L33.7631 55.4064Z" fill="#0690CF"/>
<path d="M38.7854 52.7864C39.0703 53.8662 38.5183 54.5034 37.4677 54.769C37.0759 54.8575 36.4704 54.9106 35.9896 54.6097C35.6869 54.4149 35.5088 54.0963 35.402 53.6892L34.6719 50.9631L35.5623 50.733L36.2746 53.4059C36.417 53.9724 36.8266 54.1494 37.254 54.0432C37.8594 53.9016 38.0197 53.5475 37.895 53.0519L37.1827 50.3258L38.0731 50.0957L38.7854 52.7864Z" fill="#0690CF"/>
<path d="M10.0254 17.277L9.52681 18.0205L5.92969 15.6308L7.03375 14.0199C7.51456 13.3295 8.24466 13.2233 8.93916 13.6836C9.25969 13.896 9.97199 14.6218 9.31312 15.5777L8.72547 16.4274L10.0254 17.2947V17.277ZM8.58301 15.3121C8.95697 14.7634 8.5652 14.4979 8.40493 14.3917C8.04878 14.1615 7.78167 14.25 7.46113 14.7103L7.05156 15.2944L8.1022 16.0025L8.58301 15.3121Z" fill="#0690CF"/>
<path d="M33.7093 45.8645C34.0298 46.5903 33.2107 46.4132 32.8902 46.6611H32.623C32.6765 46.2539 33.1217 45.5813 33.7093 45.8645Z" fill="#0690CF"/>
<path d="M29.0442 32.9605V33.2437H27.9223C27.8155 32.6241 28.7771 32.5179 29.0442 32.9605Z" fill="#0690CF"/>
<path d="M30.9844 25.5609L31.5186 24.9059L32.961 24.7997L33.6021 24.6758L33.3172 25.2599L32.5336 25.5609L32.6583 25.2599L31.7501 25.2068L31.2871 25.5609H30.9844Z" fill="#0690CF"/>
<path d="M34.5097 24.7289L34.9905 24.6758L35.5248 24.9059L35.222 25.2599L34.6878 25.3839L34.4385 25.6848L34.1358 25.4547L33.6728 25.5609L33.6016 25.3307L34.0289 25.2068L33.8509 24.9767L34.0289 24.7997L34.5097 24.7289Z" fill="#0690CF"/>
<path d="M35.9892 25.2957L36.2741 25.0479L36.8083 25.1187L36.7015 25.4196L35.918 25.5966L35.9892 25.2957Z" fill="#0690CF"/>
<path d="M31.7514 25.9868L32.3568 25.916L32.2322 26.2701H31.6445L31.7514 25.9868Z" fill="#0690CF"/>
<path d="M35.8125 25.8985L36.1686 25.6152L36.3645 25.81L36.133 26.0047L35.8125 25.8985Z" fill="#0690CF"/>
<path d="M35.5078 26.4644L35.8105 26.8184L36.042 26.7122L35.864 26.1104L35.5078 26.4644Z" fill="#0690CF"/>
<path d="M36.5944 26.6941L36.7725 26.4463L36.2383 26.1631L36.5944 26.6941Z" fill="#0690CF"/>
<path d="M37.1993 26.4297L37.413 26.5182L37.324 27.3856L37.0391 26.589L37.1993 26.4297Z" fill="#0690CF"/>
<path d="M27.6555 13.0992C27.8692 12.8691 27.7089 11.8601 27.3706 11.7539C26.9788 12.3734 28.1897 12.6566 27.3706 13.0992H27.6555ZM29.5787 16.3209C29.5253 15.843 29.4006 14.8163 29.8636 14.1613L30.1308 13.8781C30.0239 13.9666 29.9349 14.0551 29.8636 14.1613L29.3116 13.6302L29.5787 13.347C29.1691 13.4709 29.0445 13.0107 28.7596 12.8337C28.3856 13.8427 30.7718 15.1349 28.4925 15.2411C28.3322 15.0818 28.1185 14.9579 28.2075 14.6924H27.9404V14.9756H28.2075C28.0473 15.0995 27.9226 15.3119 27.6733 15.2234C27.6555 15.542 27.7267 15.8784 27.3884 16.02H27.9404C28.1007 16.1793 28.3144 16.3032 28.2075 16.5687C28.5815 16.675 29.1335 16.3386 29.3294 16.8343C29.2582 16.6041 29.4541 16.4802 29.5965 16.3209H29.5787ZM32.4992 29.1901C33.0868 28.8184 33.4251 28.5882 34.2621 28.3935C34.1909 28.6591 34.3867 28.783 34.5292 28.9423C35.1347 28.2519 35.5086 28.8184 35.9716 29.1901C36.2031 29.3848 36.4346 29.5264 36.7373 29.4556C36.7373 29.3671 36.7908 29.2963 36.8442 29.1901H37.1469C37.5565 30.1814 39.1057 30.7833 39.2304 31.8808C40.192 32.341 41.5098 31.9516 42.2577 32.9429C44.1987 35.0848 39.9249 35.8637 40.6194 38.0587C40.281 39.4748 39.1948 39.705 37.8592 39.9174C37.4318 40.9972 36.5771 41.4397 35.6511 42.0593C34.2621 42.0062 34.084 43.0152 32.8909 43.4046C32.4635 44.8031 31.2882 45.1925 30.9499 46.6441C31.1636 47.0866 31.9115 46.8211 31.769 47.4406C30.8252 47.4583 29.5965 46.8919 29.5787 45.8298C29.9527 42.8382 32.143 40.5546 32.3389 37.5099C30.8609 36.4301 30.6116 34.359 30.7006 32.4118C31.6622 31.9162 31.4485 30.9603 31.7868 30.2699L31.2526 29.7212C30.7006 30.5177 30.3266 29.314 29.5787 29.7212C29.5253 29.5264 29.4185 29.3494 29.2938 29.1724C28.9911 28.783 28.5281 28.4643 28.1897 28.0926C27.1035 27.7563 25.8748 27.6855 24.8953 27.0305C23.6488 26.9243 24.3611 25.5258 23.2392 25.1541C23.079 25.3134 22.8653 25.4373 22.9543 25.7029C21.1736 25.2426 21.8859 23.2954 21.0311 22.2156C21.227 21.4544 21.2448 20.7464 21.0845 20.0737C20.9777 19.6134 20.764 19.1709 20.4613 18.7284C18.7161 16.8166 16.7751 20.1268 14.6738 18.9939C15.4396 18.9408 16.0806 18.569 16.5792 17.9318C16.419 17.6662 15.9382 17.5246 16.045 17.1352L16.3121 16.852L16.045 16.5864L16.3121 16.3209C16.1519 16.1616 15.9382 16.0377 16.045 15.7722C17.0778 14.9402 18.4846 13.8073 20.1585 13.8781C21.4407 13.4178 23.1502 14.9048 24.3077 13.3293C23.72 13.2939 23.1146 12.4442 23.7557 12.0194C24.1474 12.0725 24.5748 11.3644 24.8775 12.0194C25.2159 11.8424 25.1446 11.506 25.1446 11.1874C26.0528 10.6918 27.0322 12.2141 27.3528 10.9219H27.9048C27.8336 11.1874 28.0295 11.3113 28.1719 11.4706L28.4568 11.1874L28.724 11.4706C29.4719 10.7449 29.9349 12.2141 30.9321 11.7362C31.68 12.1964 32.1252 13.2408 32.3033 14.1613C32.0183 14.1613 31.6622 14.0905 31.4841 14.4268L32.5882 15.5066C32.9265 15.3296 32.8553 14.9933 32.8553 14.6747C34.1731 15.3473 34.9744 16.7281 35.6155 17.9141C34.1731 18.1442 32.8731 18.7638 32.0362 20.056C32.9087 22.2333 29.2226 22.1802 30.9143 24.3575L30.3622 24.9063C30.3088 24.4106 30.1308 23.9504 29.828 23.5609C28.4034 24.4637 25.8926 22.6581 26.2487 25.455C26.6227 25.7737 26.5871 26.2339 27.0679 26.5171C27.7624 26.8181 27.9938 25.9684 28.439 25.7206V25.455H29.5253C30.1129 26.4463 28.2966 27.5969 30.0773 27.8625C30.0773 28.1634 30.1664 28.5174 29.8102 28.659C29.9527 29.0308 30.1842 29.1724 30.4691 29.2078C30.665 29.2432 30.8965 29.2078 31.1102 29.2078H31.4663C31.68 29.2255 31.8759 29.2963 32.0362 29.4733C32.1964 29.3848 32.3389 29.2963 32.4635 29.2078L32.4992 29.1901Z" fill="#0690CF"/>
<path d="M52.8535 23.8978C53.0672 23.8624 53.3699 23.8447 53.7973 23.8447C54.2069 23.8447 54.4918 23.9155 54.6877 24.0571C54.8836 24.1988 55.0082 24.4466 55.0082 24.7475C55.0082 25.0484 54.9192 25.2786 54.7411 25.4379C54.5096 25.6503 54.1713 25.7388 53.7973 25.7388C53.7261 25.7388 53.6549 25.7388 53.6014 25.7388V26.6947H52.8535V23.8978ZM53.6014 25.1547C53.6014 25.1547 53.6905 25.1547 53.7795 25.1547C54.0822 25.1547 54.2603 25.013 54.2603 24.7652C54.2603 24.5528 54.1178 24.4112 53.8329 24.4112C53.7261 24.4112 53.637 24.4112 53.6014 24.4112V25.137V25.1547Z" fill="#0690CF"/>
<path d="M54.1 29.9508L53.9398 30.6057H53.1562L53.9754 27.7734H54.9904L55.8452 30.6057H55.026L54.848 29.9508H54.1179H54.1ZM54.7233 29.3843L54.5987 28.8709C54.563 28.7116 54.5096 28.4815 54.4562 28.3222C54.4206 28.4815 54.3672 28.7293 54.3315 28.8886L54.2069 29.3843H54.7411H54.7233Z" fill="#0690CF"/>
<path d="M53.4767 31.8281V32.8725H54.4026V31.8281H55.1684V34.6604H54.4026V33.5275H53.4767V34.6604H52.7109V31.8281H53.4767Z" fill="#0690CF"/>
<path d="M54.4911 37.2094C54.4911 38.1298 53.9391 38.6963 53.0665 38.6963C52.1939 38.6963 51.6953 38.0413 51.6953 37.2448C51.6953 36.4482 52.2473 35.7578 53.1021 35.7578C54.0281 35.7578 54.4911 36.4305 54.4911 37.1917M52.4966 37.2271C52.4966 37.7581 52.7281 38.0767 53.1021 38.0767C53.4761 38.0767 53.6898 37.7227 53.6898 37.2094C53.6898 36.696 53.4761 36.342 53.1021 36.342C52.7281 36.342 52.5145 36.696 52.5145 37.2094L52.4966 37.2271Z" fill="#0690CF"/>
<path d="M6.39344 26.7473C6.39344 27.6501 5.8414 28.2343 4.96883 28.2343C4.09627 28.2343 3.59766 27.5793 3.59766 26.7827C3.59766 25.9861 4.14969 25.3135 5.00445 25.3135C5.93044 25.3135 6.39344 25.9861 6.39344 26.7473ZM4.39899 26.7827C4.39899 27.3138 4.63049 27.6324 5.00445 27.6324C5.37841 27.6324 5.5921 27.2784 5.5921 26.765C5.5921 26.2517 5.3606 25.9153 5.00445 25.9153C4.6483 25.9153 4.39899 26.2517 4.39899 26.7827Z" fill="#0690CF"/>
<path d="M3.59766 29.9164C3.79354 29.881 4.09627 29.8633 4.54145 29.8633C4.95103 29.8633 5.23595 29.9341 5.43183 30.0934C5.62771 30.235 5.75237 30.4828 5.75237 30.7838C5.75237 31.0847 5.66333 31.3148 5.48525 31.4741C5.25375 31.6866 4.91541 31.7574 4.54145 31.7574C4.47022 31.7574 4.39899 31.7574 4.36338 31.7574V32.7133H3.61546V29.9164H3.59766ZM4.34557 31.1732C4.34557 31.1732 4.43461 31.1732 4.52365 31.1732C4.82637 31.1732 5.00445 31.0139 5.00445 30.7838C5.00445 30.5713 4.86199 30.4297 4.57707 30.4297C4.45242 30.4297 4.38119 30.4297 4.34557 30.4297V31.1555V31.1732Z" fill="#0690CF"/>
<path d="M4.82605 35.9172C5.00413 36.0057 5.28905 36.0942 5.55616 36.0942C5.82327 36.0942 5.94793 36.0057 5.94793 35.8641C5.94793 35.7225 5.82327 35.6517 5.50274 35.5277C5.02194 35.3684 4.7014 35.1029 4.7014 34.6781C4.7014 34.1824 5.12878 33.793 5.84108 33.793C6.17942 33.793 6.42873 33.8638 6.60681 33.9346L6.44654 34.5364C6.32188 34.4833 6.10819 34.3948 5.82327 34.3948C5.59178 34.3948 5.46712 34.4833 5.46712 34.6072C5.46712 34.7489 5.62739 34.802 5.98354 34.9436C6.49996 35.1206 6.73146 35.4038 6.73146 35.7933C6.73146 36.2889 6.33969 36.6961 5.52055 36.6961C5.1822 36.6961 4.84386 36.6075 4.68359 36.519L4.82605 35.8995V35.9172Z" fill="#0690CF"/>
<path d="M63.6445 2.9043H67.5444C70.3402 2.9043 71.8182 4.58597 71.8182 7.34744C71.8182 10.1089 70.358 11.8083 67.5444 11.8083H66.1376V17.526H63.6445V2.9043ZM67.0636 9.77258C68.6306 9.77258 69.3073 8.9583 69.3073 7.36514C69.3073 5.77198 68.6306 4.9754 67.0636 4.9754H66.1376V9.77258H67.0636Z" fill="#0690CF"/>
<path d="M73.1361 7.36396C73.8128 7.02763 74.7744 6.56738 76.3059 6.56738C79.4222 6.56738 80.1523 8.19595 80.1523 10.9043V15.6307C80.1523 16.4096 80.2235 17.1176 80.2947 17.5425H78.1044C77.9976 17.1176 77.962 16.6043 77.962 16.0732H77.9263C77.3209 16.9583 76.5552 17.7018 75.1128 17.7018C73.5635 17.7018 72.1211 16.5512 72.1211 14.5332C72.1211 11.5947 74.347 10.8689 77.3921 10.8689H77.8729V10.4795C77.8729 9.41737 77.3921 8.42607 76.0031 8.42607C74.7922 8.42607 73.7238 9.04563 73.2608 9.47047L73.1183 7.38166L73.1361 7.36396ZM77.8907 12.2497H77.677C75.6114 12.2497 74.3826 12.7099 74.3826 14.2854C74.3826 15.2767 74.9881 15.9493 75.9141 15.9493C77.3565 15.9493 77.8729 14.7987 77.8729 12.8692V12.2674L77.8907 12.2497Z" fill="#0690CF"/>
<path d="M82.5556 8.51458C82.5556 7.84191 82.5378 7.22235 82.4844 6.7267H84.7459C84.7637 7.27545 84.8172 7.84191 84.8172 8.39066H84.8706C85.2267 7.7357 85.9034 6.56738 87.5417 6.56738C89.8211 6.56738 90.4978 8.39066 90.4978 10.568V17.5248H88.0759V11.0459C88.0759 9.38196 87.6842 8.69159 86.6869 8.69159C85.4226 8.69159 84.9774 9.84221 84.9774 11.2229V17.5071H82.5556V8.47917V8.51458Z" fill="#0690CF"/>
<path d="M104.191 14.021H99.5076L98.5282 17.5437H96.0352L100.594 2.9043H103.318L107.699 17.5437H105.135L104.173 14.021H104.191ZM103.657 11.9676L101.947 5.13472H101.912L100.042 11.9676H103.675H103.657Z" fill="#0690CF"/>
<path d="M109.052 8.49688C109.052 7.718 109.016 7.13384 108.98 6.7267H111.402C111.42 7.29316 111.474 7.85961 111.474 8.42607H111.509C111.883 7.59409 112.667 6.56738 114.038 6.56738C115.73 6.56738 116.282 7.7003 116.566 8.28445C117.047 7.52328 117.777 6.56738 119.255 6.56738C121.446 6.56738 122.14 8.24905 122.14 10.8689V17.5425H119.718V10.7273C119.718 9.38196 119.327 8.7093 118.436 8.7093C117.368 8.7093 116.798 9.80681 116.798 10.9928V17.5425H114.376V10.7273C114.376 9.38196 113.984 8.7093 113.094 8.7093C112.026 8.7093 111.456 9.80681 111.456 10.9928V17.5425H109.034V8.49688H109.052Z" fill="#0690CF"/>
<path d="M131.811 17.0115C131.295 17.2417 130.244 17.7019 128.819 17.7019C125.578 17.7019 124.189 15.206 124.189 12.2852C124.189 9.04575 125.774 6.5498 128.321 6.5498C130.476 6.5498 132.327 7.91284 132.327 12.3206V12.8162H126.522C126.522 14.6572 127.199 15.7724 129.069 15.7724C130.547 15.7724 131.259 15.2945 131.704 14.9404L131.829 16.9938L131.811 17.0115ZM129.977 11.2054C129.977 9.29358 129.389 8.33768 128.303 8.33768C127.039 8.33768 126.504 9.78923 126.504 11.2054H129.977Z" fill="#0690CF"/>
<path d="M134.446 8.51568C134.446 7.84301 134.428 7.22345 134.375 6.7278H136.548C136.565 7.38276 136.619 8.05543 136.619 8.6927H136.654C136.939 7.86071 137.705 6.55078 139.201 6.55078C139.361 6.55078 139.468 6.58618 139.61 6.62159V9.04673C139.397 8.97592 139.183 8.94052 138.934 8.94052C137.936 8.94052 136.85 9.59549 136.85 11.5958V17.5082H134.428V8.48027L134.446 8.51568Z" fill="#0690CF"/>
<path d="M141.623 2.1416H144.116V4.70836H141.623V2.1416ZM141.659 6.74406H144.08V17.5421H141.659V6.72636V6.74406Z" fill="#0690CF"/>
<path d="M153.482 17.2593C152.912 17.4894 152.075 17.7018 151.114 17.7018C147.801 17.7018 146.395 15.2058 146.395 12.1434C146.395 9.08103 147.873 6.56738 151.238 6.56738C152.004 6.56738 152.894 6.81521 153.339 7.00993L153.197 9.06333C152.77 8.83321 152.164 8.53228 151.505 8.53228C149.671 8.53228 148.87 9.85991 148.87 12.1611C148.87 14.1791 149.76 15.7369 151.612 15.7369C152.2 15.7369 153.001 15.436 153.322 15.2058L153.464 17.2593H153.482Z" fill="#0690CF"/>
<path d="M155.638 7.36396C156.315 7.02763 157.276 6.56738 158.808 6.56738C161.924 6.56738 162.636 8.19595 162.636 10.9043V15.6307C162.636 16.4096 162.707 17.1176 162.779 17.5425H160.606C160.499 17.1176 160.464 16.6043 160.464 16.0732H160.428C159.823 16.9583 159.057 17.7018 157.632 17.7018C156.065 17.7018 154.641 16.5512 154.641 14.5332C154.641 11.5947 156.867 10.8689 159.912 10.8689H160.392V10.4795C160.392 9.41737 159.912 8.42607 158.523 8.42607C157.312 8.42607 156.243 9.04563 155.78 9.47047L155.638 7.38166V7.36396ZM160.392 12.2497H160.179C158.113 12.2497 156.884 12.7099 156.884 14.2854C156.884 15.2767 157.49 15.9493 158.416 15.9493C159.858 15.9493 160.375 14.7987 160.375 12.8692V12.2674L160.392 12.2497Z" fill="#0690CF"/>
<path d="M165.075 8.51458C165.075 7.84191 165.057 7.22235 165.004 6.7267H167.265C167.283 7.27545 167.337 7.84191 167.337 8.39066H167.39H167.372C167.728 7.7357 168.405 6.56738 170.043 6.56738C172.323 6.56738 172.999 8.39066 172.999 10.568V17.5248H170.578V11.0459C170.578 9.38196 170.186 8.69159 169.189 8.69159C167.924 8.69159 167.479 9.84221 167.479 11.2229V17.5071H165.057V8.47917L165.075 8.51458Z" fill="#0690CF"/>
<path d="M63.752 21.2949H66.245V27.2427H70.2873V21.2949H72.7804V35.9343H70.2873V29.4731H66.245V35.9343H63.752V21.2949Z" fill="#0690CF"/>
<path d="M82.8404 35.4032C82.3418 35.6333 81.2733 36.0935 79.8487 36.0935C76.6077 36.0935 75.2188 33.5976 75.2188 30.6768C75.2188 27.4551 76.8036 24.9414 79.3501 24.9414C81.5048 24.9414 83.3568 26.3044 83.3568 30.7122V31.2078H77.5515C77.5515 33.0488 78.2282 34.164 80.098 34.164C81.576 34.164 82.2883 33.6861 82.7335 33.332L82.8582 35.3855L82.8404 35.4032ZM81.0062 29.597C81.0062 27.6852 80.4185 26.7293 79.3323 26.7293C78.0679 26.7293 77.5337 28.1808 77.5337 29.597H81.0062Z" fill="#0690CF"/>
<path d="M85.8861 25.7565C86.5628 25.4202 87.5244 24.96 89.0559 24.96C92.1722 24.96 92.8845 26.5885 92.8845 29.2969V34.0233C92.8845 34.8021 92.9557 35.5102 93.0269 35.9351H90.8544C90.7298 35.5102 90.712 34.9969 90.712 34.4658H90.6763C90.0709 35.3509 89.3052 36.0944 87.8628 36.0944C86.2957 36.0944 84.8711 34.9438 84.8711 32.9258C84.8711 29.9873 87.097 29.2615 90.1421 29.2615H90.6229V28.8721C90.6229 27.8099 90.1421 26.8186 88.7531 26.8186C87.5422 26.8186 86.4738 27.4382 86.0108 27.8631L85.8683 25.7742L85.8861 25.7565ZM90.6407 30.6422H90.427C88.3614 30.6422 87.1326 31.1025 87.1326 32.6779C87.1326 33.6692 87.7381 34.3419 88.6641 34.3419C90.1065 34.3419 90.6229 33.1913 90.6229 31.2618V30.6599L90.6407 30.6422Z" fill="#0690CF"/>
<path d="M97.9765 20.1982H95.5547V35.9351H97.9765V20.1982Z" fill="#0690CF"/>
<path d="M101.466 22.906L103.888 22.1094V25.1364H105.9V27.0482H103.888V32.6419C103.888 33.7925 104.28 34.1289 104.974 34.1289C105.401 34.1289 105.722 34.005 105.882 33.8988V35.7397C105.508 35.9345 104.992 36.0938 104.262 36.0938C102.463 36.0938 101.466 35.2087 101.466 32.9429V27.0305H99.8633V25.1187H101.466V22.8883V22.906Z" fill="#0690CF"/>
<path d="M107.612 20.1985H110.033V26.518H110.087C110.514 25.8454 111.084 24.9603 112.58 24.9603C114.859 24.9603 115.536 26.7835 115.536 28.9609V35.9177H113.114V29.4388C113.114 27.7748 112.722 27.0845 111.725 27.0845C110.461 27.0845 110.016 28.2351 110.016 29.6158V35.9H107.594V20.1631L107.612 20.1985Z" fill="#0690CF"/>
<path d="M68.6303 39.4746C71.4617 39.4746 74.0438 41.7404 74.0438 46.9979C74.0438 52.2553 71.4617 54.5211 68.6303 54.5211C65.7989 54.5211 63.2168 52.2553 63.2168 46.9979C63.2168 41.7404 65.7989 39.4746 68.6303 39.4746ZM68.6303 52.4854C70.2152 52.4854 71.4795 51.0339 71.4795 47.0156C71.4795 42.9973 70.2152 41.5457 68.6303 41.5457C67.0454 41.5457 65.7811 42.9973 65.7811 47.0156C65.7811 51.0339 67.0454 52.4854 68.6303 52.4854Z" fill="#0690CF"/>
<path d="M76.2861 45.3165C76.2861 44.6438 76.2683 44.0242 76.2148 43.5286H78.3874C78.4052 44.1835 78.4586 44.8562 78.4586 45.4935H78.4942C78.7791 44.6615 79.5448 43.3516 81.0407 43.3516C81.2009 43.3516 81.3078 43.387 81.4503 43.4047V45.8475C81.2366 45.7944 81.0229 45.7413 80.7736 45.7413C79.7763 45.7413 78.6901 46.3963 78.6901 48.3966V54.309H76.2683V45.2811L76.2861 45.3165Z" fill="#0690CF"/>
<path d="M83.3748 56.0082C83.9446 56.3445 85.0665 56.9287 86.3308 56.9287C88.6102 56.9287 88.9841 55.2293 88.9841 53.53V52.5033H88.9485C88.5567 53.3352 87.8801 54.3265 86.2952 54.3265C84.8884 54.3265 82.7871 53.3175 82.7871 48.9629C82.7871 45.989 83.7843 43.3691 86.402 43.3691C87.8622 43.3691 88.5389 44.2719 89.0553 45.2101H89.1266C89.1266 44.6437 89.18 44.0949 89.1978 43.5285H91.3881C91.3525 44.0949 91.3169 44.6614 91.3169 45.2278V53.1936C91.3169 56.5747 90.3553 58.9821 86.687 58.9821C85.0843 58.9821 83.8199 58.5396 83.2501 58.3094L83.3926 56.0082H83.3748ZM86.865 52.4147C88.3787 52.4147 88.9841 51.2464 88.9841 48.7859C88.9841 46.5201 88.1828 45.2986 87.0431 45.3163C85.7788 45.334 85.298 46.5909 85.298 48.8036C85.298 51.3349 86.0637 52.4147 86.8828 52.4147H86.865Z" fill="#0690CF"/>
<path d="M94.2025 44.1657C94.8792 43.8294 95.8408 43.3691 97.3723 43.3691C100.489 43.3691 101.201 44.9977 101.201 47.7061V52.4324C101.201 53.2113 101.272 53.9194 101.343 54.3442H99.153C99.0462 53.9194 99.0106 53.406 99.0106 52.875H98.9749C98.3695 53.7601 97.6038 54.5036 96.1792 54.5036C94.6121 54.5036 93.1875 53.3529 93.1875 51.3349C93.1875 48.3964 95.4134 47.6707 98.4585 47.6707H98.9393V47.2635C98.9393 46.2014 98.4585 45.2101 97.0695 45.2101C95.8586 45.2101 94.7902 45.8297 94.3272 46.2545L94.1847 44.1657H94.2025ZM98.9571 49.0514H98.7434C96.6778 49.0514 95.449 49.5117 95.449 51.0871C95.449 52.0784 96.0545 52.7511 96.9805 52.7511C98.4229 52.7511 98.9393 51.6005 98.9393 49.671V49.0691L98.9571 49.0514Z" fill="#0690CF"/>
<path d="M103.64 45.3163C103.64 44.6437 103.622 44.0241 103.568 43.5285H105.83C105.848 44.0772 105.901 44.6437 105.901 45.1924H105.955H105.937C106.293 44.5375 106.97 43.3691 108.608 43.3691C110.887 43.3691 111.564 45.1924 111.564 47.3697V54.3265H109.142V47.8477C109.142 46.1837 108.75 45.4934 107.753 45.4934C106.489 45.4934 106.044 46.644 106.044 48.0247V54.3088H103.622V45.2809L103.64 45.3163Z" fill="#0690CF"/>
<path d="M114.129 38.9434H116.622V41.5101H114.129V38.9434ZM114.165 43.5458H116.586V54.3439H114.165V43.5458Z" fill="#0690CF"/>
<path d="M118.615 52.096L122.907 45.5109H118.758V43.5283H125.329V45.7587L121.108 52.3615H125.453V54.3264H118.615V52.096Z" fill="#0690CF"/>
<path d="M127.751 44.1657C128.428 43.8294 129.389 43.3691 130.921 43.3691C134.037 43.3691 134.749 44.9977 134.749 47.7061V52.4324C134.749 53.2113 134.821 53.9194 134.892 54.3442H132.719C132.595 53.9194 132.577 53.406 132.577 52.875H132.541C131.936 53.7601 131.188 54.5036 129.746 54.5036C128.179 54.5036 126.754 53.3529 126.754 51.3349C126.754 48.3964 128.98 47.6707 132.025 47.6707H132.506V47.2635C132.506 46.2014 132.025 45.2101 130.636 45.2101C129.425 45.2101 128.357 45.8297 127.894 46.2545L127.751 44.1657ZM132.506 49.0514H132.292C130.226 49.0514 128.998 49.5117 128.998 51.0871C128.998 52.0784 129.603 52.7511 130.529 52.7511C131.972 52.7511 132.488 51.6005 132.488 49.671V49.0691L132.506 49.0514Z" fill="#0690CF"/>
<path d="M138.079 41.3161L140.501 40.5195V43.5465H142.513V45.4583H140.501V51.0521C140.501 52.2027 140.893 52.539 141.587 52.539C142.014 52.539 142.335 52.4151 142.513 52.3089V54.1499C142.139 54.3446 141.623 54.5039 140.893 54.5039C139.094 54.5039 138.097 53.6188 138.097 51.353V45.4406H136.494V43.5288H138.097V41.2984L138.079 41.3161Z" fill="#0690CF"/>
<path d="M144.42 38.9443H146.913V41.5111H144.42V38.9443ZM144.456 43.5468H146.877V54.3449H144.456V43.5468Z" fill="#0690CF"/>
<path d="M153.625 43.3691C155.673 43.3691 158.024 44.5198 158.024 48.9275C158.024 53.3352 155.673 54.5036 153.625 54.5036C151.577 54.5036 149.209 53.4591 149.209 48.9275C149.209 44.3958 151.595 43.3691 153.625 43.3691ZM153.625 52.6626C155.192 52.6626 155.531 50.7331 155.531 48.9275C155.531 47.1219 155.174 45.2101 153.625 45.2101C152.076 45.2101 151.702 47.1219 151.702 48.9275C151.702 50.7331 152.076 52.6626 153.625 52.6626Z" fill="#0690CF"/>
<path d="M160.126 45.3163C160.126 44.6437 160.108 44.0241 160.055 43.5285H162.316C162.316 44.0772 162.387 44.6437 162.387 45.1924H162.441H162.423C162.779 44.5375 163.456 43.3691 165.094 43.3691C167.374 43.3691 168.05 45.1924 168.05 47.3697V54.3265H165.628V47.8477C165.628 46.1837 165.237 45.4934 164.239 45.4934C162.975 45.4934 162.53 46.644 162.53 48.0247V54.3088H160.108V45.2809L160.126 45.3163Z" fill="#0690CF"/>
</g>
<defs>
<clipPath id="clip0_247_36718">
<rect width="173" height="59" fill="white"/>
</clipPath>
</defs>
</svg>
