<svg width="203" height="62" viewBox="0 0 203 62" fill="none" xmlns="http://www.w3.org/2000/svg">
<g clip-path="url(#clip0_247_36711)">
<path d="M86.2657 14.6998H86.2311L83.4703 29.0896H79.6749L76.0861 11.5325H79.1226L81.6068 25.0616H81.6414L84.2984 11.5325H88.2321L90.8546 25.0616H90.8891L93.477 11.5325H96.4098L92.7864 29.0896H88.9219L86.2657 14.6998ZM100.965 15.9045C103.622 15.9045 106.659 17.2816 106.659 22.5488C106.659 27.8159 103.622 29.2275 100.965 29.2275C98.3079 29.2275 95.2369 27.9538 95.2369 22.5488C95.2714 17.2816 98.3425 15.9045 100.965 15.9045ZM100.965 27.0579C102.966 27.0579 103.449 24.7512 103.449 22.5824C103.449 20.4137 103.001 18.1414 100.965 18.1414C98.9294 18.1414 98.4808 20.4137 98.4808 22.5824C98.4808 24.7512 98.964 27.0579 100.965 27.0579ZM108.211 18.2449C108.211 17.5222 108.176 16.8333 108.107 16.1106H110.937C110.972 16.9022 111.041 17.6939 111.041 18.4863H111.075C111.455 17.4878 112.421 15.939 114.388 15.939C114.56 15.939 114.733 15.9735 114.905 16.008V18.9339C114.63 18.8649 114.318 18.7959 114.043 18.7959C112.766 18.7959 111.351 19.5875 111.351 21.9977V29.0896H108.245L108.211 18.2449ZM116.251 10.2235H119.391V29.0542H116.251V10.2251V10.2235ZM132.124 10.2235V26.851C132.124 27.5736 132.159 28.3316 132.228 29.0542H129.295C129.226 28.3998 129.191 27.7116 129.191 27.0579H129.122C128.605 28.1591 127.673 29.2612 125.672 29.2612C122.462 29.2612 121.117 26.1973 121.117 22.6169C121.117 18.3829 122.807 15.9382 125.603 15.9382C127.052 15.8692 128.363 16.6953 128.949 18.0035H128.984V10.2235H132.124ZM126.5 26.9545C128.329 26.9545 128.949 24.9581 128.949 22.5479C128.949 20.1377 128.26 18.2104 126.534 18.2104C124.809 18.2104 124.188 19.8971 124.188 22.479C124.222 25.4738 124.705 26.9545 126.5 26.9545ZM141.407 11.5317H144.651V18.658H149.861V11.5317H153.07V29.0887H149.861V21.3088H144.651V29.0542H141.407V11.5317ZM164.491 28.4342C163.284 28.9853 161.938 29.2604 160.627 29.2604C156.452 29.2604 154.623 26.2655 154.623 22.7885C154.623 18.9331 156.658 15.9382 159.971 15.9382C162.767 15.9382 165.147 17.5559 165.147 22.8575V23.4775H157.659C157.659 25.6808 158.556 27.0234 160.971 27.0234C162.87 27.0234 163.801 26.4379 164.387 26.0249L164.491 28.4342ZM162.11 21.4804C162.11 19.2082 161.351 18.038 159.936 18.038C158.28 18.038 157.624 19.7592 157.624 21.4804H162.11ZM167.147 16.8678C168.424 16.2478 169.839 15.9037 171.254 15.9037C175.291 15.9037 176.223 17.8663 176.223 21.1018V26.7475C176.223 27.5047 176.292 28.2626 176.396 29.0198H173.566C173.428 28.4342 173.359 27.8496 173.393 27.264H173.359C172.565 28.3316 171.599 29.2267 169.735 29.2267C167.734 29.2267 165.871 27.8496 165.871 25.4402C165.871 21.9288 168.734 21.0337 172.703 21.0337H173.324V20.5516C173.324 19.278 172.703 18.0733 170.909 18.0733C169.632 18.1078 168.39 18.5553 167.355 19.3469L167.147 16.8678ZM173.289 22.7204H173.014C170.357 22.7204 168.77 23.2714 168.77 25.1643C168.701 26.1973 169.494 27.0924 170.529 27.1606H170.771C172.634 27.1606 173.324 25.7834 173.324 23.4767V22.7196L173.289 22.7204ZM179.087 10.2243H182.192V29.0551H179.087V10.2243ZM185.781 13.4606L188.887 12.4966V16.1114H191.475V18.3837H188.887V25.1314C188.887 26.5086 189.404 26.9216 190.302 26.9216C190.716 26.9216 191.13 26.8181 191.475 26.6465V28.8498C190.819 29.1249 190.094 29.2628 189.37 29.2628C187.058 29.2628 185.747 28.1953 185.747 25.4763V18.419H183.676V16.1467H185.747V13.4615L185.781 13.4606ZM192.476 10.2243H195.581V17.7982H195.65C196.203 17.0065 196.927 15.939 198.86 15.939C201.792 15.939 202.69 18.1078 202.69 20.7241V29.0551H199.584V21.3096C199.584 19.3133 199.066 18.4863 197.79 18.4863C196.168 18.4863 195.581 19.8635 195.581 21.5157V29.0551H192.476V10.2243ZM83.2292 33.7375C86.8871 33.7375 90.2339 36.4573 90.2339 42.7566C90.2339 49.056 86.8871 51.7758 83.2292 51.7758C79.5712 51.7758 76.2244 49.056 76.2244 42.7566C76.2244 36.4573 79.5712 33.7375 83.2292 33.7375ZM83.2292 49.3319C85.2647 49.3319 86.9217 47.6107 86.9217 42.7566C86.9217 37.9026 85.2656 36.2159 83.2292 36.2159C81.1928 36.2159 79.5366 37.9371 79.5366 42.7566C79.5366 47.5762 81.1928 49.3319 83.2292 49.3319ZM91.5452 40.7258C91.5452 40.0032 91.5106 39.3142 91.4415 38.5916H94.2713C94.3059 39.3832 94.3751 40.1748 94.3751 40.9673H94.4096C94.7891 39.9687 95.79 38.4199 97.7219 38.4199C97.8947 38.4199 98.0668 38.4544 98.2396 38.4889V41.4148C97.9639 41.3458 97.6527 41.2769 97.3424 41.2769C96.0657 41.2769 94.6508 42.0685 94.6508 44.4787V51.5705H91.5452V40.7258ZM99.7574 53.5668C100.93 54.255 102.242 54.6344 103.587 54.668C106.52 54.668 107.003 52.6372 107.003 50.6056V49.3664H106.969C106.451 50.365 105.588 51.5697 103.553 51.5697C101.758 51.5697 99.0323 50.365 99.0323 45.1324C99.0323 41.552 100.309 38.4191 103.725 38.4191C105.623 38.4191 106.486 39.4867 107.141 40.6224H107.245C107.245 39.9342 107.314 39.2797 107.348 38.6261H110.178C110.144 39.3142 110.074 39.9687 110.074 40.6569V50.1926C110.074 54.255 108.832 57.1119 104.071 57.1119C102.552 57.1119 101.034 56.8368 99.6192 56.3203L99.7574 53.5668ZM104.278 49.2638C106.245 49.2638 107.039 47.8521 107.039 44.9262C107.039 42.2065 106.003 40.7612 104.52 40.7948C102.864 40.8293 102.242 42.3436 102.242 44.9599C102.242 47.9893 103.209 49.2638 104.278 49.2638ZM112.835 39.3495C114.112 38.695 115.527 38.3854 116.942 38.3854C120.979 38.3854 121.911 40.3481 121.911 43.5836V49.2293C121.911 49.9864 121.98 50.7444 122.084 51.5015H119.254C119.116 50.916 119.046 50.3313 119.081 49.7458H119.046C118.253 50.8134 117.287 51.7085 115.423 51.7085C113.422 51.7085 111.559 50.3313 111.559 47.922C111.559 44.4105 114.422 43.5154 118.39 43.5154H119.012V43.0334C119.012 41.7597 118.39 40.555 116.597 40.555C115.32 40.5895 114.078 41.0371 113.043 41.8287L112.835 39.3495ZM118.977 45.2022H118.702C116.045 45.2022 114.458 45.7532 114.458 47.646C114.388 48.6791 115.182 49.5742 116.217 49.6423H116.459C118.322 49.6423 119.012 48.2652 119.012 45.9585L118.977 45.2022ZM124.43 40.7267C124.43 40.004 124.395 39.315 124.326 38.5924H127.259C127.293 39.2469 127.363 39.935 127.363 40.5887H127.397C127.846 39.7971 128.743 38.4199 130.848 38.4199C133.78 38.4199 134.678 40.5887 134.678 43.205V51.536H131.537V43.756C131.537 41.7597 131.02 40.9328 129.743 40.9328C128.121 40.9328 127.535 42.3099 127.535 43.9622V51.5015H124.429L124.43 40.7267ZM137.059 33.0847H140.303V36.1485H137.059V33.0847ZM137.128 38.5924H140.234V51.536H137.128V38.5924ZM142.683 48.8515L148.239 40.9681H142.855V38.5924H151.344V41.2432L145.892 49.1611H151.516V51.5368H142.648V48.8515H142.683ZM153.897 39.3503C155.174 38.6959 156.589 38.3863 158.004 38.3863C162.041 38.3863 162.973 40.3489 162.973 43.5844V49.2301C162.973 49.9873 163.042 50.7452 163.146 51.5023H160.316C160.178 50.9168 160.109 50.3322 160.143 49.7466H160.109C159.315 50.8142 158.349 51.7093 156.485 51.7093C154.484 51.7093 152.621 50.3321 152.621 47.9228C152.621 44.4114 155.484 43.5163 159.453 43.5163H160.074V43.0342C160.074 41.7605 159.453 40.5559 157.659 40.5559C156.382 40.5904 155.14 41.0379 154.105 41.8295L153.897 39.3503ZM160.04 45.203H159.764C157.107 45.203 155.52 45.754 155.52 47.6469C155.451 48.6799 156.244 49.575 157.28 49.6432H157.521C159.384 49.6432 160.074 48.266 160.074 45.9593V45.2022L160.04 45.203ZM166.355 35.9424L169.46 34.9783V38.5932H172.048V40.8654H169.46V47.5787C169.46 48.9558 169.978 49.3689 170.875 49.3689C171.289 49.3689 171.703 49.2999 172.048 49.0938V51.297C171.393 51.6066 170.668 51.7446 169.943 51.7101C167.631 51.7101 166.32 50.6426 166.32 47.9581V40.8663H164.25V38.594H166.32L166.355 35.9424ZM173.946 33.0855H177.156V36.1493H173.946V33.0855ZM174.015 38.5932H177.156V51.5368H174.05L174.015 38.5932ZM184.574 38.3863C187.231 38.3863 190.268 39.7634 190.268 45.0305C190.268 50.2977 187.231 51.7093 184.574 51.7093C181.917 51.7093 178.846 50.4701 178.846 45.0305C178.881 39.7979 181.952 38.3863 184.574 38.3863ZM184.574 49.5397C186.575 49.5397 187.059 47.233 187.059 45.0642C187.059 42.8954 186.61 40.6232 184.574 40.6232C182.539 40.6232 182.09 42.8954 182.09 45.0642C182.09 47.233 182.573 49.5397 184.574 49.5397ZM192.752 40.7267C192.752 40.004 192.718 39.315 192.648 38.5924H195.581C195.616 39.2469 195.685 39.935 195.685 40.5887H195.719C196.168 39.7971 197.065 38.4199 199.17 38.4199C202.103 38.4199 203 40.5887 203 43.205V51.536H199.894V43.756C199.894 41.7597 199.377 40.9328 198.1 40.9328C196.478 40.9328 195.892 42.3099 195.892 43.9622V51.5015H192.786L192.752 40.7267ZM57.2457 11.3608C58.5915 12.9786 60.9382 13.9082 62.3177 15.5259C61.3168 10.7753 57.6597 6.88535 53.312 5.95576C55.4513 7.53901 55.8999 9.74227 57.2457 11.3608ZM5.07208 23.4094C8.074 16.9031 12.5254 18.2802 14.4236 12.118C13.3198 13.9772 8.45429 14.7688 6.21128 19.6229C7.38423 16.7314 6.79816 12.3249 8.73003 9.91472C2.89821 14.2523 5.38322 21.2061 5.07208 23.4094ZM10.4553 38.9693C11.0076 41.4822 9.41981 45.166 11.9394 48.643C9.35149 45.7515 3.83081 44.9936 1.5878 40.5871C4.38312 51.3619 11.6982 49.1587 14.9759 51.4999C12.2843 47.6099 14.4927 45.0281 10.4553 38.9693ZM9.62724 45.7507C8.00568 39.7265 10.8693 37.6267 8.69546 31.843C8.48803 35.1138 6.28042 36.6971 7.76369 42.6524C5.17579 37.593 1.17295 35.6993 0 32.2569C0.0691423 41.7236 7.69454 43.1344 9.62724 45.7507ZM21.3246 55.8382C19.0816 52.7399 20.6003 50.9842 14.3199 45.373C15.6657 47.4383 14.2853 50.0201 18.5293 54.0136C14.3882 51.5697 8.62632 52.6019 5.86557 49.3319C10.6273 58.4201 18.9779 54.7025 21.3246 55.8382ZM51.8624 54.0136C56.1065 49.9856 54.7261 47.4038 56.0719 45.373C49.7569 50.9842 51.3101 52.7399 49.0326 55.8382C51.4138 54.7025 59.7636 58.4201 64.4916 49.3319C61.7654 52.6364 56.0028 51.5697 51.8624 54.0136ZM58.4532 48.643C60.9719 45.166 59.385 41.5167 59.9027 38.9693C55.8653 45.0281 58.0737 47.6099 55.3821 51.4999C58.6944 49.1587 65.9757 51.3619 68.7702 40.5871C66.5272 44.9936 61.0411 45.7507 58.4532 48.643ZM48.3773 56.285C46.1343 55.6995 43.8222 55.3209 41.4763 55.2519C39.337 55.2174 37.1977 55.5615 35.1959 56.3195C33.1949 55.5623 31.0547 55.2182 28.9155 55.2519C26.5687 55.3209 24.2574 55.6995 22.0144 56.285C18.219 57.2835 14.9405 58.0752 12.0768 56.6291C14.803 59.0384 18.0116 59.9335 22.6359 59.4178C26.4658 59.0048 29.5715 57.0766 33.1949 57.1111H33.3331C31.0556 58.2468 29.02 59.8309 27.3639 61.7582L29.1237 61.9988C29.1237 61.9988 30.9527 58.315 35.1967 57.3517C39.4407 58.3158 41.2697 61.9988 41.2697 61.9988L43.0295 61.7582C41.3734 59.8301 39.337 58.2468 37.0602 57.1111H37.1985C40.8219 57.0766 43.9276 59.0048 47.7575 59.4178C52.381 59.8999 55.5558 59.0392 58.3165 56.6291C55.4529 58.0752 52.1744 57.2827 48.379 56.285M8.97203 25.303C7.41962 28.2979 4.96919 28.9869 5.24576 35.1483C3.93452 29.6751 0.794313 27.6089 0.828884 24.132C-1.34498 33.2891 4.45227 34.3567 5.9701 38.2122C5.72893 32.7044 9.2486 31.6024 8.97203 25.303ZM11.1459 18.2457C10.5936 19.0029 10.2141 19.3469 8.7646 20.518C6.59074 22.2392 5.07208 24.683 4.55516 27.4028C4.69344 24.0294 2.62247 19.2098 4.00284 15.6984C-1.3458 23.2377 4.31316 27.7469 4.52059 30.5012C5.86639 25.2341 9.07574 25.1996 11.1459 18.2457ZM65.8382 27.4028C65.2859 24.683 63.8027 22.2392 61.6288 20.518C60.1793 19.3133 59.7998 19.0029 59.2475 18.2457C61.3177 25.1996 64.527 25.2341 65.9074 30.5012C66.1148 27.7814 71.7738 23.2722 66.4251 15.6984C67.8055 19.2098 65.7354 24.0294 65.8382 27.4028ZM70.3934 32.2569C69.2204 35.7338 65.2176 37.593 62.6297 42.6532C64.1138 36.6979 61.9054 35.1138 61.6979 31.8438C59.5241 37.6275 62.3877 39.7273 60.7662 45.7515C62.6988 43.1352 70.3242 41.7236 70.3934 32.2569ZM61.4222 25.303C61.1119 31.6032 64.6661 32.7044 64.4241 38.2122C65.9082 34.3912 71.7392 33.2891 69.5653 24.132C69.5999 27.6434 66.4597 29.6742 65.1485 35.1828C65.4242 28.9516 63.0092 28.2979 61.4222 25.303ZM13.1469 11.3608C14.4927 9.74309 14.9413 7.53984 17.0806 5.95576C12.6983 6.88535 9.04035 10.7408 8.04026 15.4914C9.42063 13.8737 11.8011 12.9449 13.1469 11.3608ZM56.0036 12.0482C57.9017 18.2449 62.3523 16.8678 65.3551 23.3396C65.0447 21.1708 67.5289 14.1825 61.6971 9.9139C63.6644 12.2896 63.0775 16.7298 64.2159 19.622C61.9383 14.768 57.0728 13.9763 56.0036 12.0482ZM40.8211 15.5941C39.6827 15.112 38.4744 14.8025 37.2668 14.63V15.4216C38.4052 15.5941 39.5099 15.9037 40.5453 16.3167C40.6836 16.0761 40.7865 15.8347 40.8211 15.5941ZM39.9239 7.91758L40.1651 7.71064L39.7165 7.5037L38.5089 7.46921L38.1986 7.67615L37.5089 7.60717V7.77962C37.9575 7.81411 38.4061 7.8486 38.7509 7.91758L39.3378 7.88309L39.9239 7.91758ZM37.6463 33.5987C37.6463 33.3918 37.3706 33.1857 36.9903 33.0132H36.9211C36.9211 33.1857 36.8866 33.9773 36.8866 34.3904C37.3352 34.1497 37.6463 33.9428 37.6463 33.5987ZM23.8088 18.4863C23.8434 18.3484 23.8779 18.1767 23.9125 18.0388C23.7397 18.0733 23.6022 18.1078 23.4293 18.0733L23.8088 18.4863ZM18.2536 12.9441L21.0834 15.7674C17.6675 19.3133 15.7348 24.0639 15.6657 28.9869H11.6628C11.732 22.9626 14.0779 17.2471 18.2536 12.9441ZM16.5283 34.9085L16.2871 34.874L16.0459 34.6334L14.9076 34.53L15.2525 35.012L14.217 34.8051L14.4927 34.5644L14.2515 34.3238L13.4926 34.6334L13.2169 35.1155L13.3206 36.2512L14.1832 38.3165L14.5972 38.971L14.8384 39.0399L14.1824 37.8008L14.0441 37.1808L14.1824 37.0428L14.0787 36.6987L14.4581 36.7677L15.0796 37.6628L15.2179 37.7318V37.0773L15.4591 37.2152L15.5282 37.5593L16.1497 37.7318L16.4254 37.5248L16.5291 37.5938V38.0759L16.8049 38.4199L17.1497 38.4889L17.9087 39.7281L18.3573 39.8661L18.4956 39.2805C19.289 40.5542 20.1862 41.7589 21.2563 42.8265L18.4264 45.6497C14.2203 41.4173 11.7995 35.7379 11.6628 29.7794H15.6657C15.7002 31.5006 16.0105 33.2563 16.5283 34.9085ZM20.462 29.7449C20.462 30.1234 20.4966 30.502 20.5657 30.9151L20.0825 31.0185L19.9788 31.5006L18.9433 32.8087L18.9779 34.5989L17.9424 34.943H17.3555C16.8032 33.2563 16.5275 31.5351 16.4583 29.7449H20.462ZM21.3592 41.0018L22.2564 41.5183L22.4293 41.6563L21.7732 42.3107C21.4629 42.0012 21.1863 41.6907 20.9106 41.3467L21.3592 41.0018ZM25.0171 19.6927L27.847 22.5159C27.2602 23.1704 26.7432 23.8931 26.363 24.6847H26.1555L25.7415 24.7882H25.6032L25.1892 25.1667L25.7415 25.0977L26.2247 24.9943L26.121 25.1322L25.7069 25.4073H25.4995L24.878 25.8894L24.2912 25.8204L23.4285 27.4381L23.6014 27.7477L23.1182 28.2987L23.0491 28.9869H21.2547C21.2892 25.51 22.635 22.2055 25.0155 19.6918M27.9137 31.3618L28.1211 31.2583L28.6389 31.6369L28.3977 31.8093L28.9846 32.1879L28.95 31.7749L29.2603 31.2583L29.6052 31.6024L29.9501 32.0844L29.3287 32.2569L29.6044 32.8079L30.0184 32.5673L29.9493 32.3949L30.2596 32.1879L30.4325 31.3273C30.6736 31.8438 30.9848 32.3259 31.3642 32.7389L28.5343 35.5622C27.154 34.1161 26.2913 32.2577 26.0502 30.2606L26.6371 30.8806H27.1894L27.9137 31.3618ZM23.8417 28.3669L23.9109 27.5753L24.394 27.3002L25.2567 27.4381L25.395 27.5761C25.3258 28.0236 25.2912 28.5057 25.2567 28.9532H24.2903L23.8417 28.3669ZM22.5305 31.1212L22.151 31.7067H21.495L21.4604 31.6722C21.3567 31.0522 21.2876 30.3985 21.253 29.7785H22.4605L22.1848 30.7426L22.5305 31.1212ZM25.1875 38.9012C24.9118 38.5916 24.6006 38.2812 24.3595 37.9716L24.4978 36.973L24.0837 36.0089L23.98 34.4938L23.4968 33.5642L23.6006 32.9787L23.0137 31.8775L22.5305 31.6369L22.7379 31.0514L22.5305 30.6038L22.7379 30.0873H23.2902L23.4977 29.7777H24.4294L24.5677 30.0528L24.3603 30.9824L24.2566 31.1549L24.6015 31.912L24.3603 32.05L24.1874 31.843L24.1183 31.912L24.2912 32.3595L24.5669 32.8761H24.7052L24.7743 32.394L24.636 32.2216V31.912L24.6015 31.2575L24.8089 30.0873L24.6015 29.7777H25.2575C25.3958 32.1534 26.3613 34.3904 28.0183 36.1116L25.1884 38.9003L25.1875 38.9012ZM49.2729 42.7566C52.6889 39.2452 54.6561 34.5981 54.759 29.744H58.7619C58.6236 35.6648 56.2431 41.345 52.0674 45.5799L49.2729 42.7566ZM48.1691 41.6554L48.4794 41.3114L48.1691 39.7626L47.9617 39.6936L48.1 39.4185L47.4448 39.2116L47.3065 39.7626L47.2373 40.4507L47.099 40.5887L45.8915 39.384C48.4103 36.7677 49.8598 33.3598 49.9981 29.7449H54.0009C53.8626 34.4265 51.9999 38.8675 48.7214 42.2065L48.1691 41.6554ZM44.6494 45.4075L45.0289 44.6158L44.8906 44.2718L45.4429 43.7897V43.5146L44.9598 43.205L45.3392 42.4134L45.9261 41.6563L45.3392 41.0363H44.8906L44.6149 40.5887C44.856 40.3818 45.098 40.1756 45.3046 39.9687L48.1345 42.792C47.099 43.7905 45.9261 44.6848 44.6494 45.4075ZM44.0971 37.6283L43.7177 37.2497L43.9934 36.8712L44.3729 36.114L44.2346 35.9071L44.4758 35.3561L44.4412 34.8395L44.3029 34.323L43.958 34.2195L43.8197 34.4946L43.6123 34.4257C43.9226 33.9781 44.1992 33.4616 44.4404 32.9795L44.7852 32.8416L44.9927 32.5665L45.0964 32.67L45.3376 32.3949L45.1301 32.1542L45.303 32.1198L45.6133 32.2577H46.2348L46.6142 32.0508L47.5806 31.7757L47.4077 31.4661L47.3386 31.0875L47.8563 31.3281L48.0637 31.2247L47.96 30.8116L47.3048 31.0522L46.615 30.9142L46.0627 29.813H49.1338C48.9955 33.221 47.6151 36.4573 45.2692 38.9012L44.8552 38.4881L45.0281 37.9371L44.7178 36.6979L44.0963 37.6275L44.0971 37.6283ZM42.6476 22.6186L45.4775 19.7953C46.1327 20.518 46.7196 21.3104 47.2373 22.1365L46.8924 22.24L46.927 22.86L47.9625 23.5145C48.2382 24.1 48.4457 24.6847 48.6177 25.3047L48.4448 25.5798L48.0654 25.8549L47.9617 26.4404L47.6859 26.5784L47.4785 26.8535L47.2711 26.75H46.8916L47.099 26.4404L47.2719 25.6488L47.5476 25.4763L46.7887 24.7537L46.2364 24.9606L46.0981 25.5116L45.7532 25.8902L45.3738 25.5806L45.2355 25.2365L45.4429 25.0986L45.5466 25.3055L45.7195 25.2365L45.6503 24.8924H45.4092V25.0304L45.2363 25.0649L44.3737 24.0318L44.0634 23.7912L44.1671 23.6878L44.4428 23.5843L44.1671 23.4808C44.1671 23.4808 43.8568 23.5498 43.8222 23.5498L43.995 23.7904H43.5464C43.2707 23.3429 42.9941 22.9643 42.6492 22.6202M43.0979 38.0085L42.2352 37.7679L41.9595 37.8714L41.4763 37.4928L41.0277 37.3204C41.2689 37.1479 41.4763 36.9763 41.6837 36.8038L42.4081 37.3204L42.9604 37.5955L43.2361 37.8706L43.0979 38.0085ZM41.5792 24.7545L41.9241 24.6855V24.6165L41.5792 24.3759L41.6829 23.6188L42.0969 23.1712C42.3727 23.4808 42.6147 23.7912 42.8559 24.1353L42.7176 24.5829L42.3381 24.3078L42.0278 24.3767L42.1661 24.6518H42.3044L42.1315 25.0649L42.0278 24.8924L41.5792 24.7545ZM46.3755 27.5088L47.0999 27.1302L47.8242 27.0267L47.9971 26.6826L48.4111 26.442L48.584 26.098L48.7222 25.5124C48.7914 25.7194 48.826 25.9255 48.8951 26.1324L48.5156 27.2682V27.6467L48.9988 26.8551C49.1025 27.5433 49.1717 28.2667 49.2062 28.9549H45.6866L45.6174 28.6453L46.0315 28.3357L46.1006 28.1288L46.2734 27.9908L46.7566 27.9218L46.7912 27.7149L46.3772 27.5079L46.3755 27.5088ZM47.169 18.1447L48.1354 18.1792L48.3765 18.4543L48.2728 18.8674L49.6186 19.6935L49.8944 19.659L51.5851 21.6216L52.2748 21.381C53.3786 23.7567 53.9655 26.3731 54.0001 28.9894H49.9973C49.9973 27.9563 49.859 26.9586 49.6178 25.96L49.7907 25.7194L50.0318 24.4457L49.859 23.1031L49.3758 21.5543L48.272 19.9366L48.5477 20.0745L48.686 19.9366L47.7888 19.3166L47.7197 19.5235L48.6169 20.7972L49.1346 21.8302L49.4795 22.8633L49.5832 23.5514L49.7561 24.7216L49.4112 24.7561C49.4112 24.7561 49.0317 24.0335 48.8934 23.7231L49.0663 23.448L48.7214 22.9659V22.5184L48.4802 22.2088L48.1699 22.2433C48.0662 22.0363 47.9625 21.8302 47.825 21.6578L48.0325 21.7612L48.1016 21.6923L47.9979 21.4516L48.2736 21.3137L48.1699 21.1757L47.7905 21.3137L47.9288 20.6937L47.6876 20.5557L47.4801 21.0378C47.0315 20.3833 46.5484 19.7641 46.0306 19.1786L47.169 18.1447ZM52.2757 13.0155C56.4168 17.3186 58.7281 23.0333 58.7973 28.9885H54.7944C54.7598 26.0282 54.0701 23.1014 52.7243 20.4514L52.7588 20.3825L53.0346 20.5204L53.1037 20.3135L52.3794 19.0743L51.5167 17.9041L50.5158 17.078C50.1709 16.6649 49.826 16.2519 49.4458 15.8388L52.2757 13.0155ZM35.2296 53.4995C48.6868 53.4995 59.5907 42.5867 59.5562 29.161C59.5562 16.6994 50.1018 6.26781 37.6792 4.99414L37.6447 5.1321C37.6101 5.37271 37.541 5.57965 37.5064 5.78659C42.855 6.30312 47.858 8.64352 51.6888 12.3964L48.9972 15.0817L49.1009 14.5996L48.756 14.4272L48.3074 14.4617L48.4111 14.1521L48.1008 13.0509L47.4456 12.3282L45.3409 11.227L45.168 11.4339L44.7885 11.5374C45.5129 12.5705 45.8923 13.8096 45.8923 15.0488V15.5309L46.9278 16.839L46.4447 16.9425L46.755 17.4245L45.8232 18.3541L45.4437 17.666C45.2709 18.148 45.0297 18.63 44.754 19.0431L44.9614 19.2155L42.0978 22.0388C41.9249 21.8664 41.7529 21.7292 41.58 21.5568C41.3043 21.6947 41.0277 21.7974 40.7519 21.9008L40.9931 22.0733L40.8548 22.2113L40.51 22.3837L40.3717 22.7278L40.1642 22.5208L39.5774 22.7278L39.7502 23.0029L40.1642 22.8994L40.44 22.9339L40.4746 22.7959L40.682 22.6925L40.7511 22.589L41.1306 22.4855H41.4063L41.5792 22.6235L40.4754 23.7592L40.4062 23.6557L39.2333 23.8627L38.9575 24.1378L38.7164 24.1723L39.4407 23.4841L39.165 23.3461L38.4752 24.2412L38.6826 24.2067V24.5508L38.9238 24.6543L38.9584 24.9984L38.5443 24.9294L38.1303 24.9984L37.0948 24.4818C37.0948 24.4818 37.0257 27.2361 37.0257 28.6133C39.4407 29.4394 42.0294 30.6096 42.0294 33.7079C42.064 35.0161 41.3734 36.2553 40.2696 36.9787L40.2005 37.0132L40.1313 37.0822C39.165 37.7367 37.8883 38.0808 36.7845 38.4249L36.7499 40.5936C38.5098 41.4542 40.6145 42.7279 40.4079 46.3083C40.3733 47.2034 40.0284 47.444 39.7519 47.513C38.7164 47.7536 37.6471 47.9261 36.6116 47.995V48.7867C41.1668 48.4771 45.4454 46.5834 48.7576 43.4506L51.5875 46.2738C42.5126 55.0179 28.1236 55.0179 19.0133 46.3428L21.8432 43.5195C25.1217 46.5834 29.3657 48.4426 33.8517 48.7867V47.995C29.5731 47.651 25.5703 45.8953 22.4646 42.9349L23.189 42.1777L24.2245 42.2812L24.7768 41.6957L26.2263 41.7647L26.4337 41.2481L26.3646 41.0412C28.5039 42.6589 31.0572 43.692 33.7488 43.9671V43.1755C30.7815 42.8314 28.0207 41.5922 25.8123 39.5606L28.6422 36.7373C29.332 37.3573 30.0917 37.873 30.9543 38.2861C31.0235 38.011 31.0926 37.7696 31.2301 37.5289C30.5057 37.1504 29.8151 36.7028 29.2291 36.1863L32.059 33.363C32.5076 33.7071 33.0253 34.0175 33.543 34.1892V33.3286C33.1982 33.1906 32.887 32.9845 32.6113 32.7775L33.4048 31.9859C33.129 31.9169 32.8524 31.8134 32.5767 31.7108L32.0244 32.2618C31.7486 31.9522 31.5066 31.6073 31.3346 31.2633C30.8514 31.0563 30.3683 30.8157 29.9197 30.5061C28.2635 29.5075 27.2626 27.6829 27.2972 25.721C27.2626 24.4129 27.6421 23.1047 28.4356 22.0716L25.6057 19.2484C27.6758 17.2521 30.3329 15.9776 33.1628 15.5309V14.7392C30.1263 15.1868 27.2618 16.5639 25.0542 18.6982L24.571 18.2162C24.4673 18.3886 24.3298 18.6292 24.1916 18.9388L24.5019 19.2484C21.9831 21.8992 20.5682 25.4106 20.499 29.06H16.4616C16.5308 24.3439 18.3597 19.8339 21.6374 16.3915L22.9141 17.6651H23.0869C23.3281 17.6306 23.6047 17.5617 23.8113 17.4582L22.1897 15.8404C23.0524 15.0143 23.9841 14.2572 24.985 13.6027C25.0542 13.3958 25.0888 13.1896 25.1925 13.0172C25.3653 12.7421 25.5719 12.4662 25.8139 12.1911C24.2953 13.0172 22.9157 14.0502 21.6728 15.2549L18.8429 12.4317C22.6383 8.74781 27.5729 6.4419 32.887 5.89088C32.887 5.78741 32.8524 5.71843 32.8524 5.71843C32.8179 5.51149 32.7833 5.33986 32.7487 5.09843C19.3236 6.47229 9.62724 18.4182 11.0422 31.7749C12.3534 44.1338 22.7741 53.5315 35.2313 53.497M47.2052 11.4635L46.9641 11.0849L46.4463 10.8098L46.0323 11.1194L46.55 11.3945L47.1369 11.8076L47.2052 11.4635ZM44.7902 22.7549L44.8248 23.0645L45.5145 22.8575L45.722 22.4445L45.2388 21.8245L45.48 21.4459L46.1352 21.8934L46.2389 21.79L46.1006 21.6865L45.9623 21.4114L46.2381 21.2734L45.9623 20.9294L45.3409 21.239L45.1334 21.6175L44.9951 21.9616L45.2709 22.4092L45.1672 22.6161L44.7877 22.7541L44.7902 22.7549ZM15.8739 40.656L15.9085 40.4836L15.5636 39.692L15.1496 39.5195L15.8739 40.656ZM32.1956 25.6463C32.1956 26.3345 32.6096 26.782 33.334 27.1951V26.8855L32.8854 26.4034L33.1265 25.9559L33.334 25.8869C33.2994 25.0953 33.2994 24.2347 33.2994 24.0967H33.2648C32.5751 24.5098 32.2293 24.9918 32.1948 25.6455" fill="#009CDE"/>
<path d="M36.6802 42.9632C37.9223 43.5832 39.0952 44.4783 39.5784 46.1305C39.7858 43.3762 38.2326 42.206 36.7148 41.3799L36.6802 42.9632ZM45.0308 15.0443C45.0308 12.5314 43.2018 9.77715 38.7503 8.81308C38.3017 8.7441 37.8531 8.67512 37.4045 8.64062C37.4045 9.01919 37.37 9.8798 37.37 9.8798C37.37 10.1549 37.3354 11.1535 37.3354 11.3604C37.6111 11.3949 37.9223 11.4294 38.198 11.4639C40.7859 12.0839 41.7177 13.5637 41.7177 15.0098C41.7177 17.3855 39.6821 18.2806 37.1971 18.9688L36.3691 19.1757C35.6101 19.3481 34.8166 19.5543 34.0569 19.7612C33.7812 19.8302 33.5046 19.8992 33.2288 20.0018C30.4681 20.8279 28.0876 22.1706 28.0876 25.5785C28.0876 28.9865 30.8138 30.2257 33.4708 31.0518C33.4708 30.0877 33.4363 29.0891 33.4017 28.1259C32.1942 27.5749 31.4007 26.8522 31.4007 25.6475C31.4007 24.4428 32.1596 23.7538 33.2988 23.2381C33.54 23.1347 33.8166 23.0312 34.1269 22.9285C34.7829 22.6879 35.5418 22.5155 36.3007 22.3085L37.1288 22.1016C40.8551 21.2065 45.0653 20.0363 45.0308 15.0443ZM31.6081 38.9007C31.6081 40.2779 32.609 41.0005 33.6091 41.586C33.6091 41.3454 33.5746 39.2448 33.5746 39.2103C33.6091 38.7973 33.9886 38.5222 34.3335 38.3842C34.8512 38.1436 35.4035 37.9367 35.955 37.7642C36.2653 37.6607 36.5073 37.5573 36.7831 37.4891C38.8187 36.8691 41.1654 36.112 41.1654 33.6336C41.1654 31.1552 39.1644 30.1567 36.9559 29.3995C36.9214 30.1912 36.9214 31.3277 36.8868 32.1193C37.8186 32.4634 38.4392 32.911 38.4392 33.6344C38.4392 34.5295 37.5074 35.0116 36.8177 35.2867C36.5419 35.3901 36.1279 35.5273 35.9896 35.5618C35.4373 35.7342 34.8858 35.9058 34.3335 36.1128C34.0577 36.2163 33.7812 36.3197 33.5054 36.4569C32.6082 36.9389 31.6073 37.6616 31.6073 38.9007M32.9877 9.01919C32.1596 9.29429 31.3315 9.6047 30.5381 10.0178C29.6754 10.2929 28.4333 10.3618 27.1567 11.739C26.7426 12.221 26.3632 12.7376 25.9837 13.2541C25.6043 13.8051 25.5697 14.7002 25.2939 15.1478C24.8799 15.8359 24.9836 16.249 24.9836 16.249C24.9145 16.5586 24.7425 16.869 24.535 17.1096C24.121 17.5916 23.4995 17.8322 22.8789 17.7296C23.4658 18.0047 24.2593 17.6261 24.2593 17.6261C24.121 18.0047 24.0181 18.3832 23.949 18.7618C24.605 17.2812 25.1911 16.7655 25.3985 16.593C25.6742 16.662 26.2611 16.6275 27.3312 16.0075C28.5387 15.3194 30.3677 14.1829 30.8854 13.4602C31.4377 12.7376 32.1621 12.152 33.0247 11.8425C33.0247 10.8094 32.9901 9.84613 32.9901 9.01919M27.8835 13.5982L27.262 13.7361L28.0209 12.4969L28.8836 12.5314L27.8827 13.599L27.8835 13.5982Z" fill="#009CDE"/>
<path d="M35.5057 38.7282C35.402 38.7627 35.0917 38.9007 34.8842 38.9688C34.6768 39.037 34.4356 39.1413 34.4356 39.2095C34.4356 39.2095 34.6431 49.8127 34.6431 50.0188C34.6431 52.1876 35.7469 52.2221 35.7469 50.0188C35.7469 49.8808 35.988 38.555 35.988 38.555C35.988 38.555 35.6777 38.6584 35.5049 38.7274M34.3319 35.216C34.6768 35.1125 35.0217 34.9754 35.3328 34.9064C35.574 34.8374 35.7814 34.7684 36.0226 34.6995C36.0226 34.045 36.23 24.8197 36.2638 23.1666C35.5394 23.3391 34.8143 23.5452 34.1245 23.7866C34.1591 25.0258 34.3319 34.2174 34.3319 35.216ZM35.2637 0C32.1581 0 33.4693 4.61264 33.7113 6.12774C33.7113 6.19672 33.9525 16.5585 34.0216 18.9342C34.5048 18.7963 34.9534 18.6936 35.4366 18.5901L36.3683 18.3495C36.4029 16.0428 36.6441 6.16305 36.6441 6.09407C36.8515 4.51081 38.4731 0.000821192 35.2637 0.000821192" fill="#009CDE"/>
</g>
<defs>
<clipPath id="clip0_247_36711">
<rect width="203" height="62" fill="white"/>
</clipPath>
</defs>
</svg>
