<svg width="10" height="13" viewBox="0 0 10 13" fill="none" xmlns="http://www.w3.org/2000/svg">
<path d="M4.30102 0.307299L0.304418 4.58673C0.209782 4.68304 0.134101 4.79865 0.0818341 4.92675C0.029567 5.05486 0.00177037 5.19287 8.1541e-05 5.33266C-0.00160729 5.47244 0.0228458 5.61118 0.0720005 5.74069C0.121155 5.8702 0.194018 5.98787 0.286296 6.08676C0.378574 6.18566 0.488401 6.26378 0.60931 6.31653C0.730218 6.36927 0.859761 6.39558 0.99031 6.39389C1.12086 6.39221 1.24977 6.36256 1.36946 6.30671C1.48914 6.25086 1.59718 6.16992 1.6872 6.06867L4.04607 3.53897L4.04607 11.9522C4.04607 12.2301 4.14916 12.4966 4.33267 12.6931C4.51618 12.8896 4.76507 13 5.02458 13C5.2841 13 5.53299 12.8896 5.7165 12.6931C5.9 12.4966 6.00309 12.2301 6.00309 11.9522L6.00309 3.56237L8.34739 6.06867C8.53244 6.25698 8.77888 6.3604 9.03415 6.35687C9.28941 6.35333 9.53327 6.24312 9.7137 6.04975C9.89414 5.85637 9.99685 5.59516 9.99993 5.32183C10.003 5.0485 9.9062 4.7847 9.73018 4.58673L5.73358 0.307299C5.64294 0.209664 5.5351 0.132271 5.41631 0.0796068C5.29752 0.0269439 5.17015 5.89018e-05 5.04158 0.000510949C5.0335 -0.000171881 5.02538 -0.000171881 5.0173 0.00051095C5.00921 -0.000104169 5.0011 -0.000104169 4.99302 0.000510951C4.73351 0.000604423 4.48464 0.110939 4.30102 0.307299Z" fill="black"/>
</svg>
