<svg width="17" height="18" viewBox="0 0 17 18" fill="none" xmlns="http://www.w3.org/2000/svg">
<mask id="path-1-outside-1_481_15844" maskUnits="userSpaceOnUse" x="0" y="0.5" width="17" height="17" fill="black">
<rect fill="white" y="0.5" width="17" height="17"/>
<path fill-rule="evenodd" clip-rule="evenodd" d="M1.10446 16.395C1.17446 16.4643 1.26589 16.4993 1.35732 16.4993C1.44874 16.4993 1.54017 16.4643 1.60946 16.395L8.49971 9.50471L15.39 16.395C15.46 16.4643 15.5514 16.4993 15.6428 16.4993C15.7343 16.4993 15.8257 16.4643 15.895 16.395C16.0342 16.2557 16.0342 16.0293 15.895 15.89L9.00471 8.99971L15.895 2.10946C16.0342 1.97017 16.0342 1.74375 15.895 1.60446C15.7557 1.46518 15.5293 1.46518 15.39 1.60446L8.49971 8.49472L1.60946 1.60446C1.47017 1.46518 1.24375 1.46518 1.10446 1.60446C0.965179 1.74375 0.965179 1.97017 1.10446 2.10946L7.99472 8.99971L1.10446 15.89C0.965179 16.0293 0.965179 16.2557 1.10446 16.395Z"/>
</mask>
<path fill-rule="evenodd" clip-rule="evenodd" d="M1.10446 16.395C1.17446 16.4643 1.26589 16.4993 1.35732 16.4993C1.44874 16.4993 1.54017 16.4643 1.60946 16.395L8.49971 9.50471L15.39 16.395C15.46 16.4643 15.5514 16.4993 15.6428 16.4993C15.7343 16.4993 15.8257 16.4643 15.895 16.395C16.0342 16.2557 16.0342 16.0293 15.895 15.89L9.00471 8.99971L15.895 2.10946C16.0342 1.97017 16.0342 1.74375 15.895 1.60446C15.7557 1.46518 15.5293 1.46518 15.39 1.60446L8.49971 8.49472L1.60946 1.60446C1.47017 1.46518 1.24375 1.46518 1.10446 1.60446C0.965179 1.74375 0.965179 1.97017 1.10446 2.10946L7.99472 8.99971L1.10446 15.89C0.965179 16.0293 0.965179 16.2557 1.10446 16.395Z" fill="black"/>
<path d="M1.10446 16.395L0.397346 17.1021L0.400993 17.1057L1.10446 16.395ZM1.60946 16.395L2.31656 17.1021L2.31656 17.1021L1.60946 16.395ZM8.49971 9.50471L9.20682 8.7976L8.49971 8.09049L7.79261 8.7976L8.49971 9.50471ZM15.39 16.395L14.6829 17.1021L14.6865 17.1057L15.39 16.395ZM15.895 15.89L15.1879 16.5971L15.1879 16.5971L15.895 15.89ZM9.00471 8.99971L8.2976 8.29261L7.59049 8.99971L8.2976 9.70682L9.00471 8.99971ZM15.895 2.10946L15.1879 1.40235L15.1879 1.40235L15.895 2.10946ZM15.895 1.60446L15.1879 2.31157L15.1879 2.31157L15.895 1.60446ZM15.39 1.60446L14.6829 0.897355L14.6829 0.897356L15.39 1.60446ZM8.49971 8.49472L7.79261 9.20183L8.49971 9.90893L9.20682 9.20183L8.49971 8.49472ZM1.60946 1.60446L0.902349 2.31157H0.902349L1.60946 1.60446ZM1.10446 1.60446L1.81157 2.31157L1.10446 1.60446ZM1.10446 2.10946L0.397356 2.81656L1.10446 2.10946ZM7.99472 8.99971L8.70183 9.70682L9.40893 8.99971L8.70183 8.29261L7.99472 8.99971ZM1.10446 15.89L1.81157 16.5971L1.81157 16.5971L1.10446 15.89ZM1.35732 15.4993C1.52105 15.4993 1.6849 15.5625 1.80793 15.6842L0.400993 17.1057C0.664027 17.366 1.01073 17.4993 1.35732 17.4993V15.4993ZM0.90235 15.6879C1.02823 15.562 1.19451 15.4993 1.35732 15.4993V17.4993C1.70297 17.4993 2.05211 17.3665 2.31656 17.1021L0.90235 15.6879ZM7.79261 8.7976L0.902349 15.6879L2.31656 17.1021L9.20682 10.2118L7.79261 8.7976ZM16.0971 15.6879L9.20682 8.7976L7.79261 10.2118L14.6829 17.1021L16.0971 15.6879ZM15.6428 15.4993C15.8066 15.4993 15.9704 15.5625 16.0934 15.6842L14.6865 17.1057C14.9495 17.366 15.2962 17.4993 15.6428 17.4993V15.4993ZM15.1879 15.6879C15.3137 15.562 15.48 15.4993 15.6428 15.4993V17.4993C15.9885 17.4993 16.3376 17.3665 16.6021 17.1021L15.1879 15.6879ZM15.1879 16.5971C14.9366 16.3458 14.9366 15.9391 15.1879 15.6879L16.6021 17.1021C17.1319 16.5723 17.1319 15.7127 16.6021 15.1829L15.1879 16.5971ZM8.2976 9.70682L15.1879 16.5971L16.6021 15.1829L9.71181 8.29261L8.2976 9.70682ZM15.1879 1.40235L8.2976 8.29261L9.71181 9.70682L16.6021 2.81656L15.1879 1.40235ZM15.1879 2.31157C14.9366 2.06033 14.9366 1.65359 15.1879 1.40235L16.6021 2.81656C17.1319 2.28676 17.1319 1.42716 16.6021 0.897355L15.1879 2.31157ZM16.0971 2.31157C15.8458 2.56281 15.4391 2.56281 15.1879 2.31157L16.6021 0.897357C16.0723 0.367546 15.2127 0.36755 14.6829 0.897355L16.0971 2.31157ZM9.20682 9.20183L16.0971 2.31157L14.6829 0.897356L7.79261 7.78761L9.20682 9.20183ZM0.902349 2.31157L7.79261 9.20183L9.20682 7.78761L2.31656 0.897356L0.902349 2.31157ZM1.81157 2.31157C1.56033 2.56281 1.15359 2.56281 0.902349 2.31157L2.31656 0.897356C1.78675 0.367548 0.927164 0.367548 0.397356 0.897356L1.81157 2.31157ZM1.81157 1.40235C2.06281 1.65359 2.06281 2.06033 1.81157 2.31157L0.397356 0.897356C-0.132452 1.42716 -0.132452 2.28675 0.397356 2.81656L1.81157 1.40235ZM8.70183 8.29261L1.81157 1.40235L0.397356 2.81656L7.28761 9.70682L8.70183 8.29261ZM1.81157 16.5971L8.70183 9.70682L7.28761 8.29261L0.397356 15.1829L1.81157 16.5971ZM1.81157 15.6879C2.06281 15.9391 2.06281 16.3458 1.81157 16.5971L0.397357 15.1829C-0.132454 15.7127 -0.13245 16.5723 0.397355 17.1021L1.81157 15.6879Z" fill="black" mask="url(#path-1-outside-1_481_15844)"/>
</svg>
