<svg width="15" height="18" viewBox="0 0 15 18" fill="none" xmlns="http://www.w3.org/2000/svg">
<path d="M4.27539 3C3.57714 3 3 3.57914 3 4.27734V16.7246C3 17.4228 3.57714 18 4.27539 18H13.7246C14.4229 18 15 17.4228 15 16.7246V4.27734C15 3.57914 14.4229 3.00195 13.7246 3.00195L4.27539 3ZM4.27539 3.97266H13.7246C13.9012 3.97266 14.0273 4.10074 14.0273 4.27734V16.7246C14.0273 16.9012 13.9012 17.0293 13.7246 17.0293H4.27539C4.09878 17.0293 3.97266 16.9012 3.97266 16.7246V4.27734C3.97266 4.10074 4.09878 3.97266 4.27539 3.97266Z" fill="#6C6C6C"/>
<path d="M1.27539 0C0.577139 0 0 0.579144 0 1.27734V13.7246C0 14.4228 0.577139 15 1.27539 15H2.5V14.0293H1.27539C1.09878 14.0293 0.972656 13.9012 0.972656 13.7246V1.27734C0.972656 1.10074 1.09878 0.972656 1.27539 0.972656H10.7246C10.9012 0.972656 11.0273 1.10074 11.0273 1.27734V2.5H12V1.27734C12 0.579144 11.4229 0.00195312 10.7246 0.00195312L1.27539 0Z" fill="#6C6C6C"/>
</svg>
