<svg width="20" height="21" viewBox="0 0 20 21" fill="none" xmlns="http://www.w3.org/2000/svg">
<path fill-rule="evenodd" clip-rule="evenodd" d="M10 0.5C15.523 0.5 20 4.97704 20 10.5C20 15.4911 16.3437 19.6289 11.563 20.3785V13.3904H13.8933L14.3363 10.5H14.3347L14.3348 10.4996H11.563V8.62444C11.563 7.83333 11.9511 7.06296 13.1926 7.06296H14.4533V4.60222C14.4533 4.60222 14.4528 4.60213 14.4518 4.60196V4.60181C14.4518 4.60181 13.3081 4.40625 12.2133 4.40625C9.92883 4.40625 8.4355 5.78995 8.4355 8.29662V10.4996H5.89624V13.39H5.89778V13.3904H8.4355V20.3781C8.43601 20.3782 8.43652 20.3783 8.43704 20.3783V20.3785C3.6563 19.6289 0 15.4911 0 10.5C0 4.97704 4.47704 0.5 10 0.5Z" fill="white"/>
</svg>
