<svg width="50" height="50" viewBox="0 0 99 98" fill="none" xmlns="http://www.w3.org/2000/svg">
<g clip-path="url(#clip0_481_15855)">
<path d="M98.334 49.0012C98.334 76.0644 76.3959 98.0025 49.3327 98.0025C22.2721 98 0.333984 76.0619 0.333984 49.0012C0.333984 21.9381 22.2721 0 49.3352 0C76.3984 0 98.3364 21.9381 98.3364 49.0012H98.334Z" fill="#A1A1A1"/>
<path d="M63.8497 45.1986L63.0334 51.7541C62.8953 52.8491 61.9679 53.6729 60.8679 53.6729H50.2503V81.0813C49.1306 81.1825 47.9961 81.2343 46.8493 81.2343C44.2843 81.2343 41.7809 80.9778 39.3615 80.4894V53.6729H31.1954C30.4456 53.6729 29.834 53.0588 29.834 52.3066V44.1035C29.834 43.3513 30.4456 42.7372 31.1954 42.7372H39.3615V30.4351C39.3615 22.8856 45.4558 16.7666 52.9756 16.7666H62.5031C63.2529 16.7666 63.8645 17.3807 63.8645 18.133V26.336C63.8645 27.0882 63.2529 27.7024 62.5031 27.7024H55.696C52.6896 27.7024 50.2528 30.149 50.2528 33.1702V42.7396H61.6868C62.9989 42.7396 64.0125 43.8939 63.8522 45.201L63.8497 45.1986Z" fill="white"/>
</g>
<defs>
<clipPath id="clip0_481_15855">
<rect width="98" height="98" fill="white" transform="translate(0.333984)"/>
</clipPath>
</defs>
</svg>
