<svg width="49" height="69" viewBox="0 0 49 69" fill="none" xmlns="http://www.w3.org/2000/svg">
<path d="M48.8788 13.1186C48.8788 9.69183 46.1169 6.904 42.7078 6.86962L42.7049 6.78939C42.7049 3.42565 39.9776 0.686523 36.6202 0.686523C33.8669 0.686523 31.5395 2.53744 30.7944 5.06454C30.1787 4.87257 29.54 4.75797 28.8841 4.75797C25.3368 4.75797 22.4513 7.65468 22.4513 11.2104C22.4513 13.7117 23.5071 15.5712 25.3224 16.5884C24.9254 17.425 24.6953 18.339 24.6953 19.273C24.6953 21.4105 25.7712 23.2986 27.4082 24.4275C26.033 26.6452 24.8477 29.1866 23.8725 31.8541C23.4438 31.1751 23.0123 30.5333 22.5807 29.9373L21.5249 32.4386C19.606 30.0118 17.8251 28.4102 15.5725 27.4503C15.3826 27.3701 15.1697 27.244 14.9511 27.1008L11.4872 27.4818C11.4498 27.4876 11.4124 27.4876 11.375 27.4876C10.8687 27.4876 10.4343 27.1094 10.3767 26.5936C10.3134 26.0435 10.7133 25.5478 11.2686 25.4877L12.8221 25.3157C11.6167 24.1553 10.5062 22.909 10.1725 22.5222C9.75533 22.0437 9.80711 21.3217 10.2876 20.9033C10.7709 20.4908 11.4959 20.5395 11.9102 21.0208C12.6639 21.8861 13.7054 22.9921 14.6404 23.8774L14.3527 21.6053C14.2836 21.0552 14.6749 20.5538 15.2273 20.4822C15.7998 20.4077 16.2831 20.8059 16.3521 21.3532L16.8786 25.5364C18.5127 26.2842 20.0116 27.3128 21.4357 28.6795L22.5807 29.9373C22.4426 28.9603 22.2441 27.6136 22.0974 26.8544C22.0571 26.4676 21.0128 17.3247 13.4234 14.3334C13.3314 14.2847 11.1449 13.2189 7.5372 13.2189C5.54061 13.2189 3.4836 13.5427 1.41796 14.1845C1.01231 14.3105 0.713108 14.6515 0.632554 15.0698C0.552 15.4881 0.715985 15.915 1.04971 16.1815C1.06985 16.1958 3.09234 17.8519 4.29202 22.2213C4.35244 22.4964 5.80817 28.9574 11.7721 31.5705C11.913 31.6249 15.2445 32.8369 18.2308 32.8369C18.694 32.8369 19.1485 32.8054 19.5858 32.7423L21.5249 32.4386C21.8701 32.9601 22.2153 33.5131 22.5606 34.0976C22.667 34.2781 22.8166 34.4185 22.9892 34.513C22.2585 36.8768 21.6774 39.2721 21.2487 41.5528C21.125 41.5098 20.9984 41.4754 20.8603 41.4754C20.8517 41.4754 20.8402 41.4754 20.8315 41.4783C14.8504 41.6187 8.49235 43.3092 7.99176 46.6557C7.95148 46.756 7.92559 46.8591 7.91696 46.9709C7.91696 47.0024 7.89682 47.0282 7.89682 47.0597C7.89682 47.0912 7.91696 47.1199 7.91984 47.1514C7.92272 47.1972 7.91121 47.2431 7.91984 47.2918L11.4038 64.0303C11.4038 64.036 11.4124 64.0389 11.4124 64.0446C12.1604 66.8267 15.84 68.8839 20.4288 68.8839C25.1038 68.8839 28.6367 66.927 29.5141 63.8927C29.517 63.8841 29.5256 63.8813 29.5285 63.8727L35.4895 47.7875C35.5615 47.5955 35.5586 47.4007 35.5269 47.2116C35.5298 47.16 35.5643 47.1142 35.5643 47.0597C35.5643 43.6759 29.635 41.8365 23.7603 41.5184C23.7027 41.5213 23.6538 41.5413 23.5991 41.5499C24.6953 35.9055 26.7436 29.7568 29.5487 25.3616C29.9946 25.4647 30.4549 25.5278 30.9296 25.5278C32.1868 25.5278 33.2542 25.2241 34.1777 24.6396C35.3457 26.0607 37.0632 26.9289 38.9534 26.9289C42.3913 26.9289 45.1877 24.1238 45.1877 20.6799C45.1877 19.9893 45.1388 19.4249 44.9863 18.8891C47.2764 17.9465 48.8788 15.6887 48.8788 13.1186ZM23.6308 43.8077C30.0435 44.1573 33.2599 46.0798 33.2599 47.0597C33.2599 48.18 29.189 50.3604 21.7291 50.3604C14.4965 50.3604 10.4832 48.3204 10.2444 47.1715L10.2128 47.0225C10.2904 45.9537 13.9441 43.9338 20.8862 43.7676C20.8891 43.7676 20.892 43.7647 20.8948 43.7647C20.7107 45.0025 20.5697 46.1858 20.4892 47.2947C17.9114 47.1371 15.4286 46.5698 13.5414 45.6013C13.0437 45.3377 12.4366 45.5383 12.1835 46.0311C11.9274 46.5239 12.123 47.1285 12.615 47.3806C15.1294 48.6728 18.4178 49.3834 21.8816 49.3834C24.4507 49.3834 26.9508 48.9909 29.1171 48.2459C29.6436 48.0654 29.9198 47.4952 29.7385 46.9709C29.5573 46.4437 28.9877 46.1744 28.4583 46.3491C26.7552 46.9394 24.7873 47.2603 22.7907 47.3319C22.8799 46.1858 23.0266 44.971 23.2251 43.7017C23.3517 43.759 23.4841 43.7991 23.6308 43.8077ZM35.665 18.2731C32.8859 18.2731 30.6275 16.0067 30.6275 13.2189C30.6275 10.4311 32.8888 8.16468 35.665 8.16468C38.4413 8.16468 40.7025 10.4311 40.7025 13.2189C40.7025 16.0067 38.4442 18.2731 35.665 18.2731Z" fill="#91BE7B"/>
<path d="M35.6651 15.9813C37.1777 15.9813 38.404 14.7459 38.404 13.2221C38.404 11.6982 37.1777 10.4629 35.6651 10.4629C34.1525 10.4629 32.9263 11.6982 32.9263 13.2221C32.9263 14.7459 34.1525 15.9813 35.6651 15.9813Z" fill="#91BE7B"/>
</svg>
