<svg width="71" height="61" viewBox="0 0 71 61" fill="none" xmlns="http://www.w3.org/2000/svg">
<path d="M52.3158 0.785156C44.9047 0.785156 38.5203 5.12672 35.5 11.4033C32.4797 5.12672 26.0953 0.785156 18.6842 0.785156C8.36492 0.785156 0 9.17953 0 19.5352C0 42.0352 35.5 60.7852 35.5 60.7852C35.5 60.7852 71 42.0352 71 19.5352C71 9.17953 62.6351 0.785156 52.3158 0.785156ZM52.3158 30.7852H48.876L46.5592 36.2114C46.2649 36.9005 45.5895 37.3477 44.8421 37.3477C44.8393 37.3477 44.8356 37.3477 44.8328 37.3477C44.0817 37.3439 43.4062 36.8892 43.1176 36.1936L40.1711 29.0977L37.2246 36.1936C36.934 36.893 36.2548 37.3477 35.5 37.3477C34.7452 37.3477 34.066 36.893 33.7754 36.1936L30.8289 29.0977L27.8824 36.1936C27.5938 36.8892 26.9183 37.3439 26.1672 37.3477C25.4208 37.3617 24.736 36.9033 24.4408 36.2114L22.124 30.7852H18.6842C17.6528 30.7852 16.8158 29.9452 16.8158 28.9102C16.8158 27.8752 17.6528 27.0352 18.6842 27.0352H23.3553C24.1026 27.0352 24.7781 27.4823 25.0723 28.1714L26.1336 30.6558L29.1053 23.5017C29.3949 22.8023 30.0741 22.3477 30.8289 22.3477C31.5838 22.3477 32.263 22.8023 32.5535 23.5017L35.5 30.5977L38.4465 23.5017C38.737 22.8023 39.4162 22.3477 40.1711 22.3477C40.9259 22.3477 41.6051 22.8023 41.8956 23.5017L44.8673 30.6558L45.9286 28.1714C46.2219 27.4823 46.8974 27.0352 47.6447 27.0352H52.3158C53.3472 27.0352 54.1842 27.8752 54.1842 28.9102C54.1842 29.9452 53.3472 30.7852 52.3158 30.7852Z" fill="#91BE7B"/>
</svg>
