<svg width="22" height="23" viewBox="0 0 22 23" fill="none" xmlns="http://www.w3.org/2000/svg">
<mask id="mask0_871_1892" style="mask-type:luminance" maskUnits="userSpaceOnUse" x="0" y="1" width="22" height="21">
<path d="M11.0001 21.7352C16.6205 21.7352 21.1769 17.1639 21.1769 11.5248C21.1769 5.8858 16.6205 1.31445 11.0001 1.31445C5.37956 1.31445 0.823242 5.8858 0.823242 11.5248C0.823242 17.1639 5.37956 21.7352 11.0001 21.7352Z" fill="white"/>
</mask>
<g mask="url(#mask0_871_1892)">
<mask id="mask1_871_1892" style="mask-type:luminance" maskUnits="userSpaceOnUse" x="0" y="0" width="22" height="23">
<path d="M21.9306 0.558594H0.0693359V22.492H21.9306V0.558594Z" fill="white"/>
</mask>
<g mask="url(#mask1_871_1892)">
<rect y="0.5" width="22" height="22" fill="white"/>
</g>
</g>
<path d="M10.9999 6.25439C12.7112 6.25439 12.9132 6.26044 13.5886 6.29221C14.2128 6.32095 14.552 6.42532 14.7782 6.51306C15.0767 6.62953 15.2908 6.7687 15.5154 6.99408C15.7401 7.21947 15.8788 7.43275 15.9949 7.73377C16.0823 7.96066 16.1864 8.30101 16.215 8.92725C16.2452 9.60492 16.2527 9.80912 16.2527 11.5245C16.2527 13.2398 16.2467 13.444 16.215 14.1217C16.1864 14.7479 16.0823 15.0883 15.9949 15.3152C15.8788 15.6147 15.7401 15.8295 15.5154 16.0549C15.2908 16.2802 15.0782 16.4194 14.7782 16.5359C14.552 16.6236 14.2128 16.728 13.5886 16.7567C12.9132 16.787 12.7112 16.7945 10.9999 16.7945C9.28874 16.7945 9.08671 16.7885 8.41127 16.7567C7.78709 16.728 7.44787 16.6236 7.22171 16.5359C6.92319 16.4194 6.7091 16.2802 6.48446 16.0549C6.25982 15.8295 6.12111 15.6162 6.00502 15.3152C5.91757 15.0883 5.81354 14.7479 5.7849 14.1217C5.75475 13.444 5.74721 13.2398 5.74721 11.5245C5.74721 9.80912 5.75324 9.60492 5.7849 8.92725C5.81354 8.30101 5.91757 7.96066 6.00502 7.73377C6.12111 7.43426 6.25982 7.21947 6.48446 6.99408C6.7091 6.7687 6.92169 6.62953 7.22171 6.51306C7.44787 6.42532 7.78709 6.32095 8.41127 6.29221C9.08671 6.26196 9.29024 6.25439 10.9999 6.25439ZM10.9999 5.0957C9.26009 5.0957 9.04148 5.10327 8.3585 5.13503C7.67703 5.1668 7.21116 5.2742 6.80258 5.43454C6.38194 5.59942 6.02462 5.81875 5.6673 6.17574C5.31149 6.53272 5.09137 6.89122 4.92854 7.31476C4.77023 7.72318 4.66168 8.19059 4.63002 8.87582C4.59836 9.56105 4.59082 9.78038 4.59082 11.526C4.59082 13.2716 4.59836 13.4909 4.63002 14.1761C4.66168 14.8599 4.76873 15.3273 4.92854 15.7372C5.09288 16.1592 5.31149 16.5177 5.6673 16.8762C6.02311 17.2332 6.38043 17.4541 6.80258 17.6174C7.20965 17.7763 7.67552 17.8852 8.3585 17.9169C9.04148 17.9487 9.26009 17.9563 10.9999 17.9563C12.7398 17.9563 12.9584 17.9487 13.6414 17.9169C14.3229 17.8852 14.7887 17.7778 15.1973 17.6174C15.618 17.4526 15.9753 17.2332 16.3326 16.8762C16.6884 16.5192 16.9085 16.1607 17.0714 15.7372C17.2297 15.3288 17.3382 14.8614 17.3699 14.1761C17.4015 13.4909 17.4091 13.2716 17.4091 11.526C17.4091 9.78038 17.4015 9.56105 17.3699 8.87582C17.3382 8.1921 17.2312 7.72469 17.0714 7.31476C16.907 6.89273 16.6884 6.53423 16.3326 6.17574C15.9768 5.81875 15.6195 5.5979 15.1973 5.43454C14.7902 5.27571 14.3244 5.1668 13.6414 5.13503C12.9584 5.10327 12.7398 5.0957 10.9999 5.0957Z" fill="black"/>
<path d="M10.9997 8.22461C9.18296 8.22461 7.70996 9.70247 7.70996 11.5252C7.70996 13.348 9.18296 14.8258 10.9997 14.8258C12.8165 14.8258 14.2895 13.348 14.2895 11.5252C14.2895 9.70247 12.8165 8.22461 10.9997 8.22461ZM10.9997 13.6686C9.82071 13.6686 8.86333 12.7096 8.86333 11.5252C8.86333 10.3408 9.8192 9.38179 10.9997 9.38179C12.1802 9.38179 13.1361 10.3408 13.1361 11.5252C13.1361 12.7096 12.1802 13.6686 10.9997 13.6686Z" fill="black"/>
<path d="M14.4213 8.86517C14.8459 8.86517 15.1902 8.51978 15.1902 8.09372C15.1902 7.66766 14.8459 7.32227 14.4213 7.32227C13.9966 7.32227 13.6523 7.66766 13.6523 8.09372C13.6523 8.51978 13.9966 8.86517 14.4213 8.86517Z" fill="black"/>
</svg>
