<svg width="18" height="18" viewBox="0 0 18 18" fill="none" xmlns="http://www.w3.org/2000/svg">
<path d="M2.06333 16.56C2.24006 16.9864 2.5393 17.3509 2.9232 17.6072C3.3071 17.8635 3.7584 18.0002 4.22 18H14.3333C15.3058 18 16.2384 17.6137 16.9261 16.9261C17.6137 16.2384 18 15.3058 18 14.3333V3.66667C18 2.69421 17.6137 1.76157 16.9261 1.07394C16.2384 0.386308 15.3058 0 14.3333 0H3.66667C2.69421 0 1.76157 0.386308 1.07394 1.07394C0.386308 1.76157 0 2.69421 0 3.66667V10.3333H2V3.66667C2 3.22464 2.17559 2.80072 2.48816 2.48816C2.80072 2.17559 3.22464 2 3.66667 2H14.3333C14.7754 2 15.1993 2.17559 15.5118 2.48816C15.8244 2.80072 16 3.22464 16 3.66667V14.3333C16 14.7754 15.8244 15.1993 15.5118 15.5118C15.1993 15.8244 14.7754 16 14.3333 16H4.22C4.15379 16.0004 4.08897 15.981 4.0338 15.9444C3.97862 15.9078 3.9356 15.8556 3.91021 15.7945C3.88482 15.7333 3.87822 15.666 3.89124 15.6011C3.90426 15.5362 3.93632 15.4766 3.98333 15.43L10.6667 8.74667V12.6667H12.6667V6.33333C12.6667 6.06812 12.5613 5.81376 12.3738 5.62623C12.1862 5.43869 11.9319 5.33333 11.6667 5.33333H5.33333V7.33333H9.25333L2.57 14.0167C2.24343 14.3429 2.02098 14.7587 1.93079 15.2115C1.84061 15.6642 1.88673 16.1335 2.06333 16.56Z" fill="#535353"/>
</svg>
