<svg width="73" height="70" viewBox="0 0 73 70" fill="none" xmlns="http://www.w3.org/2000/svg">
<path d="M68.9016 28.5351C63.1877 16.0488 56.111 8.59166 49.8851 8.59166C48.69 8.57885 47.5154 8.90247 46.4955 9.52553C41.4872 12.6039 41.2589 22.2332 41.252 23.2915C41.252 23.6236 41.1759 26.28 41.1205 29.9809L39.1006 29.2338V1.38352C39.1006 1.01659 38.9548 0.664684 38.6954 0.405223C38.4359 0.145763 38.084 0 37.7171 0L34.8809 0C34.5139 0 34.162 0.145763 33.9026 0.405223C33.6431 0.664684 33.4974 1.01659 33.4974 1.38352V29.2407L31.4774 29.9878C31.4221 26.2938 31.3529 23.6443 31.346 23.3192C31.346 22.2332 31.1108 12.6039 26.1024 9.52553C25.0825 8.90247 23.9079 8.57885 22.7128 8.59166C16.5285 8.59166 9.42412 16.0488 3.71018 28.5351C-3.85075 45.0681 2.83857 67.6195 3.12219 68.5741C3.22236 68.9182 3.4521 69.2099 3.76305 69.388C4.07401 69.566 4.44191 69.6165 4.78933 69.5288C8.93664 68.5055 13.0281 67.2679 17.0473 65.8209C25.7981 62.625 30.3291 59.4844 30.8825 56.2262C31.5743 52.2209 31.5743 41.1597 31.512 32.9554L35.3374 31.5719H37.2951L41.1205 32.9554C41.0306 41.1666 41.0514 52.2209 41.75 56.2262C42.3173 59.4913 46.8483 62.625 55.5852 65.8209C59.6045 67.2677 63.696 68.5053 67.8432 69.5288C68.1906 69.6165 68.5585 69.566 68.8695 69.388C69.1805 69.2099 69.4102 68.9182 69.5104 68.5741C69.7732 67.6195 76.4625 45.0681 68.9016 28.5351ZM27.396 34.8163L17.4485 39.9768V44.1619L18.2095 46.4863L20.1395 48.3333C20.2717 48.4613 20.3773 48.6142 20.4504 48.7831C20.5235 48.952 20.5626 49.1337 20.5655 49.3177C20.5684 49.5018 20.535 49.6846 20.4673 49.8557C20.3995 50.0269 20.2987 50.183 20.1706 50.3151C20.0425 50.4473 19.8896 50.553 19.7207 50.6261C19.5518 50.6992 19.3701 50.7383 19.1861 50.7412C19.0021 50.7441 18.8193 50.7107 18.6481 50.6429C18.477 50.5752 18.3209 50.4744 18.1887 50.3463L16.1134 48.354L13.7822 50.9274C13.5327 51.2025 13.1841 51.3674 12.813 51.3855C12.442 51.4037 12.079 51.2737 11.8038 51.0242C11.5286 50.7747 11.3638 50.4261 11.3456 50.055C11.3274 49.684 11.4574 49.321 11.7069 49.0458L14.6469 45.8014V41.4226L9.11283 44.2657C8.94931 44.3502 8.77075 44.4016 8.58735 44.4171C8.40395 44.4326 8.21929 44.4118 8.04393 44.3559C7.86857 44.3 7.70593 44.2101 7.5653 44.0914C7.42467 43.9727 7.30881 43.8274 7.22432 43.6639C7.13984 43.5004 7.08839 43.3218 7.07291 43.1384C7.05743 42.955 7.07823 42.7703 7.13412 42.595C7.19 42.4196 7.27988 42.257 7.39862 42.1163C7.51736 41.9757 7.66264 41.8599 7.82615 41.7754L9.07132 41.1459L6.89228 39.3957C6.74829 39.2813 6.62826 39.1395 6.53904 38.9787C6.44981 38.8178 6.39315 38.641 6.37227 38.4582C6.33011 38.0892 6.43629 37.7185 6.66746 37.4277C6.89862 37.1369 7.23584 36.9498 7.60492 36.9076C7.974 36.8655 8.34472 36.9717 8.63551 37.2028L11.8384 39.7347L19.51 35.7709L12.9106 30.7833C12.7639 30.672 12.6405 30.5329 12.5476 30.374C12.4546 30.215 12.3939 30.0393 12.3688 29.8569C12.3182 29.4884 12.4161 29.115 12.6408 28.8187C12.8655 28.5224 13.1988 28.3275 13.5672 28.2769C13.9357 28.2263 14.3091 28.3242 14.6054 28.5489L16.7291 30.1607L16.909 28.5351C16.9289 28.3534 16.9845 28.1774 17.0725 28.0172C17.1605 27.857 17.2792 27.7157 17.4218 27.6014C17.5644 27.487 17.7281 27.4019 17.9036 27.3508C18.0791 27.2998 18.263 27.2838 18.4447 27.3038C18.6264 27.3237 18.8023 27.3793 18.9625 27.4673C19.1227 27.5553 19.264 27.674 19.3784 27.8166C19.4927 27.9592 19.5779 28.1229 19.6289 28.2984C19.68 28.4739 19.696 28.6578 19.676 28.8395L19.3163 32.1253L22.2148 34.3459L26.1094 32.3329C26.4396 32.1622 26.8241 32.1298 27.1783 32.2426C27.5324 32.3555 27.8272 32.6044 27.9979 32.9347C28.1685 33.2649 28.2009 33.6494 28.0881 34.0036C27.9752 34.3577 27.7263 34.6526 27.396 34.8232V34.8163ZM65.6434 39.3888L63.4506 41.139L64.675 41.7754C64.8389 41.8576 64.9851 41.9713 65.1051 42.11C65.2252 42.2487 65.3167 42.4097 65.3745 42.5838C65.4323 42.7578 65.4553 42.9416 65.4421 43.1246C65.4289 43.3075 65.3798 43.4861 65.2975 43.65C65.2153 43.814 65.1016 43.9602 64.9629 44.0802C64.8242 44.2002 64.6632 44.2918 64.4892 44.3496C64.3151 44.4074 64.1313 44.4304 63.9484 44.4172C63.7654 44.4039 63.5869 44.3548 63.4229 44.2726L57.8888 41.4295V45.8083L60.8288 49.0527C61.0783 49.3279 61.2083 49.6909 61.1901 50.062C61.1719 50.433 61.0071 50.7816 60.7319 51.0311C60.4567 51.2806 60.0937 51.4106 59.7227 51.3924C59.3516 51.3743 59.003 51.2095 58.7535 50.9343L56.4499 48.354L54.3747 50.3463C54.2425 50.4744 54.0864 50.5752 53.9152 50.6429C53.7441 50.7107 53.5613 50.7441 53.3773 50.7412C53.0056 50.7353 52.6515 50.5821 52.3928 50.3151C52.1341 50.0482 51.992 49.6894 51.9979 49.3177C52.0037 48.9461 52.157 48.5919 52.4239 48.3333L54.3332 46.4863L55.0941 44.1619V39.9768L45.1397 34.8232C44.8094 34.6526 44.5605 34.3577 44.4476 34.0036C44.3348 33.6494 44.3672 33.2649 44.5378 32.9347C44.7085 32.6044 45.0033 32.3555 45.3575 32.2426C45.7116 32.1298 46.0961 32.1622 46.4263 32.3329L50.3209 34.3459L53.2402 32.1322L52.8805 28.8464C52.8401 28.4794 52.9472 28.1115 53.1781 27.8235C53.409 27.5355 53.7449 27.351 54.1118 27.3107C54.4787 27.2703 54.8467 27.3774 55.1347 27.6083C55.4227 27.8392 55.6071 28.1751 55.6475 28.542L55.8274 30.1676L57.9511 28.5558C58.2474 28.3311 58.6208 28.2333 58.9892 28.2839C59.3577 28.3344 59.6909 28.5293 59.9157 28.8256C60.1404 29.1219 60.2382 29.4954 60.1876 29.8638C60.1371 30.2322 59.9422 30.5655 59.6459 30.7902L53.0672 35.7778L60.7389 39.7416L63.914 37.2098C64.2048 36.9777 64.5759 36.8706 64.9456 36.9121C65.3154 36.9536 65.6535 37.1403 65.8855 37.4311C66.1176 37.7219 66.2247 38.093 66.1832 38.4627C66.1417 38.8325 65.955 39.1705 65.6642 39.4026L65.6434 39.3888Z" fill="#91BE7B"/>
</svg>
