<svg width="60" height="59" viewBox="0 0 60 59" fill="none" xmlns="http://www.w3.org/2000/svg">
<path d="M21.9574 41.7773V53.992H19.2673C18.6129 53.992 18.0312 53.4104 18.0312 52.8287V43.0134C18.0312 42.359 18.6129 41.7773 19.2673 41.7773H21.9574Z" fill="#91BE7B"/>
<path d="M57.7292 3.67902L57.5111 5.64209L45.3691 4.18796L45.5873 2.22489C45.66 1.2797 46.5324 0.698052 47.4049 0.770758L56.3478 1.86136C57.2203 2.00677 57.8747 2.80654 57.7292 3.67902Z" fill="#91BE7B"/>
<path d="M59.9826 11.0225L55.4748 48.9753C54.8931 53.6285 51.0397 57.0457 46.3864 57.0457H26.9738C25.8832 57.0457 25.0107 56.1732 25.0107 55.0826V40.7595C25.0107 39.6689 25.8832 38.7964 26.9738 38.7964H35.1169L34.6807 42.6498C34.608 43.5223 35.1896 44.2494 36.0621 44.3948H36.2802C37.08 44.3948 37.6617 43.8131 37.8071 43.0134L41.8786 8.91402C42.0241 7.82342 42.9692 7.09636 44.0598 7.16906L58.383 8.84131C59.3282 8.91402 60.128 9.93191 59.9826 11.0225Z" fill="#91BE7B"/>
<path d="M2.54473 45.3398C3.99886 45.3398 5.08945 46.5031 5.08945 47.8846C5.08945 49.3387 3.92615 50.4293 2.54473 50.4293C1.0906 50.4293 0 49.266 0 47.8846C0 46.5031 1.1633 45.3398 2.54473 45.3398Z" fill="#91BE7B"/>
<path d="M10.3244 45.9209C11.4877 45.9209 12.3602 46.8661 12.3602 47.9567C12.3602 49.12 11.415 49.9925 10.3244 49.9925C9.16108 49.9925 8.2886 49.0473 8.2886 47.9567C8.21589 46.7934 9.16108 45.9209 10.3244 45.9209Z" fill="#91BE7B"/>
<path d="M2.98091 42.0677C1.59949 41.7042 0.799714 40.3228 1.16325 38.9414C1.52678 37.5599 2.9082 36.7602 4.28962 37.1237C5.67105 37.4872 6.47082 38.9414 6.10729 40.2501C5.81646 41.6315 4.36233 42.4313 2.98091 42.0677Z" fill="#91BE7B"/>
<path d="M10.615 43.5943C9.52442 43.3035 8.87006 42.1402 9.16089 41.0496C9.45172 39.959 10.615 39.3046 11.7056 39.5955C12.7962 39.8863 13.4506 41.0496 13.1597 42.1402C12.8689 43.2308 11.7056 43.8851 10.615 43.5943Z" fill="#91BE7B"/>
<path d="M2.98091 53.7731C4.36233 53.4096 5.74375 54.2093 6.10729 55.5908C6.47082 56.9722 5.67105 58.3536 4.28962 58.7171C2.9082 59.0807 1.52678 58.2809 1.16325 56.8995C0.799714 55.5908 1.59949 54.2093 2.98091 53.7731Z" fill="#91BE7B"/>
<path d="M10.615 52.3191C11.7056 52.0283 12.8689 52.6826 13.1597 53.7732C13.4506 54.8638 12.7962 56.0271 11.7056 56.3179C10.615 56.6088 9.45172 55.9544 9.16089 54.8638C8.87006 53.7005 9.52442 52.6099 10.615 52.3191Z" fill="#91BE7B"/>
</svg>
