<svg width="20" height="21" viewBox="0 0 20 21" fill="none" xmlns="http://www.w3.org/2000/svg">
<g clip-path="url(#clip0_871_1886)">
<path d="M10 20.5C15.5228 20.5 20 16.0228 20 10.5C20 4.97715 15.5228 0.5 10 0.5C4.47715 0.5 0 4.97715 0 10.5C0 16.0228 4.47715 20.5 10 20.5Z" fill="white"/>
<path d="M6.76906 11.2298L7.95573 14.5142C7.95573 14.5142 8.10387 14.8209 8.26239 14.8209C8.42091 14.8209 10.7839 12.3631 10.7839 12.3631L13.4105 7.28906L6.81054 10.3824L6.76758 11.2298H6.76906Z" fill="white"/>
<path fill-rule="evenodd" clip-rule="evenodd" d="M4.35075 10.5521L6.79075 11.3477H6.78779C6.78779 11.3477 6.87816 11.361 6.91075 11.3403C7.46631 10.9892 12.4959 7.81287 12.7863 7.7062C12.8322 7.69287 12.8663 7.70916 12.8574 7.74028C12.7419 8.14768 8.37297 12.0306 8.37297 12.0306C8.37297 12.0306 8.35557 12.0512 8.34532 12.0761L8.34219 12.0742L8.34077 12.0893C8.33847 12.0978 8.33739 12.1064 8.33838 12.1147L8.11405 14.495C8.11405 14.495 8.01923 15.2372 8.75997 14.495C9.28371 13.9712 9.79121 13.5323 10.0446 13.3193C10.8831 13.8982 11.7852 14.5384 12.1745 14.8736C12.37 15.0425 12.5345 15.0692 12.6693 15.0647C13.0382 15.0499 13.1419 14.644 13.1419 14.644C13.1419 14.644 14.8678 7.70028 14.9256 6.76991C14.9279 6.73497 14.9306 6.70468 14.9331 6.67708C14.937 6.63327 14.9404 6.59622 14.9404 6.55805C14.9419 6.47213 14.9345 6.38472 14.9196 6.34324C14.8811 6.22916 14.8352 6.19805 14.7626 6.17139C14.6041 6.11065 14.3374 6.20102 14.3374 6.20102C14.3374 6.20102 4.86927 9.60546 4.32853 9.98176C4.21149 10.0632 4.17297 10.1106 4.15371 10.1655C4.0589 10.4336 4.35075 10.5521 4.35075 10.5521Z" fill="black"/>
</g>
<defs>
<clipPath id="clip0_871_1886">
<rect width="20" height="20" fill="white" transform="translate(0 0.5)"/>
</clipPath>
</defs>
</svg>
