<svg width="50" height="50" viewBox="0 0 98 98" fill="none" xmlns="http://www.w3.org/2000/svg">
<g clip-path="url(#clip0_481_15863)">
<path d="M98 49.0012C98 76.0644 76.0619 98.0025 48.9988 98.0025C21.9381 98 0 76.0619 0 49.0012C0 21.9381 21.9381 0 49.0012 0C76.0644 0 98.0025 21.9381 98.0025 49.0012H98Z" fill="#A1A1A1"/>
<path d="M73.4037 29.8572C72.9045 28.7449 71.858 28.1162 70.4572 28.1162C69.4428 28.1162 68.5411 28.4386 68.4284 28.487C68.1225 28.5998 38.4962 39.9482 26.3398 44.9292C25.2771 45.3645 24.5848 45.977 24.2949 46.7669C23.8441 47.9759 24.6975 49.2171 25.5025 49.5718C28.5296 50.9097 34.809 52.7474 36.7734 53.3116C37.4174 55.4716 39.6877 62.9996 40.7504 66.2397C41.0241 67.0779 41.8453 67.5776 42.9241 67.5776C43.0851 67.5776 43.1817 67.5776 43.1817 67.5776C43.4715 67.5454 43.7291 67.4003 43.9062 67.1908C44.0672 67.0135 44.1639 66.7878 44.18 66.546L44.8079 57.4382C45.9994 58.3248 47.7222 59.6305 49.6383 61.0652C53.4221 63.9023 57.9304 67.2552 60.4422 69.0768C61.3439 69.7216 62.1972 70.044 63.0184 70.044C64.8378 70.044 65.8844 68.4804 66.2386 67.1424C68.3318 59.0019 71.391 43.6235 73.2266 34.4352L73.6291 32.4202C73.8867 31.1467 73.6613 30.4214 73.4198 29.8733L73.4037 29.8572ZM42.6986 55.2137L42.1351 63.2898C40.7665 58.889 38.7377 52.1509 38.7216 52.0703C38.7216 52.0542 38.6894 52.0381 38.6894 52.0059V51.9575L61.8591 36.8532C61.8591 36.8532 63.437 35.7731 64.0328 35.6442C64.8378 35.4669 65.031 35.7893 64.8861 35.9827C64.3226 36.7403 61.6659 39.0294 61.6659 39.0294L43.1978 54.3432C42.908 54.5367 42.7147 54.8591 42.6986 55.1976V55.2137Z" fill="white"/>
</g>
<defs>
<clipPath id="clip0_481_15863">
<rect width="98" height="98" fill="white"/>
</clipPath>
</defs>
</svg>
