<svg width="50" height="50" viewBox="0 0 99 98" fill="none" xmlns="http://www.w3.org/2000/svg">
<g clip-path="url(#clip0_481_15859)">
<path d="M98.666 49.0012C98.666 76.0644 76.7279 98.0025 49.6648 98.0025C22.6041 98 0.666016 76.0619 0.666016 49.0012C0.666016 21.9381 22.6041 0 49.6672 0C76.7304 0 98.6685 21.9381 98.6685 49.0012H98.666Z" fill="#A1A1A1"/>
<path d="M56.7395 44.4995L76.5615 23.2988H69.0342L53.4765 39.9417L41.5617 23.2988H20.9727L41.8132 52.4115L20.9727 74.7047H28.4999L45.0787 56.9718L57.7729 74.7047H78.3619L56.7395 44.5019V44.4995ZM31.5804 28.7494H38.7574L67.7517 69.2492H60.5747L31.5804 28.7494Z" fill="white"/>
</g>
<defs>
<clipPath id="clip0_481_15859">
<rect width="98" height="98" fill="white" transform="translate(0.666016)"/>
</clipPath>
</defs>
</svg>
