<svg width="117" height="26" viewBox="0 0 117 26" fill="none" xmlns="http://www.w3.org/2000/svg">
<mask id="path-1-inside-1_136_6158" fill="white">
<path d="M8.55743 4.61602C6.99194 4.65807 5.74946 6.01692 5.74946 7.63442C5.74912 7.72203 5.76596 7.80884 5.799 7.88985C5.83205 7.97086 5.88065 8.04447 5.942 8.10642C6.00334 8.16837 6.07623 8.21745 6.15645 8.25082C6.23667 8.28419 6.32264 8.30119 6.4094 8.30085C6.49584 8.30068 6.58139 8.2833 6.66117 8.2497C6.74094 8.2161 6.81337 8.16694 6.87432 8.10504C6.93526 8.04314 6.98351 7.96971 7.01631 7.88895C7.04912 7.8082 7.06583 7.7217 7.06549 7.63442C7.06549 6.67467 7.77737 5.9437 8.63189 5.9437C9.48642 5.9437 10.1944 6.67467 10.1944 7.63442C10.1944 8.59416 9.48642 9.33032 8.63189 9.33032H0.654811C0.481355 9.33101 0.315195 9.40089 0.192542 9.52475C0.0698884 9.64861 0.000682469 9.8164 5.03525e-06 9.99157C-0.000332838 10.0787 0.0163363 10.1651 0.0490606 10.2458C0.081785 10.3265 0.129924 10.3998 0.190728 10.4617C0.251533 10.5236 0.323812 10.5728 0.40344 10.6065C0.483067 10.6402 0.568483 10.6577 0.654811 10.658H8.63189C10.2324 10.658 11.5105 9.27759 11.5105 7.63442C11.5105 5.99125 10.2324 4.61602 8.63189 4.61602C8.6069 4.61602 8.58227 4.61535 8.55743 4.61602ZM15.5228 7.62404C13.9222 7.62404 12.6455 8.99927 12.6455 10.6424C12.6451 10.7296 12.6618 10.816 12.6945 10.8967C12.7273 10.9774 12.7754 11.0507 12.8362 11.1126C12.897 11.1745 12.9693 11.2237 13.0489 11.2574C13.1285 11.291 13.2139 11.3085 13.3003 11.3089C13.387 11.3092 13.473 11.2922 13.5532 11.2588C13.6334 11.2255 13.7063 11.1764 13.7677 11.1144C13.829 11.0525 13.8776 10.9789 13.9107 10.8979C13.9437 10.8169 13.9606 10.7301 13.9602 10.6424C13.9602 9.6827 14.6682 8.95302 15.5228 8.95302C16.3773 8.95302 17.0904 9.6827 17.0904 10.6424C17.0904 11.6022 16.3773 12.3383 15.5228 12.3383H0.654811C0.481354 12.339 0.315195 12.4089 0.192541 12.5328C0.0698874 12.6566 0.000681815 12.8244 5.03525e-06 12.9996C-0.000332838 13.0868 0.0163363 13.1732 0.0490606 13.2538C0.081785 13.3345 0.129924 13.4079 0.190728 13.4698C0.251533 13.5316 0.323812 13.5808 0.40344 13.6145C0.483067 13.6482 0.568483 13.6657 0.654811 13.666H15.5228C17.1233 13.666 18.4052 12.2856 18.4052 10.6424C18.4052 8.99927 17.1233 7.62404 15.5228 7.62404ZM0.654811 15.3425C0.568483 15.3428 0.483067 15.3603 0.40344 15.394C0.323812 15.4277 0.251533 15.4769 0.190728 15.5387C0.129924 15.6006 0.081785 15.674 0.0490606 15.7547C0.0163363 15.8353 -0.000332838 15.9217 5.03525e-06 16.0089C0.000682469 16.1841 0.0698884 16.3519 0.192542 16.4757C0.315195 16.5996 0.481355 16.6695 0.654811 16.6702H9.94279C10.7973 16.6702 11.5105 17.4063 11.5105 18.3661C11.5105 19.3258 10.7973 20.0568 9.94279 20.0568C9.08826 20.0568 8.38024 19.3258 8.38024 18.3661C8.38058 18.2785 8.36374 18.1916 8.3307 18.1106C8.29765 18.0296 8.24906 17.956 8.18771 17.8941C8.12636 17.8321 8.05347 17.783 7.97325 17.7497C7.89303 17.7163 7.80706 17.6993 7.7203 17.6996C7.63397 17.7 7.54856 17.7175 7.46893 17.7512C7.3893 17.7848 7.31702 17.834 7.25622 17.8959C7.19541 17.9578 7.14727 18.0312 7.11455 18.1118C7.08183 18.1925 7.06516 18.2789 7.06549 18.3661C7.0655 20.0092 8.34226 21.3845 9.94279 21.3845C11.5433 21.3845 12.8252 20.0092 12.8252 18.3661C12.8252 16.7366 11.5644 15.3666 9.98259 15.3438C9.96934 15.3429 9.95607 15.3425 9.94279 15.3425H0.654811Z"/>
</mask>
<path d="M8.55743 4.61602C6.99194 4.65807 5.74946 6.01692 5.74946 7.63442C5.74912 7.72203 5.76596 7.80884 5.799 7.88985C5.83205 7.97086 5.88065 8.04447 5.942 8.10642C6.00334 8.16837 6.07623 8.21745 6.15645 8.25082C6.23667 8.28419 6.32264 8.30119 6.4094 8.30085C6.49584 8.30068 6.58139 8.2833 6.66117 8.2497C6.74094 8.2161 6.81337 8.16694 6.87432 8.10504C6.93526 8.04314 6.98351 7.96971 7.01631 7.88895C7.04912 7.8082 7.06583 7.7217 7.06549 7.63442C7.06549 6.67467 7.77737 5.9437 8.63189 5.9437C9.48642 5.9437 10.1944 6.67467 10.1944 7.63442C10.1944 8.59416 9.48642 9.33032 8.63189 9.33032H0.654811C0.481355 9.33101 0.315195 9.40089 0.192542 9.52475C0.0698884 9.64861 0.000682469 9.8164 5.03525e-06 9.99157C-0.000332838 10.0787 0.0163363 10.1651 0.0490606 10.2458C0.081785 10.3265 0.129924 10.3998 0.190728 10.4617C0.251533 10.5236 0.323812 10.5728 0.40344 10.6065C0.483067 10.6402 0.568483 10.6577 0.654811 10.658H8.63189C10.2324 10.658 11.5105 9.27759 11.5105 7.63442C11.5105 5.99125 10.2324 4.61602 8.63189 4.61602C8.6069 4.61602 8.58227 4.61535 8.55743 4.61602ZM15.5228 7.62404C13.9222 7.62404 12.6455 8.99927 12.6455 10.6424C12.6451 10.7296 12.6618 10.816 12.6945 10.8967C12.7273 10.9774 12.7754 11.0507 12.8362 11.1126C12.897 11.1745 12.9693 11.2237 13.0489 11.2574C13.1285 11.291 13.2139 11.3085 13.3003 11.3089C13.387 11.3092 13.473 11.2922 13.5532 11.2588C13.6334 11.2255 13.7063 11.1764 13.7677 11.1144C13.829 11.0525 13.8776 10.9789 13.9107 10.8979C13.9437 10.8169 13.9606 10.7301 13.9602 10.6424C13.9602 9.6827 14.6682 8.95302 15.5228 8.95302C16.3773 8.95302 17.0904 9.6827 17.0904 10.6424C17.0904 11.6022 16.3773 12.3383 15.5228 12.3383H0.654811C0.481354 12.339 0.315195 12.4089 0.192541 12.5328C0.0698874 12.6566 0.000681815 12.8244 5.03525e-06 12.9996C-0.000332838 13.0868 0.0163363 13.1732 0.0490606 13.2538C0.081785 13.3345 0.129924 13.4079 0.190728 13.4698C0.251533 13.5316 0.323812 13.5808 0.40344 13.6145C0.483067 13.6482 0.568483 13.6657 0.654811 13.666H15.5228C17.1233 13.666 18.4052 12.2856 18.4052 10.6424C18.4052 8.99927 17.1233 7.62404 15.5228 7.62404ZM0.654811 15.3425C0.568483 15.3428 0.483067 15.3603 0.40344 15.394C0.323812 15.4277 0.251533 15.4769 0.190728 15.5387C0.129924 15.6006 0.081785 15.674 0.0490606 15.7547C0.0163363 15.8353 -0.000332838 15.9217 5.03525e-06 16.0089C0.000682469 16.1841 0.0698884 16.3519 0.192542 16.4757C0.315195 16.5996 0.481355 16.6695 0.654811 16.6702H9.94279C10.7973 16.6702 11.5105 17.4063 11.5105 18.3661C11.5105 19.3258 10.7973 20.0568 9.94279 20.0568C9.08826 20.0568 8.38024 19.3258 8.38024 18.3661C8.38058 18.2785 8.36374 18.1916 8.3307 18.1106C8.29765 18.0296 8.24906 17.956 8.18771 17.8941C8.12636 17.8321 8.05347 17.783 7.97325 17.7497C7.89303 17.7163 7.80706 17.6993 7.7203 17.6996C7.63397 17.7 7.54856 17.7175 7.46893 17.7512C7.3893 17.7848 7.31702 17.834 7.25622 17.8959C7.19541 17.9578 7.14727 18.0312 7.11455 18.1118C7.08183 18.1925 7.06516 18.2789 7.06549 18.3661C7.0655 20.0092 8.34226 21.3845 9.94279 21.3845C11.5433 21.3845 12.8252 20.0092 12.8252 18.3661C12.8252 16.7366 11.5644 15.3666 9.98259 15.3438C9.96934 15.3429 9.95607 15.3425 9.94279 15.3425H0.654811Z" fill="black"/>
<path d="M8.55743 4.61602L10.6249 81.5883H10.625L8.55743 4.61602ZM5.74946 7.63442L82.7489 7.93256L82.7495 7.78349V7.63442H5.74946ZM6.4094 8.30085L6.25824 -68.699L6.1818 -68.6989L6.10536 -68.6985L6.4094 8.30085ZM7.06549 7.63442H-69.9345V7.78327L-69.9339 7.93212L7.06549 7.63442ZM0.654811 9.33032V-67.6697H0.503125L0.351439 -67.6691L0.654811 9.33032ZM5.03525e-06 9.99157L76.9994 10.29V10.2894L5.03525e-06 9.99157ZM0.654811 10.658L0.351442 87.6574L0.503126 87.658H0.654811V10.658ZM12.6455 10.6424L89.6449 10.9409L89.6455 10.7917V10.6424H12.6455ZM13.3003 11.3089L13.6046 -65.6905L13.6039 -65.6905L13.3003 11.3089ZM13.9602 10.6424H-63.0398V10.7917L-63.0392 10.9409L13.9602 10.6424ZM0.654811 12.3383V-64.6617H0.503124L0.351438 -64.6611L0.654811 12.3383ZM5.03525e-06 12.9996L76.9994 13.298V13.2971L5.03525e-06 12.9996ZM0.654811 13.666L0.351442 90.6654L0.503126 90.666H0.654811V13.666ZM0.654811 15.3425V-61.6575H0.503126L0.351442 -61.6569L0.654811 15.3425ZM5.03525e-06 16.0089L76.9994 15.7111V15.7105L5.03525e-06 16.0089ZM0.654811 16.6702L0.351439 93.6696L0.503125 93.6702H0.654811V16.6702ZM8.38024 18.3661L-68.6192 18.0679L-68.6198 18.217V18.3661H8.38024ZM7.7203 17.6996L8.02368 94.699L8.02463 94.699L7.7203 17.6996ZM7.06549 18.3661L84.0655 18.3659V18.2169L84.0649 18.0679L7.06549 18.3661ZM9.98259 15.3438L5.12198 92.1902L6.99581 92.3087L8.87319 92.3358L9.98259 15.3438ZM9.94279 15.3425L10.0959 -61.6574L10.0193 -61.6575H9.94279V15.3425ZM6.49 -72.3562C-40.3618 -71.0978 -71.2505 -32.0273 -71.2505 7.63442H82.7495C82.7495 44.0612 54.3457 80.4139 10.6249 81.5883L6.49 -72.3562ZM-71.25 7.33627C-71.2892 17.4819 -69.3403 27.5519 -65.4975 36.9726L77.0955 -21.1929C80.8723 -11.9342 82.7875 -2.0378 82.7489 7.93256L-71.25 7.33627ZM-65.4975 36.9726C-61.6541 46.3946 -55.982 55.0046 -48.771 62.2865L60.655 -46.0737C67.7433 -38.9157 73.3182 -30.4529 77.0955 -21.1929L-65.4975 36.9726ZM-48.771 62.2865C-41.5584 69.5701 -32.9483 75.3804 -23.4171 79.3451L35.73 -62.8435C45.1007 -58.9455 53.5651 -53.2333 60.655 -46.0737L-48.771 62.2865ZM-23.4171 79.3451C-13.8843 83.3106 -3.64168 85.3411 6.71344 85.3002L6.10536 -68.6985C16.287 -68.7388 26.3577 -66.7422 35.73 -62.8435L-23.4171 79.3451ZM6.56056 85.3007C16.8768 85.2804 27.0695 83.205 36.5487 79.2126L-23.2263 -62.7132C-13.9067 -66.6384 -3.88512 -68.6791 6.25824 -68.699L6.56056 85.3007ZM36.5487 79.2126C46.0262 75.221 54.5817 69.4016 61.7455 62.1249L-47.9969 -45.9149C-40.955 -53.0678 -32.5443 -58.7888 -23.2263 -62.7132L36.5487 79.2126ZM61.7455 62.1249C68.9078 54.8498 74.5395 46.2607 78.3549 36.8684L-64.3223 -21.0905C-60.5725 -30.3213 -55.0373 -38.7635 -47.9969 -45.9149L61.7455 62.1249ZM78.3549 36.8684C82.1698 27.4771 84.104 17.444 84.0649 7.33671L-69.9339 7.93212C-69.9723 -2.00063 -68.0716 -11.8607 -64.3223 -21.0905L78.3549 36.8684ZM84.0655 7.63442C84.0655 44.7046 54.6642 82.9437 8.63189 82.9437V-71.0563C-39.1094 -71.0563 -69.9345 -31.3553 -69.9345 7.63442H84.0655ZM8.63189 82.9437C-37.6381 82.9437 -66.8056 44.4515 -66.8056 7.63442H87.1944C87.1944 -31.1022 56.6109 -71.0563 8.63189 -71.0563V82.9437ZM-66.8056 7.63442C-66.8056 -28.8631 -37.9371 -67.6697 8.63189 -67.6697V86.3303C56.91 86.3303 87.1944 46.0514 87.1944 7.63442H-66.8056ZM8.63189 -67.6697H0.654811V86.3303H8.63189V-67.6697ZM0.351439 -67.6691C-20.3822 -67.5874 -40.0903 -59.2275 -54.5204 -44.6555L54.9055 63.705C40.7206 78.0293 21.3449 86.2494 0.958183 86.3297L0.351439 -67.6691ZM-54.5204 -44.6555C-68.9258 -30.1084 -76.9211 -10.5587 -76.9994 9.69377L76.9994 10.2894C76.9225 30.1915 69.0656 49.4056 54.9055 63.705L-54.5204 -44.6555ZM-76.9994 9.69314C-77.0385 19.7881 -75.1093 29.8089 -71.3038 39.19L71.4019 -18.6984C75.1419 -9.47865 77.0379 0.369356 76.9994 10.29L-76.9994 9.69314ZM-71.3038 39.19C-67.4978 48.5726 -61.8795 57.1548 -54.7336 64.4277L55.115 -43.5042C62.1394 -36.3551 67.6613 -27.9197 71.4019 -18.6984L-71.3038 39.19ZM-54.7336 64.4277C-47.5861 71.7021 -39.0488 77.5244 -29.5891 81.5251L30.396 -60.3121C39.6964 -56.3788 48.0891 -50.6549 55.115 -43.5042L-54.7336 64.4277ZM-29.5891 81.5251C-20.1279 85.5264 -9.95187 87.6168 0.351442 87.6574L0.958181 -66.3414C11.0888 -66.3015 21.094 -64.2461 30.396 -60.3121L-29.5891 81.5251ZM0.654811 87.658H8.63189V-66.342H0.654811V87.658ZM8.63189 87.658C56.8915 87.658 88.5105 47.5492 88.5105 7.63442H-65.4895C-65.4895 -28.9941 -36.4266 -66.342 8.63189 -66.342V87.658ZM88.5105 7.63442C88.5105 -32.456 56.7255 -72.384 8.63189 -72.384V81.616C-36.2607 81.616 -65.4895 44.4385 -65.4895 7.63442H88.5105ZM8.63189 -72.384C8.94992 -72.384 9.19703 -72.3819 9.25945 -72.3814C9.27646 -72.3812 9.33148 -72.3807 9.2837 -72.3812C9.26428 -72.3813 9.19759 -72.3819 9.11313 -72.3825C8.8297 -72.3844 7.8016 -72.3914 6.48983 -72.3562L10.625 81.5883C9.33809 81.6228 8.33473 81.6158 8.07608 81.614C7.99781 81.6135 7.93731 81.613 7.9241 81.6128C7.88252 81.6125 7.94374 81.613 7.96697 81.6132C8.0418 81.6138 8.30136 81.616 8.63189 81.616V-72.384ZM15.5228 -69.376C-32.6143 -69.376 -64.3545 -29.4021 -64.3545 10.6424H89.6455C89.6455 47.4006 60.4588 84.624 15.5228 84.624V-69.376ZM-64.354 10.344C-64.3931 20.4396 -62.4636 30.4603 -58.6584 39.8408L84.0474 -18.0475C87.7872 -8.82826 89.6833 1.01967 89.6449 10.9409L-64.354 10.344ZM-58.6584 39.8408C-54.8524 49.2232 -49.2343 57.8054 -42.0882 65.0784L67.7606 -42.8532C74.785 -35.704 80.3069 -27.2685 84.0474 -18.0475L-58.6584 39.8408ZM-42.0882 65.0784C-34.9408 72.3528 -26.4036 78.1752 -16.9438 82.1759L43.0416 -59.6612C52.3421 -55.7278 60.7348 -50.0038 67.7606 -42.8532L-42.0882 65.0784ZM-16.9438 82.1759C-7.48271 86.1771 2.69327 88.2676 12.9966 88.3083L13.6039 -65.6905C23.7346 -65.6506 33.7398 -63.5951 43.0416 -59.6612L-16.9438 82.1759ZM12.9959 88.3083C23.351 88.3492 33.5937 86.3187 43.1267 82.3532L-16.0202 -59.8355C-6.64772 -63.7343 3.42307 -65.7308 13.6046 -65.6905L12.9959 88.3083ZM43.1267 82.3532C52.6579 78.3885 61.2681 72.5781 68.4807 65.2946L-40.9453 -43.0657C-33.8555 -50.2253 -25.391 -55.9375 -16.0202 -59.8355L43.1267 82.3532ZM68.4807 65.2946C75.6917 58.0127 81.3639 49.4026 85.2072 39.9805L-57.3859 -18.1847C-53.6086 -27.4449 -48.0336 -35.9077 -40.9453 -43.0657L68.4807 65.2946ZM85.2072 39.9805C89.0499 30.56 90.999 20.4899 90.9596 10.344L-63.0392 10.9409C-63.0778 0.970161 -61.1625 -8.9263 -57.3859 -18.1847L85.2072 39.9805ZM90.9602 10.6424C90.9602 47.5397 61.7175 85.953 15.5228 85.953V-68.047C-32.3811 -68.047 -63.0398 -28.1743 -63.0398 10.6424H90.9602ZM15.5228 85.953C-30.3552 85.953 -59.9096 47.8765 -59.9096 10.6424H94.0904C94.0904 -28.5111 63.1098 -68.047 15.5228 -68.047V85.953ZM-59.9096 10.6424C-59.9096 -26.1926 -30.7304 -64.6617 15.5228 -64.6617V89.3383C63.4849 89.3383 94.0904 49.397 94.0904 10.6424H-59.9096ZM15.5228 -64.6617H0.654811V89.3383H15.5228V-64.6617ZM0.351438 -64.6611C-20.382 -64.5794 -40.0902 -56.2196 -54.5205 -41.6473L54.9056 66.7129C40.7206 81.0374 21.3447 89.2574 0.958184 89.3377L0.351438 -64.6611ZM-54.5205 -41.6473C-68.9259 -27.1002 -76.9212 -7.55034 -76.9994 12.7021L76.9994 13.2971C76.9225 33.1992 69.0657 52.4135 54.9056 66.7129L-54.5205 -41.6473ZM-76.9994 12.7012C-77.0385 22.7962 -75.1092 32.817 -71.3038 42.1981L71.4019 -15.6904C75.1419 -6.47068 77.0379 3.37731 76.9994 13.298L-76.9994 12.7012ZM-71.3038 42.1981C-67.4978 51.5804 -61.8797 60.1627 -54.7336 67.4357L55.115 -40.4962C62.1395 -33.3469 67.6614 -24.9114 71.4019 -15.6904L-71.3038 42.1981ZM-54.7336 67.4357C-47.5861 74.7101 -39.0488 80.5325 -29.5891 84.5331L30.396 -57.3041C39.6964 -53.3708 48.0891 -47.6468 55.115 -40.4962L-54.7336 67.4357ZM-29.5891 84.5331C-20.1279 88.5344 -9.95187 90.6248 0.351442 90.6654L0.958181 -63.3334C11.0888 -63.2935 21.094 -61.238 30.396 -57.3041L-29.5891 84.5331ZM0.654811 90.666H15.5228V-63.334H0.654811V90.666ZM15.5228 90.666C63.652 90.666 95.4052 50.6952 95.4052 10.6424H-58.5948C-58.5948 -26.124 -29.4054 -63.334 15.5228 -63.334V90.666ZM95.4052 10.6424C95.4052 -29.5859 63.4858 -69.376 15.5228 -69.376V84.624C-29.2392 84.624 -58.5948 47.5844 -58.5948 10.6424H95.4052ZM0.351442 -61.6569C-9.95187 -61.6163 -20.1279 -59.5259 -29.5891 -55.5246L30.396 86.3126C21.094 90.2465 11.0888 92.302 0.958181 92.3419L0.351442 -61.6569ZM-29.5891 -55.5246C-39.0488 -51.524 -47.5861 -45.7016 -54.7336 -38.4272L55.115 69.5047C48.0891 76.6553 39.6964 82.3793 30.396 86.3126L-29.5891 -55.5246ZM-54.7336 -38.4272C-61.8794 -31.1544 -67.4977 -22.5723 -71.3038 -13.1896L71.4019 44.6989C67.6613 53.9203 62.1392 62.3557 55.115 69.5047L-54.7336 -38.4272ZM-71.3038 -13.1896C-75.1093 -3.80837 -77.0385 6.21242 -76.9994 16.3073L76.9994 15.7105C77.0379 25.6311 75.142 35.4791 71.4019 44.6989L-71.3038 -13.1896ZM-76.9994 16.3067C-76.9211 36.5592 -68.9258 56.1089 -54.5204 70.656L54.9055 -37.7045C69.0655 -23.4052 76.9225 -4.19103 76.9994 15.7111L-76.9994 16.3067ZM-54.5204 70.656C-40.0903 85.228 -20.3822 93.5879 0.351439 93.6696L0.958183 -60.3292C21.3449 -60.2489 40.7206 -52.0288 54.9055 -37.7045L-54.5204 70.656ZM0.654811 93.6702H9.94279V-60.3298H0.654811V93.6702ZM9.94279 93.6702C-36.3104 93.6702 -65.4895 55.2011 -65.4895 18.3661H88.5105C88.5105 -20.3885 57.905 -60.3298 9.94279 -60.3298V93.6702ZM-65.4895 18.3661C-65.4895 -18.7882 -36.0104 -56.9432 9.94279 -56.9432V97.0568C57.605 97.0568 88.5105 57.4398 88.5105 18.3661H-65.4895ZM9.94279 -56.9432C56.2129 -56.9432 85.3802 -18.4509 85.3802 18.3661H-68.6198C-68.6198 57.1025 -38.0364 97.0568 9.94279 97.0568V-56.9432ZM85.3797 18.6642C85.419 8.51874 83.4701 -1.55135 79.6272 -10.9722L-62.9658 47.1934C-66.7426 37.9346 -68.6578 28.0382 -68.6192 18.0679L85.3797 18.6642ZM79.6272 -10.9722C75.7838 -20.3943 70.1116 -29.0043 62.9006 -36.2862L-46.5252 72.0743C-53.6135 64.9163 -59.1885 56.4536 -62.9658 47.1934L79.6272 -10.9722ZM62.9006 -36.2862C55.6878 -43.5699 47.0775 -49.3802 37.5466 -53.3447L-21.6001 88.8441C-30.9706 84.9462 -39.4351 79.2341 -46.5252 72.0743L62.9006 -36.2862ZM37.5466 -53.3447C28.0142 -57.31 17.7716 -59.3407 7.41597 -59.2998L8.02463 94.699C-2.15744 94.7393 -12.2282 92.7426 -21.6001 88.8441L37.5466 -53.3447ZM7.41692 -59.2998C-2.88643 -59.2592 -13.0624 -57.1687 -22.5235 -53.1675L37.4614 88.6698C28.1595 92.6037 18.1544 94.6591 8.02368 94.699L7.41692 -59.2998ZM-22.5235 -53.1675C-31.9835 -49.1667 -40.5207 -43.3443 -47.668 -36.0701L62.1804 71.8619C55.1548 79.0123 46.7621 84.7364 37.4614 88.6698L-22.5235 -53.1675ZM-47.668 -36.0701C-54.8138 -28.7975 -60.4321 -20.2154 -64.2382 -10.8326L78.4673 47.0563C74.7266 56.2777 69.2046 64.713 62.1804 71.8619L-47.668 -36.0701ZM-64.2382 -10.8326C-68.0437 -1.45151 -69.973 8.56924 -69.9339 18.6642L84.0649 18.0679C84.1033 27.9885 82.2074 37.8365 78.4673 47.0563L-64.2382 -10.8326ZM-69.9345 18.3662C-69.9344 58.4104 -38.1944 98.3845 9.94279 98.3845V-55.6155C54.879 -55.6155 84.0654 -18.392 84.0655 18.3659L-69.9345 18.3662ZM9.94279 98.3845C57.9057 98.3845 89.8252 58.5945 89.8252 18.3661H-64.1748C-64.1748 -18.576 -34.8191 -55.6155 9.94279 -55.6155V98.3845ZM89.8252 18.3661C89.8252 -21.4433 58.5708 -60.9641 11.092 -61.6482L8.87319 92.3358C-35.442 91.6972 -64.1748 54.9165 -64.1748 18.3661H89.8252ZM14.8432 -61.5027C13.2616 -61.6027 11.6784 -61.6542 10.0959 -61.6574L9.7897 92.3423C8.23369 92.3392 6.67705 92.2886 5.12198 92.1902L14.8432 -61.5027ZM9.94279 -61.6575H0.654811V92.3425H9.94279V-61.6575Z" fill="black" mask="url(#path-1-inside-1_136_6158)"/>
<path d="M30.8877 19.5L29.9561 16.4414H25.2715L24.3398 19.5H21.4043L25.9395 6.59766H29.2705L33.8232 19.5H30.8877ZM29.3057 14.1562L28.374 11.168C28.3154 10.9688 28.2363 10.7139 28.1367 10.4033C28.043 10.0869 27.9463 9.76758 27.8467 9.44531C27.7529 9.11719 27.6768 8.83301 27.6182 8.59277C27.5596 8.83301 27.4775 9.13184 27.3721 9.48926C27.2725 9.84082 27.1758 10.1748 27.082 10.4912C26.9883 10.8076 26.9209 11.0332 26.8799 11.168L25.957 14.1562H29.3057ZM37.9189 9.67383V19.5H35.2383V9.67383H37.9189ZM36.583 5.82422C36.9814 5.82422 37.3242 5.91797 37.6113 6.10547C37.8984 6.28711 38.042 6.62988 38.042 7.13379C38.042 7.63184 37.8984 7.97754 37.6113 8.1709C37.3242 8.3584 36.9814 8.45215 36.583 8.45215C36.1787 8.45215 35.833 8.3584 35.5459 8.1709C35.2646 7.97754 35.124 7.63184 35.124 7.13379C35.124 6.62988 35.2646 6.28711 35.5459 6.10547C35.833 5.91797 36.1787 5.82422 36.583 5.82422ZM46.2246 9.48926C46.3594 9.48926 46.5146 9.49805 46.6904 9.51562C46.8721 9.52734 47.0186 9.54492 47.1299 9.56836L46.9277 12.082C46.8398 12.0527 46.7139 12.0322 46.5498 12.0205C46.3916 12.0029 46.2539 11.9941 46.1367 11.9941C45.791 11.9941 45.4541 12.0381 45.126 12.126C44.8037 12.2139 44.5137 12.3574 44.2559 12.5566C43.998 12.75 43.793 13.0078 43.6406 13.3301C43.4941 13.6465 43.4209 14.0361 43.4209 14.499V19.5H40.7402V9.67383H42.7705L43.166 11.3262H43.2979C43.4912 10.9922 43.7314 10.6875 44.0186 10.4121C44.3115 10.1309 44.6426 9.9082 45.0117 9.74414C45.3867 9.57422 45.791 9.48926 46.2246 9.48926ZM52.9658 9.48926C53.874 9.48926 54.6562 9.66504 55.3125 10.0166C55.9688 10.3623 56.4756 10.8662 56.833 11.5283C57.1904 12.1904 57.3691 12.999 57.3691 13.9541V15.2549H51.0322C51.0615 16.0107 51.2871 16.6055 51.709 17.0391C52.1367 17.4668 52.7285 17.6807 53.4844 17.6807C54.1113 17.6807 54.6855 17.6162 55.207 17.4873C55.7285 17.3584 56.2646 17.165 56.8154 16.9072V18.9814C56.3291 19.2217 55.8193 19.3975 55.2861 19.5088C54.7588 19.6201 54.1172 19.6758 53.3613 19.6758C52.377 19.6758 51.5039 19.4941 50.7422 19.1309C49.9863 18.7676 49.3916 18.2139 48.958 17.4697C48.5303 16.7256 48.3164 15.7881 48.3164 14.6572C48.3164 13.5088 48.5098 12.5537 48.8965 11.792C49.2891 11.0244 49.834 10.4502 50.5312 10.0693C51.2285 9.68262 52.04 9.48926 52.9658 9.48926ZM52.9834 11.3965C52.4619 11.3965 52.0283 11.5635 51.6826 11.8975C51.3428 12.2314 51.1465 12.7559 51.0938 13.4707H54.8555C54.8496 13.0723 54.7764 12.7178 54.6357 12.4072C54.501 12.0967 54.2959 11.8506 54.0205 11.6689C53.751 11.4873 53.4053 11.3965 52.9834 11.3965ZM63.5742 9.47168C64.8926 9.47168 65.9033 9.75879 66.6064 10.333C67.3096 10.9072 67.6611 11.7803 67.6611 12.9521V19.5H65.7891L65.2705 18.1641H65.2002C64.9189 18.5156 64.6318 18.8027 64.3389 19.0254C64.0459 19.248 63.709 19.4121 63.3281 19.5176C62.9473 19.623 62.4844 19.6758 61.9395 19.6758C61.3594 19.6758 60.8379 19.5645 60.375 19.3418C59.918 19.1191 59.5576 18.7793 59.2939 18.3223C59.0303 17.8594 58.8984 17.2734 58.8984 16.5645C58.8984 15.5215 59.2646 14.7539 59.9971 14.2617C60.7295 13.7637 61.8281 13.4883 63.293 13.4355L64.998 13.3828V12.9521C64.998 12.4365 64.8633 12.0586 64.5938 11.8184C64.3242 11.5781 63.9492 11.458 63.4688 11.458C62.9941 11.458 62.5283 11.5254 62.0713 11.6602C61.6143 11.7949 61.1572 11.9648 60.7002 12.1699L59.8125 10.3594C60.334 10.084 60.917 9.86719 61.5615 9.70898C62.2119 9.55078 62.8828 9.47168 63.5742 9.47168ZM64.998 14.9473L63.9609 14.9824C63.0938 15.0059 62.4902 15.1611 62.1504 15.4482C61.8164 15.7354 61.6494 16.1133 61.6494 16.582C61.6494 16.9922 61.7695 17.2852 62.0098 17.4609C62.25 17.6309 62.5635 17.7158 62.9502 17.7158C63.5244 17.7158 64.0078 17.5459 64.4004 17.2061C64.7988 16.8662 64.998 16.3828 64.998 15.7559V14.9473ZM74.4199 19.6758C73.4473 19.6758 72.6182 19.5 71.9326 19.1484C71.2471 18.791 70.7256 18.2402 70.3682 17.4961C70.0107 16.752 69.832 15.7998 69.832 14.6396C69.832 13.4385 70.0342 12.46 70.4385 11.7041C70.8486 10.9424 71.4141 10.3828 72.1348 10.0254C72.8613 9.66797 73.7021 9.48926 74.6572 9.48926C75.3369 9.48926 75.9229 9.55664 76.415 9.69141C76.9131 9.82031 77.3467 9.97559 77.7158 10.1572L76.9248 12.2314C76.5029 12.0615 76.1104 11.9238 75.7471 11.8184C75.3838 11.707 75.0205 11.6514 74.6572 11.6514C74.1885 11.6514 73.7988 11.7627 73.4883 11.9854C73.1777 12.2021 72.9463 12.5303 72.7939 12.9697C72.6416 13.4092 72.5654 13.96 72.5654 14.6221C72.5654 15.2725 72.6475 15.8115 72.8115 16.2393C72.9756 16.667 73.2129 16.9863 73.5234 17.1973C73.834 17.4023 74.2119 17.5049 74.6572 17.5049C75.2139 17.5049 75.709 17.4316 76.1426 17.2852C76.5762 17.1328 76.998 16.9219 77.4082 16.6523V18.9463C76.998 19.2041 76.5674 19.3887 76.1162 19.5C75.6709 19.6172 75.1055 19.6758 74.4199 19.6758ZM83.6836 19.6758C82.7109 19.6758 81.8818 19.5 81.1963 19.1484C80.5107 18.791 79.9893 18.2402 79.6318 17.4961C79.2744 16.752 79.0957 15.7998 79.0957 14.6396C79.0957 13.4385 79.2979 12.46 79.7021 11.7041C80.1123 10.9424 80.6777 10.3828 81.3984 10.0254C82.125 9.66797 82.9658 9.48926 83.9209 9.48926C84.6006 9.48926 85.1865 9.55664 85.6787 9.69141C86.1768 9.82031 86.6104 9.97559 86.9795 10.1572L86.1885 12.2314C85.7666 12.0615 85.374 11.9238 85.0107 11.8184C84.6475 11.707 84.2842 11.6514 83.9209 11.6514C83.4521 11.6514 83.0625 11.7627 82.752 11.9854C82.4414 12.2021 82.21 12.5303 82.0576 12.9697C81.9053 13.4092 81.8291 13.96 81.8291 14.6221C81.8291 15.2725 81.9111 15.8115 82.0752 16.2393C82.2393 16.667 82.4766 16.9863 82.7871 17.1973C83.0977 17.4023 83.4756 17.5049 83.9209 17.5049C84.4775 17.5049 84.9727 17.4316 85.4062 17.2852C85.8398 17.1328 86.2617 16.9219 86.6719 16.6523V18.9463C86.2617 19.2041 85.8311 19.3887 85.3799 19.5C84.9346 19.6172 84.3691 19.6758 83.6836 19.6758ZM91.6377 9.67383V19.5H88.957V9.67383H91.6377ZM90.3018 5.82422C90.7002 5.82422 91.043 5.91797 91.3301 6.10547C91.6172 6.28711 91.7607 6.62988 91.7607 7.13379C91.7607 7.63184 91.6172 7.97754 91.3301 8.1709C91.043 8.3584 90.7002 8.45215 90.3018 8.45215C89.8975 8.45215 89.5518 8.3584 89.2646 8.1709C88.9834 7.97754 88.8428 7.63184 88.8428 7.13379C88.8428 6.62988 88.9834 6.28711 89.2646 6.10547C89.5518 5.91797 89.8975 5.82422 90.3018 5.82422ZM103.389 14.5693C103.389 15.3896 103.277 16.1162 103.055 16.749C102.838 17.3818 102.519 17.918 102.097 18.3574C101.681 18.791 101.177 19.1191 100.585 19.3418C99.999 19.5645 99.3369 19.6758 98.5986 19.6758C97.9072 19.6758 97.2715 19.5645 96.6914 19.3418C96.1172 19.1191 95.6162 18.791 95.1885 18.3574C94.7666 17.918 94.4385 17.3818 94.2041 16.749C93.9756 16.1162 93.8613 15.3896 93.8613 14.5693C93.8613 13.4795 94.0547 12.5566 94.4414 11.8008C94.8281 11.0449 95.3789 10.4707 96.0938 10.0781C96.8086 9.68555 97.6611 9.48926 98.6514 9.48926C99.5713 9.48926 100.386 9.68555 101.095 10.0781C101.81 10.4707 102.369 11.0449 102.773 11.8008C103.184 12.5566 103.389 13.4795 103.389 14.5693ZM96.5947 14.5693C96.5947 15.2139 96.665 15.7559 96.8057 16.1953C96.9463 16.6348 97.166 16.9658 97.4648 17.1885C97.7637 17.4111 98.1533 17.5225 98.6338 17.5225C99.1084 17.5225 99.4922 17.4111 99.7852 17.1885C100.084 16.9658 100.301 16.6348 100.436 16.1953C100.576 15.7559 100.646 15.2139 100.646 14.5693C100.646 13.9189 100.576 13.3799 100.436 12.9521C100.301 12.5186 100.084 12.1934 99.7852 11.9766C99.4863 11.7598 99.0967 11.6514 98.6162 11.6514C97.9072 11.6514 97.3916 11.8945 97.0693 12.3809C96.7529 12.8672 96.5947 13.5967 96.5947 14.5693ZM111.185 9.48926C112.233 9.48926 113.077 9.77637 113.716 10.3506C114.354 10.9189 114.674 11.833 114.674 13.0928V19.5H111.993V13.7607C111.993 13.0576 111.864 12.5273 111.606 12.1699C111.354 11.8125 110.956 11.6338 110.411 11.6338C109.591 11.6338 109.031 11.9121 108.732 12.4688C108.434 13.0254 108.284 13.8281 108.284 14.877V19.5H105.604V9.67383H107.651L108.012 10.9307H108.161C108.372 10.5908 108.633 10.3154 108.943 10.1045C109.26 9.89355 109.608 9.73828 109.989 9.63867C110.376 9.53906 110.774 9.48926 111.185 9.48926Z" fill="black"/>
</svg>
