<svg width="17" height="18" viewBox="0 0 17 18" fill="none" xmlns="http://www.w3.org/2000/svg">
<path d="M0.752728 16.7508L0.750909 16.749C0.416364 16.4145 0.416363 15.8715 0.75091 15.5369L15.0364 1.2514C15.371 0.916852 15.914 0.916852 16.2485 1.2514C16.5831 1.58594 16.5831 2.12895 16.2485 2.4635M0.752728 16.7508L16.2485 2.4635M0.752728 16.7508C0.919242 16.9156 1.13831 16.9997 1.35732 16.9997M0.752728 16.7508L1.35732 16.9997M16.2485 2.4635L1.96301 16.749C1.79614 16.9159 1.57586 16.9997 1.35732 16.9997M16.2485 2.4635L1.35732 16.9997" fill="black" stroke="black"/>
<path d="M15.0382 16.7508L15.0364 16.749L0.750909 2.4635M15.0382 16.7508L0.750909 2.4635M15.0382 16.7508C15.2048 16.9156 15.4238 16.9997 15.6428 16.9997M15.0382 16.7508L15.6428 16.9997M0.750909 2.4635C0.416364 2.12895 0.416364 1.58594 0.750909 1.2514C1.08546 0.916852 1.62846 0.916852 1.96301 1.2514L16.2485 15.5369C16.5831 15.8715 16.5831 16.4145 16.2485 16.749C16.0817 16.9159 15.8614 16.9997 15.6428 16.9997M0.750909 2.4635L15.6428 16.9997" fill="black" stroke="black"/>
</svg>
