<svg width="25" height="24" viewBox="0 0 25 24" fill="none" xmlns="http://www.w3.org/2000/svg">
<path d="M1.26316 8.21059H11.4211C13.5 8.21059 15.2105 6.52638 15.2105 4.42112C15.2105 2.31585 13.5 0.657959 11.4211 0.657959C10.3947 0.657959 9.39474 1.07901 8.68421 1.84217C8.21053 2.34217 8.21053 3.15796 8.73684 3.63164C9.23684 4.10533 10.0526 4.10533 10.5263 3.57901C10.7632 3.34217 11.0789 3.18427 11.4211 3.18427C12.1053 3.18427 12.6579 3.73691 12.6579 4.42112C12.6579 5.10533 12.1053 5.65796 11.3947 5.65796H1.26316C0.552632 5.65796 0 6.23691 0 6.92112C0 7.60533 0.578947 8.21059 1.26316 8.21059Z" fill="black"/>
<path d="M16.4737 15.7896H1.26316C0.552632 15.7896 0 16.3685 0 17.0527C0 17.7369 0.578947 18.3159 1.26316 18.3159H16.5C17.1842 18.3159 17.7368 18.8685 17.7368 19.5527C17.7368 20.2369 17.1842 20.7896 16.5 20.7896C16.1316 20.7896 15.7895 20.6317 15.5526 20.3685C15.1053 19.8422 14.2895 19.7632 13.7632 20.2369C13.2368 20.6843 13.1579 21.5001 13.6316 22.0264C14.3421 22.8685 15.3947 23.3422 16.5 23.3422C18.5789 23.3422 20.2895 21.658 20.2895 19.5527C20.2895 17.4474 18.5789 15.7896 16.4737 15.7896Z" fill="black"/>
<path d="M20.5526 4.36865C18.8158 4.36865 17.2105 5.39497 16.5 7.00023C16.2105 7.63181 16.5 8.39497 17.1316 8.68444C17.7632 8.97392 18.5263 8.68444 18.8158 8.05286C19.1316 7.36865 19.8158 6.92128 20.5526 6.92128C21.6053 6.92128 22.4474 7.78971 22.4474 8.81602C22.4474 9.84234 21.6053 10.7108 20.5526 10.7108H1.26316C0.552632 10.7108 0 11.2897 0 11.9739C0 12.6581 0.578947 13.2371 1.26316 13.2371H20.5526C23 13.2371 25 11.2371 25 8.7897C25 6.34234 23 4.36865 20.5526 4.36865Z" fill="black"/>
</svg>
