<svg width="417" height="312" viewBox="0 0 417 312" fill="none" xmlns="http://www.w3.org/2000/svg">
<path fill-rule="evenodd" clip-rule="evenodd" d="M114.369 271.314H66.4298C30.1862 271.314 0.761719 241.89 0.761719 205.646C0.761719 169.403 30.1862 139.978 66.4298 139.978C69.3393 139.978 72.206 140.169 75.0167 140.536C76.7819 96.0917 113.422 60.5504 158.297 60.5504C172.652 60.5504 186.164 64.1876 197.962 70.5901C210.164 55.7997 227.367 45.2847 246.971 41.6409L114.369 271.314Z" fill="black"/>
<path fill-rule="evenodd" clip-rule="evenodd" d="M336.456 271.297L336.441 271.313H147.378C144.1 271.313 141.071 269.564 139.433 266.725C137.793 263.888 137.793 260.391 139.433 257.552L262.023 45.2181C263.833 42.0857 267.313 40.3071 270.912 40.6797C307.706 44.4811 337.429 72.2579 344.176 108.102C385.024 112.69 416.82 147.386 416.82 189.45C416.82 234.068 381.046 270.397 336.456 271.297ZM336.257 252.964V252.952C370.714 252.261 398.472 224.071 398.472 189.45C398.472 154.739 370.568 126.492 335.986 125.944C331.299 125.869 327.422 122.273 326.996 117.604C324.36 88.712 302.78 65.26 274.796 59.7895L163.267 252.964H336.257Z" fill="black"/>
<path fill-rule="evenodd" clip-rule="evenodd" d="M284.811 6.37088C286.841 2.85572 291.345 1.6486 294.864 3.68047C298.383 5.71234 299.59 10.2165 297.56 13.7316L129.32 305.133C127.285 308.657 122.781 309.864 119.262 307.832C115.743 305.801 114.536 301.297 116.57 297.773L284.811 6.37088Z" fill="black"/>
</svg>
